<?xml version="1.0" encoding="UTF-8"?>
<svg xmlns="http://www.w3.org/2000/svg" version="1.1" viewBox="0 0 1000 187">
  <defs>
    <style>
      .cls-1 {
        fill: #e0ad49;
      }

      .cls-2 {
        fill: #8cdba4;
      }

      .cls-3 {
        fill: #030303;
      }

      .cls-4 {
        fill: #ce6326;
      }
    </style>
  </defs>
  <!-- Generator: Adobe Illustrator 28.6.0, SVG Export Plug-In . SVG Version: 1.2.0 Build 709)  -->
  <g>
    <g id="Logo_x5F_new_x5F_umgewandelt">
      <g id="Logo_x5F_new">
        <path class="cls-3" d="M10.6,42.3c0-21.9,11.8-33.3,33.5-33.3s32.4,6.8,33.6,29h-4.1c-1.2-18-14.9-24.9-29.6-24.9s-29.2,8.4-29.2,29,8.2,25.5,28.7,31.9c26.4,8.2,34,20.5,34,38.8,0,28.3-14.6,36.1-35.8,36.1s-33.5-10.9-33.7-30.6h4.1c.5,17.6,12.1,26.5,29.7,26.5s31-7.3,31-32-8.4-27.4-30.8-34.7c-22.6-7.3-31.5-16.2-31.5-35.8h0Z"/>
        <path class="cls-3" d="M150.9,118.2h4.1v.9c0,19.4-8.4,29.9-30.1,29.9s-30.4-9.4-30.4-38.6v-31c0-29.2,10.5-38.1,31.3-38.1s28.7,10.3,28.7,28.8v.7h-4.1v-.7c0-14.8-5-24.9-24.8-24.9s-26.9,9.6-26.9,34.2v30.4c0,23.9,5.3,35.2,26.4,35.2s25.8-11,25.8-26v-.9h0Z"/>
        <path class="cls-3" d="M179.4,43.4l.7,13.9c3.9-8,13-16,26.2-16s4.1.2,5.3.4v4.3c-1.4-.2-3-.4-5.3-.4-15.5,0-26.5,10.3-26.5,27.8v73.5h-4.3V43.4h3.9,0Z"/>
        <path class="cls-3" d="M281.5,146.8l-.7-12.6c-4.8,8.7-13.9,14.8-27.2,14.8-24.6,0-29.5-13.9-29.5-36.8V43.4h4.3v68.7c0,22.6,5.3,32.9,26,32.9s26.9-9.6,26.9-26.7V43.4h4.3v103.4h-3.9,0Z"/>
        <path class="cls-3" d="M373.4,79.5v67.3h-4.3v-66.9c0-24.4-5.5-34.7-26-34.7s-27.6,9.6-27.6,26.7v74.9h-4.3V43.4h3.9l.7,12.8c4.8-8.7,14.1-14.9,28-14.9s25.5,6.9,28.1,21.4c3.4-13.5,15.1-21.4,29.7-21.4,24.6,0,30.1,13.9,30.1,36.9v68.7h-4.3v-68.7c0-22.6-5.7-32.9-26.4-32.9s-27.8,10.3-27.8,34.4h0Z"/>
        <path class="cls-3" d="M519.2,110.5c0,29.4-13.2,38.4-30.6,38.4s-23.5-6.1-27.2-15.1l-.2,47.4h-4.3l.2-137.8h3.9l.7,12.6c4.6-8.7,13.7-14.8,27.2-14.8,21.2,0,30.3,13.9,30.3,38.8v30.4h0ZM514.9,79.7c0-22.6-7.8-34.5-26.3-34.5s-27.2,9.6-27.2,26.7v43.1c0,22.4,11.9,30.1,27.2,30.1s26.3-8.9,26.3-35.1v-30.3Z"/>
        <path class="cls-3" d="M562.6,147c-19.6,2-22.1-5.5-22.1-26.5V9.4h4.3v111.8c0,20.3,2.1,22.4,18,22.4l-.2,3.4h0Z"/>
        <path class="cls-3" d="M580.4,9.4h4.6v8.4h-4.6v-8.4ZM584.9,146.8h-4.3V43.4h4.3v103.4Z"/>
        <path class="cls-3" d="M678.3,45h-4.1v-.9c0-20.3-8.2-31-28.8-31-29.7,0-32,18.5-32,42.7v45.6c0,25.5,1.6,43.4,32,43.4s28.1-10,29.4-31.5v-.9h4.1v.9c-.9,23.1-7.8,35.6-33.7,35.6s-36.3-16.9-36.3-47.4v-44.5c0-31.2,5.9-48.1,36.5-48.1s32.9,11.8,32.9,35.1v.9Z"/>
        <path class="cls-3" d="M698.5,9.4h4.6v8.4h-4.6v-8.4ZM702.9,146.8h-4.3V43.4h4.3v103.4Z"/>
        <path class="cls-3" d="M759,148.9c-2.3,0-6,0-9.9,0-17.1,0-22.4-8.5-22.4-27.2V19.7h4.3v24.8h28v4.1h-28v73c0,19.1,5.5,23.3,18.5,23.3h9.6v4c0,0,0,0,0,0Z"/>
        <path class="cls-3" d="M803.5,149.7l-34.5-106.3h4.6l32.4,100.1,28.3-100.1h4.6l-32.4,111.4c-6.4,22.2-13.2,28.1-24.8,28.1s-5.9-.5-8.2-1.6v-4.1c2.8,1.2,5.5,1.6,8,1.6,10.9,0,15.5-5.9,20.7-24.4l1.2-4.8h0Z"/>
        <path class="cls-2" d="M871.1,98.5h41.6v49s-24.5-3.4-41.6-22.9"/>
        <path class="cls-1" d="M975.5,78h-40.2v67s28.7-6.4,40.2-19"/>
        <path class="cls-4" d="M900.6,92.5v-49.1h45v28.9h-16.1s0,72.7,0,72.7c0,0-1.6.5-10.7.5v-52.9h-18.2c0,0,0,0,0,0Z"/>
        <rect class="cls-3" x="752" y="144.9" width="125.2" height="4.1"/>
        <path class="cls-3" d="M924.1,148.4c-19,0-36.9-7.4-50.3-21l2.9-2.9c12.6,12.7,29.4,19.8,47.4,19.8,36.8,0,66.7-29.9,66.7-66.7s-29.9-66.7-66.7-66.7-66.7,29.9-66.7,66.7v1h-4.1c0,0,0-1,0-1,0-39,31.7-70.8,70.8-70.8s70.8,31.7,70.8,70.8-31.7,70.8-70.8,70.8h0Z"/>
        <polygon class="cls-3" points="855.4 82.4 847.3 73.5 850.3 70.7 855.4 76.3 860.5 70.7 863.5 73.5 855.4 82.4"/>
        <polygon points="877.2 148.9 873.1 148.9 873.1 92.4 918.9 92.4 918.9 145.8 914.8 145.8 914.8 96.5 877.2 96.5 877.2 148.9"/>
        <polygon class="cls-3" points="933.3 146.9 929.2 146.9 929.3 72 973.5 72 973.6 127.9 969.5 127.9 969.4 76.1 933.4 76.1 933.3 146.9"/>
        <polygon class="cls-3" points="894.5 94.9 894.5 37.3 943.6 37.3 943.6 74.2 939.5 74.2 939.5 41.4 898.6 41.4 898.6 94.9 894.5 94.9"/>
        <g id="Fenster">
          <rect class="cls-3" x="951" y="85.4" width="6.5" height="6.1"/>
          <rect class="cls-3" x="942.5" y="93.5" width="6.5" height="6.1"/>
          <rect class="cls-3" x="908.2" y="53.9" width="8" height="7.5"/>
          <rect class="cls-3" x="897" y="104.9" width="7.3" height="6.9"/>
          <rect class="cls-3" x="886.2" y="104.9" width="7.3" height="6.9"/>
          <rect class="cls-3" x="942.5" y="85.4" width="6.5" height="6.1"/>
          <rect class="cls-3" x="951" y="93.5" width="6.5" height="6.1"/>
          <rect class="cls-3" x="908.2" y="68.1" width="8" height="7.5"/>
        </g>
      </g>
    </g>
  </g>
</svg>