<svg width="283" height="160" viewBox="0 0 283 160" fill="none" xmlns="http://www.w3.org/2000/svg">
<path d="M282.574 78.2762C280.273 47.4576 261.416 20.5541 233.328 7.72398H233.302C233.064 7.59172 232.852 7.4859 232.614 7.35363C221.744 2.5655 210.212 0.158203 198.337 0.158203H52C23.8063 0.158203 0.928711 23.0407 0.928711 51.1875V116.184C0.928711 124.808 7.9639 131.792 16.5331 131.792H267.208C275.724 131.792 282.76 124.808 282.76 116.184V84.6516C282.76 82.5353 282.76 80.3925 282.574 78.2762ZM274.719 127.401C274.005 127.877 273.238 128.3 272.445 128.644C271.625 128.988 270.779 129.253 269.906 129.438C269.033 129.597 268.134 129.702 267.208 129.702H16.5331C15.6074 129.702 14.7082 129.597 13.8354 129.438C13.5973 129.411 13.3329 129.332 13.0948 129.253C12.8832 129.2 12.6981 129.147 12.513 129.094C12.0898 128.988 11.6931 128.829 11.2964 128.644C10.4765 128.3 9.70947 127.877 8.99538 127.401C8.28128 126.925 7.62008 126.369 7.01177 125.734C6.85308 125.602 6.69439 125.443 6.56215 125.258C6.29767 124.967 6.05964 124.703 5.82161 124.385C5.58358 124.094 5.37199 123.777 5.16041 123.459C4.73724 122.824 4.39341 122.137 4.07604 121.422C3.73221 120.629 3.44128 119.782 3.28259 118.883C3.09745 118.01 2.99166 117.11 2.99166 116.184V51.1875C2.99166 24.1518 24.97 2.22159 52 2.22159H198.337C201.352 2.22159 204.42 2.40677 207.382 2.69776C208.097 2.80358 208.864 2.85649 209.445 2.98876H209.472C216.983 3.994 224.256 6.0045 231.292 9.07313C231.503 9.12604 231.609 9.2054 231.741 9.25831C232.323 9.49639 232.852 9.78738 233.381 10.0784H233.407C259.988 22.6439 277.92 48.2247 280.406 77.562C280.406 77.8794 280.511 78.091 280.511 78.382V79.9163C280.617 81.53 280.697 83.1172 280.697 84.6516V116.184C280.697 119.888 279.163 123.274 276.729 125.734C276.121 126.369 275.433 126.925 274.719 127.401Z" fill="#4E4E4E"/>
<path d="M58.7972 2.22168V68.4619H2.9917V51.1876C2.9917 24.1519 24.9701 2.22168 52 2.22168H58.7972Z" fill="#FCFCFC"/>
<path d="M109.339 2.22168H60.8599V68.4619H109.339V2.22168Z" fill="#FCFCFC"/>
<path d="M198.337 2.22168H161.971V68.4619H202.939C205.373 68.4619 207.383 66.4514 207.383 64.0177V2.69785C204.42 2.40686 201.352 2.22168 198.337 2.22168ZM183.5 51.6902C183.5 51.6902 183.341 51.7167 183.262 51.7167C182.971 51.7167 182.68 51.5315 182.574 51.2141L177.39 35.9502C177.258 35.5799 177.47 35.1566 177.867 35.0244C178.21 34.8921 178.66 35.1037 178.792 35.4741L183.976 50.7379C184.108 51.1347 183.897 51.558 183.5 51.6902ZM191.408 50.4734C191.408 50.4734 191.249 50.5263 191.17 50.5263C190.853 50.5263 190.588 50.3411 190.482 50.0237L181.675 24.4958C181.543 24.1254 181.754 23.7021 182.125 23.5699C182.521 23.4376 182.945 23.6228 183.077 24.0196L191.858 49.5475C191.99 49.9178 191.805 50.3411 191.408 50.4734Z" fill="#FCFCFC"/>
<path d="M159.908 2.22168H111.402V68.4619H159.908V2.22168Z" fill="#FCFCFC"/>
<path d="M280.405 77.5616C280.405 77.5616 280.379 77.5616 280.353 77.5616C239.305 57.8271 234.068 20.0247 233.407 10.1045C259.988 22.6436 277.919 48.2244 280.405 77.5616Z" fill="#FCFCFC"/>
<path d="M280.723 84.6512V116.158C280.723 123.618 274.64 129.702 267.181 129.702H227.404C226.742 114.808 214.444 102.984 199.448 102.984C184.452 102.984 172.127 114.808 171.492 129.702H103.203C102.542 114.808 90.2437 102.984 75.2476 102.984C60.2516 102.984 47.9797 114.808 47.3449 129.702H16.6122C9.15386 129.702 3.0708 123.618 3.0708 116.158V70.4984H203.018C206.562 70.4984 209.525 67.5885 209.525 63.9908V2.96191C217.036 3.96716 224.309 5.97765 231.344 9.04629C231.635 17.1941 235.708 58.9646 280.591 79.8895C280.696 81.4767 280.776 83.0904 280.776 84.6247L280.723 84.6512Z" fill="#DC9167"/>
<path d="M60.8603 1.2168H58.7974V69.5205H60.8603V1.2168Z" fill="#4E4E4E"/>
<path d="M111.402 1.4541H109.339V69.6519H111.402V1.4541Z" fill="#4E4E4E"/>
<path d="M161.971 0.952148H159.908V69.6526H161.971V0.952148Z" fill="#4E4E4E"/>
<path d="M209.445 1.2168V64.0181C209.445 65.8169 208.705 67.457 207.515 68.621C207.329 68.8062 207.144 68.9914 206.933 69.1501C206.298 69.6263 205.584 69.9966 204.843 70.2347C204.526 70.3141 204.235 70.3934 203.918 70.4463C203.6 70.4992 203.283 70.5257 202.966 70.5257H1.61621V68.4623H202.939C205.372 68.4623 207.382 66.4518 207.382 64.0181V1.2168H209.445Z" fill="#4E4E4E"/>
<path d="M191.857 49.5473C191.99 49.9177 191.804 50.3409 191.408 50.4732C191.328 50.4996 191.249 50.5261 191.17 50.5261C190.852 50.5261 190.588 50.3409 190.482 50.0235L181.675 24.4956C181.543 24.1252 181.754 23.702 182.124 23.5697C182.521 23.4374 182.944 23.6226 183.077 24.0194L191.857 49.5473Z" fill="#4E4E4E"/>
<path d="M183.976 50.7375C184.108 51.1343 183.897 51.5576 183.5 51.6898C183.421 51.7163 183.341 51.7163 183.262 51.7163C182.971 51.7163 182.68 51.5311 182.574 51.2137L177.39 35.9498C177.258 35.5795 177.47 35.1562 177.866 35.024C178.21 34.8917 178.66 35.1033 178.792 35.4737L183.976 50.7375Z" fill="#4E4E4E"/>
<path d="M41.553 53.3564C41.2885 53.3564 41.024 53.2242 40.8918 52.9596L26.9007 26.8762C26.7156 26.5058 26.8478 26.0561 27.1917 25.871C27.5619 25.6858 28.0115 25.8181 28.1967 26.162L42.1877 52.2454C42.3729 52.6157 42.2406 53.0654 41.8968 53.2506C41.791 53.3035 41.6588 53.33 41.553 53.33V53.3564Z" fill="#4E4E4E"/>
<path d="M32.825 50.0766C32.5605 50.0766 32.296 49.9444 32.1638 49.6798L26.3717 38.8602C26.1865 38.4899 26.3188 38.0666 26.689 37.855C27.0329 37.6698 27.4825 37.7756 27.6941 38.1724L33.4862 48.992C33.6713 49.3624 33.5391 49.7856 33.1688 49.9973C33.063 50.0502 32.9308 50.0766 32.825 50.0766Z" fill="#4E4E4E"/>
<path d="M103.23 131.025C103.23 131.263 103.23 131.554 103.177 131.792C102.833 146.871 90.4554 159.066 75.2213 159.066C59.9872 159.066 47.6623 146.871 47.3185 131.792C47.2656 131.554 47.2656 131.263 47.2656 131.025C47.2656 130.549 47.2656 130.126 47.3185 129.729C47.9797 114.836 60.1987 103.011 75.2213 103.011C90.2438 103.011 102.542 114.836 103.177 129.729C103.23 130.152 103.23 130.549 103.23 131.025Z" fill="#4E4E4E"/>
<path d="M75.2741 146.844C84.0236 146.844 91.1165 139.75 91.1165 130.998C91.1165 122.247 84.0236 115.152 75.2741 115.152C66.5245 115.152 59.4316 122.247 59.4316 130.998C59.4316 139.75 66.5245 146.844 75.2741 146.844Z" fill="#FCFCFC"/>
<path d="M227.457 131.025C227.457 131.263 227.456 131.554 227.404 131.792C227.06 146.871 214.682 159.066 199.448 159.066C184.214 159.066 171.836 146.871 171.492 131.792C171.439 131.554 171.439 131.263 171.439 131.025C171.439 130.549 171.439 130.126 171.492 129.729C172.154 114.836 184.452 103.011 199.448 103.011C214.444 103.011 226.769 114.836 227.404 129.729C227.456 130.152 227.457 130.549 227.457 131.025Z" fill="#4E4E4E"/>
<path d="M199.818 146.844C208.568 146.844 215.661 139.75 215.661 130.998C215.661 122.247 208.568 115.152 199.818 115.152C191.069 115.152 183.976 122.247 183.976 130.998C183.976 139.75 191.069 146.844 199.818 146.844Z" fill="#FCFCFC"/>
<path d="M281.887 78.2759L281.014 80.1541C280.829 80.1012 280.723 79.9954 280.538 79.916H280.512C235.656 58.9646 231.583 17.247 231.292 9.07278C231.239 8.25271 231.239 7.77654 231.239 7.72363H233.302C233.302 7.90881 233.302 8.72887 233.408 10.078C234.069 20.0246 239.305 57.8271 280.353 77.5616C280.379 77.5616 280.379 77.5881 280.406 77.5881C280.908 77.8261 281.384 78.0378 281.887 78.2759Z" fill="#4E4E4E"/>
</svg>
