<svg width="1920" height="464" viewBox="0 0 1920 464" fill="none" xmlns="http://www.w3.org/2000/svg">
<g opacity="0.7" clip-path="url(#clip0_1231_4568)">
<path d="M1440.25 210.837H1583.02V399.743C1577.92 399.743 1598.6 399.743 1440.25 399.743" fill="#92C99F"/>
<path d="M1794.79 134.306H1657.31V399.743H1794.79" fill="#DEAC49"/>
<path d="M1527.37 206.102V4.73535H1682.7V129.571H1652.6V399.743C1636 399.717 1608.15 399.743 1587.78 399.743V206.075H1527.37V206.102Z" fill="#CE6224"/>
<path d="M1444.99 399.743H1442.63V206.102H1587.75V399.743H1585.4L1585.45 208.482H1444.99V399.743Z" fill="black"/>
<path d="M1654.96 399.743H1652.58V129.57H1792.44V399.743H1790.16L1790.06 131.951H1655.06L1654.96 399.743Z" fill="#020303"/>
<path d="M1522.61 206.101V0H1680.32V129.571H1677.94L1677.97 2.38084H1524.99V206.101H1522.61Z" fill="#020303"/>
<path d="M1721.16 189.807H1745.33V166.871H1721.16V189.807Z" fill="#020303"/>
<path d="M1689.37 219.99H1713.54V197.055H1689.37V219.99Z" fill="#020303"/>
<path d="M1560.8 77.3516H1590.56V49.1254H1560.8V77.3516Z" fill="#020303"/>
<path d="M1519.17 265.649H1546.47V239.751H1519.17V265.649Z" fill="#020303"/>
<path d="M1478.5 265.649H1505.79V239.751H1478.5V265.649Z" fill="#020303"/>
<path d="M1689.37 189.807H1713.54V166.871H1689.37V189.807Z" fill="#020303"/>
<path d="M1721.16 219.99H1745.33V197.055H1721.16V219.99Z" fill="#020303"/>
<path d="M1560.96 130.417H1590.72V102.191H1560.96V130.417Z" fill="#020303"/>
<path d="M391.518 196.023C362.636 196.023 339.15 172.532 339.15 143.644C339.15 114.757 362.636 91.2656 391.518 91.2656C420.399 91.2656 443.885 114.757 443.885 143.644C443.885 172.532 420.399 196.023 391.518 196.023ZM391.518 93.3555C363.774 93.3555 341.24 115.921 341.24 143.644C341.24 171.368 363.8 193.933 391.518 193.933C419.235 193.933 441.795 171.368 441.795 143.644C441.795 115.921 419.235 93.3555 391.518 93.3555Z" fill="#030303"/>
<path d="M391.518 145.787C391.28 145.787 391.042 145.707 390.856 145.549L369.645 127.534C369.222 127.163 369.143 126.502 369.513 126.079C369.883 125.629 370.544 125.602 370.967 125.946L392.179 143.961C392.602 144.332 392.681 144.993 392.311 145.416C392.099 145.654 391.809 145.787 391.518 145.787Z" fill="#030303"/>
<path d="M391.544 163.14C391.306 163.14 391.068 163.061 390.883 162.902C390.433 162.532 390.38 161.87 390.751 161.447L414.66 133.009C415.03 132.586 415.691 132.533 416.114 132.877C416.564 133.247 416.617 133.909 416.247 134.332L392.337 162.77C392.126 163.008 391.835 163.14 391.544 163.14Z" fill="#030303"/>
<path d="M391.068 174.595C390.856 174.595 390.645 174.542 390.46 174.384L374.935 162.823C374.485 162.479 374.379 161.818 374.723 161.368C375.067 160.919 375.728 160.813 376.178 161.157L391.703 172.717C392.152 173.061 392.258 173.722 391.914 174.172C391.703 174.437 391.412 174.595 391.094 174.595H391.068Z" fill="#030303"/>
<path d="M390.486 400.933V113.857C390.486 113.275 390.936 112.825 391.491 112.825C392.047 112.825 392.523 113.275 392.523 113.857V400.88" fill="#030303"/>
<path d="M214.871 223.376C188.317 223.376 166.709 201.763 166.709 175.204C166.709 148.644 188.317 127.031 214.871 127.031C241.425 127.031 263.033 148.644 263.033 175.204C263.033 201.763 241.425 223.376 214.871 223.376ZM214.871 128.962C189.375 128.962 168.613 149.702 168.613 175.23C168.613 200.758 189.349 221.498 214.871 221.498C240.393 221.498 261.129 200.758 261.129 175.23C261.129 149.702 240.393 128.962 214.871 128.962Z" fill="#030303"/>
<path d="M214.871 180.759C214.633 180.759 214.395 180.68 214.21 180.521L192.998 162.506C192.575 162.136 192.496 161.475 192.866 161.051C193.236 160.602 193.898 160.575 194.321 160.919L215.532 178.934C215.955 179.304 216.035 179.966 215.664 180.389C215.453 180.627 215.162 180.759 214.871 180.759Z" fill="#030303"/>
<path d="M214.897 198.113C214.659 198.113 214.421 198.034 214.236 197.875C213.787 197.504 213.734 196.843 214.104 196.42L238.013 167.982C238.383 167.559 239.044 167.506 239.468 167.85C239.917 168.22 239.97 168.881 239.6 169.305L215.691 197.743C215.479 197.981 215.188 198.113 214.897 198.113Z" fill="#030303"/>
<path d="M214.448 209.593C214.236 209.593 214.025 209.54 213.84 209.382L198.315 197.821C197.865 197.477 197.759 196.816 198.103 196.366C198.447 195.917 199.108 195.811 199.558 196.155L215.083 207.715C215.532 208.059 215.638 208.72 215.294 209.17C215.083 209.435 214.792 209.593 214.474 209.593H214.448Z" fill="#030303"/>
<path d="M213.813 400.986V154.12C213.813 153.538 214.289 153.088 214.871 153.088C215.453 153.088 215.902 153.538 215.902 154.12V400.907" fill="#030303"/>
<path d="M302.282 187.557C302.282 187.795 302.202 188.033 302.044 188.218C301.832 188.456 301.541 188.589 301.25 188.589C301.012 188.589 300.774 188.509 300.563 188.324L300.219 188.033L279.351 170.309C278.928 169.939 278.849 169.277 279.219 168.854C279.616 168.404 280.251 168.352 280.7 168.722L300.219 185.335L301.912 186.763C302.15 186.975 302.282 187.266 302.282 187.557Z" fill="#030303"/>
<path d="M325.979 177.135L302.282 205.308L302.07 205.573C301.885 205.811 301.568 205.943 301.277 205.943C301.039 205.943 300.801 205.864 300.616 205.705C300.193 205.334 300.113 204.673 300.484 204.25L302.282 202.107L324.419 175.812C324.789 175.362 325.451 175.336 325.874 175.68C326.297 176.05 326.35 176.711 325.979 177.135Z" fill="#030303"/>
<path d="M301.647 217C301.436 217.265 301.118 217.397 300.801 217.397C300.589 217.397 300.404 217.344 300.219 217.212H300.193L284.668 205.651C284.218 205.308 284.112 204.646 284.456 204.196C284.8 203.747 285.461 203.641 285.911 203.985L300.219 214.646L301.436 215.545C301.885 215.889 301.991 216.524 301.647 217Z" fill="#030303"/>
<path d="M302.282 166.315V400.669C302.282 401.251 301.806 401.701 301.25 401.701C300.669 401.701 300.219 401.251 300.219 400.669V166.315C300.219 165.759 300.669 165.283 301.25 165.283C301.832 165.283 302.282 165.759 302.282 166.315Z" fill="#030303"/>
<path d="M339.865 193.694C336.717 188.43 333.173 182.319 332.935 172.981C332.803 168.087 333.649 164.225 334.364 160.865C335.527 155.548 336.479 150.998 333.755 144.543C331.163 138.274 326.72 134.438 324.657 132.533C317.04 125.92 308.682 122.719 299.875 122.904C297.23 122.957 283.636 123.777 274.829 134.676C270.095 140.416 268.719 146.448 268.323 148.697C266.709 155.733 268.005 160.045 269.381 164.648C270.333 167.849 271.258 171.156 271.496 175.706C271.867 184.462 268.905 190.15 266.075 195.573C262.98 201.498 260.097 207.106 262.107 215.81C263.588 222.238 266.551 227.582 270.915 231.656C278.77 238.93 288.714 239.565 297.23 239.565H300.298C300.96 239.565 301.541 239.565 302.203 239.512H302.282C310.613 239.327 323.017 238.534 333.411 229.222C335.95 226.92 341.981 221.603 344.176 212.953C346.345 204.858 343.171 199.435 339.865 193.694ZM342.324 212.424C340.209 220.545 334.522 225.624 332.115 227.82C322.25 236.655 310.375 237.449 302.282 237.555H302.203C301.541 237.634 300.96 237.634 300.298 237.634H300.06C290.909 237.74 280.436 237.793 272.263 230.227C268.19 226.391 265.36 221.418 263.985 215.386C262.107 207.397 264.699 202.318 267.767 196.472C270.624 191.023 273.824 184.938 273.401 175.6C273.216 170.812 272.158 167.241 271.205 164.119C269.91 159.569 268.719 155.654 270.2 149.093C270.624 146.898 271.867 141.289 276.284 135.919C284.641 125.682 297.389 124.915 299.955 124.862H300.589C308.682 124.862 316.379 127.93 323.361 134.015C325.318 135.787 329.497 139.464 331.983 145.31C334.469 151.157 333.597 155.257 332.459 160.442C331.745 163.696 331.031 167.426 331.031 172.055V173.06C331.269 182.928 334.893 189.144 338.146 194.7C341.452 200.308 344.229 205.149 342.324 212.424Z" fill="#030303"/>
<path d="M342.324 212.423C340.208 220.545 334.522 225.624 332.115 227.819C322.25 236.655 310.375 237.449 302.282 237.554V205.307L325.979 177.134C326.35 176.711 326.297 176.049 325.874 175.679C325.45 175.335 324.789 175.362 324.419 175.811L302.282 202.106V166.314C302.282 165.759 301.806 165.283 301.25 165.283C300.669 165.283 300.219 165.759 300.219 166.314V185.335L280.7 168.722C280.251 168.351 279.616 168.404 279.219 168.854C278.849 169.277 278.928 169.939 279.351 170.309L300.219 188.033V214.645L285.911 203.985C285.461 203.641 284.8 203.747 284.456 204.196C284.112 204.646 284.218 205.307 284.667 205.651L300.192 217.211H300.219V237.634H300.06C290.909 237.74 280.436 237.793 272.263 230.227C268.19 226.391 265.36 221.418 263.985 215.386C262.107 207.397 264.699 202.318 267.767 196.472C270.624 191.022 273.824 184.938 273.401 175.6C273.215 170.812 272.157 167.24 271.205 164.119C269.909 159.569 268.719 155.654 270.2 149.093C270.624 146.897 271.867 141.289 276.283 135.919C284.641 125.681 297.389 124.914 299.954 124.861H300.589C308.682 124.861 316.379 127.93 323.361 134.014C325.318 135.787 329.497 139.464 331.983 145.31C334.469 151.156 333.596 155.257 332.459 160.442C331.745 163.695 331.031 167.425 331.031 172.055V173.06C331.269 182.927 334.892 189.144 338.145 194.699C341.451 200.308 344.229 205.149 342.324 212.423Z" fill="#CE6326"/>
<path d="M157.188 164.86C154.04 159.596 150.496 153.512 150.258 144.173C150.152 139.253 150.972 135.417 151.686 132.058C152.877 126.74 153.802 122.19 151.105 115.736C148.513 109.466 144.069 105.63 142.006 103.726C134.389 97.1122 126.032 93.9113 117.225 94.0965C114.553 94.1494 100.959 94.9959 92.1518 105.868C87.4176 111.609 86.0688 117.64 85.6456 119.889C84.0587 126.926 85.3546 131.238 86.7035 135.867C87.6556 139.068 88.6078 142.375 88.8458 146.925C89.1896 155.681 86.2539 161.342 83.3975 166.791C80.3295 172.717 77.4202 178.325 79.4303 187.029C80.9114 193.483 83.8736 198.801 88.2375 202.874C96.0926 210.149 106.037 210.811 114.553 210.811H118.573C118.864 210.811 119.235 210.758 119.526 210.758C127.857 210.572 140.34 209.805 150.734 200.467C153.273 198.166 159.304 192.848 161.499 184.198C163.694 176.103 160.494 170.654 157.188 164.913V164.86ZM159.674 183.616C157.558 191.711 151.872 196.817 149.438 198.986C139.573 207.848 127.619 208.615 119.526 208.747C119.235 208.8 118.864 208.8 118.573 208.8H117.383C108.206 208.906 97.7588 208.985 89.5863 201.419C85.5133 197.584 82.6569 192.61 81.3081 186.579C79.4303 178.59 82.0222 173.511 85.0902 167.664C87.9201 162.215 91.1203 156.131 90.6972 146.792C90.512 142.004 89.4541 138.459 88.502 135.311C87.206 130.761 86.0158 126.846 87.4969 120.286C87.9201 118.09 89.1632 112.482 93.58 107.085C101.911 96.8477 114.686 96.0805 117.225 96.0276H117.886C125.979 96.0276 133.675 99.0962 140.658 105.181C142.615 106.953 146.794 110.63 149.28 116.476C151.766 122.323 150.867 126.423 149.756 131.608C149.042 134.862 148.328 138.592 148.328 143.195V144.2C148.566 154.067 152.163 160.284 155.416 165.839C158.722 171.447 161.499 176.315 159.621 183.59L159.674 183.616Z" fill="#030303"/>
<path d="M159.674 183.616C157.558 191.711 151.872 196.816 149.438 198.985C139.573 207.847 127.619 208.615 119.526 208.747C119.235 208.8 118.864 208.8 118.573 208.8H117.383C108.206 208.906 97.7587 208.985 89.5863 201.419C85.5133 197.583 82.6569 192.61 81.308 186.579C79.4302 178.59 82.0221 173.51 85.0901 167.664C87.92 162.215 91.1203 156.13 90.6971 146.792C90.512 142.004 89.454 138.459 88.5019 135.311C87.2059 130.761 86.0158 126.846 87.4969 120.285C87.92 118.09 89.1631 112.482 93.5799 107.085C101.911 96.8474 114.686 96.0803 117.225 96.0273H117.886C125.979 96.0273 133.675 99.096 140.658 105.18C142.615 106.953 146.794 110.63 149.28 116.476C151.766 122.322 150.867 126.423 149.756 131.608C149.042 134.861 148.327 138.591 148.327 143.194V144.2C148.566 154.067 152.162 160.284 155.416 165.839C158.722 171.447 161.499 176.315 159.621 183.589L159.674 183.616Z" fill="#CE6326"/>
<path d="M118.6 159.728C118.362 159.728 118.124 159.649 117.939 159.49L96.7273 141.449C96.3042 141.078 96.2248 140.417 96.5951 139.994C96.9653 139.57 97.6266 139.518 98.0497 139.861L119.261 157.903C119.684 158.273 119.764 158.935 119.393 159.358C119.182 159.596 118.891 159.728 118.6 159.728Z" fill="#030303"/>
<path d="M118.626 177.082C118.388 177.082 118.15 177.003 117.965 176.844C117.516 176.474 117.463 175.813 117.833 175.389L141.742 146.978C142.112 146.528 142.773 146.502 143.197 146.846C143.646 147.216 143.699 147.877 143.329 148.301L119.42 176.712C119.208 176.95 118.917 177.082 118.626 177.082Z" fill="#030303"/>
<path d="M118.15 188.563C117.939 188.563 117.727 188.51 117.542 188.351L102.017 176.791C101.567 176.447 101.462 175.786 101.805 175.336C102.149 174.886 102.81 174.781 103.26 175.124L118.785 186.685C119.235 187.029 119.34 187.69 118.997 188.14C118.785 188.404 118.494 188.563 118.177 188.563H118.15Z" fill="#030303"/>
<path d="M118.6 401.701C118.018 401.701 117.568 401.251 117.568 400.669V127.455C117.568 126.873 118.018 126.423 118.6 126.423C119.182 126.423 119.631 126.873 119.631 127.455V400.669C119.631 401.251 119.182 401.701 118.6 401.701Z" fill="#030303"/>
<path d="M2001.97 401.807H-73.9685C-74.5504 401.807 -75 401.357 -75 400.775C-75 400.193 -74.5504 399.743 -73.9685 399.743H2001.99C2002.58 399.743 2003.03 400.193 2003.03 400.775C2003.03 401.357 2002.58 401.807 2001.99 401.807H2001.97Z" fill="#030303"/>
<path d="M321.457 423.948H17.3833C16.8014 423.948 16.3518 423.498 16.3518 422.916C16.3518 422.334 16.8014 421.885 17.3833 421.885H321.457C322.039 421.885 322.488 422.334 322.488 422.916C322.488 423.498 322.039 423.948 321.457 423.948Z" fill="#030303"/>
<path d="M837.803 423.764H533.729C533.147 423.764 532.698 423.314 532.698 422.732C532.698 422.15 533.147 421.7 533.729 421.7H837.803C838.385 421.7 838.834 422.15 838.834 422.732C838.834 423.314 838.385 423.764 837.803 423.764Z" fill="#030303"/>
<path d="M574.724 449H256.712C256.13 449 255.68 448.55 255.68 447.968C255.68 447.386 256.13 446.937 256.712 446.937H574.724C575.306 446.937 575.755 447.386 575.755 447.968C575.755 448.55 575.306 449 574.724 449Z" fill="#030303"/>
<path d="M1538.49 423.736H1234.42C1233.84 423.736 1233.39 423.287 1233.39 422.705C1233.39 422.123 1233.84 421.673 1234.42 421.673H1538.49C1539.07 421.673 1539.52 422.123 1539.52 422.705C1539.52 423.287 1539.07 423.736 1538.49 423.736Z" fill="#030303"/>
<path d="M1451.8 448.868H1079.96C1079.38 448.868 1078.93 448.418 1078.93 447.836C1078.93 447.254 1079.38 446.805 1079.96 446.805H1451.8C1452.38 446.805 1452.83 447.254 1452.83 447.836C1452.83 448.418 1452.38 448.868 1451.8 448.868Z" fill="#030303"/>
<path d="M1897.52 448.709H1525.69C1525.11 448.709 1524.66 448.259 1524.66 447.677C1524.66 447.095 1525.11 446.646 1525.69 446.646H1897.52C1898.11 446.646 1898.56 447.095 1898.56 447.677C1898.56 448.259 1898.11 448.709 1897.52 448.709Z" fill="#030303"/>
</g>
<defs>
<clipPath id="clip0_1231_4568">
<rect width="1920" height="464" fill="white"/>
</clipPath>
</defs>
</svg>
