<svg width="1920" height="464" viewBox="0 0 1920 464" fill="none" xmlns="http://www.w3.org/2000/svg">
<g opacity="0.7" clip-path="url(#clip0_1221_3007)">
<path d="M1440.25 210.837H1583.02V399.743C1577.92 399.743 1598.6 399.743 1440.25 399.743" fill="#92C99F"/>
<path d="M1794.79 134.306H1657.31V399.743H1794.79" fill="#DEAC49"/>
<path d="M1527.37 206.102V4.73535H1682.7V129.571H1652.6V399.743C1636 399.717 1608.15 399.743 1587.78 399.743V206.075H1527.37V206.102Z" fill="#CE6224"/>
<path d="M1444.99 399.743H1442.63V206.102H1587.75V399.743H1585.4L1585.45 208.482H1444.99V399.743Z" fill="black"/>
<path d="M1654.96 399.743H1652.58V129.57H1792.44V399.743H1790.16L1790.06 131.951H1655.06L1654.96 399.743Z" fill="#020303"/>
<path d="M1522.61 206.101V0H1680.32V129.571H1677.94L1677.97 2.38084H1524.99V206.101H1522.61Z" fill="#020303"/>
<path d="M1721.16 189.806H1745.33V166.871H1721.16V189.806Z" fill="#020303"/>
<path d="M1689.37 219.99H1713.54V197.054H1689.37V219.99Z" fill="#020303"/>
<path d="M1560.8 77.3511H1590.56V49.1249H1560.8V77.3511Z" fill="#020303"/>
<path d="M1519.17 265.649H1546.47V239.751H1519.17V265.649Z" fill="#020303"/>
<path d="M1478.5 265.649H1505.79V239.751H1478.5V265.649Z" fill="#020303"/>
<path d="M1689.37 189.806H1713.54V166.871H1689.37V189.806Z" fill="#020303"/>
<path d="M1721.16 219.99H1745.33V197.054H1721.16V219.99Z" fill="#020303"/>
<path d="M1560.96 130.417H1590.72V102.191H1560.96V130.417Z" fill="#020303"/>
<path d="M391.518 196.023C362.637 196.023 339.151 172.532 339.151 143.644C339.151 114.757 362.637 91.2656 391.518 91.2656C420.399 91.2656 443.885 114.757 443.885 143.644C443.885 172.532 420.399 196.023 391.518 196.023ZM391.518 93.3555C363.774 93.3555 341.24 115.921 341.24 143.644C341.24 171.368 363.8 193.933 391.518 193.933C419.235 193.933 441.796 171.368 441.796 143.644C441.796 115.921 419.235 93.3555 391.518 93.3555Z" fill="#030303"/>
<path d="M391.518 145.787C391.28 145.787 391.042 145.707 390.857 145.549L369.645 127.534C369.222 127.163 369.143 126.502 369.513 126.079C369.883 125.629 370.545 125.602 370.968 125.946L392.179 143.961C392.602 144.332 392.682 144.993 392.311 145.416C392.1 145.654 391.809 145.787 391.518 145.787Z" fill="#030303"/>
<path d="M391.544 163.141C391.306 163.141 391.068 163.061 390.883 162.903C390.433 162.532 390.381 161.871 390.751 161.448L414.66 133.01C415.03 132.587 415.691 132.534 416.115 132.878C416.564 133.248 416.617 133.909 416.247 134.333L392.338 162.77C392.126 163.008 391.835 163.141 391.544 163.141Z" fill="#030303"/>
<path d="M391.068 174.595C390.857 174.595 390.645 174.542 390.46 174.384L374.935 162.823C374.485 162.479 374.379 161.818 374.723 161.368C375.067 160.919 375.728 160.813 376.178 161.157L391.703 172.717C392.153 173.061 392.258 173.722 391.915 174.172C391.703 174.437 391.412 174.595 391.095 174.595H391.068Z" fill="#030303"/>
<path d="M390.486 400.934V113.857C390.486 113.275 390.936 112.826 391.491 112.826C392.047 112.826 392.523 113.275 392.523 113.857V400.881" fill="#030303"/>
<path d="M214.871 223.376C188.317 223.376 166.709 201.763 166.709 175.204C166.709 148.644 188.317 127.031 214.871 127.031C241.425 127.031 263.033 148.644 263.033 175.204C263.033 201.763 241.425 223.376 214.871 223.376ZM214.871 128.962C189.375 128.962 168.613 149.702 168.613 175.23C168.613 200.758 189.349 221.498 214.871 221.498C240.393 221.498 261.129 200.758 261.129 175.23C261.129 149.702 240.393 128.962 214.871 128.962Z" fill="#030303"/>
<path d="M214.871 180.759C214.633 180.759 214.395 180.679 214.21 180.521L192.998 162.506C192.575 162.135 192.496 161.474 192.866 161.051C193.236 160.601 193.898 160.575 194.321 160.919L215.532 178.934C215.955 179.304 216.035 179.965 215.664 180.389C215.453 180.627 215.162 180.759 214.871 180.759Z" fill="#030303"/>
<path d="M214.897 198.112C214.659 198.112 214.421 198.033 214.236 197.874C213.787 197.504 213.734 196.843 214.104 196.419L238.013 167.982C238.383 167.558 239.044 167.505 239.468 167.849C239.917 168.22 239.97 168.881 239.6 169.304L215.691 197.742C215.479 197.98 215.188 198.112 214.897 198.112Z" fill="#030303"/>
<path d="M214.448 209.593C214.236 209.593 214.025 209.54 213.84 209.382L198.315 197.821C197.865 197.477 197.759 196.816 198.103 196.366C198.447 195.917 199.108 195.811 199.558 196.155L215.083 207.715C215.532 208.059 215.638 208.72 215.294 209.17C215.083 209.435 214.792 209.593 214.474 209.593H214.448Z" fill="#030303"/>
<path d="M213.813 400.987V154.12C213.813 153.538 214.289 153.088 214.871 153.088C215.453 153.088 215.902 153.538 215.902 154.12V400.907" fill="#030303"/>
<path d="M302.282 187.557C302.282 187.796 302.202 188.034 302.044 188.219C301.832 188.457 301.541 188.589 301.25 188.589C301.012 188.589 300.774 188.51 300.563 188.325L300.219 188.034L279.351 170.31C278.928 169.939 278.849 169.278 279.219 168.855C279.616 168.405 280.251 168.352 280.7 168.722L300.219 185.335L301.912 186.764C302.15 186.975 302.282 187.266 302.282 187.557Z" fill="#030303"/>
<path d="M325.979 177.135L302.282 205.308L302.07 205.573C301.885 205.811 301.568 205.943 301.277 205.943C301.039 205.943 300.801 205.864 300.616 205.705C300.193 205.334 300.113 204.673 300.484 204.25L302.282 202.107L324.419 175.812C324.789 175.362 325.451 175.336 325.874 175.68C326.297 176.05 326.35 176.711 325.979 177.135Z" fill="#030303"/>
<path d="M301.647 217.001C301.436 217.265 301.118 217.397 300.801 217.397C300.589 217.397 300.404 217.344 300.219 217.212H300.193L284.668 205.652C284.218 205.308 284.112 204.647 284.456 204.197C284.8 203.747 285.461 203.641 285.911 203.985L300.219 214.646L301.436 215.546C301.885 215.89 301.991 216.524 301.647 217.001Z" fill="#030303"/>
<path d="M302.282 166.315V400.669C302.282 401.251 301.806 401.701 301.25 401.701C300.669 401.701 300.219 401.251 300.219 400.669V166.315C300.219 165.76 300.669 165.284 301.25 165.284C301.832 165.284 302.282 165.76 302.282 166.315Z" fill="#030303"/>
<path d="M339.865 193.695C336.717 188.431 333.173 182.32 332.935 172.982C332.803 168.088 333.649 164.225 334.364 160.866C335.527 155.549 336.479 150.998 333.755 144.544C331.163 138.274 326.72 134.438 324.657 132.534C317.04 125.92 308.682 122.719 299.875 122.905C297.23 122.957 283.636 123.778 274.829 134.677C270.095 140.417 268.719 146.448 268.323 148.697C266.709 155.734 268.005 160.046 269.381 164.649C270.333 167.85 271.258 171.156 271.496 175.706C271.867 184.463 268.905 190.15 266.075 195.573C262.98 201.499 260.097 207.107 262.107 215.81C263.588 222.239 266.551 227.582 270.915 231.656C278.77 238.931 288.714 239.566 297.23 239.566H300.298C300.96 239.566 301.541 239.566 302.203 239.513H302.282C310.613 239.328 323.017 238.534 333.411 229.222C335.95 226.921 341.981 221.604 344.176 212.953C346.345 204.858 343.171 199.435 339.865 193.695ZM342.324 212.424C340.209 220.545 334.522 225.625 332.115 227.82C322.25 236.656 310.375 237.449 302.282 237.555H302.203C301.541 237.635 300.96 237.635 300.298 237.635H300.06C290.909 237.74 280.436 237.793 272.263 230.228C268.19 226.392 265.36 221.418 263.985 215.387C262.107 207.398 264.699 202.319 267.767 196.473C270.624 191.023 273.824 184.939 273.401 175.6C273.216 170.812 272.158 167.241 271.205 164.12C269.91 159.57 268.719 155.654 270.2 149.094C270.624 146.898 271.867 141.29 276.284 135.92C284.641 125.682 297.389 124.915 299.955 124.862H300.589C308.682 124.862 316.379 127.931 323.361 134.015C325.318 135.788 329.497 139.465 331.983 145.311C334.469 151.157 333.597 155.258 332.459 160.442C331.745 163.696 331.031 167.426 331.031 172.056V173.061C331.269 182.928 334.893 189.145 338.146 194.7C341.452 200.308 344.229 205.149 342.324 212.424Z" fill="#030303"/>
<path d="M342.324 212.424C340.208 220.546 334.522 225.625 332.115 227.82C322.25 236.656 310.375 237.45 302.282 237.555V205.308L325.979 177.135C326.35 176.712 326.297 176.05 325.874 175.68C325.45 175.336 324.789 175.363 324.419 175.812L302.282 202.107V166.315C302.282 165.76 301.806 165.284 301.25 165.284C300.669 165.284 300.219 165.76 300.219 166.315V185.336L280.7 168.723C280.251 168.352 279.616 168.405 279.219 168.855C278.849 169.278 278.928 169.94 279.351 170.31L300.219 188.034V214.646L285.911 203.986C285.461 203.642 284.8 203.747 284.456 204.197C284.112 204.647 284.218 205.308 284.667 205.652L300.192 217.212H300.219V237.635H300.06C290.909 237.741 280.436 237.793 272.263 230.228C268.19 226.392 265.36 221.419 263.985 215.387C262.107 207.398 264.699 202.319 267.767 196.473C270.624 191.023 273.824 184.939 273.401 175.601C273.215 170.813 272.157 167.241 271.205 164.12C269.909 159.57 268.719 155.655 270.2 149.094C270.624 146.898 271.867 141.29 276.283 135.92C284.641 125.682 297.389 124.915 299.954 124.862H300.589C308.682 124.862 316.379 127.931 323.361 134.015C325.318 135.788 329.497 139.465 331.983 145.311C334.469 151.157 333.596 155.258 332.459 160.443C331.745 163.696 331.031 167.426 331.031 172.056V173.061C331.269 182.928 334.892 189.145 338.145 194.7C341.451 200.308 344.229 205.15 342.324 212.424Z" fill="#CE6326"/>
<path d="M157.188 164.86C154.04 159.596 150.496 153.511 150.258 144.173C150.153 139.253 150.972 135.417 151.687 132.057C152.877 126.74 153.802 122.19 151.105 115.735C148.513 109.466 144.07 105.63 142.007 103.725C134.39 97.1117 126.032 93.9108 117.225 94.096C114.553 94.1489 100.959 94.9954 92.1519 105.868C87.4177 111.608 86.0689 117.64 85.6457 119.888C84.0588 126.925 85.3548 131.237 86.7036 135.866C87.6558 139.067 88.6079 142.374 88.8459 146.924C89.1897 155.68 86.254 161.341 83.3976 166.791C80.3296 172.717 77.4203 178.325 79.4304 187.028C80.9115 193.483 83.8737 198.8 88.2376 202.874C96.0927 210.149 106.037 210.81 114.553 210.81H118.574C118.865 210.81 119.235 210.757 119.526 210.757C127.857 210.572 140.34 209.805 150.734 200.467C153.273 198.165 159.304 192.848 161.499 184.198C163.694 176.103 160.494 170.653 157.188 164.913V164.86ZM159.674 183.616C157.558 191.71 151.872 196.816 149.438 198.985C139.573 207.847 127.619 208.614 119.526 208.747C119.235 208.8 118.865 208.8 118.574 208.8H117.383C108.206 208.905 97.7589 208.985 89.5865 201.419C85.5135 197.583 82.6571 192.61 81.3082 186.578C79.4304 178.589 82.0223 173.51 85.0903 167.664C87.9202 162.214 91.1205 156.13 90.6973 146.792C90.5122 142.004 89.4542 138.459 88.5021 135.311C87.2061 130.761 86.016 126.846 87.4971 120.285C87.9202 118.09 89.1633 112.481 93.5801 107.085C101.911 96.8472 114.686 96.08 117.225 96.0271H117.886C125.979 96.0271 133.675 99.0957 140.658 105.18C142.615 106.953 146.794 110.63 149.28 116.476C151.766 122.322 150.867 126.422 149.756 131.607C149.042 134.861 148.328 138.591 148.328 143.194V144.199C148.566 154.067 152.163 160.283 155.416 165.839C158.722 171.447 161.499 176.314 159.621 183.589L159.674 183.616Z" fill="#030303"/>
<path d="M159.674 183.616C157.558 191.711 151.872 196.816 149.438 198.985C139.573 207.847 127.619 208.615 119.526 208.747C119.235 208.8 118.864 208.8 118.574 208.8H117.383C108.206 208.906 97.7589 208.985 89.5864 201.419C85.5134 197.583 82.657 192.61 81.3081 186.579C79.4303 178.59 82.0222 173.51 85.0902 167.664C87.9202 162.215 91.1204 156.13 90.6972 146.792C90.5121 142.004 89.4542 138.459 88.502 135.311C87.2061 130.761 86.0159 126.846 87.497 120.285C87.9202 118.09 89.1632 112.482 93.5801 107.085C101.911 96.8474 114.686 96.0803 117.225 96.0273H117.886C125.979 96.0273 133.675 99.096 140.658 105.18C142.615 106.953 146.794 110.63 149.28 116.476C151.766 122.322 150.867 126.423 149.756 131.608C149.042 134.861 148.328 138.591 148.328 143.194V144.2C148.566 154.067 152.163 160.284 155.416 165.839C158.722 171.447 161.499 176.315 159.621 183.589L159.674 183.616Z" fill="#CE6326"/>
<path d="M118.6 159.728C118.362 159.728 118.124 159.648 117.939 159.49L96.7276 141.448C96.3044 141.078 96.225 140.417 96.5953 139.993C96.9656 139.57 97.6268 139.517 98.05 139.861L119.261 157.902C119.684 158.273 119.764 158.934 119.394 159.357C119.182 159.596 118.891 159.728 118.6 159.728Z" fill="#030303"/>
<path d="M118.626 177.081C118.388 177.081 118.15 177.002 117.965 176.843C117.516 176.473 117.463 175.812 117.833 175.388L141.742 146.977C142.112 146.527 142.773 146.501 143.197 146.845C143.646 147.215 143.699 147.877 143.329 148.3L119.42 176.711C119.208 176.949 118.917 177.081 118.626 177.081Z" fill="#030303"/>
<path d="M118.151 188.563C117.939 188.563 117.727 188.51 117.542 188.351L102.017 176.791C101.568 176.447 101.462 175.785 101.806 175.336C102.149 174.886 102.811 174.78 103.26 175.124L118.785 186.684C119.235 187.028 119.341 187.69 118.997 188.139C118.785 188.404 118.494 188.563 118.177 188.563H118.151Z" fill="#030303"/>
<path d="M118.6 401.7C118.018 401.7 117.569 401.251 117.569 400.669V127.454C117.569 126.872 118.018 126.422 118.6 126.422C119.182 126.422 119.632 126.872 119.632 127.454V400.669C119.632 401.251 119.182 401.7 118.6 401.7Z" fill="#030303"/>
<path d="M2001.97 401.807H-73.9685C-74.5504 401.807 -75 401.357 -75 400.775C-75 400.193 -74.5504 399.743 -73.9685 399.743H2001.99C2002.58 399.743 2003.03 400.193 2003.03 400.775C2003.03 401.357 2002.58 401.807 2001.99 401.807H2001.97Z" fill="#030303"/>
<path d="M321.457 423.948H17.3832C16.8013 423.948 16.3517 423.498 16.3517 422.916C16.3517 422.334 16.8013 421.885 17.3832 421.885H321.457C322.039 421.885 322.488 422.334 322.488 422.916C322.488 423.498 322.039 423.948 321.457 423.948Z" fill="#030303"/>
<path d="M837.803 423.764H533.729C533.147 423.764 532.698 423.314 532.698 422.732C532.698 422.15 533.147 421.7 533.729 421.7H837.803C838.385 421.7 838.834 422.15 838.834 422.732C838.834 423.314 838.385 423.764 837.803 423.764Z" fill="#030303"/>
<path d="M574.724 449H256.712C256.13 449 255.68 448.55 255.68 447.968C255.68 447.386 256.13 446.937 256.712 446.937H574.724C575.306 446.937 575.755 447.386 575.755 447.968C575.755 448.55 575.306 449 574.724 449Z" fill="#030303"/>
<path d="M1538.49 423.736H1234.42C1233.84 423.736 1233.39 423.287 1233.39 422.705C1233.39 422.123 1233.84 421.673 1234.42 421.673H1538.49C1539.07 421.673 1539.52 422.123 1539.52 422.705C1539.52 423.287 1539.07 423.736 1538.49 423.736Z" fill="#030303"/>
<path d="M1451.8 448.868H1079.96C1079.38 448.868 1078.93 448.418 1078.93 447.836C1078.93 447.254 1079.38 446.805 1079.96 446.805H1451.8C1452.38 446.805 1452.83 447.254 1452.83 447.836C1452.83 448.418 1452.38 448.868 1451.8 448.868Z" fill="#030303"/>
<path d="M1897.52 448.709H1525.69C1525.11 448.709 1524.66 448.259 1524.66 447.677C1524.66 447.095 1525.11 446.646 1525.69 446.646H1897.52C1898.11 446.646 1898.56 447.095 1898.56 447.677C1898.56 448.259 1898.11 448.709 1897.52 448.709Z" fill="#030303"/>
<path d="M538.575 320.276C536.274 289.457 517.416 262.554 489.328 249.723H489.302C489.064 249.591 488.852 249.485 488.614 249.353C477.744 244.565 466.213 242.158 454.337 242.158H308C279.807 242.158 256.929 265.04 256.929 293.187V358.184C256.929 366.808 263.964 373.792 272.533 373.792H523.208C531.725 373.792 538.76 366.808 538.76 358.184V326.651C538.76 324.535 538.76 322.392 538.575 320.276ZM530.72 369.4C530.005 369.877 529.238 370.3 528.445 370.644C527.625 370.988 526.779 371.252 525.906 371.437C525.033 371.596 524.134 371.702 523.208 371.702H272.533C271.608 371.702 270.708 371.596 269.836 371.437C269.598 371.411 269.333 371.331 269.095 371.252C268.883 371.199 268.698 371.146 268.513 371.093C268.09 370.988 267.693 370.829 267.297 370.644C266.477 370.3 265.71 369.877 264.996 369.4C264.282 368.924 263.62 368.369 263.012 367.734C262.853 367.602 262.695 367.443 262.562 367.258C262.298 366.967 262.06 366.702 261.822 366.385C261.584 366.094 261.372 365.776 261.161 365.459C260.737 364.824 260.394 364.136 260.076 363.422C259.732 362.628 259.442 361.782 259.283 360.882C259.098 360.009 258.992 359.11 258.992 358.184V293.187C258.992 266.151 280.97 244.221 308 244.221H454.337C457.353 244.221 460.421 244.406 463.383 244.697C464.097 244.803 464.864 244.856 465.446 244.988H465.472C472.983 245.994 480.257 248.004 487.292 251.073C487.503 251.126 487.609 251.205 487.741 251.258C488.323 251.496 488.852 251.787 489.381 252.078H489.408C515.988 264.643 533.92 290.224 536.406 319.561C536.406 319.879 536.512 320.091 536.512 320.382V321.916C536.617 323.53 536.697 325.117 536.697 326.651V358.184C536.697 361.887 535.163 365.274 532.73 367.734C532.121 368.369 531.434 368.924 530.72 369.4Z" fill="#030303"/>
<path d="M314.797 244.221V310.461H258.992V293.187C258.992 266.151 280.97 244.221 308 244.221H314.797Z" fill="#FCFCFC"/>
<path d="M365.34 244.221H316.86V310.461H365.34V244.221Z" fill="#FCFCFC"/>
<path d="M454.338 244.221H417.971V310.461H458.94C461.373 310.461 463.383 308.451 463.383 306.017V244.697C460.421 244.406 457.353 244.221 454.338 244.221ZM439.5 293.69C439.5 293.69 439.342 293.716 439.262 293.716C438.971 293.716 438.68 293.531 438.575 293.214L433.391 277.95C433.258 277.579 433.47 277.156 433.867 277.024C434.211 276.892 434.66 277.103 434.792 277.474L439.976 292.737C440.108 293.134 439.897 293.557 439.5 293.69ZM447.408 292.473C447.408 292.473 447.249 292.526 447.17 292.526C446.853 292.526 446.588 292.341 446.482 292.023L437.675 266.495C437.543 266.125 437.755 265.702 438.125 265.569C438.522 265.437 438.945 265.622 439.077 266.019L447.858 291.547C447.99 291.917 447.805 292.341 447.408 292.473Z" fill="#FCFCFC"/>
<path d="M415.908 244.221H367.403V310.461H415.908V244.221Z" fill="#FCFCFC"/>
<path d="M536.406 319.562C536.406 319.562 536.38 319.562 536.353 319.562C495.306 299.827 490.069 262.025 489.408 252.104C515.988 264.644 533.92 290.224 536.406 319.562Z" fill="#FCFCFC"/>
<path d="M536.723 326.651V358.158C536.723 365.618 530.64 371.702 523.182 371.702H483.404C482.743 356.808 470.444 344.984 455.448 344.984C440.452 344.984 428.127 356.808 427.493 371.702H359.204C358.543 356.808 346.244 344.984 331.248 344.984C316.252 344.984 303.98 356.808 303.345 371.702H272.613C265.154 371.702 259.071 365.618 259.071 358.158V312.498H459.019C462.563 312.498 465.525 309.589 465.525 305.991V244.962C473.036 245.967 480.31 247.978 487.345 251.046C487.636 259.194 491.709 300.965 536.591 321.89C536.697 323.477 536.776 325.09 536.776 326.625L536.723 326.651Z" fill="#CE6326"/>
<path d="M316.86 243.216H314.797V311.519H316.86V243.216Z" fill="#030303"/>
<path d="M367.403 243.454H365.34V311.652H367.403V243.454Z" fill="#030303"/>
<path d="M417.971 242.951H415.908V311.652H417.971V242.951Z" fill="#030303"/>
<path d="M465.446 243.216V306.017C465.446 307.816 464.705 309.456 463.515 310.62C463.33 310.805 463.145 310.99 462.933 311.149C462.298 311.625 461.584 311.996 460.844 312.234C460.526 312.313 460.236 312.392 459.918 312.445C459.601 312.498 459.283 312.525 458.966 312.525H257.617V310.461H458.94C461.373 310.461 463.383 308.451 463.383 306.017V243.216H465.446Z" fill="#030303"/>
<path d="M447.858 291.547C447.99 291.917 447.805 292.34 447.408 292.473C447.329 292.499 447.25 292.526 447.17 292.526C446.853 292.526 446.588 292.34 446.483 292.023L437.675 266.495C437.543 266.125 437.755 265.701 438.125 265.569C438.522 265.437 438.945 265.622 439.077 266.019L447.858 291.547Z" fill="#030303"/>
<path d="M439.976 292.738C440.108 293.134 439.897 293.558 439.5 293.69C439.421 293.716 439.341 293.716 439.262 293.716C438.971 293.716 438.68 293.531 438.574 293.214L433.391 277.95C433.258 277.579 433.47 277.156 433.867 277.024C434.211 276.892 434.66 277.103 434.792 277.474L439.976 292.738Z" fill="#030303"/>
<path d="M297.553 295.356C297.289 295.356 297.024 295.224 296.892 294.96L282.901 268.876C282.716 268.506 282.848 268.056 283.192 267.871C283.562 267.686 284.012 267.818 284.197 268.162L298.188 294.245C298.373 294.616 298.241 295.065 297.897 295.251C297.791 295.304 297.659 295.33 297.553 295.33V295.356Z" fill="#030303"/>
<path d="M288.825 292.076C288.561 292.076 288.296 291.944 288.164 291.679L282.372 280.86C282.187 280.489 282.319 280.066 282.689 279.854C283.033 279.669 283.483 279.775 283.694 280.172L289.486 290.992C289.672 291.362 289.539 291.785 289.169 291.997C289.063 292.05 288.931 292.076 288.825 292.076Z" fill="#030303"/>
<path d="M359.23 373.025C359.23 373.263 359.23 373.554 359.177 373.792C358.834 388.871 346.456 401.066 331.222 401.066C315.988 401.066 303.663 388.871 303.319 373.792C303.266 373.554 303.266 373.263 303.266 373.025C303.266 372.549 303.266 372.125 303.319 371.729C303.98 356.835 316.199 345.01 331.222 345.01C346.244 345.01 358.543 356.835 359.177 371.729C359.23 372.152 359.23 372.549 359.23 373.025Z" fill="#030303"/>
<path d="M331.275 388.844C340.024 388.844 347.117 381.75 347.117 372.998C347.117 364.247 340.024 357.152 331.275 357.152C322.525 357.152 315.432 364.247 315.432 372.998C315.432 381.75 322.525 388.844 331.275 388.844Z" fill="#FCFCFC"/>
<path d="M483.457 373.025C483.457 373.263 483.457 373.554 483.404 373.792C483.06 388.871 470.682 401.066 455.448 401.066C440.214 401.066 427.836 388.871 427.493 373.792C427.44 373.554 427.44 373.263 427.44 373.025C427.44 372.549 427.44 372.125 427.493 371.729C428.154 356.835 440.452 345.01 455.448 345.01C470.444 345.01 482.769 356.835 483.404 371.729C483.457 372.152 483.457 372.549 483.457 373.025Z" fill="#030303"/>
<path d="M455.818 388.844C464.568 388.844 471.661 381.75 471.661 372.998C471.661 364.247 464.568 357.152 455.818 357.152C447.069 357.152 439.976 364.247 439.976 372.998C439.976 381.75 447.069 388.844 455.818 388.844Z" fill="#FCFCFC"/>
<path d="M537.887 320.276L537.014 322.154C536.829 322.101 536.723 321.995 536.538 321.916H536.512C491.656 300.965 487.583 259.247 487.292 251.073C487.239 250.253 487.239 249.777 487.239 249.724H489.302C489.302 249.909 489.302 250.729 489.408 252.078C490.069 262.025 495.306 299.827 536.353 319.562C536.38 319.562 536.38 319.588 536.406 319.588C536.909 319.826 537.385 320.038 537.887 320.276Z" fill="#030303"/>
</g>
<defs>
<clipPath id="clip0_1221_3007">
<rect width="1920" height="464" fill="white"/>
</clipPath>
</defs>
</svg>
