<svg width="112" height="112" viewBox="0 0 112 112" fill="none" xmlns="http://www.w3.org/2000/svg">
<path d="M60.667 95V87.3C60.667 86.6778 60.7837 86.0758 61.017 85.494C61.2503 84.9122 61.6003 84.3864 62.067 83.9167L86.4503 59.65C87.1503 58.95 87.9281 58.4444 88.7837 58.1333C89.6392 57.8222 90.4948 57.6667 91.3503 57.6667C92.2837 57.6667 93.1781 57.8424 94.0337 58.194C94.8892 58.5455 95.667 59.0698 96.367 59.7667L100.684 64.0833C101.306 64.7833 101.793 65.5611 102.144 66.4167C102.496 67.2722 102.67 68.1278 102.667 68.9833C102.664 69.8389 102.508 70.7147 102.2 71.6107C101.892 72.5067 101.387 73.3031 100.684 74L76.417 98.2667C75.9503 98.7333 75.4261 99.0833 74.8443 99.3167C74.2625 99.55 73.659 99.6667 73.0337 99.6667H65.3337C64.0114 99.6667 62.9039 99.2202 62.011 98.3273C61.1181 97.4344 60.6701 96.3253 60.667 95ZM67.667 92.6667H72.1003L86.217 78.4333L84.117 76.2167L81.9003 74.1167L67.667 88.2333V92.6667ZM84.117 76.2167L81.9003 74.1167L86.217 78.4333L84.117 76.2167Z" fill="#CE6326"/>
<rect x="19" y="25.3333" width="50" height="9" rx="3" fill="#4F4F4F"/>
<rect x="19" y="43.7619" width="50" height="9" rx="3" fill="#4F4F4F"/>
<rect x="19" y="62" width="32" height="9" rx="3" fill="#4F4F4F"/>
</svg>
