<svg width="1084" height="634" viewBox="0 0 1084 634" fill="none" xmlns="http://www.w3.org/2000/svg">
<g opacity="0.7">
<path d="M1025.43 640H1077.36C1081.08 640 1084 637.075 1084 633.35V625.42C1084 621.695 1081.09 618.77 1077.36 618.77H1074.58V622.111H1077.36C1079.21 622.111 1080.65 623.57 1080.65 625.42V633.35C1080.65 635.2 1079.2 636.659 1077.36 636.659H1025.42C1023.63 636.659 1022.12 635.143 1022.12 633.35V625.42C1022.12 623.627 1023.64 622.111 1025.42 622.111H1028.19V618.77H1025.42C1021.76 618.77 1018.77 621.744 1018.77 625.42V633.35C1018.77 637.018 1021.75 640 1025.42 640H1025.43Z" fill="#020303"/>
<path d="M792 29L989 31.5L974.929 38.1667L937.681 43.1667L888.845 44L841.664 41.5L802.761 34.8333L792 29Z" fill="#E5BE5F"/>
<path d="M1028.2 250.452V620.457H1074.58V250.452C1074.58 247.583 1072.29 245.195 1069.33 245.195H1033.46C1030.59 245.195 1028.2 247.583 1028.2 250.452H1028.2Z" fill="#CE6224"/>
<path d="M1026.53 622.119H1076.26V250.443C1076.26 246.621 1073.15 243.516 1069.33 243.516H1033.46C1029.63 243.516 1026.53 246.621 1026.53 250.443V622.119ZM1072.91 618.777H1029.87V250.443C1029.87 248.503 1031.52 246.857 1033.46 246.857H1069.33C1071.31 246.857 1072.91 248.463 1072.91 250.443V618.777Z" fill="#020303"/>
<path d="M1064.39 245.186H1067.74V42.4045L1064.39 42.0215V245.186Z" fill="#020303"/>
<path d="M1049.38 245.187H1052.74V50.2535L1049.38 50.0742V245.187Z" fill="#020303"/>
<path d="M1051.34 29.3572H1051.44V26.0156L1051.34 29.3572Z" fill="#020303"/>
<path d="M1067.74 42.404C1067.74 36.2018 1062.48 30.782 1052.52 26.332L1052.24 26.0549L1051.75 26.0305C1040.52 20.9367 1024.19 17.4811 1006.89 16.5438C1000.27 16.1689 993.729 16.1852 987.467 16.5846L987.671 19.9261C993.802 19.543 1000.22 19.543 1006.7 19.8853C1023.76 20.8063 1039.78 24.1967 1050.65 29.2009L1051.23 29.4128C1059.72 33.2188 1064.4 37.6932 1064.4 42.0209L1067.74 42.404Z" fill="#020303"/>
<path d="M1049.43 50.6529L1052.75 50.2943C1051.4 37.678 1019.73 30.8809 990.614 30.8809L988.356 30.8972L988.397 34.2387L990.623 34.2224C1024.75 34.2224 1048.59 42.7148 1049.43 50.6448L1049.43 50.6529Z" fill="#020303"/>
<path d="M892.818 45.5833H893.772C959.097 45.4692 977.522 40.3184 985.698 36.4389C988.438 35.1431 990.304 33.13 991.258 30.4568C993.256 24.8251 990.378 18.1665 989.921 17.1722C989.09 14.7435 980.791 1.47516 899.495 0.130401C894.326 0.0489004 889.402 0 884.698 0C812.142 0 795.152 9.69042 794.427 10.1305C791.59 11.4671 786.177 16.1045 787.106 23.57C788.255 32.8774 801.283 35.8684 801.837 35.9907C802.009 36.0477 832.947 45.5915 892.818 45.5915V45.5833ZM884.951 3.34968C889.557 3.34968 894.375 3.39043 899.438 3.47193C980.562 4.81669 986.701 18.1339 986.758 18.2724L986.84 18.4925C986.864 18.5577 989.742 24.6947 988.095 29.3402C987.443 31.174 986.188 32.4943 984.255 33.4071C976.372 37.1398 958.412 42.1195 893.764 42.2336H892.81C833.501 42.2336 802.995 32.8448 802.693 32.747C802.441 32.6818 791.28 30.1145 790.424 23.1462C789.576 16.2594 795.739 13.195 796 13.0727C796.302 12.9016 813.569 3.34153 884.951 3.34153V3.34968Z" fill="#020303"/>
<path d="M989.253 32.9596L989.31 29.6181L790.611 26.8145L790.554 30.156L989.253 32.9596Z" fill="#020303"/>
</g>
<g opacity="0.7">
<path d="M513.167 386.36C478.329 386.36 450 358.025 450 323.18C450 288.335 478.329 260 513.167 260C548.004 260 576.333 288.335 576.333 323.18C576.333 358.025 548.004 386.36 513.167 386.36ZM513.167 262.521C479.701 262.521 452.52 289.739 452.52 323.18C452.52 356.621 479.733 383.839 513.167 383.839C546.6 383.839 573.813 356.621 573.813 323.18C573.813 289.739 546.6 262.521 513.167 262.521Z" fill="#030303"/>
<path d="M513.168 325.769C512.88 325.769 512.593 325.674 512.37 325.482L486.784 303.752C486.274 303.305 486.178 302.508 486.625 301.997C487.071 301.455 487.869 301.423 488.379 301.837L513.965 323.568C514.476 324.014 514.571 324.812 514.125 325.323C513.869 325.61 513.518 325.769 513.168 325.769Z" fill="#030303"/>
<path d="M513.198 346.696C512.911 346.696 512.624 346.601 512.4 346.409C511.858 345.962 511.794 345.165 512.241 344.654L541.081 310.352C541.527 309.841 542.325 309.777 542.835 310.192C543.378 310.639 543.441 311.437 542.995 311.947L514.155 346.25C513.9 346.537 513.549 346.696 513.198 346.696Z" fill="#030303"/>
<path d="M512.625 360.514C512.37 360.514 512.115 360.45 511.891 360.259L493.165 346.314C492.622 345.9 492.495 345.102 492.909 344.559C493.324 344.017 494.122 343.889 494.664 344.304L513.391 358.248C513.933 358.663 514.061 359.461 513.646 360.003C513.391 360.323 513.04 360.514 512.657 360.514H512.625Z" fill="#030303"/>
<path d="M511.922 633.528V287.25C511.922 286.548 512.464 286.006 513.134 286.006C513.804 286.006 514.379 286.548 514.379 287.25V633.465" fill="#030303"/>
<path d="M283.264 375.992C283.264 376.279 283.169 376.566 282.977 376.79C282.722 377.077 282.371 377.236 282.02 377.236C281.733 377.236 281.446 377.141 281.191 376.917L280.776 376.566L255.605 355.187C255.094 354.74 254.999 353.943 255.445 353.432C255.924 352.89 256.69 352.826 257.232 353.272L280.776 373.311L282.818 375.034C283.105 375.29 283.264 375.641 283.264 375.992Z" fill="#030303"/>
<path d="M311.849 363.423L283.264 397.406L283.009 397.725C282.786 398.012 282.403 398.172 282.052 398.172C281.765 398.172 281.478 398.076 281.255 397.884C280.744 397.438 280.648 396.64 281.095 396.129L283.264 393.545L309.967 361.827C310.413 361.285 311.211 361.253 311.721 361.668C312.232 362.114 312.296 362.912 311.849 363.423Z" fill="#030303"/>
<path d="M282.497 411.507C282.242 411.826 281.859 411.986 281.476 411.986C281.221 411.986 280.998 411.922 280.775 411.763H280.743L262.016 397.818C261.474 397.404 261.346 396.606 261.761 396.063C262.176 395.521 262.973 395.393 263.516 395.808L280.775 408.667L282.242 409.752C282.785 410.167 282.912 410.933 282.497 411.507Z" fill="#030303"/>
<path d="M283.264 350.371V633.055C283.264 633.757 282.69 634.299 282.02 634.299C281.318 634.299 280.776 633.757 280.776 633.055V350.371C280.776 349.701 281.318 349.127 282.02 349.127C282.722 349.127 283.264 349.701 283.264 350.371Z" fill="#030303"/>
<path d="M328.598 383.398C324.801 377.048 320.527 369.677 320.239 358.413C320.08 352.51 321.101 347.851 321.962 343.799C323.366 337.385 324.514 331.897 321.228 324.111C318.102 316.548 312.742 311.922 310.254 309.624C301.066 301.647 290.985 297.786 280.362 298.009C277.171 298.073 260.774 299.062 250.15 312.209C244.44 319.133 242.781 326.408 242.302 329.121C240.356 337.608 241.919 342.81 243.578 348.362C244.727 352.223 245.843 356.211 246.13 361.7C246.577 372.262 243.004 379.122 239.59 385.664C235.858 392.811 232.38 399.576 234.805 410.074C236.592 417.828 240.165 424.274 245.428 429.188C254.903 437.963 266.899 438.729 277.171 438.729H280.872C281.669 438.729 282.371 438.729 283.169 438.665H283.265C293.314 438.441 308.276 437.484 320.814 426.252C323.876 423.476 331.15 417.062 333.798 406.628C336.414 396.864 332.586 390.322 328.598 383.398ZM331.565 405.99C329.012 415.786 322.153 421.912 319.25 424.561C307.351 435.219 293.027 436.176 283.265 436.303H283.169C282.371 436.399 281.669 436.399 280.872 436.399H280.585C269.547 436.527 256.913 436.591 247.056 427.465C242.143 422.838 238.729 416.839 237.07 409.564C234.805 399.927 237.931 393.8 241.632 386.749C245.078 380.175 248.938 372.836 248.427 361.572C248.204 355.797 246.928 351.489 245.779 347.724C244.216 342.235 242.781 337.513 244.567 329.599C245.078 326.951 246.577 320.186 251.905 313.708C261.986 301.36 277.363 300.434 280.457 300.37H281.223C290.985 300.37 300.269 304.072 308.691 311.411C311.051 313.549 316.092 317.984 319.091 325.036C322.09 332.088 321.037 337.034 319.665 343.288C318.804 347.213 317.942 351.712 317.942 357.296V358.509C318.23 370.411 322.6 377.91 326.524 384.611C330.512 391.375 333.862 397.215 331.565 405.99Z" fill="#030303"/>
<path d="M331.565 405.987C329.012 415.783 322.154 421.909 319.25 424.558C307.351 435.215 293.027 436.173 283.265 436.3V397.403L311.849 363.42C312.296 362.909 312.232 362.111 311.721 361.665C311.211 361.25 310.413 361.282 309.967 361.824L283.265 393.542V350.369C283.265 349.699 282.69 349.124 282.02 349.124C281.319 349.124 280.776 349.699 280.776 350.369V373.312L257.232 353.273C256.69 352.826 255.924 352.89 255.446 353.432C254.999 353.943 255.095 354.74 255.605 355.187L280.776 376.566V408.667L263.517 395.807C262.975 395.393 262.177 395.52 261.762 396.063C261.348 396.605 261.475 397.403 262.018 397.818L280.744 411.762H280.776V436.396H280.585C269.547 436.524 256.913 436.587 247.056 427.461C242.143 422.835 238.729 416.836 237.07 409.56C234.805 399.924 237.931 393.797 241.632 386.745C245.078 380.172 248.938 372.833 248.427 361.569C248.204 355.793 246.928 351.486 245.779 347.72C244.216 342.232 242.781 337.509 244.567 329.596C245.078 326.948 246.577 320.183 251.905 313.705C261.986 301.356 277.363 300.431 280.457 300.367H281.223C290.985 300.367 300.269 304.069 308.691 311.408C311.052 313.546 316.092 317.981 319.091 325.033C322.09 332.085 321.037 337.031 319.665 343.285C318.804 347.21 317.942 351.709 317.942 357.293V358.506C318.23 370.408 322.6 377.906 326.524 384.607C330.512 391.372 333.862 397.211 331.565 405.987Z" fill="#CE6326"/>
<path d="M71.1793 348.765C67.383 342.415 63.108 335.076 62.8209 323.812C62.6933 317.877 63.6823 313.25 64.5437 309.197C65.9793 302.783 67.0958 297.295 63.8418 289.509C60.7154 281.947 55.3558 277.32 52.8674 275.023C43.6796 267.045 33.5984 263.184 22.975 263.408C19.7528 263.471 3.35505 264.493 -7.26842 277.607C-12.9789 284.531 -14.6059 291.807 -15.1164 294.519C-17.0305 303.007 -15.4673 308.208 -13.8403 313.792C-12.6918 317.653 -11.5433 321.642 -11.2562 327.13C-10.8415 337.692 -14.3826 344.521 -17.8281 351.094C-21.5287 358.242 -25.038 365.006 -22.6134 375.504C-20.8269 383.29 -17.2538 389.704 -11.99 394.618C-2.51497 403.393 9.48028 404.191 19.7528 404.191H24.602C24.9529 404.191 25.3995 404.127 25.7505 404.127C35.7997 403.904 50.8576 402.978 63.3952 391.714C66.4578 388.938 73.7315 382.524 76.3794 372.09C79.0273 362.326 75.1671 355.753 71.1793 348.828V348.765ZM74.1782 371.388C71.626 381.152 64.767 387.311 61.832 389.927C49.9324 400.617 35.5126 401.542 25.7505 401.702C25.3995 401.766 24.9529 401.766 24.602 401.766H23.1664C12.0963 401.893 -0.505133 401.989 -10.3629 392.863C-15.2759 388.236 -18.7213 382.237 -20.3484 374.962C-22.6134 365.325 -19.487 359.199 -15.7863 352.147C-12.3728 345.574 -8.5126 338.235 -9.02304 326.971C-9.24636 321.195 -10.5225 316.919 -11.6709 313.122C-13.2341 307.634 -14.6698 302.911 -12.8832 294.998C-12.3728 292.349 -10.8734 285.584 -5.54569 279.075C4.50353 266.726 19.9123 265.801 22.975 265.737H23.7725C33.5346 265.737 42.8182 269.438 51.2404 276.778C53.6012 278.915 58.6417 283.351 61.6406 290.403C64.6394 297.455 63.5547 302.401 62.2148 308.655C61.3534 312.58 60.4921 317.079 60.4921 322.631V323.844C60.7792 335.746 65.1179 343.244 69.0419 349.945C73.0297 356.71 76.3794 362.581 74.1143 371.356L74.1782 371.388Z" fill="#030303"/>
<path d="M74.1779 371.391C71.6257 381.156 64.7667 387.314 61.8317 389.931C49.9322 400.62 35.5123 401.546 25.7502 401.705C25.3993 401.769 24.9527 401.769 24.6017 401.769H23.1661C12.096 401.897 -0.505363 401.992 -10.3632 392.866C-15.2761 388.239 -18.7216 382.241 -20.3486 374.965C-22.6137 365.329 -19.4872 359.202 -15.7866 352.15C-12.373 345.577 -8.51283 338.238 -9.02327 326.974C-9.24659 321.198 -10.5227 316.923 -11.6712 313.125C-13.2344 307.637 -14.67 302.914 -12.8835 295.001C-12.373 292.352 -10.8736 285.588 -5.54592 279.078C4.5033 266.729 19.9121 265.804 22.9747 265.74H23.7723C33.5344 265.74 42.818 269.442 51.2402 276.781C53.6009 278.919 58.6415 283.354 61.6403 290.406C64.6391 297.458 63.5545 302.404 62.2146 308.658C61.3532 312.583 60.4918 317.082 60.4918 322.634V323.847C60.7789 335.749 65.1177 343.248 69.0416 349.948C73.0294 356.713 76.3792 362.585 74.1141 371.36L74.1779 371.391Z" fill="#CE6326"/>
<path d="M24.6341 342.578C24.347 342.578 24.0599 342.482 23.8365 342.291L-1.74909 320.529C-2.25952 320.082 -2.35524 319.284 -1.90861 318.774C-1.46198 318.263 -0.664408 318.199 -0.153972 318.614L25.4317 340.376C25.9421 340.823 26.0378 341.621 25.5912 342.131C25.336 342.418 24.985 342.578 24.6341 342.578Z" fill="#030303"/>
<path d="M24.6665 363.503C24.3793 363.503 24.0922 363.407 23.8689 363.216C23.3266 362.769 23.2628 361.971 23.7094 361.461L52.5491 327.19C52.9957 326.648 53.7933 326.616 54.3037 327.031C54.846 327.478 54.9099 328.275 54.4632 328.786L25.6235 363.056C25.3683 363.343 25.0174 363.503 24.6665 363.503Z" fill="#030303"/>
<path d="M24.0915 377.35C23.8363 377.35 23.5811 377.286 23.3578 377.095L4.63112 363.15C4.08878 362.736 3.96116 361.938 4.37589 361.395C4.79062 360.853 5.58819 360.725 6.13053 361.14L24.8572 375.084C25.3995 375.499 25.5271 376.297 25.1124 376.839C24.8572 377.159 24.5062 377.35 24.1234 377.35H24.0915Z" fill="#030303"/>
<path d="M24.6348 634.449C23.933 634.449 23.3906 633.907 23.3906 633.205V303.647C23.3906 302.945 23.933 302.402 24.6348 302.402C25.3367 302.402 25.879 302.945 25.879 303.647V633.205C25.879 633.907 25.3367 634.449 24.6348 634.449Z" fill="#030303"/>
</g>
</svg>
