<svg width="1108" height="640" viewBox="0 0 1108 640" fill="none" xmlns="http://www.w3.org/2000/svg">
<g opacity="0.7">
<path d="M1049.43 640H1101.36C1105.08 640 1108 637.075 1108 633.35V625.42C1108 621.695 1105.09 618.77 1101.36 618.77H1098.58V622.111H1101.36C1103.21 622.111 1104.65 623.57 1104.65 625.42V633.35C1104.65 635.2 1103.2 636.659 1101.36 636.659H1049.42C1047.63 636.659 1046.12 635.143 1046.12 633.35V625.42C1046.12 623.627 1047.64 622.111 1049.42 622.111H1052.19V618.77H1049.42C1045.76 618.77 1042.77 621.744 1042.77 625.42V633.35C1042.77 637.018 1045.75 640 1049.42 640H1049.43Z" fill="#020303"/>
<path d="M816 29L1013 31.5L998.929 38.1667L961.681 43.1667L912.845 44L865.664 41.5L826.761 34.8333L816 29Z" fill="#E5BE5F"/>
<path d="M1052.2 250.452V620.457H1098.58V250.452C1098.58 247.583 1096.29 245.195 1093.33 245.195H1057.46C1054.59 245.195 1052.2 247.583 1052.2 250.452H1052.2Z" fill="#CE6224"/>
<path d="M1050.53 622.119H1100.26V250.443C1100.26 246.621 1097.15 243.516 1093.33 243.516H1057.46C1053.63 243.516 1050.53 246.621 1050.53 250.443V622.119ZM1096.91 618.777H1053.87V250.443C1053.87 248.503 1055.52 246.857 1057.46 246.857H1093.33C1095.31 246.857 1096.91 248.463 1096.91 250.443V618.777Z" fill="#020303"/>
<path d="M1088.39 245.186H1091.74V42.4045L1088.39 42.0215V245.186Z" fill="#020303"/>
<path d="M1073.38 245.187H1076.74V50.2535L1073.38 50.0742V245.187Z" fill="#020303"/>
<path d="M1075.34 29.3572H1075.44V26.0156L1075.34 29.3572Z" fill="#020303"/>
<path d="M1091.74 42.404C1091.74 36.2018 1086.48 30.782 1076.52 26.332L1076.24 26.0549L1075.75 26.0305C1064.52 20.9367 1048.19 17.4811 1030.89 16.5438C1024.27 16.1689 1017.73 16.1852 1011.47 16.5846L1011.67 19.9261C1017.8 19.543 1024.22 19.543 1030.7 19.8853C1047.76 20.8063 1063.78 24.1967 1074.65 29.2009L1075.23 29.4128C1083.72 33.2188 1088.4 37.6932 1088.4 42.0209L1091.74 42.404Z" fill="#020303"/>
<path d="M1073.43 50.6529L1076.75 50.2943C1075.4 37.678 1043.73 30.8809 1014.61 30.8809L1012.36 30.8972L1012.4 34.2387L1014.62 34.2224C1048.75 34.2224 1072.59 42.7148 1073.43 50.6448L1073.43 50.6529Z" fill="#020303"/>
<path d="M916.818 45.5833H917.772C983.097 45.4692 1001.52 40.3184 1009.7 36.4389C1012.44 35.1431 1014.3 33.13 1015.26 30.4568C1017.26 24.8251 1014.38 18.1665 1013.92 17.1722C1013.09 14.7435 1004.79 1.47516 923.495 0.130401C918.326 0.0489004 913.402 0 908.698 0C836.142 0 819.152 9.69042 818.427 10.1305C815.59 11.4671 810.176 16.1045 811.106 23.57C812.255 32.8774 825.283 35.8684 825.837 35.9907C826.008 36.0477 856.947 45.5915 916.818 45.5915V45.5833ZM908.951 3.34968C913.557 3.34968 918.375 3.39043 923.438 3.47193C1004.56 4.81669 1010.7 18.1339 1010.76 18.2724L1010.84 18.4925C1010.86 18.5577 1013.74 24.6947 1012.09 29.3402C1011.44 31.174 1010.19 32.4943 1008.26 33.4071C1000.37 37.1398 982.412 42.1195 917.764 42.2336H916.81C857.501 42.2336 826.995 32.8448 826.693 32.747C826.44 32.6818 815.28 30.1145 814.424 23.1462C813.576 16.2594 819.739 13.195 820 13.0727C820.302 12.9016 837.568 3.34153 908.951 3.34153V3.34968Z" fill="#020303"/>
<path d="M1013.25 32.9596L1013.31 29.6181L814.612 26.8145L814.555 30.156L1013.25 32.9596Z" fill="#020303"/>
</g>
<g opacity="0.7">
<path d="M537.167 386.36C502.329 386.36 474 358.025 474 323.18C474 288.335 502.329 260 537.167 260C572.004 260 600.333 288.335 600.333 323.18C600.333 358.025 572.004 386.36 537.167 386.36ZM537.167 262.521C503.701 262.521 476.52 289.739 476.52 323.18C476.52 356.621 503.733 383.839 537.167 383.839C570.6 383.839 597.813 356.621 597.813 323.18C597.813 289.739 570.6 262.521 537.167 262.521Z" fill="#030303"/>
<path d="M537.168 325.769C536.88 325.769 536.593 325.674 536.37 325.482L510.784 303.752C510.274 303.305 510.178 302.508 510.625 301.997C511.071 301.455 511.869 301.423 512.379 301.837L537.965 323.568C538.476 324.014 538.571 324.812 538.125 325.323C537.869 325.61 537.518 325.769 537.168 325.769Z" fill="#030303"/>
<path d="M537.198 346.696C536.911 346.696 536.624 346.601 536.4 346.409C535.858 345.962 535.794 345.165 536.241 344.654L565.081 310.352C565.527 309.841 566.325 309.777 566.835 310.192C567.378 310.639 567.441 311.437 566.995 311.947L538.155 346.25C537.9 346.537 537.549 346.696 537.198 346.696Z" fill="#030303"/>
<path d="M536.625 360.514C536.37 360.514 536.115 360.45 535.891 360.259L517.165 346.314C516.622 345.9 516.495 345.102 516.909 344.559C517.324 344.017 518.122 343.889 518.664 344.304L537.391 358.248C537.933 358.663 538.061 359.461 537.646 360.003C537.391 360.323 537.04 360.514 536.657 360.514H536.625Z" fill="#030303"/>
<path d="M535.922 633.528V287.25C535.922 286.548 536.464 286.006 537.134 286.006C537.804 286.006 538.379 286.548 538.379 287.25V633.465" fill="#030303"/>
<path d="M307.264 375.992C307.264 376.279 307.169 376.566 306.977 376.79C306.722 377.077 306.371 377.236 306.02 377.236C305.733 377.236 305.446 377.141 305.191 376.917L304.776 376.566L279.605 355.187C279.094 354.74 278.999 353.943 279.445 353.432C279.924 352.89 280.69 352.826 281.232 353.272L304.776 373.311L306.818 375.034C307.105 375.29 307.264 375.641 307.264 375.992Z" fill="#030303"/>
<path d="M335.849 363.423L307.264 397.406L307.009 397.725C306.786 398.012 306.403 398.172 306.052 398.172C305.765 398.172 305.478 398.076 305.255 397.884C304.744 397.438 304.648 396.64 305.095 396.129L307.264 393.545L333.967 361.827C334.413 361.285 335.211 361.253 335.721 361.668C336.232 362.114 336.296 362.912 335.849 363.423Z" fill="#030303"/>
<path d="M306.497 411.507C306.242 411.826 305.859 411.986 305.476 411.986C305.221 411.986 304.998 411.922 304.775 411.763H304.743L286.016 397.818C285.474 397.404 285.346 396.606 285.761 396.063C286.176 395.521 286.973 395.393 287.516 395.808L304.775 408.667L306.242 409.752C306.785 410.167 306.912 410.933 306.497 411.507Z" fill="#030303"/>
<path d="M307.264 350.371V633.055C307.264 633.757 306.69 634.299 306.02 634.299C305.318 634.299 304.776 633.757 304.776 633.055V350.371C304.776 349.701 305.318 349.127 306.02 349.127C306.722 349.127 307.264 349.701 307.264 350.371Z" fill="#030303"/>
<path d="M352.598 383.398C348.801 377.048 344.527 369.677 344.239 358.413C344.08 352.51 345.101 347.851 345.962 343.799C347.366 337.385 348.514 331.897 345.228 324.111C342.102 316.548 336.742 311.922 334.254 309.624C325.066 301.647 314.985 297.786 304.362 298.009C301.171 298.073 284.774 299.062 274.15 312.209C268.44 319.133 266.781 326.408 266.302 329.121C264.356 337.608 265.919 342.81 267.578 348.362C268.727 352.223 269.843 356.211 270.13 361.7C270.577 372.262 267.004 379.122 263.59 385.664C259.858 392.811 256.38 399.576 258.805 410.074C260.592 417.828 264.165 424.274 269.428 429.188C278.903 437.963 290.899 438.729 301.171 438.729H304.872C305.669 438.729 306.371 438.729 307.169 438.665H307.265C317.314 438.441 332.276 437.484 344.814 426.252C347.876 423.476 355.15 417.062 357.798 406.628C360.414 396.864 356.586 390.322 352.598 383.398ZM355.565 405.99C353.012 415.786 346.153 421.912 343.25 424.561C331.351 435.219 317.027 436.176 307.265 436.303H307.169C306.371 436.399 305.669 436.399 304.872 436.399H304.585C293.547 436.527 280.913 436.591 271.056 427.465C266.143 422.838 262.729 416.839 261.07 409.564C258.805 399.927 261.931 393.8 265.632 386.749C269.078 380.175 272.938 372.836 272.427 361.572C272.204 355.797 270.928 351.489 269.779 347.724C268.216 342.235 266.781 337.513 268.567 329.599C269.078 326.951 270.577 320.186 275.905 313.708C285.986 301.36 301.363 300.434 304.457 300.37H305.223C314.985 300.37 324.269 304.072 332.691 311.411C335.051 313.549 340.092 317.984 343.091 325.036C346.09 332.088 345.037 337.034 343.665 343.288C342.804 347.213 341.942 351.712 341.942 357.296V358.509C342.23 370.411 346.6 377.91 350.524 384.611C354.512 391.375 357.862 397.215 355.565 405.99Z" fill="#030303"/>
<path d="M355.565 405.987C353.012 415.783 346.154 421.909 343.25 424.558C331.351 435.215 317.027 436.173 307.265 436.3V397.403L335.849 363.42C336.296 362.909 336.232 362.111 335.721 361.665C335.211 361.25 334.413 361.282 333.967 361.824L307.265 393.542V350.369C307.265 349.699 306.69 349.124 306.02 349.124C305.319 349.124 304.776 349.699 304.776 350.369V373.312L281.232 353.273C280.69 352.826 279.924 352.89 279.446 353.432C278.999 353.943 279.095 354.74 279.605 355.187L304.776 376.566V408.667L287.517 395.807C286.975 395.393 286.177 395.52 285.762 396.063C285.348 396.605 285.475 397.403 286.018 397.818L304.744 411.762H304.776V436.396H304.585C293.547 436.524 280.913 436.587 271.056 427.461C266.143 422.835 262.729 416.836 261.07 409.56C258.805 399.924 261.931 393.797 265.632 386.745C269.078 380.172 272.938 372.833 272.427 361.569C272.204 355.793 270.928 351.486 269.779 347.72C268.216 342.232 266.781 337.509 268.567 329.596C269.078 326.948 270.577 320.183 275.905 313.705C285.986 301.356 301.363 300.431 304.457 300.367H305.223C314.985 300.367 324.269 304.069 332.691 311.408C335.052 313.546 340.092 317.981 343.091 325.033C346.09 332.085 345.037 337.031 343.665 343.285C342.804 347.21 341.942 351.709 341.942 357.293V358.506C342.23 370.408 346.6 377.906 350.524 384.607C354.512 391.372 357.862 397.211 355.565 405.987Z" fill="#CE6326"/>
<path d="M95.1793 348.765C91.383 342.415 87.108 335.076 86.8209 323.812C86.6933 317.877 87.6823 313.25 88.5437 309.197C89.9793 302.783 91.0958 297.295 87.8418 289.509C84.7154 281.947 79.3558 277.32 76.8674 275.023C67.6796 267.045 57.5984 263.184 46.975 263.408C43.7528 263.471 27.355 264.493 16.7316 277.607C11.0211 284.531 9.39406 291.807 8.88362 294.519C6.96948 303.007 8.53269 308.208 10.1597 313.792C11.3082 317.653 12.4567 321.642 12.7438 327.13C13.1585 337.692 9.61737 344.521 6.17192 351.094C2.47125 358.242 -1.038 365.006 1.38658 375.504C3.1731 383.29 6.74617 389.704 12.01 394.618C21.485 403.393 33.4803 404.191 43.7528 404.191H48.602C48.9529 404.191 49.3995 404.127 49.7505 404.127C59.7997 403.904 74.8576 402.978 87.3952 391.714C90.4578 388.938 97.7315 382.524 100.379 372.09C103.027 362.326 99.1671 355.753 95.1793 348.828V348.765ZM98.1782 371.388C95.626 381.152 88.767 387.311 85.832 389.927C73.9324 400.617 59.5126 401.542 49.7505 401.702C49.3995 401.766 48.9529 401.766 48.602 401.766H47.1664C36.0963 401.893 23.4949 401.989 13.6371 392.863C8.7241 388.236 5.27865 382.237 3.65164 374.962C1.38657 365.325 4.513 359.199 8.21367 352.147C11.6272 345.574 15.4874 338.235 14.977 326.971C14.7536 321.195 13.4775 316.919 12.3291 313.122C10.7659 307.634 9.33025 302.911 11.1168 294.998C11.6272 292.349 13.1266 285.584 18.4543 279.075C28.5035 266.726 43.9123 265.801 46.975 265.737H47.7725C57.5346 265.737 66.8182 269.438 75.2404 276.778C77.6012 278.915 82.6417 283.351 85.6406 290.403C88.6394 297.455 87.5547 302.401 86.2148 308.655C85.3534 312.58 84.4921 317.079 84.4921 322.631V323.844C84.7792 335.746 89.1179 343.244 93.0419 349.945C97.0297 356.71 100.379 362.581 98.1143 371.356L98.1782 371.388Z" fill="#030303"/>
<path d="M98.1779 371.391C95.6257 381.156 88.7667 387.314 85.8317 389.931C73.9322 400.62 59.5123 401.546 49.7502 401.705C49.3993 401.769 48.9527 401.769 48.6017 401.769H47.1661C36.096 401.897 23.4946 401.992 13.6368 392.866C8.72388 388.239 5.27842 382.241 3.65141 374.965C1.38634 365.329 4.51277 359.202 8.21344 352.15C11.627 345.577 15.4872 338.238 14.9767 326.974C14.7534 321.198 13.4773 316.923 12.3288 313.125C10.7656 307.637 9.33002 302.914 11.1165 295.001C11.627 292.352 13.1264 285.588 18.4541 279.078C28.5033 266.729 43.9121 265.804 46.9747 265.74H47.7723C57.5344 265.74 66.818 269.442 75.2402 276.781C77.6009 278.919 82.6415 283.354 85.6403 290.406C88.6391 297.458 87.5545 302.404 86.2146 308.658C85.3532 312.583 84.4918 317.082 84.4918 322.634V323.847C84.7789 335.749 89.1177 343.248 93.0416 349.948C97.0294 356.713 100.379 362.585 98.1141 371.36L98.1779 371.391Z" fill="#CE6326"/>
<path d="M48.6341 342.578C48.347 342.578 48.0599 342.482 47.8365 342.291L22.2509 320.529C21.7405 320.082 21.6448 319.284 22.0914 318.774C22.538 318.263 23.3356 318.199 23.846 318.614L49.4317 340.376C49.9421 340.823 50.0378 341.621 49.5912 342.131C49.336 342.418 48.985 342.578 48.6341 342.578Z" fill="#030303"/>
<path d="M48.6665 363.503C48.3793 363.503 48.0922 363.407 47.8689 363.216C47.3266 362.769 47.2628 361.971 47.7094 361.461L76.5491 327.19C76.9957 326.648 77.7933 326.616 78.3037 327.031C78.846 327.478 78.9099 328.275 78.4632 328.786L49.6235 363.056C49.3683 363.343 49.0174 363.503 48.6665 363.503Z" fill="#030303"/>
<path d="M48.0915 377.35C47.8363 377.35 47.5811 377.286 47.3578 377.095L28.6311 363.15C28.0888 362.736 27.9612 361.938 28.3759 361.395C28.7906 360.853 29.5882 360.725 30.1305 361.14L48.8572 375.084C49.3995 375.499 49.5271 376.297 49.1124 376.839C48.8572 377.159 48.5062 377.35 48.1234 377.35H48.0915Z" fill="#030303"/>
<path d="M48.6348 634.449C47.933 634.449 47.3906 633.907 47.3906 633.205V303.647C47.3906 302.945 47.933 302.402 48.6348 302.402C49.3367 302.402 49.879 302.945 49.879 303.647V633.205C49.879 633.907 49.3367 634.449 48.6348 634.449Z" fill="#030303"/>
</g>
<g opacity="0.7">
<path d="M913.118 65.7051L913.118 105" stroke="#E5BE5F" stroke-width="2" stroke-linecap="round"/>
<path d="M939.797 62.291L941.443 95.7183" stroke="#E5BE5F" stroke-width="2" stroke-linecap="round"/>
<path d="M997.403 49.293L1008.92 82.7202" stroke="#E5BE5F" stroke-width="2" stroke-linecap="round"/>
<path d="M971.069 60.4375L977.653 99.436" stroke="#E5BE5F" stroke-width="2" stroke-linecap="round"/>
<path d="M887.129 62.291L885.483 95.7183" stroke="#E5BE5F" stroke-width="2" stroke-linecap="round"/>
<path d="M829.522 49.293L818 82.7202" stroke="#E5BE5F" stroke-width="2" stroke-linecap="round"/>
<path d="M855.857 60.4375L849.273 99.436" stroke="#E5BE5F" stroke-width="2" stroke-linecap="round"/>
</g>
</svg>
