<svg width="1536" height="371" viewBox="0 0 1536 371" fill="none" xmlns="http://www.w3.org/2000/svg">
<g clip-path="url(#clip0_4338_21341)">
<path d="M1152.2 168.578H1266.42V319.622C1262.33 319.622 1278.88 319.622 1152.2 319.622" fill="#92C99F"/>
<path d="M1435.83 107.387H1325.85V319.622H1435.83" fill="#DEAC49"/>
<path d="M1221.9 164.791V3.78516H1346.16V103.6H1322.08V319.621C1308.8 319.6 1286.52 319.621 1270.22 319.621V164.77H1221.9V164.791Z" fill="#CE6224"/>
<path d="M1155.99 319.623H1154.11V164.793H1270.2V319.623H1268.32L1268.36 166.697H1155.99V319.623Z" fill="black"/>
<path d="M1323.97 319.623H1322.06V103.602H1433.95V319.623H1432.13L1432.04 105.505H1324.05L1323.97 319.623Z" fill="#020303"/>
<path d="M1218.09 164.792V0H1344.26V103.601H1342.35L1342.37 1.90365H1219.99V164.792H1218.09Z" fill="#020303"/>
<path d="M1376.93 151.762H1396.27V133.423H1376.93V151.762Z" fill="#020303"/>
<path d="M1351.49 175.895H1370.83V157.556H1351.49V175.895Z" fill="#020303"/>
<path d="M1248.64 61.8477H1272.45V39.2789H1248.64V61.8477Z" fill="#020303"/>
<path d="M1215.34 212.402H1237.17V191.695H1215.34V212.402Z" fill="#020303"/>
<path d="M1182.8 212.402H1204.63V191.695H1182.8V212.402Z" fill="#020303"/>
<path d="M1351.49 151.762H1370.83V133.423H1351.49V151.762Z" fill="#020303"/>
<path d="M1376.93 175.895H1396.27V157.556H1376.93V175.895Z" fill="#020303"/>
<path d="M1248.77 104.277H1272.57V81.7086H1248.77V104.277Z" fill="#020303"/>
<path d="M313.214 156.733C290.109 156.733 271.32 137.95 271.32 114.853C271.32 91.7553 290.109 72.9727 313.214 72.9727C336.319 72.9727 355.108 91.7553 355.108 114.853C355.108 137.95 336.319 156.733 313.214 156.733ZM313.214 74.6436C291.019 74.6436 272.992 92.686 272.992 114.853C272.992 137.02 291.04 155.062 313.214 155.062C335.388 155.062 353.436 137.02 353.436 114.853C353.436 92.686 335.388 74.6436 313.214 74.6436Z" fill="#030303"/>
<path d="M313.214 116.567C313.024 116.567 312.833 116.503 312.685 116.376L295.716 101.972C295.377 101.676 295.314 101.147 295.61 100.809C295.906 100.449 296.435 100.428 296.774 100.703L313.743 115.107C314.082 115.403 314.145 115.932 313.849 116.271C313.68 116.461 313.447 116.567 313.214 116.567Z" fill="#030303"/>
<path d="M313.235 130.44C313.045 130.44 312.854 130.377 312.706 130.25C312.347 129.954 312.304 129.425 312.601 129.087L331.728 106.349C332.024 106.01 332.553 105.968 332.891 106.243C333.251 106.539 333.294 107.068 332.997 107.406L313.87 130.144C313.701 130.335 313.468 130.44 313.235 130.44Z" fill="#030303"/>
<path d="M312.855 139.599C312.685 139.599 312.516 139.557 312.368 139.43L299.948 130.187C299.588 129.912 299.503 129.383 299.779 129.023C300.054 128.664 300.583 128.579 300.942 128.854L313.362 138.097C313.722 138.372 313.807 138.901 313.532 139.261C313.362 139.472 313.13 139.599 312.876 139.599H312.855Z" fill="#030303"/>
<path d="M312.389 320.573V91.0358C312.389 90.5705 312.748 90.2109 313.193 90.2109C313.637 90.2109 314.018 90.5705 314.018 91.0358V320.531" fill="#030303"/>
<path d="M171.897 178.605C150.654 178.605 133.367 161.324 133.367 140.087C133.367 118.851 150.654 101.57 171.897 101.57C193.14 101.57 210.426 118.851 210.426 140.087C210.426 161.324 193.14 178.605 171.897 178.605ZM171.897 103.114C151.5 103.114 134.891 119.697 134.891 140.109C134.891 160.52 151.479 177.103 171.897 177.103C192.315 177.103 208.903 160.52 208.903 140.109C208.903 119.697 192.315 103.114 171.897 103.114Z" fill="#030303"/>
<path d="M171.897 144.528C171.706 144.528 171.516 144.464 171.368 144.337L154.399 129.933C154.06 129.637 153.997 129.108 154.293 128.77C154.589 128.41 155.118 128.389 155.457 128.664L172.426 143.068C172.764 143.364 172.828 143.893 172.531 144.232C172.362 144.422 172.129 144.528 171.897 144.528Z" fill="#030303"/>
<path d="M171.918 158.405C171.727 158.405 171.537 158.342 171.389 158.215C171.029 157.919 170.987 157.39 171.283 157.052L190.41 134.314C190.707 133.975 191.236 133.933 191.574 134.208C191.934 134.504 191.976 135.033 191.68 135.371L172.553 158.109C172.383 158.3 172.151 158.405 171.918 158.405Z" fill="#030303"/>
<path d="M171.558 167.584C171.389 167.584 171.22 167.541 171.071 167.414L158.651 158.171C158.292 157.896 158.207 157.367 158.482 157.008C158.757 156.648 159.286 156.564 159.646 156.839L172.066 166.082C172.426 166.357 172.51 166.886 172.235 167.245C172.066 167.457 171.833 167.584 171.579 167.584H171.558Z" fill="#030303"/>
<path d="M171.051 320.618V123.231C171.051 122.766 171.432 122.406 171.897 122.406C172.363 122.406 172.722 122.766 172.722 123.231V320.555" fill="#030303"/>
<path d="M241.825 149.967C241.825 150.157 241.762 150.348 241.635 150.496C241.465 150.686 241.233 150.792 241 150.792C240.809 150.792 240.619 150.728 240.45 150.58L240.175 150.348L223.481 136.176C223.142 135.88 223.079 135.351 223.375 135.013C223.692 134.653 224.2 134.611 224.56 134.907L240.175 148.19L241.529 149.332C241.719 149.502 241.825 149.734 241.825 149.967Z" fill="#030303"/>
<path d="M260.783 141.632L241.825 164.159L241.656 164.37C241.508 164.56 241.254 164.666 241.021 164.666C240.831 164.666 240.641 164.603 240.492 164.476C240.154 164.18 240.09 163.651 240.387 163.312L241.825 161.599L259.535 140.574C259.831 140.215 260.36 140.194 260.699 140.469C261.037 140.765 261.08 141.294 260.783 141.632Z" fill="#030303"/>
<path d="M241.317 173.507C241.148 173.718 240.894 173.824 240.64 173.824C240.471 173.824 240.323 173.782 240.175 173.676H240.153L227.733 164.433C227.374 164.158 227.289 163.629 227.564 163.27C227.839 162.91 228.368 162.825 228.728 163.1L240.175 171.624L241.148 172.344C241.508 172.619 241.592 173.126 241.317 173.507Z" fill="#030303"/>
<path d="M241.825 132.981V320.363C241.825 320.829 241.444 321.188 241 321.188C240.534 321.188 240.175 320.829 240.175 320.363V132.981C240.175 132.537 240.534 132.156 241 132.156C241.465 132.156 241.825 132.537 241.825 132.981Z" fill="#030303"/>
<path d="M271.891 154.873C269.373 150.664 266.538 145.778 266.348 138.312C266.242 134.399 266.919 131.311 267.49 128.624C268.421 124.373 269.183 120.735 267.004 115.574C264.93 110.561 261.375 107.494 259.725 105.971C253.631 100.683 246.945 98.1236 239.9 98.2717C237.784 98.314 226.908 98.9697 219.863 107.684C216.075 112.274 214.975 117.097 214.658 118.895C213.367 124.521 214.404 127.969 215.504 131.649C216.266 134.208 217.006 136.852 217.197 140.49C217.493 147.492 215.123 152.039 212.859 156.375C210.384 161.113 208.077 165.597 209.685 172.556C210.87 177.696 213.24 181.969 216.731 185.226C223.015 191.043 230.971 191.55 237.784 191.55H240.238C240.767 191.55 241.233 191.55 241.762 191.508H241.825C248.49 191.36 258.413 190.725 266.729 183.28C268.76 181.44 273.584 177.188 275.34 170.272C277.075 163.799 274.536 159.463 271.891 154.873ZM273.859 169.849C272.166 176.342 267.617 180.403 265.692 182.159C257.8 189.224 248.299 189.858 241.825 189.943H241.762C241.233 190.006 240.767 190.006 240.238 190.006H240.048C232.727 190.091 224.348 190.133 217.81 184.084C214.552 181.017 212.288 177.04 211.188 172.218C209.685 165.83 211.759 161.769 214.213 157.094C216.498 152.737 219.058 147.872 218.72 140.406C218.572 136.577 217.725 133.722 216.964 131.226C215.927 127.588 214.975 124.457 216.16 119.212C216.498 117.456 217.493 112.972 221.026 108.678C227.712 100.493 237.911 99.8792 239.963 99.8369H240.471C246.945 99.8369 253.102 102.291 258.688 107.155C260.254 108.573 263.597 111.513 265.586 116.187C267.575 120.862 266.877 124.14 265.967 128.286C265.396 130.887 264.824 133.87 264.824 137.571V138.375C265.015 146.265 267.913 151.235 270.516 155.677C273.161 160.161 275.382 164.032 273.859 169.849Z" fill="#030303"/>
<path d="M273.859 169.848C272.167 176.341 267.617 180.402 265.692 182.158C257.8 189.223 248.3 189.857 241.825 189.942V164.158L260.783 141.632C261.079 141.293 261.037 140.764 260.699 140.468C260.36 140.193 259.831 140.214 259.535 140.574L241.825 161.599V132.981C241.825 132.536 241.444 132.156 241 132.156C240.535 132.156 240.175 132.536 240.175 132.981V148.189L224.56 134.905C224.2 134.609 223.692 134.652 223.375 135.011C223.079 135.35 223.142 135.878 223.481 136.174L240.175 150.346V171.625L228.728 163.1C228.369 162.825 227.84 162.91 227.564 163.27C227.289 163.629 227.374 164.158 227.734 164.433L240.154 173.676H240.175V190.005H240.048C232.727 190.09 224.348 190.132 217.81 184.083C214.552 181.016 212.288 177.039 211.188 172.217C209.686 165.829 211.759 161.768 214.213 157.093C216.499 152.736 219.059 147.871 218.72 140.405C218.572 136.576 217.726 133.721 216.964 131.225C215.927 127.587 214.975 124.456 216.16 119.211C216.499 117.455 217.493 112.971 221.027 108.677C227.713 100.492 237.911 99.8782 239.963 99.8359H240.471C246.946 99.8359 253.103 102.29 258.689 107.154C260.254 108.572 263.597 111.512 265.586 116.186C267.575 120.861 266.877 124.139 265.967 128.285C265.396 130.887 264.825 133.869 264.825 137.57V138.374C265.015 146.264 267.914 151.234 270.516 155.676C273.161 160.16 275.383 164.031 273.859 169.848Z" fill="#CE6326"/>
<path d="M125.75 131.817C123.232 127.608 120.397 122.743 120.206 115.277C120.122 111.342 120.778 108.275 121.349 105.589C122.301 101.338 123.042 97.6996 120.883 92.5386C118.81 87.5256 115.255 84.4586 113.605 82.9357C107.511 77.6478 100.825 75.0885 93.7795 75.2365C91.6425 75.2788 80.767 75.9557 73.7213 84.649C69.9339 89.2389 68.8548 94.0615 68.5163 95.8594C67.2468 101.486 68.2835 104.933 69.3626 108.635C70.1243 111.194 70.886 113.838 71.0764 117.476C71.3515 124.478 69.0029 129.004 66.7178 133.361C64.2634 138.099 61.936 142.583 63.544 149.542C64.7289 154.703 67.0987 158.955 70.5898 162.212C76.8739 168.029 84.8294 168.558 91.6425 168.558H94.8586C95.0913 168.558 95.3875 168.515 95.6203 168.515C102.285 168.367 112.272 167.754 120.587 160.287C122.618 158.447 127.443 154.196 129.199 147.279C130.955 140.807 128.395 136.449 125.75 131.859V131.817ZM127.739 146.814C126.046 153.286 121.497 157.368 119.551 159.103C111.658 166.189 102.095 166.802 95.6203 166.908C95.3875 166.95 95.0913 166.95 94.8586 166.95H93.9064C86.5644 167.035 78.2068 167.098 71.6689 161.049C68.4105 157.982 66.1254 154.005 65.0463 149.183C63.544 142.795 65.6176 138.734 68.0719 134.059C70.3359 129.702 72.8961 124.837 72.5575 117.371C72.4094 113.542 71.5631 110.708 70.8014 108.191C69.7646 104.553 68.8125 101.422 69.9974 96.1767C70.3359 94.4211 71.3303 89.9369 74.8638 85.622C81.5287 77.4363 91.7483 76.8229 93.7795 76.7806H94.3085C100.783 76.7806 106.94 79.2342 112.526 84.0991C114.092 85.5162 117.435 88.4563 119.424 93.1308C121.412 97.8053 120.693 101.084 119.804 105.23C119.233 107.831 118.662 110.814 118.662 114.494V115.298C118.852 123.187 121.73 128.158 124.332 132.6C126.977 137.084 129.199 140.976 127.697 146.792L127.739 146.814Z" fill="#030303"/>
<path d="M127.739 146.814C126.046 153.287 121.497 157.369 119.55 159.103C111.658 166.189 102.095 166.803 95.6202 166.908C95.3875 166.951 95.0913 166.951 94.8585 166.951H93.9064C86.5644 167.035 78.2068 167.099 71.6688 161.049C68.4104 157.982 66.1253 154.006 65.0462 149.183C63.544 142.795 65.6175 138.734 68.0719 134.06C70.3358 129.703 72.896 124.838 72.5575 117.371C72.4094 113.543 71.563 110.708 70.8013 108.191C69.7646 104.553 68.8124 101.423 69.9973 96.1773C70.3358 94.4217 71.3303 89.9376 74.8638 85.6226C81.5287 77.437 91.7482 76.8236 93.7794 76.7812H94.3084C100.783 76.7812 106.94 79.2348 112.526 84.0997C114.092 85.5169 117.435 88.4569 119.424 93.1315C121.412 97.806 120.693 101.084 119.804 105.23C119.233 107.832 118.662 110.814 118.662 114.495V115.298C118.852 123.188 121.73 128.159 124.332 132.6C126.977 137.085 129.199 140.976 127.696 146.793L127.739 146.814Z" fill="#CE6326"/>
<path d="M94.8801 127.714C94.6897 127.714 94.4993 127.65 94.3511 127.523L77.3821 113.098C77.0435 112.802 76.98 112.273 77.2763 111.935C77.5725 111.596 78.1014 111.554 78.44 111.829L95.4091 126.254C95.7476 126.55 95.8111 127.079 95.5149 127.418C95.3456 127.608 95.1129 127.714 94.8801 127.714Z" fill="#030303"/>
<path d="M94.9013 141.59C94.7108 141.59 94.5204 141.527 94.3723 141.4C94.0126 141.104 93.9703 140.575 94.2665 140.237L113.394 117.52C113.69 117.16 114.219 117.139 114.557 117.414C114.917 117.71 114.96 118.239 114.663 118.577L95.536 141.294C95.3668 141.485 95.134 141.59 94.9013 141.59Z" fill="#030303"/>
<path d="M94.52 150.767C94.3508 150.767 94.1815 150.725 94.0334 150.598L81.6134 141.355C81.2537 141.08 81.169 140.551 81.4441 140.191C81.7191 139.832 82.2481 139.747 82.6078 140.022L95.0278 149.265C95.3875 149.54 95.4721 150.069 95.1971 150.429C95.0278 150.64 94.7951 150.767 94.5412 150.767H94.52Z" fill="#030303"/>
<path d="M94.8799 321.186C94.4144 321.186 94.0547 320.826 94.0547 320.361V101.907C94.0547 101.442 94.4144 101.082 94.8799 101.082C95.3454 101.082 95.705 101.442 95.705 101.907V320.361C95.705 320.826 95.3454 321.186 94.8799 321.186Z" fill="#030303"/>
<path d="M1601.57 321.271H-59.1748C-59.6403 321.271 -60 320.911 -60 320.446C-60 319.981 -59.6403 319.621 -59.1748 319.621H1601.6C1602.06 319.621 1602.42 319.981 1602.42 320.446C1602.42 320.911 1602.06 321.271 1601.6 321.271H1601.57Z" fill="#030303"/>
<path d="M257.165 338.974H13.9062C13.4407 338.974 13.0811 338.614 13.0811 338.149C13.0811 337.684 13.4407 337.324 13.9062 337.324H257.165C257.631 337.324 257.99 337.684 257.99 338.149C257.99 338.614 257.631 338.974 257.165 338.974Z" fill="#030303"/>
<path d="M670.242 338.826H426.983C426.518 338.826 426.158 338.466 426.158 338.001C426.158 337.535 426.518 337.176 426.983 337.176H670.242C670.708 337.176 671.068 337.535 671.068 338.001C671.068 338.466 670.708 338.826 670.242 338.826Z" fill="#030303"/>
<path d="M459.779 359.005H205.369C204.904 359.005 204.544 358.646 204.544 358.18C204.544 357.715 204.904 357.355 205.369 357.355H459.779C460.244 357.355 460.604 357.715 460.604 358.18C460.604 358.646 460.244 359.005 459.779 359.005Z" fill="#030303"/>
<path d="M1230.79 338.806H987.535C987.07 338.806 986.71 338.447 986.71 337.981C986.71 337.516 987.07 337.156 987.535 337.156H1230.79C1231.26 337.156 1231.62 337.516 1231.62 337.981C1231.62 338.447 1231.26 338.806 1230.79 338.806Z" fill="#030303"/>
<path d="M1161.44 358.9H863.969C863.504 358.9 863.144 358.54 863.144 358.075C863.144 357.61 863.504 357.25 863.969 357.25H1161.44C1161.9 357.25 1162.26 357.61 1162.26 358.075C1162.26 358.54 1161.9 358.9 1161.44 358.9Z" fill="#030303"/>
<path d="M1518.02 358.771H1220.55C1220.09 358.771 1219.73 358.411 1219.73 357.946C1219.73 357.481 1220.09 357.121 1220.55 357.121H1518.02C1518.49 357.121 1518.84 357.481 1518.84 357.946C1518.84 358.411 1518.49 358.771 1518.02 358.771Z" fill="#030303"/>
<path d="M1699.32 256.082C1697.48 231.44 1682.39 209.929 1659.92 199.67H1659.9C1659.71 199.565 1659.54 199.48 1659.35 199.374C1650.65 195.546 1641.43 193.621 1631.93 193.621H1514.86C1492.3 193.621 1474 211.917 1474 234.423V286.392C1474 293.288 1479.63 298.872 1486.48 298.872H1687.02C1693.84 298.872 1699.46 293.288 1699.46 286.392V261.179C1699.46 259.487 1699.46 257.774 1699.32 256.082ZM1693.03 295.36C1692.46 295.741 1691.85 296.08 1691.21 296.355C1690.56 296.629 1689.88 296.841 1689.18 296.989C1688.48 297.116 1687.76 297.201 1687.02 297.201H1486.48C1485.74 297.201 1485.02 297.116 1484.33 296.989C1484.13 296.968 1483.92 296.904 1483.73 296.841C1483.56 296.799 1483.42 296.756 1483.27 296.714C1482.93 296.629 1482.61 296.503 1482.29 296.355C1481.64 296.08 1481.02 295.741 1480.45 295.36C1479.88 294.98 1479.35 294.535 1478.87 294.028C1478.74 293.922 1478.61 293.795 1478.51 293.647C1478.3 293.414 1478.1 293.203 1477.91 292.949C1477.72 292.716 1477.55 292.463 1477.39 292.209C1477.05 291.701 1476.77 291.151 1476.52 290.58C1476.24 289.946 1476.01 289.269 1475.88 288.55C1475.73 287.852 1475.65 287.132 1475.65 286.392V234.423C1475.65 212.806 1493.23 195.271 1514.86 195.271H1631.93C1634.34 195.271 1636.79 195.419 1639.16 195.652C1639.73 195.736 1640.35 195.779 1640.81 195.884H1640.83C1646.84 196.688 1652.66 198.296 1658.29 200.749C1658.46 200.791 1658.54 200.855 1658.65 200.897C1659.12 201.088 1659.54 201.32 1659.96 201.553H1659.98C1681.25 211.6 1695.59 232.054 1697.58 255.511C1697.58 255.765 1697.67 255.934 1697.67 256.166V257.393C1697.75 258.683 1697.81 259.953 1697.81 261.179V286.392C1697.81 289.353 1696.59 292.061 1694.64 294.028C1694.15 294.535 1693.6 294.98 1693.03 295.36Z" fill="#030303"/>
<path d="M1520.29 195.27V248.233H1475.65V234.421C1475.65 212.804 1493.23 195.27 1514.86 195.27H1520.29Z" fill="#FCFCFC"/>
<path d="M1560.73 195.27H1521.95V248.233H1560.73V195.27Z" fill="#FCFCFC"/>
<path d="M1697.84 261.18V286.371C1697.84 292.336 1692.97 297.201 1687 297.201H1655.18C1654.65 285.292 1644.81 275.838 1632.82 275.838C1620.82 275.838 1610.96 285.292 1610.45 297.201H1555.82C1555.29 285.292 1545.45 275.838 1533.46 275.838C1521.46 275.838 1511.64 285.292 1511.13 297.201H1486.55C1480.58 297.201 1475.71 292.336 1475.71 286.371V249.863H1635.67C1638.51 249.863 1640.88 247.537 1640.88 244.66V195.863C1646.89 196.667 1652.7 198.275 1658.33 200.728C1658.57 207.243 1661.82 240.641 1697.73 257.372C1697.81 258.641 1697.88 259.932 1697.88 261.158L1697.84 261.18Z" fill="#CE6326"/>
<path d="M1521.95 194.469H1520.29V249.082H1521.95V194.469Z" fill="#030303"/>
<path d="M1640.81 194.469V244.683C1640.81 246.121 1640.22 247.432 1639.27 248.363C1639.12 248.511 1638.97 248.659 1638.8 248.786C1638.3 249.167 1637.72 249.463 1637.13 249.653C1636.88 249.717 1636.64 249.78 1636.39 249.823C1636.14 249.865 1635.88 249.886 1635.63 249.886H1474.55V248.236H1635.61C1637.55 248.236 1639.16 246.629 1639.16 244.683V194.469H1640.81Z" fill="#030303"/>
<path d="M1506.5 236.157C1506.29 236.157 1506.08 236.051 1505.97 235.84L1494.78 214.984C1494.63 214.688 1494.74 214.328 1495.01 214.18C1495.31 214.032 1495.67 214.138 1495.81 214.413L1507.01 235.268C1507.16 235.565 1507.05 235.924 1506.77 236.072C1506.69 236.115 1506.58 236.136 1506.5 236.136V236.157Z" fill="#030303"/>
<path d="M1499.52 233.534C1499.31 233.534 1499.09 233.428 1498.99 233.217L1494.35 224.566C1494.21 224.27 1494.31 223.931 1494.61 223.762C1494.88 223.614 1495.24 223.699 1495.41 224.016L1500.05 232.667C1500.19 232.963 1500.09 233.301 1499.79 233.471C1499.71 233.513 1499.6 233.534 1499.52 233.534Z" fill="#030303"/>
<path d="M1555.84 298.259C1555.84 298.449 1555.84 298.682 1555.8 298.872C1555.52 310.929 1545.62 320.68 1533.43 320.68C1521.25 320.68 1511.39 310.929 1511.11 298.872C1511.07 298.682 1511.07 298.449 1511.07 298.259C1511.07 297.878 1511.07 297.54 1511.11 297.223C1511.64 285.314 1521.42 275.859 1533.43 275.859C1545.45 275.859 1555.29 285.314 1555.8 297.223C1555.84 297.561 1555.84 297.878 1555.84 298.259Z" fill="#030303"/>
<path d="M1533.48 310.906C1540.48 310.906 1546.15 305.234 1546.15 298.236C1546.15 291.239 1540.48 285.566 1533.48 285.566C1526.48 285.566 1520.8 291.239 1520.8 298.236C1520.8 305.234 1526.48 310.906 1533.48 310.906Z" fill="#FCFCFC"/>
</g>
<defs>
<clipPath id="clip0_4338_21341">
<rect width="1536" height="371" fill="white"/>
</clipPath>
</defs>
</svg>
