<svg width="72" height="72" viewBox="0 0 72 72" fill="none" xmlns="http://www.w3.org/2000/svg">
<path d="M35.9468 71.9953C33.9697 71.9953 32.2778 71.292 30.8711 69.8852C29.4644 68.4785 28.7598 66.7854 28.7574 64.806V11.8743C28.7574 10.4365 29.1468 9.13278 29.9257 7.96332C30.7045 6.79385 31.753 5.91075 33.071 5.31404L43.8551 0.640956C46.2515 -0.377536 48.5281 -0.182225 50.685 1.22689C52.8418 2.636 53.9202 4.65741 53.9202 7.29111H64.7042C66.6813 7.29111 68.3744 7.99567 69.7835 9.40478C71.1926 10.8139 71.896 12.5058 71.8936 14.4805V64.806C71.8936 66.783 71.1902 68.4761 69.7835 69.8852C68.3768 71.2944 66.6837 71.9977 64.7042 71.9953H35.9468ZM35.9468 61.1214L46.7308 56.4483V7.29111L35.9468 11.9642V61.1214ZM45.5625 64.806H64.7042V14.4805H53.9202V56.4483C53.9202 57.8862 53.5307 59.2198 52.7519 60.4492C51.973 61.6786 50.9246 62.5617 49.6066 63.0985L45.5625 64.806ZM0 14.4805V7.29111H7.18936V14.4805H0ZM0 71.9953V64.806H7.18936V71.9953H0ZM0 57.6166V50.4272H7.18936V57.6166H0ZM0 43.2379V36.0485H7.18936V43.2379H0ZM0 28.8592V21.6698H7.18936V28.8592H0ZM14.3787 14.4805V7.29111H21.5681V14.4805H14.3787ZM14.3787 71.9953V64.806H21.5681V71.9953H14.3787Z" fill="#4F4F4F"/>
<path fill-rule="evenodd" clip-rule="evenodd" d="M0 7.29111V14.4805H7.18936V7.29111H0ZM0 64.806V71.9953H7.18936V64.806H0ZM0 50.4272V57.6166H7.18936V50.4272H0ZM0 36.0485V43.2379H7.18936V36.0485H0ZM0 21.6698V28.8592H7.18936V21.6698H0ZM14.3787 7.29111V14.4805H21.5681V7.29111H14.3787ZM14.3787 64.806V71.9953H21.5681V64.806H14.3787Z" fill="#E0AD49"/>
</svg>
