<svg width="797" height="445" viewBox="0 0 797 445" fill="none" xmlns="http://www.w3.org/2000/svg">
<path d="M396.707 164.094C397.828 163.408 399.238 163.408 400.359 164.094L550.203 255.734C553.218 257.578 551.911 262.22 548.376 262.22H248.689C245.155 262.22 243.848 257.578 246.863 255.734L396.707 164.094Z" stroke="#888888" stroke-width="3"/>
<rect x="1.5" y="254.5" width="794" height="189" rx="5.5" fill="#FCFCFC" stroke="#888888" stroke-width="3"/>
<path d="M399.432 172.31C398.1 172.31 396.871 172.208 395.744 172.054C385.5 170.363 361.633 163.547 361.018 136.438C360.506 113.274 371.006 106.099 381.198 99.0786C382.427 98.2074 383.708 97.3362 384.937 96.465C395.232 89.0342 395.027 68.8941 395.027 68.6891V2.49961C395.027 1.37217 395.898 0.500977 397.025 0.500977C398.151 0.500977 399.022 1.37217 399.022 2.49961V68.6379C399.022 69.5091 399.33 91.0328 387.293 99.6936C386.013 100.616 384.732 101.487 383.452 102.358C373.311 109.328 364.552 115.324 365.013 136.284C365.576 160.421 387.139 166.571 396.41 168.057C401.583 168.877 412.39 167.442 420.893 159.96C428.883 152.939 432.775 142.639 432.314 129.468C432.314 128.341 433.134 127.418 434.261 127.418H434.312C435.388 127.418 436.258 128.289 436.31 129.366C436.873 147.353 429.651 157.602 423.505 162.983C415.976 169.594 406.449 172.31 399.381 172.31H399.432Z" fill="#888888"/>
</svg>
