<svg width="797" height="697" viewBox="0 0 797 697" fill="none" xmlns="http://www.w3.org/2000/svg">
    <path
        d="M400.359 163.593L550.203 255.233C553.218 257.077 551.911 261.719 548.376 261.719H248.689C245.155 261.719 243.848 257.077 246.863 255.233L396.707 163.593C397.828 162.907 399.238 162.907 400.359 163.593Z"
        stroke="#888888" stroke-width="3" />
    <rect x="1.5" y="253.999" width="794" height="189" rx="5.5" fill="#FCFCFC" stroke="#888888"
        stroke-width="3" />
    <path
        d="M399.432 171.809C398.1 171.809 396.871 171.707 395.744 171.553C385.5 169.862 361.633 163.046 361.018 135.937C360.506 112.773 371.006 105.598 381.198 98.5776C382.427 97.7064 383.708 96.8352 384.937 95.964C395.232 88.5332 395.027 68.3931 395.027 68.1881V1.99863C395.027 0.871195 395.898 0 397.025 0C398.151 0 399.022 0.871195 399.022 1.99863V68.1369C399.022 69.0081 399.33 90.5318 387.293 99.1926C386.013 100.115 384.732 100.986 383.452 101.857C373.311 108.827 364.552 114.823 365.013 135.783C365.576 159.92 387.139 166.07 396.41 167.556C401.583 168.376 412.39 166.941 420.893 159.459C428.883 152.438 432.775 142.138 432.314 128.967C432.314 127.84 433.134 126.917 434.261 126.917H434.312C435.388 126.917 436.258 127.788 436.31 128.865C436.873 146.852 429.651 157.102 423.505 162.482C415.976 169.093 406.449 171.809 399.381 171.809H399.432Z"
        fill="#888888" />
</svg>
    