<svg width="59" height="59" viewBox="0 0 59 59" fill="none" xmlns="http://www.w3.org/2000/svg">
<path d="M20.084 10.5C19.5317 10.5 19.084 10.9477 19.084 11.5V30.0574C19.084 30.6097 19.5317 31.0574 20.084 31.0574H21.8151C22.3674 31.0574 22.8151 30.6097 22.8151 30.0574V15.2377C22.8151 14.6854 23.2628 14.2377 23.8151 14.2377H33.3193C33.8716 14.2377 34.3193 14.6854 34.3193 15.2377V25.0738C34.3193 25.6261 34.767 26.0738 35.3193 26.0738H37.0504C37.6027 26.0738 38.0504 25.6261 38.0504 25.0738V11.5C38.0504 10.9477 37.6027 10.5 37.0504 10.5H20.084ZM20.084 44.7623C19.5317 44.7623 19.084 45.21 19.084 45.7623V47.5C19.084 48.0523 19.5317 48.5 20.084 48.5H37.0504C37.6027 48.5 38.0504 48.0523 38.0504 47.5V45.7623C38.0504 45.21 37.6027 44.7623 37.0504 44.7623H20.084Z" fill="black"/>
<path d="M35.319 22.3361C34.7667 22.3361 34.319 22.7838 34.319 23.3361V25.0738C34.319 25.626 34.7667 26.0738 35.319 26.0738H43.2686C43.8208 26.0738 44.2686 26.5215 44.2686 27.0738V43.7623C44.2686 44.3146 43.8208 44.7623 43.2686 44.7623H31.5879C31.0356 44.7623 30.5879 45.21 30.5879 45.7623V47.5C30.5879 48.0523 31.0356 48.5 31.5879 48.5H46.9997C47.5519 48.5 47.9997 48.0523 47.9997 47.5V23.3361C47.9997 22.7838 47.5519 22.3361 46.9997 22.3361H35.319Z" fill="black"/>
<path d="M15.7311 44.7623C15.1788 44.7623 14.7311 44.3146 14.7311 43.7623V32.0574C14.7311 31.5051 15.1788 31.0574 15.7311 31.0574H21.8151C22.3674 31.0574 22.8151 30.6097 22.8151 30.0574V28.3197C22.8151 27.7674 22.3674 27.3197 21.8151 27.3197H12C11.4477 27.3197 11 27.7674 11 28.3197V47.5C11 48.0523 11.4477 48.5 12 48.5H28.0336C28.5859 48.5 29.0336 48.0523 29.0336 47.5V45.7623C29.0336 45.21 28.5859 44.7623 28.0336 44.7623H15.7311Z" fill="black"/>
<path d="M22.7676 34.588C22.3237 34.588 22.0999 35.1234 22.4118 35.4393L29.1441 42.2575C29.3398 42.4558 29.6599 42.4558 29.8557 42.2575L36.5879 35.4393C36.8998 35.1234 36.676 34.588 36.2321 34.588H32.9724C32.6963 34.588 32.4724 34.3641 32.4724 34.088V29.0656C32.4724 28.7894 32.2485 28.5656 31.9724 28.5656H27.0273C26.7512 28.5656 26.5273 28.7894 26.5273 29.0656V34.088C26.5273 34.3641 26.3035 34.588 26.0273 34.588H22.7676Z" fill="black"/>
</svg>
