  <svg
    width="1535"
    height="492"
    viewBox="0 0 1535 492"
    fill="none"
    xmlns="http://www.w3.org/2000/svg"
  >
    <g opacity="0.7">
      <path
        d="M853 302.691H965.611V451.728C961.588 451.728 977.903 451.733 853 451.728"
        fill="#92C99F"
      />
      <path
        d="M921.715 298.95V140.107H1044.24V238.585V451.732H1020.49C1007.38 451.709 985.427 451.732 969.355 451.732V298.95H921.715Z"
        fill="#CE6224"
      />
      <path
        d="M856.739 451.733H854.869V298.951H969.35V451.733H967.48L967.521 300.835H856.739V451.733Z"
        fill="black"
      />
      <path
        d="M917.971 298.951V136.367H1042.36V452H1040.51V138.238H919.831L919.84 298.951H917.971Z"
        fill="#020303"
      />
      <path d="M1143.7 187.48H1035.27V396.886H1143.7" fill="#DEAC49" />
      <path d="M1085.6 231.27H1104.68V213.173H1085.6V231.27Z" fill="#020303" />
      <path
        d="M1060.53 255.059H1079.61V236.962H1060.53V255.059Z"
        fill="#020303"
      />
      <path
        d="M1060.53 231.279H1079.61V213.183H1060.53V231.279Z"
        fill="#020303"
      />
      <path
        d="M1085.6 255.059H1104.68V236.962H1085.6V255.059Z"
        fill="#020303"
      />
      <path
        d="M1033.4 396.889H1031.53V183.742H1141.83V396.889H1140.04L1139.96 185.617L1033.48 185.613L1033.4 396.889Z"
        fill="#020303"
      />
      <path
        d="M948.07 197.396H971.549V175.127H948.07V197.396Z"
        fill="#020303"
      />
      <path
        d="M915.248 345.93H936.785V325.499H915.248V345.93Z"
        fill="#020303"
      />
      <path
        d="M883.162 345.93H904.699V325.499H883.162V345.93Z"
        fill="#020303"
      />
      <path
        d="M948.204 239.248H971.683V216.979H948.204V239.248Z"
        fill="#020303"
      />
      <g clip-path="url(#clip0_2690_19355)">
        <path
          d="M1448.54 93.8188H1038.46C1037.65 93.8188 1037 93.1655 1037 92.3606V54.3019C1037 53.497 1037.65 52.8438 1038.46 52.8438H1448.54C1449.35 52.8438 1450 53.497 1450 54.3019V92.3606C1450 93.1655 1449.35 93.8188 1448.54 93.8188ZM1039.92 90.9024H1447.08V55.7601H1039.92V90.9024Z"
          fill="#030303"
        />
        <path
          d="M1380.44 114.584H1284.35C1283.55 114.584 1282.9 113.931 1282.9 113.126V34.3137C1282.9 33.5087 1283.55 32.8555 1284.35 32.8555H1380.44C1381.24 32.8555 1381.89 33.5087 1381.89 34.3137V113.126C1381.89 113.931 1381.24 114.584 1380.44 114.584ZM1285.81 111.668H1378.98V35.7718H1285.81V111.668Z"
          fill="#030303"
        />
        <path
          d="M1447.82 328.944H1391.12C1390.32 328.944 1389.67 328.291 1389.67 327.486V254.466C1389.67 253.661 1390.32 253.008 1391.12 253.008H1447.82C1448.62 253.008 1449.28 253.661 1449.28 254.466V327.486C1449.28 328.291 1448.62 328.944 1447.82 328.944ZM1392.58 326.028H1446.36V255.924H1392.58V326.028Z"
          fill="#030303"
        />
        <path
          d="M1421.43 91.7949H1418.51V255.526H1421.43V91.7949Z"
          fill="#030303"
        />
        <path
          d="M1367.17 452.784L1294.1 452.662C1293.32 452.662 1292.68 452.044 1292.65 451.262L1291.21 416.499C1291.19 416.102 1291.34 415.717 1291.61 415.432C1291.89 415.146 1292.27 414.982 1292.66 414.982H1369.17C1369.57 414.982 1369.96 415.146 1370.23 415.437C1370.51 415.729 1370.65 416.12 1370.63 416.522L1368.62 451.414C1368.58 452.184 1367.94 452.79 1367.17 452.79V452.784ZM1295.5 449.746L1365.79 449.868L1367.63 417.899H1294.18L1295.5 449.751V449.746Z"
          fill="#030303"
        />
        <path
          d="M1303.19 112.625H1300.27V416.505H1303.19V112.625Z"
          fill="#030303"
        />
        <path
          d="M1361.6 113.154H1358.69V416.941H1361.6V113.154Z"
          fill="#030303"
        />
        <path
          d="M1358.62 400.29L1300.91 363.655C1300.45 363.363 1300.19 362.838 1300.24 362.296C1300.28 361.753 1300.63 361.281 1301.14 361.076L1356.71 338.533L1301 308.634C1300.51 308.372 1300.21 307.858 1300.23 307.299C1300.24 306.744 1300.58 306.249 1301.08 306.021L1355.96 281.08L1301.32 254.512C1300.82 254.267 1300.49 253.742 1300.5 253.177C1300.51 252.611 1300.84 252.103 1301.36 251.87L1355.57 227.565L1301.54 201.767C1301.04 201.528 1300.72 201.014 1300.72 200.454C1300.72 199.894 1301.03 199.381 1301.54 199.136L1354.83 173.215L1302.31 147.481C1301.82 147.236 1301.5 146.741 1301.5 146.186C1301.5 145.638 1301.79 145.131 1302.28 144.874L1358.97 115.588L1360.3 118.178L1306.2 146.134L1358.79 171.903C1359.29 172.148 1359.61 172.655 1359.61 173.215C1359.61 173.775 1359.29 174.283 1358.79 174.522L1305.53 200.425L1359.68 226.276C1360.19 226.521 1360.51 227.04 1360.51 227.612C1360.5 228.177 1360.16 228.691 1359.64 228.924L1305.4 253.241L1360.02 279.803C1360.53 280.048 1360.85 280.567 1360.84 281.133C1360.84 281.699 1360.51 282.206 1359.99 282.439L1304.96 307.444L1360.82 337.419C1361.31 337.687 1361.61 338.218 1361.58 338.784C1361.54 339.35 1361.19 339.845 1360.67 340.055L1304.84 362.704L1360.16 397.823L1358.6 400.284L1358.62 400.29Z"
          fill="#030303"
        />
        <path
          d="M1322.3 113.732L1319.6 112.635L1332.86 79.861V33.5781H1335.77V80.1526C1335.77 80.3392 1335.74 80.5259 1335.67 80.7009L1322.31 113.738L1322.3 113.732Z"
          fill="#030303"
        />
        <path
          d="M1358.98 35.8538L1331.17 3.75038L1306.1 35.5855L1303.81 33.7832L1329.96 0.559873C1330.23 0.215741 1330.64 0.0174275 1331.08 0.00576201C1331.52 -0.017569 1331.93 0.180744 1332.22 0.507378L1361.19 33.9465L1358.98 35.8596V35.8538Z"
          fill="#030303"
        />
        <path
          d="M1085.2 190.965C1084.64 190.965 1084.12 190.924 1083.65 190.848C1079.42 190.16 1069.57 187.337 1069.32 176.08C1069.1 166.537 1073.42 163.574 1077.6 160.71C1078.09 160.372 1078.59 160.034 1079.08 159.684C1082.88 156.942 1082.8 149.301 1082.79 149.226V93.1379C1082.79 92.333 1083.44 91.6797 1084.25 91.6797C1085.05 91.6797 1085.71 92.333 1085.71 93.1379V149.196C1085.71 149.546 1085.82 158.412 1080.78 162.046C1080.27 162.413 1079.76 162.763 1079.25 163.113C1075.39 165.761 1072.05 168.048 1072.23 176.01C1072.42 184.759 1079.75 187.255 1084.11 187.967C1086.04 188.282 1090.07 187.722 1093.28 184.904C1096.3 182.251 1097.75 178.354 1097.59 173.332C1097.57 172.527 1098.2 171.851 1099 171.827C1099.02 171.827 1099.03 171.827 1099.05 171.827C1099.83 171.827 1100.48 172.452 1100.51 173.239C1100.74 180.635 1097.75 184.858 1095.2 187.098C1092.08 189.845 1088.13 190.965 1085.19 190.965H1085.2Z"
          fill="#030303"
        />
      </g>
      <path
        d="M189.044 355.928C175.28 355.928 164.088 344.732 164.088 330.964C164.088 317.196 175.28 306 189.044 306C202.807 306 214 317.196 214 330.964C214 344.732 202.807 355.928 189.044 355.928ZM189.044 306.996C175.822 306.996 165.084 317.751 165.084 330.964C165.084 344.177 175.835 354.932 189.044 354.932C202.253 354.932 213.004 344.177 213.004 330.964C213.004 317.751 202.253 306.996 189.044 306.996Z"
        fill="#030303"
      />
      <path
        d="M189.044 331.986C188.93 331.986 188.817 331.948 188.729 331.872L178.62 323.286C178.418 323.11 178.381 322.794 178.557 322.593C178.734 322.378 179.049 322.366 179.25 322.53L189.359 331.116C189.56 331.292 189.598 331.608 189.422 331.809C189.321 331.923 189.182 331.986 189.044 331.986Z"
        fill="#030303"
      />
      <path
        d="M189.057 340.258C188.943 340.258 188.83 340.22 188.741 340.144C188.527 339.968 188.502 339.653 188.678 339.451L200.072 325.897C200.249 325.695 200.564 325.67 200.766 325.834C200.98 326.011 201.005 326.326 200.829 326.528L189.435 340.081C189.334 340.195 189.195 340.258 189.057 340.258Z"
        fill="#030303"
      />
      <path
        d="M188.83 345.717C188.729 345.717 188.628 345.692 188.54 345.616L181.141 340.106C180.927 339.942 180.877 339.627 181.04 339.413C181.204 339.198 181.519 339.148 181.734 339.312L189.132 344.822C189.346 344.986 189.397 345.301 189.233 345.515C189.132 345.641 188.994 345.717 188.842 345.717H188.83Z"
        fill="#030303"
      />
      <path
        d="M188.552 453.591V316.767C188.552 316.49 188.766 316.275 189.031 316.275C189.295 316.275 189.522 316.49 189.522 316.767V453.565"
        fill="#030303"
      />
      <path
        d="M104.861 368.966C92.2067 368.966 81.9092 358.665 81.9092 346.006C81.9092 333.348 92.2067 323.047 104.861 323.047C117.515 323.047 127.813 333.348 127.813 346.006C127.813 358.665 117.515 368.966 104.861 368.966ZM104.861 323.967C92.7108 323.967 82.8167 333.852 82.8167 346.019C82.8167 358.186 92.6982 368.071 104.861 368.071C117.024 368.071 126.905 358.186 126.905 346.019C126.905 333.852 117.024 323.967 104.861 323.967Z"
        fill="#030303"
      />
      <path
        d="M104.861 348.654C104.748 348.654 104.634 348.616 104.546 348.54L94.4375 339.954C94.2359 339.778 94.1981 339.462 94.3745 339.261C94.551 339.046 94.8661 339.034 95.0677 339.198L105.176 347.784C105.378 347.96 105.416 348.276 105.239 348.477C105.138 348.591 105 348.654 104.861 348.654Z"
        fill="#030303"
      />
      <path
        d="M104.874 356.924C104.76 356.924 104.647 356.886 104.559 356.81C104.345 356.634 104.319 356.319 104.496 356.117L115.89 342.563C116.066 342.361 116.381 342.336 116.583 342.5C116.797 342.677 116.823 342.992 116.646 343.194L105.252 356.747C105.151 356.861 105.013 356.924 104.874 356.924Z"
        fill="#030303"
      />
      <path
        d="M104.659 362.396C104.558 362.396 104.457 362.371 104.369 362.296L96.9703 356.786C96.756 356.622 96.7056 356.307 96.8695 356.092C97.0333 355.878 97.3484 355.828 97.5627 355.992L104.961 361.501C105.176 361.665 105.226 361.98 105.062 362.195C104.961 362.321 104.823 362.396 104.671 362.396H104.659Z"
        fill="#030303"
      />
      <path
        d="M104.357 453.618V335.959C104.357 335.681 104.584 335.467 104.862 335.467C105.139 335.467 105.353 335.681 105.353 335.959V453.58"
        fill="#030303"
      />
      <path
        d="M146.518 351.895C146.518 352.008 146.48 352.122 146.404 352.21C146.303 352.323 146.165 352.386 146.026 352.386C145.913 352.386 145.799 352.349 145.698 352.26L145.534 352.122L135.59 343.674C135.388 343.498 135.35 343.182 135.527 342.981C135.716 342.766 136.018 342.741 136.233 342.918L145.534 350.836L146.341 351.516C146.455 351.617 146.518 351.756 146.518 351.895Z"
        fill="#030303"
      />
      <path
        d="M157.811 346.926L146.518 360.354L146.417 360.48C146.329 360.594 146.177 360.657 146.039 360.657C145.925 360.657 145.812 360.619 145.724 360.543C145.522 360.367 145.484 360.051 145.661 359.85L146.518 358.828L157.067 346.296C157.244 346.082 157.559 346.069 157.761 346.233C157.962 346.409 157.987 346.725 157.811 346.926Z"
        fill="#030303"
      />
      <path
        d="M146.214 365.927C146.114 366.053 145.962 366.116 145.811 366.116C145.71 366.116 145.622 366.091 145.534 366.028H145.521L138.123 360.518C137.908 360.354 137.858 360.039 138.022 359.825C138.186 359.611 138.501 359.56 138.715 359.724L145.534 364.805L146.114 365.234C146.328 365.398 146.378 365.7 146.214 365.927Z"
        fill="#030303"
      />
      <path
        d="M146.517 341.771V453.466C146.517 453.744 146.29 453.958 146.026 453.958C145.748 453.958 145.534 453.744 145.534 453.466V341.771C145.534 341.506 145.748 341.279 146.026 341.279C146.303 341.279 146.517 341.506 146.517 341.771Z"
        fill="#030303"
      />
      <path
        d="M164.428 354.819C162.928 352.31 161.239 349.398 161.125 344.947C161.062 342.614 161.466 340.774 161.806 339.172C162.361 336.638 162.814 334.47 161.516 331.393C160.281 328.405 158.163 326.577 157.18 325.669C153.55 322.517 149.567 320.992 145.37 321.08C144.11 321.105 137.631 321.496 133.434 326.69C131.178 329.426 130.523 332.301 130.334 333.373C129.565 336.726 130.182 338.782 130.838 340.975C131.292 342.501 131.733 344.077 131.846 346.246C132.023 350.419 130.611 353.13 129.262 355.714C127.788 358.539 126.414 361.211 127.372 365.36C128.078 368.423 129.489 370.97 131.569 372.912C135.312 376.379 140.051 376.682 144.11 376.682H145.572C145.887 376.682 146.164 376.682 146.479 376.656H146.517C150.488 376.568 156.399 376.19 161.352 371.752C162.562 370.655 165.436 368.121 166.482 363.998C167.516 360.14 166.003 357.555 164.428 354.819ZM165.6 363.746C164.591 367.616 161.882 370.037 160.735 371.084C156.033 375.295 150.374 375.673 146.517 375.723H146.479C146.164 375.761 145.887 375.761 145.572 375.761H145.459C141.098 375.812 136.106 375.837 132.212 372.231C130.271 370.403 128.922 368.032 128.267 365.158C127.372 361.35 128.607 358.929 130.069 356.143C131.43 353.546 132.955 350.646 132.754 346.195C132.665 343.913 132.161 342.211 131.708 340.723C131.09 338.555 130.523 336.689 131.229 333.562C131.43 332.515 132.023 329.842 134.128 327.283C138.11 322.404 144.186 322.038 145.408 322.013H145.711C149.567 322.013 153.235 323.475 156.563 326.375C157.495 327.22 159.487 328.972 160.672 331.759C161.856 334.545 161.44 336.5 160.898 338.971C160.558 340.522 160.218 342.299 160.218 344.506V344.985C160.331 349.688 162.058 352.651 163.608 355.298C165.184 357.971 166.507 360.278 165.6 363.746Z"
        fill="#030303"
      />
      <path
        d="M165.6 363.747C164.591 367.617 161.881 370.038 160.734 371.085C156.033 375.296 150.374 375.674 146.517 375.724V360.355L157.81 346.927C157.987 346.726 157.962 346.41 157.76 346.234C157.558 346.07 157.243 346.083 157.067 346.297L146.517 358.829V341.771C146.517 341.506 146.29 341.279 146.026 341.279C145.748 341.279 145.534 341.506 145.534 341.771V350.836L136.232 342.918C136.018 342.741 135.716 342.767 135.526 342.981C135.35 343.183 135.388 343.498 135.589 343.674L145.534 352.122V364.806L138.715 359.725C138.501 359.561 138.186 359.611 138.022 359.825C137.858 360.04 137.909 360.355 138.123 360.519L145.521 366.029H145.534V375.762H145.458C141.097 375.813 136.106 375.838 132.212 372.232C130.271 370.404 128.922 368.033 128.267 365.159C127.372 361.351 128.607 358.93 130.069 356.144C131.43 353.547 132.955 350.647 132.754 346.196C132.665 343.914 132.161 342.212 131.707 340.724C131.09 338.556 130.523 336.69 131.229 333.563C131.43 332.516 132.023 329.843 134.127 327.284C138.11 322.405 144.185 322.039 145.408 322.014H145.71C149.567 322.014 153.235 323.476 156.563 326.376C157.495 327.221 159.487 328.973 160.671 331.76C161.856 334.546 161.44 336.5 160.898 338.972C160.558 340.522 160.218 342.3 160.218 344.507V344.986C160.331 349.689 162.058 352.651 163.608 355.299C165.184 357.972 166.507 360.279 165.6 363.747Z"
        fill="#CE6326"
      />
      <path
        d="M77.3723 341.076C75.8724 338.567 74.1835 335.667 74.07 331.217C74.0196 328.871 74.4104 327.043 74.7507 325.442C75.3178 322.908 75.759 320.739 74.4734 317.663C73.2382 314.675 71.1207 312.846 70.1376 311.939C66.5076 308.787 62.5248 307.261 58.3276 307.349C57.0546 307.375 50.5762 307.778 46.379 312.96C44.1229 315.696 43.4801 318.571 43.2785 319.642C42.5222 322.996 43.1398 325.051 43.7826 327.258C44.2364 328.783 44.6901 330.359 44.8035 332.528C44.9674 336.701 43.5683 339.399 42.2071 341.996C40.745 344.821 39.3586 347.494 40.3165 351.642C41.0223 354.718 42.434 357.252 44.5136 359.194C48.257 362.661 52.9961 362.976 57.0546 362.976H58.9704C59.1091 362.976 59.2855 362.951 59.4242 362.951C63.3945 362.863 69.3435 362.497 74.2969 358.047C75.5069 356.95 78.3806 354.416 79.4268 350.293C80.4729 346.435 78.9478 343.837 77.3723 341.101V341.076ZM78.5571 350.015C77.5488 353.873 74.8389 356.307 73.6793 357.341C68.978 361.564 63.281 361.93 59.4242 361.993C59.2855 362.018 59.1091 362.018 58.9704 362.018H58.4033C54.0297 362.069 49.0511 362.106 45.1565 358.501C43.2154 356.672 41.8542 354.302 41.2114 351.427C40.3165 347.62 41.5517 345.199 43.0138 342.413C44.3624 339.815 45.8875 336.915 45.6858 332.465C45.5976 330.183 45.0934 328.493 44.6397 326.993C44.0221 324.824 43.4549 322.958 44.1607 319.831C44.3624 318.785 44.9548 316.112 47.0597 313.54C51.0299 308.661 57.1177 308.295 58.3276 308.27H58.6427C62.4996 308.27 66.1673 309.732 69.4948 312.632C70.4275 313.477 72.4189 315.229 73.6037 318.016C74.7885 320.802 74.3599 322.756 73.8306 325.228C73.4903 326.778 73.15 328.556 73.15 330.75V331.229C73.2634 335.932 74.9775 338.895 76.5278 341.543C78.1033 344.216 79.4268 346.535 78.5319 350.003L78.5571 350.015Z"
        fill="#030303"
      />
      <path
        d="M78.5566 350.017C77.5483 353.875 74.8384 356.308 73.6788 357.342C68.9775 361.566 63.2805 361.932 59.4237 361.995C59.2851 362.02 59.1086 362.02 58.9699 362.02H58.4028C54.0292 362.07 49.0506 362.108 45.156 358.502C43.2149 356.674 41.8537 354.304 41.2109 351.429C40.316 347.621 41.5512 345.201 43.0133 342.414C44.3619 339.817 45.887 336.917 45.6853 332.467C45.5971 330.184 45.0929 328.495 44.6392 326.995C44.0216 324.826 43.4544 322.96 44.1602 319.833C44.3619 318.787 44.9543 316.114 47.0592 313.542C51.0294 308.662 57.1172 308.297 58.3271 308.271H58.6422C62.4991 308.271 66.1668 309.734 69.4943 312.634C70.427 313.479 72.4184 315.231 73.6032 318.018C74.788 320.804 74.3594 322.758 73.8301 325.229C73.4898 326.78 73.1495 328.558 73.1495 330.752V331.231C73.2629 335.934 74.977 338.897 76.5273 341.544C78.1028 344.217 79.4263 346.537 78.5314 350.004L78.5566 350.017Z"
        fill="#CE6326"
      />
      <path
        d="M58.9831 338.631C58.8697 338.631 58.7562 338.593 58.668 338.518L48.5596 329.919C48.3579 329.742 48.3201 329.427 48.4966 329.225C48.673 329.024 48.9881 328.998 49.1898 329.162L59.2982 337.761C59.4999 337.938 59.5377 338.253 59.3612 338.454C59.2604 338.568 59.1218 338.631 58.9831 338.631Z"
        fill="#030303"
      />
      <path
        d="M58.995 346.9C58.8816 346.9 58.7681 346.862 58.6799 346.786C58.4656 346.61 58.4404 346.295 58.6169 346.093L70.0109 332.552C70.1874 332.337 70.5025 332.325 70.7041 332.489C70.9184 332.665 70.9436 332.98 70.7671 333.182L59.3731 346.723C59.2723 346.837 59.1336 346.9 58.995 346.9Z"
        fill="#030303"
      />
      <path
        d="M58.7691 352.373C58.6683 352.373 58.5674 352.348 58.4792 352.272L51.0806 346.762C50.8664 346.599 50.816 346.283 50.9798 346.069C51.1437 345.855 51.4588 345.804 51.673 345.968L59.0716 351.478C59.2859 351.642 59.3363 351.957 59.1724 352.171C59.0716 352.297 58.933 352.373 58.7817 352.373H58.7691Z"
        fill="#030303"
      />
      <path
        d="M58.9828 453.956C58.7055 453.956 58.4912 453.742 58.4912 453.464V323.248C58.4912 322.97 58.7055 322.756 58.9828 322.756C59.2601 322.756 59.4743 322.97 59.4743 323.248V453.464C59.4743 453.742 59.2601 453.956 58.9828 453.956Z"
        fill="#030303"
      />
      <path
        d="M1600.53 454.04H-59.1363C-59.6015 454.04 -59.9609 453.681 -59.9609 453.216C-59.9609 452.75 -59.6015 452.391 -59.1363 452.391H1600.55C1601.02 452.391 1601.38 452.75 1601.38 453.216C1601.38 453.681 1601.02 454.04 1600.55 454.04H1600.53Z"
        fill="#030303"
      />
      <path
        d="M256.998 471.744H13.8979C13.4327 471.744 13.0732 471.384 13.0732 470.919C13.0732 470.453 13.4327 470.094 13.8979 470.094H256.998C257.464 470.094 257.823 470.453 257.823 470.919C257.823 471.384 257.464 471.744 256.998 471.744Z"
        fill="#030303"
      />
      <path
        d="M669.806 471.597H426.706C426.24 471.597 425.881 471.238 425.881 470.772C425.881 470.307 426.24 469.947 426.706 469.947H669.806C670.271 469.947 670.631 470.307 670.631 470.772C670.631 471.238 670.271 471.597 669.806 471.597Z"
        fill="#030303"
      />
      <path
        d="M459.48 491.775H205.236C204.771 491.775 204.411 491.415 204.411 490.95C204.411 490.485 204.771 490.125 205.236 490.125H459.48C459.945 490.125 460.304 490.485 460.304 490.95C460.304 491.415 459.945 491.775 459.48 491.775Z"
        fill="#030303"
      />
      <path
        d="M1229.99 471.576H986.892C986.427 471.576 986.067 471.216 986.067 470.751C986.067 470.285 986.427 469.926 986.892 469.926H1229.99C1230.46 469.926 1230.82 470.285 1230.82 470.751C1230.82 471.216 1230.46 471.576 1229.99 471.576Z"
        fill="#030303"
      />
      <path
        d="M1160.68 491.669H863.407C862.942 491.669 862.582 491.31 862.582 490.844C862.582 490.379 862.942 490.02 863.407 490.02H1160.68C1161.15 490.02 1161.5 490.379 1161.5 490.844C1161.5 491.31 1161.15 491.669 1160.68 491.669Z"
        fill="#030303"
      />
      <path
        d="M1517.03 491.542H1219.76C1219.29 491.542 1218.93 491.183 1218.93 490.717C1218.93 490.252 1219.29 489.893 1219.76 489.893H1517.03C1517.5 489.893 1517.86 490.252 1517.86 490.717C1517.86 491.183 1517.5 491.542 1517.03 491.542Z"
        fill="#030303"
      />
      <path
        d="M354.048 452.894H297.132C295.553 452.894 294.021 452.54 292.696 451.865C289.629 450.307 288.505 447.687 289.534 444.49C290.201 442.406 291.321 441.031 292.864 440.399C294.207 439.848 295.589 439.98 296.603 440.231C295.159 437.823 292.554 432.612 293.958 428.24C294.783 425.682 296.848 423.828 300.098 422.734C309.476 419.581 314.215 421.358 316.079 422.54C316.119 421.256 316.476 419.172 318.121 417.362C320.474 414.775 324.603 413.673 330.389 414.078C336.313 414.494 340.53 416.198 342.915 419.146C344.451 421.04 344.841 422.996 344.918 424.193C346.355 423.164 349.343 421.402 352.589 421.723C354.836 421.945 356.784 423.128 358.385 425.237C361.38 429.182 358.973 434.79 358.01 436.677C359.451 437.031 362.704 438.082 364.503 440.633C365.604 442.195 365.973 444.052 365.59 446.147C365.225 448.161 363.748 449.858 361.198 451.186C359.057 452.303 356.583 452.894 354.048 452.894ZM294.885 441.074C294.352 441.074 293.794 441.158 293.254 441.381C292.018 441.892 291.106 443.045 290.537 444.815C289.661 447.537 290.548 449.595 293.174 450.927C294.352 451.526 295.72 451.839 297.132 451.839H354.048C356.412 451.839 358.717 451.292 360.709 450.252C362.952 449.084 364.244 447.639 364.55 445.961C364.878 444.154 364.572 442.567 363.642 441.246C361.592 438.334 357.167 437.575 357.123 437.568C356.952 437.538 356.806 437.429 356.729 437.268C356.656 437.111 356.664 436.925 356.755 436.776C356.795 436.71 360.683 430.014 357.543 425.872C356.127 424.007 354.424 422.964 352.483 422.77C348.5 422.376 344.761 425.646 344.724 425.678C344.56 425.824 344.32 425.854 344.126 425.748C343.933 425.642 343.823 425.427 343.853 425.208C343.853 425.182 344.203 422.394 342.08 419.785C339.884 417.088 335.926 415.519 330.319 415.125C324.87 414.742 321.029 415.731 318.906 418.066C316.702 420.486 317.177 423.544 317.18 423.577C317.22 423.81 317.1 424.04 316.885 424.139C316.673 424.241 316.418 424.186 316.261 424.011C316.224 423.971 312.227 419.763 300.433 423.73C297.519 424.711 295.68 426.332 294.965 428.554C293.269 433.82 298.27 440.866 298.321 440.939C298.463 441.136 298.453 441.41 298.292 441.593C298.132 441.779 297.865 441.83 297.65 441.717C297.632 441.709 296.37 441.067 294.889 441.067L294.885 441.074Z"
        fill="#030303"
      />
      <path
        d="M313.041 452.893C312.825 452.893 312.625 452.762 312.545 452.546L305.14 432.425C305.037 432.151 305.18 431.848 305.453 431.746C305.727 431.644 306.03 431.786 306.132 432.06L313.537 452.181C313.639 452.455 313.497 452.758 313.223 452.86C313.161 452.882 313.103 452.893 313.041 452.893Z"
        fill="#030303"
      />
      <path
        d="M308.025 439.264C307.963 439.264 307.898 439.253 307.836 439.228C307.562 439.122 307.431 438.815 307.537 438.545L311.491 428.386C311.597 428.116 311.903 427.981 312.173 428.087C312.446 428.193 312.578 428.499 312.472 428.769L308.518 438.929C308.438 439.137 308.237 439.264 308.025 439.264Z"
        fill="#030303"
      />
      <path
        d="M310.696 446.516C310.513 446.516 310.334 446.421 310.24 446.253C310.094 446.001 310.181 445.676 310.433 445.53L316.791 441.852C317.043 441.706 317.367 441.794 317.513 442.045C317.659 442.297 317.572 442.622 317.32 442.768L310.962 446.446C310.878 446.494 310.787 446.516 310.699 446.516H310.696Z"
        fill="#030303"
      />
      <path
        d="M329.236 452.463C329.028 452.463 328.827 452.339 328.747 452.131L321.63 434.331C321.601 434.258 321.59 434.181 321.593 434.104L322.024 426.55C322.042 426.259 322.287 426.032 322.582 426.054C322.874 426.072 323.096 426.321 323.078 426.613L322.655 434.046L329.728 451.737C329.837 452.007 329.706 452.314 329.432 452.423C329.367 452.449 329.301 452.46 329.236 452.46V452.463Z"
        fill="#030303"
      />
      <path
        d="M327.278 447.303C327.208 447.303 327.139 447.289 327.07 447.259C326.8 447.146 326.676 446.836 326.789 446.566L334.518 428.368C334.632 428.098 334.942 427.974 335.212 428.087C335.482 428.2 335.606 428.51 335.492 428.78L327.763 446.978C327.679 447.179 327.482 447.3 327.278 447.3V447.303Z"
        fill="#030303"
      />
      <path
        d="M331.677 436.947C331.472 436.947 331.279 436.826 331.191 436.629C331.075 436.363 331.199 436.049 331.465 435.936L338.301 432.962C338.567 432.845 338.881 432.969 338.994 433.236C339.111 433.502 338.987 433.816 338.72 433.929L331.885 436.903C331.815 436.932 331.746 436.947 331.673 436.947H331.677Z"
        fill="#030303"
      />
      <path
        d="M341.099 452.894C341.041 452.894 340.982 452.883 340.924 452.865C340.65 452.77 340.504 452.467 340.599 452.194L344.966 439.681L343.561 435.159C343.474 434.882 343.631 434.586 343.908 434.499C344.185 434.411 344.48 434.568 344.568 434.846L346.023 439.531C346.056 439.641 346.056 439.754 346.016 439.863L341.595 452.54C341.518 452.759 341.314 452.894 341.095 452.894H341.099Z"
        fill="#030303"
      />
      <path
        d="M343.309 446.909C343.075 446.909 342.86 446.752 342.798 446.512C342.725 446.231 342.897 445.942 343.177 445.869L349.054 444.359C349.339 444.286 349.623 444.457 349.696 444.738C349.769 445.019 349.597 445.307 349.317 445.38L343.44 446.891C343.396 446.902 343.353 446.909 343.309 446.909Z"
        fill="#030303"
      />
      <path
        d="M410.351 438.76C410.238 438.72 407.794 437.866 404.784 438.121C405.2 436.468 405.879 432.582 404 429.761C402.775 427.922 400.703 426.889 397.839 426.692C390.131 426.163 387.859 428.896 387.195 430.407C386.44 429.721 385.05 428.586 383.168 427.619C379.338 425.649 375.289 425.317 371.458 426.659C366.614 428.353 364.557 431.163 363.685 433.221C363.003 434.826 362.915 436.224 362.923 436.921C361.299 437.355 355.755 439.143 354.828 443.387C354.463 445.051 355.003 446.821 356.426 448.653C358.494 451.31 361.799 452.901 365.268 452.901H401.443C403.314 452.901 405.098 452.587 406.74 451.974C409.928 450.781 411.963 448.755 412.627 446.12C412.89 445.07 412.999 444.161 412.999 443.38C412.999 439.793 410.676 438.881 410.351 438.767V438.76ZM411.602 445.854C410.876 448.741 408.356 450.233 406.368 450.978C404.843 451.547 403.183 451.839 401.439 451.839H365.265C362.12 451.839 359.125 450.401 357.254 448C356.032 446.427 355.561 444.949 355.857 443.606C356.776 439.388 363.517 437.851 363.587 437.837C363.853 437.779 364.032 437.527 363.995 437.257C363.988 437.191 363.284 430.633 371.805 427.648C373.315 427.119 374.763 426.904 376.124 426.904C382.508 426.904 387.005 431.688 387.06 431.746C387.199 431.9 387.417 431.954 387.614 431.889C387.811 431.827 387.954 431.648 387.976 431.444C387.994 431.265 388.556 427.108 397.766 427.747C400.283 427.918 402.081 428.794 403.117 430.345C405.226 433.505 403.573 438.523 403.555 438.57C403.497 438.746 403.533 438.939 403.65 439.081C403.767 439.224 403.953 439.293 404.135 439.264C407.228 438.797 409.964 439.749 409.99 439.76C410.001 439.76 410.015 439.767 410.023 439.771C410.139 439.804 412.897 440.687 411.595 445.861L411.602 445.854Z"
        fill="#030303"
      />
      <path
        d="M411.602 445.854C410.876 448.741 408.355 450.233 406.367 450.978C404.842 451.547 403.182 451.839 401.439 451.839H388.285L389.16 446.387C389.164 446.369 389.168 446.35 389.168 446.332L389.967 441.347L398.218 436.447C398.47 436.297 398.55 435.972 398.4 435.72C398.251 435.469 397.926 435.388 397.678 435.538L390.185 439.986L391.138 434.06C391.185 433.772 390.988 433.502 390.7 433.454C390.415 433.407 390.142 433.604 390.094 433.892L388.281 445.201L384.655 441.72C384.448 441.515 384.112 441.526 383.911 441.734C383.707 441.946 383.714 442.278 383.926 442.482L388.081 446.467L387.22 451.835H374.905L373.533 447.23L378.316 433.615C378.414 433.341 378.268 433.038 377.991 432.94C377.717 432.841 377.415 432.987 377.32 433.265L373.019 445.508L370.991 438.713C370.907 438.435 370.612 438.275 370.334 438.359C370.053 438.443 369.897 438.738 369.977 439.016L373.803 451.835H365.268C362.123 451.835 359.128 450.397 357.257 447.996C356.035 446.423 355.565 444.946 355.86 443.603C356.779 439.384 363.52 437.848 363.59 437.833C363.856 437.775 364.035 437.523 363.998 437.253C363.991 437.187 363.287 430.63 371.808 427.645C373.318 427.116 374.766 426.9 376.127 426.9C382.511 426.9 387.008 431.684 387.063 431.743C387.202 431.896 387.42 431.951 387.617 431.885C387.814 431.823 387.957 431.644 387.979 431.44C387.997 431.261 388.559 427.105 397.769 427.743C400.286 427.915 402.084 428.791 403.12 430.342C405.229 433.502 403.576 438.519 403.558 438.567C403.5 438.742 403.536 438.935 403.653 439.078C403.77 439.22 403.956 439.289 404.138 439.26C407.232 438.793 409.967 439.745 409.993 439.756C410.004 439.756 410.018 439.764 410.026 439.767C410.142 439.8 412.9 440.683 411.598 445.858L411.602 445.854Z"
        fill="#CE6326"
      />
      <path
        d="M374.661 452.873C374.61 452.888 374.559 452.895 374.508 452.895C374.281 452.895 374.07 452.745 374.004 452.515L373.8 451.837L369.973 439.017C369.89 438.74 370.05 438.444 370.331 438.36C370.608 438.276 370.904 438.437 370.988 438.714L373.016 445.509L373.53 447.231L374.902 451.837L375.015 452.212C375.099 452.49 374.938 452.785 374.661 452.869V452.873Z"
        fill="#030303"
      />
      <path
        d="M378.317 433.618L373.534 447.233L373.48 447.39C373.403 447.609 373.199 447.744 372.98 447.744C372.922 447.744 372.863 447.733 372.805 447.711C372.531 447.616 372.385 447.313 372.48 447.04L373.02 445.511L377.321 433.268C377.416 432.994 377.718 432.848 377.992 432.943C378.269 433.042 378.411 433.341 378.317 433.618Z"
        fill="#030303"
      />
      <path
        d="M391.138 434.06L390.186 439.986L389.967 441.344L389.168 446.328C389.168 446.347 389.165 446.365 389.161 446.383L388.286 451.835L388.187 452.444C388.143 452.703 387.921 452.89 387.665 452.89C387.636 452.89 387.611 452.89 387.581 452.882C387.293 452.838 387.096 452.565 387.144 452.276L387.217 451.831L388.078 446.463L388.282 445.197L390.095 433.888C390.142 433.6 390.412 433.403 390.7 433.45C390.989 433.498 391.185 433.768 391.138 434.056V434.06Z"
        fill="#030303"
      />
      <path
        d="M389.169 446.333C389.169 446.351 389.165 446.369 389.161 446.387C389.143 446.482 389.096 446.573 389.023 446.65C388.921 446.76 388.782 446.814 388.643 446.814C388.512 446.814 388.381 446.767 388.279 446.665L388.078 446.471L383.923 442.486C383.712 442.282 383.704 441.95 383.909 441.738C384.109 441.53 384.445 441.519 384.653 441.724L388.279 445.205L389.008 445.902C389.128 446.019 389.183 446.179 389.169 446.333Z"
        fill="#030303"
      />
      <path
        d="M398.218 436.447L389.967 441.348L389.755 441.475C389.672 441.526 389.577 441.548 389.485 441.548C389.303 441.548 389.128 441.457 389.033 441.289C388.884 441.037 388.964 440.713 389.216 440.563L390.186 439.986L397.678 435.538C397.926 435.388 398.251 435.469 398.401 435.721C398.55 435.972 398.47 436.293 398.218 436.447Z"
        fill="#030303"
      />
      <path
        d="M301.244 443.304C301.01 440.713 300.033 438.892 298.344 437.885C295.648 436.283 291.931 437.25 290.301 437.809C290.388 436.385 290.333 433.546 288.798 431.634C287.893 430.503 286.616 429.875 285.008 429.77C280.612 429.478 277.942 431.999 276.749 433.514C275.724 430.091 272.368 429.065 271.883 428.934C271.438 428.74 268.443 427.609 263.909 430.018C260.294 431.937 260.338 437.232 260.597 439.79C259.707 439.177 258.747 438.878 257.741 438.9C255.045 438.951 252.984 441.264 252.885 441.374C249.974 444.852 250.77 448.767 253.002 450.683C255.333 452.686 259.502 452.778 259.543 452.778C271.832 452.876 281.517 452.894 287.269 452.894C290.924 452.894 292.993 452.887 293.12 452.887C293.357 452.894 296.925 452.898 299.296 450.354C300.857 448.676 301.514 446.304 301.244 443.301V443.304ZM298.53 449.628C296.465 451.854 293.171 451.829 293.135 451.829C293.131 451.829 293.128 451.829 293.124 451.829C293.051 451.829 289.119 451.847 282.286 451.832C281.907 451.832 281.52 451.832 281.126 451.832C279.175 451.829 277.012 451.821 274.655 451.811C274.283 451.811 273.904 451.811 273.517 451.807C271.515 451.8 269.384 451.789 267.134 451.774C266.783 451.774 266.433 451.77 266.076 451.767C263.996 451.756 261.819 451.738 259.553 451.719C259.517 451.719 255.705 451.61 253.692 449.88C251.842 448.293 251.218 445.008 253.692 442.06C253.71 442.038 255.541 439.991 257.766 439.954C257.788 439.954 257.81 439.954 257.828 439.954C258.933 439.954 259.977 440.465 260.925 441.469C261.089 441.637 261.341 441.68 261.549 441.575C261.757 441.469 261.87 441.235 261.826 441.005C261.811 440.929 260.349 433.109 264.405 430.956C268.717 428.664 271.453 429.901 271.474 429.912C271.511 429.93 271.547 429.945 271.587 429.952C271.748 429.989 275.534 430.923 275.954 434.904C275.979 435.137 276.151 435.324 276.381 435.367C276.61 435.411 276.84 435.298 276.95 435.09C276.972 435.043 279.412 430.456 284.938 430.824C286.241 430.912 287.258 431.404 287.973 432.295C289.757 434.513 289.177 438.484 289.17 438.524C289.141 438.714 289.217 438.903 289.367 439.024C289.52 439.141 289.724 439.166 289.899 439.09C289.947 439.068 294.798 437.01 297.804 438.798C299.186 439.622 299.989 441.17 300.19 443.403C300.434 446.089 299.872 448.183 298.526 449.632L298.53 449.628Z"
        fill="#030303"
      />
      <path
        d="M298.53 449.628C296.466 451.854 293.172 451.829 293.135 451.829C293.132 451.829 293.128 451.829 293.124 451.829C293.051 451.829 289.119 451.847 282.287 451.832L285.738 445.154L288.948 443.932C289.221 443.83 289.356 443.523 289.25 443.249C289.148 442.976 288.842 442.841 288.572 442.947L285.727 444.027L284.253 438.181C284.184 437.9 283.895 437.728 283.615 437.798C283.33 437.871 283.162 438.155 283.232 438.44L284.8 444.665L281.174 451.679C281.149 451.726 281.13 451.778 281.127 451.829C279.175 451.825 277.012 451.818 274.656 451.807L278.887 442.136C279.004 441.87 278.883 441.56 278.617 441.443C278.347 441.326 278.037 441.447 277.92 441.717L276.91 444.023L275.29 441.483C275.133 441.239 274.805 441.166 274.561 441.323C274.313 441.48 274.243 441.808 274.4 442.053L276.396 445.184C276.396 445.184 276.399 445.191 276.403 445.191L274.951 448.508L274.094 446.523C273.977 446.256 273.667 446.132 273.401 446.249C273.135 446.366 273.01 446.676 273.127 446.942L274.367 449.811C274.367 449.811 274.375 449.822 274.378 449.829L273.558 451.697C273.543 451.734 273.528 451.77 273.525 451.807C271.522 451.799 269.392 451.789 267.141 451.774C267.141 451.42 267.097 450.851 267.032 449.898C266.959 448.807 266.842 447.289 266.693 445.388C266.663 445.03 266.634 444.673 266.609 444.322C266.652 444.293 266.696 444.26 266.733 444.22L272.339 437.801C272.533 437.582 272.507 437.247 272.288 437.057C272.069 436.867 271.734 436.889 271.544 437.108L266.496 442.888C266.313 440.666 266.164 438.892 266.16 438.867C266.138 438.579 265.883 438.36 265.591 438.385C265.303 438.411 265.088 438.666 265.109 438.958C265.317 441.425 265.573 444.545 265.773 447.114L263.304 445.333C263.067 445.162 262.738 445.216 262.567 445.454C262.399 445.691 262.45 446.019 262.687 446.191L265.762 448.402C265.799 448.431 265.839 448.45 265.879 448.464C265.999 450.07 266.083 451.303 266.091 451.77C264.011 451.759 261.834 451.741 259.568 451.723C259.532 451.723 255.72 451.613 253.706 449.884C251.857 448.296 251.233 445.012 253.706 442.064C253.725 442.042 255.556 439.994 257.781 439.958C257.803 439.958 257.825 439.958 257.843 439.958C258.948 439.958 259.992 440.469 260.94 441.472C261.104 441.64 261.356 441.684 261.564 441.578C261.772 441.472 261.885 441.239 261.841 441.009C261.826 440.932 260.364 433.112 264.42 430.959C268.732 428.667 271.467 429.904 271.489 429.915C271.526 429.934 271.562 429.948 271.602 429.956C271.763 429.992 275.549 430.926 275.969 434.907C275.994 435.141 276.166 435.327 276.396 435.371C276.625 435.415 276.855 435.302 276.965 435.094C276.987 435.046 279.427 430.459 284.953 430.828C286.256 430.915 287.273 431.408 287.988 432.298C289.772 434.517 289.192 438.487 289.185 438.527C289.156 438.717 289.232 438.907 289.382 439.027C289.535 439.144 289.739 439.17 289.914 439.093C289.962 439.071 294.813 437.013 297.819 438.801C299.201 439.626 300.004 441.173 300.205 443.406C300.449 446.092 299.887 448.187 298.541 449.636L298.53 449.628Z"
        fill="#CE6326"
      />
      <path
        d="M285.829 444.98L285.737 445.158L282.287 451.836L282.115 452.172C282.024 452.355 281.838 452.457 281.645 452.457C281.564 452.457 281.48 452.439 281.404 452.398C281.192 452.289 281.086 452.059 281.127 451.833C281.134 451.782 281.148 451.734 281.174 451.683L284.8 444.67L283.231 438.444C283.158 438.159 283.33 437.875 283.614 437.802C283.899 437.729 284.183 437.904 284.253 438.185L285.726 444.031L285.872 444.607C285.905 444.732 285.891 444.867 285.829 444.98Z"
        fill="#030303"
      />
      <path
        d="M288.948 443.935L285.738 445.157L285.548 445.23C285.486 445.252 285.424 445.263 285.359 445.263C285.147 445.263 284.946 445.135 284.866 444.924C284.764 444.65 284.899 444.344 285.172 444.241L285.727 444.03L288.572 442.95C288.846 442.844 289.149 442.982 289.251 443.253C289.353 443.526 289.218 443.833 288.948 443.935Z"
        fill="#030303"
      />
      <path
        d="M267.023 449.898C266.95 448.807 266.834 447.289 266.684 445.387C266.655 445.03 266.626 444.672 266.6 444.322C266.56 443.833 266.52 443.347 266.483 442.884C266.301 440.662 266.151 438.888 266.148 438.863C266.126 438.574 265.871 438.355 265.579 438.381C265.291 438.406 265.075 438.662 265.097 438.954C265.305 441.421 265.561 444.541 265.761 447.11C265.798 447.58 265.834 448.037 265.863 448.464C265.984 450.069 266.068 451.303 266.075 451.77C266.075 451.828 266.075 451.872 266.075 451.908C266.049 452.036 266.068 452.171 266.137 452.292C266.235 452.456 266.41 452.551 266.589 452.551C266.68 452.551 266.775 452.525 266.859 452.474C267.052 452.357 267.133 452.31 267.129 451.781C267.129 451.427 267.085 450.857 267.02 449.905L267.023 449.898Z"
        fill="#030303"
      />
      <path
        d="M272.332 437.803L266.725 444.221C266.689 444.262 266.649 444.298 266.601 444.324C266.517 444.375 266.422 444.4 266.324 444.4C266.2 444.4 266.076 444.357 265.977 444.273C265.758 444.079 265.733 443.747 265.926 443.528L266.484 442.89L271.533 437.109C271.726 436.89 272.058 436.865 272.277 437.058C272.496 437.252 272.521 437.584 272.328 437.803H272.332Z"
        fill="#030303"
      />
      <path
        d="M266.485 448.283C266.383 448.425 266.219 448.502 266.054 448.502C265.992 448.502 265.927 448.491 265.865 448.465C265.825 448.454 265.784 448.433 265.748 448.403L262.673 446.192C262.436 446.02 262.385 445.692 262.553 445.455C262.724 445.218 263.052 445.163 263.289 445.334L265.759 447.115L266.364 447.549C266.602 447.717 266.653 448.049 266.485 448.287V448.283Z"
        fill="#030303"
      />
      <path
        d="M278.886 442.14L274.655 451.81L274.52 452.12C274.432 452.317 274.243 452.438 274.035 452.438C273.966 452.438 273.893 452.423 273.823 452.394C273.593 452.292 273.469 452.044 273.517 451.807C273.524 451.77 273.535 451.734 273.55 451.697L274.37 449.829L274.947 448.508L276.399 445.191L276.909 444.023L277.92 441.717C278.036 441.447 278.35 441.326 278.616 441.443C278.883 441.56 279.007 441.874 278.886 442.136V442.14Z"
        fill="#030303"
      />
      <path
        d="M277.125 445.345C277.037 445.403 276.939 445.429 276.84 445.429C276.673 445.429 276.501 445.348 276.403 445.195C276.403 445.195 276.399 445.188 276.395 445.188L274.4 442.057C274.243 441.812 274.313 441.484 274.561 441.327C274.805 441.17 275.133 441.243 275.29 441.488L276.91 444.027L277.285 444.619C277.442 444.863 277.369 445.191 277.121 445.348L277.125 445.345Z"
        fill="#030303"
      />
      <path
        d="M275.052 450.085C274.983 450.114 274.914 450.129 274.845 450.129C274.648 450.129 274.462 450.019 274.37 449.829C274.367 449.822 274.363 449.818 274.359 449.811L273.119 446.943C273.002 446.673 273.126 446.363 273.393 446.249C273.659 446.136 273.973 446.257 274.086 446.523L274.943 448.508L275.326 449.391C275.443 449.658 275.319 449.972 275.049 450.085H275.052Z"
        fill="#030303"
      />
      <g clip-path="url(#clip1_2690_19355)">
        <path
          d="M765.62 453H762.32V371.422H765.62V453ZM763.093 452.23H764.847V372.192H763.093V452.23Z"
          fill="#030303"
        />
        <!-- <path d="M742.254 352.504V345.033H745.197C745.675 345.033 746.074 345.128 746.396 345.328C746.717 345.518 746.96 345.769 747.125 346.081C747.29 346.392 747.368 346.713 747.368 347.05C747.368 347.466 747.264 347.812 747.064 348.107C746.864 348.401 746.587 348.6 746.248 348.713V348.462C746.717 348.583 747.081 348.808 747.342 349.145C747.594 349.483 747.724 349.881 747.724 350.34C747.724 350.799 747.637 351.163 747.464 351.483C747.29 351.812 747.029 352.063 746.699 352.245C746.369 352.427 745.961 352.513 745.484 352.513H742.254V352.504ZM743.357 348.089H745.18C745.38 348.089 745.562 348.046 745.727 347.968C745.892 347.89 746.014 347.769 746.109 347.613C746.205 347.457 746.257 347.275 746.257 347.059C746.257 346.773 746.161 346.531 745.97 346.34C745.779 346.15 745.519 346.063 745.189 346.063H743.365V348.089H743.357ZM743.357 351.474H745.31C745.553 351.474 745.779 351.431 745.97 351.336C746.17 351.241 746.317 351.111 746.43 350.938C746.543 350.764 746.604 350.557 746.604 350.314C746.604 350.089 746.552 349.89 746.456 349.708C746.361 349.526 746.213 349.379 746.031 349.275C745.849 349.171 745.631 349.119 745.38 349.119H743.357V351.483V351.474Z" fill="black"/>
<path d="M751.25 352.661C750.694 352.661 750.199 352.54 749.783 352.297C749.357 352.055 749.036 351.717 748.801 351.276C748.567 350.834 748.454 350.332 748.454 349.752C748.454 349.137 748.567 348.609 748.801 348.159C749.036 347.709 749.357 347.363 749.765 347.12C750.182 346.878 750.66 346.748 751.207 346.748C751.754 346.748 752.266 346.878 752.665 347.146C753.065 347.415 753.368 347.787 753.568 348.272C753.768 348.757 753.846 349.337 753.803 350.012H752.717V349.614C752.717 348.964 752.587 348.48 752.344 348.168C752.101 347.856 751.736 347.7 751.241 347.7C750.694 347.7 750.286 347.874 750.017 348.211C749.748 348.549 749.609 349.051 749.609 349.692C749.609 350.332 749.748 350.782 750.017 351.12C750.286 351.458 750.686 351.622 751.207 351.622C751.545 351.622 751.84 351.544 752.092 351.388C752.344 351.233 752.535 351.016 752.674 350.73L753.742 351.068C753.525 351.57 753.195 351.96 752.752 352.228C752.309 352.505 751.814 352.644 751.267 352.644L751.25 352.661ZM749.244 350.012V349.163H753.256V350.012H749.244Z" fill="black"/>
<path d="M754.341 347.778V346.904H758.179V347.778H754.341ZM758.179 352.505C757.823 352.575 757.475 352.601 757.137 352.592C756.798 352.583 756.494 352.514 756.225 352.393C755.956 352.272 755.756 352.081 755.617 351.821C755.496 351.588 755.435 351.354 755.426 351.111C755.426 350.869 755.417 350.601 755.417 350.298V345.346H756.511V350.246C756.511 350.471 756.511 350.67 756.511 350.834C756.511 350.999 756.555 351.137 756.616 351.259C756.737 351.475 756.937 351.596 757.215 351.622C757.493 351.648 757.805 351.64 758.179 351.588V352.505Z" fill="black"/>
<path d="M759.359 352.506V346.904H760.332V348.263L760.193 348.09C760.262 347.908 760.349 347.744 760.462 347.597C760.575 347.45 760.705 347.32 760.844 347.225C760.983 347.121 761.148 347.043 761.322 346.982C761.495 346.922 761.678 346.887 761.86 346.878C762.042 346.87 762.225 346.878 762.39 346.904V347.917C762.207 347.865 761.999 347.857 761.782 347.874C761.556 347.891 761.348 347.969 761.165 348.09C760.992 348.203 760.844 348.341 760.749 348.506C760.644 348.67 760.575 348.852 760.532 349.051C760.488 349.25 760.462 349.458 760.462 349.683V352.514H759.368L759.359 352.506Z" fill="black"/>
<path d="M765.775 352.661C765.22 352.661 764.725 352.54 764.308 352.297C763.882 352.055 763.561 351.717 763.327 351.276C763.092 350.834 762.979 350.332 762.979 349.752C762.979 349.137 763.092 348.609 763.327 348.159C763.561 347.709 763.882 347.363 764.291 347.12C764.707 346.878 765.185 346.748 765.732 346.748C766.279 346.748 766.791 346.878 767.191 347.146C767.59 347.415 767.894 347.787 768.094 348.272C768.293 348.757 768.371 349.337 768.328 350.012H767.243V349.614C767.243 348.964 767.112 348.48 766.869 348.168C766.626 347.856 766.262 347.7 765.767 347.7C765.22 347.7 764.812 347.874 764.542 348.211C764.273 348.549 764.134 349.051 764.134 349.692C764.134 350.332 764.273 350.782 764.542 351.12C764.812 351.458 765.211 351.622 765.732 351.622C766.071 351.622 766.366 351.544 766.618 351.388C766.869 351.233 767.06 351.016 767.199 350.73L768.267 351.068C768.05 351.57 767.72 351.96 767.277 352.228C766.835 352.505 766.34 352.644 765.793 352.644L765.775 352.661ZM763.77 350.012V349.163H767.781V350.012H763.77Z" fill="black"/>
<path d="M768.866 347.778V346.904H772.704V347.778H768.866ZM772.704 352.505C772.348 352.575 772.001 352.601 771.662 352.592C771.323 352.583 771.02 352.514 770.75 352.393C770.481 352.272 770.281 352.081 770.143 351.821C770.021 351.588 769.96 351.354 769.952 351.111C769.952 350.869 769.943 350.601 769.943 350.298V345.346H771.037V350.246C771.037 350.471 771.037 350.67 771.037 350.834C771.037 350.999 771.08 351.137 771.141 351.259C771.263 351.475 771.462 351.596 771.74 351.622C772.018 351.648 772.331 351.64 772.704 351.588V352.505Z" fill="black"/>
<path d="M776.117 352.661C775.561 352.661 775.067 352.54 774.65 352.297C774.224 352.055 773.903 351.717 773.669 351.276C773.434 350.834 773.321 350.332 773.321 349.752C773.321 349.137 773.434 348.609 773.669 348.159C773.903 347.709 774.224 347.363 774.632 347.12C775.049 346.878 775.527 346.748 776.074 346.748C776.621 346.748 777.133 346.878 777.532 347.146C777.932 347.415 778.236 347.787 778.435 348.272C778.635 348.757 778.713 349.337 778.67 350.012H777.584V349.614C777.584 348.964 777.454 348.48 777.211 348.168C776.968 347.856 776.603 347.7 776.108 347.7C775.561 347.7 775.153 347.874 774.884 348.211C774.615 348.549 774.476 349.051 774.476 349.692C774.476 350.332 774.615 350.782 774.884 351.12C775.153 351.458 775.553 351.622 776.074 351.622C776.412 351.622 776.708 351.544 776.959 351.388C777.211 351.233 777.402 351.016 777.541 350.73L778.609 351.068C778.392 351.57 778.062 351.96 777.619 352.228C777.176 352.505 776.681 352.644 776.134 352.644L776.117 352.661ZM774.111 350.012V349.163H778.123V350.012H774.111Z" fill="black"/>
<path d="M779.668 352.506V346.905H780.64V348.524H780.771V352.506H779.668ZM783.619 352.506V349.753C783.619 349.537 783.601 349.312 783.566 349.078C783.532 348.844 783.462 348.636 783.358 348.437C783.254 348.238 783.115 348.082 782.924 347.961C782.742 347.84 782.499 347.779 782.195 347.779C782.004 347.779 781.813 347.814 781.648 347.875C781.474 347.935 781.318 348.039 781.196 348.186C781.075 348.333 780.962 348.515 780.892 348.749C780.823 348.983 780.779 349.26 780.779 349.597L780.102 349.346C780.102 348.836 780.198 348.385 780.389 347.996C780.58 347.606 780.857 347.303 781.213 347.087C781.569 346.87 782.004 346.758 782.507 346.758C782.898 346.758 783.219 346.818 783.488 346.948C783.749 347.069 783.966 347.234 784.131 347.442C784.296 347.641 784.417 347.866 784.504 348.1C784.591 348.342 784.652 348.567 784.678 348.801C784.713 349.026 784.721 349.234 784.721 349.407V352.524H783.619V352.506Z" fill="black"/>
<path d="M742.489 364.963L740.448 359.361H741.542L743.036 363.603L744.529 359.361H745.623L743.583 364.963H742.48H742.489Z" fill="black"/>
<path d="M748.853 365.12C748.298 365.12 747.803 364.999 747.386 364.756C746.961 364.514 746.639 364.176 746.405 363.735C746.17 363.293 746.058 362.791 746.058 362.211C746.058 361.596 746.17 361.068 746.405 360.618C746.639 360.168 746.961 359.822 747.369 359.579C747.785 359.337 748.263 359.207 748.81 359.207C749.357 359.207 749.869 359.337 750.269 359.605C750.668 359.874 750.972 360.246 751.172 360.731C751.371 361.216 751.45 361.796 751.406 362.471H750.321V362.073C750.321 361.423 750.191 360.939 749.947 360.627C749.704 360.315 749.34 360.159 748.845 360.159C748.298 360.159 747.89 360.332 747.62 360.67C747.351 361.008 747.212 361.51 747.212 362.151C747.212 362.791 747.351 363.241 747.62 363.579C747.89 363.917 748.289 364.081 748.81 364.081C749.149 364.081 749.444 364.003 749.696 363.847C749.947 363.692 750.138 363.475 750.277 363.189L751.345 363.527C751.128 364.029 750.798 364.419 750.356 364.687C749.913 364.964 749.418 365.103 748.871 365.103L748.853 365.12ZM746.856 362.462V361.614H750.868V362.462H746.856Z" fill="black"/>
<path d="M752.569 364.963V359.361H753.542V360.72L753.403 360.547C753.472 360.366 753.559 360.201 753.672 360.054C753.785 359.907 753.915 359.777 754.054 359.682C754.193 359.578 754.358 359.5 754.532 359.439C754.705 359.379 754.888 359.344 755.07 359.335C755.252 359.327 755.435 359.335 755.6 359.361V360.374C755.417 360.322 755.209 360.314 754.992 360.331C754.766 360.348 754.558 360.426 754.375 360.547C754.202 360.66 754.054 360.798 753.959 360.963C753.854 361.127 753.785 361.309 753.741 361.508C753.698 361.707 753.672 361.915 753.672 362.14V364.971H752.578L752.569 364.963Z" fill="black"/>
<path d="M756.589 364.963V357.492H757.683V360.929H757.561V364.963H756.598H756.589ZM759.228 365.119C758.69 365.119 758.239 364.989 757.874 364.73C757.509 364.47 757.231 364.115 757.049 363.665C756.867 363.215 756.771 362.713 756.771 362.158C756.771 361.604 756.867 361.094 757.049 360.652C757.231 360.211 757.509 359.856 757.874 359.596C758.239 359.336 758.681 359.206 759.211 359.206C759.741 359.206 760.192 359.336 760.574 359.596C760.956 359.856 761.251 360.202 761.46 360.652C761.668 361.094 761.772 361.604 761.772 362.167C761.772 362.73 761.668 363.232 761.46 363.682C761.251 364.132 760.956 364.487 760.583 364.747C760.21 365.007 759.749 365.137 759.228 365.137V365.119ZM759.081 364.132C759.428 364.132 759.715 364.046 759.94 363.864C760.166 363.691 760.34 363.448 760.453 363.154C760.566 362.851 760.626 362.522 760.626 362.15C760.626 361.778 760.566 361.449 760.453 361.154C760.34 360.86 760.166 360.617 759.932 360.444C759.697 360.271 759.402 360.176 759.037 360.176C758.699 360.176 758.421 360.263 758.195 360.427C757.978 360.592 757.813 360.825 757.709 361.12C757.605 361.414 757.553 361.76 757.553 362.15C757.553 362.539 757.605 362.877 757.709 363.18C757.813 363.474 757.978 363.708 758.204 363.881C758.43 364.054 758.725 364.132 759.081 364.132Z" fill="black"/>
<path d="M765.359 365.119C764.794 365.119 764.308 364.989 763.9 364.738C763.483 364.487 763.171 364.141 762.945 363.69C762.719 363.249 762.606 362.729 762.606 362.149C762.606 361.569 762.719 361.05 762.954 360.608C763.18 360.167 763.501 359.821 763.918 359.57C764.334 359.318 764.812 359.197 765.368 359.197C765.923 359.197 766.418 359.327 766.826 359.578C767.234 359.829 767.556 360.176 767.781 360.626C768.007 361.067 768.12 361.578 768.12 362.158C768.12 362.738 768.007 363.258 767.781 363.699C767.556 364.141 767.234 364.496 766.818 364.738C766.409 364.989 765.923 365.11 765.359 365.11V365.119ZM765.359 364.097C765.897 364.097 766.297 363.916 766.566 363.552C766.835 363.188 766.965 362.721 766.965 362.149C766.965 361.578 766.835 361.093 766.566 360.747C766.297 360.401 765.897 360.219 765.368 360.219C765.003 360.219 764.708 360.297 764.465 360.47C764.23 360.634 764.056 360.859 763.935 361.154C763.822 361.44 763.761 361.777 763.761 362.158C763.761 362.747 763.9 363.214 764.169 363.569C764.438 363.924 764.838 364.097 765.359 364.097Z" fill="black"/>
<path d="M768.641 360.229V359.354H772.478V360.229H768.641ZM772.478 364.964C772.122 365.034 771.775 365.06 771.436 365.051C771.098 365.042 770.794 364.973 770.525 364.852C770.256 364.731 770.056 364.54 769.917 364.28C769.795 364.047 769.735 363.813 769.726 363.57C769.726 363.328 769.717 363.06 769.717 362.757V357.805H770.811V362.705C770.811 362.93 770.811 363.129 770.811 363.293C770.811 363.458 770.855 363.596 770.915 363.718C771.037 363.934 771.237 364.055 771.515 364.081C771.792 364.107 772.105 364.099 772.478 364.047V364.964Z" fill="black"/>
<path d="M775.891 365.12C775.335 365.12 774.84 364.999 774.423 364.756C773.998 364.514 773.676 364.176 773.442 363.735C773.208 363.293 773.095 362.791 773.095 362.211C773.095 361.596 773.208 361.068 773.442 360.618C773.676 360.168 773.998 359.822 774.406 359.579C774.823 359.337 775.3 359.207 775.847 359.207C776.394 359.207 776.906 359.337 777.306 359.605C777.705 359.874 778.009 360.246 778.209 360.731C778.409 361.216 778.487 361.796 778.443 362.471H777.358V362.073C777.358 361.423 777.228 360.939 776.985 360.627C776.741 360.315 776.377 360.159 775.882 360.159C775.335 360.159 774.927 360.332 774.658 360.67C774.388 361.008 774.25 361.51 774.25 362.151C774.25 362.791 774.388 363.241 774.658 363.579C774.927 363.917 775.326 364.081 775.847 364.081C776.186 364.081 776.481 364.003 776.733 363.847C776.985 363.692 777.176 363.475 777.315 363.189L778.382 363.527C778.165 364.029 777.835 364.419 777.393 364.687C776.95 364.964 776.455 365.103 775.908 365.103L775.891 365.12ZM773.885 362.462V361.614H777.896V362.462H773.885Z" fill="black"/>
<path d="M779.442 364.963V359.362H780.415V360.981H780.545V364.963H779.442ZM783.393 364.963V362.21C783.393 361.994 783.376 361.769 783.341 361.535C783.306 361.301 783.237 361.093 783.133 360.894C783.028 360.695 782.889 360.539 782.698 360.418C782.516 360.297 782.273 360.236 781.969 360.236C781.778 360.236 781.587 360.271 781.422 360.332C781.248 360.392 781.092 360.496 780.971 360.643C780.849 360.79 780.736 360.972 780.667 361.206C780.597 361.44 780.554 361.717 780.554 362.054L779.877 361.803C779.877 361.293 779.972 360.842 780.163 360.453C780.354 360.063 780.632 359.76 780.988 359.544C781.344 359.327 781.778 359.215 782.282 359.215C782.672 359.215 782.994 359.275 783.263 359.405C783.523 359.527 783.74 359.691 783.905 359.899C784.07 360.098 784.192 360.323 784.279 360.557C784.365 360.799 784.426 361.024 784.452 361.258C784.487 361.483 784.496 361.691 784.496 361.864V364.981H783.393V364.963Z" fill="black"/>
<path d="M786.371 363.093V357.492H787.456V363.093H786.371ZM786.371 364.963V363.907H787.456V364.963H786.371Z" fill="black"/> -->
        <path
          d="M792.414 372.192H735.586C733.606 372.192 732 370.591 732 368.617V342.575C732 340.602 733.606 339 735.586 339H792.414C794.394 339 796 340.602 796 342.575V368.617C796 370.591 794.394 372.192 792.414 372.192ZM735.586 339.771C734.032 339.771 732.773 341.026 732.773 342.575V368.617C732.773 370.166 734.032 371.422 735.586 371.422H792.414C793.968 371.422 795.227 370.166 795.227 368.617V342.575C795.227 341.026 793.968 339.771 792.414 339.771H735.586Z"
          fill="#030303"
        />
        <path
          d="M792.449 370.911H735.551C734.283 370.911 733.259 369.889 733.259 368.625V342.567C733.259 341.303 734.283 340.281 735.551 340.281H792.449C793.716 340.281 794.741 341.303 794.741 342.567V368.625C794.741 369.889 793.716 370.911 792.449 370.911ZM735.551 341.008C734.683 341.008 733.979 341.71 733.979 342.575V368.634C733.979 369.5 734.683 370.201 735.551 370.201H792.449C793.317 370.201 794.02 369.5 794.02 368.634V342.567C794.02 341.701 793.317 341 792.449 341H735.551V341.008Z"
          fill="#CE6326"
        />
      </g>
    </g>
    <defs>
      <clipPath id="clip0_2690_19355">
        <rect
          width="413"
          height="452.784"
          fill="white"
          transform="translate(1037)"
        />
      </clipPath>
      <clipPath id="clip1_2690_19355">
        <rect
          width="64"
          height="114"
          fill="white"
          transform="translate(732 339)"
        />
      </clipPath>
    </defs>
  </svg>