<svg width="1414" height="293" viewBox="0 0 1414 293" fill="none" xmlns="http://www.w3.org/2000/svg">
<g opacity="0.7">
<path d="M302.104 89.6988C302.104 89.9268 302.028 90.1547 301.877 90.332C301.674 90.56 301.395 90.6866 301.117 90.6866C300.889 90.6866 300.661 90.6106 300.459 90.4333L300.129 90.1547L280.15 73.1852C279.745 72.8306 279.669 72.1974 280.023 71.7922C280.403 71.3616 281.011 71.3109 281.442 71.6655L300.129 87.5713L301.75 88.939C301.978 89.1416 302.104 89.4202 302.104 89.6988Z" fill="#030303"/>
<path d="M324.793 79.72L302.105 106.694L301.902 106.947C301.725 107.175 301.421 107.302 301.143 107.302C300.915 107.302 300.687 107.226 300.509 107.074C300.104 106.719 300.028 106.086 300.383 105.681L302.105 103.629L323.299 78.4536C323.654 78.0231 324.287 77.9978 324.692 78.327C325.097 78.6816 325.148 79.3148 324.793 79.72Z" fill="#030303"/>
<path d="M301.496 117.89C301.294 118.143 300.99 118.269 300.686 118.269C300.483 118.269 300.306 118.219 300.129 118.092H300.103L285.239 107.024C284.809 106.695 284.707 106.062 285.037 105.631C285.366 105.2 285.999 105.099 286.429 105.428L300.129 115.635L301.294 116.497C301.724 116.826 301.825 117.434 301.496 117.89Z" fill="#030303"/>
<path d="M302.102 69.3628V293.74C302.102 294.298 301.646 294.728 301.115 294.728C300.557 294.728 300.127 294.298 300.127 293.74V69.3628C300.127 68.8309 300.557 68.375 301.115 68.375C301.672 68.375 302.102 68.8309 302.102 69.3628Z" fill="#030303"/>
<path d="M338.086 95.5751C335.073 90.5349 331.68 84.6842 331.452 75.7435C331.325 71.0579 332.136 67.3601 332.819 64.1435C333.933 59.0526 334.845 54.6962 332.237 48.5163C329.755 42.5136 325.501 38.8411 323.526 37.0175C316.233 30.6856 308.231 27.621 299.799 27.7983C297.267 27.8489 284.251 28.6341 275.819 39.0691C271.286 44.5652 269.97 50.3399 269.59 52.4927C268.045 59.2299 269.286 63.3583 270.603 67.7653C271.514 70.83 272.4 73.9959 272.628 78.3523C272.983 86.7357 270.147 92.1812 267.437 97.3733C264.475 103.047 261.715 108.416 263.639 116.749C265.057 122.904 267.893 128.02 272.071 131.92C279.592 138.885 289.113 139.493 297.267 139.493H300.204C300.837 139.493 301.394 139.493 302.027 139.443H302.103C310.08 139.265 321.956 138.505 331.908 129.59C334.339 127.387 340.112 122.296 342.214 114.014C344.29 106.263 341.252 101.071 338.086 95.5751ZM340.441 113.507C338.415 121.283 332.971 126.146 330.667 128.248C321.222 136.707 309.852 137.467 302.103 137.568H302.027C301.394 137.644 300.837 137.644 300.204 137.644H299.976C291.215 137.746 281.187 137.796 273.363 130.553C269.463 126.88 266.754 122.118 265.437 116.344C263.639 108.695 266.121 103.832 269.058 98.2345C271.793 93.017 274.857 87.1916 274.452 78.251C274.274 73.6666 273.261 70.2474 272.35 67.2588C271.109 62.9024 269.97 59.1539 271.388 52.8727C271.793 50.7705 272.983 45.401 277.212 40.2595C285.214 30.4577 297.419 29.7232 299.875 29.6725H300.483C308.231 29.6725 315.6 32.6105 322.285 38.4359C324.159 40.1329 328.16 43.6534 330.54 49.2508C332.921 54.8482 332.085 58.774 330.996 63.7382C330.312 66.8535 329.629 70.4247 329.629 74.8571V75.8195C329.857 85.2667 333.326 91.2187 336.44 96.5375C339.606 101.907 342.264 106.542 340.441 113.507Z" fill="#030303"/>
<path d="M340.443 113.505C338.417 121.281 332.972 126.144 330.668 128.246C321.223 136.706 309.853 137.465 302.105 137.567V106.692L324.793 79.7183C325.148 79.3131 325.097 78.6799 324.692 78.3253C324.287 77.9961 323.654 78.0214 323.299 78.4519L302.105 103.628V69.3593C302.105 68.8274 301.649 68.3715 301.117 68.3715C300.56 68.3715 300.13 68.8274 300.13 69.3593V87.5699L281.442 71.6641C281.011 71.3095 280.404 71.3602 280.024 71.7908C279.669 72.196 279.745 72.8292 280.15 73.1838L300.13 90.1533V115.633L286.43 105.426C286 105.097 285.367 105.198 285.038 105.629C284.708 106.059 284.81 106.692 285.24 107.022L300.104 118.09H300.13V137.643H299.978C291.216 137.744 281.189 137.795 273.364 130.551C269.464 126.878 266.755 122.117 265.438 116.342C263.64 108.693 266.122 103.83 269.059 98.2328C271.794 93.0153 274.858 87.19 274.453 78.2493C274.276 73.665 273.263 70.2458 272.351 67.2571C271.11 62.9008 269.971 59.1523 271.389 52.871C271.794 50.7688 272.984 45.3994 277.213 40.2579C285.215 30.4561 297.42 29.7216 299.876 29.6709H300.484C308.233 29.6709 315.601 32.6089 322.287 38.4343C324.16 40.1312 328.161 43.6518 330.542 49.2492C332.922 54.8466 332.086 58.7724 330.997 63.7366C330.314 66.8519 329.63 70.4231 329.63 74.8554V75.8179C329.858 85.2651 333.327 91.2171 336.442 96.5359C339.607 101.905 342.266 106.54 340.443 113.505Z" fill="#CE6326"/>
<path d="M208.112 123.989C182.688 123.989 162 103.297 162 77.8677C162 52.4388 182.688 31.7461 208.112 31.7461C233.535 31.7461 254.223 52.4388 254.223 77.8677C254.223 103.297 233.535 123.989 208.112 123.989ZM208.112 33.595C183.701 33.595 163.823 53.4519 163.823 77.8931C163.823 102.334 183.676 122.191 208.112 122.191C232.548 122.191 252.4 102.334 252.4 77.8931C252.4 53.4519 232.548 33.595 208.112 33.595Z" fill="#030303"/>
<path d="M208.111 83.1851C207.883 83.1851 207.655 83.1091 207.478 82.9571L187.17 65.709C186.764 65.3544 186.688 64.7212 187.043 64.316C187.398 63.8854 188.031 63.8601 188.436 64.1893L208.744 81.4374C209.149 81.792 209.225 82.4252 208.871 82.8305C208.668 83.0584 208.39 83.1851 208.111 83.1851Z" fill="#030303"/>
<path d="M208.137 99.8023C207.909 99.8023 207.681 99.7263 207.504 99.5743C207.074 99.2197 207.023 98.5865 207.377 98.1813L230.269 70.9541C230.623 70.5488 231.256 70.4982 231.661 70.8275C232.092 71.182 232.143 71.8152 231.788 72.2205L208.897 99.4477C208.694 99.6756 208.416 99.8023 208.137 99.8023Z" fill="#030303"/>
<path d="M207.705 110.794C207.503 110.794 207.3 110.743 207.123 110.591L192.259 99.523C191.828 99.1937 191.727 98.5605 192.056 98.13C192.385 97.6994 193.018 97.5981 193.449 97.9273L208.313 108.996C208.744 109.325 208.845 109.958 208.516 110.389C208.313 110.642 208.035 110.794 207.731 110.794H207.705Z" fill="#030303"/>
<path d="M207.098 294.039V57.6811C207.098 57.1239 207.553 56.6934 208.111 56.6934C208.668 56.6934 209.098 57.1239 209.098 57.6811V293.963" fill="#030303"/>
<path d="M75.0832 67.9638C72.0698 62.9236 68.6766 57.0982 68.4487 48.1576C68.3475 43.4466 69.1324 39.7741 69.8161 36.5575C70.9556 31.4667 71.8419 27.1103 69.259 20.9304C66.7775 14.9277 62.5234 11.2552 60.5482 9.43161C53.2554 3.0997 45.2536 0.0350559 36.8213 0.212349C34.2638 0.263005 21.2482 1.07349 12.8159 11.4832C8.2832 16.9793 6.99177 22.754 6.58661 24.9068C5.06728 31.644 6.30806 35.7724 7.59949 40.2047C8.51109 43.2693 9.42269 46.4353 9.65059 50.7917C9.97978 59.1751 7.16901 64.5952 4.43422 69.8127C1.49684 75.4861 -1.2886 80.8556 0.635888 89.1884C2.05393 95.3683 4.89002 100.459 9.06818 104.36C16.5889 111.325 26.11 111.958 34.2638 111.958H38.1128C38.3913 111.958 38.7458 111.907 39.0243 111.907C47.0008 111.73 58.9529 110.995 68.9045 102.055C71.3355 99.8513 77.1089 94.7604 79.2107 86.4783C81.3124 78.728 78.2484 73.5106 75.0832 68.0145V67.9638ZM77.4635 85.9211C75.4377 93.6714 69.9934 98.5596 67.6638 100.636C58.2186 109.121 46.7729 109.856 39.0243 109.982C38.7458 110.033 38.3913 110.033 38.1128 110.033H36.9732C28.1864 110.134 18.1842 110.21 10.3596 102.967C6.45999 99.2941 3.72519 94.5325 2.43376 88.7578C0.635885 81.1088 3.11746 76.2459 6.05484 70.6485C8.76431 65.431 11.8283 59.6057 11.4232 50.665C11.2459 46.0807 10.233 42.6868 9.3214 39.6728C8.08062 35.3165 6.94111 31.568 8.35916 25.2867C8.76431 23.1845 9.95446 17.8151 14.1833 12.6482C22.1598 2.84642 34.3904 2.11192 36.8213 2.06127H37.4544C45.203 2.06127 52.5717 4.99927 59.2568 10.8246C61.1306 12.5216 65.1315 16.0421 67.5118 21.6395C69.8921 27.2369 69.0312 31.1627 67.9676 36.1269C67.2839 39.2422 66.6002 42.8134 66.6002 47.2205V48.1829C66.8281 57.6301 70.2719 63.5821 73.3866 68.9009C76.5518 74.2704 79.2107 78.9307 77.4128 85.8958L77.4635 85.9211Z" fill="#030303"/>
<path d="M77.464 85.9233C75.4382 93.6736 69.9939 98.5618 67.6643 100.639C58.2191 109.123 46.7735 109.858 39.0249 109.985C38.7463 110.035 38.3918 110.035 38.1133 110.035H36.9738C28.187 110.137 18.1847 110.213 10.3602 102.969C6.46053 99.2963 3.72573 94.5347 2.4343 88.76C0.636424 81.1111 3.118 76.2482 6.05538 70.6507C8.76485 65.4332 11.8288 59.6079 11.4237 50.6672C11.2464 46.0829 10.2335 42.689 9.32194 39.675C8.08115 35.3187 6.94165 31.5702 8.35969 25.2889C8.76485 23.1867 9.955 17.8173 14.1838 12.6504C22.1603 2.84863 34.3909 2.11413 36.8218 2.06348H37.4549C45.2035 2.06348 52.5723 5.00148 59.2573 10.8268C61.1312 12.5238 65.1321 16.0443 67.5124 21.6417C69.8926 27.2392 69.0317 31.1649 67.9682 36.1292C67.2845 39.2445 66.6008 42.8157 66.6008 47.2227V48.1851C66.8287 57.6323 70.2725 63.5843 73.3871 68.9031C76.5524 74.2726 79.2112 78.9329 77.4133 85.898L77.464 85.9233Z" fill="#CE6326"/>
<path d="M38.1365 63.0507C37.9086 63.0507 37.6807 62.9747 37.5034 62.8227L17.195 45.5493C16.7899 45.1947 16.7139 44.5615 17.0684 44.1562C17.4229 43.751 18.056 43.7003 18.4611 44.0296L38.7695 61.3031C39.1747 61.6576 39.2507 62.2908 38.8961 62.6961C38.6936 62.924 38.415 63.0507 38.1365 63.0507Z" fill="#030303"/>
<path d="M38.1624 79.6652C37.9345 79.6652 37.7066 79.5892 37.5294 79.4372C37.0989 79.0826 37.0483 78.4495 37.4028 78.0442L60.294 50.8423C60.6486 50.4118 61.2816 50.3864 61.6868 50.7157C62.1172 51.0703 62.1679 51.7035 61.8134 52.1087L38.9221 79.3106C38.7195 79.5386 38.441 79.6652 38.1624 79.6652Z" fill="#030303"/>
<path d="M37.7092 90.6571C37.5067 90.6571 37.3041 90.6064 37.1268 90.4544L22.2627 79.3863C21.8322 79.057 21.7309 78.4238 22.0601 77.9933C22.3893 77.5627 23.0224 77.4614 23.4528 77.7906L38.317 88.8588C38.7474 89.1881 38.8487 89.8213 38.5195 90.2518C38.317 90.5051 38.0384 90.6571 37.7346 90.6571H37.7092Z" fill="#030303"/>
<path d="M38.138 294.721C37.5809 294.721 37.1504 294.29 37.1504 293.733V32.1489C37.1504 31.5917 37.5809 31.1611 38.138 31.1611C38.695 31.1611 39.1255 31.5917 39.1255 32.1489V293.733C39.1255 294.29 38.695 294.721 38.138 294.721Z" fill="#030303"/>
<path d="M798.474 119.967C773.946 119.967 754 100.017 754 75.4834C754 50.9501 773.946 31 798.474 31C823.002 31 842.948 50.9501 842.948 75.4834C842.948 100.017 823.002 119.967 798.474 119.967ZM798.474 32.7748C774.912 32.7748 755.774 51.9387 755.774 75.4834C755.774 99.0282 774.934 118.192 798.474 118.192C822.014 118.192 841.173 99.0282 841.173 75.4834C841.173 51.9387 822.014 32.7748 798.474 32.7748Z" fill="#030303"/>
<path d="M798.473 77.3057C798.271 77.3057 798.069 77.2383 797.911 77.1035L779.897 61.8039C779.538 61.4894 779.471 60.9277 779.785 60.5683C780.099 60.1864 780.661 60.1639 781.02 60.456L799.035 75.7555C799.394 76.0701 799.461 76.6317 799.147 76.9912C798.967 77.1934 798.72 77.3057 798.473 77.3057Z" fill="#030303"/>
<path d="M798.495 92.0417C798.293 92.0417 798.091 91.9743 797.934 91.8395C797.552 91.525 797.507 90.9633 797.822 90.6038L818.127 66.4525C818.441 66.093 819.003 66.0481 819.362 66.3401C819.744 66.6547 819.789 67.2163 819.475 67.5758L799.169 91.7271C798.99 91.9293 798.742 92.0417 798.495 92.0417Z" fill="#030303"/>
<path d="M798.091 101.769C797.912 101.769 797.732 101.724 797.575 101.59L784.39 91.7719C784.008 91.4798 783.918 90.9182 784.21 90.5362C784.502 90.1543 785.064 90.0644 785.445 90.3565L798.63 100.174C799.012 100.466 799.102 101.028 798.81 101.41C798.63 101.635 798.383 101.769 798.114 101.769H798.091Z" fill="#030303"/>
<path d="M797.598 293.992V50.1867C797.598 49.6925 797.98 49.3105 798.451 49.3105C798.923 49.3105 799.327 49.6925 799.327 50.1867V293.947" fill="#030303"/>
<path d="M941.104 89.6988C941.104 89.9268 941.028 90.1547 940.877 90.332C940.674 90.56 940.395 90.6866 940.117 90.6866C939.889 90.6866 939.661 90.6106 939.459 90.4333L939.129 90.1547L919.15 73.1852C918.745 72.8306 918.669 72.1974 919.023 71.7922C919.403 71.3616 920.011 71.3109 920.442 71.6655L939.129 87.5713L940.75 88.939C940.978 89.1416 941.104 89.4202 941.104 89.6988Z" fill="#030303"/>
<path d="M963.793 79.72L941.105 106.694L940.902 106.947C940.725 107.175 940.421 107.302 940.143 107.302C939.915 107.302 939.687 107.226 939.509 107.074C939.104 106.719 939.028 106.086 939.383 105.681L941.105 103.629L962.299 78.4536C962.654 78.0231 963.287 77.9978 963.692 78.327C964.097 78.6816 964.148 79.3148 963.793 79.72Z" fill="#030303"/>
<path d="M940.496 117.89C940.294 118.143 939.99 118.269 939.686 118.269C939.483 118.269 939.306 118.219 939.129 118.092H939.103L924.239 107.024C923.809 106.695 923.707 106.062 924.037 105.631C924.366 105.2 924.999 105.099 925.429 105.428L939.129 115.635L940.294 116.497C940.724 116.826 940.825 117.434 940.496 117.89Z" fill="#030303"/>
<path d="M941.102 69.3628V293.74C941.102 294.298 940.646 294.728 940.115 294.728C939.557 294.728 939.127 294.298 939.127 293.74V69.3628C939.127 68.8309 939.557 68.375 940.115 68.375C940.672 68.375 941.102 68.8309 941.102 69.3628Z" fill="#030303"/>
<path d="M977.086 95.5751C974.073 90.5349 970.68 84.6842 970.452 75.7435C970.325 71.0579 971.136 67.3601 971.819 64.1435C972.933 59.0526 973.845 54.6962 971.237 48.5163C968.755 42.5136 964.501 38.8411 962.526 37.0175C955.233 30.6856 947.231 27.621 938.799 27.7983C936.267 27.8489 923.251 28.6341 914.819 39.0691C910.286 44.5652 908.97 50.3399 908.59 52.4927C907.045 59.2299 908.286 63.3583 909.603 67.7653C910.514 70.83 911.4 73.9959 911.628 78.3523C911.983 86.7357 909.147 92.1812 906.437 97.3733C903.475 103.047 900.715 108.416 902.639 116.749C904.057 122.904 906.893 128.02 911.071 131.92C918.592 138.885 928.113 139.493 936.267 139.493H939.204C939.837 139.493 940.394 139.493 941.027 139.443H941.103C949.08 139.265 960.956 138.505 970.908 129.59C973.339 127.387 979.112 122.296 981.214 114.014C983.29 106.263 980.252 101.071 977.086 95.5751ZM979.441 113.507C977.415 121.283 971.971 126.146 969.667 128.248C960.222 136.707 948.852 137.467 941.103 137.568H941.027C940.394 137.644 939.837 137.644 939.204 137.644H938.976C930.215 137.746 920.187 137.796 912.363 130.553C908.463 126.88 905.754 122.118 904.437 116.344C902.639 108.695 905.121 103.832 908.058 98.2345C910.793 93.017 913.857 87.1916 913.452 78.251C913.274 73.6666 912.261 70.2474 911.35 67.2588C910.109 62.9024 908.97 59.1539 910.388 52.8727C910.793 50.7705 911.983 45.401 916.212 40.2595C924.214 30.4577 936.419 29.7232 938.875 29.6725H939.483C947.231 29.6725 954.6 32.6105 961.285 38.4359C963.159 40.1329 967.16 43.6534 969.54 49.2508C971.921 54.8482 971.085 58.774 969.996 63.7382C969.312 66.8535 968.629 70.4247 968.629 74.8571V75.8195C968.857 85.2667 972.326 91.2187 975.44 96.5375C978.606 101.907 981.264 106.542 979.441 113.507Z" fill="#030303"/>
<path d="M979.443 113.505C977.417 121.281 971.972 126.144 969.668 128.246C960.223 136.706 948.853 137.465 941.105 137.567V106.692L963.793 79.7183C964.148 79.3131 964.097 78.6799 963.692 78.3253C963.287 77.9961 962.654 78.0214 962.299 78.4519L941.105 103.628V69.3593C941.105 68.8274 940.649 68.3715 940.117 68.3715C939.56 68.3715 939.13 68.8274 939.13 69.3593V87.5699L920.442 71.6641C920.011 71.3095 919.404 71.3602 919.024 71.7908C918.669 72.196 918.745 72.8292 919.15 73.1838L939.13 90.1533V115.633L925.43 105.426C925 105.097 924.367 105.198 924.038 105.629C923.708 106.059 923.81 106.692 924.24 107.022L939.104 118.09H939.13V137.643H938.978C930.216 137.744 920.189 137.795 912.364 130.551C908.464 126.878 905.755 122.117 904.438 116.342C902.64 108.693 905.122 103.83 908.059 98.2328C910.794 93.0153 913.858 87.19 913.453 78.2493C913.276 73.665 912.263 70.2458 911.351 67.2571C910.11 62.9008 908.971 59.1523 910.389 52.871C910.794 50.7688 911.984 45.3994 916.213 40.2579C924.215 30.4561 936.42 29.7216 938.876 29.6709H939.484C947.233 29.6709 954.601 32.6089 961.287 38.4343C963.16 40.1312 967.161 43.6518 969.542 49.2492C971.922 54.8466 971.086 58.7724 969.997 63.7366C969.314 66.8519 968.63 70.4231 968.63 74.8554V75.8179C968.858 85.2651 972.327 91.2171 975.442 96.5359C978.607 101.905 981.266 106.54 979.443 113.505Z" fill="#CE6326"/>
<path d="M1057.02 77.1361C1056.78 77.1361 1056.54 77.0507 1056.33 76.8844L1034.46 58.2862C1034.02 57.9042 1033.95 57.2255 1034.33 56.7806C1034.72 56.3356 1035.39 56.2817 1035.84 56.6548L1057.71 75.2529C1058.16 75.6349 1058.22 76.3136 1057.84 76.7586C1057.62 77.0103 1057.33 77.1361 1057.02 77.1361H1057.02Z" fill="#030303"/>
<path d="M1057.06 95.0458C1056.82 95.0458 1056.57 94.9604 1056.38 94.7941C1055.93 94.4121 1055.87 93.7379 1056.25 93.293L1080.9 63.9665C1081.28 63.508 1081.96 63.4676 1082.4 63.8361C1082.85 64.2182 1082.91 64.8923 1082.53 65.3373L1057.88 94.6638C1057.67 94.92 1057.37 95.0458 1057.06 95.0458Z" fill="#030303"/>
<path d="M1056.58 106.874C1056.36 106.874 1056.13 106.807 1055.94 106.667L1039.94 94.748C1039.47 94.3975 1039.37 93.7233 1039.72 93.2514C1040.07 92.7795 1040.74 92.6806 1041.22 93.0311L1057.21 104.951C1057.68 105.301 1057.78 105.975 1057.43 106.447C1057.23 106.726 1056.9 106.874 1056.58 106.874Z" fill="#030303"/>
<path d="M1057.02 296.999C1056.44 296.999 1055.96 296.523 1055.96 295.934V54.1716C1055.96 53.5829 1056.44 53.1064 1057.02 53.1064C1057.61 53.1064 1058.09 53.5829 1058.09 54.1716V295.934C1058.09 296.523 1057.61 296.999 1057.02 296.999Z" fill="#030303"/>
<path d="M1096.81 82.4024C1093.57 76.9731 1089.92 70.6898 1089.68 61.0491C1089.55 55.9839 1090.41 52.0197 1091.14 48.541C1092.36 43.0487 1093.33 38.352 1090.53 31.7047C1087.85 25.2371 1083.28 21.273 1081.15 19.3224C1073.29 12.4908 1064.69 9.19634 1055.62 9.37612C1052.88 9.43904 1038.86 10.293 1029.79 21.5157C1024.91 27.4349 1023.51 33.6553 1023.09 35.9744C1021.44 43.233 1022.78 47.687 1024.19 52.4467C1025.16 55.7412 1026.13 59.157 1026.38 63.8537C1026.74 72.8831 1023.7 78.7394 1020.77 84.353C1017.6 90.452 1014.62 96.2499 1016.68 105.216C1018.21 111.868 1021.25 117.356 1025.77 121.567C1033.87 129.073 1044.1 129.743 1052.88 129.743H1056.05C1056.72 129.743 1057.33 129.743 1058 129.68C1066.59 129.496 1079.44 128.705 1090.17 119.064C1092.79 116.686 1099 111.194 1101.26 102.286C1103.51 93.9263 1100.22 88.3171 1096.81 82.3979L1096.81 82.4024ZM1099.36 101.742C1097.17 110.102 1091.32 115.347 1088.83 117.603C1078.65 126.754 1066.34 127.549 1057.99 127.671C1057.32 127.734 1056.71 127.734 1056.04 127.734H1055.8C1046.35 127.855 1035.57 127.918 1027.16 120.107C1022.96 116.142 1020.03 111.014 1018.63 104.794C1016.68 96.56 1019.36 91.3105 1022.53 85.2699C1025.46 79.6563 1028.75 73.373 1028.32 63.7323C1028.14 58.7929 1027.04 55.1299 1026.07 51.8984C1024.73 47.2016 1023.51 43.1746 1025.03 36.4014C1025.46 34.1452 1026.73 28.3473 1031.3 22.7966C1039.89 12.2436 1053.06 11.4481 1055.68 11.3896H1056.35C1064.69 11.3896 1072.61 14.5627 1079.8 20.846C1081.81 22.6753 1086.14 26.4596 1088.7 32.5002C1091.26 38.5408 1090.35 42.7476 1089.19 48.1185C1088.46 51.4759 1087.73 55.3187 1087.73 60.0783V61.1166C1087.97 71.3055 1091.68 77.7102 1095.04 83.4451C1098.45 89.2385 1101.31 94.2409 1099.36 101.747V101.742Z" fill="#030303"/>
<path d="M487.596 294.998H405.361C403.079 294.998 400.865 294.485 398.952 293.507C394.52 291.249 392.896 287.453 394.383 282.821C395.347 279.801 396.965 277.808 399.195 276.893C401.134 276.095 403.132 276.285 404.597 276.65C402.51 273.16 398.747 265.609 400.776 259.274C401.967 255.568 404.95 252.882 409.646 251.295C423.196 246.727 430.043 249.302 432.736 251.015C432.794 249.154 433.31 246.134 435.687 243.512C439.087 239.763 445.048 238.161 453.412 238.753C461.971 239.356 468.064 241.825 471.511 246.097C473.729 248.842 474.293 251.676 474.404 253.41C476.481 251.919 480.797 249.365 485.488 249.831C488.734 250.153 491.549 251.866 493.863 254.923C498.19 260.639 494.711 268.766 493.32 271.5C495.402 272.013 500.103 273.535 502.701 277.231C504.293 279.495 504.825 282.186 504.272 285.221C503.745 288.14 501.61 290.599 497.926 292.524C494.832 294.142 491.259 294.998 487.596 294.998ZM402.114 277.866C401.345 277.866 400.539 277.988 399.759 278.31C397.972 279.05 396.654 280.721 395.832 283.286C394.567 287.231 395.848 290.213 399.643 292.143C401.345 293.01 403.321 293.465 405.361 293.465H487.596C491.011 293.465 494.342 292.672 497.22 291.165C500.461 289.473 502.327 287.379 502.77 284.946C503.244 282.329 502.801 280.029 501.457 278.115C498.495 273.895 492.102 272.795 492.039 272.785C491.791 272.742 491.581 272.584 491.47 272.351C491.364 272.124 491.375 271.854 491.507 271.637C491.565 271.542 497.183 261.839 492.645 255.837C490.6 253.135 488.139 251.623 485.335 251.343C479.58 250.772 474.177 255.51 474.125 255.557C473.888 255.769 473.54 255.811 473.26 255.658C472.981 255.504 472.823 255.192 472.865 254.875C472.865 254.838 473.371 250.798 470.304 247.017C467.131 243.11 461.412 240.836 453.312 240.265C445.438 239.71 439.888 241.143 436.82 244.527C433.637 248.033 434.322 252.464 434.327 252.511C434.385 252.85 434.212 253.183 433.901 253.326C433.595 253.474 433.226 253.394 432.999 253.141C432.947 253.083 427.17 246.986 410.131 252.734C405.92 254.156 403.263 256.504 402.23 259.724C399.78 267.354 407.005 277.565 407.079 277.67C407.285 277.956 407.269 278.352 407.037 278.617C406.805 278.887 406.42 278.961 406.109 278.797C406.083 278.786 404.26 277.855 402.12 277.855L402.114 277.866Z" fill="#030303"/>
<path d="M428.35 294.998C428.039 294.998 427.75 294.808 427.634 294.496L416.935 265.339C416.787 264.943 416.993 264.504 417.388 264.356C417.783 264.208 418.221 264.414 418.368 264.81L429.067 293.967C429.215 294.363 429.009 294.802 428.614 294.95C428.524 294.982 428.44 294.998 428.35 294.998Z" fill="#030303"/>
<path d="M421.099 275.249C421.009 275.249 420.914 275.233 420.825 275.196C420.43 275.042 420.24 274.598 420.393 274.207L426.106 259.486C426.259 259.095 426.701 258.899 427.091 259.052C427.487 259.206 427.676 259.65 427.524 260.041L421.81 274.762C421.694 275.063 421.405 275.249 421.099 275.249Z" fill="#030303"/>
<path d="M424.956 285.75C424.693 285.75 424.434 285.612 424.297 285.369C424.087 285.004 424.213 284.534 424.577 284.322L433.763 278.992C434.127 278.781 434.596 278.907 434.807 279.272C435.018 279.637 434.891 280.108 434.527 280.319L425.341 285.649C425.22 285.718 425.088 285.75 424.961 285.75H424.956Z" fill="#030303"/>
<path d="M451.752 294.374C451.451 294.374 451.161 294.194 451.045 293.893L440.763 268.099C440.721 267.993 440.705 267.882 440.71 267.771L441.332 256.826C441.358 256.403 441.711 256.075 442.138 256.107C442.56 256.133 442.881 256.493 442.855 256.916L442.244 267.687L452.463 293.322C452.621 293.713 452.431 294.157 452.036 294.316C451.941 294.353 451.846 294.369 451.752 294.369V294.374Z" fill="#030303"/>
<path d="M448.917 286.892C448.817 286.892 448.717 286.871 448.617 286.829C448.227 286.665 448.047 286.215 448.211 285.824L459.379 259.454C459.542 259.063 459.99 258.883 460.38 259.047C460.77 259.211 460.949 259.66 460.786 260.052L449.618 286.421C449.497 286.712 449.212 286.887 448.917 286.887V286.892Z" fill="#030303"/>
<path d="M455.272 271.886C454.977 271.886 454.698 271.711 454.571 271.426C454.403 271.04 454.582 270.585 454.967 270.421L464.843 266.112C465.228 265.942 465.681 266.122 465.845 266.508C466.014 266.894 465.834 267.349 465.45 267.513L455.573 271.822C455.473 271.865 455.372 271.886 455.267 271.886H455.272Z" fill="#030303"/>
<path d="M468.891 294.998C468.807 294.998 468.722 294.982 468.638 294.956C468.243 294.818 468.032 294.38 468.169 293.983L474.478 275.851L472.448 269.3C472.322 268.898 472.549 268.47 472.949 268.343C473.35 268.216 473.777 268.443 473.903 268.845L476.006 275.635C476.053 275.793 476.053 275.957 475.995 276.116L469.608 294.485C469.497 294.803 469.202 294.998 468.886 294.998H468.891Z" fill="#030303"/>
<path d="M472.084 286.321C471.747 286.321 471.436 286.094 471.347 285.745C471.241 285.338 471.489 284.92 471.895 284.814L480.385 282.625C480.796 282.519 481.208 282.768 481.313 283.175C481.418 283.582 481.171 284 480.765 284.106L472.274 286.295C472.211 286.31 472.148 286.321 472.084 286.321Z" fill="#030303"/>
<path d="M568.946 274.513C568.782 274.455 565.251 273.218 560.903 273.588C561.504 271.193 562.484 265.561 559.77 261.474C557.999 258.809 555.005 257.312 550.868 257.027C539.732 256.26 536.448 260.221 535.489 262.41C534.398 261.416 532.39 259.771 529.67 258.37C524.136 255.514 518.286 255.033 512.752 256.979C505.753 259.433 502.78 263.504 501.521 266.486C500.535 268.813 500.409 270.838 500.419 271.848C498.074 272.477 490.063 275.068 488.724 281.218C488.197 283.629 488.977 286.194 491.033 288.848C494.021 292.698 498.796 295.003 503.808 295.003H556.075C558.779 295.003 561.356 294.548 563.728 293.66C568.334 291.931 571.275 288.996 572.235 285.179C572.614 283.656 572.772 282.339 572.772 281.207C572.772 276.01 569.415 274.688 568.946 274.524V274.513ZM570.754 284.798C569.705 288.98 566.063 291.143 563.19 292.222C560.987 293.047 558.589 293.47 556.07 293.47H503.803C499.26 293.47 494.933 291.386 492.229 287.907C490.463 285.628 489.783 283.486 490.21 281.541C491.539 275.428 501.278 273.202 501.378 273.181C501.763 273.096 502.021 272.731 501.969 272.34C501.958 272.245 500.941 262.743 513.253 258.417C515.435 257.651 517.527 257.339 519.493 257.339C528.716 257.339 535.215 264.271 535.294 264.356C535.494 264.578 535.81 264.657 536.095 264.562C536.38 264.472 536.585 264.213 536.617 263.917C536.643 263.658 537.455 257.635 550.763 258.56C554.399 258.809 556.998 260.078 558.494 262.325C561.541 266.904 559.153 274.175 559.127 274.244C559.043 274.497 559.095 274.778 559.264 274.984C559.433 275.19 559.701 275.291 559.965 275.248C564.434 274.571 568.387 275.951 568.424 275.967C568.44 275.967 568.461 275.978 568.471 275.983C568.64 276.031 572.625 277.31 570.743 284.808L570.754 284.798Z" fill="#030303"/>
<path d="M570.753 284.797C569.705 288.98 566.063 291.143 563.19 292.221C560.987 293.046 558.589 293.469 556.07 293.469H537.065L538.329 285.569C538.335 285.543 538.34 285.517 538.34 285.49L539.494 278.267L551.416 271.166C551.78 270.949 551.896 270.478 551.68 270.113C551.463 269.749 550.994 269.632 550.636 269.849L539.81 276.295L541.186 267.708C541.255 267.29 540.97 266.898 540.554 266.83C540.143 266.761 539.747 267.047 539.679 267.464L537.059 283.851L531.82 278.806C531.52 278.51 531.035 278.526 530.745 278.828C530.45 279.134 530.461 279.615 530.766 279.912L536.769 285.686L535.526 293.464H517.733L515.751 286.791L522.66 267.062C522.803 266.666 522.592 266.227 522.191 266.084C521.796 265.941 521.359 266.153 521.222 266.555L515.008 284.295L512.077 274.449C511.956 274.047 511.529 273.815 511.129 273.936C510.723 274.058 510.496 274.486 510.612 274.888L516.141 293.464H503.808C499.265 293.464 494.938 291.381 492.234 287.901C490.468 285.622 489.789 283.481 490.215 281.535C491.544 275.422 501.283 273.196 501.384 273.175C501.768 273.09 502.027 272.726 501.974 272.334C501.963 272.239 500.946 262.737 513.258 258.412C515.44 257.645 517.532 257.333 519.498 257.333C528.721 257.333 535.22 264.265 535.299 264.35C535.499 264.572 535.815 264.651 536.1 264.556C536.385 264.466 536.59 264.207 536.622 263.911C536.648 263.652 537.46 257.629 550.768 258.554C554.404 258.803 557.003 260.072 558.5 262.319C561.546 266.898 559.158 274.169 559.132 274.238C559.048 274.492 559.1 274.772 559.269 274.978C559.438 275.184 559.706 275.285 559.97 275.242C564.439 274.566 568.392 275.946 568.429 275.962C568.445 275.962 568.466 275.972 568.477 275.977C568.645 276.025 572.63 277.305 570.748 284.803L570.753 284.797Z" fill="#CE6326"/>
<path d="M517.385 294.961C517.311 294.982 517.237 294.993 517.163 294.993C516.837 294.993 516.531 294.776 516.436 294.443L516.141 293.459L510.612 274.884C510.491 274.482 510.723 274.053 511.129 273.932C511.529 273.81 511.956 274.043 512.077 274.445L515.008 284.29L515.751 286.786L517.733 293.459L517.896 294.004C518.017 294.406 517.785 294.834 517.385 294.956V294.961Z" fill="#030303"/>
<path d="M522.66 267.068L515.751 286.797L515.671 287.024C515.561 287.341 515.266 287.537 514.949 287.537C514.865 287.537 514.781 287.521 514.696 287.489C514.301 287.352 514.09 286.913 514.227 286.516L515.007 284.301L521.221 266.56C521.358 266.164 521.796 265.952 522.191 266.09C522.592 266.233 522.797 266.666 522.66 267.068Z" fill="#030303"/>
<path d="M541.186 267.708L539.81 276.295L539.494 278.262L538.34 285.485C538.34 285.511 538.334 285.538 538.329 285.564L537.064 293.464L536.922 294.347C536.859 294.723 536.537 294.992 536.168 294.992C536.126 294.992 536.089 294.992 536.047 294.982C535.631 294.918 535.346 294.522 535.414 294.104L535.52 293.459L536.764 285.681L537.059 283.846L539.678 267.459C539.747 267.041 540.137 266.756 540.553 266.825C540.97 266.893 541.254 267.285 541.186 267.702V267.708Z" fill="#030303"/>
<path d="M538.346 285.485C538.346 285.511 538.341 285.538 538.336 285.564C538.309 285.702 538.241 285.834 538.135 285.945C537.988 286.104 537.788 286.183 537.587 286.183C537.398 286.183 537.208 286.114 537.06 285.966L536.77 285.686L530.767 279.912C530.462 279.615 530.451 279.134 530.746 278.828C531.036 278.526 531.521 278.51 531.821 278.806L537.06 283.851L538.114 284.861C538.288 285.03 538.367 285.263 538.346 285.485Z" fill="#030303"/>
<path d="M551.421 271.161L539.499 278.262L539.193 278.447C539.072 278.521 538.935 278.553 538.803 278.553C538.54 278.553 538.287 278.421 538.15 278.178C537.934 277.813 538.049 277.342 538.413 277.125L539.815 276.29L550.641 269.844C550.999 269.627 551.468 269.744 551.684 270.109C551.9 270.474 551.784 270.939 551.421 271.161Z" fill="#030303"/>
<path d="M411.306 281.096C410.968 277.342 409.556 274.703 407.115 273.244C403.221 270.923 397.85 272.324 395.494 273.133C395.621 271.071 395.542 266.957 393.323 264.186C392.016 262.547 390.171 261.637 387.847 261.484C381.496 261.061 377.638 264.715 375.914 266.909C374.433 261.949 369.585 260.464 368.884 260.273C368.241 259.993 363.914 258.354 357.362 261.844C352.139 264.625 352.203 272.297 352.577 276.004C351.291 275.116 349.905 274.682 348.45 274.714C344.555 274.788 341.577 278.14 341.435 278.299C337.229 283.338 338.378 289.012 341.604 291.788C344.971 294.691 350.996 294.823 351.054 294.823C368.81 294.966 382.803 294.992 391.114 294.992C396.395 294.992 399.384 294.982 399.568 294.982C399.911 294.992 405.065 294.998 408.491 291.312C410.747 288.88 411.696 285.443 411.306 281.091V281.096ZM407.384 290.265C404.401 293.491 399.642 293.454 399.589 293.454C399.584 293.454 399.579 293.454 399.573 293.454C399.468 293.454 393.786 293.48 383.915 293.459C383.367 293.459 382.808 293.459 382.239 293.459C379.419 293.454 376.294 293.443 372.889 293.427C372.352 293.427 371.803 293.427 371.245 293.422C368.351 293.411 365.273 293.395 362.021 293.374C361.515 293.374 361.009 293.369 360.493 293.364C357.489 293.348 354.342 293.321 351.069 293.295C351.017 293.295 345.509 293.136 342.6 290.63C339.928 288.33 339.026 283.571 342.6 279.298C342.626 279.267 345.272 276.3 348.487 276.247C348.518 276.247 348.55 276.247 348.576 276.247C350.173 276.247 351.681 276.988 353.051 278.442C353.288 278.685 353.652 278.748 353.952 278.595C354.253 278.442 354.416 278.103 354.353 277.77C354.332 277.659 352.218 266.328 358.079 263.208C364.309 259.887 368.262 261.68 368.293 261.696C368.346 261.722 368.399 261.743 368.457 261.754C368.689 261.807 374.159 263.16 374.765 268.929C374.802 269.268 375.05 269.537 375.382 269.601C375.714 269.664 376.046 269.5 376.204 269.199C376.236 269.13 379.762 262.483 387.747 263.018C389.628 263.144 391.099 263.858 392.132 265.148C394.709 268.363 393.871 274.116 393.86 274.175C393.818 274.45 393.929 274.725 394.145 274.899C394.366 275.068 394.661 275.105 394.914 274.994C394.983 274.962 401.993 271.98 406.335 274.571C408.333 275.766 409.492 278.008 409.782 281.244C410.135 285.136 409.324 288.171 407.379 290.27L407.384 290.265Z" fill="#030303"/>
<path d="M407.385 290.266C404.402 293.491 399.643 293.454 399.59 293.454C399.585 293.454 399.58 293.454 399.574 293.454C399.469 293.454 393.787 293.48 383.916 293.459L388.902 283.783L393.54 282.011C393.935 281.863 394.13 281.419 393.977 281.023C393.83 280.626 393.387 280.43 392.997 280.584L388.886 282.149L386.757 273.678C386.656 273.271 386.24 273.022 385.834 273.123C385.423 273.229 385.181 273.641 385.281 274.053L387.547 283.074L382.308 293.237C382.271 293.306 382.245 293.38 382.24 293.454C379.42 293.449 376.295 293.438 372.89 293.422L379.004 279.41C379.172 279.024 378.998 278.574 378.614 278.405C378.224 278.236 377.776 278.41 377.607 278.802L376.147 282.144L373.807 278.463C373.58 278.109 373.106 278.003 372.753 278.231C372.395 278.458 372.294 278.934 372.521 279.288L375.404 283.825C375.404 283.825 375.409 283.836 375.415 283.836L373.317 288.642L372.078 285.766C371.91 285.38 371.462 285.2 371.077 285.369C370.687 285.538 370.513 285.988 370.682 286.374L372.474 290.53C372.474 290.53 372.484 290.546 372.489 290.556L371.304 293.264C371.282 293.317 371.261 293.369 371.256 293.422C368.363 293.412 365.285 293.396 362.033 293.375C362.033 292.862 361.97 292.037 361.875 290.657C361.769 289.076 361.601 286.876 361.385 284.121C361.342 283.603 361.3 283.085 361.263 282.577C361.327 282.535 361.39 282.487 361.443 282.429L369.543 273.128C369.823 272.811 369.786 272.324 369.469 272.049C369.153 271.774 368.668 271.806 368.394 272.123L361.1 280.499C360.836 277.279 360.62 274.709 360.615 274.672C360.583 274.254 360.215 273.937 359.793 273.974C359.377 274.011 359.066 274.381 359.097 274.804C359.398 278.379 359.767 282.9 360.056 286.622L356.488 284.042C356.146 283.793 355.671 283.873 355.424 284.216C355.181 284.56 355.255 285.036 355.598 285.285L360.041 288.489C360.093 288.531 360.151 288.558 360.209 288.579C360.383 290.905 360.504 292.693 360.515 293.369C357.511 293.354 354.364 293.327 351.091 293.301C351.039 293.301 345.531 293.142 342.622 290.636C339.95 288.336 339.048 283.577 342.622 279.304C342.648 279.272 345.294 276.306 348.509 276.253C348.54 276.253 348.572 276.253 348.598 276.253C350.195 276.253 351.703 276.993 353.073 278.448C353.31 278.691 353.674 278.754 353.974 278.601C354.275 278.448 354.438 278.109 354.375 277.776C354.354 277.665 352.24 266.333 358.101 263.214C364.331 259.893 368.284 261.685 368.315 261.701C368.368 261.728 368.421 261.749 368.479 261.759C368.71 261.812 374.181 263.166 374.787 268.935C374.824 269.273 375.072 269.543 375.404 269.606C375.736 269.67 376.068 269.506 376.226 269.205C376.258 269.136 379.784 262.489 387.768 263.023C389.65 263.15 391.12 263.864 392.154 265.154C394.731 268.369 393.893 274.122 393.882 274.18C393.84 274.455 393.951 274.73 394.167 274.905C394.388 275.074 394.683 275.111 394.936 275C395.005 274.968 402.015 271.986 406.357 274.577C408.355 275.772 409.514 278.014 409.804 281.25C410.157 285.142 409.346 288.177 407.401 290.276L407.385 290.266Z" fill="#CE6326"/>
<path d="M389.032 283.524L388.901 283.783L383.915 293.459L383.667 293.946C383.535 294.21 383.266 294.358 382.987 294.358C382.871 294.358 382.75 294.332 382.639 294.274C382.334 294.115 382.181 293.782 382.239 293.454C382.249 293.38 382.27 293.311 382.307 293.237L387.546 283.074L385.28 274.053C385.174 273.641 385.422 273.228 385.833 273.123C386.244 273.017 386.655 273.271 386.755 273.678L388.885 282.149L389.096 282.984C389.143 283.164 389.122 283.36 389.032 283.524Z" fill="#030303"/>
<path d="M393.533 282.011L388.895 283.783L388.621 283.889C388.531 283.92 388.442 283.936 388.347 283.936C388.041 283.936 387.751 283.751 387.635 283.444C387.488 283.048 387.683 282.604 388.078 282.456L388.879 282.149L392.99 280.584C393.385 280.43 393.823 280.631 393.97 281.023C394.118 281.419 393.923 281.863 393.533 282.011Z" fill="#030303"/>
<path d="M361.863 290.657C361.758 289.076 361.589 286.876 361.373 284.121C361.331 283.603 361.289 283.085 361.252 282.577C361.194 281.869 361.136 281.165 361.083 280.494C360.82 277.274 360.604 274.704 360.598 274.667C360.567 274.249 360.198 273.932 359.776 273.969C359.36 274.006 359.049 274.376 359.08 274.799C359.381 278.373 359.75 282.894 360.04 286.617C360.092 287.299 360.145 287.96 360.187 288.579C360.361 290.905 360.482 292.693 360.493 293.369C360.493 293.454 360.493 293.517 360.493 293.57C360.456 293.755 360.482 293.951 360.582 294.126C360.725 294.363 360.978 294.501 361.236 294.501C361.368 294.501 361.505 294.464 361.626 294.39C361.905 294.221 362.021 294.152 362.016 293.385C362.016 292.872 361.953 292.047 361.858 290.667L361.863 290.657Z" fill="#030303"/>
<path d="M369.527 273.122L361.427 282.423C361.374 282.481 361.316 282.534 361.247 282.571C361.126 282.645 360.989 282.682 360.847 282.682C360.668 282.682 360.488 282.619 360.346 282.497C360.03 282.217 359.993 281.736 360.272 281.419L361.079 280.493L368.373 272.118C368.652 271.8 369.132 271.763 369.448 272.043C369.764 272.324 369.801 272.805 369.522 273.122H369.527Z" fill="#030303"/>
<path d="M361.084 288.309C360.936 288.515 360.699 288.626 360.462 288.626C360.372 288.626 360.277 288.61 360.188 288.573C360.13 288.558 360.072 288.526 360.019 288.484L355.576 285.279C355.233 285.031 355.16 284.555 355.402 284.211C355.65 283.867 356.124 283.788 356.467 284.037L360.035 286.617L360.91 287.246C361.252 287.489 361.326 287.971 361.084 288.314V288.309Z" fill="#030303"/>
<path d="M378.997 279.414L372.883 293.427L372.688 293.876C372.562 294.162 372.288 294.336 371.987 294.336C371.887 294.336 371.782 294.315 371.682 294.273C371.35 294.125 371.171 293.765 371.239 293.421C371.25 293.369 371.265 293.316 371.287 293.263L372.472 290.556L373.305 288.641L375.403 283.835L376.141 282.143L377.601 278.801C377.769 278.41 378.222 278.235 378.607 278.404C378.992 278.574 379.171 279.028 378.997 279.409V279.414Z" fill="#030303"/>
<path d="M376.452 284.052C376.326 284.137 376.184 284.174 376.041 284.174C375.799 284.174 375.551 284.057 375.409 283.835C375.409 283.835 375.404 283.825 375.398 283.825L372.515 279.288C372.289 278.934 372.389 278.458 372.747 278.23C373.1 278.003 373.575 278.109 373.801 278.463L376.142 282.143L376.684 283C376.911 283.354 376.806 283.83 376.447 284.057L376.452 284.052Z" fill="#030303"/>
<path d="M373.458 290.921C373.358 290.963 373.258 290.984 373.158 290.984C372.873 290.984 372.605 290.826 372.473 290.551C372.468 290.54 372.462 290.535 372.457 290.524L370.665 286.368C370.496 285.977 370.676 285.527 371.06 285.364C371.45 285.194 371.898 285.374 372.062 285.76L373.3 288.637L373.854 289.916C374.022 290.302 373.843 290.757 373.453 290.921H373.458Z" fill="#030303"/>
<path d="M1276.19 295.003C1268.83 295.003 1256.43 294.977 1240.7 294.852C1240.65 294.852 1235.31 294.734 1232.32 292.17C1229.47 289.719 1228.45 284.711 1232.18 280.261C1232.3 280.123 1234.94 277.159 1238.39 277.093C1239.68 277.067 1240.91 277.448 1242.05 278.23C1241.72 274.957 1241.66 268.181 1246.29 265.723C1252.09 262.641 1255.93 264.087 1256.5 264.337C1257.12 264.507 1261.41 265.815 1262.73 270.192C1264.25 268.254 1267.67 265.033 1273.3 265.401C1275.35 265.539 1276.99 266.341 1278.15 267.787C1280.11 270.232 1280.18 273.866 1280.07 275.687C1282.16 274.971 1286.91 273.735 1290.36 275.786C1292.53 277.074 1293.78 279.407 1294.08 282.719C1294.43 286.558 1293.59 289.594 1291.59 291.743C1288.55 294.996 1283.98 294.99 1283.68 294.983C1283.52 294.983 1280.87 294.996 1276.19 294.996V295.003ZM1238.51 278.441C1238.51 278.441 1238.46 278.441 1238.43 278.441C1235.58 278.493 1233.23 281.109 1233.21 281.135C1230.05 284.908 1230.85 289.108 1233.21 291.138C1235.79 293.353 1240.67 293.491 1240.72 293.491C1266.65 293.695 1283.52 293.629 1283.69 293.629H1283.7C1283.75 293.629 1287.96 293.662 1290.61 290.81C1292.33 288.956 1293.05 286.275 1292.74 282.838C1292.48 279.979 1291.45 278 1289.68 276.949C1285.84 274.662 1279.63 277.297 1279.56 277.323C1279.34 277.422 1279.07 277.389 1278.88 277.238C1278.68 277.087 1278.58 276.844 1278.62 276.601C1278.63 276.548 1279.37 271.468 1277.09 268.628C1276.18 267.491 1274.87 266.86 1273.2 266.749C1266.16 266.282 1263.1 271.967 1262.98 272.21C1262.84 272.473 1262.54 272.618 1262.26 272.559C1261.96 272.506 1261.74 272.263 1261.71 271.967C1261.17 266.873 1256.33 265.677 1256.12 265.631C1256.08 265.618 1256.02 265.605 1255.98 265.579C1255.95 265.566 1252.44 263.982 1246.93 266.913C1241.74 269.667 1243.61 279.676 1243.63 279.775C1243.69 280.071 1243.54 280.366 1243.27 280.504C1243 280.642 1242.68 280.583 1242.47 280.366C1241.26 279.085 1239.92 278.434 1238.51 278.434V278.441Z" fill="#030303"/>
<path d="M1269.04 294.7C1268.93 294.7 1268.83 294.674 1268.73 294.628C1268.4 294.457 1268.27 294.056 1268.43 293.721L1273.03 284.599L1271.03 276.502C1270.94 276.14 1271.17 275.772 1271.53 275.687C1271.89 275.595 1272.26 275.818 1272.34 276.18L1274.39 284.52C1274.43 284.678 1274.41 284.842 1274.34 284.987L1269.63 294.332C1269.52 294.569 1269.28 294.707 1269.03 294.707L1269.04 294.7Z" fill="#030303"/>
<path d="M1273.75 285.236C1273.48 285.236 1273.23 285.072 1273.12 284.802C1272.99 284.454 1273.16 284.066 1273.51 283.928L1277.86 282.272C1278.21 282.14 1278.6 282.311 1278.73 282.66C1278.86 283.008 1278.69 283.396 1278.35 283.534L1273.99 285.19C1273.92 285.223 1273.84 285.236 1273.75 285.236Z" fill="#030303"/>
<path d="M1249.73 294.556C1249.5 294.556 1249.27 294.438 1249.15 294.228C1249.06 294.076 1249.03 293.899 1249.07 293.741C1249.1 292.762 1248.34 283.35 1247.82 277.166C1247.78 276.791 1248.06 276.469 1248.43 276.436C1248.8 276.403 1249.13 276.679 1249.16 277.054C1249.16 277.093 1249.52 281.273 1249.85 285.407C1250.04 287.839 1250.19 289.778 1250.28 291.178C1250.42 293.207 1250.35 294.304 1250.08 294.471C1249.96 294.536 1249.85 294.569 1249.73 294.569V294.556Z" fill="#030303"/>
<path d="M1249.38 284.133C1249.22 284.133 1249.06 284.08 1248.93 283.968C1248.65 283.725 1248.62 283.298 1248.87 283.015L1256.04 274.8C1256.29 274.517 1256.71 274.491 1257 274.734C1257.28 274.977 1257.31 275.405 1257.06 275.687L1249.89 283.903C1249.75 284.054 1249.56 284.133 1249.38 284.133Z" fill="#030303"/>
<path d="M1249.04 289.377C1248.9 289.377 1248.76 289.338 1248.64 289.252L1244.71 286.419C1244.41 286.203 1244.33 285.782 1244.56 285.473C1244.77 285.171 1245.19 285.098 1245.5 285.322L1249.44 288.154C1249.74 288.371 1249.81 288.792 1249.59 289.101C1249.46 289.285 1249.25 289.384 1249.04 289.384V289.377Z" fill="#030303"/>
<path d="M1259.25 294.418C1259.16 294.418 1259.07 294.398 1258.98 294.359C1258.64 294.208 1258.48 293.813 1258.63 293.472L1264.23 280.702C1264.38 280.36 1264.77 280.202 1265.11 280.353C1265.46 280.505 1265.61 280.899 1265.46 281.241L1259.87 294.011C1259.76 294.267 1259.51 294.418 1259.25 294.418Z" fill="#030303"/>
<path d="M1262.84 285.44C1262.62 285.44 1262.4 285.328 1262.27 285.125L1259.71 281.122C1259.51 280.807 1259.6 280.393 1259.92 280.189C1260.23 279.992 1260.65 280.084 1260.85 280.393L1263.41 284.395C1263.61 284.711 1263.52 285.125 1263.2 285.328C1263.09 285.401 1262.97 285.434 1262.84 285.434V285.44Z" fill="#030303"/>
<path d="M1260.29 291.46C1260.03 291.46 1259.78 291.309 1259.67 291.053L1258.08 287.385C1257.93 287.043 1258.09 286.643 1258.44 286.498C1258.78 286.353 1259.18 286.504 1259.32 286.853L1260.92 290.52C1261.07 290.862 1260.91 291.263 1260.56 291.407C1260.48 291.447 1260.38 291.46 1260.29 291.46Z" fill="#030303"/>
<path d="M1412.09 284.88C1410.9 283.159 1409.44 282.146 1407.75 281.87C1405.99 281.588 1404.38 282.173 1403.4 282.679C1403.21 280.589 1402.47 276.146 1399.55 273.385C1397.79 271.71 1395.52 270.934 1392.81 271.059C1384.58 271.46 1382.83 278.236 1382.46 281.128C1381.62 280.602 1380.34 280.043 1378.84 280.221C1377.02 280.431 1375.41 281.647 1374.05 283.842C1371.22 288.357 1373.35 291.755 1374.87 293.385C1375.83 294.41 1377.19 294.995 1378.63 294.995H1407.04C1408.59 294.93 1411.52 293.457 1412.77 290.96C1413.44 289.619 1413.87 287.477 1412.08 284.874L1412.09 284.88ZM1411.57 290.355C1410.54 292.426 1408.06 293.595 1407 293.648H1378.63C1377.57 293.648 1376.56 293.214 1375.86 292.458C1374.33 290.815 1372.97 288.114 1375.2 284.558C1376.34 282.731 1377.61 281.726 1378.99 281.561C1379.13 281.548 1379.26 281.535 1379.4 281.535C1381.17 281.535 1382.56 282.869 1382.57 282.882C1382.77 283.073 1383.06 283.132 1383.31 283.027C1383.56 282.922 1383.73 282.672 1383.73 282.396C1383.73 282.008 1383.77 272.847 1392.88 272.4C1395.21 272.288 1397.14 272.945 1398.63 274.352C1402.04 277.592 1402.11 283.77 1402.11 283.829C1402.11 284.085 1402.25 284.315 1402.48 284.434C1402.71 284.545 1402.99 284.519 1403.19 284.368C1403.21 284.355 1405.25 282.836 1407.53 283.198C1408.85 283.408 1410 284.23 1410.97 285.636C1412.11 287.286 1412.31 288.876 1411.57 290.355Z" fill="#030303"/>
<path d="M1411.57 290.355C1410.53 292.425 1408.06 293.595 1407 293.648H1397.72L1403.38 289.717C1403.69 289.507 1403.76 289.086 1403.55 288.778C1403.34 288.469 1402.92 288.39 1402.61 288.607L1395.45 293.582C1395.45 293.582 1395.4 293.628 1395.37 293.648H1394.63L1394.71 285.104C1394.71 285.018 1394.7 284.933 1394.67 284.854L1392.51 279.32C1392.37 278.972 1391.99 278.801 1391.64 278.932C1391.29 279.07 1391.12 279.465 1391.26 279.806L1393.37 285.215L1393.32 289.487L1387.25 287.016C1386.91 286.872 1386.51 287.042 1386.37 287.384C1386.23 287.733 1386.4 288.127 1386.75 288.265L1393.31 290.933L1393.28 293.635H1378.63C1377.57 293.635 1376.56 293.201 1375.86 292.445C1374.33 290.802 1372.97 288.101 1375.19 284.545C1376.34 282.718 1377.61 281.712 1378.99 281.548C1379.13 281.535 1379.26 281.522 1379.4 281.522C1381.17 281.522 1382.56 282.856 1382.57 282.869C1382.77 283.06 1383.05 283.119 1383.31 283.014C1383.56 282.908 1383.73 282.659 1383.73 282.383C1383.73 281.995 1383.77 272.833 1392.88 272.386C1395.21 272.274 1397.14 272.932 1398.62 274.338C1402.04 277.578 1402.11 283.756 1402.11 283.815C1402.11 284.072 1402.25 284.302 1402.48 284.42C1402.71 284.532 1402.99 284.506 1403.19 284.354C1403.21 284.341 1405.25 282.823 1407.53 283.185C1408.85 283.395 1410 284.216 1410.97 285.623C1412.1 287.273 1412.31 288.863 1411.57 290.342V290.355Z" fill="#FCFCFC"/>
<path d="M1394.72 285.103L1394.63 293.647V294.14C1394.62 294.515 1394.32 294.811 1393.95 294.811C1393.57 294.811 1393.28 294.502 1393.28 294.127V293.641L1393.31 290.94L1393.32 289.487L1393.37 285.215L1391.26 279.806C1391.12 279.458 1391.29 279.063 1391.64 278.932C1391.99 278.8 1392.38 278.971 1392.51 279.32L1394.67 284.854C1394.7 284.932 1394.72 285.018 1394.72 285.103Z" fill="#030303"/>
<path d="M1394.3 290.618C1394.2 290.881 1393.94 291.039 1393.68 291.039C1393.59 291.039 1393.51 291.026 1393.42 290.986L1393.31 290.94L1386.75 288.272C1386.4 288.127 1386.24 287.74 1386.37 287.391C1386.52 287.043 1386.91 286.879 1387.26 287.023L1393.32 289.494L1393.93 289.738C1394.27 289.882 1394.44 290.27 1394.3 290.618Z" fill="#030303"/>
<path d="M1403.38 289.718L1397.73 293.648L1396.22 294.693C1396.11 294.772 1395.97 294.811 1395.84 294.811C1395.62 294.811 1395.41 294.713 1395.28 294.522C1395.09 294.246 1395.13 293.872 1395.37 293.648C1395.4 293.622 1395.43 293.602 1395.45 293.582L1402.62 288.607C1402.92 288.39 1403.34 288.469 1403.56 288.778C1403.77 289.087 1403.69 289.508 1403.38 289.718Z" fill="#030303"/>
<path d="M1380.79 279.077C1378.49 275.811 1374.32 274.47 1372.48 274.016C1373.71 271.604 1376.79 264.427 1372.96 259.38C1370.91 256.679 1368.42 255.167 1365.54 254.884C1361.38 254.47 1357.56 256.731 1355.72 258.046C1355.62 256.514 1355.12 254.01 1353.16 251.585C1350.1 247.819 1344.71 245.637 1337.12 245.105C1329.71 244.586 1324.43 245.999 1321.41 249.304C1319.3 251.618 1318.85 254.286 1318.8 255.929C1316.4 254.418 1310.34 252.144 1298.34 256.179C1294.18 257.579 1291.53 259.945 1290.48 263.225C1288.68 268.818 1292.02 275.489 1293.87 278.564C1292.57 278.242 1290.8 278.072 1289.08 278.775C1287.11 279.583 1285.68 281.345 1284.82 284.013C1283.51 288.107 1284.95 291.459 1288.87 293.451C1290.57 294.312 1292.53 294.765 1294.55 294.765H1367.41C1370.65 294.765 1373.81 294.009 1376.55 292.583C1379.81 290.888 1381.71 288.712 1382.17 286.136C1382.66 283.454 1382.19 281.075 1380.78 279.077H1380.79ZM1380.85 285.893C1380.46 288.042 1378.81 289.889 1375.94 291.38C1373.39 292.708 1370.44 293.411 1367.41 293.411H1294.56C1292.74 293.411 1291 293.004 1289.49 292.241C1286.13 290.539 1284.99 287.91 1286.12 284.42C1286.85 282.153 1288.02 280.674 1289.6 280.023C1290.29 279.734 1291 279.629 1291.68 279.629C1293.58 279.629 1295.19 280.451 1295.21 280.464C1295.49 280.608 1295.83 280.543 1296.04 280.306C1296.24 280.07 1296.25 279.721 1296.08 279.465C1296.01 279.373 1289.61 270.356 1291.78 263.619C1292.69 260.773 1295.05 258.696 1298.78 257.441C1313.87 252.367 1318.99 257.75 1319.04 257.802C1319.24 258.026 1319.57 258.092 1319.83 257.967C1320.1 257.842 1320.26 257.546 1320.22 257.25C1320.21 257.211 1319.62 253.268 1322.44 250.185C1325.16 247.208 1330.07 245.946 1337.03 246.439C1344.21 246.945 1349.28 248.95 1352.09 252.4C1354.8 255.732 1354.36 259.301 1354.36 259.34C1354.32 259.616 1354.46 259.892 1354.71 260.03C1354.96 260.162 1355.27 260.129 1355.48 259.938C1355.52 259.892 1360.31 255.706 1365.41 256.219C1367.89 256.462 1370.07 257.796 1371.88 260.182C1375.9 265.479 1370.92 274.043 1370.88 274.135C1370.76 274.325 1370.75 274.562 1370.84 274.766C1370.93 274.969 1371.13 275.114 1371.35 275.147C1371.41 275.16 1377.07 276.133 1379.7 279.859C1380.89 281.548 1381.28 283.579 1380.86 285.893H1380.85Z" fill="#030303"/>
<path d="M1380.85 285.893C1380.47 288.042 1378.81 289.889 1375.94 291.381C1373.39 292.708 1370.44 293.412 1367.41 293.412H1351.79L1354.02 287.036L1361.37 285.15C1361.73 285.058 1361.94 284.69 1361.85 284.329C1361.76 283.967 1361.39 283.75 1361.03 283.842L1354.56 285.505L1357.15 278.091C1357.19 277.953 1357.2 277.802 1357.15 277.664L1355.29 271.67C1355.18 271.315 1354.8 271.118 1354.44 271.23C1354.08 271.342 1353.89 271.716 1354 272.078L1355.8 277.861L1350.37 293.418H1336.33C1336.33 293.372 1336.31 293.333 1336.29 293.287L1333.82 287.109L1339.31 274.194L1347.81 270.5C1348.15 270.349 1348.31 269.948 1348.16 269.613C1348 269.271 1347.6 269.114 1347.27 269.265L1340.07 272.393L1343.67 263.922C1343.82 263.58 1343.66 263.179 1343.32 263.034C1342.98 262.89 1342.58 263.047 1342.43 263.389L1338.18 273.405L1333.11 285.328L1327.24 270.652L1327.79 261.135C1327.81 260.767 1327.53 260.445 1327.15 260.425C1326.78 260.399 1326.46 260.688 1326.43 261.063L1325.88 270.724C1325.88 270.823 1325.89 270.921 1325.93 271.013L1334.89 293.418H1315.41L1312.76 286.228L1320.41 281.805C1320.73 281.621 1320.84 281.207 1320.66 280.885C1320.47 280.563 1320.06 280.451 1319.73 280.635L1312.29 284.94L1309.24 276.659L1314.21 263.895C1314.35 263.547 1314.18 263.153 1313.83 263.021C1313.48 262.883 1313.09 263.061 1312.95 263.402L1308.54 274.74L1306.1 268.108C1305.97 267.76 1305.58 267.576 1305.23 267.707C1304.88 267.832 1304.7 268.226 1304.83 268.575L1307.88 276.843L1311.29 286.097C1311.29 286.097 1311.31 286.156 1311.32 286.182L1313.98 293.418H1294.59C1292.77 293.418 1291.02 293.011 1289.52 292.248C1286.16 290.546 1285.02 287.917 1286.15 284.427C1286.88 282.16 1288.05 280.681 1289.62 280.03C1290.31 279.741 1291.03 279.636 1291.71 279.636C1293.61 279.636 1295.22 280.458 1295.24 280.471C1295.52 280.615 1295.86 280.55 1296.06 280.313C1296.27 280.076 1296.28 279.728 1296.1 279.472C1296.04 279.38 1289.64 270.362 1291.8 263.626C1292.72 260.78 1295.08 258.703 1298.8 257.448C1313.9 252.374 1319.02 257.757 1319.07 257.809C1319.26 258.033 1319.59 258.098 1319.86 257.974C1320.13 257.849 1320.29 257.553 1320.24 257.257C1320.24 257.218 1319.65 253.274 1322.46 250.192C1325.19 247.215 1330.1 245.953 1337.06 246.446C1344.24 246.952 1349.31 248.956 1352.11 252.407C1354.83 255.739 1354.39 259.308 1354.39 259.347C1354.35 259.623 1354.49 259.899 1354.73 260.037C1354.98 260.169 1355.29 260.136 1355.5 259.945C1355.55 259.899 1360.33 255.713 1365.43 256.225C1367.92 256.469 1370.1 257.803 1371.91 260.188C1375.93 265.486 1370.95 274.05 1370.9 274.142C1370.79 274.332 1370.78 274.569 1370.87 274.772C1370.96 274.976 1371.15 275.121 1371.38 275.154C1371.44 275.167 1377.09 276.14 1379.72 279.866C1380.91 281.555 1381.31 283.586 1380.89 285.899L1380.85 285.893Z" fill="#CE6326"/>
<path d="M1315.16 294.726C1315.08 294.759 1315 294.772 1314.92 294.772C1314.64 294.772 1314.39 294.602 1314.29 294.332L1313.95 293.425L1311.29 286.189C1311.29 286.189 1311.27 286.13 1311.26 286.104L1307.85 276.85L1304.8 268.582C1304.68 268.233 1304.86 267.846 1305.2 267.714C1305.55 267.583 1305.94 267.76 1306.07 268.115L1308.51 274.747L1309.21 276.659L1312.26 284.94L1312.74 286.228L1315.39 293.419L1315.55 293.859C1315.68 294.207 1315.5 294.595 1315.15 294.726H1315.16Z" fill="#030303"/>
<path d="M1314.19 263.896L1309.23 276.659L1309.13 276.896C1309.03 277.165 1308.77 277.33 1308.5 277.33C1308.42 277.33 1308.34 277.317 1308.26 277.284C1308.06 277.205 1307.92 277.04 1307.86 276.85C1307.81 276.712 1307.82 276.554 1307.87 276.41L1308.52 274.747L1312.93 263.409C1313.07 263.061 1313.46 262.89 1313.81 263.028C1314.16 263.166 1314.33 263.554 1314.19 263.902L1314.19 263.896Z" fill="#030303"/>
<path d="M1320.39 281.804L1312.74 286.227L1312.25 286.51C1312.14 286.569 1312.03 286.602 1311.91 286.602C1311.68 286.602 1311.45 286.477 1311.33 286.267C1311.32 286.24 1311.3 286.214 1311.29 286.188C1311.28 286.162 1311.27 286.129 1311.26 286.102C1311.18 285.813 1311.3 285.504 1311.57 285.347L1312.27 284.946L1319.71 280.641C1320.03 280.457 1320.45 280.562 1320.64 280.891C1320.82 281.213 1320.72 281.627 1320.39 281.811V281.804Z" fill="#030303"/>
<path d="M1335.9 294.167C1335.83 294.2 1335.74 294.213 1335.65 294.213C1335.39 294.213 1335.14 294.055 1335.03 293.786L1334.88 293.411L1325.91 271.006C1325.88 270.914 1325.86 270.815 1325.87 270.717L1326.42 261.055C1326.44 260.681 1326.76 260.398 1327.14 260.418C1327.51 260.438 1327.79 260.76 1327.77 261.128L1327.23 270.645L1333.1 285.321L1333.81 287.102L1336.29 293.28C1336.3 293.326 1336.32 293.365 1336.33 293.411C1336.38 293.72 1336.21 294.035 1335.91 294.16L1335.9 294.167Z" fill="#030303"/>
<path d="M1343.66 263.915L1340.06 272.386L1339.29 274.194L1333.8 287.108L1333.76 287.2C1333.65 287.457 1333.4 287.614 1333.14 287.614C1333.05 287.614 1332.96 287.595 1332.87 287.562C1332.53 287.417 1332.37 287.016 1332.52 286.675L1333.09 285.327L1338.16 273.405L1342.41 263.389C1342.56 263.047 1342.96 262.883 1343.3 263.034C1343.64 263.185 1343.8 263.579 1343.65 263.921L1343.66 263.915Z" fill="#030303"/>
<path d="M1347.79 270.501L1339.3 274.194L1339.05 274.299C1338.96 274.339 1338.87 274.358 1338.78 274.358C1338.51 274.358 1338.26 274.207 1338.16 273.951C1338.08 273.767 1338.09 273.57 1338.16 273.399C1338.22 273.248 1338.34 273.129 1338.5 273.057L1340.06 272.38L1347.25 269.252C1347.6 269.101 1348 269.258 1348.14 269.6C1348.29 269.942 1348.14 270.336 1347.79 270.487V270.501Z" fill="#030303"/>
<path d="M1357.13 278.091L1354.54 285.505L1354.01 287.043L1351.78 293.418L1351.47 294.318C1351.37 294.594 1351.11 294.772 1350.83 294.772C1350.76 294.772 1350.68 294.758 1350.61 294.732C1350.26 294.607 1350.07 294.226 1350.19 293.871L1350.35 293.418L1355.78 277.861L1353.98 272.077C1353.87 271.722 1354.07 271.341 1354.42 271.23C1354.77 271.118 1355.15 271.315 1355.27 271.67L1357.13 277.664C1357.18 277.802 1357.17 277.953 1357.13 278.091H1357.13Z" fill="#030303"/>
<path d="M1361.36 285.149L1354.01 287.036L1353.83 287.082C1353.77 287.095 1353.72 287.101 1353.66 287.101C1353.36 287.101 1353.08 286.898 1353.01 286.595C1352.91 286.234 1353.13 285.866 1353.49 285.774L1354.54 285.504L1361.02 283.841C1361.38 283.749 1361.75 283.966 1361.84 284.328C1361.93 284.689 1361.71 285.057 1361.35 285.149H1361.36Z" fill="#030303"/>
<path d="M1251.21 276.772C1251.07 276.72 1247.94 275.629 1244.09 275.951C1244.62 273.834 1245.49 268.859 1243.08 265.251C1241.51 262.898 1238.87 261.577 1235.2 261.321C1225.33 260.644 1222.42 264.14 1221.57 266.072C1220.61 265.192 1218.83 263.746 1216.42 262.504C1211.52 259.986 1206.33 259.559 1201.43 261.275C1195.23 263.443 1192.6 267.039 1191.48 269.667C1190.6 271.725 1190.49 273.512 1190.51 274.406C1188.43 274.965 1181.33 277.245 1180.14 282.681C1179.67 284.81 1180.36 287.078 1182.19 289.424C1184.83 292.822 1189.06 294.859 1193.5 294.859H1239.8C1242.2 294.859 1244.48 294.458 1246.59 293.67C1250.67 292.145 1253.28 289.555 1254.13 286.177C1254.46 284.83 1254.61 283.673 1254.61 282.668C1254.61 278.08 1251.64 276.91 1251.21 276.766V276.772ZM1252.82 285.849C1251.89 289.542 1248.66 291.455 1246.12 292.408C1244.17 293.137 1242.05 293.505 1239.81 293.505H1193.51C1189.48 293.505 1185.65 291.665 1183.26 288.596C1181.69 286.585 1181.09 284.692 1181.47 282.976C1182.65 277.581 1191.27 275.615 1191.36 275.596C1191.7 275.517 1191.93 275.201 1191.89 274.853C1191.87 274.768 1190.97 266.375 1201.88 262.556C1203.81 261.879 1205.67 261.603 1207.41 261.603C1215.58 261.603 1221.34 267.729 1221.41 267.801C1221.59 267.998 1221.87 268.064 1222.12 267.985C1222.37 267.906 1222.55 267.676 1222.58 267.413C1222.61 267.183 1223.32 261.866 1235.11 262.681C1238.33 262.905 1240.64 264.022 1241.96 266.007C1244.66 270.049 1242.55 276.47 1242.53 276.529C1242.45 276.752 1242.49 277.002 1242.65 277.18C1242.8 277.364 1243.04 277.449 1243.27 277.416C1247.23 276.818 1250.73 278.041 1250.76 278.054C1250.77 278.054 1250.79 278.06 1250.81 278.067C1250.96 278.113 1254.49 279.237 1252.82 285.862V285.849Z" fill="#030303"/>
<path d="M1252.82 285.848C1251.89 289.542 1248.66 291.454 1246.12 292.407C1244.17 293.137 1242.05 293.505 1239.81 293.505H1222.97L1224.09 286.532C1224.09 286.532 1224.1 286.486 1224.1 286.459L1225.13 280.078L1235.69 273.808C1236.01 273.617 1236.12 273.203 1235.93 272.881C1235.74 272.559 1235.32 272.454 1235 272.644L1225.41 278.336L1226.63 270.751C1226.69 270.383 1226.44 270.035 1226.06 269.976C1225.69 269.917 1225.35 270.167 1225.29 270.535L1222.97 285.007L1218.33 280.557C1218.06 280.301 1217.63 280.308 1217.37 280.577C1217.12 280.847 1217.12 281.274 1217.39 281.537L1222.71 286.637L1221.61 293.505H1205.85L1204.1 287.616L1210.22 270.193C1210.35 269.844 1210.16 269.457 1209.81 269.332C1209.46 269.207 1209.07 269.391 1208.95 269.746L1203.44 285.414L1200.84 276.719C1200.74 276.364 1200.36 276.154 1200 276.266C1199.64 276.371 1199.44 276.752 1199.54 277.107L1204.44 293.511H1193.52C1189.49 293.511 1185.66 291.671 1183.26 288.602C1181.7 286.591 1181.1 284.698 1181.48 282.983C1182.65 277.587 1191.28 275.622 1191.37 275.602C1191.71 275.523 1191.93 275.208 1191.89 274.859C1191.88 274.774 1190.98 266.381 1201.89 262.562C1203.82 261.885 1205.67 261.609 1207.42 261.609C1215.59 261.609 1221.34 267.735 1221.42 267.807C1221.59 268.004 1221.88 268.07 1222.13 267.991C1222.38 267.912 1222.56 267.682 1222.59 267.419C1222.61 267.189 1223.33 261.872 1235.12 262.687C1238.34 262.911 1240.65 264.028 1241.97 266.013C1244.67 270.055 1242.55 276.476 1242.53 276.535C1242.45 276.759 1242.5 277.008 1242.66 277.186C1242.81 277.37 1243.04 277.455 1243.28 277.422C1247.23 276.824 1250.73 278.047 1250.77 278.06C1250.78 278.06 1250.8 278.066 1250.81 278.073C1250.96 278.119 1254.49 279.243 1252.82 285.868L1252.82 285.848Z" fill="#CE6326"/>
<path d="M1205.53 294.826C1205.47 294.846 1205.4 294.859 1205.33 294.859C1205.05 294.859 1204.78 294.668 1204.69 294.372L1204.43 293.505L1199.54 277.1C1199.43 276.745 1199.64 276.364 1200 276.259C1200.35 276.154 1200.73 276.358 1200.84 276.713L1203.43 285.408L1204.09 287.61L1205.85 293.498L1205.99 293.978C1206.1 294.333 1205.89 294.714 1205.54 294.819L1205.53 294.826Z" fill="#030303"/>
<path d="M1210.21 270.193L1204.08 287.616L1204.01 287.813C1203.91 288.089 1203.65 288.267 1203.38 288.267C1203.3 288.267 1203.22 288.254 1203.15 288.228C1202.8 288.103 1202.61 287.721 1202.74 287.367L1203.43 285.408L1208.94 269.74C1209.06 269.391 1209.44 269.201 1209.8 269.326C1210.15 269.45 1210.34 269.838 1210.21 270.186V270.193Z" fill="#030303"/>
<path d="M1226.62 270.758L1225.41 278.343L1225.13 280.084L1224.1 286.466C1224.1 286.466 1224.1 286.512 1224.09 286.538L1222.97 293.511L1222.85 294.294C1222.8 294.629 1222.51 294.865 1222.18 294.865C1222.15 294.865 1222.11 294.865 1222.07 294.852C1221.71 294.793 1221.45 294.445 1221.51 294.077L1221.6 293.511L1222.7 286.643L1222.95 285.02L1225.27 270.548C1225.33 270.18 1225.68 269.93 1226.05 269.989C1226.42 270.048 1226.67 270.397 1226.62 270.765L1226.62 270.758Z" fill="#030303"/>
<path d="M1224.1 286.46C1224.1 286.46 1224.1 286.506 1224.09 286.532C1224.06 286.657 1224.01 286.769 1223.91 286.867C1223.78 287.005 1223.6 287.078 1223.43 287.078C1223.26 287.078 1223.09 287.018 1222.96 286.887L1222.7 286.644L1217.39 281.544C1217.12 281.287 1217.11 280.86 1217.37 280.584C1217.62 280.315 1218.05 280.308 1218.32 280.564L1222.96 285.014L1223.89 285.908C1224.04 286.059 1224.12 286.263 1224.1 286.46H1224.1Z" fill="#030303"/>
<path d="M1235.69 273.808L1225.13 280.078L1224.85 280.243C1224.75 280.308 1224.62 280.335 1224.51 280.335C1224.28 280.335 1224.05 280.216 1223.93 280.006C1223.74 279.684 1223.85 279.27 1224.17 279.079L1225.41 278.343L1235 272.652C1235.32 272.461 1235.74 272.566 1235.93 272.888C1236.12 273.21 1236.01 273.624 1235.69 273.815V273.808Z" fill="#030303"/>
</g>
</svg>
