<svg width="330" height="1970" viewBox="0 0 330 1970" fill="none" xmlns="http://www.w3.org/2000/svg">
<g opacity="0.7">
<path d="M115.166 1097.26H75.2359C74.1278 1097.26 73.053 1097.01 72.124 1096.54C69.9718 1095.44 69.1836 1093.6 69.9053 1091.35C70.3736 1089.88 71.1592 1088.91 72.2417 1088.47C73.1835 1088.08 74.1534 1088.17 74.8649 1088.35C73.8514 1086.65 72.0242 1082.99 73.0095 1079.91C73.5879 1078.11 75.0363 1076.81 77.3165 1076.04C83.896 1073.82 87.2203 1075.07 88.5281 1075.9C88.5562 1075 88.807 1073.53 89.9612 1072.26C91.6118 1070.44 94.5087 1069.66 98.5675 1069.95C102.724 1070.24 105.682 1071.44 107.356 1073.51C108.433 1074.84 108.707 1076.22 108.761 1077.06C109.769 1076.34 111.865 1075.1 114.142 1075.32C115.719 1075.48 117.085 1076.31 118.209 1077.8C120.31 1080.57 118.621 1084.52 117.945 1085.85C118.956 1086.1 121.239 1086.84 122.501 1088.63C123.273 1089.73 123.532 1091.04 123.263 1092.51C123.007 1093.93 121.971 1095.12 120.182 1096.06C118.68 1096.84 116.945 1097.26 115.166 1097.26ZM73.6595 1088.94C73.2859 1088.94 72.8943 1089 72.5156 1089.16C71.648 1089.52 71.0082 1090.33 70.609 1091.57C69.9948 1093.49 70.6167 1094.94 72.4593 1095.88C73.2859 1096.3 74.2456 1096.52 75.2359 1096.52H115.166C116.824 1096.52 118.442 1096.13 119.839 1095.4C121.413 1094.58 122.319 1093.56 122.534 1092.38C122.764 1091.11 122.549 1089.99 121.897 1089.06C120.458 1087.01 117.354 1086.48 117.323 1086.47C117.203 1086.45 117.101 1086.38 117.047 1086.26C116.996 1086.15 117.001 1086.02 117.065 1085.92C117.093 1085.87 119.821 1081.16 117.618 1078.24C116.625 1076.93 115.43 1076.2 114.068 1076.06C111.274 1075.78 108.651 1078.09 108.625 1078.11C108.51 1078.21 108.341 1078.23 108.205 1078.16C108.07 1078.08 107.993 1077.93 108.013 1077.78C108.013 1077.76 108.259 1075.8 106.77 1073.96C105.229 1072.06 102.452 1070.96 98.5189 1070.68C94.6956 1070.41 92.0008 1071.11 90.5114 1072.75C88.9657 1074.45 89.2984 1076.61 89.3009 1076.63C89.3291 1076.79 89.2446 1076.96 89.0936 1077.02C88.9452 1077.1 88.7661 1077.06 88.656 1076.94C88.6304 1076.91 85.8256 1073.95 77.5519 1076.74C75.5072 1077.43 74.2174 1078.57 73.7158 1080.13C72.5258 1083.84 76.0344 1088.8 76.0702 1088.85C76.17 1088.99 76.1623 1089.18 76.0497 1089.31C75.9371 1089.44 75.7503 1089.47 75.5993 1089.39C75.5865 1089.39 74.7011 1088.94 73.6621 1088.94L73.6595 1088.94Z" fill="#030303"/>
<path d="M86.3969 1097.26C86.2459 1097.26 86.1052 1097.17 86.0489 1097.02L80.8538 1082.86C80.7822 1082.66 80.882 1082.45 81.0739 1082.38C81.2658 1082.31 81.4782 1082.41 81.5499 1082.6L86.7449 1096.76C86.8166 1096.95 86.7168 1097.17 86.5249 1097.24C86.4813 1097.25 86.4404 1097.26 86.3969 1097.26Z" fill="#030303"/>
<path d="M82.8773 1087.67C82.8338 1087.67 82.7878 1087.66 82.7443 1087.64C82.5523 1087.57 82.4602 1087.35 82.5344 1087.16L85.3085 1080.01C85.3827 1079.82 85.5977 1079.73 85.7871 1079.8C85.979 1079.88 86.0711 1080.09 85.9969 1080.28L83.2228 1087.43C83.1665 1087.58 83.0258 1087.67 82.8773 1087.67Z" fill="#030303"/>
<path d="M84.7513 1092.77C84.6234 1092.77 84.498 1092.71 84.4314 1092.59C84.3291 1092.41 84.3905 1092.18 84.5671 1092.08L89.0276 1089.49C89.2042 1089.39 89.432 1089.45 89.5343 1089.63C89.6367 1089.8 89.5753 1090.03 89.3987 1090.13L84.9381 1092.72C84.8793 1092.76 84.8153 1092.77 84.7539 1092.77H84.7513Z" fill="#030303"/>
<path d="M97.7584 1096.96C97.6125 1096.96 97.4717 1096.87 97.4154 1096.72L92.4226 1084.2C92.4021 1084.15 92.3944 1084.09 92.397 1084.04L92.6989 1078.72C92.7117 1078.52 92.8832 1078.36 93.0905 1078.37C93.2952 1078.39 93.4513 1078.56 93.4385 1078.77L93.1417 1084L98.1038 1096.45C98.1806 1096.64 98.0885 1096.85 97.8965 1096.93C97.8505 1096.95 97.8044 1096.95 97.7584 1096.95V1096.96Z" fill="#030303"/>
<path d="M96.385 1093.33C96.3363 1093.33 96.2877 1093.32 96.2391 1093.3C96.0497 1093.22 95.9627 1093 96.042 1092.81L101.465 1080C101.544 1079.81 101.762 1079.72 101.951 1079.8C102.14 1079.88 102.227 1080.1 102.148 1080.29L96.7253 1093.1C96.6664 1093.24 96.5283 1093.32 96.385 1093.32V1093.33Z" fill="#030303"/>
<path d="M99.4713 1086.04C99.328 1086.04 99.1924 1085.95 99.1309 1085.81C99.0491 1085.63 99.1361 1085.41 99.3229 1085.33L104.119 1083.23C104.306 1083.15 104.526 1083.24 104.605 1083.43C104.687 1083.61 104.6 1083.83 104.413 1083.91L99.6172 1086.01C99.5686 1086.03 99.5199 1086.04 99.4687 1086.04H99.4713Z" fill="#030303"/>
<path d="M106.081 1097.26C106.04 1097.26 105.999 1097.25 105.958 1097.24C105.767 1097.17 105.664 1096.96 105.731 1096.77L108.794 1087.96L107.809 1084.78C107.747 1084.58 107.857 1084.38 108.052 1084.31C108.246 1084.25 108.454 1084.36 108.515 1084.56L109.536 1087.86C109.559 1087.93 109.559 1088.01 109.531 1088.09L106.429 1097.01C106.376 1097.16 106.232 1097.26 106.079 1097.26H106.081Z" fill="#030303"/>
<path d="M107.631 1093.05C107.468 1093.05 107.317 1092.94 107.273 1092.77C107.222 1092.57 107.342 1092.37 107.539 1092.32L111.662 1091.25C111.862 1091.2 112.061 1091.32 112.112 1091.52C112.164 1091.72 112.043 1091.92 111.846 1091.97L107.723 1093.04C107.693 1093.04 107.662 1093.05 107.631 1093.05Z" fill="#030303"/>
<path d="M154.668 1087.31C154.588 1087.29 152.874 1086.69 150.763 1086.87C151.054 1085.7 151.53 1082.97 150.212 1080.98C149.352 1079.69 147.899 1078.96 145.89 1078.82C140.482 1078.45 138.888 1080.37 138.422 1081.44C137.893 1080.95 136.918 1080.16 135.597 1079.47C132.91 1078.09 130.069 1077.85 127.382 1078.8C123.984 1079.99 122.54 1081.97 121.929 1083.42C121.45 1084.55 121.389 1085.53 121.394 1086.02C120.255 1086.33 116.365 1087.58 115.715 1090.57C115.459 1091.74 115.838 1092.99 116.836 1094.28C118.287 1096.15 120.606 1097.27 123.039 1097.27H148.418C149.731 1097.27 150.983 1097.04 152.134 1096.61C154.371 1095.77 155.799 1094.35 156.265 1092.49C156.449 1091.75 156.526 1091.12 156.526 1090.57C156.526 1088.04 154.896 1087.4 154.668 1087.32V1087.31ZM155.546 1092.31C155.036 1094.34 153.268 1095.39 151.873 1095.91C150.803 1096.31 149.639 1096.52 148.416 1096.52H123.037C120.831 1096.52 118.73 1095.51 117.417 1093.82C116.56 1092.71 116.23 1091.67 116.437 1090.72C117.082 1087.76 121.811 1086.68 121.86 1086.66C122.047 1086.62 122.172 1086.45 122.146 1086.26C122.141 1086.21 121.647 1081.6 127.625 1079.5C128.685 1079.12 129.701 1078.97 130.655 1078.97C135.134 1078.97 138.289 1082.34 138.328 1082.38C138.425 1082.49 138.578 1082.53 138.717 1082.48C138.855 1082.44 138.955 1082.31 138.97 1082.17C138.983 1082.04 139.377 1079.12 145.839 1079.56C147.605 1079.69 148.866 1080.3 149.593 1081.39C151.072 1083.62 149.913 1087.15 149.9 1087.18C149.859 1087.3 149.885 1087.44 149.967 1087.54C150.049 1087.64 150.179 1087.69 150.307 1087.67C152.477 1087.34 154.397 1088.01 154.414 1088.02C154.422 1088.02 154.432 1088.02 154.437 1088.03C154.519 1088.05 156.454 1088.67 155.54 1092.31L155.546 1092.31Z" fill="#030303"/>
<path d="M155.546 1092.31C155.037 1094.34 153.268 1095.39 151.874 1095.91C150.804 1096.31 149.64 1096.52 148.416 1096.52H139.188L139.802 1092.68C139.805 1092.67 139.807 1092.66 139.807 1092.64L140.368 1089.14L146.157 1085.69C146.333 1085.58 146.389 1085.35 146.285 1085.18C146.18 1085 145.952 1084.94 145.778 1085.05L140.521 1088.18L141.189 1084.01C141.223 1083.8 141.084 1083.61 140.882 1083.58C140.683 1083.55 140.491 1083.69 140.457 1083.89L139.185 1091.85L136.642 1089.4C136.496 1089.25 136.26 1089.26 136.12 1089.41C135.976 1089.56 135.981 1089.79 136.13 1089.93L139.045 1092.74L138.441 1096.52H129.801L128.839 1093.27L132.194 1083.69C132.263 1083.5 132.161 1083.29 131.966 1083.22C131.774 1083.15 131.562 1083.25 131.495 1083.45L128.478 1092.06L127.055 1087.28C126.996 1087.09 126.789 1086.97 126.595 1087.03C126.397 1087.09 126.287 1087.3 126.344 1087.49L129.028 1096.52H123.04C120.834 1096.52 118.733 1095.5 117.42 1093.81C116.563 1092.71 116.233 1091.67 116.44 1090.72C117.085 1087.75 121.814 1086.67 121.863 1086.66C122.05 1086.62 122.175 1086.44 122.149 1086.25C122.144 1086.21 121.65 1081.59 127.628 1079.49C128.688 1079.12 129.704 1078.97 130.658 1078.97C135.137 1078.97 138.292 1082.34 138.331 1082.38C138.428 1082.48 138.582 1082.52 138.72 1082.48C138.858 1082.43 138.958 1082.31 138.973 1082.16C138.986 1082.04 139.38 1079.11 145.842 1079.56C147.608 1079.68 148.869 1080.3 149.596 1081.39C151.075 1083.61 149.916 1087.15 149.903 1087.18C149.862 1087.3 149.888 1087.44 149.97 1087.54C150.052 1087.64 150.182 1087.69 150.31 1087.67C152.48 1087.34 154.4 1088.01 154.417 1088.02C154.425 1088.02 154.435 1088.02 154.44 1088.02C154.522 1088.05 156.457 1088.67 155.543 1092.31L155.546 1092.31Z" fill="#CE6326"/>
<path d="M129.629 1097.24C129.593 1097.26 129.558 1097.26 129.522 1097.26C129.363 1097.26 129.215 1097.16 129.169 1096.99L129.025 1096.52L126.341 1087.49C126.282 1087.3 126.395 1087.09 126.592 1087.03C126.786 1086.97 126.993 1087.09 127.052 1087.28L128.475 1092.06L128.836 1093.27L129.798 1096.52L129.878 1096.78C129.936 1096.98 129.824 1097.18 129.629 1097.24V1097.24Z" fill="#030303"/>
<path d="M132.193 1083.7L128.838 1093.28L128.8 1093.39C128.746 1093.54 128.603 1093.64 128.449 1093.64C128.408 1093.64 128.367 1093.63 128.326 1093.61C128.134 1093.55 128.032 1093.33 128.098 1093.14L128.477 1092.07L131.494 1083.45C131.561 1083.26 131.773 1083.15 131.965 1083.22C132.16 1083.29 132.26 1083.5 132.193 1083.7Z" fill="#030303"/>
<path d="M141.189 1084.01L140.521 1088.18L140.368 1089.13L139.807 1092.64C139.807 1092.65 139.805 1092.67 139.802 1092.68L139.188 1096.52L139.119 1096.94C139.088 1097.13 138.932 1097.26 138.753 1097.26C138.732 1097.26 138.714 1097.26 138.694 1097.25C138.492 1097.22 138.354 1097.03 138.387 1096.83L138.438 1096.51L139.042 1092.74L139.185 1091.84L140.457 1083.89C140.49 1083.68 140.68 1083.54 140.882 1083.58C141.084 1083.61 141.222 1083.8 141.189 1084V1084.01Z" fill="#030303"/>
<path d="M139.807 1092.64C139.807 1092.66 139.804 1092.67 139.802 1092.68C139.789 1092.75 139.756 1092.81 139.704 1092.87C139.633 1092.94 139.536 1092.98 139.438 1092.98C139.346 1092.98 139.254 1092.95 139.182 1092.88L139.042 1092.74L136.127 1089.94C135.978 1089.79 135.973 1089.56 136.117 1089.41C136.257 1089.26 136.493 1089.26 136.639 1089.4L139.182 1091.85L139.694 1092.34C139.779 1092.42 139.817 1092.54 139.807 1092.64Z" fill="#030303"/>
<path d="M146.156 1085.69L140.367 1089.14L140.219 1089.23C140.16 1089.26 140.093 1089.28 140.029 1089.28C139.901 1089.28 139.778 1089.21 139.712 1089.09C139.607 1088.92 139.663 1088.69 139.84 1088.58L140.521 1088.18L145.777 1085.05C145.951 1084.94 146.179 1085 146.284 1085.18C146.389 1085.35 146.332 1085.58 146.156 1085.69Z" fill="#030303"/>
<path d="M78.1202 1090.51C77.9564 1088.69 77.2706 1087.41 76.0857 1086.7C74.1945 1085.57 71.5867 1086.25 70.4428 1086.64C70.5042 1085.64 70.4658 1083.64 69.3884 1082.3C68.7538 1081.5 67.8581 1081.06 66.7295 1080.99C63.6457 1080.78 61.7725 1082.56 60.9356 1083.62C60.2165 1081.21 57.8621 1080.49 57.5217 1080.4C57.2095 1080.26 55.1085 1079.47 51.9275 1081.16C49.3914 1082.51 49.4221 1086.24 49.6038 1088.04C48.9794 1087.61 48.3063 1087.4 47.6 1087.41C45.7088 1087.45 44.2629 1089.08 44.1938 1089.15C42.1516 1091.6 42.7095 1094.36 44.2757 1095.7C45.911 1097.11 48.8361 1097.18 48.8642 1097.18C57.4859 1097.25 64.2804 1097.26 68.3162 1097.26C70.8804 1097.26 72.3314 1097.25 72.421 1097.25C72.5874 1097.26 75.0902 1097.26 76.7536 1095.47C77.8489 1094.29 78.3096 1092.62 78.1202 1090.51V1090.51ZM76.2162 1094.96C74.7677 1096.53 72.4568 1096.51 72.4312 1096.51C72.4287 1096.51 72.4261 1096.51 72.4236 1096.51C72.3724 1096.51 69.6136 1096.52 64.8204 1096.51C64.5542 1096.51 64.283 1096.51 64.0066 1096.51C62.6375 1096.51 61.1199 1096.51 59.4667 1096.5C59.2057 1096.5 58.9395 1096.5 58.6682 1096.49C57.2633 1096.49 55.7687 1096.48 54.1898 1096.47C53.9441 1096.47 53.6984 1096.47 53.4476 1096.47C51.9889 1096.46 50.4611 1096.45 48.8719 1096.43C48.8463 1096.43 46.172 1096.36 44.7594 1095.14C43.4619 1094.02 43.0243 1091.71 44.7594 1089.64C44.7722 1089.62 46.0568 1088.18 47.6179 1088.15C47.6333 1088.15 47.6486 1088.15 47.6614 1088.15C48.4368 1088.15 49.1687 1088.51 49.8341 1089.22C49.9493 1089.34 50.1259 1089.37 50.2717 1089.29C50.4176 1089.22 50.4969 1089.06 50.4662 1088.89C50.456 1088.84 49.4298 1083.34 52.2755 1081.82C55.3004 1080.21 57.2198 1081.08 57.2351 1081.09C57.2607 1081.1 57.2863 1081.11 57.3145 1081.12C57.4271 1081.14 60.0834 1081.8 60.3777 1084.6C60.3957 1084.76 60.5159 1084.9 60.6772 1084.93C60.8384 1084.96 60.9996 1084.88 61.0764 1084.73C61.0917 1084.7 62.8038 1081.47 66.6809 1081.73C67.5945 1081.79 68.3085 1082.14 68.8101 1082.76C70.0615 1084.33 69.6546 1087.12 69.6495 1087.15C69.629 1087.28 69.6827 1087.41 69.7877 1087.5C69.8951 1087.58 70.0385 1087.6 70.1613 1087.55C70.1946 1087.53 73.5982 1086.08 75.7069 1087.34C76.6768 1087.92 77.2399 1089.01 77.3806 1090.58C77.5521 1092.47 77.158 1093.94 76.2136 1094.96L76.2162 1094.96Z" fill="#030303"/>
<path d="M76.2166 1094.96C74.7682 1096.53 72.4573 1096.51 72.4317 1096.51C72.4291 1096.51 72.4266 1096.51 72.424 1096.51C72.3728 1096.51 69.6141 1096.52 64.8208 1096.51L67.2418 1091.81L69.4938 1090.95C69.6857 1090.88 69.7804 1090.67 69.7062 1090.47C69.6346 1090.28 69.4196 1090.19 69.2302 1090.26L67.2341 1091.02L66.2002 1086.91C66.1516 1086.71 65.9494 1086.59 65.7524 1086.64C65.5527 1086.69 65.435 1086.89 65.4836 1087.09L66.5841 1091.47L64.0403 1096.41C64.0224 1096.44 64.0096 1096.47 64.007 1096.51C62.6379 1096.51 61.1203 1096.5 59.4671 1096.5L62.4357 1089.69C62.5176 1089.5 62.4332 1089.28 62.2463 1089.2C62.057 1089.12 61.8394 1089.2 61.7575 1089.39L61.0487 1091.02L59.9124 1089.23C59.8024 1089.06 59.5721 1089.01 59.4006 1089.12C59.2266 1089.23 59.1779 1089.46 59.288 1089.63L60.6878 1091.83C60.6878 1091.83 60.6904 1091.84 60.693 1091.84L59.6744 1094.17L59.073 1092.78C58.9911 1092.59 58.7736 1092.5 58.5868 1092.58C58.4 1092.67 58.313 1092.88 58.3949 1093.07L59.265 1095.09C59.265 1095.09 59.2701 1095.1 59.2726 1095.1L58.6968 1096.42C58.6866 1096.44 58.6764 1096.47 58.6738 1096.5C57.2688 1096.49 55.7743 1096.48 54.1953 1096.47C54.1953 1096.22 54.1646 1095.82 54.1185 1095.15C54.0674 1094.38 53.9855 1093.32 53.8805 1091.98C53.8601 1091.73 53.8396 1091.47 53.8217 1091.23C53.8524 1091.21 53.8831 1091.18 53.9087 1091.16L57.8421 1086.64C57.9777 1086.49 57.9598 1086.25 57.8062 1086.12C57.6527 1085.98 57.4173 1086 57.2842 1086.15L53.7423 1090.22C53.6144 1088.66 53.5095 1087.41 53.5069 1087.39C53.4916 1087.19 53.3124 1087.03 53.1077 1087.05C52.9055 1087.07 52.7545 1087.25 52.7699 1087.45C52.9157 1089.19 53.0949 1091.38 53.2356 1093.19L51.5031 1091.94C51.3368 1091.82 51.1064 1091.86 50.9862 1092.02C50.8684 1092.19 50.9043 1092.42 51.0706 1092.54L53.228 1094.1C53.2536 1094.12 53.2817 1094.13 53.3098 1094.14C53.3943 1095.27 53.4532 1096.14 53.4583 1096.47C51.9996 1096.46 50.4718 1096.45 48.8826 1096.44C48.857 1096.44 46.1827 1096.36 44.77 1095.14C43.4725 1094.02 43.0349 1091.71 44.77 1089.64C44.7828 1089.62 46.0675 1088.18 47.6286 1088.16C47.6439 1088.16 47.6593 1088.16 47.6721 1088.16C48.4475 1088.16 49.1794 1088.52 49.8448 1089.22C49.96 1089.34 50.1365 1089.37 50.2824 1089.3C50.4283 1089.22 50.5076 1089.06 50.4769 1088.9C50.4667 1088.84 49.4404 1083.34 52.2862 1081.82C55.3111 1080.21 57.2304 1081.08 57.2458 1081.09C57.2714 1081.1 57.297 1081.11 57.3251 1081.12C57.4377 1081.14 60.0941 1081.8 60.3884 1084.6C60.4063 1084.77 60.5266 1084.9 60.6878 1084.93C60.8491 1084.96 61.0103 1084.88 61.0871 1084.73C61.1024 1084.7 62.8145 1081.47 66.6916 1081.73C67.6052 1081.79 68.3192 1082.14 68.8208 1082.77C70.0722 1084.33 69.6653 1087.12 69.6601 1087.15C69.6397 1087.28 69.6934 1087.42 69.7983 1087.5C69.9058 1087.58 70.0491 1087.6 70.172 1087.55C70.2052 1087.53 73.6089 1086.08 75.7176 1087.34C76.6875 1087.92 77.2505 1089.01 77.3913 1090.58C77.5627 1092.47 77.1686 1093.95 76.2243 1094.97L76.2166 1094.96Z" fill="#CE6326"/>
<path d="M67.3056 1091.69L67.2416 1091.82L64.8207 1096.52L64.7004 1096.75C64.6364 1096.88 64.5059 1096.95 64.3703 1096.95C64.3139 1096.95 64.2551 1096.94 64.2014 1096.91C64.0529 1096.83 63.9787 1096.67 64.0069 1096.51C64.012 1096.48 64.0222 1096.44 64.0401 1096.41L66.5839 1091.47L65.4835 1087.09C65.4323 1086.89 65.5526 1086.69 65.7522 1086.64C65.9518 1086.59 66.1514 1086.71 66.2 1086.91L67.2339 1091.02L67.3363 1091.43C67.3593 1091.52 67.3491 1091.61 67.3056 1091.69Z" fill="#030303"/>
<path d="M69.4945 1090.96L67.2424 1091.82L67.1094 1091.87C67.0659 1091.88 67.0224 1091.89 66.9763 1091.89C66.8279 1091.89 66.6871 1091.8 66.6308 1091.65C66.5592 1091.46 66.6538 1091.24 66.8458 1091.17L67.2348 1091.02L69.2309 1090.26C69.4228 1090.19 69.6352 1090.29 69.7069 1090.48C69.7785 1090.67 69.6839 1090.88 69.4945 1090.96Z" fill="#030303"/>
<path d="M54.113 1095.15C54.0618 1094.38 53.98 1093.32 53.875 1091.98C53.8546 1091.73 53.8341 1091.47 53.8162 1091.23C53.788 1090.88 53.7599 1090.54 53.7343 1090.22C53.6063 1088.65 53.5014 1087.4 53.4988 1087.39C53.4835 1087.18 53.3044 1087.03 53.0996 1087.05C52.8975 1087.07 52.7465 1087.25 52.7618 1087.45C52.9077 1089.19 53.0868 1091.38 53.2276 1093.19C53.2532 1093.52 53.2788 1093.84 53.2992 1094.14C53.3837 1095.27 53.4425 1096.14 53.4477 1096.47C53.4477 1096.51 53.4477 1096.54 53.4477 1096.57C53.4297 1096.66 53.4425 1096.75 53.4912 1096.84C53.5603 1096.95 53.6831 1097.02 53.8085 1097.02C53.8725 1097.02 53.939 1097 53.9979 1096.96C54.1335 1096.88 54.1898 1096.85 54.1873 1096.48C54.1873 1096.23 54.1565 1095.83 54.1105 1095.16L54.113 1095.15Z" fill="#030303"/>
<path d="M57.8368 1086.64L53.9034 1091.16C53.8778 1091.18 53.8496 1091.21 53.8164 1091.23C53.7575 1091.26 53.691 1091.28 53.6219 1091.28C53.5349 1091.28 53.4479 1091.25 53.3788 1091.19C53.2252 1091.06 53.2073 1090.82 53.3429 1090.67L53.7345 1090.22L57.2763 1086.15C57.4119 1086 57.6448 1085.98 57.7984 1086.12C57.9519 1086.25 57.9698 1086.48 57.8342 1086.64H57.8368Z" fill="#030303"/>
<path d="M53.7345 1094.01C53.6629 1094.11 53.5477 1094.17 53.4326 1094.17C53.3891 1094.17 53.343 1094.16 53.2995 1094.14C53.2713 1094.14 53.2432 1094.12 53.2176 1094.1L51.0602 1092.54C50.8939 1092.42 50.8581 1092.19 50.9758 1092.02C51.0961 1091.86 51.3264 1091.82 51.4927 1091.94L53.2253 1093.19L53.6501 1093.5C53.8164 1093.62 53.8523 1093.85 53.7345 1094.02V1094.01Z" fill="#030303"/>
<path d="M62.4352 1089.69L59.4666 1096.5L59.3719 1096.72C59.3105 1096.85 59.1774 1096.94 59.0316 1096.94C58.9829 1096.94 58.9318 1096.93 58.8831 1096.91C58.7219 1096.84 58.6349 1096.66 58.6682 1096.5C58.6733 1096.47 58.681 1096.44 58.6912 1096.42L59.267 1095.1L59.6714 1094.17L60.6899 1091.84L61.0482 1091.02L61.757 1089.39C61.8389 1089.2 62.059 1089.12 62.2458 1089.2C62.4327 1089.28 62.5197 1089.51 62.4352 1089.69V1089.69Z" fill="#030303"/>
<path d="M61.1994 1091.95C61.138 1091.99 61.0689 1092.01 60.9998 1092.01C60.8821 1092.01 60.7618 1091.95 60.6927 1091.84C60.6927 1091.84 60.6901 1091.84 60.6875 1091.84L59.2877 1089.63C59.1777 1089.46 59.2263 1089.23 59.4003 1089.12C59.5718 1089.01 59.8021 1089.06 59.9121 1089.23L61.0484 1091.02L61.312 1091.44C61.422 1091.61 61.3708 1091.84 61.1968 1091.95L61.1994 1091.95Z" fill="#030303"/>
<path d="M59.7456 1095.28C59.697 1095.3 59.6483 1095.31 59.5997 1095.31C59.4615 1095.31 59.331 1095.24 59.267 1095.1C59.2645 1095.1 59.2619 1095.09 59.2593 1095.09L58.3892 1093.07C58.3074 1092.88 58.3944 1092.66 58.5812 1092.58C58.768 1092.5 58.9881 1092.59 59.0674 1092.78L59.6688 1094.17L59.9375 1094.79C60.0194 1094.98 59.9324 1095.2 59.743 1095.28H59.7456Z" fill="#030303"/>
<path d="M250.269 266.717C257.537 266.717 263.428 260.796 263.428 253.492C263.428 246.188 257.537 240.267 250.269 240.267C243.002 240.267 237.11 246.188 237.11 253.492C237.11 260.796 243.002 266.717 250.269 266.717Z" fill="#CE6326"/>
<path d="M250.269 266.984C242.866 266.984 236.845 260.932 236.845 253.492C236.845 246.052 242.866 240 250.269 240C257.672 240 263.693 246.052 263.693 253.492C263.693 260.932 257.672 266.984 250.269 266.984ZM250.269 240.532C243.158 240.532 237.375 246.345 237.375 253.49C237.375 260.635 243.16 266.449 250.269 266.449C257.378 266.449 263.163 260.635 263.163 253.49C263.163 246.345 257.378 240.532 250.269 240.532Z" fill="#030303"/>
<path d="M250.269 254.038C250.207 254.038 250.148 254.016 250.097 253.976L244.655 249.333C244.544 249.238 244.528 249.068 244.623 248.957C244.722 248.844 244.885 248.833 244.998 248.925L250.439 253.568C250.55 253.663 250.566 253.833 250.471 253.944C250.418 254.006 250.344 254.038 250.269 254.038Z" fill="#030303"/>
<path d="M250.28 258.511C250.218 258.511 250.159 258.49 250.109 258.449C249.997 258.354 249.983 258.186 250.076 258.075L256.208 250.749C256.303 250.638 256.474 250.624 256.581 250.716C256.693 250.811 256.707 250.979 256.614 251.09L250.482 258.415C250.431 258.477 250.355 258.511 250.28 258.511Z" fill="#030303"/>
<path d="M250.159 261.465C250.104 261.465 250.048 261.449 250.001 261.413L246.021 258.436C245.903 258.348 245.878 258.18 245.966 258.063C246.054 257.947 246.221 257.92 246.337 258.008L250.317 260.986C250.435 261.074 250.459 261.242 250.371 261.359C250.32 261.429 250.24 261.466 250.159 261.466V261.465Z" fill="#030303"/>
<path d="M250.269 323.739C250.123 323.739 250.004 323.621 250.004 323.473V245.814C250.004 245.667 250.122 245.547 250.269 245.547C250.417 245.547 250.535 245.665 250.535 245.814V323.473C250.535 323.619 250.417 323.739 250.269 323.739Z" fill="#030303"/>
<path d="M274.945 269.005C274.884 269.005 274.824 268.984 274.773 268.943L269.331 264.299C269.221 264.204 269.205 264.034 269.3 263.923C269.396 263.812 269.563 263.797 269.674 263.891L275.116 268.536C275.226 268.631 275.242 268.8 275.147 268.912C275.095 268.973 275.021 269.005 274.945 269.005Z" fill="#030303"/>
<path d="M274.956 273.477C274.894 273.477 274.834 273.456 274.785 273.415C274.673 273.32 274.659 273.152 274.752 273.041L280.884 265.717C280.979 265.602 281.148 265.592 281.257 265.684C281.369 265.779 281.383 265.947 281.29 266.058L275.158 273.382C275.107 273.445 275.031 273.477 274.956 273.477Z" fill="#030303"/>
<path d="M274.834 276.433C274.78 276.433 274.724 276.417 274.676 276.382L270.695 273.404C270.577 273.316 270.552 273.148 270.64 273.032C270.728 272.913 270.895 272.888 271.011 272.977L274.992 275.954C275.11 276.043 275.135 276.21 275.047 276.327C274.996 276.397 274.915 276.435 274.834 276.435V276.433Z" fill="#030303"/>
<path d="M274.946 323.913C274.8 323.913 274.68 323.795 274.68 323.647V263.27C274.68 263.123 274.798 263.003 274.946 263.003C275.093 263.003 275.211 263.121 275.211 263.27V323.647C275.211 323.793 275.093 323.913 274.946 323.913Z" fill="#030303"/>
<path d="M284.843 270.321C284.04 268.965 283.13 267.397 283.07 264.988C283.039 263.723 283.251 262.733 283.434 261.864C283.738 260.493 283.979 259.319 283.283 257.659C282.615 256.045 281.478 255.054 280.948 254.567C278.992 252.861 276.855 252.038 274.596 252.084C273.914 252.1 270.426 252.312 268.168 255.116C266.956 256.594 266.606 258.148 266.501 258.727C266.091 260.541 266.425 261.652 266.773 262.84C267.016 263.663 267.258 264.516 267.318 265.689C267.409 267.944 266.65 269.406 265.923 270.809C265.134 272.333 264.391 273.779 264.907 276.018C265.287 277.678 266.044 279.05 267.167 280.101C269.184 281.975 271.73 282.143 273.912 282.143H274.699C274.866 282.143 275.019 282.143 275.184 282.127C277.323 282.081 280.521 281.883 283.188 279.476C283.84 278.883 285.386 277.51 285.947 275.285C286.507 273.198 285.688 271.796 284.84 270.318L284.843 270.321ZM285.481 275.151C284.935 277.238 283.48 278.549 282.858 279.112C280.326 281.397 277.265 281.595 275.186 281.627C275.019 281.643 274.868 281.643 274.701 281.643H274.642C272.292 281.673 269.607 281.689 267.516 279.739C266.471 278.748 265.744 277.468 265.394 275.916C264.909 273.858 265.577 272.548 266.364 271.04C267.093 269.638 267.91 268.07 267.805 265.662C267.759 264.428 267.487 263.515 267.244 262.706C266.91 261.534 266.608 260.527 266.986 258.837C267.093 258.274 267.411 256.826 268.548 255.439C270.685 252.803 273.96 252.605 274.612 252.591H274.779C276.855 252.591 278.825 253.384 280.616 254.952C281.116 255.409 282.192 256.354 282.83 257.862C283.466 259.37 283.239 260.421 282.951 261.763C282.768 262.602 282.587 263.561 282.587 264.749V265.009C282.649 267.554 283.573 269.154 284.406 270.586C285.254 272.034 285.966 273.283 285.483 275.156L285.481 275.151Z" fill="#030303"/>
<path d="M230.119 293.579C222.307 293.579 215.952 287.191 215.952 279.34C215.952 271.488 222.307 265.101 230.119 265.101C237.931 265.101 244.289 271.488 244.289 279.34C244.289 287.191 237.933 293.579 230.119 293.579ZM230.119 265.662C222.615 265.662 216.51 271.797 216.51 279.34C216.51 286.882 222.615 293.017 230.119 293.017C237.624 293.017 243.73 286.882 243.73 279.34C243.73 271.797 237.624 265.662 230.119 265.662Z" fill="#030303"/>
<path d="M230.119 279.916C230.056 279.916 229.991 279.895 229.938 279.851L224.194 274.95C224.076 274.849 224.061 274.671 224.161 274.553C224.264 274.434 224.437 274.422 224.556 274.519L230.3 279.42C230.418 279.52 230.434 279.699 230.333 279.817C230.277 279.882 230.2 279.916 230.119 279.916Z" fill="#030303"/>
<path d="M230.131 284.638C230.068 284.638 230.003 284.617 229.952 284.573C229.832 284.472 229.818 284.296 229.917 284.177L236.39 276.446C236.49 276.326 236.669 276.313 236.784 276.41C236.903 276.511 236.917 276.688 236.819 276.806L230.345 284.538C230.291 284.605 230.212 284.638 230.131 284.638Z" fill="#030303"/>
<path d="M230.006 287.754C229.948 287.754 229.888 287.736 229.839 287.699L225.637 284.558C225.514 284.466 225.488 284.287 225.579 284.164C225.671 284.04 225.848 284.014 225.971 284.106L230.172 287.247C230.295 287.339 230.322 287.517 230.23 287.641C230.176 287.715 230.092 287.754 230.006 287.754Z" fill="#030303"/>
<path d="M229.839 323.567V271.234C229.839 271.079 229.964 270.953 230.119 270.953C230.274 270.953 230.398 271.079 230.398 271.234V323.569" fill="#030303"/>
<path d="M214.873 265.469C214.035 264.055 213.084 262.416 213.021 259.905C212.989 258.586 213.211 257.553 213.401 256.645C213.717 255.214 213.97 253.991 213.242 252.256C212.547 250.572 211.361 249.539 210.807 249.028C208.767 247.248 206.537 246.39 204.179 246.437C203.468 246.453 199.829 246.676 197.472 249.602C196.207 251.144 195.842 252.767 195.733 253.371C195.306 255.262 195.654 256.424 196.017 257.664C196.27 258.522 196.524 259.412 196.587 260.638C196.682 262.99 195.891 264.518 195.132 265.98C194.31 267.569 193.533 269.081 194.072 271.417C194.468 273.15 195.258 274.582 196.429 275.679C198.532 277.634 201.19 277.808 203.468 277.808H204.543C204.622 277.808 204.717 277.792 204.796 277.792C207.026 277.745 210.364 277.538 213.148 275.027C213.828 274.407 215.442 272.977 216.027 270.654C216.613 268.477 215.759 267.013 214.873 265.471V265.469ZM215.539 270.51C214.97 272.687 213.451 274.056 212.803 274.644C210.162 277.028 206.966 277.234 204.8 277.266C204.72 277.282 204.626 277.282 204.546 277.282H204.23C201.777 277.314 198.978 277.33 196.796 275.295C195.705 274.262 194.946 272.927 194.582 271.304C194.076 269.159 194.772 267.79 195.594 266.216C196.353 264.754 197.207 263.117 197.096 260.604C197.049 259.317 196.764 258.363 196.511 257.521C196.163 256.297 195.847 255.248 196.242 253.482C196.353 252.894 196.685 251.384 197.873 249.936C200.103 247.186 203.52 246.978 204.2 246.962H204.374C206.541 246.962 208.598 247.788 210.464 249.425C210.986 249.902 212.109 250.888 212.773 252.463C213.437 254.036 213.2 255.135 212.9 256.534C212.71 257.408 212.52 258.409 212.52 259.651V259.921C212.583 262.575 213.548 264.246 214.42 265.74C215.305 267.25 216.049 268.555 215.542 270.51H215.539Z" fill="#030303"/>
<path d="M215.539 270.51C214.969 272.687 213.451 274.056 212.803 274.644C210.162 277.028 206.966 277.234 204.799 277.266C204.72 277.282 204.625 277.282 204.546 277.282H204.23C201.777 277.314 198.978 277.33 196.796 275.295C195.705 274.262 194.945 272.927 194.582 271.304C194.076 269.159 194.772 267.79 195.594 266.216C196.353 264.754 197.207 263.117 197.096 260.604C197.049 259.317 196.764 258.363 196.511 257.521C196.163 256.297 195.847 255.248 196.242 253.482C196.353 252.894 196.685 251.384 197.873 249.936C200.103 247.186 203.52 246.978 204.2 246.962H204.374C206.541 246.962 208.598 247.788 210.464 249.425C210.986 249.902 212.109 250.888 212.773 252.463C213.437 254.036 213.2 255.135 212.9 256.534C212.71 257.408 212.52 258.409 212.52 259.65V259.921C212.583 262.575 213.548 264.246 214.42 265.74C215.305 267.25 216.048 268.555 215.542 270.51H215.539Z" fill="#CE6326"/>
<path d="M204.547 264.09C204.483 264.09 204.42 264.069 204.367 264.025L198.687 259.177C198.571 259.078 198.555 258.902 198.655 258.785C198.757 258.669 198.929 258.656 199.045 258.754L204.726 263.601C204.842 263.7 204.858 263.877 204.758 263.993C204.701 264.059 204.624 264.09 204.547 264.09Z" fill="#030303"/>
<path d="M204.555 268.755C204.492 268.755 204.429 268.733 204.378 268.689C204.26 268.59 204.244 268.414 204.344 268.297L210.744 260.656C210.842 260.536 211.02 260.525 211.134 260.622C211.252 260.721 211.267 260.898 211.167 261.014L204.768 268.656C204.713 268.723 204.634 268.755 204.557 268.755H204.555Z" fill="#030303"/>
<path d="M204.431 271.839C204.373 271.839 204.315 271.821 204.265 271.784L200.112 268.678C199.99 268.586 199.964 268.411 200.054 268.288C200.145 268.166 200.319 268.139 200.442 268.229L204.596 271.336C204.717 271.427 204.743 271.602 204.654 271.726C204.599 271.798 204.517 271.837 204.431 271.837V271.839Z" fill="#030303"/>
<path d="M204.269 323.287V255.408C204.269 255.256 204.392 255.133 204.545 255.133C204.698 255.133 204.821 255.256 204.821 255.408V323.305" fill="#030303"/>
<path d="M181.442 293.742C174.849 293.742 169.486 288.352 169.486 281.726C169.486 275.101 174.849 269.709 181.442 269.709C188.034 269.709 193.397 275.099 193.397 281.726C193.397 288.354 188.034 293.742 181.442 293.742ZM181.442 270.184C175.109 270.184 169.959 275.362 169.959 281.726C169.959 288.091 175.111 293.267 181.442 293.267C187.773 293.267 192.924 288.089 192.924 281.726C192.924 275.364 187.773 270.184 181.442 270.184Z" fill="#030303"/>
<path d="M181.441 282.212C181.387 282.212 181.332 282.192 181.288 282.155L176.442 278.018C176.344 277.933 176.33 277.781 176.414 277.682C176.502 277.583 176.648 277.573 176.748 277.654L181.594 281.791C181.693 281.876 181.707 282.028 181.622 282.127C181.575 282.184 181.508 282.21 181.441 282.21V282.212Z" fill="#030303"/>
<path d="M181.452 286.196C181.398 286.196 181.343 286.177 181.301 286.139C181.201 286.055 181.187 285.905 181.271 285.806L186.732 279.284C186.816 279.181 186.968 279.173 187.064 279.254C187.164 279.339 187.178 279.489 187.094 279.588L181.633 286.109C181.587 286.166 181.519 286.194 181.452 286.194V286.196Z" fill="#030303"/>
<path d="M181.343 288.828C181.294 288.828 181.245 288.814 181.203 288.782L177.659 286.132C177.555 286.054 177.532 285.904 177.609 285.8C177.687 285.696 177.836 285.673 177.94 285.75L181.484 288.401C181.588 288.479 181.61 288.629 181.533 288.733C181.487 288.795 181.415 288.828 181.343 288.828Z" fill="#030303"/>
<path d="M181.164 323.3V275.389C181.164 275.258 181.289 275.154 181.444 275.154C181.598 275.154 181.721 275.26 181.721 275.389L181.674 323.3" fill="#030303"/>
<path d="M247.187 1076.19C247.187 1077.76 247.007 1079.27 246.669 1080.73C246.553 1081.23 246.418 1081.72 246.265 1082.21C243.716 1090.29 236.166 1096.17 227.277 1096.17C216.299 1096.17 207.371 1087.21 207.371 1076.19C207.371 1070.97 209.378 1066.21 212.667 1062.64C212.963 1062.32 213.275 1062 213.594 1061.7C217.163 1058.3 221.984 1056.22 227.28 1056.22C228.86 1056.22 230.4 1056.4 231.876 1056.75C232.122 1056.81 232.365 1056.88 232.608 1056.94C232.534 1057.18 232.46 1057.43 232.383 1057.67C232.14 1057.6 231.895 1057.54 231.649 1057.48C230.244 1057.15 228.78 1056.97 227.28 1056.97C216.719 1056.97 208.126 1065.59 208.126 1076.19C208.126 1086.79 216.719 1095.41 227.28 1095.41C236.327 1095.41 243.93 1089.09 245.924 1080.61C245.924 1080.61 245.924 1080.61 245.924 1080.61C245.924 1080.6 245.927 1080.59 245.927 1080.59C246.259 1079.18 246.434 1077.71 246.434 1076.19C246.434 1067.88 241.145 1060.78 233.768 1058.11C233.532 1058.02 233.295 1057.94 233.054 1057.87C233.131 1057.62 233.205 1057.39 233.282 1057.14C233.522 1057.22 233.76 1057.3 233.995 1057.39C241.679 1060.16 247.187 1067.54 247.187 1076.19V1076.19Z" fill="#030303"/>
<path d="M244.709 1076.19C244.709 1085.84 236.89 1093.69 227.278 1093.69C217.665 1093.69 209.846 1085.84 209.846 1076.19C209.846 1066.55 217.665 1058.7 227.278 1058.7C228.601 1058.7 229.893 1058.85 231.132 1059.14C231.38 1059.19 231.623 1059.25 231.866 1059.32C231.729 1059.76 231.594 1060.19 231.459 1060.62C231.216 1060.55 230.973 1060.49 230.725 1060.44C229.616 1060.19 228.461 1060.07 227.278 1060.07C225.812 1060.07 224.393 1060.26 223.041 1060.64C222.798 1060.7 222.557 1060.77 222.32 1060.85C217.259 1062.5 213.291 1066.61 211.82 1071.77C211.751 1072.01 211.688 1072.25 211.632 1072.5C211.379 1073.57 211.233 1074.68 211.209 1075.82C211.207 1075.94 211.204 1076.07 211.204 1076.2C211.204 1076.32 211.204 1076.45 211.209 1076.57C211.276 1079.41 212.073 1082.07 213.426 1084.37C213.553 1084.59 213.685 1084.8 213.825 1085.01C216.696 1089.41 221.654 1092.32 227.278 1092.32C228.522 1092.32 229.734 1092.18 230.899 1091.91C231.145 1091.85 231.388 1091.79 231.631 1091.72C236.661 1090.3 240.699 1086.48 242.435 1081.57C242.519 1081.33 242.599 1081.1 242.67 1080.85C243.116 1079.38 243.354 1077.81 243.354 1076.19C243.354 1075.36 243.291 1074.54 243.169 1073.74C243.132 1073.49 243.087 1073.24 243.037 1073C242.303 1069.35 240.335 1066.14 237.588 1063.83C237.398 1063.67 237.199 1063.51 237.001 1063.35C235.747 1062.4 234.347 1061.62 232.838 1061.06C232.603 1060.97 232.365 1060.89 232.125 1060.81C232.262 1060.38 232.397 1059.95 232.535 1059.51C232.775 1059.59 233.013 1059.67 233.248 1059.76C239.928 1062.21 244.712 1068.65 244.712 1076.19H244.709Z" fill="#030303"/>
<path d="M229.554 1076.19C229.554 1076.37 229.536 1076.54 229.493 1076.71C229.435 1076.96 229.337 1077.2 229.203 1077.41C228.97 1077.79 228.632 1078.08 228.231 1078.27C228.006 1078.37 227.76 1078.45 227.502 1078.47C227.425 1078.48 227.351 1078.48 227.274 1078.48C226.543 1078.48 225.89 1078.14 225.473 1077.59C225.317 1077.4 225.198 1077.17 225.116 1076.93C225.074 1076.8 225.045 1076.68 225.024 1076.55C225.005 1076.43 224.997 1076.32 224.997 1076.19C224.997 1076.06 225.011 1075.92 225.034 1075.79C225.034 1075.79 225.034 1075.78 225.037 1075.78C225.085 1075.52 225.172 1075.28 225.299 1075.06C225.542 1074.63 225.919 1074.29 226.371 1074.1C226.413 1074.08 226.458 1074.06 226.5 1074.05C226.691 1073.98 226.891 1073.93 227.103 1073.92C227.161 1073.91 227.216 1073.91 227.277 1073.91C227.293 1073.91 227.309 1073.91 227.325 1073.91C227.546 1073.91 227.76 1073.95 227.964 1074.01C228.022 1074.03 228.08 1074.05 228.136 1074.07C228.318 1074.15 228.489 1074.24 228.645 1074.36C228.693 1074.4 228.738 1074.43 228.783 1074.47C229.002 1074.67 229.184 1074.9 229.316 1075.17C229.43 1075.39 229.506 1075.64 229.538 1075.9C229.551 1076 229.557 1076.09 229.557 1076.19L229.554 1076.19Z" fill="#030303"/>
<path d="M275.255 1060.87C275.057 1061.03 274.862 1061.19 274.671 1061.36C272.603 1063.16 270.923 1065.41 269.777 1067.94C269.703 1068.1 269.631 1068.27 269.565 1068.43C269.441 1068.72 269.325 1069.02 269.214 1069.33C269.153 1069.49 269.098 1069.66 269.04 1069.83C268.881 1070.31 268.741 1070.79 268.62 1071.29C268.559 1071.54 268.503 1071.79 268.453 1072.04C268.197 1072.02 267.943 1072.01 267.693 1072C267.74 1071.75 267.796 1071.5 267.854 1071.25C267.967 1070.77 268.097 1070.3 268.245 1069.83C268.292 1069.68 268.342 1069.53 268.393 1069.38C268.548 1068.92 268.723 1068.47 268.91 1068.03C268.974 1067.88 269.037 1067.74 269.106 1067.59C270.284 1065 271.996 1062.71 274.098 1060.86C274.288 1060.69 274.484 1060.52 274.682 1060.36C274.875 1060.53 275.065 1060.7 275.255 1060.87V1060.87ZM307.136 1075.87C307.136 1086.88 298.205 1095.84 287.227 1095.84C276.996 1095.84 268.543 1088.06 267.442 1078.08C267.415 1077.83 267.391 1077.58 267.373 1077.33L268.126 1077.3C268.144 1077.55 268.168 1077.8 268.197 1078.06C269.283 1087.63 277.403 1095.09 287.227 1095.09C297.787 1095.09 306.383 1086.47 306.383 1075.87C306.383 1065.27 297.79 1056.64 287.227 1056.64C283.47 1056.64 279.962 1057.74 277.001 1059.62C276.779 1059.76 276.557 1059.9 276.344 1060.06C276.153 1059.88 275.961 1059.71 275.765 1059.54C275.982 1059.38 276.198 1059.24 276.42 1059.09C279.534 1057.07 283.246 1055.89 287.227 1055.89C295.249 1055.89 302.18 1060.68 305.329 1067.55C305.472 1067.87 305.609 1068.19 305.738 1068.51C306.642 1070.79 307.136 1073.27 307.136 1075.87V1075.87Z" fill="#030303"/>
<path d="M268.07 1075.87C268.07 1076.35 268.089 1076.83 268.123 1077.3L267.37 1077.33C267.333 1076.84 267.315 1076.36 267.315 1075.87C267.315 1074.54 267.442 1073.25 267.69 1072C267.941 1072.01 268.194 1072.03 268.451 1072.04C268.2 1073.28 268.07 1074.56 268.07 1075.87Z" fill="#CE6326"/>
<path d="M277.453 1063.07C277.252 1063.22 277.057 1063.38 276.867 1063.54C274.458 1065.58 272.654 1068.32 271.763 1071.44C271.695 1071.69 271.629 1071.94 271.573 1072.19C271.111 1072.17 270.651 1072.14 270.2 1072.12C270.255 1071.87 270.313 1071.62 270.379 1071.38C271.301 1067.89 273.272 1064.83 275.932 1062.55C276.122 1062.39 276.317 1062.23 276.515 1062.07C276.838 1062.4 277.149 1062.73 277.453 1063.07ZM304.658 1075.87C304.658 1085.51 296.839 1093.36 287.227 1093.36C278.333 1093.36 270.971 1086.64 269.925 1077.99C269.893 1077.74 269.869 1077.49 269.848 1077.23L271.203 1077.18C271.222 1077.43 271.251 1077.68 271.283 1077.93C271.66 1080.89 272.838 1083.6 274.592 1085.83C274.748 1086.03 274.909 1086.22 275.071 1086.41C275.852 1087.32 276.732 1088.13 277.694 1088.84C277.894 1088.99 278.103 1089.14 278.312 1089.28C280.863 1090.99 283.93 1091.99 287.224 1091.99C288.159 1091.99 289.076 1091.92 289.969 1091.76C290.217 1091.72 290.463 1091.67 290.708 1091.61C295.479 1090.55 299.46 1087.36 301.599 1083.08C301.713 1082.86 301.821 1082.63 301.922 1082.4C302.809 1080.4 303.303 1078.19 303.303 1075.87C303.303 1072.91 302.503 1070.13 301.108 1067.74C300.984 1067.52 300.849 1067.31 300.712 1067.1C299.351 1064.99 297.516 1063.23 295.357 1061.96C295.141 1061.83 294.922 1061.7 294.7 1061.59C292.468 1060.4 289.924 1059.73 287.229 1059.73C286.094 1059.73 284.989 1059.85 283.92 1060.08C283.671 1060.13 283.428 1060.19 283.185 1060.25C281.78 1060.62 280.446 1061.17 279.215 1061.88C278.991 1062.01 278.769 1062.15 278.549 1062.29C278.243 1061.95 277.931 1061.61 277.612 1061.28C277.828 1061.14 278.05 1061 278.275 1060.86C280.892 1059.28 283.957 1058.37 287.227 1058.37C296.839 1058.37 304.658 1066.22 304.658 1075.86V1075.87ZM271.763 1071.45C271.695 1071.69 271.629 1071.94 271.573 1072.19C271.111 1072.17 270.651 1072.15 270.2 1072.13C270.255 1071.87 270.313 1071.63 270.379 1071.38C270.836 1071.4 271.301 1071.43 271.763 1071.45Z" fill="#030303"/>
<path d="M271.15 1075.87C271.15 1076.31 271.169 1076.75 271.203 1077.18L269.848 1077.23C269.814 1076.78 269.795 1076.32 269.795 1075.87C269.795 1074.58 269.933 1073.33 270.197 1072.13C270.651 1072.15 271.111 1072.17 271.57 1072.19C271.296 1073.37 271.15 1074.6 271.15 1075.87Z" fill="#CE6326"/>
<path d="M289.503 1075.87C289.503 1076.27 289.4 1076.65 289.218 1076.98C289.088 1077.21 288.922 1077.41 288.724 1077.59C288.544 1077.75 288.341 1077.88 288.116 1077.97C287.886 1078.07 287.641 1078.13 287.382 1078.15C287.332 1078.15 287.279 1078.15 287.226 1078.15C287.112 1078.15 286.999 1078.14 286.891 1078.13C286.618 1078.09 286.365 1078 286.135 1077.87C286.08 1077.84 286.027 1077.81 285.977 1077.77C285.786 1077.65 285.617 1077.5 285.472 1077.32C285.454 1077.3 285.435 1077.28 285.417 1077.26C285.271 1077.07 285.155 1076.85 285.078 1076.63C284.994 1076.39 284.949 1076.13 284.949 1075.87C284.949 1074.88 285.572 1074.04 286.447 1073.72C286.455 1073.71 286.463 1073.71 286.471 1073.71C286.698 1073.63 286.938 1073.59 287.189 1073.58C287.197 1073.58 287.205 1073.58 287.215 1073.58H287.229C287.641 1073.58 288.029 1073.7 288.362 1073.89C288.589 1074.02 288.787 1074.19 288.956 1074.38C289.083 1074.53 289.194 1074.7 289.278 1074.87C289.392 1075.11 289.466 1075.37 289.495 1075.64C289.503 1075.72 289.508 1075.79 289.508 1075.87L289.503 1075.87Z" fill="#030303"/>
<path d="M233.253 1054.87C233.176 1055.11 233.102 1055.35 233.026 1055.59C232.783 1055.53 232.54 1055.46 232.294 1055.4C230.706 1055.02 229.05 1054.82 227.349 1054.82C221.672 1054.82 216.344 1057.04 212.342 1061.08L212.319 1061.11C212.113 1061.28 211.788 1061.69 211.904 1061.84C212.012 1061.97 212.805 1061.92 213.579 1061.66L213.592 1061.7L213.819 1062.38C213.602 1062.45 213.143 1062.59 212.667 1062.64C212.139 1062.7 211.587 1062.66 211.312 1062.3C210.829 1061.68 211.402 1060.91 211.822 1060.54C215.964 1056.36 221.479 1054.06 227.352 1054.06C229.132 1054.06 230.865 1054.28 232.524 1054.68C232.769 1054.74 233.012 1054.8 233.255 1054.87L233.253 1054.87Z" fill="#030303"/>
<path d="M249.252 1076.04C249.252 1077.78 249.046 1079.52 248.644 1081.2L248.634 1081.23C248.444 1081.78 247.926 1082.62 247.133 1082.62C247.054 1082.62 246.975 1082.61 246.893 1082.59C246.616 1082.53 246.41 1082.4 246.262 1082.21C245.905 1081.77 245.863 1081.08 245.921 1080.62C245.921 1080.61 245.921 1080.61 245.921 1080.61C245.921 1080.6 245.921 1080.6 245.921 1080.59L246.666 1080.69C246.666 1080.69 246.666 1080.71 246.661 1080.73C246.645 1080.94 246.61 1081.77 247.041 1081.86C247.514 1081.95 247.865 1081.12 247.913 1081C248.296 1079.39 248.494 1077.72 248.494 1076.04C248.494 1066.83 242.609 1058.97 234.412 1056.04C234.174 1055.95 233.936 1055.87 233.699 1055.8C233.775 1055.56 233.849 1055.32 233.926 1055.08C234.166 1055.15 234.404 1055.23 234.642 1055.32C243.145 1058.34 249.249 1066.49 249.249 1076.04L249.252 1076.04Z" fill="#030303"/>
<path d="M273.892 1059.71C273.694 1059.87 273.501 1060.04 273.311 1060.21C271.063 1062.23 269.243 1064.74 268.033 1067.58C267.967 1067.73 267.906 1067.88 267.845 1068.03C267.668 1068.48 267.507 1068.93 267.359 1069.38C267.312 1069.53 267.264 1069.69 267.219 1069.84C267.087 1070.28 266.968 1070.74 266.868 1071.2C266.81 1071.45 266.76 1071.7 266.715 1071.95C266.456 1071.94 266.205 1071.93 265.957 1071.92C265.999 1071.67 266.049 1071.42 266.102 1071.16C266.2 1070.72 266.311 1070.28 266.435 1069.84C266.477 1069.68 266.522 1069.53 266.57 1069.38C266.707 1068.93 266.863 1068.48 267.032 1068.03C267.09 1067.88 267.148 1067.73 267.211 1067.58C268.421 1064.61 270.284 1061.91 272.682 1059.72C272.809 1059.6 272.941 1059.49 273.07 1059.37C273.134 1059.31 273.197 1059.26 273.261 1059.21C273.475 1059.37 273.686 1059.54 273.895 1059.71L273.892 1059.71Z" fill="#030303"/>
<path d="M307.17 1067.81C307.078 1068.09 306.874 1068.29 306.584 1068.4C306.267 1068.51 305.981 1068.54 305.736 1068.51C305.123 1068.44 304.748 1068.04 304.727 1068.02L305.274 1067.5C305.274 1067.5 305.295 1067.52 305.329 1067.55C305.461 1067.65 305.823 1067.88 306.322 1067.69C306.417 1067.65 306.444 1067.61 306.457 1067.57C306.539 1067.33 306.33 1066.82 306.161 1066.55L306.143 1066.51C302.648 1059.39 295.252 1054.78 287.301 1054.78C283.019 1054.78 278.977 1056.11 275.609 1058.4C275.39 1058.55 275.173 1058.7 274.959 1058.86C274.748 1058.69 274.534 1058.52 274.32 1058.36C274.532 1058.19 274.748 1058.04 274.967 1057.89C278.576 1055.38 282.873 1054.03 287.303 1054.03C291.437 1054.03 295.463 1055.19 298.942 1057.4C302.331 1059.55 305.052 1062.58 306.814 1066.17C306.911 1066.33 307.392 1067.17 307.173 1067.81H307.17Z" fill="#030303"/>
<path d="M269.795 1075.87C269.795 1076.32 269.814 1076.78 269.848 1077.23L268.123 1077.3C268.089 1076.83 268.07 1076.35 268.07 1075.87C268.07 1074.56 268.202 1073.28 268.451 1072.04C269.021 1072.07 269.602 1072.1 270.197 1072.13C269.933 1073.33 269.795 1074.58 269.795 1075.87Z" fill="#CE6326"/>
<path d="M284.947 1075.87C284.947 1076.13 284.992 1076.39 285.076 1076.63L271.203 1077.18C271.169 1076.75 271.15 1076.31 271.15 1075.87C271.15 1074.6 271.295 1073.37 271.57 1072.2C277.764 1072.51 284.374 1072.84 285.195 1072.9C285.948 1072.94 286.26 1073.26 286.394 1073.51C286.394 1073.51 286.394 1073.51 286.394 1073.52L286.442 1073.72C285.568 1074.04 284.944 1074.88 284.944 1075.87H284.947Z" fill="#CE6326"/>
<path d="M287.239 1073.79L286.862 1073.8L286.486 1073.82C286.486 1073.82 286.486 1073.82 286.486 1073.82C286.486 1073.8 286.481 1073.76 286.471 1073.71C286.457 1073.66 286.434 1073.59 286.399 1073.52C286.399 1073.52 286.399 1073.52 286.399 1073.51C286.267 1073.26 285.955 1072.95 285.2 1072.89C284.378 1072.84 277.769 1072.51 271.575 1072.2C271.113 1072.17 270.653 1072.15 270.201 1072.13C269.61 1072.1 269.026 1072.07 268.455 1072.04C268.199 1072.03 267.946 1072.01 267.695 1072C267.362 1071.99 267.034 1071.97 266.715 1071.95C266.456 1071.94 266.205 1071.93 265.957 1071.92C265.521 1071.89 265.103 1071.87 264.702 1071.85C264.527 1071.85 264.361 1071.84 264.195 1071.83C264.018 1071.82 263.849 1071.81 263.682 1071.8C263.508 1071.79 263.339 1071.78 263.175 1071.78C261.484 1071.69 260.401 1071.64 260.351 1071.63H260.33C260.33 1071.63 258.97 1071.51 257.741 1072.35C256.859 1072.95 255.94 1074.05 255.467 1074.66C255.089 1075.15 254.809 1075.67 254.638 1076.22C254.458 1076.79 254.45 1077.22 254.614 1077.34C254.902 1077.55 255.372 1077.66 255.818 1077.71C255.977 1077.73 256.133 1077.74 256.275 1077.75C256.505 1077.76 256.701 1077.76 256.827 1077.75L257.599 1077.72L258.05 1077.7L259.82 1077.63L260.354 1077.61L260.843 1077.59L261.379 1077.57L263.299 1077.49L263.751 1077.47L265.19 1077.41L265.642 1077.4L267.378 1077.33L268.13 1077.3L269.855 1077.23L271.211 1077.18L285.084 1076.62L285.448 1076.61L285.472 1077.21L285.477 1077.32V1077.36L285.271 1077.37L271.287 1077.93L269.927 1077.98L268.199 1078.05L267.444 1078.08L265.595 1078.15L265.138 1078.17L263.643 1078.23L263.164 1078.25L260.927 1078.34L260.391 1078.36L259.91 1078.38L259.376 1078.4L258.246 1078.45L257.768 1078.47L256.864 1078.5C256.827 1078.5 256.724 1078.51 256.579 1078.51C256.521 1078.51 256.458 1078.51 256.389 1078.51C256.252 1078.5 256.09 1078.5 255.919 1078.48C255.348 1078.43 254.648 1078.29 254.178 1077.95C253.705 1077.61 253.621 1076.95 253.924 1075.99C254.125 1075.35 254.447 1074.75 254.881 1074.19C255.488 1073.41 256.405 1072.35 257.321 1071.72C258.396 1070.99 259.524 1070.87 260.074 1070.87C260.246 1070.87 260.362 1070.88 260.399 1070.88C260.438 1070.88 260.589 1070.89 260.84 1070.9C261.014 1070.91 261.233 1070.92 261.495 1070.93C261.72 1070.95 261.976 1070.96 262.261 1070.97C262.657 1070.99 263.106 1071.01 263.6 1071.04C263.764 1071.05 263.933 1071.06 264.105 1071.07C264.274 1071.07 264.446 1071.08 264.623 1071.09C264.789 1071.1 264.958 1071.11 265.13 1071.12C265.444 1071.13 265.766 1071.15 266.102 1071.16C266.353 1071.18 266.609 1071.19 266.868 1071.2C267.19 1071.22 267.52 1071.24 267.856 1071.25C268.107 1071.27 268.363 1071.28 268.622 1071.29C269.195 1071.32 269.784 1071.35 270.381 1071.38C270.838 1071.4 271.303 1071.43 271.765 1071.45C275.643 1071.64 279.663 1071.85 282.31 1071.99C282.598 1072 282.87 1072.01 283.124 1072.03C283.639 1072.05 284.077 1072.08 284.423 1072.09C284.825 1072.12 285.105 1072.13 285.24 1072.14H285.245C285.583 1072.16 285.868 1072.23 286.106 1072.33C286.648 1072.54 286.954 1072.91 287.107 1073.26C287.107 1073.26 287.107 1073.26 287.107 1073.27C287.155 1073.38 287.189 1073.48 287.21 1073.58C287.226 1073.66 287.234 1073.73 287.237 1073.79L287.239 1073.79Z" fill="#030303"/>
<path d="M265.638 1077.48C265.638 1077.71 265.622 1077.94 265.59 1078.16C265.263 1080.56 263.205 1082.41 260.724 1082.41C260.035 1082.41 259.38 1082.27 258.786 1082.01C258.648 1081.95 258.511 1081.89 258.379 1081.81L258.606 1081.42C258.738 1081.49 258.875 1081.56 259.015 1081.62C259.541 1081.84 260.12 1081.96 260.724 1081.96C262.951 1081.96 264.8 1080.32 265.133 1078.18C265.168 1077.95 265.186 1077.72 265.186 1077.48C265.186 1077.46 265.186 1077.44 265.186 1077.42L265.638 1077.4C265.638 1077.43 265.638 1077.45 265.638 1077.48ZM258.278 1081.23L258.051 1081.62C257.924 1081.54 257.8 1081.45 257.681 1081.35C256.791 1080.65 256.149 1079.64 255.912 1078.48C255.861 1078.23 255.827 1077.97 255.814 1077.71C255.972 1077.73 256.128 1077.74 256.271 1077.75C256.284 1078.01 256.321 1078.26 256.382 1078.51C256.609 1079.48 257.158 1080.34 257.911 1080.95C258.027 1081.05 258.152 1081.14 258.278 1081.22V1081.23Z" fill="#030303"/>
<path d="M259.201 1079.61L258.973 1080.01C258.847 1079.92 258.725 1079.83 258.611 1079.73C258.231 1079.39 257.935 1078.95 257.761 1078.47C257.674 1078.23 257.618 1077.98 257.594 1077.72L258.046 1077.7C258.073 1077.96 258.139 1078.21 258.239 1078.45C258.379 1078.78 258.588 1079.08 258.844 1079.32C258.955 1079.43 259.074 1079.53 259.201 1079.61V1079.61ZM263.747 1077.47C263.744 1077.74 263.707 1077.99 263.638 1078.24C263.282 1079.55 262.082 1080.52 260.664 1080.52C260.342 1080.52 260.033 1080.47 259.739 1080.37C259.594 1080.33 259.451 1080.27 259.317 1080.2L259.547 1079.81C259.684 1079.88 259.827 1079.93 259.977 1079.97C260.196 1080.03 260.429 1080.06 260.667 1080.06C261.829 1080.06 262.814 1079.31 263.163 1078.26C263.242 1078.02 263.29 1077.76 263.295 1077.49L263.747 1077.47Z" fill="#030303"/>
<path d="M258.775 1084.99C258.775 1085.61 258.27 1086.12 257.65 1086.12H253.059C252.441 1086.12 251.936 1085.61 251.936 1084.99C251.936 1084.36 252.441 1083.86 253.059 1083.86H257.65C257.671 1083.86 257.692 1083.86 257.71 1083.86C258.302 1083.89 258.772 1084.38 258.772 1084.98L258.775 1084.99ZM258.323 1084.99C258.323 1084.62 258.022 1084.31 257.652 1084.31H253.061C252.691 1084.31 252.39 1084.62 252.39 1084.99C252.39 1085.36 252.691 1085.66 253.061 1085.66H257.652C258.022 1085.66 258.323 1085.36 258.323 1084.99Z" fill="#030303"/>
<path d="M258.323 1084.99C258.323 1085.36 258.022 1085.66 257.652 1085.66H253.061C252.691 1085.66 252.39 1085.36 252.39 1084.99C252.39 1084.62 252.691 1084.31 253.061 1084.31H257.652C258.022 1084.31 258.323 1084.62 258.323 1084.99Z" fill="#4F4F4F"/>
<path d="M267.36 1069.38C267.312 1069.53 267.265 1069.69 267.22 1069.84H264.808L265.067 1069.38H267.36ZM267.36 1069.38C267.312 1069.53 267.265 1069.69 267.22 1069.84H264.808L265.067 1069.38H267.36ZM267.36 1069.38C267.312 1069.53 267.265 1069.69 267.22 1069.84H264.808L265.067 1069.38H267.36ZM267.36 1069.38C267.312 1069.53 267.265 1069.69 267.22 1069.84H264.808L265.067 1069.38H267.36ZM267.36 1069.38C267.312 1069.53 267.265 1069.69 267.22 1069.84H264.808L265.067 1069.38H267.36ZM267.36 1069.38C267.312 1069.53 267.265 1069.69 267.22 1069.84H264.808L265.067 1069.38H267.36ZM267.36 1069.38C267.312 1069.53 267.265 1069.69 267.22 1069.84H264.808L265.067 1069.38H267.36ZM267.36 1069.38C267.312 1069.53 267.265 1069.69 267.22 1069.84H264.808L265.067 1069.38H267.36ZM267.36 1069.38C267.312 1069.53 267.265 1069.69 267.22 1069.84H264.808L265.067 1069.38H267.36ZM267.36 1069.38C267.312 1069.53 267.265 1069.69 267.22 1069.84H264.808L265.067 1069.38H267.36ZM267.36 1069.38C267.312 1069.53 267.265 1069.69 267.22 1069.84H264.808L265.067 1069.38H267.36ZM263.691 1068.71C263.691 1069.08 263.992 1069.38 264.362 1069.38H267.36C267.312 1069.53 267.265 1069.68 267.22 1069.83H264.362C264.335 1069.83 264.312 1069.83 264.288 1069.83C263.704 1069.79 263.239 1069.3 263.239 1068.7C263.239 1068.11 263.744 1067.58 264.362 1067.58H268.036C267.97 1067.72 267.909 1067.88 267.849 1068.03H264.364C263.995 1068.03 263.693 1068.33 263.693 1068.7L263.691 1068.71ZM269.777 1067.94C269.703 1068.1 269.632 1068.27 269.566 1068.43C269.46 1068.2 269.227 1068.03 268.953 1068.03H268.913C268.976 1067.89 269.04 1067.74 269.109 1067.59C269.373 1067.63 269.608 1067.76 269.777 1067.94ZM269.212 1069.33C269.151 1069.5 269.095 1069.66 269.037 1069.83C269.008 1069.83 268.979 1069.84 268.95 1069.84H268.242C268.29 1069.69 268.34 1069.53 268.39 1069.38H268.947C269.04 1069.38 269.127 1069.36 269.209 1069.33H269.212ZM267.36 1069.38C267.312 1069.53 267.265 1069.69 267.22 1069.84H264.808L265.067 1069.38H267.36ZM267.36 1069.38C267.312 1069.53 267.265 1069.69 267.22 1069.84H264.808L265.067 1069.38H267.36ZM267.36 1069.38C267.312 1069.53 267.265 1069.69 267.22 1069.84H264.808L265.067 1069.38H267.36ZM267.36 1069.38C267.312 1069.53 267.265 1069.69 267.22 1069.84H264.808L265.067 1069.38H267.36ZM267.36 1069.38C267.312 1069.53 267.265 1069.69 267.22 1069.84H264.808L265.067 1069.38H267.36ZM267.36 1069.38C267.312 1069.53 267.265 1069.69 267.22 1069.84H264.808L265.067 1069.38H267.36ZM267.36 1069.38C267.312 1069.53 267.265 1069.69 267.22 1069.84H264.808L265.067 1069.38H267.36ZM267.36 1069.38C267.312 1069.53 267.265 1069.69 267.22 1069.84H264.808L265.067 1069.38H267.36ZM267.36 1069.38C267.312 1069.53 267.265 1069.69 267.22 1069.84H264.808L265.067 1069.38H267.36ZM267.36 1069.38C267.312 1069.53 267.265 1069.69 267.22 1069.84H264.808L265.067 1069.38H267.36Z" fill="#030303"/>
<path d="M258.614 1079.73L257.914 1080.96C257.161 1080.34 256.611 1079.49 256.384 1078.51C256.453 1078.51 256.516 1078.51 256.575 1078.51C256.72 1078.51 256.823 1078.51 256.86 1078.51L257.763 1078.47C257.938 1078.96 258.233 1079.39 258.614 1079.73Z" fill="#5D5D5D"/>
<path d="M260.349 1077.61L259.905 1078.38L259.2 1079.61L258.976 1080.01L258.278 1081.23L258.051 1081.62L256.77 1083.86L256.516 1084.3L256.123 1084.07L256.249 1083.86L257.684 1081.36L257.911 1080.96L258.614 1079.73L258.843 1079.33L259.372 1078.41L259.816 1077.63L260.349 1077.61Z" fill="#030303"/>
<path d="M267.03 1068.03C266.861 1068.48 266.705 1068.93 266.568 1069.38H264.359C263.989 1069.38 263.688 1069.08 263.688 1068.71C263.688 1068.34 263.989 1068.04 264.359 1068.04H267.03V1068.03Z" fill="#4F4F4F"/>
<path d="M265.064 1069.38L264.805 1069.84L264.103 1071.07L263.683 1071.8C263.508 1071.79 263.339 1071.78 263.176 1071.78L263.598 1071.04L264.288 1069.83L264.547 1069.39H265.067L265.064 1069.38Z" fill="#030303"/>
<path d="M265.133 1078.17C264.8 1080.32 262.951 1081.96 260.724 1081.96C260.119 1081.96 259.541 1081.84 259.015 1081.62L259.739 1080.37C260.032 1080.47 260.341 1080.52 260.663 1080.52C262.082 1080.52 263.281 1079.55 263.638 1078.24L265.133 1078.18V1078.17Z" fill="#4F4F4F"/>
<path d="M260.386 1078.37L259.546 1079.81L259.316 1080.2L258.606 1081.42L258.379 1081.82L257.19 1083.86H256.77L258.051 1081.62L258.278 1081.23L258.976 1080.01L259.2 1079.61L259.905 1078.38L260.386 1078.37Z" fill="#5D5D5D"/>
<path d="M261.374 1077.57L260.922 1078.34L259.974 1079.97L259.739 1080.37L259.018 1081.62L258.785 1082.01L257.71 1083.86L257.515 1084.2L257.124 1083.97L257.19 1083.86L258.379 1081.82L258.606 1081.42L259.316 1080.2L259.546 1079.81L260.386 1078.37L260.838 1077.59L261.374 1077.57Z" fill="#030303"/>
<path d="M267.317 1075.87C267.317 1076.36 267.336 1076.85 267.373 1077.33L265.637 1077.4L265.186 1077.42L263.746 1077.47L263.294 1077.49L261.374 1077.57L260.838 1077.59L260.349 1077.61L259.816 1077.63L258.046 1077.7L257.594 1077.72L256.823 1077.75C256.696 1077.76 256.5 1077.76 256.271 1077.75C256.128 1077.74 255.972 1077.73 255.814 1077.71C255.367 1077.66 254.897 1077.55 254.609 1077.34C254.443 1077.22 254.451 1076.79 254.633 1076.22C254.807 1075.67 255.085 1075.15 255.462 1074.66C255.935 1074.06 256.854 1072.96 257.737 1072.35C258.965 1071.51 260.312 1071.63 260.325 1071.63H260.347C260.397 1071.64 261.48 1071.69 263.17 1071.78C263.334 1071.78 263.503 1071.79 263.677 1071.8C263.844 1071.81 264.013 1071.82 264.19 1071.83C264.356 1071.83 264.525 1071.84 264.697 1071.85C265.096 1071.87 265.516 1071.89 265.952 1071.92C266.2 1071.93 266.451 1071.94 266.71 1071.95C267.03 1071.97 267.357 1071.99 267.69 1072C267.442 1073.25 267.315 1074.55 267.315 1075.87H267.317Z" fill="#CE6326"/>
<path d="M265.35 1069.84L264.621 1071.09C264.444 1071.08 264.272 1071.07 264.103 1071.06L264.806 1069.83H265.35V1069.84Z" fill="#5D5D5D"/>
<path d="M265.901 1069.79L265.872 1069.83L265.127 1071.11L264.699 1071.85C264.525 1071.84 264.359 1071.83 264.192 1071.82L264.62 1071.09L265.349 1069.84L265.51 1069.56L265.901 1069.79V1069.79Z" fill="#030303"/>
<path d="M266.396 1046.27L266.335 1046.53L260.832 1070.9L260.735 1071.34L259.998 1071.17L260.066 1070.87H260.069L260.51 1068.9L260.692 1068.09L260.906 1067.16L261.086 1066.35L265.582 1046.45L265.661 1046.1L266.396 1046.27Z" fill="#030303"/>
<path d="M267.973 1046.39L267.899 1046.7L266.396 1053.16L266.224 1053.91L265.96 1055.05L265.785 1055.79L262.254 1070.97L262.164 1071.37L261.43 1071.2L261.49 1070.93L267.143 1046.62L267.238 1046.22L267.973 1046.39Z" fill="#030303"/>
<path d="M274.463 1045.08C274.003 1046.11 272.957 1046.49 272.452 1046.67C271.866 1046.88 271.324 1046.94 270.852 1046.94C270.548 1046.94 270.276 1046.92 270.035 1046.9C269.19 1046.83 268.493 1046.76 267.901 1046.7C267.629 1046.67 267.378 1046.65 267.146 1046.62C266.85 1046.59 266.586 1046.56 266.337 1046.53C266.065 1046.5 265.819 1046.47 265.584 1046.44C265.471 1046.43 265.36 1046.42 265.252 1046.4C264.972 1046.37 264.699 1046.34 264.409 1046.3L263.965 1046.25C262.232 1046.06 261.086 1045.93 260.436 1045.08C260.293 1044.89 259.913 1044.4 259.974 1043.72C259.982 1043.64 260.056 1042.97 260.581 1042.57C260.864 1042.35 261.184 1042.27 261.511 1042.27C261.873 1042.27 262.245 1042.36 262.597 1042.45C262.665 1042.46 262.737 1042.48 262.805 1042.5C262.819 1042.5 264.079 1042.78 265.959 1042.78H265.965C266.739 1042.78 268.015 1042.43 270.558 1041.73L270.949 1041.62C272.249 1041.26 272.685 1041.14 273.261 1041.42C274.439 1042 275.033 1043.81 274.465 1045.08L274.463 1045.08ZM272.928 1042.1C272.621 1041.95 272.355 1042.01 271.15 1042.35L270.756 1042.46C268.149 1043.18 266.839 1043.54 265.962 1043.54H265.957C263.984 1043.54 262.689 1043.24 262.634 1043.23C262.562 1043.22 262.491 1043.2 262.417 1043.18C261.865 1043.05 261.347 1042.92 261.036 1043.16C260.761 1043.37 260.721 1043.78 260.719 1043.79C260.684 1044.17 260.917 1044.47 261.028 1044.62C261.485 1045.21 262.502 1045.33 264.044 1045.5L264.491 1045.55C264.781 1045.59 265.056 1045.62 265.339 1045.65C266.395 1045.78 267.592 1045.93 270.099 1046.14C270.672 1046.19 271.388 1046.25 272.196 1045.96C272.632 1045.8 273.446 1045.5 273.776 1044.77C274.217 1043.79 273.667 1042.46 272.928 1042.1V1042.1Z" fill="#030303"/>
<path d="M273.776 1044.77C273.446 1045.51 272.632 1045.8 272.196 1045.96C271.388 1046.26 270.675 1046.2 270.099 1046.15C267.595 1045.93 266.396 1045.79 265.339 1045.66C265.056 1045.62 264.782 1045.59 264.491 1045.56L264.045 1045.51C262.502 1045.33 261.485 1045.21 261.028 1044.62C260.917 1044.48 260.687 1044.18 260.719 1043.79C260.719 1043.79 260.761 1043.38 261.036 1043.17C261.348 1042.93 261.865 1043.05 262.417 1043.19C262.489 1043.2 262.56 1043.22 262.634 1043.24C262.689 1043.25 263.984 1043.54 265.957 1043.54H265.962C266.837 1043.54 268.147 1043.18 270.757 1042.46L271.15 1042.35C272.355 1042.02 272.622 1041.95 272.928 1042.11C273.668 1042.47 274.217 1043.8 273.776 1044.77V1044.77Z" fill="#7C5039"/>
<path d="M267.143 1046.62L261.49 1070.93C261.228 1070.92 261.007 1070.91 260.835 1070.9L266.337 1046.53C266.586 1046.56 266.85 1046.59 267.146 1046.62H267.143Z" fill="#CE6326"/>
<path d="M261.15 1068.44L260.698 1069.04L260.511 1068.9L236.127 1050.61L235.511 1050.15L235.96 1049.55L236.367 1049.85L260.693 1068.09L261.15 1068.44Z" fill="#030303"/>
<path d="M261.609 1066.74L261.163 1067.34L260.907 1067.16L236.576 1049.18L236.076 1048.81L236.523 1048.2L236.816 1048.42L261.086 1066.35L261.609 1066.74Z" fill="#030303"/>
<path d="M274.098 1060.86C271.995 1062.71 270.284 1065.01 269.106 1067.59C269.04 1067.74 268.974 1067.88 268.91 1068.03C268.723 1068.48 268.548 1068.93 268.392 1069.38C268.342 1069.53 268.292 1069.68 268.245 1069.84C268.097 1070.3 267.967 1070.77 267.854 1071.25C267.518 1071.24 267.188 1071.22 266.866 1071.2C266.966 1070.74 267.085 1070.29 267.217 1069.84C267.262 1069.68 267.309 1069.53 267.357 1069.38C267.505 1068.93 267.666 1068.48 267.843 1068.03C267.904 1067.88 267.965 1067.73 268.031 1067.58C269.24 1064.74 271.06 1062.23 273.308 1060.21C273.572 1060.42 273.837 1060.64 274.096 1060.86H274.098Z" fill="#CE6326"/>
<path d="M283.143 1072.02L283.124 1072.03L282.448 1072.31C282.403 1072.2 282.356 1072.09 282.311 1071.98C280.972 1068.87 279.12 1066.02 276.867 1063.54C276.563 1063.21 276.251 1062.88 275.932 1062.55C275.522 1062.14 275.105 1061.74 274.674 1061.36C274.487 1061.19 274.294 1061.02 274.101 1060.86C273.842 1060.64 273.581 1060.42 273.314 1060.2C273.105 1060.04 272.894 1059.88 272.682 1059.71C270.575 1058.12 268.261 1056.79 265.788 1055.79C265.661 1055.74 265.534 1055.69 265.408 1055.64L265.68 1054.93C265.772 1054.97 265.867 1055.01 265.962 1055.04C268.585 1056.09 271.039 1057.5 273.264 1059.2C273.478 1059.37 273.689 1059.53 273.898 1059.7C274.164 1059.92 274.428 1060.14 274.687 1060.36C274.88 1060.53 275.07 1060.7 275.261 1060.87C275.691 1061.26 276.111 1061.66 276.518 1062.07C276.84 1062.4 277.152 1062.73 277.456 1063.07C279.83 1065.69 281.769 1068.71 283.146 1072.02H283.143Z" fill="#030303"/>
<path d="M283.124 1072.03L283.142 1072.02C281.766 1068.71 279.827 1065.69 277.453 1063.07C277.149 1062.73 276.835 1062.4 276.515 1062.08C276.108 1061.66 275.688 1061.26 275.258 1060.87C275.067 1060.7 274.877 1060.53 274.684 1060.36C274.425 1060.14 274.161 1059.92 273.895 1059.7C273.686 1059.53 273.475 1059.37 273.261 1059.2C271.039 1057.5 268.582 1056.1 265.959 1055.04L266.224 1053.9C269.15 1054.96 271.876 1056.48 274.32 1058.36C274.536 1058.52 274.75 1058.69 274.959 1058.86C275.231 1059.08 275.501 1059.31 275.765 1059.54C275.96 1059.71 276.153 1059.88 276.343 1060.05C276.776 1060.45 277.199 1060.86 277.611 1061.28C277.931 1061.61 278.245 1061.95 278.549 1062.29C281.087 1065.14 283.1 1068.46 284.426 1072.09C284.078 1072.07 283.639 1072.05 283.127 1072.02L283.124 1072.03Z" fill="#CE6326"/>
<path d="M306.457 1067.57C306.444 1067.61 306.418 1067.66 306.322 1067.69C305.823 1067.88 305.461 1067.66 305.329 1067.56C302.181 1060.68 295.249 1055.89 287.227 1055.89C283.246 1055.89 279.535 1057.07 276.42 1059.1C276.156 1058.86 275.884 1058.63 275.612 1058.41C278.98 1056.12 283.022 1054.79 287.304 1054.79C295.254 1054.79 302.651 1059.39 306.145 1066.52L306.164 1066.55C306.33 1066.82 306.542 1067.33 306.46 1067.57L306.457 1067.57Z" fill="#CE6326"/>
<path d="M285.307 1072.33L284.596 1072.58C284.541 1072.42 284.482 1072.25 284.427 1072.1C283.101 1068.47 281.088 1065.14 278.55 1062.3C278.243 1061.95 277.932 1061.62 277.612 1061.29C277.2 1060.87 276.777 1060.46 276.344 1060.06C276.154 1059.89 275.961 1059.71 275.765 1059.54C275.501 1059.32 275.235 1059.09 274.96 1058.87C274.748 1058.7 274.535 1058.53 274.321 1058.36C271.88 1056.48 269.151 1054.97 266.224 1053.91C266.079 1053.86 265.931 1053.81 265.783 1053.75L266.029 1053.04C266.15 1053.08 266.274 1053.13 266.396 1053.17C269.468 1054.27 272.374 1055.88 274.965 1057.9C275.182 1058.06 275.398 1058.24 275.61 1058.41C275.884 1058.63 276.154 1058.87 276.418 1059.1C276.613 1059.27 276.809 1059.45 276.999 1059.62C277.298 1059.9 277.588 1060.18 277.873 1060.46C278.008 1060.6 278.14 1060.73 278.27 1060.87C278.592 1061.2 278.904 1061.54 279.21 1061.89C281.849 1064.89 283.915 1068.39 285.238 1072.14C285.262 1072.21 285.283 1072.27 285.304 1072.33L285.307 1072.33Z" fill="#030303"/>
<path d="M248.5 1076.04C248.5 1077.71 248.304 1079.38 247.918 1080.99C247.871 1081.12 247.52 1081.95 247.047 1081.85C246.616 1081.76 246.653 1080.93 246.666 1080.73C247.004 1079.27 247.184 1077.75 247.184 1076.19C247.184 1067.54 241.674 1060.16 233.992 1057.39C234.135 1056.93 234.278 1056.48 234.418 1056.03C242.614 1058.96 248.5 1066.82 248.5 1076.04Z" fill="#CE6326"/>
<path d="M232.296 1055.4C232.151 1055.87 232.011 1056.32 231.874 1056.76C230.4 1056.41 228.857 1056.22 227.278 1056.22C221.981 1056.22 217.16 1058.31 213.592 1061.7L213.579 1061.66C212.805 1061.92 212.012 1061.98 211.904 1061.84C211.79 1061.69 212.115 1061.28 212.319 1061.11L212.342 1061.08C216.344 1057.04 221.672 1054.82 227.349 1054.82C229.053 1054.82 230.709 1055.02 232.294 1055.4H232.296Z" fill="#CE6326"/>
<path d="M237.917 1042.31C237.904 1042.39 237.877 1042.52 237.817 1042.71C237.719 1043.04 235.965 1048.61 233.928 1055.07C233.852 1055.31 233.778 1055.55 233.701 1055.8C233.558 1056.24 233.418 1056.69 233.276 1057.14C233.199 1057.38 233.123 1057.62 233.049 1057.87C232.874 1058.41 232.703 1058.97 232.528 1059.51C232.391 1059.95 232.256 1060.38 232.119 1060.81C230.397 1066.28 228.751 1071.5 227.961 1074.01C227.76 1073.95 227.546 1073.91 227.322 1073.91C227.906 1072 229.559 1066.69 231.456 1060.62C231.591 1060.19 231.725 1059.76 231.863 1059.32C232.032 1058.77 232.203 1058.22 232.378 1057.67C232.454 1057.43 232.528 1057.19 232.602 1056.94C232.745 1056.5 232.885 1056.04 233.025 1055.59C233.102 1055.35 233.175 1055.11 233.252 1054.87C234.676 1050.31 236.094 1045.77 237.196 1042.25L237.206 1042.21C237.214 1042.18 237.241 1042.12 237.265 1042.11C237.283 1042.1 237.341 1042.09 237.452 1042.13L237.914 1042.31L237.917 1042.31Z" fill="#CE6326"/>
<path d="M260.906 1067.16L260.695 1068.09L236.367 1049.85C236.438 1049.62 236.509 1049.4 236.575 1049.18L260.906 1067.16Z" fill="#CE6326"/>
<path d="M238.538 1042.93C238.478 1043.14 237.799 1045.29 236.816 1048.42C236.737 1048.67 236.658 1048.92 236.576 1049.18C236.507 1049.4 236.438 1049.62 236.367 1049.85C236.288 1050.1 236.209 1050.36 236.127 1050.61C235.664 1052.07 235.165 1053.66 234.645 1055.32C234.568 1055.55 234.494 1055.8 234.418 1056.04C234.278 1056.48 234.135 1056.94 233.992 1057.39C233.916 1057.63 233.839 1057.87 233.765 1058.11C233.591 1058.66 233.419 1059.21 233.245 1059.76C233.108 1060.19 232.973 1060.62 232.835 1061.06C231.38 1065.68 229.983 1070.12 229.103 1072.9C228.929 1073.46 228.773 1073.95 228.643 1074.36C228.591 1074.53 228.543 1074.68 228.498 1074.82C228.334 1075.34 228.226 1075.68 228.192 1075.8L227.624 1075.62L227.473 1075.57C227.478 1075.56 227.502 1075.48 227.542 1075.35C227.579 1075.23 227.634 1075.06 227.7 1074.85C227.737 1074.73 227.78 1074.6 227.824 1074.45C227.867 1074.32 227.914 1074.17 227.962 1074.02C228.752 1071.51 230.397 1066.29 232.12 1060.82C232.257 1060.39 232.392 1059.95 232.529 1059.52C232.703 1058.97 232.875 1058.42 233.049 1057.87C233.126 1057.63 233.2 1057.39 233.277 1057.15C233.419 1056.7 233.559 1056.25 233.702 1055.8C233.778 1055.56 233.852 1055.32 233.929 1055.08C235.966 1048.62 237.72 1043.05 237.817 1042.72C237.875 1042.52 237.905 1042.39 237.918 1042.31L237.455 1042.14C237.345 1042.09 237.286 1042.1 237.268 1042.11C237.241 1042.12 237.218 1042.18 237.21 1042.21L237.199 1042.26C236.098 1045.77 234.679 1050.31 233.255 1054.88C233.179 1055.12 233.105 1055.36 233.028 1055.6C232.888 1056.05 232.748 1056.5 232.606 1056.95C232.532 1057.19 232.458 1057.43 232.381 1057.67C232.207 1058.22 232.035 1058.78 231.866 1059.32C231.729 1059.76 231.594 1060.19 231.459 1060.62C229.563 1066.7 227.909 1072.01 227.325 1073.91C227.283 1074.05 227.246 1074.17 227.214 1074.28C227.148 1074.49 227.111 1074.62 227.101 1074.65L226.776 1074.57H226.356C226.356 1074.56 226.356 1074.54 226.43 1074.29C226.448 1074.23 226.472 1074.15 226.501 1074.05C226.57 1073.82 226.67 1073.48 226.823 1073C227.338 1071.32 228.427 1067.81 230.727 1060.44C230.86 1060.02 230.994 1059.59 231.134 1059.14C231.301 1058.61 231.472 1058.05 231.649 1057.48C231.726 1057.24 231.8 1057 231.877 1056.76C232.014 1056.32 232.157 1055.87 232.299 1055.4C232.373 1055.16 232.447 1054.93 232.526 1054.68C233.633 1051.14 234.938 1046.97 236.478 1042.04C236.505 1041.94 236.6 1041.62 236.898 1041.45C236.993 1041.39 237.128 1041.34 237.308 1041.34C237.429 1041.34 237.569 1041.37 237.728 1041.42L237.754 1041.43L238.295 1041.64L238.351 1041.65C238.438 1041.68 238.515 1041.73 238.575 1041.8C238.612 1041.85 238.639 1041.9 238.657 1041.96C238.726 1042.16 238.689 1042.46 238.549 1042.92L238.538 1042.93Z" fill="#030303"/>
<path d="M244.378 1035.61C243.673 1035.75 241.467 1036.34 239.991 1038.43C238.977 1039.87 238.435 1040.97 238.158 1041.64L237.616 1041.44C237.801 1040.83 238.335 1039.24 238.961 1038.54C239.029 1038.46 239.064 1038.36 239.053 1038.26C239.043 1038.15 238.99 1038.06 238.905 1037.99C238.593 1037.76 237.555 1036.95 237.347 1036.35C237.307 1036.23 237.257 1036.1 237.204 1035.97C236.892 1035.19 236.541 1034.3 237.331 1033.24C238.007 1032.33 238.604 1031.69 238.9 1031.39C238.929 1031.36 238.963 1031.35 238.982 1031.35C239 1031.35 239.032 1031.36 239.061 1031.39L239.399 1031.77C239.412 1031.79 239.415 1031.8 239.415 1031.82C239.415 1031.83 239.41 1031.84 239.391 1031.86C238.897 1032.28 237.561 1033.7 237.621 1034.52C237.687 1035.42 237.856 1036.32 239.169 1037.26C239.418 1037.43 239.756 1037.39 239.959 1037.17C240.392 1036.68 241.684 1035.5 244.326 1035.04L244.368 1035.61H244.378Z" fill="#4F4F4F"/>
<path d="M244.833 1035.62C244.849 1035.83 244.706 1036.01 244.503 1036.05C244.495 1036.05 244.49 1036.05 244.484 1036.06C243.842 1036.18 241.756 1036.72 240.364 1038.69C239.294 1040.21 238.765 1041.34 238.522 1041.96C238.388 1042.3 238.343 1042.49 238.34 1042.49L237.902 1042.39C237.907 1042.36 237.97 1042.11 238.163 1041.64C238.438 1040.97 238.982 1039.87 239.996 1038.43C241.473 1036.34 243.679 1035.75 244.384 1035.61L244.342 1035.04C241.7 1035.5 240.408 1036.68 239.975 1037.16C239.772 1037.39 239.431 1037.43 239.185 1037.25C237.873 1036.31 237.704 1035.42 237.637 1034.51C237.579 1033.7 238.916 1032.28 239.407 1031.86C239.426 1031.84 239.428 1031.82 239.431 1031.81C239.431 1031.8 239.431 1031.79 239.415 1031.77L239.077 1031.39C239.048 1031.35 239.016 1031.35 238.998 1031.35C238.979 1031.35 238.945 1031.35 238.916 1031.38C238.62 1031.69 238.021 1032.32 237.347 1033.23C236.557 1034.3 236.908 1035.18 237.22 1035.97C237.27 1036.1 237.32 1036.23 237.363 1036.34C237.571 1036.95 238.61 1037.76 238.921 1037.99C239.006 1038.05 239.059 1038.15 239.069 1038.25C239.08 1038.36 239.045 1038.46 238.977 1038.54C238.351 1039.24 237.817 1040.83 237.632 1041.43C237.587 1041.58 237.564 1041.67 237.561 1041.67L237.125 1041.55C237.13 1041.54 237.149 1041.46 237.186 1041.34C237.363 1040.76 237.899 1039.12 238.581 1038.3C238.113 1037.95 237.167 1037.17 236.937 1036.49C236.898 1036.38 236.85 1036.26 236.803 1036.14C236.483 1035.34 236.047 1034.23 236.99 1032.97C237.682 1032.04 238.295 1031.38 238.599 1031.07C238.71 1030.96 238.861 1030.89 239.014 1030.9C239.024 1030.9 239.037 1030.9 239.048 1030.9C239.191 1030.91 239.325 1030.98 239.421 1031.09L239.497 1031.18L239.759 1031.47C239.788 1031.51 239.814 1031.55 239.835 1031.59C239.875 1031.67 239.896 1031.76 239.888 1031.85C239.883 1031.94 239.854 1032.02 239.809 1032.09C239.782 1032.14 239.748 1032.17 239.708 1032.21C239.035 1032.79 238.06 1034 238.097 1034.48C238.158 1035.34 238.298 1036.06 239.457 1036.89C239.516 1036.93 239.6 1036.93 239.648 1036.87C240.115 1036.34 241.502 1035.07 244.299 1034.59C244.302 1034.59 244.305 1034.59 244.305 1034.59C244.313 1034.59 244.323 1034.59 244.331 1034.59C244.442 1034.57 244.556 1034.6 244.645 1034.67C244.722 1034.73 244.772 1034.81 244.791 1034.9C244.793 1034.92 244.796 1034.94 244.799 1034.96L244.846 1035.59V1035.62L244.833 1035.62Z" fill="#030303"/>
<path d="M244.899 1029.33C244.479 1029.56 240.807 1031.16 239.822 1031.59C239.803 1031.55 239.777 1031.51 239.745 1031.47L239.484 1031.17L244.305 1028.54C244.413 1028.5 244.714 1028.41 244.891 1028.48C244.949 1028.51 244.983 1028.55 245.01 1028.61L245.015 1028.63C245.151 1028.97 245.112 1029.21 244.899 1029.32V1029.33Z" fill="#4F4F4F"/>
<path d="M245.115 1029.72C244.629 1029.99 240.271 1031.88 239.792 1032.09C239.777 1032.1 239.763 1032.1 239.756 1032.11L239.576 1031.69C239.576 1031.69 239.668 1031.65 239.819 1031.59C240.804 1031.16 244.476 1029.56 244.896 1029.33C245.111 1029.21 245.149 1028.98 245.012 1028.63L245.007 1028.61C244.98 1028.55 244.946 1028.51 244.888 1028.48C244.711 1028.41 244.407 1028.5 244.302 1028.54L239.481 1031.18L239.193 1031.33L238.976 1030.93L239.032 1030.9L244.117 1028.13C244.172 1028.1 244.671 1027.9 245.062 1028.07C245.231 1028.14 245.358 1028.27 245.427 1028.44L245.435 1028.46C245.636 1028.98 245.781 1029.35 245.113 1029.72L245.115 1029.72Z" fill="#030303"/>
<path d="M251.294 1034.62C251.275 1035.18 251.265 1035.19 251.006 1035.25C250.75 1035.3 247.308 1035.47 244.83 1035.59L244.782 1034.95C244.782 1034.94 244.777 1034.92 244.775 1034.9C245.44 1034.7 247.205 1034.28 250.824 1034.2H250.842C250.903 1034.19 251.09 1034.2 251.193 1034.3C251.265 1034.37 251.296 1034.48 251.294 1034.63V1034.62Z" fill="#4F4F4F"/>
<path d="M251.746 1034.64C251.719 1035.43 251.59 1035.57 251.12 1035.69C250.774 1035.77 245.559 1036.01 244.484 1036.05H244.471L244.452 1035.6C244.577 1035.6 244.701 1035.59 244.83 1035.58C247.305 1035.47 250.75 1035.3 251.006 1035.25C251.265 1035.19 251.276 1035.18 251.294 1034.62C251.299 1034.47 251.265 1034.36 251.194 1034.3C251.088 1034.2 250.903 1034.19 250.842 1034.2H250.824C247.205 1034.28 245.44 1034.69 244.775 1034.9C244.553 1034.97 244.452 1035.01 244.45 1035.01L244.254 1034.6C244.254 1034.6 244.268 1034.6 244.283 1034.59C244.286 1034.59 244.289 1034.59 244.289 1034.59C244.545 1034.48 246.193 1033.86 250.803 1033.75C250.882 1033.74 251.239 1033.72 251.5 1033.97C251.619 1034.08 251.759 1034.28 251.746 1034.64Z" fill="#030303"/>
<path d="M223.025 1060.5L227.794 1076.09L227.201 1076.27L222.431 1060.68L223.025 1060.5Z" fill="#030303"/>
<path d="M226.4 1076.53L226.875 1076.93L216.973 1088.72L216.498 1088.32L226.4 1076.53Z" fill="#030303"/>
<path d="M242.116 1068.71L242.407 1069.26L229.333 1076.22L229.042 1075.67L242.116 1068.71Z" fill="#030303"/>
<path d="M229.029 1076.61L243.905 1079.24L243.797 1079.85L228.921 1077.22L229.029 1076.61Z" fill="#030303"/>
<path d="M228.045 1076.87L242.021 1083.22L241.765 1083.79L227.789 1077.44L228.045 1076.87Z" fill="#030303"/>
<path d="M227.799 1076.11L231.677 1091.82L231.075 1091.97L227.196 1076.26L227.799 1076.11Z" fill="#030303"/>
<path d="M211.96 1069.52L225.831 1075.56L225.583 1076.13L211.713 1070.09L211.96 1069.52Z" fill="#030303"/>
<path d="M283.864 1059.72L287.507 1074.75L286.904 1074.9L283.26 1059.87L283.864 1059.72Z" fill="#030303"/>
<path d="M298.3 1063.19L298.766 1063.6L288.794 1074.95L288.329 1074.53L298.3 1063.19Z" fill="#030303"/>
<path d="M302.849 1070.36L303.062 1070.94L288.976 1076.1L288.763 1075.52L302.849 1070.36Z" fill="#030303"/>
<path d="M288.647 1077.07L302.005 1084.15L301.715 1084.7L288.357 1077.62L288.647 1077.07Z" fill="#030303"/>
<path d="M288.18 1077.97L290.897 1092.28L290.287 1092.4L287.569 1078.09L288.18 1077.97Z" fill="#030303"/>
<path d="M286.742 1077.74L287.233 1078.12L278.201 1089.86L277.71 1089.48L286.742 1077.74Z" fill="#030303"/>
<path d="M286.097 1077.31L286.481 1077.79L274.786 1087.06L274.401 1086.57L286.097 1077.31Z" fill="#030303"/>
<path d="M227.401 1075.88L227.596 1076.48L211.815 1081.7L211.62 1081.11L227.401 1075.88Z" fill="#030303"/>
<path d="M59.2709 1690.31C66.1544 1690.31 71.7346 1684.7 71.7346 1677.78C71.7346 1670.86 66.1544 1665.25 59.2709 1665.25C52.3873 1665.25 46.8071 1670.86 46.8071 1677.78C46.8071 1684.7 52.3873 1690.31 59.2709 1690.31Z" fill="#CE6326"/>
<path d="M59.2707 1690.56C52.2591 1690.56 46.5557 1684.83 46.5557 1677.78C46.5557 1670.73 52.2591 1665 59.2707 1665C66.2823 1665 71.9858 1670.73 71.9858 1677.78C71.9858 1684.83 66.2823 1690.56 59.2707 1690.56ZM59.2707 1665.5C52.5354 1665.5 47.0583 1671.01 47.0583 1677.78C47.0583 1684.55 52.537 1690.05 59.2707 1690.05C66.0043 1690.05 71.4831 1684.55 71.4831 1677.78C71.4831 1671.01 66.0043 1665.5 59.2707 1665.5Z" fill="#030303"/>
<path d="M59.2706 1678.3C59.2123 1678.3 59.1557 1678.28 59.1075 1678.24L53.9532 1673.84C53.8484 1673.75 53.8334 1673.59 53.9233 1673.48C54.0165 1673.38 54.1712 1673.37 54.2778 1673.45L59.432 1677.85C59.5369 1677.94 59.5518 1678.1 59.462 1678.21C59.412 1678.27 59.3421 1678.3 59.2706 1678.3Z" fill="#030303"/>
<path d="M59.281 1682.53C59.2228 1682.53 59.1662 1682.51 59.1196 1682.47C59.0131 1682.38 58.9998 1682.23 59.088 1682.12L64.8963 1675.18C64.9861 1675.08 65.1476 1675.06 65.2491 1675.15C65.3556 1675.24 65.3689 1675.4 65.2807 1675.5L59.4724 1682.44C59.4242 1682.5 59.3526 1682.53 59.281 1682.53Z" fill="#030303"/>
<path d="M59.1654 1685.33C59.1138 1685.33 59.0606 1685.32 59.0156 1685.28L55.246 1682.46C55.1345 1682.38 55.1112 1682.22 55.1944 1682.11C55.2776 1682 55.4358 1681.97 55.5456 1682.06L59.3152 1684.88C59.4267 1684.96 59.45 1685.12 59.3668 1685.23C59.3185 1685.3 59.2419 1685.33 59.1654 1685.33V1685.33Z" fill="#030303"/>
<path d="M59.2715 1744.32C59.1333 1744.32 59.02 1744.2 59.02 1744.06V1670.51C59.02 1670.37 59.1316 1670.25 59.2715 1670.25C59.4114 1670.25 59.523 1670.37 59.523 1670.51V1744.06C59.523 1744.2 59.4114 1744.32 59.2715 1744.32Z" fill="#030303"/>
<path d="M83.8575 1692.47C83.7992 1692.47 83.7427 1692.45 83.6944 1692.41L78.5401 1688.02C78.4353 1687.93 78.4203 1687.76 78.5102 1687.66C78.6017 1687.55 78.7598 1687.54 78.8647 1687.63L84.0189 1692.03C84.1238 1692.12 84.1388 1692.28 84.0489 1692.38C83.999 1692.44 83.9291 1692.47 83.8575 1692.47Z" fill="#030303"/>
<path d="M83.867 1696.71C83.8087 1696.71 83.7521 1696.69 83.7055 1696.65C83.599 1696.56 83.5857 1696.4 83.6739 1696.3L89.4822 1689.36C89.5721 1689.25 89.7319 1689.24 89.835 1689.33C89.9416 1689.42 89.9549 1689.58 89.8667 1689.68L84.0584 1696.62C84.0101 1696.68 83.9385 1696.71 83.867 1696.71Z" fill="#030303"/>
<path d="M83.7525 1699.51C83.7009 1699.51 83.6477 1699.49 83.6027 1699.46L79.8315 1696.64C79.72 1696.55 79.6967 1696.4 79.7799 1696.29C79.8631 1696.17 80.0212 1696.15 80.1311 1696.23L83.9023 1699.05C84.0138 1699.14 84.0371 1699.3 83.9539 1699.41C83.9056 1699.47 83.8291 1699.51 83.7525 1699.51V1699.51Z" fill="#030303"/>
<path d="M83.8574 1744.48C83.7192 1744.48 83.606 1744.37 83.606 1744.23V1687.04C83.606 1686.9 83.7175 1686.79 83.8574 1686.79C83.9973 1686.79 84.1089 1686.9 84.1089 1687.04V1744.23C84.1089 1744.37 83.9973 1744.48 83.8574 1744.48Z" fill="#030303"/>
<path d="M93.2316 1693.72C92.471 1692.43 91.6089 1690.95 91.5524 1688.67C91.5224 1687.47 91.7238 1686.53 91.8969 1685.71C92.1848 1684.41 92.4128 1683.3 91.7537 1681.73C91.1213 1680.2 90.0445 1679.26 89.5419 1678.8C87.6896 1677.18 85.6658 1676.4 83.5256 1676.45C82.8798 1676.46 79.5762 1676.66 77.4377 1679.32C76.2893 1680.72 75.9581 1682.19 75.8583 1682.74C75.4705 1684.46 75.7867 1685.51 76.1162 1686.63C76.3459 1687.41 76.5756 1688.22 76.6322 1689.33C76.7187 1691.47 75.9997 1692.85 75.3107 1694.18C74.5635 1695.62 73.8595 1696.99 74.3488 1699.11C74.7082 1700.69 75.4256 1701.99 76.489 1702.98C78.3996 1704.76 80.8111 1704.92 82.8782 1704.92H83.6238C83.7819 1704.92 83.9267 1704.92 84.0831 1704.9C86.1085 1704.86 89.1375 1704.67 91.6639 1702.39C92.2813 1701.83 93.7459 1700.53 94.2768 1698.42C94.8077 1696.44 94.0321 1695.12 93.2283 1693.72L93.2316 1693.72ZM93.8357 1698.29C93.3182 1700.27 91.9401 1701.51 91.351 1702.05C88.9528 1704.21 86.0536 1704.4 84.0848 1704.43C83.9266 1704.44 83.7835 1704.44 83.6254 1704.44H83.5688C81.3437 1704.47 78.8007 1704.49 76.8202 1702.64C75.83 1701.7 75.141 1700.49 74.8098 1699.02C74.3504 1697.07 74.9829 1695.83 75.7284 1694.4C76.4191 1693.07 77.193 1691.59 77.0932 1689.31C77.0499 1688.14 76.7919 1687.27 76.5622 1686.51C76.246 1685.4 75.9598 1684.44 76.3176 1682.84C76.4191 1682.31 76.7204 1680.94 77.7971 1679.62C79.8209 1677.13 82.9231 1676.94 83.5406 1676.93H83.6987C85.6658 1676.93 87.5315 1677.68 89.2274 1679.16C89.7017 1679.59 90.7202 1680.49 91.3243 1681.92C91.9268 1683.35 91.7121 1684.34 91.4392 1685.61C91.2661 1686.41 91.0947 1687.32 91.0947 1688.44V1688.69C91.1529 1691.1 92.0283 1692.61 92.8172 1693.97C93.6211 1695.34 94.2951 1696.52 93.8374 1698.3L93.8357 1698.29Z" fill="#030303"/>
<path d="M135.13 1715.75C127.731 1715.75 121.711 1709.7 121.711 1702.26C121.711 1694.82 127.731 1688.77 135.13 1688.77C142.529 1688.77 148.551 1694.82 148.551 1702.26C148.551 1709.7 142.531 1715.75 135.13 1715.75ZM135.13 1689.31C128.022 1689.31 122.24 1695.12 122.24 1702.26C122.24 1709.4 128.022 1715.22 135.13 1715.22C142.238 1715.22 148.021 1709.4 148.021 1702.26C148.021 1695.12 142.238 1689.31 135.13 1689.31Z" fill="#030303"/>
<path d="M135.129 1702.81C135.07 1702.81 135.008 1702.79 134.958 1702.74L129.518 1698.1C129.406 1698.01 129.391 1697.84 129.486 1697.73C129.584 1697.61 129.747 1697.6 129.86 1697.69L135.301 1702.34C135.412 1702.43 135.427 1702.6 135.332 1702.71C135.279 1702.77 135.206 1702.81 135.129 1702.81Z" fill="#030303"/>
<path d="M135.142 1707.28C135.082 1707.28 135.021 1707.26 134.972 1707.22C134.859 1707.12 134.846 1706.95 134.939 1706.84L141.07 1699.52C141.165 1699.41 141.335 1699.39 141.443 1699.49C141.556 1699.58 141.57 1699.75 141.476 1699.86L135.345 1707.18C135.294 1707.25 135.219 1707.28 135.142 1707.28Z" fill="#030303"/>
<path d="M135.022 1710.23C134.967 1710.23 134.911 1710.21 134.864 1710.18L130.885 1707.2C130.768 1707.12 130.743 1706.95 130.83 1706.83C130.916 1706.71 131.085 1706.69 131.201 1706.77L135.18 1709.75C135.297 1709.84 135.322 1710.01 135.235 1710.12C135.184 1710.19 135.104 1710.23 135.022 1710.23Z" fill="#030303"/>
<path d="M134.865 1744.15V1694.58C134.865 1694.44 134.983 1694.32 135.13 1694.32C135.276 1694.32 135.394 1694.44 135.394 1694.58V1744.15" fill="#030303"/>
<path d="M118.002 1689.12C117.208 1687.78 116.308 1686.23 116.248 1683.85C116.218 1682.6 116.427 1681.62 116.607 1680.76C116.907 1679.41 117.146 1678.25 116.457 1676.61C115.798 1675.01 114.675 1674.03 114.151 1673.55C112.219 1671.86 110.107 1671.05 107.873 1671.1C107.199 1671.11 103.752 1671.32 101.521 1674.09C100.322 1675.55 99.9761 1677.09 99.8729 1677.66C99.4685 1679.45 99.7981 1680.55 100.143 1681.73C100.382 1682.54 100.622 1683.38 100.682 1684.55C100.772 1686.77 100.023 1688.22 99.3038 1689.61C98.5249 1691.11 97.7893 1692.54 98.3002 1694.76C98.6747 1696.4 99.4236 1697.75 100.532 1698.79C102.524 1700.64 105.042 1700.81 107.199 1700.81H108.218C108.293 1700.81 108.382 1700.79 108.457 1700.79C110.569 1700.75 113.731 1700.55 116.368 1698.17C117.012 1697.59 118.541 1696.23 119.095 1694.03C119.65 1691.97 118.841 1690.58 118.002 1689.12V1689.12ZM118.633 1693.9C118.093 1695.96 116.655 1697.25 116.041 1697.81C113.54 1700.07 110.513 1700.27 108.461 1700.3C108.386 1700.31 108.296 1700.31 108.221 1700.31H107.921C105.598 1700.34 102.947 1700.36 100.88 1698.43C99.8463 1697.45 99.1274 1696.19 98.7829 1694.65C98.3035 1692.62 98.9626 1691.32 99.7415 1689.83C100.46 1688.44 101.269 1686.89 101.164 1684.51C101.119 1683.29 100.85 1682.39 100.61 1681.59C100.281 1680.43 99.9811 1679.44 100.356 1677.77C100.46 1677.21 100.775 1675.78 101.9 1674.41C104.012 1671.8 107.249 1671.61 107.893 1671.59H108.058C110.11 1671.59 112.059 1672.38 113.826 1673.93C114.321 1674.38 115.384 1675.31 116.013 1676.8C116.642 1678.29 116.417 1679.33 116.133 1680.66C115.953 1681.49 115.773 1682.43 115.773 1683.61V1683.87C115.833 1686.38 116.747 1687.96 117.573 1689.38C118.411 1690.81 119.115 1692.04 118.636 1693.9H118.633Z" fill="#030303"/>
<path d="M118.633 1693.9C118.094 1695.96 116.656 1697.25 116.042 1697.81C113.541 1700.07 110.513 1700.26 108.461 1700.29C108.386 1700.31 108.297 1700.31 108.222 1700.31H107.922C105.599 1700.34 102.948 1700.36 100.881 1698.43C99.8471 1697.45 99.1281 1696.19 98.7836 1694.65C98.3043 1692.62 98.9634 1691.32 99.7423 1689.83C100.461 1688.44 101.27 1686.89 101.165 1684.51C101.12 1683.29 100.851 1682.39 100.611 1681.59C100.281 1680.43 99.9819 1679.44 100.356 1677.77C100.461 1677.21 100.776 1675.78 101.901 1674.41C104.013 1671.8 107.25 1671.61 107.894 1671.59H108.059C110.111 1671.59 112.06 1672.37 113.827 1673.93C114.321 1674.38 115.385 1675.31 116.014 1676.8C116.643 1678.29 116.418 1679.33 116.134 1680.66C115.954 1681.49 115.774 1682.43 115.774 1683.61V1683.87C115.834 1686.38 116.748 1687.96 117.573 1689.38C118.412 1690.81 119.116 1692.04 118.637 1693.9H118.633Z" fill="#CE6326"/>
<path d="M108.222 1687.81C108.162 1687.81 108.102 1687.79 108.052 1687.75L102.671 1683.16C102.561 1683.07 102.546 1682.9 102.641 1682.79C102.738 1682.68 102.901 1682.67 103.011 1682.76L108.391 1687.35C108.501 1687.45 108.516 1687.61 108.421 1687.72C108.368 1687.78 108.295 1687.81 108.222 1687.81Z" fill="#030303"/>
<path d="M108.23 1692.23C108.17 1692.23 108.11 1692.21 108.061 1692.17C107.95 1692.08 107.935 1691.91 108.03 1691.8L114.091 1684.56C114.184 1684.45 114.352 1684.44 114.461 1684.53C114.572 1684.62 114.587 1684.79 114.492 1684.9L108.431 1692.14C108.379 1692.2 108.304 1692.23 108.231 1692.23H108.23Z" fill="#030303"/>
<path d="M108.111 1695.16C108.056 1695.16 108.001 1695.14 107.954 1695.1L104.02 1692.16C103.905 1692.07 103.88 1691.91 103.965 1691.79C104.052 1691.68 104.216 1691.65 104.333 1691.74L108.267 1694.68C108.382 1694.77 108.407 1694.93 108.322 1695.05C108.27 1695.12 108.192 1695.15 108.111 1695.15V1695.16Z" fill="#030303"/>
<path d="M107.959 1743.89V1679.59C107.959 1679.45 108.076 1679.33 108.22 1679.33C108.365 1679.33 108.482 1679.45 108.482 1679.59V1743.9" fill="#030303"/>
<path d="M37.2475 1715.9C31.0032 1715.9 25.9238 1710.8 25.9238 1704.52C25.9238 1698.24 31.0032 1693.14 37.2475 1693.14C43.4919 1693.14 48.5713 1698.24 48.5713 1704.52C48.5713 1710.8 43.4919 1715.9 37.2475 1715.9ZM37.2475 1693.59C31.2495 1693.59 26.3715 1698.49 26.3715 1704.52C26.3715 1710.55 31.2512 1715.45 37.2475 1715.45C43.2439 1715.45 48.1236 1710.55 48.1236 1704.52C48.1236 1698.49 43.2439 1693.59 37.2475 1693.59Z" fill="#030303"/>
<path d="M37.2475 1704.98C37.1959 1704.98 37.1443 1704.96 37.1027 1704.93L32.5127 1701.01C32.4195 1700.93 32.4062 1700.78 32.486 1700.69C32.5693 1700.6 32.7074 1700.59 32.8023 1700.66L37.3923 1704.58C37.4855 1704.66 37.4988 1704.81 37.419 1704.9C37.374 1704.95 37.3108 1704.98 37.2475 1704.98V1704.98Z" fill="#030303"/>
<path d="M37.2569 1708.75C37.2053 1708.75 37.1537 1708.74 37.1138 1708.7C37.0189 1708.62 37.0056 1708.48 37.0855 1708.38L42.2581 1702.21C42.338 1702.11 42.4811 1702.1 42.5726 1702.18C42.6675 1702.26 42.6808 1702.4 42.6009 1702.49L37.4284 1708.67C37.3851 1708.73 37.3202 1708.75 37.2569 1708.75V1708.75Z" fill="#030303"/>
<path d="M37.1543 1711.25C37.1077 1711.25 37.0611 1711.23 37.0212 1711.2L33.6643 1708.69C33.5661 1708.62 33.5445 1708.48 33.6177 1708.38C33.691 1708.28 33.8324 1708.26 33.9306 1708.33L37.2874 1710.84C37.3856 1710.92 37.4073 1711.06 37.3341 1711.16C37.2908 1711.21 37.2225 1711.25 37.1543 1711.25Z" fill="#030303"/>
<path d="M36.9854 1743.9V1698.52C36.9854 1698.39 37.1036 1698.29 37.2501 1698.29C37.3967 1698.29 37.5133 1698.4 37.5133 1698.52L37.4683 1743.9" fill="#030303"/>
<path d="M1 1V291C1 309.225 15.7746 324 34 324H296C314.225 324 329 338.775 329 357V1063.5C329 1081.73 314.225 1096.5 296 1096.5H34C15.7746 1096.5 1 1111.27 1 1129.5V1518C1 1536.23 15.7746 1551 34 1551H296C314.225 1551 329 1565.77 329 1584V1711C329 1729.23 314.225 1744 296 1744H34C15.7746 1744 1 1758.77 1 1777V1972" stroke="#030303" stroke-width="2" stroke-linecap="round"/>
<path d="M200.442 1527.01C201.118 1517.94 206.656 1510.01 214.902 1506.23C214.973 1506.2 215.041 1506.16 215.111 1506.13C218.306 1504.72 221.691 1504 225.179 1504H268.141C276.421 1504 283.14 1510.74 283.14 1519.03V1538.17C283.14 1540.72 281.073 1542.77 278.558 1542.77H204.958C202.458 1542.77 200.392 1540.72 200.392 1538.17V1528.89C200.392 1528.26 200.392 1527.64 200.444 1527.01L200.442 1527.01ZM200.998 1538.18C200.998 1540.37 202.785 1542.17 204.955 1542.17H278.555C280.726 1542.17 282.531 1540.37 282.531 1538.18V1519.03C282.531 1511.07 276.074 1504.61 268.141 1504.61H225.179C224.293 1504.61 223.392 1504.67 222.522 1504.75C222.313 1504.79 222.088 1504.8 221.913 1504.84C219.709 1505.13 217.575 1505.73 215.508 1506.63C215.438 1506.65 215.404 1506.67 215.37 1506.68C215.195 1506.75 215.041 1506.84 214.884 1506.93C207.074 1510.62 201.813 1518.16 201.084 1526.8C201.084 1526.89 201.05 1526.96 201.05 1527.04V1527.5C201.016 1527.97 200.998 1528.44 200.998 1528.89V1538.18Z" fill="#030303"/>
<path d="M200.99 1528.89V1538.18C200.99 1540.37 202.777 1542.17 204.963 1542.17H216.645C216.835 1537.78 220.448 1534.29 224.857 1534.29C229.267 1534.29 232.877 1537.78 233.067 1542.17H253.116C253.306 1537.78 256.916 1534.29 261.326 1534.29C265.735 1534.29 269.327 1537.78 269.517 1542.17H278.545C280.731 1542.17 282.521 1540.38 282.521 1538.18V1524.73H223.815C222.773 1524.73 221.906 1523.88 221.906 1522.82V1504.84C219.701 1505.14 217.567 1505.73 215.501 1506.63C215.414 1509.04 214.215 1521.34 201.04 1527.5C201.006 1527.97 200.987 1528.44 200.987 1528.89H200.99Z" fill="#CE6326"/>
<path d="M265.536 1504.31H266.146V1524.43H265.536V1504.31Z" fill="#030303"/>
<path d="M250.702 1504.38H251.308V1524.47H250.702V1504.38Z" fill="#030303"/>
<path d="M235.855 1504.24H236.461V1524.47H235.855V1504.24Z" fill="#030303"/>
<path d="M221.914 1504.31V1522.81C221.914 1523.87 222.781 1524.73 223.824 1524.73H282.929V1524.12H223.824C223.113 1524.12 222.523 1523.52 222.523 1522.81V1504.31H221.914Z" fill="#030303"/>
<path d="M227.279 1518.84C227.368 1518.84 227.454 1518.79 227.486 1518.69L230.069 1511.18C230.108 1511.06 230.048 1510.94 229.936 1510.9C229.821 1510.86 229.698 1510.92 229.659 1511.03L227.076 1518.55C227.036 1518.66 227.096 1518.79 227.209 1518.83C227.232 1518.84 227.256 1518.84 227.279 1518.84Z" fill="#030303"/>
<path d="M229.599 1519.19C229.688 1519.19 229.774 1519.14 229.805 1519.05L231.325 1514.55C231.365 1514.44 231.305 1514.32 231.19 1514.28C231.085 1514.24 230.955 1514.3 230.915 1514.41L229.395 1518.91C229.356 1519.02 229.416 1519.15 229.531 1519.18C229.552 1519.19 229.578 1519.2 229.601 1519.2L229.599 1519.19Z" fill="#030303"/>
<path d="M271.21 1519.68C271.288 1519.68 271.362 1519.64 271.401 1519.56L275.512 1511.88C275.567 1511.77 275.528 1511.64 275.424 1511.59C275.316 1511.53 275.186 1511.57 275.128 1511.68L271.017 1519.36C270.962 1519.47 271.001 1519.6 271.106 1519.65C271.14 1519.67 271.174 1519.68 271.21 1519.68V1519.68Z" fill="#030303"/>
<path d="M273.773 1518.71C273.851 1518.71 273.924 1518.67 273.964 1518.59L275.667 1515.4C275.721 1515.3 275.682 1515.17 275.578 1515.11C275.479 1515.06 275.343 1515.09 275.285 1515.2L273.582 1518.39C273.527 1518.49 273.566 1518.63 273.671 1518.68C273.702 1518.7 273.736 1518.71 273.773 1518.71Z" fill="#030303"/>
<path d="M253.101 1542.55C253.101 1542.62 253.101 1542.71 253.119 1542.78C253.224 1547.22 256.852 1550.81 261.329 1550.81C265.806 1550.81 269.419 1547.22 269.521 1542.78C269.539 1542.71 269.539 1542.62 269.539 1542.55C269.539 1542.41 269.539 1542.29 269.521 1542.17C269.33 1537.78 265.738 1534.29 261.329 1534.29C256.92 1534.29 253.31 1537.78 253.119 1542.17C253.101 1542.29 253.101 1542.41 253.101 1542.55Z" fill="#030303"/>
<path d="M261.305 1547.22C258.734 1547.22 256.65 1545.13 256.65 1542.55C256.65 1539.97 258.734 1537.88 261.305 1537.88C263.875 1537.88 265.959 1539.97 265.959 1542.55C265.959 1545.13 263.875 1547.22 261.305 1547.22Z" fill="#FCFCFC"/>
<path d="M216.629 1542.55C216.629 1542.62 216.629 1542.71 216.645 1542.78C216.75 1547.22 220.378 1550.81 224.858 1550.81C229.338 1550.81 232.963 1547.22 233.068 1542.78C233.086 1542.71 233.086 1542.62 233.086 1542.55C233.086 1542.41 233.086 1542.29 233.068 1542.17C232.877 1537.78 229.267 1534.29 224.858 1534.29C220.448 1534.29 216.838 1537.78 216.645 1542.17C216.629 1542.29 216.629 1542.41 216.629 1542.55Z" fill="#030303"/>
<path d="M224.74 1547.22C222.169 1547.22 220.085 1545.13 220.085 1542.55C220.085 1539.97 222.169 1537.88 224.74 1537.88C227.311 1537.88 229.395 1539.97 229.395 1542.55C229.395 1545.13 227.311 1547.22 224.74 1547.22Z" fill="#FCFCFC"/>
<path d="M200.643 1527.01L200.904 1527.57C200.956 1527.55 200.99 1527.52 201.043 1527.5C214.218 1521.34 215.415 1509.04 215.503 1506.63C215.519 1506.39 215.519 1506.25 215.519 1506.23H214.91C214.91 1506.29 214.91 1506.53 214.876 1506.93C214.686 1509.84 213.158 1520.99 201.092 1526.8C200.935 1526.87 200.797 1526.94 200.64 1527.01H200.643Z" fill="#030303"/>
</g>
</svg>
