<svg width="330" height="1841" viewBox="0 0 330 1841" fill="none" xmlns="http://www.w3.org/2000/svg">
<g opacity="0.7">
<path d="M250.27 351.217C257.538 351.217 263.429 345.296 263.429 337.992C263.429 330.688 257.538 324.767 250.27 324.767C243.003 324.767 237.111 330.688 237.111 337.992C237.111 345.296 243.003 351.217 250.27 351.217Z" fill="#CE6326"/>
<path d="M250.27 351.484C242.867 351.484 236.846 345.432 236.846 337.992C236.846 330.552 242.867 324.5 250.27 324.5C257.673 324.5 263.694 330.552 263.694 337.992C263.694 345.432 257.673 351.484 250.27 351.484ZM250.27 325.032C243.159 325.032 237.376 330.845 237.376 337.99C237.376 345.135 243.161 350.949 250.27 350.949C257.379 350.949 263.164 345.135 263.164 337.99C263.164 330.845 257.379 325.032 250.27 325.032Z" fill="#030303"/>
<path d="M250.27 338.538C250.209 338.538 250.149 338.516 250.098 338.476L244.656 333.833C244.546 333.738 244.53 333.568 244.625 333.457C244.723 333.344 244.887 333.333 244.999 333.425L250.441 338.068C250.552 338.163 250.567 338.333 250.472 338.444C250.42 338.506 250.346 338.538 250.27 338.538Z" fill="#030303"/>
<path d="M250.281 343.011C250.219 343.011 250.16 342.99 250.11 342.949C249.998 342.854 249.984 342.686 250.077 342.575L256.209 335.249C256.304 335.138 256.475 335.124 256.582 335.216C256.694 335.311 256.708 335.479 256.615 335.59L250.483 342.915C250.432 342.977 250.356 343.011 250.281 343.011Z" fill="#030303"/>
<path d="M250.159 345.965C250.105 345.965 250.049 345.949 250.001 345.913L246.021 342.936C245.904 342.848 245.879 342.68 245.967 342.563C246.055 342.447 246.222 342.42 246.337 342.508L250.317 345.486C250.435 345.574 250.46 345.742 250.372 345.859C250.321 345.929 250.24 345.966 250.159 345.966V345.965Z" fill="#030303"/>
<path d="M250.271 408.239C250.125 408.239 250.006 408.121 250.006 407.973V330.314C250.006 330.167 250.124 330.047 250.271 330.047C250.419 330.047 250.537 330.165 250.537 330.314V407.973C250.537 408.119 250.419 408.239 250.271 408.239Z" fill="#030303"/>
<path d="M274.946 353.505C274.885 353.505 274.825 353.484 274.774 353.443L269.332 348.799C269.222 348.704 269.206 348.534 269.301 348.423C269.397 348.312 269.564 348.297 269.675 348.391L275.117 353.036C275.227 353.131 275.243 353.3 275.148 353.412C275.096 353.473 275.022 353.505 274.946 353.505Z" fill="#030303"/>
<path d="M274.957 357.977C274.895 357.977 274.835 357.956 274.786 357.915C274.674 357.82 274.66 357.652 274.753 357.541L280.885 350.217C280.98 350.102 281.149 350.092 281.258 350.184C281.37 350.279 281.384 350.447 281.291 350.558L275.159 357.882C275.108 357.945 275.032 357.977 274.957 357.977Z" fill="#030303"/>
<path d="M274.835 360.933C274.78 360.933 274.724 360.917 274.677 360.882L270.695 357.904C270.577 357.816 270.553 357.648 270.641 357.532C270.728 357.413 270.895 357.388 271.011 357.477L274.993 360.454C275.111 360.543 275.135 360.71 275.047 360.827C274.996 360.897 274.916 360.935 274.835 360.935V360.933Z" fill="#030303"/>
<path d="M274.947 408.413C274.801 408.413 274.682 408.295 274.682 408.147V347.77C274.682 347.623 274.799 347.503 274.947 347.503C275.095 347.503 275.213 347.621 275.213 347.77V408.147C275.213 408.293 275.095 408.413 274.947 408.413Z" fill="#030303"/>
<path d="M284.844 354.821C284.041 353.465 283.131 351.897 283.071 349.488C283.039 348.223 283.252 347.233 283.435 346.364C283.739 344.993 283.979 343.819 283.283 342.159C282.616 340.545 281.479 339.554 280.948 339.067C278.993 337.361 276.856 336.538 274.596 336.584C273.915 336.6 270.427 336.812 268.169 339.616C266.956 341.094 266.607 342.648 266.501 343.227C266.092 345.041 266.426 346.152 266.774 347.34C267.016 348.163 267.259 349.016 267.318 350.189C267.41 352.444 266.651 353.906 265.923 355.309C265.134 356.833 264.391 358.279 264.908 360.518C265.287 362.178 266.044 363.55 267.167 364.601C269.184 366.475 271.73 366.643 273.913 366.643H274.7C274.867 366.643 275.02 366.643 275.185 366.627C277.323 366.581 280.521 366.383 283.189 363.976C283.84 363.383 285.387 362.01 285.947 359.785C286.508 357.698 285.689 356.296 284.84 354.818L284.844 354.821ZM285.482 359.651C284.935 361.738 283.48 363.049 282.858 363.612C280.326 365.897 277.265 366.095 275.187 366.127C275.02 366.143 274.869 366.143 274.702 366.143H274.642C272.293 366.173 269.608 366.189 267.517 364.239C266.471 363.248 265.744 361.968 265.394 360.416C264.909 358.358 265.577 357.048 266.364 355.54C267.093 354.138 267.911 352.57 267.805 350.162C267.759 348.928 267.487 348.015 267.245 347.206C266.911 346.034 266.609 345.027 266.986 343.337C267.093 342.774 267.412 341.326 268.548 339.939C270.685 337.303 273.96 337.105 274.612 337.091H274.779C276.856 337.091 278.826 337.884 280.616 339.452C281.117 339.909 282.192 340.854 282.83 342.362C283.466 343.87 283.24 344.921 282.951 346.263C282.769 347.102 282.588 348.061 282.588 349.249V349.509C282.649 352.054 283.573 353.654 284.406 355.086C285.255 356.534 285.967 357.783 285.483 359.656L285.482 359.651Z" fill="#030303"/>
<path d="M230.119 378.079C222.307 378.079 215.951 371.691 215.951 363.84C215.951 355.988 222.307 349.601 230.119 349.601C237.931 349.601 244.288 355.988 244.288 363.84C244.288 371.691 237.933 378.079 230.119 378.079ZM230.119 350.162C222.614 350.162 216.51 356.297 216.51 363.84C216.51 371.382 222.614 377.517 230.119 377.517C237.623 377.517 243.729 371.382 243.729 363.84C243.729 356.297 237.623 350.162 230.119 350.162Z" fill="#030303"/>
<path d="M230.118 364.416C230.055 364.416 229.99 364.395 229.937 364.351L224.193 359.45C224.075 359.349 224.06 359.171 224.16 359.053C224.263 358.934 224.436 358.922 224.555 359.019L230.299 363.92C230.417 364.02 230.433 364.199 230.333 364.317C230.276 364.382 230.199 364.416 230.118 364.416Z" fill="#030303"/>
<path d="M230.131 369.138C230.068 369.138 230.003 369.117 229.952 369.073C229.832 368.972 229.818 368.796 229.917 368.677L236.39 360.946C236.49 360.826 236.669 360.813 236.784 360.91C236.903 361.011 236.917 361.188 236.819 361.306L230.345 369.038C230.291 369.105 230.212 369.138 230.131 369.138Z" fill="#030303"/>
<path d="M230.004 372.254C229.946 372.254 229.886 372.236 229.837 372.199L225.636 369.058C225.513 368.966 225.487 368.787 225.578 368.664C225.669 368.54 225.847 368.514 225.97 368.606L230.171 371.747C230.294 371.839 230.32 372.017 230.229 372.141C230.175 372.215 230.09 372.254 230.004 372.254Z" fill="#030303"/>
<path d="M229.838 408.067V355.734C229.838 355.579 229.963 355.453 230.117 355.453C230.272 355.453 230.397 355.579 230.397 355.734V408.069" fill="#030303"/>
<path d="M214.872 349.969C214.034 348.555 213.083 346.916 213.02 344.405C212.988 343.086 213.21 342.053 213.4 341.145C213.716 339.714 213.969 338.491 213.241 336.756C212.546 335.072 211.36 334.039 210.806 333.528C208.766 331.748 206.536 330.89 204.178 330.937C203.467 330.953 199.828 331.176 197.471 334.102C196.206 335.644 195.841 337.267 195.732 337.871C195.305 339.762 195.653 340.924 196.016 342.164C196.27 343.022 196.523 343.912 196.586 345.138C196.681 347.49 195.89 349.018 195.131 350.48C194.309 352.069 193.532 353.581 194.071 355.917C194.467 357.65 195.257 359.082 196.428 360.179C198.531 362.134 201.189 362.308 203.467 362.308H204.542C204.621 362.308 204.716 362.292 204.795 362.292C207.025 362.245 210.363 362.038 213.147 359.527C213.827 358.907 215.441 357.477 216.026 355.154C216.612 352.977 215.758 351.513 214.872 349.971V349.969ZM215.538 355.01C214.969 357.187 213.451 358.556 212.802 359.144C210.161 361.528 206.965 361.734 204.799 361.766C204.719 361.782 204.625 361.782 204.545 361.782H204.229C201.776 361.814 198.977 361.83 196.795 359.795C195.704 358.762 194.945 357.427 194.581 355.804C194.075 353.659 194.771 352.29 195.593 350.716C196.352 349.254 197.206 347.617 197.095 345.104C197.048 343.817 196.763 342.863 196.51 342.021C196.162 340.797 195.846 339.748 196.241 337.982C196.352 337.394 196.684 335.884 197.872 334.436C200.102 331.686 203.519 331.478 204.199 331.462H204.373C206.54 331.462 208.597 332.288 210.463 333.925C210.985 334.402 212.108 335.388 212.772 336.963C213.436 338.536 213.199 339.635 212.899 341.034C212.709 341.908 212.519 342.909 212.519 344.151V344.421C212.583 347.075 213.547 348.746 214.419 350.24C215.304 351.75 216.048 353.055 215.541 355.01H215.538Z" fill="#030303"/>
<path d="M215.539 355.01C214.969 357.187 213.451 358.556 212.803 359.144C210.162 361.528 206.966 361.734 204.799 361.766C204.72 361.782 204.625 361.782 204.546 361.782H204.23C201.777 361.814 198.978 361.83 196.796 359.795C195.705 358.762 194.945 357.427 194.582 355.804C194.076 353.659 194.772 352.29 195.594 350.716C196.353 349.254 197.207 347.617 197.096 345.104C197.049 343.817 196.764 342.863 196.511 342.021C196.163 340.797 195.847 339.748 196.242 337.982C196.353 337.394 196.685 335.884 197.873 334.436C200.103 331.686 203.52 331.478 204.2 331.462H204.374C206.541 331.462 208.598 332.288 210.464 333.925C210.986 334.402 212.109 335.388 212.773 336.963C213.437 338.536 213.2 339.635 212.9 341.034C212.71 341.908 212.52 342.909 212.52 344.15V344.421C212.583 347.075 213.548 348.746 214.42 350.24C215.305 351.75 216.048 353.055 215.542 355.01H215.539Z" fill="#CE6326"/>
<path d="M204.546 348.59C204.482 348.59 204.419 348.569 204.366 348.525L198.686 343.677C198.57 343.578 198.554 343.402 198.654 343.285C198.756 343.169 198.928 343.156 199.044 343.254L204.725 348.101C204.841 348.2 204.857 348.377 204.757 348.493C204.7 348.559 204.623 348.59 204.546 348.59Z" fill="#030303"/>
<path d="M204.554 353.255C204.491 353.255 204.428 353.233 204.377 353.189C204.259 353.09 204.243 352.914 204.343 352.797L210.743 345.156C210.841 345.036 211.019 345.025 211.133 345.122C211.251 345.221 211.266 345.398 211.166 345.514L204.767 353.156C204.712 353.223 204.633 353.255 204.556 353.255H204.554Z" fill="#030303"/>
<path d="M204.43 356.339C204.372 356.339 204.314 356.321 204.265 356.284L200.111 353.178C199.99 353.086 199.964 352.911 200.053 352.788C200.145 352.666 200.319 352.639 200.442 352.729L204.595 355.836C204.717 355.927 204.743 356.102 204.653 356.226C204.599 356.298 204.516 356.337 204.43 356.337V356.339Z" fill="#030303"/>
<path d="M204.268 407.787V339.908C204.268 339.756 204.391 339.633 204.544 339.633C204.697 339.633 204.82 339.756 204.82 339.908V407.805" fill="#030303"/>
<path d="M181.442 378.242C174.849 378.242 169.486 372.852 169.486 366.226C169.486 359.601 174.849 354.209 181.442 354.209C188.034 354.209 193.397 359.599 193.397 366.226C193.397 372.854 188.034 378.242 181.442 378.242ZM181.442 354.684C175.109 354.684 169.959 359.862 169.959 366.226C169.959 372.591 175.111 377.767 181.442 377.767C187.773 377.767 192.924 372.589 192.924 366.226C192.924 359.864 187.773 354.684 181.442 354.684Z" fill="#030303"/>
<path d="M181.442 366.712C181.387 366.712 181.333 366.692 181.289 366.655L176.443 362.518C176.344 362.433 176.33 362.281 176.415 362.182C176.503 362.083 176.648 362.073 176.749 362.154L181.595 366.291C181.693 366.376 181.707 366.528 181.623 366.627C181.575 366.684 181.509 366.71 181.442 366.71V366.712Z" fill="#030303"/>
<path d="M181.453 370.696C181.399 370.696 181.344 370.677 181.302 370.639C181.202 370.555 181.188 370.405 181.272 370.306L186.733 363.784C186.817 363.681 186.969 363.673 187.065 363.754C187.165 363.839 187.179 363.989 187.095 364.088L181.634 370.609C181.588 370.666 181.52 370.694 181.453 370.694V370.696Z" fill="#030303"/>
<path d="M181.344 373.328C181.295 373.328 181.246 373.314 181.204 373.282L177.66 370.632C177.556 370.554 177.533 370.404 177.61 370.3C177.688 370.196 177.837 370.173 177.941 370.25L181.485 372.901C181.588 372.979 181.611 373.129 181.534 373.233C181.488 373.295 181.416 373.328 181.344 373.328Z" fill="#030303"/>
<path d="M181.164 407.8V359.889C181.164 359.758 181.289 359.654 181.444 359.654C181.598 359.654 181.721 359.76 181.721 359.889L181.674 407.8" fill="#030303"/>
<path d="M1 1V375.5C1 393.725 15.7746 408.5 34 408.5H296C314.225 408.5 329 423.275 329 441.5V1067.5C329 1085.73 314.225 1100.5 296 1100.5H50" stroke="#030303" stroke-width="2" stroke-linecap="round"/>
<path d="M115.166 1101.26H75.2359C74.1278 1101.26 73.053 1101.01 72.124 1100.54C69.9718 1099.44 69.1836 1097.6 69.9053 1095.35C70.3736 1093.88 71.1592 1092.91 72.2417 1092.47C73.1835 1092.08 74.1534 1092.17 74.8649 1092.35C73.8514 1090.65 72.0242 1086.99 73.0095 1083.91C73.5879 1082.11 75.0363 1080.81 77.3165 1080.04C83.896 1077.82 87.2203 1079.07 88.5281 1079.9C88.5562 1079 88.807 1077.53 89.9612 1076.26C91.6118 1074.44 94.5087 1073.66 98.5675 1073.95C102.724 1074.24 105.682 1075.44 107.356 1077.51C108.433 1078.84 108.707 1080.22 108.761 1081.06C109.769 1080.34 111.865 1079.1 114.142 1079.32C115.719 1079.48 117.085 1080.31 118.209 1081.8C120.31 1084.57 118.621 1088.52 117.945 1089.85C118.956 1090.1 121.239 1090.84 122.501 1092.63C123.273 1093.73 123.532 1095.04 123.263 1096.51C123.007 1097.93 121.971 1099.12 120.182 1100.06C118.68 1100.84 116.945 1101.26 115.166 1101.26ZM73.6595 1092.94C73.2859 1092.94 72.8943 1093 72.5156 1093.16C71.648 1093.52 71.0082 1094.33 70.609 1095.57C69.9948 1097.49 70.6167 1098.94 72.4593 1099.88C73.2859 1100.3 74.2456 1100.52 75.2359 1100.52H115.166C116.824 1100.52 118.442 1100.13 119.839 1099.4C121.413 1098.58 122.319 1097.56 122.534 1096.38C122.764 1095.11 122.549 1093.99 121.897 1093.06C120.458 1091.01 117.354 1090.48 117.323 1090.47C117.203 1090.45 117.101 1090.38 117.047 1090.26C116.996 1090.15 117.001 1090.02 117.065 1089.92C117.093 1089.87 119.821 1085.16 117.618 1082.24C116.625 1080.93 115.43 1080.2 114.068 1080.06C111.274 1079.78 108.651 1082.09 108.625 1082.11C108.51 1082.21 108.341 1082.23 108.205 1082.16C108.07 1082.08 107.993 1081.93 108.013 1081.78C108.013 1081.76 108.259 1079.8 106.77 1077.96C105.229 1076.06 102.452 1074.96 98.5189 1074.68C94.6956 1074.41 92.0008 1075.11 90.5114 1076.75C88.9657 1078.45 89.2984 1080.61 89.3009 1080.63C89.3291 1080.79 89.2446 1080.96 89.0936 1081.02C88.9452 1081.1 88.7661 1081.06 88.656 1080.94C88.6304 1080.91 85.8256 1077.95 77.5519 1080.74C75.5072 1081.43 74.2174 1082.57 73.7158 1084.13C72.5258 1087.84 76.0344 1092.8 76.0702 1092.85C76.17 1092.99 76.1623 1093.18 76.0497 1093.31C75.9371 1093.44 75.7503 1093.47 75.5993 1093.39C75.5865 1093.39 74.7011 1092.94 73.6621 1092.94L73.6595 1092.94Z" fill="#030303"/>
<path d="M86.3964 1101.26C86.2454 1101.26 86.1047 1101.17 86.0484 1101.02L80.8533 1086.86C80.7817 1086.66 80.8815 1086.45 81.0734 1086.38C81.2653 1086.31 81.4778 1086.41 81.5494 1086.6L86.7444 1100.76C86.8161 1100.95 86.7163 1101.17 86.5244 1101.24C86.4809 1101.25 86.4399 1101.26 86.3964 1101.26Z" fill="#030303"/>
<path d="M82.8783 1091.67C82.8348 1091.67 82.7887 1091.66 82.7452 1091.64C82.5533 1091.57 82.4612 1091.35 82.5354 1091.16L85.3095 1084.01C85.3837 1083.82 85.5987 1083.73 85.7881 1083.8C85.98 1083.88 86.0721 1084.09 85.9979 1084.28L83.2238 1091.43C83.1675 1091.58 83.0268 1091.67 82.8783 1091.67Z" fill="#030303"/>
<path d="M84.7523 1096.77C84.6243 1096.77 84.4989 1096.71 84.4324 1096.59C84.33 1096.41 84.3915 1096.18 84.568 1096.08L89.0286 1093.49C89.2052 1093.39 89.433 1093.45 89.5353 1093.63C89.6377 1093.8 89.5763 1094.03 89.3997 1094.13L84.9391 1096.72C84.8803 1096.76 84.8163 1096.77 84.7548 1096.77H84.7523Z" fill="#030303"/>
<path d="M97.7584 1100.96C97.6125 1100.96 97.4717 1100.87 97.4154 1100.72L92.4226 1088.2C92.4021 1088.15 92.3944 1088.09 92.397 1088.04L92.6989 1082.72C92.7117 1082.52 92.8832 1082.36 93.0905 1082.37C93.2952 1082.39 93.4513 1082.56 93.4385 1082.77L93.1417 1088L98.1038 1100.45C98.1806 1100.64 98.0885 1100.85 97.8965 1100.93C97.8505 1100.95 97.8044 1100.95 97.7584 1100.95V1100.96Z" fill="#030303"/>
<path d="M96.3859 1097.33C96.3373 1097.33 96.2887 1097.32 96.24 1097.3C96.0507 1097.22 95.9636 1097 96.043 1096.81L101.466 1084C101.545 1083.81 101.763 1083.72 101.952 1083.8C102.141 1083.88 102.228 1084.1 102.149 1084.29L96.7263 1097.1C96.6674 1097.24 96.5292 1097.32 96.3859 1097.32V1097.33Z" fill="#030303"/>
<path d="M99.4708 1090.04C99.3275 1090.04 99.1919 1089.95 99.1305 1089.81C99.0486 1089.63 99.1356 1089.41 99.3224 1089.33L104.118 1087.23C104.305 1087.15 104.525 1087.24 104.604 1087.43C104.686 1087.61 104.599 1087.83 104.413 1087.91L99.6167 1090.01C99.5681 1090.03 99.5194 1090.04 99.4682 1090.04H99.4708Z" fill="#030303"/>
<path d="M106.082 1101.26C106.041 1101.26 106 1101.25 105.959 1101.24C105.767 1101.17 105.665 1100.96 105.731 1100.77L108.795 1091.96L107.809 1088.78C107.748 1088.58 107.858 1088.38 108.052 1088.31C108.247 1088.25 108.454 1088.36 108.516 1088.56L109.537 1091.86C109.56 1091.93 109.56 1092.01 109.532 1092.09L106.43 1101.01C106.376 1101.16 106.233 1101.26 106.079 1101.26H106.082Z" fill="#030303"/>
<path d="M107.632 1097.05C107.468 1097.05 107.317 1096.94 107.274 1096.77C107.222 1096.57 107.343 1096.37 107.54 1096.32L111.662 1095.25C111.862 1095.2 112.062 1095.32 112.113 1095.52C112.164 1095.72 112.044 1095.92 111.847 1095.97L107.724 1097.04C107.693 1097.04 107.663 1097.05 107.632 1097.05Z" fill="#030303"/>
<path d="M154.667 1091.31C154.587 1091.29 152.873 1090.69 150.762 1090.87C151.053 1089.7 151.529 1086.97 150.211 1084.98C149.351 1083.69 147.898 1082.96 145.889 1082.82C140.482 1082.45 138.887 1084.37 138.421 1085.44C137.892 1084.95 136.917 1084.16 135.596 1083.47C132.909 1082.09 130.068 1081.85 127.381 1082.8C123.983 1083.99 122.539 1085.97 121.928 1087.42C121.449 1088.55 121.388 1089.53 121.393 1090.02C120.254 1090.33 116.364 1091.58 115.714 1094.57C115.458 1095.74 115.837 1096.99 116.835 1098.28C118.286 1100.15 120.605 1101.27 123.038 1101.27H148.417C149.73 1101.27 150.982 1101.04 152.133 1100.61C154.37 1099.77 155.798 1098.35 156.264 1096.49C156.448 1095.75 156.525 1095.12 156.525 1094.57C156.525 1092.04 154.895 1091.4 154.667 1091.32V1091.31ZM155.545 1096.31C155.035 1098.34 153.267 1099.39 151.872 1099.91C150.802 1100.31 149.638 1100.52 148.415 1100.52H123.036C120.83 1100.52 118.729 1099.51 117.416 1097.82C116.559 1096.71 116.229 1095.67 116.436 1094.72C117.081 1091.76 121.81 1090.68 121.859 1090.66C122.046 1090.62 122.171 1090.45 122.145 1090.26C122.14 1090.21 121.646 1085.6 127.624 1083.5C128.684 1083.12 129.7 1082.97 130.654 1082.97C135.133 1082.97 138.288 1086.34 138.327 1086.38C138.424 1086.49 138.578 1086.53 138.716 1086.48C138.854 1086.44 138.954 1086.31 138.969 1086.17C138.982 1086.04 139.376 1083.12 145.838 1083.56C147.604 1083.69 148.865 1084.3 149.592 1085.39C151.071 1087.62 149.912 1091.15 149.899 1091.18C149.858 1091.3 149.884 1091.44 149.966 1091.54C150.048 1091.64 150.178 1091.69 150.306 1091.67C152.476 1091.34 154.396 1092.01 154.413 1092.02C154.421 1092.02 154.431 1092.02 154.436 1092.03C154.518 1092.05 156.453 1092.67 155.539 1096.31L155.545 1096.31Z" fill="#030303"/>
<path d="M155.545 1096.31C155.036 1098.34 153.267 1099.39 151.873 1099.91C150.803 1100.31 149.639 1100.52 148.415 1100.52H139.187L139.801 1096.68C139.804 1096.67 139.806 1096.66 139.806 1096.64L140.367 1093.14L146.156 1089.69C146.332 1089.58 146.388 1089.35 146.284 1089.18C146.179 1089 145.951 1088.94 145.777 1089.05L140.52 1092.18L141.188 1088.01C141.222 1087.8 141.083 1087.61 140.881 1087.58C140.682 1087.55 140.49 1087.69 140.456 1087.89L139.185 1095.85L136.641 1093.4C136.495 1093.25 136.259 1093.26 136.119 1093.41C135.975 1093.56 135.98 1093.79 136.129 1093.93L139.044 1096.74L138.44 1100.52H129.8L128.838 1097.27L132.193 1087.69C132.262 1087.5 132.16 1087.29 131.965 1087.22C131.773 1087.15 131.561 1087.25 131.494 1087.45L128.477 1096.06L127.054 1091.28C126.995 1091.09 126.788 1090.97 126.594 1091.03C126.397 1091.09 126.286 1091.3 126.343 1091.49L129.027 1100.52H123.039C120.833 1100.52 118.732 1099.5 117.419 1097.81C116.562 1096.71 116.232 1095.67 116.439 1094.72C117.084 1091.75 121.813 1090.67 121.862 1090.66C122.049 1090.62 122.174 1090.44 122.148 1090.25C122.143 1090.21 121.649 1085.59 127.627 1083.49C128.687 1083.12 129.703 1082.97 130.657 1082.97C135.136 1082.97 138.291 1086.34 138.33 1086.38C138.427 1086.48 138.581 1086.52 138.719 1086.48C138.857 1086.43 138.957 1086.31 138.972 1086.16C138.985 1086.04 139.379 1083.11 145.841 1083.56C147.607 1083.68 148.868 1084.3 149.595 1085.39C151.074 1087.61 149.915 1091.15 149.902 1091.18C149.861 1091.3 149.887 1091.44 149.969 1091.54C150.051 1091.64 150.181 1091.69 150.309 1091.67C152.479 1091.34 154.399 1092.01 154.416 1092.02C154.424 1092.02 154.434 1092.02 154.439 1092.02C154.521 1092.05 156.456 1092.67 155.542 1096.31L155.545 1096.31Z" fill="#CE6326"/>
<path d="M129.628 1101.24C129.592 1101.26 129.557 1101.26 129.521 1101.26C129.362 1101.26 129.214 1101.16 129.168 1100.99L129.024 1100.52L126.34 1091.49C126.281 1091.3 126.394 1091.09 126.591 1091.03C126.785 1090.97 126.992 1091.09 127.051 1091.28L128.474 1096.06L128.835 1097.27L129.797 1100.52L129.877 1100.78C129.935 1100.98 129.823 1101.18 129.628 1101.24V1101.24Z" fill="#030303"/>
<path d="M132.191 1087.7L128.836 1097.28L128.798 1097.39C128.744 1097.54 128.601 1097.64 128.447 1097.64C128.406 1097.64 128.365 1097.63 128.324 1097.61C128.132 1097.55 128.03 1097.33 128.096 1097.14L128.475 1096.07L131.492 1087.45C131.559 1087.26 131.771 1087.15 131.963 1087.22C132.158 1087.29 132.258 1087.5 132.191 1087.7Z" fill="#030303"/>
<path d="M141.188 1088.01L140.52 1092.18L140.367 1093.13L139.806 1096.64C139.806 1096.65 139.804 1096.67 139.801 1096.68L139.187 1100.52L139.118 1100.94C139.087 1101.13 138.931 1101.26 138.752 1101.26C138.731 1101.26 138.713 1101.26 138.693 1101.25C138.491 1101.22 138.353 1101.03 138.386 1100.83L138.437 1100.51L139.041 1096.74L139.184 1095.84L140.456 1087.89C140.489 1087.68 140.679 1087.54 140.881 1087.58C141.083 1087.61 141.221 1087.8 141.188 1088V1088.01Z" fill="#030303"/>
<path d="M139.806 1096.64C139.806 1096.66 139.804 1096.67 139.801 1096.68C139.788 1096.75 139.755 1096.81 139.704 1096.87C139.632 1096.94 139.535 1096.98 139.438 1096.98C139.346 1096.98 139.254 1096.95 139.182 1096.88L139.041 1096.74L136.126 1093.94C135.978 1093.79 135.973 1093.56 136.116 1093.41C136.257 1093.26 136.492 1093.26 136.638 1093.4L139.182 1095.85L139.694 1096.34C139.778 1096.42 139.817 1096.54 139.806 1096.64Z" fill="#030303"/>
<path d="M146.155 1089.69L140.366 1093.14L140.218 1093.23C140.159 1093.26 140.092 1093.28 140.028 1093.28C139.9 1093.28 139.777 1093.21 139.711 1093.09C139.606 1092.92 139.662 1092.69 139.839 1092.58L140.52 1092.18L145.776 1089.05C145.95 1088.94 146.178 1089 146.283 1089.18C146.388 1089.35 146.331 1089.58 146.155 1089.69Z" fill="#030303"/>
<path d="M78.1202 1094.51C77.9564 1092.69 77.2706 1091.41 76.0857 1090.7C74.1945 1089.57 71.5867 1090.25 70.4428 1090.64C70.5042 1089.64 70.4658 1087.64 69.3884 1086.3C68.7538 1085.5 67.8581 1085.06 66.7295 1084.99C63.6457 1084.78 61.7725 1086.56 60.9356 1087.62C60.2165 1085.21 57.8621 1084.49 57.5217 1084.4C57.2095 1084.26 55.1085 1083.47 51.9275 1085.16C49.3914 1086.51 49.4221 1090.24 49.6038 1092.04C48.9794 1091.61 48.3063 1091.4 47.6 1091.41C45.7088 1091.45 44.2629 1093.08 44.1938 1093.15C42.1516 1095.6 42.7095 1098.36 44.2757 1099.7C45.911 1101.11 48.8361 1101.18 48.8642 1101.18C57.4859 1101.25 64.2804 1101.26 68.3162 1101.26C70.8804 1101.26 72.3314 1101.25 72.421 1101.25C72.5874 1101.26 75.0902 1101.26 76.7536 1099.47C77.8489 1098.29 78.3096 1096.62 78.1202 1094.51V1094.51ZM76.2162 1098.96C74.7677 1100.53 72.4568 1100.51 72.4312 1100.51C72.4287 1100.51 72.4261 1100.51 72.4236 1100.51C72.3724 1100.51 69.6136 1100.52 64.8204 1100.51C64.5542 1100.51 64.283 1100.51 64.0066 1100.51C62.6375 1100.51 61.1199 1100.51 59.4667 1100.5C59.2057 1100.5 58.9395 1100.5 58.6682 1100.49C57.2633 1100.49 55.7687 1100.48 54.1898 1100.47C53.9441 1100.47 53.6984 1100.47 53.4476 1100.47C51.9889 1100.46 50.4611 1100.45 48.8719 1100.43C48.8463 1100.43 46.172 1100.36 44.7594 1099.14C43.4619 1098.02 43.0243 1095.71 44.7594 1093.64C44.7722 1093.62 46.0568 1092.18 47.6179 1092.15C47.6333 1092.15 47.6486 1092.15 47.6614 1092.15C48.4368 1092.15 49.1687 1092.51 49.8341 1093.22C49.9493 1093.34 50.1259 1093.37 50.2717 1093.29C50.4176 1093.22 50.4969 1093.06 50.4662 1092.89C50.456 1092.84 49.4298 1087.34 52.2755 1085.82C55.3004 1084.21 57.2198 1085.08 57.2351 1085.09C57.2607 1085.1 57.2863 1085.11 57.3145 1085.12C57.4271 1085.14 60.0834 1085.8 60.3777 1088.6C60.3957 1088.76 60.5159 1088.9 60.6772 1088.93C60.8384 1088.96 60.9996 1088.88 61.0764 1088.73C61.0917 1088.7 62.8038 1085.47 66.6809 1085.73C67.5945 1085.79 68.3085 1086.14 68.8101 1086.76C70.0615 1088.33 69.6546 1091.12 69.6495 1091.15C69.629 1091.28 69.6827 1091.41 69.7877 1091.5C69.8951 1091.58 70.0385 1091.6 70.1613 1091.55C70.1946 1091.53 73.5982 1090.08 75.7069 1091.34C76.6768 1091.92 77.2399 1093.01 77.3806 1094.58C77.5521 1096.47 77.158 1097.94 76.2136 1098.96L76.2162 1098.96Z" fill="#030303"/>
<path d="M76.2166 1098.96C74.7682 1100.53 72.4573 1100.51 72.4317 1100.51C72.4291 1100.51 72.4266 1100.51 72.424 1100.51C72.3728 1100.51 69.6141 1100.52 64.8208 1100.51L67.2418 1095.81L69.4938 1094.95C69.6857 1094.88 69.7804 1094.67 69.7062 1094.47C69.6346 1094.28 69.4196 1094.19 69.2302 1094.26L67.2341 1095.02L66.2002 1090.91C66.1516 1090.71 65.9494 1090.59 65.7524 1090.64C65.5527 1090.69 65.435 1090.89 65.4836 1091.09L66.5841 1095.47L64.0403 1100.41C64.0224 1100.44 64.0096 1100.47 64.007 1100.51C62.6379 1100.51 61.1203 1100.5 59.4671 1100.5L62.4357 1093.69C62.5176 1093.5 62.4332 1093.28 62.2463 1093.2C62.057 1093.12 61.8394 1093.2 61.7575 1093.39L61.0487 1095.02L59.9124 1093.23C59.8024 1093.06 59.5721 1093.01 59.4006 1093.12C59.2266 1093.23 59.1779 1093.46 59.288 1093.63L60.6878 1095.83C60.6878 1095.83 60.6904 1095.84 60.693 1095.84L59.6744 1098.17L59.073 1096.78C58.9911 1096.59 58.7736 1096.5 58.5868 1096.58C58.4 1096.67 58.313 1096.88 58.3949 1097.07L59.265 1099.09C59.265 1099.09 59.2701 1099.1 59.2726 1099.1L58.6968 1100.42C58.6866 1100.44 58.6764 1100.47 58.6738 1100.5C57.2688 1100.49 55.7743 1100.48 54.1953 1100.47C54.1953 1100.22 54.1646 1099.82 54.1185 1099.15C54.0674 1098.38 53.9855 1097.32 53.8805 1095.98C53.8601 1095.73 53.8396 1095.47 53.8217 1095.23C53.8524 1095.21 53.8831 1095.18 53.9087 1095.16L57.8421 1090.64C57.9777 1090.49 57.9598 1090.25 57.8062 1090.12C57.6527 1089.98 57.4173 1090 57.2842 1090.15L53.7423 1094.22C53.6144 1092.66 53.5095 1091.41 53.5069 1091.39C53.4916 1091.19 53.3124 1091.03 53.1077 1091.05C52.9055 1091.07 52.7545 1091.25 52.7699 1091.45C52.9157 1093.19 53.0949 1095.38 53.2356 1097.19L51.5031 1095.94C51.3368 1095.82 51.1064 1095.86 50.9862 1096.02C50.8684 1096.19 50.9043 1096.42 51.0706 1096.54L53.228 1098.1C53.2536 1098.12 53.2817 1098.13 53.3098 1098.14C53.3943 1099.27 53.4532 1100.14 53.4583 1100.47C51.9996 1100.46 50.4718 1100.45 48.8826 1100.44C48.857 1100.44 46.1827 1100.36 44.77 1099.14C43.4725 1098.02 43.0349 1095.71 44.77 1093.64C44.7828 1093.62 46.0675 1092.18 47.6286 1092.16C47.6439 1092.16 47.6593 1092.16 47.6721 1092.16C48.4475 1092.16 49.1794 1092.52 49.8448 1093.22C49.96 1093.34 50.1365 1093.37 50.2824 1093.3C50.4283 1093.22 50.5076 1093.06 50.4769 1092.9C50.4667 1092.84 49.4404 1087.34 52.2862 1085.82C55.3111 1084.21 57.2304 1085.08 57.2458 1085.09C57.2714 1085.1 57.297 1085.11 57.3251 1085.12C57.4377 1085.14 60.0941 1085.8 60.3884 1088.6C60.4063 1088.77 60.5266 1088.9 60.6878 1088.93C60.8491 1088.96 61.0103 1088.88 61.0871 1088.73C61.1024 1088.7 62.8145 1085.47 66.6916 1085.73C67.6052 1085.79 68.3192 1086.14 68.8208 1086.77C70.0722 1088.33 69.6653 1091.12 69.6601 1091.15C69.6397 1091.28 69.6934 1091.42 69.7983 1091.5C69.9058 1091.58 70.0491 1091.6 70.172 1091.55C70.2052 1091.53 73.6089 1090.08 75.7176 1091.34C76.6875 1091.92 77.2505 1093.01 77.3913 1094.58C77.5627 1096.47 77.1686 1097.95 76.2243 1098.97L76.2166 1098.96Z" fill="#CE6326"/>
<path d="M67.3065 1095.69L67.2426 1095.82L64.8216 1100.52L64.7013 1100.75C64.6374 1100.88 64.5069 1100.95 64.3712 1100.95C64.3149 1100.95 64.2561 1100.94 64.2023 1100.91C64.0539 1100.83 63.9797 1100.67 64.0078 1100.51C64.013 1100.48 64.0232 1100.44 64.0411 1100.41L66.5849 1095.47L65.4844 1091.09C65.4333 1090.89 65.5536 1090.69 65.7532 1090.64C65.9528 1090.59 66.1524 1090.71 66.201 1090.91L67.2349 1095.02L67.3373 1095.43C67.3603 1095.52 67.35 1095.61 67.3065 1095.69Z" fill="#030303"/>
<path d="M69.495 1094.96L67.2429 1095.82L67.1099 1095.87C67.0664 1095.88 67.0229 1095.89 66.9768 1095.89C66.8284 1095.89 66.6876 1095.8 66.6313 1095.65C66.5597 1095.46 66.6543 1095.24 66.8463 1095.17L67.2353 1095.02L69.2314 1094.26C69.4233 1094.19 69.6357 1094.29 69.7074 1094.48C69.779 1094.67 69.6844 1094.88 69.495 1094.96Z" fill="#030303"/>
<path d="M54.1121 1099.15C54.0609 1098.38 53.979 1097.32 53.8741 1095.98C53.8536 1095.73 53.8331 1095.47 53.8152 1095.23C53.7871 1094.88 53.7589 1094.54 53.7333 1094.22C53.6054 1092.65 53.5004 1091.4 53.4979 1091.39C53.4825 1091.18 53.3034 1091.03 53.0986 1091.05C52.8965 1091.07 52.7455 1091.25 52.7608 1091.45C52.9067 1093.19 53.0859 1095.38 53.2266 1097.19C53.2522 1097.52 53.2778 1097.84 53.2983 1098.14C53.3827 1099.27 53.4416 1100.14 53.4467 1100.47C53.4467 1100.51 53.4467 1100.54 53.4467 1100.57C53.4288 1100.66 53.4416 1100.75 53.4902 1100.84C53.5593 1100.95 53.6821 1101.02 53.8075 1101.02C53.8715 1101.02 53.938 1101 53.9969 1100.96C54.1325 1100.88 54.1888 1100.85 54.1863 1100.48C54.1863 1100.23 54.1556 1099.83 54.1095 1099.16L54.1121 1099.15Z" fill="#030303"/>
<path d="M57.8372 1090.64L53.9039 1095.16C53.8783 1095.18 53.8501 1095.21 53.8169 1095.23C53.758 1095.26 53.6915 1095.28 53.6224 1095.28C53.5354 1095.28 53.4483 1095.25 53.3792 1095.19C53.2257 1095.06 53.2078 1094.82 53.3434 1094.67L53.735 1094.22L57.2768 1090.15C57.4124 1090 57.6453 1089.98 57.7989 1090.12C57.9524 1090.25 57.9703 1090.48 57.8347 1090.64H57.8372Z" fill="#030303"/>
<path d="M53.734 1098.01C53.6624 1098.11 53.5472 1098.17 53.4321 1098.17C53.3886 1098.17 53.3425 1098.16 53.299 1098.14C53.2708 1098.14 53.2427 1098.12 53.2171 1098.1L51.0598 1096.54C50.8934 1096.42 50.8576 1096.19 50.9753 1096.02C51.0956 1095.86 51.3259 1095.82 51.4922 1095.94L53.2248 1097.19L53.6496 1097.5C53.8159 1097.62 53.8518 1097.85 53.734 1098.02V1098.01Z" fill="#030303"/>
<path d="M62.4362 1093.69L59.4676 1100.5L59.3729 1100.72C59.3115 1100.85 59.1784 1100.94 59.0325 1100.94C58.9839 1100.94 58.9327 1100.93 58.8841 1100.91C58.7229 1100.84 58.6359 1100.66 58.6691 1100.5C58.6743 1100.47 58.6819 1100.44 58.6922 1100.42L59.268 1099.1L59.6723 1098.17L60.6909 1095.84L61.0491 1095.02L61.758 1093.39C61.8399 1093.2 62.06 1093.12 62.2468 1093.2C62.4336 1093.28 62.5206 1093.51 62.4362 1093.69V1093.69Z" fill="#030303"/>
<path d="M61.1989 1095.95C61.1375 1095.99 61.0684 1096.01 60.9993 1096.01C60.8816 1096.01 60.7613 1095.95 60.6922 1095.84C60.6922 1095.84 60.6896 1095.84 60.6871 1095.84L59.2872 1093.63C59.1772 1093.46 59.2258 1093.23 59.3998 1093.12C59.5713 1093.01 59.8016 1093.06 59.9117 1093.23L61.0479 1095.02L61.3115 1095.44C61.4215 1095.61 61.3703 1095.84 61.1963 1095.95L61.1989 1095.95Z" fill="#030303"/>
<path d="M59.7446 1099.28C59.696 1099.3 59.6474 1099.31 59.5987 1099.31C59.4605 1099.31 59.33 1099.24 59.266 1099.1C59.2635 1099.1 59.2609 1099.09 59.2584 1099.09L58.3883 1097.07C58.3064 1096.88 58.3934 1096.66 58.5802 1096.58C58.767 1096.5 58.9871 1096.59 59.0664 1096.78L59.6678 1098.17L59.9365 1098.79C60.0184 1098.98 59.9314 1099.2 59.742 1099.28H59.7446Z" fill="#030303"/>
<path d="M247.186 1080.19C247.186 1081.76 247.006 1083.27 246.668 1084.73C246.552 1085.23 246.417 1085.72 246.264 1086.21C243.715 1094.29 236.165 1100.17 227.276 1100.17C216.298 1100.17 207.37 1091.21 207.37 1080.19C207.37 1074.97 209.377 1070.21 212.666 1066.64C212.962 1066.32 213.274 1066 213.593 1065.7C217.162 1062.3 221.983 1060.22 227.279 1060.22C228.859 1060.22 230.399 1060.4 231.875 1060.75C232.121 1060.81 232.364 1060.88 232.607 1060.94C232.533 1061.18 232.459 1061.43 232.382 1061.67C232.139 1061.6 231.894 1061.54 231.648 1061.48C230.243 1061.15 228.779 1060.97 227.279 1060.97C216.718 1060.97 208.125 1069.59 208.125 1080.19C208.125 1090.79 216.718 1099.41 227.279 1099.41C236.326 1099.41 243.929 1093.09 245.923 1084.61C245.923 1084.61 245.923 1084.61 245.923 1084.61C245.923 1084.6 245.926 1084.59 245.926 1084.59C246.258 1083.18 246.433 1081.71 246.433 1080.19C246.433 1071.88 241.144 1064.78 233.767 1062.11C233.532 1062.02 233.294 1061.94 233.053 1061.87C233.13 1061.62 233.204 1061.39 233.281 1061.14C233.521 1061.22 233.759 1061.3 233.994 1061.39C241.678 1064.16 247.186 1071.54 247.186 1080.19V1080.19Z" fill="#030303"/>
<path d="M244.708 1080.19C244.708 1089.84 236.889 1097.69 227.277 1097.69C217.664 1097.69 209.846 1089.84 209.846 1080.19C209.846 1070.55 217.664 1062.7 227.277 1062.7C228.6 1062.7 229.892 1062.85 231.131 1063.14C231.379 1063.19 231.622 1063.25 231.865 1063.32C231.728 1063.76 231.593 1064.19 231.458 1064.62C231.215 1064.55 230.972 1064.49 230.724 1064.44C229.615 1064.19 228.46 1064.07 227.277 1064.07C225.811 1064.07 224.392 1064.26 223.04 1064.64C222.797 1064.7 222.556 1064.77 222.319 1064.85C217.258 1066.5 213.29 1070.61 211.819 1075.77C211.75 1076.01 211.687 1076.25 211.631 1076.5C211.378 1077.57 211.232 1078.68 211.209 1079.82C211.206 1079.94 211.203 1080.07 211.203 1080.2C211.203 1080.32 211.203 1080.45 211.209 1080.57C211.275 1083.41 212.072 1086.07 213.425 1088.37C213.552 1088.59 213.684 1088.8 213.824 1089.01C216.695 1093.41 221.653 1096.32 227.277 1096.32C228.521 1096.32 229.734 1096.18 230.898 1095.91C231.144 1095.85 231.387 1095.79 231.63 1095.72C236.66 1094.3 240.698 1090.48 242.434 1085.57C242.518 1085.33 242.598 1085.1 242.669 1084.85C243.115 1083.38 243.353 1081.81 243.353 1080.19C243.353 1079.36 243.29 1078.54 243.168 1077.74C243.131 1077.49 243.086 1077.24 243.036 1077C242.302 1073.35 240.334 1070.14 237.587 1067.83C237.397 1067.67 237.198 1067.51 237 1067.35C235.746 1066.4 234.346 1065.62 232.837 1065.06C232.602 1064.97 232.364 1064.89 232.124 1064.81C232.261 1064.38 232.396 1063.95 232.534 1063.51C232.774 1063.59 233.012 1063.67 233.247 1063.76C239.927 1066.21 244.711 1072.65 244.711 1080.19H244.708Z" fill="#030303"/>
<path d="M229.554 1080.19C229.554 1080.37 229.536 1080.54 229.493 1080.71C229.435 1080.96 229.337 1081.2 229.203 1081.41C228.97 1081.79 228.632 1082.08 228.231 1082.27C228.006 1082.37 227.76 1082.45 227.502 1082.47C227.425 1082.48 227.351 1082.48 227.274 1082.48C226.543 1082.48 225.89 1082.14 225.473 1081.59C225.317 1081.4 225.198 1081.17 225.116 1080.93C225.074 1080.8 225.045 1080.68 225.024 1080.55C225.005 1080.43 224.997 1080.32 224.997 1080.19C224.997 1080.06 225.011 1079.92 225.034 1079.79C225.034 1079.79 225.034 1079.78 225.037 1079.78C225.085 1079.52 225.172 1079.28 225.299 1079.06C225.542 1078.63 225.919 1078.29 226.371 1078.1C226.413 1078.08 226.458 1078.06 226.5 1078.05C226.691 1077.98 226.891 1077.93 227.103 1077.92C227.161 1077.91 227.216 1077.91 227.277 1077.91C227.293 1077.91 227.309 1077.91 227.325 1077.91C227.546 1077.91 227.76 1077.95 227.964 1078.01C228.022 1078.03 228.08 1078.05 228.136 1078.07C228.318 1078.15 228.489 1078.24 228.645 1078.36C228.693 1078.4 228.738 1078.43 228.783 1078.47C229.002 1078.67 229.184 1078.9 229.316 1079.17C229.43 1079.39 229.506 1079.64 229.538 1079.9C229.551 1080 229.557 1080.09 229.557 1080.19L229.554 1080.19Z" fill="#030303"/>
<path d="M275.254 1064.87C275.056 1065.03 274.861 1065.19 274.67 1065.36C272.602 1067.16 270.922 1069.41 269.776 1071.94C269.702 1072.1 269.63 1072.27 269.564 1072.43C269.44 1072.72 269.324 1073.02 269.213 1073.33C269.152 1073.49 269.097 1073.66 269.039 1073.83C268.88 1074.31 268.74 1074.79 268.619 1075.29C268.558 1075.54 268.503 1075.79 268.452 1076.04C268.196 1076.02 267.943 1076.01 267.692 1076C267.739 1075.75 267.795 1075.5 267.853 1075.25C267.966 1074.77 268.096 1074.3 268.244 1073.83C268.291 1073.68 268.341 1073.53 268.392 1073.38C268.547 1072.92 268.722 1072.47 268.909 1072.03C268.973 1071.88 269.036 1071.74 269.105 1071.59C270.283 1069 271.995 1066.71 274.097 1064.86C274.287 1064.69 274.483 1064.52 274.681 1064.36C274.874 1064.53 275.064 1064.7 275.254 1064.87V1064.87ZM307.135 1079.87C307.135 1090.88 298.204 1099.84 287.226 1099.84C276.995 1099.84 268.542 1092.06 267.441 1082.08C267.414 1081.83 267.39 1081.58 267.372 1081.33L268.125 1081.3C268.143 1081.55 268.167 1081.8 268.196 1082.06C269.282 1091.63 277.402 1099.09 287.226 1099.09C297.786 1099.09 306.382 1090.47 306.382 1079.87C306.382 1069.27 297.789 1060.64 287.226 1060.64C283.469 1060.64 279.961 1061.74 277 1063.62C276.778 1063.76 276.557 1063.9 276.343 1064.06C276.152 1063.88 275.96 1063.71 275.764 1063.54C275.981 1063.38 276.197 1063.24 276.419 1063.09C279.534 1061.07 283.245 1059.89 287.226 1059.89C295.248 1059.89 302.179 1064.68 305.328 1071.55C305.471 1071.87 305.608 1072.19 305.737 1072.51C306.641 1074.79 307.135 1077.27 307.135 1079.87V1079.87Z" fill="#030303"/>
<path d="M268.069 1079.87C268.069 1080.35 268.087 1080.83 268.122 1081.3L267.369 1081.33C267.332 1080.84 267.313 1080.36 267.313 1079.87C267.313 1078.54 267.44 1077.25 267.688 1076C267.939 1076.01 268.193 1076.03 268.449 1076.04C268.198 1077.28 268.069 1078.56 268.069 1079.87Z" fill="#CE6326"/>
<path d="M277.451 1067.07C277.25 1067.22 277.055 1067.38 276.865 1067.54C274.456 1069.58 272.652 1072.32 271.761 1075.44C271.693 1075.69 271.627 1075.94 271.571 1076.19C271.109 1076.17 270.649 1076.14 270.198 1076.12C270.253 1075.87 270.311 1075.62 270.377 1075.38C271.299 1071.89 273.27 1068.83 275.93 1066.55C276.12 1066.39 276.315 1066.23 276.513 1066.07C276.836 1066.4 277.147 1066.73 277.451 1067.07ZM304.656 1079.87C304.656 1089.51 296.837 1097.36 287.225 1097.36C278.331 1097.36 270.969 1090.64 269.923 1081.99C269.891 1081.74 269.867 1081.49 269.846 1081.23L271.201 1081.18C271.22 1081.43 271.249 1081.68 271.281 1081.93C271.658 1084.89 272.836 1087.6 274.59 1089.83C274.746 1090.03 274.907 1090.22 275.069 1090.41C275.85 1091.32 276.73 1092.13 277.692 1092.84C277.892 1092.99 278.101 1093.14 278.31 1093.28C280.861 1094.99 283.928 1095.99 287.222 1095.99C288.157 1095.99 289.074 1095.92 289.967 1095.76C290.215 1095.72 290.461 1095.67 290.706 1095.61C295.477 1094.55 299.458 1091.36 301.597 1087.08C301.711 1086.86 301.819 1086.63 301.92 1086.4C302.807 1084.4 303.301 1082.19 303.301 1079.87C303.301 1076.91 302.501 1074.13 301.106 1071.74C300.982 1071.52 300.847 1071.31 300.71 1071.1C299.349 1068.99 297.514 1067.23 295.355 1065.96C295.139 1065.83 294.92 1065.7 294.698 1065.59C292.466 1064.4 289.922 1063.73 287.227 1063.73C286.092 1063.73 284.987 1063.85 283.918 1064.08C283.669 1064.13 283.426 1064.19 283.183 1064.25C281.778 1064.62 280.444 1065.17 279.213 1065.88C278.989 1066.01 278.767 1066.15 278.547 1066.29C278.241 1065.95 277.929 1065.61 277.61 1065.28C277.826 1065.14 278.048 1065 278.273 1064.86C280.89 1063.28 283.955 1062.37 287.225 1062.37C296.837 1062.37 304.656 1070.22 304.656 1079.86V1079.87ZM271.761 1075.45C271.693 1075.69 271.627 1075.94 271.571 1076.19C271.109 1076.17 270.649 1076.15 270.198 1076.13C270.253 1075.87 270.311 1075.63 270.377 1075.38C270.834 1075.4 271.299 1075.43 271.761 1075.45Z" fill="#030303"/>
<path d="M271.148 1079.87C271.148 1080.31 271.167 1080.75 271.201 1081.18L269.846 1081.23C269.812 1080.78 269.793 1080.32 269.793 1079.87C269.793 1078.58 269.931 1077.33 270.195 1076.13C270.649 1076.15 271.109 1076.17 271.568 1076.19C271.294 1077.37 271.148 1078.6 271.148 1079.87Z" fill="#CE6326"/>
<path d="M289.503 1079.87C289.503 1080.27 289.4 1080.65 289.217 1080.98C289.088 1081.21 288.921 1081.41 288.723 1081.59C288.544 1081.75 288.34 1081.88 288.116 1081.97C287.886 1082.07 287.64 1082.13 287.381 1082.15C287.331 1082.15 287.278 1082.15 287.226 1082.15C287.112 1082.15 286.998 1082.14 286.89 1082.13C286.618 1082.09 286.364 1082 286.135 1081.87C286.079 1081.84 286.026 1081.81 285.976 1081.77C285.786 1081.65 285.617 1081.5 285.472 1081.32C285.453 1081.3 285.435 1081.28 285.416 1081.26C285.271 1081.07 285.155 1080.85 285.078 1080.63C284.993 1080.39 284.949 1080.13 284.949 1079.87C284.949 1078.88 285.572 1078.04 286.446 1077.72C286.454 1077.71 286.462 1077.71 286.47 1077.71C286.697 1077.63 286.938 1077.59 287.189 1077.58C287.196 1077.58 287.204 1077.58 287.215 1077.58H287.228C287.64 1077.58 288.029 1077.7 288.361 1077.89C288.589 1078.02 288.787 1078.19 288.956 1078.38C289.083 1078.53 289.193 1078.7 289.278 1078.87C289.392 1079.11 289.466 1079.37 289.495 1079.64C289.503 1079.72 289.508 1079.79 289.508 1079.87L289.503 1079.87Z" fill="#030303"/>
<path d="M233.251 1058.87C233.175 1059.11 233.101 1059.35 233.024 1059.59C232.781 1059.53 232.538 1059.46 232.292 1059.4C230.705 1059.02 229.049 1058.82 227.347 1058.82C221.671 1058.82 216.343 1061.04 212.341 1065.08L212.317 1065.11C212.111 1065.28 211.786 1065.69 211.902 1065.84C212.011 1065.97 212.803 1065.92 213.577 1065.66L213.59 1065.7L213.818 1066.38C213.601 1066.45 213.141 1066.59 212.666 1066.64C212.138 1066.7 211.586 1066.66 211.311 1066.3C210.827 1065.68 211.401 1064.91 211.821 1064.54C215.963 1060.36 221.478 1058.06 227.35 1058.06C229.13 1058.06 230.863 1058.28 232.522 1058.68C232.768 1058.74 233.011 1058.8 233.254 1058.87L233.251 1058.87Z" fill="#030303"/>
<path d="M249.25 1080.04C249.25 1081.78 249.044 1083.52 248.642 1085.2L248.632 1085.23C248.442 1085.78 247.924 1086.62 247.132 1086.62C247.052 1086.62 246.973 1086.61 246.891 1086.59C246.614 1086.53 246.408 1086.4 246.26 1086.21C245.903 1085.77 245.861 1085.08 245.919 1084.62C245.919 1084.61 245.919 1084.61 245.919 1084.61C245.919 1084.6 245.919 1084.6 245.919 1084.59L246.664 1084.69C246.664 1084.69 246.664 1084.71 246.659 1084.73C246.643 1084.94 246.608 1085.77 247.039 1085.86C247.512 1085.95 247.863 1085.12 247.911 1085C248.294 1083.39 248.492 1081.72 248.492 1080.04C248.492 1070.83 242.607 1062.97 234.41 1060.04C234.172 1059.95 233.934 1059.87 233.697 1059.8C233.773 1059.56 233.847 1059.32 233.924 1059.08C234.164 1059.15 234.402 1059.23 234.64 1059.32C243.143 1062.34 249.247 1070.49 249.247 1080.04L249.25 1080.04Z" fill="#030303"/>
<path d="M273.892 1063.71C273.694 1063.87 273.501 1064.04 273.311 1064.21C271.063 1066.23 269.243 1068.74 268.033 1071.58C267.967 1071.73 267.906 1071.88 267.845 1072.03C267.668 1072.48 267.507 1072.93 267.359 1073.38C267.312 1073.53 267.264 1073.69 267.219 1073.84C267.087 1074.28 266.968 1074.74 266.868 1075.2C266.81 1075.45 266.76 1075.7 266.715 1075.95C266.456 1075.94 266.205 1075.93 265.957 1075.92C265.999 1075.67 266.049 1075.42 266.102 1075.16C266.2 1074.72 266.311 1074.28 266.435 1073.84C266.477 1073.68 266.522 1073.53 266.57 1073.38C266.707 1072.93 266.863 1072.48 267.032 1072.03C267.09 1071.88 267.148 1071.73 267.211 1071.58C268.421 1068.61 270.284 1065.91 272.682 1063.72C272.809 1063.6 272.941 1063.49 273.07 1063.37C273.134 1063.31 273.197 1063.26 273.261 1063.21C273.475 1063.37 273.686 1063.54 273.895 1063.71L273.892 1063.71Z" fill="#030303"/>
<path d="M307.169 1071.81C307.077 1072.09 306.873 1072.29 306.583 1072.4C306.266 1072.51 305.981 1072.54 305.735 1072.51C305.122 1072.44 304.747 1072.04 304.726 1072.02L305.273 1071.5C305.273 1071.5 305.294 1071.52 305.328 1071.55C305.46 1071.65 305.822 1071.88 306.321 1071.69C306.416 1071.65 306.443 1071.61 306.456 1071.57C306.538 1071.33 306.329 1070.82 306.16 1070.55L306.142 1070.51C302.647 1063.39 295.251 1058.78 287.3 1058.78C283.018 1058.78 278.976 1060.11 275.608 1062.4C275.389 1062.55 275.172 1062.7 274.958 1062.86C274.747 1062.69 274.533 1062.52 274.319 1062.36C274.531 1062.19 274.747 1062.04 274.966 1061.89C278.575 1059.38 282.872 1058.03 287.302 1058.03C291.436 1058.03 295.462 1059.19 298.941 1061.4C302.33 1063.55 305.051 1066.58 306.813 1070.17C306.91 1070.33 307.391 1071.17 307.172 1071.81H307.169Z" fill="#030303"/>
<path d="M269.794 1079.87C269.794 1080.32 269.812 1080.78 269.847 1081.23L268.122 1081.3C268.087 1080.83 268.069 1080.35 268.069 1079.87C268.069 1078.56 268.201 1077.28 268.449 1076.04C269.02 1076.07 269.601 1076.1 270.195 1076.13C269.931 1077.33 269.794 1078.58 269.794 1079.87Z" fill="#CE6326"/>
<path d="M284.946 1079.87C284.946 1080.13 284.991 1080.39 285.076 1080.63L271.202 1081.18C271.168 1080.75 271.15 1080.31 271.15 1079.87C271.15 1078.6 271.295 1077.37 271.57 1076.2C277.764 1076.51 284.373 1076.84 285.195 1076.9C285.947 1076.94 286.259 1077.26 286.394 1077.51C286.394 1077.51 286.394 1077.51 286.394 1077.52L286.441 1077.72C285.567 1078.04 284.944 1078.88 284.944 1079.87H284.946Z" fill="#CE6326"/>
<path d="M287.238 1077.79L286.861 1077.8L286.485 1077.82C286.485 1077.82 286.485 1077.82 286.485 1077.82C286.485 1077.8 286.48 1077.76 286.47 1077.71C286.456 1077.66 286.433 1077.59 286.398 1077.52C286.398 1077.52 286.398 1077.52 286.398 1077.51C286.266 1077.26 285.955 1076.95 285.199 1076.89C284.378 1076.84 277.768 1076.51 271.574 1076.2C271.112 1076.17 270.652 1076.15 270.2 1076.13C269.609 1076.1 269.025 1076.07 268.454 1076.04C268.198 1076.03 267.945 1076.01 267.694 1076C267.361 1075.99 267.033 1075.97 266.714 1075.95C266.455 1075.94 266.204 1075.93 265.956 1075.92C265.52 1075.89 265.102 1075.87 264.701 1075.85C264.526 1075.85 264.36 1075.84 264.194 1075.83C264.017 1075.82 263.848 1075.81 263.681 1075.8C263.507 1075.79 263.338 1075.78 263.174 1075.78C261.483 1075.69 260.4 1075.64 260.35 1075.63H260.329C260.329 1075.63 258.969 1075.51 257.74 1076.35C256.858 1076.95 255.939 1078.05 255.466 1078.66C255.088 1079.15 254.808 1079.67 254.637 1080.22C254.457 1080.79 254.449 1081.22 254.613 1081.34C254.901 1081.55 255.371 1081.66 255.817 1081.71C255.976 1081.73 256.132 1081.74 256.274 1081.75C256.504 1081.76 256.7 1081.76 256.826 1081.75L257.598 1081.72L258.049 1081.7L259.819 1081.63L260.353 1081.61L260.842 1081.59L261.378 1081.57L263.298 1081.49L263.75 1081.47L265.189 1081.41L265.641 1081.4L267.377 1081.33L268.13 1081.3L269.854 1081.23L271.21 1081.18L285.083 1080.62L285.447 1080.61L285.471 1081.21L285.476 1081.32V1081.36L285.27 1081.37L271.286 1081.93L269.926 1081.98L268.198 1082.05L267.443 1082.08L265.594 1082.15L265.137 1082.17L263.642 1082.23L263.163 1082.25L260.926 1082.34L260.39 1082.36L259.909 1082.38L259.376 1082.4L258.245 1082.45L257.767 1082.47L256.863 1082.5C256.826 1082.5 256.723 1082.51 256.578 1082.51C256.52 1082.51 256.457 1082.51 256.388 1082.51C256.251 1082.5 256.089 1082.5 255.918 1082.48C255.347 1082.43 254.647 1082.29 254.177 1081.95C253.704 1081.61 253.62 1080.95 253.923 1079.99C254.124 1079.35 254.446 1078.75 254.88 1078.19C255.487 1077.41 256.404 1076.35 257.32 1075.72C258.396 1074.99 259.523 1074.87 260.073 1074.87C260.245 1074.87 260.361 1074.88 260.398 1074.88C260.437 1074.88 260.588 1074.89 260.839 1074.9C261.013 1074.91 261.233 1074.92 261.494 1074.93C261.719 1074.95 261.975 1074.96 262.26 1074.97C262.656 1074.99 263.105 1075.01 263.599 1075.04C263.763 1075.05 263.932 1075.06 264.104 1075.07C264.273 1075.07 264.445 1075.08 264.622 1075.09C264.788 1075.1 264.957 1075.11 265.129 1075.12C265.443 1075.13 265.765 1075.15 266.101 1075.16C266.352 1075.18 266.608 1075.19 266.867 1075.2C267.189 1075.22 267.519 1075.24 267.855 1075.25C268.106 1075.27 268.362 1075.28 268.621 1075.29C269.194 1075.32 269.783 1075.35 270.38 1075.38C270.837 1075.4 271.302 1075.43 271.764 1075.45C275.642 1075.64 279.662 1075.85 282.309 1075.99C282.597 1076 282.869 1076.01 283.123 1076.03C283.638 1076.05 284.076 1076.08 284.422 1076.09C284.824 1076.12 285.104 1076.13 285.239 1076.14H285.244C285.582 1076.16 285.867 1076.23 286.105 1076.33C286.647 1076.54 286.953 1076.91 287.106 1077.26C287.106 1077.26 287.106 1077.26 287.106 1077.27C287.154 1077.38 287.188 1077.48 287.209 1077.58C287.225 1077.66 287.233 1077.73 287.236 1077.79L287.238 1077.79Z" fill="#030303"/>
<path d="M265.637 1081.48C265.637 1081.71 265.621 1081.94 265.589 1082.16C265.262 1084.56 263.204 1086.41 260.723 1086.41C260.034 1086.41 259.379 1086.27 258.785 1086.01C258.647 1085.95 258.51 1085.89 258.378 1085.81L258.605 1085.42C258.737 1085.49 258.874 1085.56 259.014 1085.62C259.54 1085.84 260.119 1085.96 260.723 1085.96C262.95 1085.96 264.799 1084.32 265.132 1082.18C265.167 1081.95 265.185 1081.72 265.185 1081.48C265.185 1081.46 265.185 1081.44 265.185 1081.42L265.637 1081.4C265.637 1081.43 265.637 1081.45 265.637 1081.48ZM258.277 1085.23L258.05 1085.62C257.923 1085.54 257.799 1085.45 257.68 1085.35C256.79 1084.65 256.148 1083.64 255.911 1082.48C255.86 1082.23 255.826 1081.97 255.813 1081.71C255.971 1081.73 256.127 1081.74 256.27 1081.75C256.283 1082.01 256.32 1082.26 256.381 1082.51C256.608 1083.48 257.157 1084.34 257.91 1084.95C258.026 1085.05 258.151 1085.14 258.277 1085.22V1085.23Z" fill="#030303"/>
<path d="M259.2 1083.61L258.973 1084.01C258.846 1083.92 258.725 1083.83 258.611 1083.73C258.231 1083.39 257.935 1082.95 257.76 1082.47C257.673 1082.23 257.618 1081.98 257.594 1081.72L258.046 1081.7C258.072 1081.96 258.138 1082.21 258.239 1082.45C258.379 1082.78 258.587 1083.08 258.843 1083.32C258.954 1083.43 259.073 1083.53 259.2 1083.61V1083.61ZM263.746 1081.47C263.743 1081.74 263.706 1081.99 263.638 1082.24C263.281 1083.55 262.082 1084.52 260.663 1084.52C260.341 1084.52 260.032 1084.47 259.739 1084.37C259.594 1084.33 259.451 1084.27 259.316 1084.2L259.546 1083.81C259.683 1083.88 259.826 1083.93 259.977 1083.97C260.196 1084.03 260.428 1084.06 260.666 1084.06C261.828 1084.06 262.814 1083.31 263.162 1082.26C263.242 1082.02 263.289 1081.76 263.294 1081.49L263.746 1081.47Z" fill="#030303"/>
<path d="M258.773 1088.99C258.773 1089.61 258.269 1090.12 257.648 1090.12H253.057C252.439 1090.12 251.935 1089.61 251.935 1088.99C251.935 1088.36 252.439 1087.86 253.057 1087.86H257.648C257.669 1087.86 257.69 1087.86 257.709 1087.86C258.301 1087.89 258.771 1088.38 258.771 1088.98L258.773 1088.99ZM258.322 1088.99C258.322 1088.62 258.021 1088.31 257.651 1088.31H253.06C252.69 1088.31 252.389 1088.62 252.389 1088.99C252.389 1089.36 252.69 1089.66 253.06 1089.66H257.651C258.021 1089.66 258.322 1089.36 258.322 1088.99Z" fill="#030303"/>
<path d="M258.322 1088.99C258.322 1089.36 258.021 1089.66 257.651 1089.66H253.06C252.691 1089.66 252.389 1089.36 252.389 1088.99C252.389 1088.62 252.691 1088.31 253.06 1088.31H257.651C258.021 1088.31 258.322 1088.62 258.322 1088.99Z" fill="#4F4F4F"/>
<path d="M267.358 1073.38C267.311 1073.53 267.263 1073.69 267.218 1073.84H264.807L265.066 1073.38H267.358ZM267.358 1073.38C267.311 1073.53 267.263 1073.69 267.218 1073.84H264.807L265.066 1073.38H267.358ZM267.358 1073.38C267.311 1073.53 267.263 1073.69 267.218 1073.84H264.807L265.066 1073.38H267.358ZM267.358 1073.38C267.311 1073.53 267.263 1073.69 267.218 1073.84H264.807L265.066 1073.38H267.358ZM267.358 1073.38C267.311 1073.53 267.263 1073.69 267.218 1073.84H264.807L265.066 1073.38H267.358ZM267.358 1073.38C267.311 1073.53 267.263 1073.69 267.218 1073.84H264.807L265.066 1073.38H267.358ZM267.358 1073.38C267.311 1073.53 267.263 1073.69 267.218 1073.84H264.807L265.066 1073.38H267.358ZM267.358 1073.38C267.311 1073.53 267.263 1073.69 267.218 1073.84H264.807L265.066 1073.38H267.358ZM267.358 1073.38C267.311 1073.53 267.263 1073.69 267.218 1073.84H264.807L265.066 1073.38H267.358ZM267.358 1073.38C267.311 1073.53 267.263 1073.69 267.218 1073.84H264.807L265.066 1073.38H267.358ZM267.358 1073.38C267.311 1073.53 267.263 1073.69 267.218 1073.84H264.807L265.066 1073.38H267.358ZM263.689 1072.71C263.689 1073.08 263.99 1073.38 264.36 1073.38H267.358C267.311 1073.53 267.263 1073.68 267.218 1073.83H264.36C264.334 1073.83 264.31 1073.83 264.286 1073.83C263.703 1073.79 263.238 1073.3 263.238 1072.7C263.238 1072.11 263.742 1071.58 264.36 1071.58H268.035C267.969 1071.72 267.908 1071.88 267.847 1072.03H264.363C263.993 1072.03 263.692 1072.33 263.692 1072.7L263.689 1072.71ZM269.775 1071.94C269.701 1072.1 269.63 1072.27 269.564 1072.43C269.458 1072.2 269.226 1072.03 268.951 1072.03H268.912C268.975 1071.89 269.038 1071.74 269.107 1071.59C269.371 1071.63 269.606 1071.76 269.775 1071.94ZM269.21 1073.33C269.149 1073.5 269.094 1073.66 269.036 1073.83C269.007 1073.83 268.978 1073.84 268.949 1073.84H268.241C268.288 1073.69 268.338 1073.53 268.389 1073.38H268.946C269.038 1073.38 269.126 1073.36 269.207 1073.33H269.21ZM267.358 1073.38C267.311 1073.53 267.263 1073.69 267.218 1073.84H264.807L265.066 1073.38H267.358ZM267.358 1073.38C267.311 1073.53 267.263 1073.69 267.218 1073.84H264.807L265.066 1073.38H267.358ZM267.358 1073.38C267.311 1073.53 267.263 1073.69 267.218 1073.84H264.807L265.066 1073.38H267.358ZM267.358 1073.38C267.311 1073.53 267.263 1073.69 267.218 1073.84H264.807L265.066 1073.38H267.358ZM267.358 1073.38C267.311 1073.53 267.263 1073.69 267.218 1073.84H264.807L265.066 1073.38H267.358ZM267.358 1073.38C267.311 1073.53 267.263 1073.69 267.218 1073.84H264.807L265.066 1073.38H267.358ZM267.358 1073.38C267.311 1073.53 267.263 1073.69 267.218 1073.84H264.807L265.066 1073.38H267.358ZM267.358 1073.38C267.311 1073.53 267.263 1073.69 267.218 1073.84H264.807L265.066 1073.38H267.358ZM267.358 1073.38C267.311 1073.53 267.263 1073.69 267.218 1073.84H264.807L265.066 1073.38H267.358ZM267.358 1073.38C267.311 1073.53 267.263 1073.69 267.218 1073.84H264.807L265.066 1073.38H267.358Z" fill="#030303"/>
<path d="M258.613 1083.73L257.913 1084.96C257.16 1084.34 256.611 1083.49 256.384 1082.51C256.453 1082.51 256.516 1082.51 256.574 1082.51C256.719 1082.51 256.822 1082.51 256.859 1082.51L257.763 1082.47C257.937 1082.96 258.233 1083.39 258.613 1083.73Z" fill="#5D5D5D"/>
<path d="M260.348 1081.61L259.904 1082.38L259.199 1083.61L258.974 1084.01L258.277 1085.23L258.05 1085.62L256.768 1087.86L256.515 1088.3L256.121 1088.07L256.248 1087.86L257.682 1085.36L257.91 1084.96L258.612 1083.73L258.842 1083.33L259.37 1082.41L259.814 1081.63L260.348 1081.61Z" fill="#030303"/>
<path d="M267.029 1072.03C266.86 1072.48 266.704 1072.93 266.567 1073.38H264.359C263.989 1073.38 263.688 1073.08 263.688 1072.71C263.688 1072.34 263.989 1072.04 264.359 1072.04H267.029V1072.03Z" fill="#4F4F4F"/>
<path d="M265.064 1073.38L264.805 1073.84L264.102 1075.07L263.682 1075.8C263.508 1075.79 263.339 1075.78 263.175 1075.78L263.598 1075.04L264.287 1073.83L264.546 1073.39H265.066L265.064 1073.38Z" fill="#030303"/>
<path d="M265.131 1082.17C264.798 1084.32 262.949 1085.96 260.722 1085.96C260.117 1085.96 259.539 1085.84 259.013 1085.62L259.737 1084.37C260.03 1084.47 260.339 1084.52 260.661 1084.52C262.08 1084.52 263.279 1083.55 263.636 1082.24L265.131 1082.18V1082.17Z" fill="#4F4F4F"/>
<path d="M260.385 1082.37L259.545 1083.81L259.315 1084.2L258.604 1085.42L258.377 1085.82L257.189 1087.86H256.769L258.05 1085.62L258.277 1085.23L258.974 1084.01L259.199 1083.61L259.904 1082.38L260.385 1082.37Z" fill="#5D5D5D"/>
<path d="M261.373 1081.57L260.921 1082.34L259.973 1083.97L259.738 1084.37L259.017 1085.62L258.784 1086.01L257.709 1087.86L257.514 1088.2L257.123 1087.97L257.189 1087.86L258.378 1085.82L258.605 1085.42L259.315 1084.2L259.545 1083.81L260.385 1082.37L260.837 1081.59L261.373 1081.57Z" fill="#030303"/>
<path d="M267.317 1079.87C267.317 1080.36 267.335 1080.85 267.372 1081.33L265.637 1081.4L265.185 1081.42L263.746 1081.47L263.294 1081.49L261.374 1081.57L260.837 1081.59L260.349 1081.61L259.815 1081.63L258.045 1081.7L257.594 1081.72L256.822 1081.75C256.695 1081.76 256.5 1081.76 256.27 1081.75C256.128 1081.74 255.972 1081.73 255.813 1081.71C255.367 1081.66 254.897 1081.55 254.609 1081.34C254.442 1081.22 254.45 1080.79 254.632 1080.22C254.807 1079.67 255.084 1079.15 255.462 1078.66C255.935 1078.06 256.854 1076.96 257.736 1076.35C258.965 1075.51 260.312 1075.63 260.325 1075.63H260.346C260.396 1075.64 261.479 1075.69 263.17 1075.78C263.334 1075.78 263.503 1075.79 263.677 1075.8C263.843 1075.81 264.012 1075.82 264.189 1075.83C264.356 1075.83 264.525 1075.84 264.697 1075.85C265.095 1075.87 265.515 1075.89 265.951 1075.92C266.2 1075.93 266.451 1075.94 266.709 1075.95C267.029 1075.97 267.357 1075.99 267.689 1076C267.441 1077.25 267.314 1078.55 267.314 1079.87H267.317Z" fill="#CE6326"/>
<path d="M265.35 1073.84L264.621 1075.09C264.444 1075.08 264.272 1075.07 264.103 1075.06L264.805 1073.83H265.35V1073.84Z" fill="#5D5D5D"/>
<path d="M265.9 1073.79L265.871 1073.83L265.126 1075.11L264.699 1075.85C264.524 1075.84 264.358 1075.83 264.191 1075.82L264.619 1075.09L265.348 1073.84L265.509 1073.56L265.9 1073.79V1073.79Z" fill="#030303"/>
<path d="M266.395 1050.27L266.334 1050.53L260.831 1074.9L260.734 1075.34L259.997 1075.17L260.065 1074.87H260.068L260.509 1072.9L260.691 1072.09L260.905 1071.16L261.085 1070.35L265.581 1050.45L265.66 1050.1L266.395 1050.27Z" fill="#030303"/>
<path d="M267.973 1050.39L267.899 1050.7L266.396 1057.16L266.224 1057.91L265.96 1059.05L265.785 1059.79L262.254 1074.97L262.164 1075.37L261.43 1075.2L261.49 1074.93L267.143 1050.62L267.238 1050.22L267.973 1050.39Z" fill="#030303"/>
<path d="M274.462 1049.08C274.002 1050.11 272.956 1050.49 272.451 1050.67C271.865 1050.88 271.323 1050.94 270.851 1050.94C270.547 1050.94 270.275 1050.92 270.034 1050.9C269.189 1050.83 268.492 1050.76 267.9 1050.7C267.628 1050.67 267.377 1050.65 267.145 1050.62C266.849 1050.59 266.585 1050.56 266.336 1050.53C266.064 1050.5 265.818 1050.47 265.583 1050.44C265.47 1050.43 265.359 1050.42 265.251 1050.4C264.971 1050.37 264.698 1050.34 264.408 1050.3L263.964 1050.25C262.231 1050.06 261.085 1049.93 260.435 1049.08C260.292 1048.89 259.912 1048.4 259.973 1047.72C259.981 1047.64 260.055 1046.97 260.58 1046.57C260.863 1046.35 261.183 1046.27 261.51 1046.27C261.872 1046.27 262.245 1046.36 262.596 1046.45C262.665 1046.46 262.736 1046.48 262.805 1046.5C262.818 1046.5 264.078 1046.78 265.958 1046.78H265.964C266.738 1046.78 268.014 1046.43 270.557 1045.73L270.948 1045.62C272.248 1045.26 272.684 1045.14 273.26 1045.42C274.438 1046 275.032 1047.81 274.464 1049.08L274.462 1049.08ZM272.927 1046.1C272.62 1045.95 272.354 1046.01 271.149 1046.35L270.755 1046.46C268.148 1047.18 266.838 1047.54 265.961 1047.54H265.956C263.983 1047.54 262.688 1047.24 262.633 1047.23C262.561 1047.22 262.49 1047.2 262.416 1047.18C261.864 1047.05 261.346 1046.92 261.035 1047.16C260.76 1047.37 260.72 1047.78 260.718 1047.79C260.683 1048.17 260.916 1048.47 261.027 1048.62C261.484 1049.21 262.501 1049.33 264.043 1049.5L264.49 1049.55C264.78 1049.59 265.055 1049.62 265.338 1049.65C266.394 1049.78 267.591 1049.93 270.098 1050.14C270.671 1050.19 271.387 1050.25 272.195 1049.96C272.631 1049.8 273.445 1049.5 273.775 1048.77C274.216 1047.79 273.666 1046.46 272.927 1046.1V1046.1Z" fill="#030303"/>
<path d="M273.774 1048.77C273.444 1049.51 272.63 1049.8 272.194 1049.96C271.386 1050.26 270.673 1050.2 270.097 1050.15C267.593 1049.93 266.394 1049.79 265.337 1049.66C265.054 1049.62 264.78 1049.59 264.489 1049.56L264.043 1049.51C262.5 1049.33 261.483 1049.21 261.026 1048.62C260.915 1048.48 260.685 1048.18 260.717 1047.79C260.717 1047.79 260.759 1047.38 261.034 1047.17C261.346 1046.93 261.863 1047.05 262.415 1047.19C262.487 1047.2 262.558 1047.22 262.632 1047.24C262.688 1047.25 263.982 1047.54 265.955 1047.54H265.96C266.835 1047.54 268.145 1047.18 270.755 1046.46L271.148 1046.35C272.353 1046.02 272.62 1045.95 272.926 1046.11C273.666 1046.47 274.215 1047.8 273.774 1048.77V1048.77Z" fill="#7C5039"/>
<path d="M267.142 1050.62L261.489 1074.93C261.228 1074.92 261.006 1074.91 260.834 1074.9L266.336 1050.53C266.585 1050.56 266.849 1050.59 267.145 1050.62H267.142Z" fill="#CE6326"/>
<path d="M261.148 1072.44L260.697 1073.04L260.509 1072.9L236.125 1054.61L235.51 1054.15L235.959 1053.55L236.366 1053.85L260.691 1072.09L261.148 1072.44Z" fill="#030303"/>
<path d="M261.607 1070.74L261.161 1071.34L260.905 1071.16L236.574 1053.18L236.074 1052.81L236.521 1052.2L236.814 1052.42L261.084 1070.35L261.607 1070.74Z" fill="#030303"/>
<path d="M274.098 1064.86C271.995 1066.71 270.283 1069.01 269.105 1071.59C269.039 1071.74 268.973 1071.88 268.91 1072.03C268.722 1072.48 268.548 1072.93 268.392 1073.38C268.342 1073.53 268.292 1073.68 268.244 1073.84C268.096 1074.3 267.967 1074.77 267.853 1075.25C267.518 1075.24 267.187 1075.22 266.865 1075.2C266.966 1074.74 267.084 1074.29 267.216 1073.84C267.261 1073.68 267.309 1073.53 267.356 1073.38C267.504 1072.93 267.666 1072.48 267.843 1072.03C267.903 1071.88 267.964 1071.73 268.03 1071.58C269.24 1068.74 271.06 1066.23 273.308 1064.21C273.572 1064.42 273.836 1064.64 274.095 1064.86H274.098Z" fill="#CE6326"/>
<path d="M283.142 1076.02L283.123 1076.03L282.447 1076.31C282.402 1076.2 282.355 1076.09 282.31 1075.98C280.971 1072.87 279.119 1070.02 276.866 1067.54C276.562 1067.21 276.25 1066.88 275.931 1066.55C275.521 1066.14 275.104 1065.74 274.673 1065.36C274.486 1065.19 274.293 1065.02 274.1 1064.86C273.841 1064.64 273.58 1064.42 273.313 1064.2C273.104 1064.04 272.893 1063.88 272.681 1063.71C270.574 1062.12 268.26 1060.79 265.787 1059.79C265.66 1059.74 265.534 1059.69 265.407 1059.64L265.679 1058.93C265.771 1058.97 265.866 1059.01 265.961 1059.04C268.584 1060.09 271.038 1061.5 273.263 1063.2C273.477 1063.37 273.688 1063.53 273.897 1063.7C274.163 1063.92 274.428 1064.14 274.686 1064.36C274.879 1064.53 275.069 1064.7 275.26 1064.87C275.69 1065.26 276.11 1065.66 276.517 1066.07C276.839 1066.4 277.151 1066.73 277.455 1067.07C279.829 1069.69 281.768 1072.71 283.145 1076.02H283.142Z" fill="#030303"/>
<path d="M283.124 1076.03L283.142 1076.02C281.766 1072.71 279.827 1069.69 277.452 1067.07C277.148 1066.73 276.834 1066.4 276.514 1066.08C276.108 1065.66 275.688 1065.26 275.257 1064.87C275.067 1064.7 274.877 1064.53 274.684 1064.36C274.425 1064.14 274.161 1063.92 273.894 1063.7C273.685 1063.53 273.474 1063.37 273.26 1063.2C271.039 1061.5 268.582 1060.1 265.959 1059.04L266.223 1057.9C269.15 1058.96 271.876 1060.48 274.319 1062.36C274.536 1062.52 274.75 1062.69 274.959 1062.86C275.231 1063.08 275.5 1063.31 275.764 1063.54C275.96 1063.71 276.153 1063.88 276.343 1064.05C276.776 1064.45 277.199 1064.86 277.611 1065.28C277.93 1065.61 278.245 1065.95 278.548 1066.29C281.087 1069.14 283.1 1072.46 284.426 1076.09C284.077 1076.07 283.639 1076.05 283.126 1076.02L283.124 1076.03Z" fill="#CE6326"/>
<path d="M306.456 1071.57C306.443 1071.61 306.416 1071.66 306.321 1071.69C305.822 1071.88 305.46 1071.66 305.328 1071.56C302.179 1064.68 295.248 1059.89 287.225 1059.89C283.245 1059.89 279.533 1061.07 276.419 1063.1C276.155 1062.86 275.883 1062.63 275.611 1062.41C278.979 1060.12 283.02 1058.79 287.302 1058.79C295.253 1058.79 302.649 1063.39 306.144 1070.52L306.163 1070.55C306.329 1070.82 306.54 1071.33 306.458 1071.57L306.456 1071.57Z" fill="#CE6326"/>
<path d="M285.305 1076.33L284.594 1076.58C284.539 1076.42 284.481 1076.25 284.425 1076.1C283.099 1072.47 281.086 1069.14 278.548 1066.3C278.241 1065.95 277.93 1065.62 277.61 1065.29C277.198 1064.87 276.775 1064.46 276.342 1064.06C276.152 1063.89 275.959 1063.71 275.764 1063.54C275.499 1063.32 275.233 1063.09 274.958 1062.87C274.747 1062.7 274.533 1062.53 274.319 1062.36C271.878 1060.48 269.149 1058.97 266.222 1057.91C266.077 1057.86 265.929 1057.81 265.781 1057.75L266.027 1057.04C266.148 1057.08 266.273 1057.13 266.394 1057.17C269.466 1058.27 272.372 1059.88 274.963 1061.9C275.18 1062.06 275.396 1062.24 275.608 1062.41C275.882 1062.63 276.152 1062.87 276.416 1063.1C276.611 1063.27 276.807 1063.45 276.997 1063.62C277.296 1063.9 277.586 1064.18 277.871 1064.46C278.006 1064.6 278.138 1064.73 278.268 1064.87C278.59 1065.2 278.902 1065.54 279.208 1065.89C281.847 1068.89 283.913 1072.39 285.236 1076.14C285.26 1076.21 285.281 1076.27 285.302 1076.33L285.305 1076.33Z" fill="#030303"/>
<path d="M248.498 1080.04C248.498 1081.71 248.303 1083.38 247.917 1084.99C247.869 1085.12 247.518 1085.95 247.045 1085.85C246.615 1085.76 246.652 1084.93 246.665 1084.73C247.003 1083.27 247.183 1081.75 247.183 1080.19C247.183 1071.54 241.672 1064.16 233.991 1061.39C234.133 1060.93 234.276 1060.48 234.416 1060.03C242.613 1062.96 248.498 1070.82 248.498 1080.04Z" fill="#CE6326"/>
<path d="M232.295 1059.4C232.15 1059.87 232.01 1060.32 231.872 1060.76C230.398 1060.41 228.856 1060.22 227.276 1060.22C221.98 1060.22 217.159 1062.31 213.59 1065.7L213.577 1065.66C212.803 1065.92 212.011 1065.98 211.902 1065.84C211.789 1065.69 212.114 1065.28 212.317 1065.11L212.341 1065.08C216.343 1061.04 221.671 1058.82 227.347 1058.82C229.051 1058.82 230.707 1059.02 232.292 1059.4H232.295Z" fill="#CE6326"/>
<path d="M237.916 1046.31C237.903 1046.39 237.876 1046.52 237.816 1046.71C237.718 1047.04 235.964 1052.61 233.927 1059.07C233.851 1059.31 233.777 1059.55 233.7 1059.8C233.558 1060.24 233.418 1060.69 233.275 1061.14C233.198 1061.38 233.122 1061.62 233.048 1061.87C232.873 1062.41 232.702 1062.97 232.527 1063.51C232.39 1063.95 232.255 1064.38 232.118 1064.81C230.396 1070.28 228.75 1075.5 227.96 1078.01C227.759 1077.95 227.545 1077.91 227.321 1077.91C227.905 1076 229.558 1070.69 231.455 1064.62C231.59 1064.19 231.724 1063.76 231.862 1063.32C232.031 1062.77 232.202 1062.22 232.377 1061.67C232.453 1061.43 232.527 1061.19 232.601 1060.94C232.744 1060.5 232.884 1060.04 233.024 1059.59C233.101 1059.35 233.174 1059.11 233.251 1058.87C234.675 1054.31 236.093 1049.77 237.195 1046.25L237.205 1046.21C237.213 1046.18 237.24 1046.12 237.264 1046.11C237.282 1046.1 237.34 1046.09 237.451 1046.13L237.913 1046.31L237.916 1046.31Z" fill="#CE6326"/>
<path d="M260.906 1071.16L260.695 1072.09L236.367 1053.85C236.438 1053.62 236.509 1053.4 236.575 1053.18L260.906 1071.16Z" fill="#CE6326"/>
<path d="M238.537 1046.93C238.476 1047.14 237.797 1049.29 236.815 1052.42C236.735 1052.67 236.656 1052.92 236.574 1053.18C236.506 1053.4 236.437 1053.62 236.366 1053.85C236.286 1054.1 236.207 1054.36 236.125 1054.61C235.663 1056.07 235.164 1057.66 234.643 1059.32C234.567 1059.55 234.493 1059.8 234.416 1060.04C234.276 1060.48 234.134 1060.94 233.991 1061.39C233.914 1061.63 233.838 1061.87 233.764 1062.11C233.589 1062.66 233.418 1063.21 233.243 1063.76C233.106 1064.19 232.971 1064.62 232.834 1065.06C231.378 1069.68 229.981 1074.12 229.101 1076.9C228.927 1077.46 228.771 1077.95 228.642 1078.36C228.589 1078.53 228.541 1078.68 228.497 1078.82C228.333 1079.34 228.225 1079.68 228.19 1079.8L227.622 1079.62L227.472 1079.57C227.477 1079.56 227.501 1079.48 227.54 1079.35C227.577 1079.23 227.633 1079.06 227.699 1078.85C227.736 1078.73 227.778 1078.6 227.823 1078.45C227.865 1078.32 227.913 1078.17 227.96 1078.02C228.75 1075.51 230.396 1070.29 232.118 1064.82C232.255 1064.39 232.39 1063.95 232.528 1063.52C232.702 1062.97 232.874 1062.42 233.048 1061.87C233.125 1061.63 233.198 1061.39 233.275 1061.15C233.418 1060.7 233.558 1060.25 233.7 1059.8C233.777 1059.56 233.851 1059.32 233.928 1059.08C235.964 1052.62 237.718 1047.05 237.816 1046.72C237.874 1046.52 237.903 1046.39 237.916 1046.31L237.454 1046.14C237.343 1046.09 237.285 1046.1 237.266 1046.11C237.24 1046.12 237.216 1046.18 237.208 1046.21L237.198 1046.26C236.096 1049.77 234.678 1054.31 233.254 1058.88C233.177 1059.12 233.103 1059.36 233.027 1059.6C232.887 1060.05 232.747 1060.5 232.604 1060.95C232.53 1061.19 232.456 1061.43 232.38 1061.67C232.205 1062.22 232.034 1062.78 231.865 1063.32C231.727 1063.76 231.592 1064.19 231.458 1064.62C229.561 1070.7 227.908 1076.01 227.324 1077.91C227.281 1078.05 227.245 1078.17 227.213 1078.28C227.147 1078.49 227.11 1078.62 227.099 1078.65L226.774 1078.57H226.354C226.354 1078.56 226.354 1078.54 226.428 1078.29C226.447 1078.23 226.471 1078.15 226.5 1078.05C226.568 1077.82 226.669 1077.48 226.822 1077C227.337 1075.32 228.425 1071.81 230.726 1064.44C230.858 1064.02 230.993 1063.59 231.133 1063.14C231.299 1062.61 231.471 1062.05 231.648 1061.48C231.725 1061.24 231.798 1061 231.875 1060.76C232.012 1060.32 232.155 1059.87 232.298 1059.4C232.372 1059.16 232.446 1058.93 232.525 1058.68C233.632 1055.14 234.937 1050.97 236.477 1046.04C236.503 1045.94 236.598 1045.62 236.897 1045.45C236.992 1045.39 237.126 1045.34 237.306 1045.34C237.428 1045.34 237.568 1045.37 237.726 1045.42L237.752 1045.43L238.294 1045.64L238.349 1045.65C238.437 1045.68 238.513 1045.73 238.574 1045.8C238.611 1045.85 238.637 1045.9 238.656 1045.96C238.725 1046.16 238.688 1046.46 238.548 1046.92L238.537 1046.93Z" fill="#030303"/>
<path d="M244.377 1039.61C243.672 1039.75 241.466 1040.34 239.989 1042.43C238.975 1043.87 238.434 1044.97 238.156 1045.64L237.615 1045.44C237.8 1044.83 238.333 1043.24 238.959 1042.54C239.028 1042.46 239.062 1042.36 239.052 1042.26C239.041 1042.15 238.988 1042.06 238.904 1041.99C238.592 1041.76 237.554 1040.95 237.345 1040.35C237.306 1040.23 237.255 1040.1 237.203 1039.97C236.891 1039.19 236.54 1038.3 237.329 1037.24C238.006 1036.33 238.603 1035.69 238.898 1035.39C238.927 1035.36 238.962 1035.35 238.98 1035.35C238.999 1035.35 239.031 1035.36 239.06 1035.39L239.398 1035.77C239.411 1035.79 239.414 1035.8 239.414 1035.82C239.414 1035.83 239.408 1035.84 239.39 1035.86C238.896 1036.28 237.559 1037.7 237.62 1038.52C237.686 1039.42 237.855 1040.32 239.168 1041.26C239.416 1041.43 239.754 1041.39 239.958 1041.17C240.391 1040.68 241.683 1039.5 244.324 1039.04L244.366 1039.61H244.377Z" fill="#4F4F4F"/>
<path d="M244.832 1039.62C244.848 1039.83 244.706 1040.01 244.502 1040.05C244.494 1040.05 244.489 1040.05 244.484 1040.06C243.842 1040.18 241.755 1040.72 240.363 1042.69C239.293 1044.21 238.765 1045.34 238.522 1045.96C238.387 1046.3 238.342 1046.49 238.34 1046.49L237.901 1046.39C237.906 1046.36 237.97 1046.11 238.163 1045.64C238.437 1044.97 238.982 1043.87 239.996 1042.43C241.472 1040.34 243.678 1039.75 244.383 1039.61L244.341 1039.04C241.7 1039.5 240.408 1040.68 239.975 1041.16C239.771 1041.39 239.431 1041.43 239.185 1041.25C237.872 1040.31 237.703 1039.42 237.637 1038.51C237.579 1037.7 238.915 1036.28 239.407 1035.86C239.425 1035.84 239.428 1035.82 239.431 1035.81C239.431 1035.8 239.431 1035.79 239.415 1035.77L239.077 1035.39C239.048 1035.35 239.016 1035.35 238.997 1035.35C238.979 1035.35 238.945 1035.35 238.915 1035.38C238.62 1035.69 238.02 1036.32 237.346 1037.23C236.557 1038.3 236.908 1039.18 237.22 1039.97C237.27 1040.1 237.32 1040.23 237.362 1040.34C237.571 1040.95 238.609 1041.76 238.921 1041.99C239.005 1042.05 239.058 1042.15 239.069 1042.25C239.079 1042.36 239.045 1042.46 238.976 1042.54C238.35 1043.24 237.817 1044.83 237.632 1045.43C237.587 1045.58 237.563 1045.67 237.56 1045.67L237.125 1045.55C237.13 1045.54 237.148 1045.46 237.185 1045.34C237.362 1044.76 237.899 1043.12 238.58 1042.3C238.112 1041.95 237.167 1041.17 236.937 1040.49C236.897 1040.38 236.85 1040.26 236.802 1040.14C236.483 1039.34 236.047 1038.23 236.99 1036.97C237.682 1036.04 238.295 1035.38 238.599 1035.07C238.709 1034.96 238.86 1034.89 239.013 1034.9C239.024 1034.9 239.037 1034.9 239.048 1034.9C239.19 1034.91 239.325 1034.98 239.42 1035.09L239.497 1035.18L239.758 1035.47C239.787 1035.51 239.814 1035.55 239.835 1035.59C239.874 1035.67 239.895 1035.76 239.888 1035.85C239.882 1035.94 239.853 1036.02 239.808 1036.09C239.782 1036.14 239.748 1036.17 239.708 1036.21C239.034 1036.79 238.06 1038 238.097 1038.48C238.157 1039.34 238.297 1040.06 239.457 1040.89C239.515 1040.93 239.6 1040.93 239.647 1040.87C240.115 1040.34 241.502 1039.07 244.299 1038.59C244.302 1038.59 244.304 1038.59 244.304 1038.59C244.312 1038.59 244.323 1038.59 244.331 1038.59C244.442 1038.57 244.555 1038.6 244.645 1038.67C244.722 1038.73 244.772 1038.81 244.79 1038.9C244.793 1038.92 244.796 1038.94 244.798 1038.96L244.846 1039.59V1039.62L244.832 1039.62Z" fill="#030303"/>
<path d="M244.898 1033.33C244.478 1033.56 240.807 1035.16 239.821 1035.59C239.803 1035.55 239.777 1035.51 239.745 1035.47L239.483 1035.17L244.304 1032.54C244.412 1032.5 244.714 1032.41 244.89 1032.48C244.949 1032.51 244.983 1032.55 245.009 1032.61L245.015 1032.63C245.15 1032.97 245.112 1033.21 244.898 1033.32V1033.33Z" fill="#4F4F4F"/>
<path d="M245.114 1033.72C244.628 1033.99 240.269 1035.88 239.791 1036.09C239.775 1036.1 239.762 1036.1 239.754 1036.11L239.574 1035.69C239.574 1035.69 239.667 1035.65 239.817 1035.59C240.803 1035.16 244.474 1033.56 244.894 1033.33C245.109 1033.21 245.148 1032.98 245.011 1032.63L245.005 1032.61C244.979 1032.55 244.945 1032.51 244.887 1032.48C244.71 1032.41 244.406 1032.5 244.3 1032.54L239.479 1035.18L239.191 1035.33L238.975 1034.93L239.03 1034.9L244.115 1032.13C244.171 1032.1 244.67 1031.9 245.061 1032.07C245.23 1032.14 245.357 1032.27 245.425 1032.44L245.433 1032.46C245.634 1032.98 245.779 1033.35 245.111 1033.72L245.114 1033.72Z" fill="#030303"/>
<path d="M251.293 1038.62C251.274 1039.18 251.264 1039.19 251.005 1039.25C250.749 1039.3 247.307 1039.47 244.829 1039.59L244.781 1038.95C244.781 1038.94 244.776 1038.92 244.774 1038.9C245.439 1038.7 247.204 1038.28 250.823 1038.2H250.841C250.902 1038.19 251.089 1038.2 251.192 1038.3C251.264 1038.37 251.295 1038.48 251.293 1038.63V1038.62Z" fill="#4F4F4F"/>
<path d="M251.745 1038.64C251.719 1039.43 251.589 1039.57 251.119 1039.69C250.773 1039.77 245.559 1040.01 244.484 1040.05H244.47L244.452 1039.6C244.576 1039.6 244.7 1039.59 244.83 1039.58C247.305 1039.47 250.749 1039.3 251.006 1039.25C251.264 1039.19 251.275 1039.18 251.294 1038.62C251.299 1038.47 251.264 1038.36 251.193 1038.3C251.087 1038.2 250.903 1038.19 250.842 1038.2H250.823C247.204 1038.28 245.44 1038.69 244.774 1038.9C244.552 1038.97 244.452 1039.01 244.449 1039.01L244.254 1038.6C244.254 1038.6 244.267 1038.6 244.283 1038.59C244.286 1038.59 244.288 1038.59 244.288 1038.59C244.544 1038.48 246.193 1037.86 250.802 1037.75C250.881 1037.74 251.238 1037.72 251.5 1037.97C251.618 1038.08 251.758 1038.28 251.745 1038.64Z" fill="#030303"/>
<path d="M223.023 1064.5L227.793 1080.09L227.2 1080.27L222.43 1064.68L223.023 1064.5Z" fill="#030303"/>
<path d="M226.398 1080.53L226.873 1080.93L216.971 1092.72L216.497 1092.32L226.398 1080.53Z" fill="#030303"/>
<path d="M242.115 1072.71L242.406 1073.26L229.332 1080.22L229.041 1079.67L242.115 1072.71Z" fill="#030303"/>
<path d="M229.028 1080.61L243.904 1083.24L243.797 1083.85L228.921 1081.22L229.028 1080.61Z" fill="#030303"/>
<path d="M228.045 1080.87L242.021 1087.22L241.765 1087.79L227.789 1081.44L228.045 1080.87Z" fill="#030303"/>
<path d="M227.797 1080.11L231.676 1095.82L231.073 1095.97L227.195 1080.26L227.797 1080.11Z" fill="#030303"/>
<path d="M211.96 1073.52L225.83 1079.56L225.583 1080.13L211.712 1074.09L211.96 1073.52Z" fill="#030303"/>
<path d="M283.863 1063.72L287.506 1078.75L286.903 1078.9L283.259 1063.87L283.863 1063.72Z" fill="#030303"/>
<path d="M298.298 1067.19L298.764 1067.6L288.792 1078.95L288.327 1078.53L298.298 1067.19Z" fill="#030303"/>
<path d="M302.848 1074.36L303.061 1074.94L288.974 1080.1L288.761 1079.52L302.848 1074.36Z" fill="#030303"/>
<path d="M288.646 1081.07L302.004 1088.15L301.714 1088.7L288.356 1081.62L288.646 1081.07Z" fill="#030303"/>
<path d="M288.179 1081.97L290.896 1096.28L290.286 1096.4L287.568 1082.09L288.179 1081.97Z" fill="#030303"/>
<path d="M286.741 1081.74L287.232 1082.12L278.2 1093.86L277.709 1093.48L286.741 1081.74Z" fill="#030303"/>
<path d="M286.096 1081.31L286.48 1081.79L274.785 1091.06L274.4 1090.57L286.096 1081.31Z" fill="#030303"/>
<path d="M227.399 1079.88L227.594 1080.48L211.813 1085.7L211.618 1085.11L227.399 1079.88Z" fill="#030303"/>
<path d="M329 556V1067.5C329 1085.73 314.225 1100.5 296 1100.5H34C15.7746 1100.5 1 1115.27 1 1133.5V1470.5C1 1488.73 15.7746 1503.5 34 1503.5H251" stroke="#030303" stroke-width="2" stroke-linecap="round"/>
<path d="M59.2704 1642.31C66.1539 1642.31 71.7341 1636.7 71.7341 1629.78C71.7341 1622.86 66.1539 1617.25 59.2704 1617.25C52.3869 1617.25 46.8066 1622.86 46.8066 1629.78C46.8066 1636.7 52.3869 1642.31 59.2704 1642.31Z" fill="#CE6326"/>
<path d="M59.2697 1642.56C52.2581 1642.56 46.5547 1636.83 46.5547 1629.78C46.5547 1622.73 52.2581 1617 59.2697 1617C66.2813 1617 71.9848 1622.73 71.9848 1629.78C71.9848 1636.83 66.2813 1642.56 59.2697 1642.56ZM59.2697 1617.5C52.5344 1617.5 47.0573 1623.01 47.0573 1629.78C47.0573 1636.55 52.5361 1642.05 59.2697 1642.05C66.0034 1642.05 71.4822 1636.55 71.4822 1629.78C71.4822 1623.01 66.0034 1617.5 59.2697 1617.5Z" fill="#030303"/>
<path d="M59.2696 1630.3C59.2113 1630.3 59.1548 1630.28 59.1065 1630.24L53.9523 1625.84C53.8474 1625.75 53.8324 1625.59 53.9223 1625.48C54.0155 1625.38 54.1703 1625.37 54.2768 1625.45L59.431 1629.85C59.5359 1629.94 59.5509 1630.1 59.461 1630.21C59.4111 1630.27 59.3412 1630.3 59.2696 1630.3Z" fill="#030303"/>
<path d="M59.2805 1634.53C59.2223 1634.53 59.1657 1634.51 59.1191 1634.47C59.0126 1634.38 58.9993 1634.23 59.0875 1634.12L64.8958 1627.18C64.9857 1627.08 65.1471 1627.06 65.2486 1627.15C65.3551 1627.24 65.3684 1627.4 65.2802 1627.5L59.4719 1634.44C59.4237 1634.5 59.3521 1634.53 59.2805 1634.53Z" fill="#030303"/>
<path d="M59.1654 1637.33C59.1138 1637.33 59.0606 1637.32 59.0156 1637.28L55.246 1634.46C55.1345 1634.38 55.1112 1634.22 55.1944 1634.11C55.2776 1634 55.4358 1633.97 55.5456 1634.06L59.3152 1636.88C59.4267 1636.96 59.45 1637.12 59.3668 1637.23C59.3185 1637.3 59.2419 1637.33 59.1654 1637.33V1637.33Z" fill="#030303"/>
<path d="M59.271 1696.32C59.1328 1696.32 59.0195 1696.2 59.0195 1696.06V1622.51C59.0195 1622.37 59.1311 1622.25 59.271 1622.25C59.4109 1622.25 59.5225 1622.37 59.5225 1622.51V1696.06C59.5225 1696.2 59.4109 1696.32 59.271 1696.32Z" fill="#030303"/>
<path d="M83.8575 1644.47C83.7992 1644.47 83.7427 1644.45 83.6944 1644.41L78.5401 1640.02C78.4353 1639.93 78.4203 1639.76 78.5102 1639.66C78.6017 1639.55 78.7598 1639.54 78.8647 1639.63L84.0189 1644.03C84.1238 1644.12 84.1388 1644.28 84.0489 1644.38C83.999 1644.44 83.9291 1644.47 83.8575 1644.47Z" fill="#030303"/>
<path d="M83.8665 1648.71C83.8082 1648.71 83.7516 1648.69 83.705 1648.65C83.5985 1648.56 83.5852 1648.4 83.6734 1648.3L89.4817 1641.36C89.5716 1641.25 89.7314 1641.24 89.8346 1641.33C89.9411 1641.42 89.9544 1641.58 89.8662 1641.68L84.0579 1648.62C84.0096 1648.68 83.938 1648.71 83.8665 1648.71Z" fill="#030303"/>
<path d="M83.751 1651.51C83.6994 1651.51 83.6462 1651.49 83.6013 1651.46L79.83 1648.64C79.7185 1648.55 79.6952 1648.4 79.7784 1648.29C79.8616 1648.17 80.0198 1648.15 80.1296 1648.23L83.9008 1651.05C84.0123 1651.14 84.0356 1651.3 83.9524 1651.41C83.9042 1651.47 83.8276 1651.51 83.751 1651.51V1651.51Z" fill="#030303"/>
<path d="M83.8569 1696.48C83.7187 1696.48 83.6055 1696.37 83.6055 1696.23V1639.04C83.6055 1638.9 83.717 1638.79 83.8569 1638.79C83.9968 1638.79 84.1084 1638.9 84.1084 1639.04V1696.23C84.1084 1696.37 83.9968 1696.48 83.8569 1696.48Z" fill="#030303"/>
<path d="M93.2306 1645.72C92.4701 1644.43 91.608 1642.95 91.5514 1640.67C91.5214 1639.47 91.7228 1638.53 91.8959 1637.71C92.1838 1636.41 92.4118 1635.3 91.7528 1633.73C91.1203 1632.2 90.0435 1631.26 89.5409 1630.8C87.6886 1629.18 85.6648 1628.4 83.5246 1628.45C82.8788 1628.46 79.5753 1628.66 77.4367 1631.32C76.2883 1632.72 75.9571 1634.19 75.8573 1634.74C75.4695 1636.46 75.7857 1637.51 76.1153 1638.63C76.3449 1639.41 76.5746 1640.22 76.6312 1641.33C76.7177 1643.47 75.9987 1644.85 75.3097 1646.18C74.5625 1647.62 73.8585 1648.99 74.3478 1651.11C74.7073 1652.69 75.4246 1653.99 76.4881 1654.98C78.3986 1656.76 80.8102 1656.92 82.8772 1656.92H83.6228C83.7809 1656.92 83.9257 1656.92 84.0821 1656.9C86.1076 1656.86 89.1365 1656.67 91.6629 1654.39C92.2803 1653.83 93.7449 1652.53 94.2758 1650.42C94.8067 1648.44 94.0311 1647.12 93.2273 1645.72L93.2306 1645.72ZM93.8348 1650.29C93.3172 1652.27 91.9391 1653.51 91.35 1654.05C88.9518 1656.21 86.0526 1656.4 84.0838 1656.43C83.9257 1656.44 83.7826 1656.44 83.6245 1656.44H83.5679C81.3427 1656.47 78.7997 1656.49 76.8192 1654.64C75.829 1653.7 75.14 1652.49 74.8088 1651.02C74.3494 1649.07 74.9819 1647.83 75.7275 1646.4C76.4181 1645.07 77.192 1643.59 77.0922 1641.31C77.0489 1640.14 76.7909 1639.27 76.5613 1638.51C76.2451 1637.4 75.9588 1636.44 76.3166 1634.84C76.4181 1634.31 76.7194 1632.94 77.7962 1631.62C79.8199 1629.13 82.9221 1628.94 83.5396 1628.93H83.6977C85.6648 1628.93 87.5305 1629.68 89.2264 1631.16C89.7007 1631.59 90.7192 1632.49 91.3234 1633.92C91.9258 1635.35 91.7111 1636.34 91.4382 1637.61C91.2651 1638.41 91.0937 1639.32 91.0937 1640.44V1640.69C91.152 1643.1 92.0274 1644.61 92.8162 1645.97C93.6201 1647.34 94.2941 1648.52 93.8364 1650.3L93.8348 1650.29Z" fill="#030303"/>
<path d="M135.13 1667.75C127.731 1667.75 121.711 1661.7 121.711 1654.26C121.711 1646.82 127.731 1640.77 135.13 1640.77C142.529 1640.77 148.551 1646.82 148.551 1654.26C148.551 1661.7 142.531 1667.75 135.13 1667.75ZM135.13 1641.31C128.022 1641.31 122.24 1647.12 122.24 1654.26C122.24 1661.4 128.022 1667.22 135.13 1667.22C142.238 1667.22 148.021 1661.4 148.021 1654.26C148.021 1647.12 142.238 1641.31 135.13 1641.31Z" fill="#030303"/>
<path d="M135.13 1654.81C135.07 1654.81 135.008 1654.79 134.959 1654.74L129.518 1650.1C129.407 1650.01 129.392 1649.84 129.486 1649.73C129.585 1649.61 129.748 1649.6 129.861 1649.69L135.301 1654.34C135.413 1654.43 135.428 1654.6 135.333 1654.71C135.28 1654.77 135.206 1654.81 135.13 1654.81Z" fill="#030303"/>
<path d="M135.142 1659.28C135.082 1659.28 135.02 1659.26 134.972 1659.22C134.859 1659.12 134.845 1658.95 134.939 1658.84L141.07 1651.52C141.165 1651.41 141.334 1651.39 141.443 1651.49C141.556 1651.58 141.569 1651.75 141.476 1651.86L135.345 1659.18C135.293 1659.25 135.218 1659.28 135.142 1659.28Z" fill="#030303"/>
<path d="M135.023 1662.23C134.968 1662.23 134.912 1662.21 134.865 1662.18L130.886 1659.2C130.769 1659.12 130.744 1658.95 130.831 1658.83C130.917 1658.71 131.086 1658.69 131.202 1658.77L135.181 1661.75C135.298 1661.84 135.323 1662.01 135.236 1662.12C135.185 1662.19 135.105 1662.23 135.023 1662.23Z" fill="#030303"/>
<path d="M134.865 1696.15V1646.58C134.865 1646.44 134.983 1646.32 135.13 1646.32C135.277 1646.32 135.395 1646.44 135.395 1646.58V1696.15" fill="#030303"/>
<path d="M118.002 1641.12C117.208 1639.78 116.308 1638.23 116.248 1635.85C116.218 1634.6 116.427 1633.62 116.607 1632.76C116.907 1631.41 117.146 1630.25 116.457 1628.61C115.798 1627.01 114.675 1626.03 114.151 1625.55C112.219 1623.86 110.107 1623.05 107.873 1623.1C107.199 1623.11 103.752 1623.32 101.521 1626.09C100.322 1627.55 99.9761 1629.09 99.8729 1629.66C99.4685 1631.45 99.7981 1632.55 100.143 1633.73C100.382 1634.54 100.622 1635.38 100.682 1636.55C100.772 1638.77 100.023 1640.22 99.3038 1641.61C98.5249 1643.11 97.7893 1644.54 98.3002 1646.76C98.6747 1648.4 99.4236 1649.75 100.532 1650.79C102.524 1652.64 105.042 1652.81 107.199 1652.81H108.218C108.293 1652.81 108.382 1652.79 108.457 1652.79C110.569 1652.75 113.731 1652.55 116.368 1650.17C117.012 1649.59 118.541 1648.23 119.095 1646.03C119.65 1643.97 118.841 1642.58 118.002 1641.12V1641.12ZM118.633 1645.9C118.093 1647.96 116.655 1649.25 116.041 1649.81C113.54 1652.07 110.513 1652.27 108.461 1652.3C108.386 1652.31 108.296 1652.31 108.221 1652.31H107.921C105.598 1652.34 102.947 1652.36 100.88 1650.43C99.8463 1649.45 99.1274 1648.19 98.7829 1646.65C98.3035 1644.62 98.9626 1643.32 99.7415 1641.83C100.46 1640.44 101.269 1638.89 101.164 1636.51C101.119 1635.29 100.85 1634.39 100.61 1633.59C100.281 1632.43 99.9811 1631.44 100.356 1629.77C100.46 1629.21 100.775 1627.78 101.9 1626.41C104.012 1623.8 107.249 1623.61 107.893 1623.59H108.058C110.11 1623.59 112.059 1624.38 113.826 1625.93C114.321 1626.38 115.384 1627.31 116.013 1628.8C116.642 1630.29 116.417 1631.33 116.133 1632.66C115.953 1633.49 115.773 1634.43 115.773 1635.61V1635.87C115.833 1638.38 116.747 1639.96 117.573 1641.38C118.411 1642.81 119.115 1644.04 118.636 1645.9H118.633Z" fill="#030303"/>
<path d="M118.633 1645.9C118.094 1647.96 116.656 1649.25 116.042 1649.81C113.541 1652.07 110.513 1652.26 108.461 1652.29C108.386 1652.31 108.297 1652.31 108.222 1652.31H107.922C105.599 1652.34 102.948 1652.36 100.881 1650.43C99.8471 1649.45 99.1281 1648.19 98.7836 1646.65C98.3043 1644.62 98.9634 1643.32 99.7423 1641.83C100.461 1640.44 101.27 1638.89 101.165 1636.51C101.12 1635.29 100.851 1634.39 100.611 1633.59C100.281 1632.43 99.9819 1631.44 100.356 1629.77C100.461 1629.21 100.776 1627.78 101.901 1626.41C104.013 1623.8 107.25 1623.61 107.894 1623.59H108.059C110.111 1623.59 112.06 1624.37 113.827 1625.93C114.321 1626.38 115.385 1627.31 116.014 1628.8C116.643 1630.29 116.418 1631.33 116.134 1632.66C115.954 1633.49 115.774 1634.43 115.774 1635.61V1635.87C115.834 1638.38 116.748 1639.96 117.573 1641.38C118.412 1642.81 119.116 1644.04 118.637 1645.9H118.633Z" fill="#CE6326"/>
<path d="M108.221 1639.81C108.161 1639.81 108.101 1639.79 108.051 1639.75L102.671 1635.16C102.561 1635.07 102.546 1634.9 102.641 1634.79C102.737 1634.68 102.9 1634.67 103.01 1634.76L108.391 1639.35C108.501 1639.45 108.516 1639.61 108.421 1639.72C108.368 1639.78 108.294 1639.81 108.221 1639.81Z" fill="#030303"/>
<path d="M108.229 1644.23C108.169 1644.23 108.109 1644.21 108.061 1644.17C107.949 1644.08 107.934 1643.91 108.029 1643.8L114.091 1636.56C114.184 1636.45 114.352 1636.44 114.46 1636.53C114.572 1636.62 114.587 1636.79 114.492 1636.9L108.43 1644.14C108.379 1644.2 108.304 1644.23 108.231 1644.23H108.229Z" fill="#030303"/>
<path d="M108.11 1647.16C108.055 1647.16 108 1647.14 107.954 1647.1L104.019 1644.16C103.905 1644.07 103.88 1643.91 103.964 1643.79C104.051 1643.68 104.216 1643.65 104.332 1643.74L108.267 1646.68C108.381 1646.77 108.406 1646.93 108.322 1647.05C108.27 1647.12 108.192 1647.15 108.11 1647.15V1647.16Z" fill="#030303"/>
<path d="M107.959 1695.89V1631.59C107.959 1631.45 108.076 1631.33 108.22 1631.33C108.365 1631.33 108.482 1631.45 108.482 1631.59V1695.9" fill="#030303"/>
<path d="M37.2475 1667.9C31.0032 1667.9 25.9238 1662.8 25.9238 1656.52C25.9238 1650.24 31.0032 1645.14 37.2475 1645.14C43.4919 1645.14 48.5713 1650.24 48.5713 1656.52C48.5713 1662.8 43.4919 1667.9 37.2475 1667.9ZM37.2475 1645.59C31.2495 1645.59 26.3715 1650.49 26.3715 1656.52C26.3715 1662.55 31.2512 1667.45 37.2475 1667.45C43.2439 1667.45 48.1236 1662.55 48.1236 1656.52C48.1236 1650.49 43.2439 1645.59 37.2475 1645.59Z" fill="#030303"/>
<path d="M37.2475 1656.98C37.1959 1656.98 37.1443 1656.96 37.1027 1656.93L32.5127 1653.01C32.4195 1652.93 32.4062 1652.78 32.486 1652.69C32.5693 1652.6 32.7074 1652.59 32.8023 1652.66L37.3923 1656.58C37.4855 1656.66 37.4988 1656.81 37.419 1656.9C37.374 1656.95 37.3108 1656.98 37.2475 1656.98V1656.98Z" fill="#030303"/>
<path d="M37.2569 1660.75C37.2053 1660.75 37.1537 1660.74 37.1138 1660.7C37.0189 1660.62 37.0056 1660.48 37.0855 1660.38L42.2581 1654.21C42.338 1654.11 42.4811 1654.1 42.5726 1654.18C42.6675 1654.26 42.6808 1654.4 42.6009 1654.49L37.4284 1660.67C37.3851 1660.73 37.3202 1660.75 37.2569 1660.75V1660.75Z" fill="#030303"/>
<path d="M37.1543 1663.25C37.1077 1663.25 37.0611 1663.23 37.0212 1663.2L33.6643 1660.69C33.5661 1660.62 33.5445 1660.48 33.6177 1660.38C33.691 1660.28 33.8324 1660.26 33.9306 1660.33L37.2874 1662.84C37.3856 1662.92 37.4073 1663.06 37.3341 1663.16C37.2908 1663.21 37.2225 1663.25 37.1543 1663.25Z" fill="#030303"/>
<path d="M36.9844 1695.9V1650.52C36.9844 1650.39 37.1026 1650.29 37.2492 1650.29C37.3957 1650.29 37.5123 1650.4 37.5123 1650.52L37.4673 1695.9" fill="#030303"/>
<path d="M1 1228V1470C1 1488.23 15.7746 1503 34 1503H296C314.225 1503 329 1517.77 329 1536V1663C329 1681.23 314.225 1696 296 1696H34C15.7746 1696 1 1710.77 1 1729V1839.5" stroke="#030303" stroke-width="2" stroke-linecap="round"/>
<path d="M200.443 1479.01C201.119 1469.94 206.657 1462.01 214.903 1458.23C214.974 1458.2 215.042 1458.16 215.112 1458.13C218.307 1456.72 221.692 1456 225.18 1456H268.142C276.422 1456 283.141 1462.74 283.141 1471.03V1490.17C283.141 1492.72 281.074 1494.77 278.559 1494.77H204.959C202.459 1494.77 200.393 1492.72 200.393 1490.17V1480.89C200.393 1480.26 200.393 1479.64 200.445 1479.01L200.443 1479.01ZM200.999 1490.18C200.999 1492.37 202.786 1494.17 204.956 1494.17H278.556C280.727 1494.17 282.532 1492.37 282.532 1490.18V1471.03C282.532 1463.07 276.075 1456.61 268.142 1456.61H225.18C224.294 1456.61 223.393 1456.67 222.523 1456.75C222.314 1456.79 222.089 1456.8 221.914 1456.84C219.71 1457.13 217.576 1457.73 215.509 1458.63C215.439 1458.65 215.405 1458.67 215.371 1458.68C215.196 1458.75 215.042 1458.84 214.885 1458.93C207.075 1462.62 201.814 1470.16 201.085 1478.8C201.085 1478.89 201.051 1478.96 201.051 1479.04V1479.5C201.017 1479.97 200.999 1480.44 200.999 1480.89V1490.18Z" fill="#030303"/>
<path d="M200.991 1480.89V1490.18C200.991 1492.37 202.778 1494.17 204.964 1494.17H216.646C216.836 1489.78 220.449 1486.29 224.858 1486.29C229.268 1486.29 232.878 1489.78 233.068 1494.17H253.116C253.307 1489.78 256.917 1486.29 261.326 1486.29C265.736 1486.29 269.328 1489.78 269.518 1494.17H278.546C280.732 1494.17 282.521 1492.38 282.521 1490.18V1476.73H223.816C222.774 1476.73 221.907 1475.88 221.907 1474.82V1456.84C219.702 1457.14 217.568 1457.73 215.502 1458.63C215.415 1461.04 214.216 1473.34 201.041 1479.5C201.007 1479.97 200.988 1480.44 200.988 1480.89H200.991Z" fill="#CE6326"/>
<path d="M265.537 1456.31H266.146V1476.43H265.537V1456.31Z" fill="#030303"/>
<path d="M250.702 1456.38H251.309V1476.47H250.702V1456.38Z" fill="#030303"/>
<path d="M235.855 1456.24H236.461V1476.47H235.855V1456.24Z" fill="#030303"/>
<path d="M221.915 1456.31V1474.81C221.915 1475.87 222.782 1476.73 223.825 1476.73H282.93V1476.12H223.825C223.114 1476.12 222.524 1475.52 222.524 1474.81V1456.31H221.915Z" fill="#030303"/>
<path d="M227.28 1470.84C227.369 1470.84 227.455 1470.79 227.487 1470.69L230.07 1463.18C230.109 1463.06 230.049 1462.94 229.937 1462.9C229.822 1462.86 229.699 1462.92 229.66 1463.03L227.077 1470.55C227.037 1470.66 227.097 1470.79 227.21 1470.83C227.233 1470.84 227.257 1470.84 227.28 1470.84Z" fill="#030303"/>
<path d="M229.599 1471.19C229.688 1471.19 229.774 1471.14 229.806 1471.05L231.326 1466.55C231.365 1466.44 231.305 1466.32 231.19 1466.28C231.086 1466.24 230.955 1466.3 230.916 1466.41L229.396 1470.91C229.356 1471.02 229.416 1471.15 229.531 1471.18C229.552 1471.19 229.578 1471.2 229.602 1471.2L229.599 1471.19Z" fill="#030303"/>
<path d="M271.21 1471.68C271.288 1471.68 271.362 1471.64 271.401 1471.56L275.512 1463.88C275.567 1463.77 275.528 1463.64 275.424 1463.59C275.316 1463.53 275.186 1463.57 275.128 1463.68L271.017 1471.36C270.962 1471.47 271.001 1471.6 271.106 1471.65C271.14 1471.67 271.174 1471.68 271.21 1471.68V1471.68Z" fill="#030303"/>
<path d="M273.775 1470.71C273.853 1470.71 273.926 1470.67 273.965 1470.59L275.669 1467.4C275.723 1467.3 275.684 1467.17 275.58 1467.11C275.481 1467.06 275.345 1467.09 275.287 1467.2L273.584 1470.39C273.529 1470.49 273.568 1470.63 273.673 1470.68C273.704 1470.7 273.738 1470.71 273.775 1470.71Z" fill="#030303"/>
<path d="M253.101 1494.55C253.101 1494.62 253.101 1494.71 253.119 1494.78C253.224 1499.22 256.852 1502.81 261.329 1502.81C265.806 1502.81 269.419 1499.22 269.521 1494.78C269.539 1494.71 269.539 1494.62 269.539 1494.55C269.539 1494.41 269.539 1494.29 269.521 1494.17C269.33 1489.78 265.738 1486.29 261.329 1486.29C256.92 1486.29 253.31 1489.78 253.119 1494.17C253.101 1494.29 253.101 1494.41 253.101 1494.55Z" fill="#030303"/>
<path d="M261.306 1499.22C258.735 1499.22 256.651 1497.13 256.651 1494.55C256.651 1491.97 258.735 1489.88 261.306 1489.88C263.877 1489.88 265.961 1491.97 265.961 1494.55C265.961 1497.13 263.877 1499.22 261.306 1499.22Z" fill="#FCFCFC"/>
<path d="M216.631 1494.55C216.631 1494.62 216.631 1494.71 216.647 1494.78C216.751 1499.22 220.38 1502.81 224.86 1502.81C229.339 1502.81 232.965 1499.22 233.07 1494.78C233.088 1494.71 233.088 1494.62 233.088 1494.55C233.088 1494.41 233.088 1494.29 233.07 1494.17C232.879 1489.78 229.269 1486.29 224.86 1486.29C220.45 1486.29 216.84 1489.78 216.647 1494.17C216.631 1494.29 216.631 1494.41 216.631 1494.55Z" fill="#030303"/>
<path d="M224.742 1499.22C222.171 1499.22 220.087 1497.13 220.087 1494.55C220.087 1491.97 222.171 1489.88 224.742 1489.88C227.312 1489.88 229.396 1491.97 229.396 1494.55C229.396 1497.13 227.312 1499.22 224.742 1499.22Z" fill="#FCFCFC"/>
<path d="M200.643 1479.01L200.905 1479.57C200.957 1479.55 200.991 1479.52 201.043 1479.5C214.219 1473.34 215.415 1461.04 215.504 1458.63C215.52 1458.39 215.52 1458.25 215.52 1458.23H214.911C214.911 1458.29 214.911 1458.53 214.877 1458.93C214.686 1461.84 213.158 1472.99 201.093 1478.8C200.936 1478.87 200.797 1478.94 200.641 1479.01H200.643Z" fill="#030303"/>
</g>
</svg>
