<svg width="330" height="1903" viewBox="0 0 330 1903" fill="none" xmlns="http://www.w3.org/2000/svg">
<g opacity="0.7">
<path d="M250.27 351.717C257.538 351.717 263.429 345.796 263.429 338.492C263.429 331.188 257.538 325.267 250.27 325.267C243.003 325.267 237.111 331.188 237.111 338.492C237.111 345.796 243.003 351.717 250.27 351.717Z" fill="#CE6326"/>
<path d="M250.27 351.984C242.867 351.984 236.846 345.932 236.846 338.492C236.846 331.052 242.867 325 250.27 325C257.673 325 263.694 331.052 263.694 338.492C263.694 345.932 257.673 351.984 250.27 351.984ZM250.27 325.532C243.159 325.532 237.376 331.345 237.376 338.49C237.376 345.635 243.161 351.449 250.27 351.449C257.379 351.449 263.164 345.635 263.164 338.49C263.164 331.345 257.379 325.532 250.27 325.532Z" fill="#030303"/>
<path d="M250.27 339.038C250.209 339.038 250.149 339.016 250.098 338.976L244.656 334.333C244.546 334.238 244.53 334.068 244.625 333.957C244.723 333.844 244.887 333.833 244.999 333.925L250.441 338.568C250.552 338.663 250.567 338.833 250.472 338.944C250.42 339.006 250.346 339.038 250.27 339.038Z" fill="#030303"/>
<path d="M250.281 343.511C250.219 343.511 250.16 343.49 250.11 343.449C249.998 343.354 249.984 343.186 250.077 343.075L256.209 335.749C256.304 335.638 256.475 335.624 256.582 335.716C256.694 335.811 256.708 335.979 256.615 336.09L250.483 343.415C250.432 343.477 250.356 343.511 250.281 343.511Z" fill="#030303"/>
<path d="M250.159 346.465C250.105 346.465 250.049 346.449 250.001 346.413L246.021 343.436C245.904 343.348 245.879 343.18 245.967 343.063C246.055 342.947 246.222 342.92 246.337 343.008L250.317 345.986C250.435 346.074 250.46 346.242 250.372 346.359C250.321 346.429 250.24 346.466 250.159 346.466V346.465Z" fill="#030303"/>
<path d="M250.271 408.739C250.125 408.739 250.006 408.621 250.006 408.473V330.814C250.006 330.667 250.124 330.547 250.271 330.547C250.419 330.547 250.537 330.665 250.537 330.814V408.473C250.537 408.619 250.419 408.739 250.271 408.739Z" fill="#030303"/>
<path d="M274.946 354.005C274.885 354.005 274.825 353.984 274.774 353.943L269.332 349.299C269.222 349.204 269.206 349.034 269.301 348.923C269.397 348.812 269.564 348.797 269.675 348.891L275.117 353.536C275.227 353.631 275.243 353.8 275.148 353.912C275.096 353.973 275.022 354.005 274.946 354.005Z" fill="#030303"/>
<path d="M274.957 358.477C274.895 358.477 274.835 358.456 274.786 358.415C274.674 358.32 274.66 358.152 274.753 358.041L280.885 350.717C280.98 350.602 281.149 350.592 281.258 350.684C281.37 350.779 281.384 350.947 281.291 351.058L275.159 358.382C275.108 358.445 275.032 358.477 274.957 358.477Z" fill="#030303"/>
<path d="M274.835 361.433C274.78 361.433 274.724 361.417 274.677 361.382L270.695 358.404C270.577 358.316 270.553 358.148 270.641 358.032C270.728 357.913 270.895 357.888 271.011 357.977L274.993 360.954C275.111 361.043 275.135 361.21 275.047 361.327C274.996 361.397 274.916 361.435 274.835 361.435V361.433Z" fill="#030303"/>
<path d="M274.947 408.913C274.801 408.913 274.682 408.795 274.682 408.647V348.27C274.682 348.123 274.799 348.003 274.947 348.003C275.095 348.003 275.213 348.121 275.213 348.27V408.647C275.213 408.793 275.095 408.913 274.947 408.913Z" fill="#030303"/>
<path d="M284.844 355.321C284.041 353.965 283.131 352.397 283.071 349.988C283.039 348.723 283.252 347.733 283.435 346.864C283.739 345.493 283.979 344.319 283.283 342.659C282.616 341.045 281.479 340.054 280.948 339.567C278.993 337.861 276.856 337.038 274.596 337.084C273.915 337.1 270.427 337.312 268.169 340.116C266.956 341.594 266.607 343.148 266.501 343.727C266.092 345.541 266.426 346.652 266.774 347.84C267.016 348.663 267.259 349.516 267.318 350.689C267.41 352.944 266.651 354.406 265.923 355.809C265.134 357.333 264.391 358.779 264.908 361.018C265.287 362.678 266.044 364.05 267.167 365.101C269.184 366.975 271.73 367.143 273.913 367.143H274.7C274.867 367.143 275.02 367.143 275.185 367.127C277.323 367.081 280.521 366.883 283.189 364.476C283.84 363.883 285.387 362.51 285.947 360.285C286.508 358.198 285.689 356.796 284.84 355.318L284.844 355.321ZM285.482 360.151C284.935 362.238 283.48 363.549 282.858 364.112C280.326 366.397 277.265 366.595 275.187 366.627C275.02 366.643 274.869 366.643 274.702 366.643H274.642C272.293 366.673 269.608 366.689 267.517 364.739C266.471 363.748 265.744 362.468 265.394 360.916C264.909 358.858 265.577 357.548 266.364 356.04C267.093 354.638 267.911 353.07 267.805 350.662C267.759 349.428 267.487 348.515 267.245 347.706C266.911 346.534 266.609 345.527 266.986 343.837C267.093 343.274 267.412 341.826 268.548 340.439C270.685 337.803 273.96 337.605 274.612 337.591H274.779C276.856 337.591 278.826 338.384 280.616 339.952C281.117 340.409 282.192 341.354 282.83 342.862C283.466 344.37 283.24 345.421 282.951 346.763C282.769 347.602 282.588 348.561 282.588 349.749V350.009C282.649 352.554 283.573 354.154 284.406 355.586C285.255 357.034 285.967 358.283 285.483 360.156L285.482 360.151Z" fill="#030303"/>
<path d="M230.119 378.579C222.307 378.579 215.951 372.191 215.951 364.34C215.951 356.488 222.307 350.101 230.119 350.101C237.931 350.101 244.288 356.488 244.288 364.34C244.288 372.191 237.933 378.579 230.119 378.579ZM230.119 350.662C222.614 350.662 216.51 356.797 216.51 364.34C216.51 371.882 222.614 378.017 230.119 378.017C237.623 378.017 243.729 371.882 243.729 364.34C243.729 356.797 237.623 350.662 230.119 350.662Z" fill="#030303"/>
<path d="M230.118 364.916C230.055 364.916 229.99 364.895 229.937 364.851L224.193 359.95C224.075 359.849 224.06 359.671 224.16 359.553C224.263 359.434 224.436 359.422 224.555 359.519L230.299 364.42C230.417 364.52 230.433 364.699 230.333 364.817C230.276 364.882 230.199 364.916 230.118 364.916Z" fill="#030303"/>
<path d="M230.131 369.638C230.068 369.638 230.003 369.617 229.952 369.573C229.832 369.472 229.818 369.296 229.917 369.177L236.39 361.446C236.49 361.326 236.669 361.313 236.784 361.41C236.903 361.511 236.917 361.688 236.819 361.806L230.345 369.538C230.291 369.605 230.212 369.638 230.131 369.638Z" fill="#030303"/>
<path d="M230.004 372.754C229.946 372.754 229.886 372.736 229.837 372.699L225.636 369.558C225.513 369.466 225.487 369.287 225.578 369.164C225.669 369.04 225.847 369.014 225.97 369.106L230.171 372.247C230.294 372.339 230.32 372.517 230.229 372.641C230.175 372.715 230.09 372.754 230.004 372.754Z" fill="#030303"/>
<path d="M229.838 408.567V356.234C229.838 356.079 229.963 355.953 230.117 355.953C230.272 355.953 230.397 356.079 230.397 356.234V408.569" fill="#030303"/>
<path d="M214.872 350.469C214.034 349.055 213.083 347.416 213.02 344.905C212.988 343.586 213.21 342.553 213.4 341.645C213.716 340.214 213.969 338.991 213.241 337.256C212.546 335.572 211.36 334.539 210.806 334.028C208.766 332.248 206.536 331.39 204.178 331.437C203.467 331.453 199.828 331.676 197.471 334.602C196.206 336.144 195.841 337.767 195.732 338.371C195.305 340.262 195.653 341.424 196.016 342.664C196.27 343.522 196.523 344.412 196.586 345.638C196.681 347.99 195.89 349.518 195.131 350.98C194.309 352.569 193.532 354.081 194.071 356.417C194.467 358.15 195.257 359.582 196.428 360.679C198.531 362.634 201.189 362.808 203.467 362.808H204.542C204.621 362.808 204.716 362.792 204.795 362.792C207.025 362.745 210.363 362.538 213.147 360.027C213.827 359.407 215.441 357.977 216.026 355.654C216.612 353.477 215.758 352.013 214.872 350.471V350.469ZM215.538 355.51C214.969 357.687 213.451 359.056 212.802 359.644C210.161 362.028 206.965 362.234 204.799 362.266C204.719 362.282 204.625 362.282 204.545 362.282H204.229C201.776 362.314 198.977 362.33 196.795 360.295C195.704 359.262 194.945 357.927 194.581 356.304C194.075 354.159 194.771 352.79 195.593 351.216C196.352 349.754 197.206 348.117 197.095 345.604C197.048 344.317 196.763 343.363 196.51 342.521C196.162 341.297 195.846 340.248 196.241 338.482C196.352 337.894 196.684 336.384 197.872 334.936C200.102 332.186 203.519 331.978 204.199 331.962H204.373C206.54 331.962 208.597 332.788 210.463 334.425C210.985 334.902 212.108 335.888 212.772 337.463C213.436 339.036 213.199 340.135 212.899 341.534C212.709 342.408 212.519 343.409 212.519 344.651V344.921C212.583 347.575 213.547 349.246 214.419 350.74C215.304 352.25 216.048 353.555 215.541 355.51H215.538Z" fill="#030303"/>
<path d="M215.539 355.51C214.969 357.687 213.451 359.056 212.803 359.644C210.162 362.028 206.966 362.234 204.799 362.266C204.72 362.282 204.625 362.282 204.546 362.282H204.23C201.777 362.314 198.978 362.33 196.796 360.295C195.705 359.262 194.945 357.927 194.582 356.304C194.076 354.159 194.772 352.79 195.594 351.216C196.353 349.754 197.207 348.117 197.096 345.604C197.049 344.317 196.764 343.363 196.511 342.521C196.163 341.297 195.847 340.248 196.242 338.482C196.353 337.894 196.685 336.384 197.873 334.936C200.103 332.186 203.52 331.978 204.2 331.962H204.374C206.541 331.962 208.598 332.788 210.464 334.425C210.986 334.902 212.109 335.888 212.773 337.463C213.437 339.036 213.2 340.135 212.9 341.534C212.71 342.408 212.52 343.409 212.52 344.65V344.921C212.583 347.575 213.548 349.246 214.42 350.74C215.305 352.25 216.048 353.555 215.542 355.51H215.539Z" fill="#CE6326"/>
<path d="M204.546 349.09C204.482 349.09 204.419 349.069 204.366 349.025L198.686 344.177C198.57 344.078 198.554 343.902 198.654 343.785C198.756 343.669 198.928 343.656 199.044 343.754L204.725 348.601C204.841 348.7 204.857 348.877 204.757 348.993C204.7 349.059 204.623 349.09 204.546 349.09Z" fill="#030303"/>
<path d="M204.554 353.755C204.491 353.755 204.428 353.733 204.377 353.689C204.259 353.59 204.243 353.414 204.343 353.297L210.743 345.656C210.841 345.536 211.019 345.525 211.133 345.622C211.251 345.721 211.266 345.898 211.166 346.014L204.767 353.656C204.712 353.723 204.633 353.755 204.556 353.755H204.554Z" fill="#030303"/>
<path d="M204.43 356.839C204.372 356.839 204.314 356.821 204.265 356.784L200.111 353.678C199.99 353.586 199.964 353.411 200.053 353.288C200.145 353.166 200.319 353.139 200.442 353.229L204.595 356.336C204.717 356.427 204.743 356.602 204.653 356.726C204.599 356.798 204.516 356.837 204.43 356.837V356.839Z" fill="#030303"/>
<path d="M204.268 408.287V340.408C204.268 340.256 204.391 340.133 204.544 340.133C204.697 340.133 204.82 340.256 204.82 340.408V408.305" fill="#030303"/>
<path d="M181.442 378.742C174.849 378.742 169.486 373.352 169.486 366.726C169.486 360.101 174.849 354.709 181.442 354.709C188.034 354.709 193.397 360.099 193.397 366.726C193.397 373.354 188.034 378.742 181.442 378.742ZM181.442 355.184C175.109 355.184 169.959 360.362 169.959 366.726C169.959 373.091 175.111 378.267 181.442 378.267C187.773 378.267 192.924 373.089 192.924 366.726C192.924 360.364 187.773 355.184 181.442 355.184Z" fill="#030303"/>
<path d="M181.442 367.212C181.387 367.212 181.333 367.192 181.289 367.155L176.443 363.018C176.344 362.933 176.33 362.781 176.415 362.682C176.503 362.583 176.648 362.573 176.749 362.654L181.595 366.791C181.693 366.876 181.707 367.028 181.623 367.127C181.575 367.184 181.509 367.21 181.442 367.21V367.212Z" fill="#030303"/>
<path d="M181.453 371.196C181.399 371.196 181.344 371.177 181.302 371.139C181.202 371.055 181.188 370.905 181.272 370.806L186.733 364.284C186.817 364.181 186.969 364.173 187.065 364.254C187.165 364.339 187.179 364.489 187.095 364.588L181.634 371.109C181.588 371.166 181.52 371.194 181.453 371.194V371.196Z" fill="#030303"/>
<path d="M181.344 373.828C181.295 373.828 181.246 373.814 181.204 373.782L177.66 371.132C177.556 371.054 177.533 370.904 177.61 370.8C177.688 370.696 177.837 370.673 177.941 370.75L181.485 373.401C181.588 373.479 181.611 373.629 181.534 373.733C181.488 373.795 181.416 373.828 181.344 373.828Z" fill="#030303"/>
<path d="M181.164 408.3V360.389C181.164 360.258 181.289 360.154 181.444 360.154C181.598 360.154 181.721 360.26 181.721 360.389L181.674 408.3" fill="#030303"/>
<path d="M1 1.5V376C1 394.225 15.7746 409 34 409H296C314.225 409 329 423.775 329 442V1078C329 1096.23 314.225 1111 296 1111H34C15.7746 1111 1 1125.77 1 1144V1438" stroke="#030303" stroke-width="2" stroke-linecap="round"/>
<path d="M115.166 1111.76H75.2359C74.1278 1111.76 73.053 1111.51 72.124 1111.04C69.9718 1109.94 69.1836 1108.1 69.9053 1105.85C70.3736 1104.38 71.1592 1103.41 72.2417 1102.97C73.1835 1102.58 74.1534 1102.67 74.8649 1102.85C73.8514 1101.15 72.0242 1097.49 73.0095 1094.41C73.5879 1092.61 75.0363 1091.31 77.3165 1090.54C83.896 1088.32 87.2203 1089.57 88.5281 1090.4C88.5562 1089.5 88.807 1088.03 89.9612 1086.76C91.6118 1084.94 94.5087 1084.16 98.5675 1084.45C102.724 1084.74 105.682 1085.94 107.356 1088.01C108.433 1089.34 108.707 1090.72 108.761 1091.56C109.769 1090.84 111.865 1089.6 114.142 1089.82C115.719 1089.98 117.085 1090.81 118.209 1092.3C120.31 1095.07 118.621 1099.02 117.945 1100.35C118.956 1100.6 121.239 1101.34 122.501 1103.13C123.273 1104.23 123.532 1105.54 123.263 1107.01C123.007 1108.43 121.971 1109.62 120.182 1110.56C118.68 1111.34 116.945 1111.76 115.166 1111.76ZM73.6595 1103.44C73.2859 1103.44 72.8943 1103.5 72.5156 1103.66C71.648 1104.02 71.0082 1104.83 70.609 1106.07C69.9948 1107.99 70.6167 1109.44 72.4593 1110.38C73.2859 1110.8 74.2456 1111.02 75.2359 1111.02H115.166C116.824 1111.02 118.442 1110.63 119.839 1109.9C121.413 1109.08 122.319 1108.06 122.534 1106.88C122.764 1105.61 122.549 1104.49 121.897 1103.56C120.458 1101.51 117.354 1100.98 117.323 1100.97C117.203 1100.95 117.101 1100.88 117.047 1100.76C116.996 1100.65 117.001 1100.52 117.065 1100.42C117.093 1100.37 119.821 1095.66 117.618 1092.74C116.625 1091.43 115.43 1090.7 114.068 1090.56C111.274 1090.28 108.651 1092.59 108.625 1092.61C108.51 1092.71 108.341 1092.73 108.205 1092.66C108.07 1092.58 107.993 1092.43 108.013 1092.28C108.013 1092.26 108.259 1090.3 106.77 1088.46C105.229 1086.56 102.452 1085.46 98.5189 1085.18C94.6956 1084.91 92.0008 1085.61 90.5114 1087.25C88.9657 1088.95 89.2984 1091.11 89.3009 1091.13C89.3291 1091.29 89.2446 1091.46 89.0936 1091.52C88.9452 1091.6 88.7661 1091.56 88.656 1091.44C88.6304 1091.41 85.8256 1088.45 77.5519 1091.24C75.5072 1091.93 74.2174 1093.07 73.7158 1094.63C72.5258 1098.34 76.0344 1103.3 76.0702 1103.35C76.17 1103.49 76.1623 1103.68 76.0497 1103.81C75.9371 1103.94 75.7503 1103.97 75.5993 1103.89C75.5865 1103.89 74.7011 1103.44 73.6621 1103.44L73.6595 1103.44Z" fill="#030303"/>
<path d="M86.3964 1111.76C86.2454 1111.76 86.1047 1111.67 86.0484 1111.52L80.8533 1097.36C80.7817 1097.16 80.8815 1096.95 81.0734 1096.88C81.2653 1096.81 81.4778 1096.91 81.5494 1097.1L86.7444 1111.26C86.8161 1111.45 86.7163 1111.67 86.5244 1111.74C86.4809 1111.75 86.4399 1111.76 86.3964 1111.76Z" fill="#030303"/>
<path d="M82.8783 1102.17C82.8348 1102.17 82.7887 1102.16 82.7452 1102.14C82.5533 1102.07 82.4612 1101.85 82.5354 1101.66L85.3095 1094.51C85.3837 1094.32 85.5987 1094.23 85.7881 1094.3C85.98 1094.38 86.0721 1094.59 85.9979 1094.78L83.2238 1101.93C83.1675 1102.08 83.0268 1102.17 82.8783 1102.17Z" fill="#030303"/>
<path d="M84.7523 1107.27C84.6243 1107.27 84.4989 1107.21 84.4324 1107.09C84.33 1106.91 84.3915 1106.68 84.568 1106.58L89.0286 1103.99C89.2052 1103.89 89.433 1103.95 89.5353 1104.13C89.6377 1104.3 89.5763 1104.53 89.3997 1104.63L84.9391 1107.22C84.8803 1107.26 84.8163 1107.27 84.7548 1107.27H84.7523Z" fill="#030303"/>
<path d="M97.7584 1111.46C97.6125 1111.46 97.4717 1111.37 97.4154 1111.22L92.4226 1098.7C92.4021 1098.65 92.3944 1098.59 92.397 1098.54L92.6989 1093.22C92.7117 1093.02 92.8832 1092.86 93.0905 1092.87C93.2952 1092.89 93.4513 1093.06 93.4385 1093.27L93.1417 1098.5L98.1038 1110.95C98.1806 1111.14 98.0885 1111.35 97.8965 1111.43C97.8505 1111.45 97.8044 1111.45 97.7584 1111.45V1111.46Z" fill="#030303"/>
<path d="M96.3859 1107.83C96.3373 1107.83 96.2887 1107.82 96.24 1107.8C96.0507 1107.72 95.9636 1107.5 96.043 1107.31L101.466 1094.5C101.545 1094.31 101.763 1094.22 101.952 1094.3C102.141 1094.38 102.228 1094.6 102.149 1094.79L96.7263 1107.6C96.6674 1107.74 96.5292 1107.82 96.3859 1107.82V1107.83Z" fill="#030303"/>
<path d="M99.4708 1100.54C99.3275 1100.54 99.1919 1100.45 99.1305 1100.31C99.0486 1100.13 99.1356 1099.91 99.3224 1099.83L104.118 1097.73C104.305 1097.65 104.525 1097.74 104.604 1097.93C104.686 1098.11 104.599 1098.33 104.413 1098.41L99.6167 1100.51C99.5681 1100.53 99.5194 1100.54 99.4682 1100.54H99.4708Z" fill="#030303"/>
<path d="M106.082 1111.76C106.041 1111.76 106 1111.75 105.959 1111.74C105.767 1111.67 105.665 1111.46 105.731 1111.27L108.795 1102.46L107.809 1099.28C107.748 1099.08 107.858 1098.88 108.052 1098.81C108.247 1098.75 108.454 1098.86 108.516 1099.06L109.537 1102.36C109.56 1102.43 109.56 1102.51 109.532 1102.59L106.43 1111.51C106.376 1111.66 106.233 1111.76 106.079 1111.76H106.082Z" fill="#030303"/>
<path d="M107.632 1107.55C107.468 1107.55 107.317 1107.44 107.274 1107.27C107.222 1107.07 107.343 1106.87 107.54 1106.82L111.662 1105.75C111.862 1105.7 112.062 1105.82 112.113 1106.02C112.164 1106.22 112.044 1106.42 111.847 1106.47L107.724 1107.54C107.693 1107.54 107.663 1107.55 107.632 1107.55Z" fill="#030303"/>
<path d="M154.667 1101.81C154.587 1101.79 152.873 1101.19 150.762 1101.37C151.053 1100.2 151.529 1097.47 150.211 1095.48C149.351 1094.19 147.898 1093.46 145.889 1093.32C140.482 1092.95 138.887 1094.87 138.421 1095.94C137.892 1095.45 136.917 1094.66 135.596 1093.97C132.909 1092.59 130.068 1092.35 127.381 1093.3C123.983 1094.49 122.539 1096.47 121.928 1097.92C121.449 1099.05 121.388 1100.03 121.393 1100.52C120.254 1100.83 116.364 1102.08 115.714 1105.07C115.458 1106.24 115.837 1107.49 116.835 1108.78C118.286 1110.65 120.605 1111.77 123.038 1111.77H148.417C149.73 1111.77 150.982 1111.54 152.133 1111.11C154.37 1110.27 155.798 1108.85 156.264 1106.99C156.448 1106.25 156.525 1105.62 156.525 1105.07C156.525 1102.54 154.895 1101.9 154.667 1101.82V1101.81ZM155.545 1106.81C155.035 1108.84 153.267 1109.89 151.872 1110.41C150.802 1110.81 149.638 1111.02 148.415 1111.02H123.036C120.83 1111.02 118.729 1110.01 117.416 1108.32C116.559 1107.21 116.229 1106.17 116.436 1105.22C117.081 1102.26 121.81 1101.18 121.859 1101.16C122.046 1101.12 122.171 1100.95 122.145 1100.76C122.14 1100.71 121.646 1096.1 127.624 1094C128.684 1093.62 129.7 1093.47 130.654 1093.47C135.133 1093.47 138.288 1096.84 138.327 1096.88C138.424 1096.99 138.578 1097.03 138.716 1096.98C138.854 1096.94 138.954 1096.81 138.969 1096.67C138.982 1096.54 139.376 1093.62 145.838 1094.06C147.604 1094.19 148.865 1094.8 149.592 1095.89C151.071 1098.12 149.912 1101.65 149.899 1101.68C149.858 1101.8 149.884 1101.94 149.966 1102.04C150.048 1102.14 150.178 1102.19 150.306 1102.17C152.476 1101.84 154.396 1102.51 154.413 1102.52C154.421 1102.52 154.431 1102.52 154.436 1102.53C154.518 1102.55 156.453 1103.17 155.539 1106.81L155.545 1106.81Z" fill="#030303"/>
<path d="M155.545 1106.81C155.036 1108.84 153.267 1109.89 151.873 1110.41C150.803 1110.81 149.639 1111.02 148.415 1111.02H139.187L139.801 1107.18C139.804 1107.17 139.806 1107.16 139.806 1107.14L140.367 1103.64L146.156 1100.19C146.332 1100.08 146.388 1099.85 146.284 1099.68C146.179 1099.5 145.951 1099.44 145.777 1099.55L140.52 1102.68L141.188 1098.51C141.222 1098.3 141.083 1098.11 140.881 1098.08C140.682 1098.05 140.49 1098.19 140.456 1098.39L139.185 1106.35L136.641 1103.9C136.495 1103.75 136.259 1103.76 136.119 1103.91C135.975 1104.06 135.98 1104.29 136.129 1104.43L139.044 1107.24L138.44 1111.02H129.8L128.838 1107.77L132.193 1098.19C132.262 1098 132.16 1097.79 131.965 1097.72C131.773 1097.65 131.561 1097.75 131.494 1097.95L128.477 1106.56L127.054 1101.78C126.995 1101.59 126.788 1101.47 126.594 1101.53C126.397 1101.59 126.286 1101.8 126.343 1101.99L129.027 1111.02H123.039C120.833 1111.02 118.732 1110 117.419 1108.31C116.562 1107.21 116.232 1106.17 116.439 1105.22C117.084 1102.25 121.813 1101.17 121.862 1101.16C122.049 1101.12 122.174 1100.94 122.148 1100.75C122.143 1100.71 121.649 1096.09 127.627 1093.99C128.687 1093.62 129.703 1093.47 130.657 1093.47C135.136 1093.47 138.291 1096.84 138.33 1096.88C138.427 1096.98 138.581 1097.02 138.719 1096.98C138.857 1096.93 138.957 1096.81 138.972 1096.66C138.985 1096.54 139.379 1093.61 145.841 1094.06C147.607 1094.18 148.868 1094.8 149.595 1095.89C151.074 1098.11 149.915 1101.65 149.902 1101.68C149.861 1101.8 149.887 1101.94 149.969 1102.04C150.051 1102.14 150.181 1102.19 150.309 1102.17C152.479 1101.84 154.399 1102.51 154.416 1102.52C154.424 1102.52 154.434 1102.52 154.439 1102.52C154.521 1102.55 156.456 1103.17 155.542 1106.81L155.545 1106.81Z" fill="#CE6326"/>
<path d="M129.628 1111.74C129.592 1111.76 129.557 1111.76 129.521 1111.76C129.362 1111.76 129.214 1111.66 129.168 1111.49L129.024 1111.02L126.34 1101.99C126.281 1101.8 126.394 1101.59 126.591 1101.53C126.785 1101.47 126.992 1101.59 127.051 1101.78L128.474 1106.56L128.835 1107.77L129.797 1111.02L129.877 1111.28C129.935 1111.48 129.823 1111.68 129.628 1111.74V1111.74Z" fill="#030303"/>
<path d="M132.191 1098.2L128.836 1107.78L128.798 1107.89C128.744 1108.04 128.601 1108.14 128.447 1108.14C128.406 1108.14 128.365 1108.13 128.324 1108.11C128.132 1108.05 128.03 1107.83 128.096 1107.64L128.475 1106.57L131.492 1097.95C131.559 1097.76 131.771 1097.65 131.963 1097.72C132.158 1097.79 132.258 1098 132.191 1098.2Z" fill="#030303"/>
<path d="M141.188 1098.51L140.52 1102.68L140.367 1103.63L139.806 1107.14C139.806 1107.15 139.804 1107.17 139.801 1107.18L139.187 1111.02L139.118 1111.44C139.087 1111.63 138.931 1111.76 138.752 1111.76C138.731 1111.76 138.713 1111.76 138.693 1111.75C138.491 1111.72 138.353 1111.53 138.386 1111.33L138.437 1111.01L139.041 1107.24L139.184 1106.34L140.456 1098.39C140.489 1098.18 140.679 1098.04 140.881 1098.08C141.083 1098.11 141.221 1098.3 141.188 1098.5V1098.51Z" fill="#030303"/>
<path d="M139.806 1107.14C139.806 1107.16 139.804 1107.17 139.801 1107.18C139.788 1107.25 139.755 1107.31 139.704 1107.37C139.632 1107.44 139.535 1107.48 139.438 1107.48C139.346 1107.48 139.254 1107.45 139.182 1107.38L139.041 1107.24L136.126 1104.44C135.978 1104.29 135.973 1104.06 136.116 1103.91C136.257 1103.76 136.492 1103.76 136.638 1103.9L139.182 1106.35L139.694 1106.84C139.778 1106.92 139.817 1107.04 139.806 1107.14Z" fill="#030303"/>
<path d="M146.155 1100.19L140.366 1103.64L140.218 1103.73C140.159 1103.76 140.092 1103.78 140.028 1103.78C139.9 1103.78 139.777 1103.71 139.711 1103.59C139.606 1103.42 139.662 1103.19 139.839 1103.08L140.52 1102.68L145.776 1099.55C145.95 1099.44 146.178 1099.5 146.283 1099.68C146.388 1099.85 146.331 1100.08 146.155 1100.19Z" fill="#030303"/>
<path d="M78.1202 1105.01C77.9564 1103.19 77.2706 1101.91 76.0857 1101.2C74.1945 1100.07 71.5867 1100.75 70.4428 1101.14C70.5042 1100.14 70.4658 1098.14 69.3884 1096.8C68.7538 1096 67.8581 1095.56 66.7295 1095.49C63.6457 1095.28 61.7725 1097.06 60.9356 1098.12C60.2165 1095.71 57.8621 1094.99 57.5217 1094.9C57.2095 1094.76 55.1085 1093.97 51.9275 1095.66C49.3914 1097.01 49.4221 1100.74 49.6038 1102.54C48.9794 1102.11 48.3063 1101.9 47.6 1101.91C45.7088 1101.95 44.2629 1103.58 44.1938 1103.65C42.1516 1106.1 42.7095 1108.86 44.2757 1110.2C45.911 1111.61 48.8361 1111.68 48.8642 1111.68C57.4859 1111.75 64.2804 1111.76 68.3162 1111.76C70.8804 1111.76 72.3314 1111.75 72.421 1111.75C72.5874 1111.76 75.0902 1111.76 76.7536 1109.97C77.8489 1108.79 78.3096 1107.12 78.1202 1105.01V1105.01ZM76.2162 1109.46C74.7677 1111.03 72.4568 1111.01 72.4312 1111.01C72.4287 1111.01 72.4261 1111.01 72.4236 1111.01C72.3724 1111.01 69.6136 1111.02 64.8204 1111.01C64.5542 1111.01 64.283 1111.01 64.0066 1111.01C62.6375 1111.01 61.1199 1111.01 59.4667 1111C59.2057 1111 58.9395 1111 58.6682 1110.99C57.2633 1110.99 55.7687 1110.98 54.1898 1110.97C53.9441 1110.97 53.6984 1110.97 53.4476 1110.97C51.9889 1110.96 50.4611 1110.95 48.8719 1110.93C48.8463 1110.93 46.172 1110.86 44.7594 1109.64C43.4619 1108.52 43.0243 1106.21 44.7594 1104.14C44.7722 1104.12 46.0568 1102.68 47.6179 1102.65C47.6333 1102.65 47.6486 1102.65 47.6614 1102.65C48.4368 1102.65 49.1687 1103.01 49.8341 1103.72C49.9493 1103.84 50.1259 1103.87 50.2717 1103.79C50.4176 1103.72 50.4969 1103.56 50.4662 1103.39C50.456 1103.34 49.4298 1097.84 52.2755 1096.32C55.3004 1094.71 57.2198 1095.58 57.2351 1095.59C57.2607 1095.6 57.2863 1095.61 57.3145 1095.62C57.4271 1095.64 60.0834 1096.3 60.3777 1099.1C60.3957 1099.26 60.5159 1099.4 60.6772 1099.43C60.8384 1099.46 60.9996 1099.38 61.0764 1099.23C61.0917 1099.2 62.8038 1095.97 66.6809 1096.23C67.5945 1096.29 68.3085 1096.64 68.8101 1097.26C70.0615 1098.83 69.6546 1101.62 69.6495 1101.65C69.629 1101.78 69.6827 1101.91 69.7877 1102C69.8951 1102.08 70.0385 1102.1 70.1613 1102.05C70.1946 1102.03 73.5982 1100.58 75.7069 1101.84C76.6768 1102.42 77.2399 1103.51 77.3806 1105.08C77.5521 1106.97 77.158 1108.44 76.2136 1109.46L76.2162 1109.46Z" fill="#030303"/>
<path d="M76.2166 1109.46C74.7682 1111.03 72.4573 1111.01 72.4317 1111.01C72.4291 1111.01 72.4266 1111.01 72.424 1111.01C72.3728 1111.01 69.6141 1111.02 64.8208 1111.01L67.2418 1106.31L69.4938 1105.45C69.6857 1105.38 69.7804 1105.17 69.7062 1104.97C69.6346 1104.78 69.4196 1104.69 69.2302 1104.76L67.2341 1105.52L66.2002 1101.41C66.1516 1101.21 65.9494 1101.09 65.7524 1101.14C65.5527 1101.19 65.435 1101.39 65.4836 1101.59L66.5841 1105.97L64.0403 1110.91C64.0224 1110.94 64.0096 1110.97 64.007 1111.01C62.6379 1111.01 61.1203 1111 59.4671 1111L62.4357 1104.19C62.5176 1104 62.4332 1103.78 62.2463 1103.7C62.057 1103.62 61.8394 1103.7 61.7575 1103.89L61.0487 1105.52L59.9124 1103.73C59.8024 1103.56 59.5721 1103.51 59.4006 1103.62C59.2266 1103.73 59.1779 1103.96 59.288 1104.13L60.6878 1106.33C60.6878 1106.33 60.6904 1106.34 60.693 1106.34L59.6744 1108.67L59.073 1107.28C58.9911 1107.09 58.7736 1107 58.5868 1107.08C58.4 1107.17 58.313 1107.38 58.3949 1107.57L59.265 1109.59C59.265 1109.59 59.2701 1109.6 59.2726 1109.6L58.6968 1110.92C58.6866 1110.94 58.6764 1110.97 58.6738 1111C57.2688 1110.99 55.7743 1110.98 54.1953 1110.97C54.1953 1110.72 54.1646 1110.32 54.1185 1109.65C54.0674 1108.88 53.9855 1107.82 53.8805 1106.48C53.8601 1106.23 53.8396 1105.97 53.8217 1105.73C53.8524 1105.71 53.8831 1105.68 53.9087 1105.66L57.8421 1101.14C57.9777 1100.99 57.9598 1100.75 57.8062 1100.62C57.6527 1100.48 57.4173 1100.5 57.2842 1100.65L53.7423 1104.72C53.6144 1103.16 53.5095 1101.91 53.5069 1101.89C53.4916 1101.69 53.3124 1101.53 53.1077 1101.55C52.9055 1101.57 52.7545 1101.75 52.7699 1101.95C52.9157 1103.69 53.0949 1105.88 53.2356 1107.69L51.5031 1106.44C51.3368 1106.32 51.1064 1106.36 50.9862 1106.52C50.8684 1106.69 50.9043 1106.92 51.0706 1107.04L53.228 1108.6C53.2536 1108.62 53.2817 1108.63 53.3098 1108.64C53.3943 1109.77 53.4532 1110.64 53.4583 1110.97C51.9996 1110.96 50.4718 1110.95 48.8826 1110.94C48.857 1110.94 46.1827 1110.86 44.77 1109.64C43.4725 1108.52 43.0349 1106.21 44.77 1104.14C44.7828 1104.12 46.0675 1102.68 47.6286 1102.66C47.6439 1102.66 47.6593 1102.66 47.6721 1102.66C48.4475 1102.66 49.1794 1103.02 49.8448 1103.72C49.96 1103.84 50.1365 1103.87 50.2824 1103.8C50.4283 1103.72 50.5076 1103.56 50.4769 1103.4C50.4667 1103.34 49.4404 1097.84 52.2862 1096.32C55.3111 1094.71 57.2304 1095.58 57.2458 1095.59C57.2714 1095.6 57.297 1095.61 57.3251 1095.62C57.4377 1095.64 60.0941 1096.3 60.3884 1099.1C60.4063 1099.27 60.5266 1099.4 60.6878 1099.43C60.8491 1099.46 61.0103 1099.38 61.0871 1099.23C61.1024 1099.2 62.8145 1095.97 66.6916 1096.23C67.6052 1096.29 68.3192 1096.64 68.8208 1097.27C70.0722 1098.83 69.6653 1101.62 69.6601 1101.65C69.6397 1101.78 69.6934 1101.92 69.7983 1102C69.9058 1102.08 70.0491 1102.1 70.172 1102.05C70.2052 1102.03 73.6089 1100.58 75.7176 1101.84C76.6875 1102.42 77.2505 1103.51 77.3913 1105.08C77.5627 1106.97 77.1686 1108.45 76.2243 1109.47L76.2166 1109.46Z" fill="#CE6326"/>
<path d="M67.3065 1106.19L67.2426 1106.32L64.8216 1111.02L64.7013 1111.25C64.6374 1111.38 64.5069 1111.45 64.3712 1111.45C64.3149 1111.45 64.2561 1111.44 64.2023 1111.41C64.0539 1111.33 63.9797 1111.17 64.0078 1111.01C64.013 1110.98 64.0232 1110.94 64.0411 1110.91L66.5849 1105.97L65.4844 1101.59C65.4333 1101.39 65.5536 1101.19 65.7532 1101.14C65.9528 1101.09 66.1524 1101.21 66.201 1101.41L67.2349 1105.52L67.3373 1105.93C67.3603 1106.02 67.35 1106.11 67.3065 1106.19Z" fill="#030303"/>
<path d="M69.495 1105.46L67.2429 1106.32L67.1099 1106.37C67.0664 1106.38 67.0229 1106.39 66.9768 1106.39C66.8284 1106.39 66.6876 1106.3 66.6313 1106.15C66.5597 1105.96 66.6543 1105.74 66.8463 1105.67L67.2353 1105.52L69.2314 1104.76C69.4233 1104.69 69.6357 1104.79 69.7074 1104.98C69.779 1105.17 69.6844 1105.38 69.495 1105.46Z" fill="#030303"/>
<path d="M54.1121 1109.65C54.0609 1108.88 53.979 1107.82 53.8741 1106.48C53.8536 1106.23 53.8331 1105.97 53.8152 1105.73C53.7871 1105.38 53.7589 1105.04 53.7333 1104.72C53.6054 1103.15 53.5004 1101.9 53.4979 1101.89C53.4825 1101.68 53.3034 1101.53 53.0986 1101.55C52.8965 1101.57 52.7455 1101.75 52.7608 1101.95C52.9067 1103.69 53.0859 1105.88 53.2266 1107.69C53.2522 1108.02 53.2778 1108.34 53.2983 1108.64C53.3827 1109.77 53.4416 1110.64 53.4467 1110.97C53.4467 1111.01 53.4467 1111.04 53.4467 1111.07C53.4288 1111.16 53.4416 1111.25 53.4902 1111.34C53.5593 1111.45 53.6821 1111.52 53.8075 1111.52C53.8715 1111.52 53.938 1111.5 53.9969 1111.46C54.1325 1111.38 54.1888 1111.35 54.1863 1110.98C54.1863 1110.73 54.1556 1110.33 54.1095 1109.66L54.1121 1109.65Z" fill="#030303"/>
<path d="M57.8372 1101.14L53.9039 1105.66C53.8783 1105.68 53.8501 1105.71 53.8169 1105.73C53.758 1105.76 53.6915 1105.78 53.6224 1105.78C53.5354 1105.78 53.4483 1105.75 53.3792 1105.69C53.2257 1105.56 53.2078 1105.32 53.3434 1105.17L53.735 1104.72L57.2768 1100.65C57.4124 1100.5 57.6453 1100.48 57.7989 1100.62C57.9524 1100.75 57.9703 1100.98 57.8347 1101.14H57.8372Z" fill="#030303"/>
<path d="M53.734 1108.51C53.6624 1108.61 53.5472 1108.67 53.4321 1108.67C53.3886 1108.67 53.3425 1108.66 53.299 1108.64C53.2708 1108.64 53.2427 1108.62 53.2171 1108.6L51.0598 1107.04C50.8934 1106.92 50.8576 1106.69 50.9753 1106.52C51.0956 1106.36 51.3259 1106.32 51.4922 1106.44L53.2248 1107.69L53.6496 1108C53.8159 1108.12 53.8518 1108.35 53.734 1108.52V1108.51Z" fill="#030303"/>
<path d="M62.4362 1104.19L59.4676 1111L59.3729 1111.22C59.3115 1111.35 59.1784 1111.44 59.0325 1111.44C58.9839 1111.44 58.9327 1111.43 58.8841 1111.41C58.7229 1111.34 58.6359 1111.16 58.6691 1111C58.6743 1110.97 58.6819 1110.94 58.6922 1110.92L59.268 1109.6L59.6723 1108.67L60.6909 1106.34L61.0491 1105.52L61.758 1103.89C61.8399 1103.7 62.06 1103.62 62.2468 1103.7C62.4336 1103.78 62.5206 1104.01 62.4362 1104.19V1104.19Z" fill="#030303"/>
<path d="M61.1989 1106.45C61.1375 1106.49 61.0684 1106.51 60.9993 1106.51C60.8816 1106.51 60.7613 1106.45 60.6922 1106.34C60.6922 1106.34 60.6896 1106.34 60.6871 1106.34L59.2872 1104.13C59.1772 1103.96 59.2258 1103.73 59.3998 1103.62C59.5713 1103.51 59.8016 1103.56 59.9117 1103.73L61.0479 1105.52L61.3115 1105.94C61.4215 1106.11 61.3703 1106.34 61.1963 1106.45L61.1989 1106.45Z" fill="#030303"/>
<path d="M59.7446 1109.78C59.696 1109.8 59.6474 1109.81 59.5987 1109.81C59.4605 1109.81 59.33 1109.74 59.266 1109.6C59.2635 1109.6 59.2609 1109.59 59.2584 1109.59L58.3883 1107.57C58.3064 1107.38 58.3934 1107.16 58.5802 1107.08C58.767 1107 58.9871 1107.09 59.0664 1107.28L59.6678 1108.67L59.9365 1109.29C60.0184 1109.48 59.9314 1109.7 59.742 1109.78H59.7446Z" fill="#030303"/>
<path d="M247.186 1090.69C247.186 1092.26 247.006 1093.77 246.668 1095.23C246.552 1095.73 246.417 1096.22 246.264 1096.71C243.715 1104.79 236.165 1110.67 227.276 1110.67C216.298 1110.67 207.37 1101.71 207.37 1090.69C207.37 1085.47 209.377 1080.71 212.666 1077.14C212.962 1076.82 213.274 1076.5 213.593 1076.2C217.162 1072.8 221.983 1070.72 227.279 1070.72C228.859 1070.72 230.399 1070.9 231.875 1071.25C232.121 1071.31 232.364 1071.38 232.607 1071.44C232.533 1071.68 232.459 1071.93 232.382 1072.17C232.139 1072.1 231.894 1072.04 231.648 1071.98C230.243 1071.65 228.779 1071.47 227.279 1071.47C216.718 1071.47 208.125 1080.09 208.125 1090.69C208.125 1101.29 216.718 1109.91 227.279 1109.91C236.326 1109.91 243.929 1103.59 245.923 1095.11C245.923 1095.11 245.923 1095.11 245.923 1095.11C245.923 1095.1 245.926 1095.09 245.926 1095.09C246.258 1093.68 246.433 1092.21 246.433 1090.69C246.433 1082.38 241.144 1075.28 233.767 1072.61C233.532 1072.52 233.294 1072.44 233.053 1072.37C233.13 1072.12 233.204 1071.89 233.281 1071.64C233.521 1071.72 233.759 1071.8 233.994 1071.89C241.678 1074.66 247.186 1082.04 247.186 1090.69V1090.69Z" fill="#030303"/>
<path d="M244.708 1090.69C244.708 1100.34 236.889 1108.19 227.277 1108.19C217.664 1108.19 209.845 1100.34 209.845 1090.69C209.845 1081.05 217.664 1073.2 227.277 1073.2C228.6 1073.2 229.892 1073.35 231.131 1073.64C231.379 1073.69 231.622 1073.75 231.865 1073.82C231.728 1074.26 231.593 1074.69 231.458 1075.12C231.215 1075.05 230.972 1074.99 230.724 1074.94C229.615 1074.69 228.46 1074.57 227.277 1074.57C225.811 1074.57 224.392 1074.76 223.04 1075.14C222.797 1075.2 222.556 1075.27 222.319 1075.35C217.258 1077 213.29 1081.11 211.819 1086.27C211.75 1086.51 211.687 1086.75 211.631 1087C211.378 1088.07 211.232 1089.18 211.209 1090.32C211.206 1090.44 211.203 1090.57 211.203 1090.7C211.203 1090.82 211.203 1090.95 211.209 1091.07C211.275 1093.91 212.072 1096.57 213.425 1098.87C213.552 1099.09 213.684 1099.3 213.824 1099.51C216.695 1103.91 221.653 1106.82 227.277 1106.82C228.521 1106.82 229.734 1106.68 230.898 1106.41C231.144 1106.35 231.387 1106.29 231.63 1106.22C236.66 1104.8 240.698 1100.98 242.434 1096.07C242.518 1095.83 242.598 1095.6 242.669 1095.35C243.115 1093.88 243.353 1092.31 243.353 1090.69C243.353 1089.86 243.29 1089.04 243.168 1088.24C243.131 1087.99 243.086 1087.74 243.036 1087.5C242.302 1083.85 240.334 1080.64 237.587 1078.33C237.397 1078.17 237.198 1078.01 237 1077.85C235.746 1076.9 234.346 1076.12 232.837 1075.56C232.602 1075.47 232.364 1075.39 232.124 1075.31C232.261 1074.88 232.396 1074.45 232.534 1074.01C232.774 1074.09 233.012 1074.17 233.247 1074.26C239.927 1076.71 244.711 1083.15 244.711 1090.69H244.708Z" fill="#030303"/>
<path d="M229.554 1090.69C229.554 1090.87 229.536 1091.04 229.493 1091.21C229.435 1091.46 229.337 1091.7 229.203 1091.91C228.97 1092.29 228.632 1092.58 228.231 1092.77C228.006 1092.87 227.76 1092.95 227.502 1092.97C227.425 1092.98 227.351 1092.98 227.274 1092.98C226.543 1092.98 225.89 1092.64 225.473 1092.09C225.317 1091.9 225.198 1091.67 225.116 1091.43C225.074 1091.3 225.045 1091.18 225.024 1091.05C225.005 1090.93 224.997 1090.82 224.997 1090.69C224.997 1090.56 225.011 1090.42 225.034 1090.29C225.034 1090.29 225.034 1090.28 225.037 1090.28C225.085 1090.02 225.172 1089.78 225.299 1089.56C225.542 1089.13 225.919 1088.79 226.371 1088.6C226.413 1088.58 226.458 1088.56 226.5 1088.55C226.691 1088.48 226.891 1088.43 227.103 1088.42C227.161 1088.41 227.216 1088.41 227.277 1088.41C227.293 1088.41 227.309 1088.41 227.325 1088.41C227.546 1088.41 227.76 1088.45 227.964 1088.51C228.022 1088.53 228.08 1088.55 228.136 1088.57C228.318 1088.65 228.489 1088.74 228.645 1088.86C228.693 1088.9 228.738 1088.93 228.783 1088.97C229.002 1089.17 229.184 1089.4 229.316 1089.67C229.43 1089.89 229.506 1090.14 229.538 1090.4C229.551 1090.5 229.557 1090.59 229.557 1090.69L229.554 1090.69Z" fill="#030303"/>
<path d="M275.254 1075.37C275.056 1075.53 274.861 1075.69 274.67 1075.86C272.602 1077.66 270.922 1079.91 269.776 1082.44C269.702 1082.6 269.63 1082.77 269.564 1082.93C269.44 1083.22 269.324 1083.52 269.213 1083.83C269.152 1083.99 269.097 1084.16 269.039 1084.33C268.88 1084.81 268.74 1085.29 268.619 1085.79C268.558 1086.04 268.503 1086.29 268.452 1086.54C268.196 1086.52 267.943 1086.51 267.692 1086.5C267.739 1086.25 267.795 1086 267.853 1085.75C267.966 1085.27 268.096 1084.8 268.244 1084.33C268.291 1084.18 268.341 1084.03 268.392 1083.88C268.547 1083.42 268.722 1082.97 268.909 1082.53C268.973 1082.38 269.036 1082.24 269.105 1082.09C270.283 1079.5 271.995 1077.21 274.097 1075.36C274.287 1075.19 274.483 1075.02 274.681 1074.86C274.874 1075.03 275.064 1075.2 275.254 1075.37V1075.37ZM307.135 1090.37C307.135 1101.38 298.204 1110.34 287.226 1110.34C276.995 1110.34 268.542 1102.56 267.441 1092.58C267.414 1092.33 267.39 1092.08 267.372 1091.83L268.125 1091.8C268.143 1092.05 268.167 1092.3 268.196 1092.56C269.282 1102.13 277.402 1109.59 287.226 1109.59C297.786 1109.59 306.382 1100.97 306.382 1090.37C306.382 1079.77 297.789 1071.14 287.226 1071.14C283.469 1071.14 279.961 1072.24 277 1074.12C276.778 1074.26 276.557 1074.4 276.343 1074.56C276.152 1074.38 275.96 1074.21 275.764 1074.04C275.981 1073.88 276.197 1073.74 276.419 1073.59C279.534 1071.57 283.245 1070.39 287.226 1070.39C295.248 1070.39 302.179 1075.18 305.328 1082.05C305.471 1082.37 305.608 1082.69 305.737 1083.01C306.641 1085.29 307.135 1087.77 307.135 1090.37V1090.37Z" fill="#030303"/>
<path d="M268.069 1090.37C268.069 1090.85 268.087 1091.33 268.122 1091.8L267.369 1091.83C267.332 1091.34 267.313 1090.86 267.313 1090.37C267.313 1089.04 267.44 1087.75 267.688 1086.5C267.939 1086.51 268.193 1086.53 268.449 1086.54C268.198 1087.78 268.069 1089.06 268.069 1090.37Z" fill="#CE6326"/>
<path d="M277.451 1077.57C277.25 1077.72 277.055 1077.88 276.865 1078.04C274.456 1080.08 272.652 1082.82 271.761 1085.94C271.693 1086.19 271.627 1086.44 271.571 1086.69C271.109 1086.67 270.649 1086.64 270.198 1086.62C270.253 1086.37 270.311 1086.12 270.377 1085.88C271.299 1082.39 273.27 1079.33 275.93 1077.05C276.12 1076.89 276.315 1076.73 276.513 1076.57C276.836 1076.9 277.147 1077.23 277.451 1077.57ZM304.656 1090.37C304.656 1100.01 296.837 1107.86 287.225 1107.86C278.331 1107.86 270.969 1101.14 269.923 1092.49C269.891 1092.24 269.867 1091.99 269.846 1091.73L271.201 1091.68C271.22 1091.93 271.249 1092.18 271.281 1092.43C271.658 1095.39 272.836 1098.1 274.59 1100.33C274.746 1100.53 274.907 1100.72 275.069 1100.91C275.85 1101.82 276.73 1102.63 277.692 1103.34C277.892 1103.49 278.101 1103.64 278.31 1103.78C280.861 1105.49 283.928 1106.49 287.222 1106.49C288.157 1106.49 289.074 1106.42 289.967 1106.26C290.215 1106.22 290.461 1106.17 290.706 1106.11C295.477 1105.05 299.458 1101.86 301.597 1097.58C301.711 1097.36 301.819 1097.13 301.92 1096.9C302.807 1094.9 303.301 1092.69 303.301 1090.37C303.301 1087.41 302.501 1084.63 301.106 1082.24C300.982 1082.02 300.847 1081.81 300.71 1081.6C299.349 1079.49 297.514 1077.73 295.355 1076.46C295.139 1076.33 294.92 1076.2 294.698 1076.09C292.466 1074.9 289.922 1074.23 287.227 1074.23C286.092 1074.23 284.987 1074.35 283.918 1074.58C283.669 1074.63 283.426 1074.69 283.183 1074.75C281.778 1075.12 280.444 1075.67 279.213 1076.38C278.989 1076.51 278.767 1076.65 278.547 1076.79C278.241 1076.45 277.929 1076.11 277.61 1075.78C277.826 1075.64 278.048 1075.5 278.273 1075.36C280.89 1073.78 283.955 1072.87 287.225 1072.87C296.837 1072.87 304.656 1080.72 304.656 1090.36V1090.37ZM271.761 1085.95C271.693 1086.19 271.627 1086.44 271.571 1086.69C271.109 1086.67 270.649 1086.65 270.198 1086.63C270.253 1086.37 270.311 1086.13 270.377 1085.88C270.834 1085.9 271.299 1085.93 271.761 1085.95Z" fill="#030303"/>
<path d="M271.148 1090.37C271.148 1090.81 271.167 1091.25 271.201 1091.68L269.846 1091.73C269.812 1091.28 269.793 1090.82 269.793 1090.37C269.793 1089.08 269.931 1087.83 270.195 1086.63C270.649 1086.65 271.109 1086.67 271.568 1086.69C271.294 1087.87 271.148 1089.1 271.148 1090.37Z" fill="#CE6326"/>
<path d="M289.503 1090.37C289.503 1090.77 289.4 1091.15 289.217 1091.48C289.088 1091.71 288.921 1091.91 288.723 1092.09C288.544 1092.25 288.34 1092.38 288.116 1092.47C287.886 1092.57 287.64 1092.63 287.381 1092.65C287.331 1092.65 287.278 1092.65 287.226 1092.65C287.112 1092.65 286.998 1092.64 286.89 1092.63C286.618 1092.59 286.364 1092.5 286.135 1092.37C286.079 1092.34 286.026 1092.31 285.976 1092.27C285.786 1092.15 285.617 1092 285.472 1091.82C285.453 1091.8 285.435 1091.78 285.416 1091.76C285.271 1091.57 285.155 1091.35 285.078 1091.13C284.993 1090.89 284.949 1090.63 284.949 1090.37C284.949 1089.38 285.572 1088.54 286.446 1088.22C286.454 1088.21 286.462 1088.21 286.47 1088.21C286.697 1088.13 286.938 1088.09 287.189 1088.08C287.196 1088.08 287.204 1088.08 287.215 1088.08H287.228C287.64 1088.08 288.029 1088.2 288.361 1088.39C288.589 1088.52 288.787 1088.69 288.956 1088.88C289.083 1089.03 289.193 1089.2 289.278 1089.37C289.392 1089.61 289.466 1089.87 289.495 1090.14C289.503 1090.22 289.508 1090.29 289.508 1090.37L289.503 1090.37Z" fill="#030303"/>
<path d="M233.251 1069.37C233.175 1069.61 233.101 1069.85 233.024 1070.09C232.781 1070.03 232.538 1069.96 232.292 1069.9C230.705 1069.52 229.049 1069.32 227.347 1069.32C221.671 1069.32 216.343 1071.54 212.341 1075.58L212.317 1075.61C212.111 1075.78 211.786 1076.19 211.902 1076.34C212.011 1076.47 212.803 1076.42 213.577 1076.16L213.59 1076.2L213.818 1076.88C213.601 1076.95 213.141 1077.09 212.666 1077.14C212.138 1077.2 211.586 1077.16 211.311 1076.8C210.827 1076.18 211.401 1075.41 211.821 1075.04C215.963 1070.86 221.478 1068.56 227.35 1068.56C229.13 1068.56 230.863 1068.78 232.522 1069.18C232.768 1069.24 233.011 1069.3 233.254 1069.37L233.251 1069.37Z" fill="#030303"/>
<path d="M249.25 1090.54C249.25 1092.28 249.044 1094.02 248.642 1095.7L248.632 1095.73C248.442 1096.28 247.924 1097.12 247.132 1097.12C247.052 1097.12 246.973 1097.11 246.891 1097.09C246.614 1097.03 246.408 1096.9 246.26 1096.71C245.903 1096.27 245.861 1095.58 245.919 1095.12C245.919 1095.11 245.919 1095.11 245.919 1095.11C245.919 1095.1 245.919 1095.1 245.919 1095.09L246.664 1095.19C246.664 1095.19 246.664 1095.21 246.659 1095.23C246.643 1095.44 246.608 1096.27 247.039 1096.36C247.512 1096.45 247.863 1095.62 247.911 1095.5C248.294 1093.89 248.492 1092.22 248.492 1090.54C248.492 1081.33 242.607 1073.47 234.41 1070.54C234.172 1070.45 233.934 1070.37 233.697 1070.3C233.773 1070.06 233.847 1069.82 233.924 1069.58C234.164 1069.65 234.402 1069.73 234.64 1069.82C243.143 1072.84 249.247 1080.99 249.247 1090.54L249.25 1090.54Z" fill="#030303"/>
<path d="M273.892 1074.21C273.694 1074.37 273.501 1074.54 273.311 1074.71C271.063 1076.73 269.243 1079.24 268.033 1082.08C267.967 1082.23 267.906 1082.38 267.845 1082.53C267.668 1082.98 267.507 1083.43 267.359 1083.88C267.312 1084.03 267.264 1084.19 267.219 1084.34C267.087 1084.78 266.968 1085.24 266.868 1085.7C266.81 1085.95 266.76 1086.2 266.715 1086.45C266.456 1086.44 266.205 1086.43 265.957 1086.42C265.999 1086.17 266.049 1085.92 266.102 1085.66C266.2 1085.22 266.311 1084.78 266.435 1084.34C266.477 1084.18 266.522 1084.03 266.57 1083.88C266.707 1083.43 266.863 1082.98 267.032 1082.53C267.09 1082.38 267.148 1082.23 267.211 1082.08C268.421 1079.11 270.284 1076.41 272.682 1074.22C272.809 1074.1 272.941 1073.99 273.07 1073.87C273.134 1073.81 273.197 1073.76 273.261 1073.71C273.475 1073.87 273.686 1074.04 273.895 1074.21L273.892 1074.21Z" fill="#030303"/>
<path d="M307.169 1082.31C307.077 1082.59 306.873 1082.79 306.583 1082.9C306.266 1083.01 305.981 1083.04 305.735 1083.01C305.122 1082.94 304.747 1082.54 304.726 1082.52L305.273 1082C305.273 1082 305.294 1082.02 305.328 1082.05C305.46 1082.15 305.822 1082.38 306.321 1082.19C306.416 1082.15 306.443 1082.11 306.456 1082.07C306.538 1081.83 306.329 1081.32 306.16 1081.05L306.142 1081.01C302.647 1073.89 295.251 1069.28 287.3 1069.28C283.018 1069.28 278.976 1070.61 275.608 1072.9C275.389 1073.05 275.172 1073.2 274.958 1073.36C274.747 1073.19 274.533 1073.02 274.319 1072.86C274.531 1072.69 274.747 1072.54 274.966 1072.39C278.575 1069.88 282.872 1068.53 287.302 1068.53C291.436 1068.53 295.462 1069.69 298.941 1071.9C302.33 1074.05 305.051 1077.08 306.813 1080.67C306.91 1080.83 307.391 1081.67 307.172 1082.31H307.169Z" fill="#030303"/>
<path d="M269.794 1090.37C269.794 1090.82 269.812 1091.28 269.847 1091.73L268.122 1091.8C268.087 1091.33 268.069 1090.85 268.069 1090.37C268.069 1089.06 268.201 1087.78 268.449 1086.54C269.02 1086.57 269.601 1086.6 270.195 1086.63C269.931 1087.83 269.794 1089.08 269.794 1090.37Z" fill="#CE6326"/>
<path d="M284.946 1090.37C284.946 1090.63 284.991 1090.89 285.076 1091.13L271.202 1091.68C271.168 1091.25 271.15 1090.81 271.15 1090.37C271.15 1089.1 271.295 1087.87 271.57 1086.7C277.764 1087.01 284.373 1087.34 285.195 1087.4C285.947 1087.44 286.259 1087.76 286.394 1088.01C286.394 1088.01 286.394 1088.01 286.394 1088.02L286.441 1088.22C285.567 1088.54 284.944 1089.38 284.944 1090.37H284.946Z" fill="#CE6326"/>
<path d="M287.238 1088.29L286.861 1088.3L286.485 1088.32C286.485 1088.32 286.485 1088.32 286.485 1088.32C286.485 1088.3 286.48 1088.26 286.47 1088.21C286.456 1088.16 286.433 1088.09 286.398 1088.02C286.398 1088.02 286.398 1088.02 286.398 1088.01C286.266 1087.76 285.955 1087.45 285.199 1087.39C284.378 1087.34 277.768 1087.01 271.574 1086.7C271.112 1086.67 270.652 1086.65 270.2 1086.63C269.609 1086.6 269.025 1086.57 268.454 1086.54C268.198 1086.53 267.945 1086.51 267.694 1086.5C267.361 1086.49 267.033 1086.47 266.714 1086.45C266.455 1086.44 266.204 1086.43 265.956 1086.42C265.52 1086.39 265.102 1086.37 264.701 1086.35C264.526 1086.35 264.36 1086.34 264.194 1086.33C264.017 1086.32 263.848 1086.31 263.681 1086.3C263.507 1086.29 263.338 1086.28 263.174 1086.28C261.483 1086.19 260.4 1086.14 260.35 1086.13H260.329C260.329 1086.13 258.969 1086.01 257.74 1086.85C256.858 1087.45 255.939 1088.55 255.466 1089.16C255.088 1089.65 254.808 1090.17 254.637 1090.72C254.457 1091.29 254.449 1091.72 254.613 1091.84C254.901 1092.05 255.371 1092.16 255.817 1092.21C255.976 1092.23 256.132 1092.24 256.274 1092.25C256.504 1092.26 256.7 1092.26 256.826 1092.25L257.598 1092.22L258.049 1092.2L259.819 1092.13L260.353 1092.11L260.842 1092.09L261.378 1092.07L263.298 1091.99L263.75 1091.97L265.189 1091.91L265.641 1091.9L267.377 1091.83L268.13 1091.8L269.854 1091.73L271.21 1091.68L285.083 1091.12L285.447 1091.11L285.471 1091.71L285.476 1091.82V1091.86L285.27 1091.87L271.286 1092.43L269.926 1092.48L268.198 1092.55L267.443 1092.58L265.594 1092.65L265.137 1092.67L263.642 1092.73L263.163 1092.75L260.926 1092.84L260.39 1092.86L259.909 1092.88L259.376 1092.9L258.245 1092.95L257.767 1092.97L256.863 1093C256.826 1093 256.723 1093.01 256.578 1093.01C256.52 1093.01 256.457 1093.01 256.388 1093.01C256.251 1093 256.089 1093 255.918 1092.98C255.347 1092.93 254.647 1092.79 254.177 1092.45C253.704 1092.11 253.62 1091.45 253.923 1090.49C254.124 1089.85 254.446 1089.25 254.88 1088.69C255.487 1087.91 256.404 1086.85 257.32 1086.22C258.396 1085.49 259.523 1085.37 260.073 1085.37C260.245 1085.37 260.361 1085.38 260.398 1085.38C260.437 1085.38 260.588 1085.39 260.839 1085.4C261.013 1085.41 261.232 1085.42 261.494 1085.43C261.719 1085.45 261.975 1085.46 262.26 1085.47C262.656 1085.49 263.105 1085.51 263.599 1085.54C263.763 1085.55 263.932 1085.56 264.104 1085.57C264.273 1085.57 264.445 1085.58 264.622 1085.59C264.788 1085.6 264.957 1085.61 265.129 1085.62C265.443 1085.63 265.765 1085.65 266.101 1085.66C266.352 1085.68 266.608 1085.69 266.867 1085.7C267.189 1085.72 267.519 1085.74 267.855 1085.75C268.106 1085.77 268.362 1085.78 268.621 1085.79C269.194 1085.82 269.783 1085.85 270.38 1085.88C270.837 1085.9 271.302 1085.93 271.764 1085.95C275.642 1086.14 279.662 1086.35 282.309 1086.49C282.597 1086.5 282.869 1086.51 283.123 1086.53C283.638 1086.55 284.076 1086.58 284.422 1086.59C284.824 1086.62 285.104 1086.63 285.239 1086.64H285.244C285.582 1086.66 285.867 1086.73 286.105 1086.83C286.647 1087.04 286.953 1087.41 287.106 1087.76C287.106 1087.76 287.106 1087.76 287.106 1087.77C287.154 1087.88 287.188 1087.98 287.209 1088.08C287.225 1088.16 287.233 1088.23 287.236 1088.29L287.238 1088.29Z" fill="#030303"/>
<path d="M265.637 1091.98C265.637 1092.21 265.621 1092.44 265.589 1092.66C265.262 1095.06 263.204 1096.91 260.723 1096.91C260.034 1096.91 259.379 1096.77 258.785 1096.51C258.647 1096.45 258.51 1096.39 258.378 1096.31L258.605 1095.92C258.737 1095.99 258.874 1096.06 259.014 1096.12C259.54 1096.34 260.119 1096.46 260.723 1096.46C262.95 1096.46 264.799 1094.82 265.132 1092.68C265.167 1092.45 265.185 1092.22 265.185 1091.98C265.185 1091.96 265.185 1091.94 265.185 1091.92L265.637 1091.9C265.637 1091.93 265.637 1091.95 265.637 1091.98ZM258.277 1095.73L258.05 1096.12C257.923 1096.04 257.799 1095.95 257.68 1095.85C256.79 1095.15 256.148 1094.14 255.911 1092.98C255.86 1092.73 255.826 1092.47 255.813 1092.21C255.971 1092.23 256.127 1092.24 256.27 1092.25C256.283 1092.51 256.32 1092.76 256.381 1093.01C256.608 1093.98 257.157 1094.84 257.91 1095.45C258.026 1095.55 258.151 1095.64 258.277 1095.72V1095.73Z" fill="#030303"/>
<path d="M259.2 1094.11L258.973 1094.51C258.846 1094.42 258.725 1094.33 258.611 1094.23C258.231 1093.89 257.935 1093.45 257.76 1092.97C257.673 1092.73 257.618 1092.48 257.594 1092.22L258.046 1092.2C258.072 1092.46 258.138 1092.71 258.239 1092.95C258.379 1093.28 258.587 1093.58 258.843 1093.82C258.954 1093.93 259.073 1094.03 259.2 1094.11V1094.11ZM263.746 1091.97C263.743 1092.24 263.706 1092.49 263.638 1092.74C263.281 1094.05 262.082 1095.02 260.663 1095.02C260.341 1095.02 260.032 1094.97 259.739 1094.87C259.594 1094.83 259.451 1094.77 259.316 1094.7L259.546 1094.31C259.683 1094.38 259.826 1094.43 259.977 1094.47C260.196 1094.53 260.428 1094.56 260.666 1094.56C261.828 1094.56 262.814 1093.81 263.162 1092.76C263.242 1092.52 263.289 1092.26 263.294 1091.99L263.746 1091.97Z" fill="#030303"/>
<path d="M258.773 1099.49C258.773 1100.11 258.269 1100.62 257.648 1100.62H253.057C252.439 1100.62 251.935 1100.11 251.935 1099.49C251.935 1098.86 252.439 1098.36 253.057 1098.36H257.648C257.669 1098.36 257.69 1098.36 257.709 1098.36C258.301 1098.39 258.771 1098.88 258.771 1099.48L258.773 1099.49ZM258.322 1099.49C258.322 1099.12 258.021 1098.81 257.651 1098.81H253.06C252.69 1098.81 252.389 1099.12 252.389 1099.49C252.389 1099.86 252.69 1100.16 253.06 1100.16H257.651C258.021 1100.16 258.322 1099.86 258.322 1099.49Z" fill="#030303"/>
<path d="M258.322 1099.49C258.322 1099.86 258.021 1100.16 257.651 1100.16H253.06C252.691 1100.16 252.389 1099.86 252.389 1099.49C252.389 1099.12 252.691 1098.81 253.06 1098.81H257.651C258.021 1098.81 258.322 1099.12 258.322 1099.49Z" fill="#4F4F4F"/>
<path d="M267.358 1083.88C267.311 1084.03 267.263 1084.19 267.218 1084.34H264.807L265.066 1083.88H267.358ZM267.358 1083.88C267.311 1084.03 267.263 1084.19 267.218 1084.34H264.807L265.066 1083.88H267.358ZM267.358 1083.88C267.311 1084.03 267.263 1084.19 267.218 1084.34H264.807L265.066 1083.88H267.358ZM267.358 1083.88C267.311 1084.03 267.263 1084.19 267.218 1084.34H264.807L265.066 1083.88H267.358ZM267.358 1083.88C267.311 1084.03 267.263 1084.19 267.218 1084.34H264.807L265.066 1083.88H267.358ZM267.358 1083.88C267.311 1084.03 267.263 1084.19 267.218 1084.34H264.807L265.066 1083.88H267.358ZM267.358 1083.88C267.311 1084.03 267.263 1084.19 267.218 1084.34H264.807L265.066 1083.88H267.358ZM267.358 1083.88C267.311 1084.03 267.263 1084.19 267.218 1084.34H264.807L265.066 1083.88H267.358ZM267.358 1083.88C267.311 1084.03 267.263 1084.19 267.218 1084.34H264.807L265.066 1083.88H267.358ZM267.358 1083.88C267.311 1084.03 267.263 1084.19 267.218 1084.34H264.807L265.066 1083.88H267.358ZM267.358 1083.88C267.311 1084.03 267.263 1084.19 267.218 1084.34H264.807L265.066 1083.88H267.358ZM263.689 1083.21C263.689 1083.58 263.99 1083.88 264.36 1083.88H267.358C267.311 1084.03 267.263 1084.18 267.218 1084.33H264.36C264.334 1084.33 264.31 1084.33 264.286 1084.33C263.703 1084.29 263.238 1083.8 263.238 1083.2C263.238 1082.61 263.742 1082.08 264.36 1082.08H268.035C267.969 1082.22 267.908 1082.38 267.847 1082.53H264.363C263.993 1082.53 263.692 1082.83 263.692 1083.2L263.689 1083.21ZM269.775 1082.44C269.701 1082.6 269.63 1082.77 269.564 1082.93C269.458 1082.7 269.226 1082.53 268.951 1082.53H268.912C268.975 1082.39 269.038 1082.24 269.107 1082.09C269.371 1082.13 269.606 1082.26 269.775 1082.44ZM269.21 1083.83C269.149 1084 269.094 1084.16 269.036 1084.33C269.007 1084.33 268.978 1084.34 268.949 1084.34H268.241C268.288 1084.19 268.338 1084.03 268.389 1083.88H268.946C269.038 1083.88 269.126 1083.86 269.207 1083.83H269.21ZM267.358 1083.88C267.311 1084.03 267.263 1084.19 267.218 1084.34H264.807L265.066 1083.88H267.358ZM267.358 1083.88C267.311 1084.03 267.263 1084.19 267.218 1084.34H264.807L265.066 1083.88H267.358ZM267.358 1083.88C267.311 1084.03 267.263 1084.19 267.218 1084.34H264.807L265.066 1083.88H267.358ZM267.358 1083.88C267.311 1084.03 267.263 1084.19 267.218 1084.34H264.807L265.066 1083.88H267.358ZM267.358 1083.88C267.311 1084.03 267.263 1084.19 267.218 1084.34H264.807L265.066 1083.88H267.358ZM267.358 1083.88C267.311 1084.03 267.263 1084.19 267.218 1084.34H264.807L265.066 1083.88H267.358ZM267.358 1083.88C267.311 1084.03 267.263 1084.19 267.218 1084.34H264.807L265.066 1083.88H267.358ZM267.358 1083.88C267.311 1084.03 267.263 1084.19 267.218 1084.34H264.807L265.066 1083.88H267.358ZM267.358 1083.88C267.311 1084.03 267.263 1084.19 267.218 1084.34H264.807L265.066 1083.88H267.358ZM267.358 1083.88C267.311 1084.03 267.263 1084.19 267.218 1084.34H264.807L265.066 1083.88H267.358Z" fill="#030303"/>
<path d="M258.613 1094.23L257.913 1095.46C257.16 1094.84 256.611 1093.99 256.384 1093.01C256.453 1093.01 256.516 1093.01 256.574 1093.01C256.719 1093.01 256.822 1093.01 256.859 1093.01L257.763 1092.97C257.937 1093.46 258.233 1093.89 258.613 1094.23Z" fill="#5D5D5D"/>
<path d="M260.348 1092.11L259.904 1092.88L259.199 1094.11L258.974 1094.51L258.277 1095.73L258.05 1096.12L256.768 1098.36L256.515 1098.8L256.121 1098.57L256.248 1098.36L257.682 1095.86L257.91 1095.46L258.612 1094.23L258.842 1093.83L259.37 1092.91L259.814 1092.13L260.348 1092.11Z" fill="#030303"/>
<path d="M267.029 1082.53C266.86 1082.98 266.704 1083.43 266.567 1083.88H264.359C263.989 1083.88 263.688 1083.58 263.688 1083.21C263.688 1082.84 263.989 1082.54 264.359 1082.54H267.029V1082.53Z" fill="#4F4F4F"/>
<path d="M265.064 1083.88L264.805 1084.34L264.102 1085.57L263.682 1086.3C263.508 1086.29 263.339 1086.28 263.175 1086.28L263.598 1085.54L264.287 1084.33L264.546 1083.89H265.066L265.064 1083.88Z" fill="#030303"/>
<path d="M265.131 1092.67C264.798 1094.82 262.949 1096.46 260.722 1096.46C260.117 1096.46 259.539 1096.34 259.013 1096.12L259.737 1094.87C260.03 1094.97 260.339 1095.02 260.661 1095.02C262.08 1095.02 263.279 1094.05 263.636 1092.74L265.131 1092.68V1092.67Z" fill="#4F4F4F"/>
<path d="M260.385 1092.87L259.545 1094.31L259.315 1094.7L258.604 1095.92L258.377 1096.32L257.189 1098.36H256.769L258.05 1096.12L258.277 1095.73L258.974 1094.51L259.199 1094.11L259.904 1092.88L260.385 1092.87Z" fill="#5D5D5D"/>
<path d="M261.373 1092.07L260.921 1092.84L259.973 1094.47L259.738 1094.87L259.017 1096.12L258.784 1096.51L257.709 1098.36L257.514 1098.7L257.123 1098.47L257.189 1098.36L258.378 1096.32L258.605 1095.92L259.315 1094.7L259.545 1094.31L260.385 1092.87L260.837 1092.09L261.373 1092.07Z" fill="#030303"/>
<path d="M267.317 1090.37C267.317 1090.86 267.335 1091.35 267.372 1091.83L265.637 1091.9L265.185 1091.92L263.746 1091.97L263.294 1091.99L261.374 1092.07L260.837 1092.09L260.349 1092.11L259.815 1092.13L258.045 1092.2L257.594 1092.22L256.822 1092.25C256.695 1092.26 256.5 1092.26 256.27 1092.25C256.128 1092.24 255.972 1092.23 255.813 1092.21C255.367 1092.16 254.897 1092.05 254.609 1091.84C254.442 1091.72 254.45 1091.29 254.632 1090.72C254.807 1090.17 255.084 1089.65 255.462 1089.16C255.935 1088.56 256.854 1087.46 257.736 1086.85C258.965 1086.01 260.312 1086.13 260.325 1086.13H260.346C260.396 1086.14 261.479 1086.19 263.17 1086.28C263.334 1086.28 263.503 1086.29 263.677 1086.3C263.843 1086.31 264.012 1086.32 264.189 1086.33C264.356 1086.33 264.525 1086.34 264.697 1086.35C265.095 1086.37 265.515 1086.39 265.951 1086.42C266.2 1086.43 266.451 1086.44 266.709 1086.45C267.029 1086.47 267.357 1086.49 267.689 1086.5C267.441 1087.75 267.314 1089.05 267.314 1090.37H267.317Z" fill="#CE6326"/>
<path d="M265.35 1084.34L264.621 1085.59C264.444 1085.58 264.272 1085.57 264.103 1085.56L264.805 1084.33H265.35V1084.34Z" fill="#5D5D5D"/>
<path d="M265.9 1084.29L265.871 1084.33L265.126 1085.61L264.699 1086.35C264.524 1086.34 264.358 1086.33 264.191 1086.32L264.619 1085.59L265.348 1084.34L265.509 1084.06L265.9 1084.29V1084.29Z" fill="#030303"/>
<path d="M266.395 1060.77L266.334 1061.03L260.831 1085.4L260.734 1085.84L259.997 1085.67L260.065 1085.37H260.068L260.509 1083.4L260.691 1082.59L260.905 1081.66L261.085 1080.85L265.581 1060.95L265.66 1060.6L266.395 1060.77Z" fill="#030303"/>
<path d="M267.973 1060.89L267.899 1061.2L266.396 1067.66L266.224 1068.41L265.96 1069.55L265.785 1070.29L262.254 1085.47L262.164 1085.87L261.43 1085.7L261.49 1085.43L267.143 1061.12L267.238 1060.72L267.973 1060.89Z" fill="#030303"/>
<path d="M274.462 1059.58C274.002 1060.61 272.956 1060.99 272.451 1061.17C271.865 1061.38 271.323 1061.44 270.851 1061.44C270.547 1061.44 270.275 1061.42 270.034 1061.4C269.189 1061.33 268.492 1061.26 267.9 1061.2C267.628 1061.17 267.377 1061.15 267.145 1061.12C266.849 1061.09 266.585 1061.06 266.336 1061.03C266.064 1061 265.818 1060.97 265.583 1060.94C265.47 1060.93 265.359 1060.92 265.251 1060.9C264.971 1060.87 264.698 1060.84 264.408 1060.8L263.964 1060.75C262.231 1060.56 261.085 1060.43 260.435 1059.58C260.292 1059.39 259.912 1058.9 259.973 1058.22C259.981 1058.14 260.055 1057.47 260.58 1057.07C260.863 1056.85 261.183 1056.77 261.51 1056.77C261.872 1056.77 262.245 1056.86 262.596 1056.95C262.665 1056.96 262.736 1056.98 262.805 1057C262.818 1057 264.078 1057.28 265.958 1057.28H265.964C266.738 1057.28 268.014 1056.93 270.557 1056.23L270.948 1056.12C272.248 1055.76 272.684 1055.64 273.26 1055.92C274.438 1056.5 275.032 1058.31 274.464 1059.58L274.462 1059.58ZM272.927 1056.6C272.62 1056.45 272.354 1056.51 271.149 1056.85L270.755 1056.96C268.148 1057.68 266.838 1058.04 265.961 1058.04H265.956C263.983 1058.04 262.688 1057.74 262.633 1057.73C262.561 1057.72 262.49 1057.7 262.416 1057.68C261.864 1057.55 261.346 1057.42 261.035 1057.66C260.76 1057.87 260.72 1058.28 260.718 1058.29C260.683 1058.67 260.916 1058.97 261.027 1059.12C261.484 1059.71 262.501 1059.83 264.043 1060L264.49 1060.05C264.78 1060.09 265.055 1060.12 265.338 1060.15C266.394 1060.28 267.591 1060.43 270.098 1060.64C270.671 1060.69 271.387 1060.75 272.195 1060.46C272.631 1060.3 273.445 1060 273.775 1059.27C274.216 1058.29 273.666 1056.96 272.927 1056.6V1056.6Z" fill="#030303"/>
<path d="M273.774 1059.27C273.444 1060.01 272.63 1060.3 272.194 1060.46C271.386 1060.76 270.673 1060.7 270.097 1060.65C267.593 1060.43 266.394 1060.29 265.337 1060.16C265.054 1060.12 264.78 1060.09 264.489 1060.06L264.043 1060.01C262.5 1059.83 261.483 1059.71 261.026 1059.12C260.915 1058.98 260.685 1058.68 260.717 1058.29C260.717 1058.29 260.759 1057.88 261.034 1057.67C261.346 1057.43 261.863 1057.55 262.415 1057.69C262.487 1057.7 262.558 1057.72 262.632 1057.74C262.688 1057.75 263.982 1058.04 265.955 1058.04H265.96C266.835 1058.04 268.145 1057.68 270.755 1056.96L271.148 1056.85C272.353 1056.52 272.62 1056.45 272.926 1056.61C273.666 1056.97 274.215 1058.3 273.774 1059.27V1059.27Z" fill="#7C5039"/>
<path d="M267.142 1061.12L261.489 1085.43C261.228 1085.42 261.006 1085.41 260.834 1085.4L266.336 1061.03C266.585 1061.06 266.849 1061.09 267.145 1061.12H267.142Z" fill="#CE6326"/>
<path d="M261.148 1082.94L260.697 1083.54L260.509 1083.4L236.125 1065.11L235.51 1064.65L235.959 1064.05L236.366 1064.35L260.691 1082.59L261.148 1082.94Z" fill="#030303"/>
<path d="M261.607 1081.24L261.161 1081.84L260.905 1081.66L236.574 1063.68L236.074 1063.31L236.521 1062.7L236.814 1062.92L261.084 1080.85L261.607 1081.24Z" fill="#030303"/>
<path d="M274.098 1075.36C271.995 1077.21 270.283 1079.51 269.105 1082.09C269.039 1082.24 268.973 1082.38 268.91 1082.53C268.722 1082.98 268.548 1083.43 268.392 1083.88C268.342 1084.03 268.292 1084.18 268.244 1084.34C268.096 1084.8 267.967 1085.27 267.853 1085.75C267.518 1085.74 267.187 1085.72 266.865 1085.7C266.966 1085.24 267.084 1084.79 267.216 1084.34C267.261 1084.18 267.309 1084.03 267.356 1083.88C267.504 1083.43 267.666 1082.98 267.843 1082.53C267.903 1082.38 267.964 1082.23 268.03 1082.08C269.24 1079.24 271.06 1076.73 273.308 1074.71C273.572 1074.92 273.836 1075.14 274.095 1075.36H274.098Z" fill="#CE6326"/>
<path d="M283.142 1086.52L283.123 1086.53L282.447 1086.81C282.402 1086.7 282.355 1086.59 282.31 1086.48C280.971 1083.37 279.119 1080.52 276.866 1078.04C276.562 1077.71 276.25 1077.38 275.931 1077.05C275.521 1076.64 275.104 1076.24 274.673 1075.86C274.486 1075.69 274.293 1075.52 274.1 1075.36C273.841 1075.14 273.58 1074.92 273.313 1074.7C273.104 1074.54 272.893 1074.38 272.681 1074.21C270.574 1072.62 268.26 1071.29 265.787 1070.29C265.66 1070.24 265.534 1070.19 265.407 1070.14L265.679 1069.43C265.771 1069.47 265.866 1069.51 265.961 1069.54C268.584 1070.59 271.038 1072 273.263 1073.7C273.477 1073.87 273.688 1074.03 273.897 1074.2C274.163 1074.42 274.428 1074.64 274.686 1074.86C274.879 1075.03 275.069 1075.2 275.26 1075.37C275.69 1075.76 276.11 1076.16 276.517 1076.57C276.839 1076.9 277.151 1077.23 277.455 1077.57C279.829 1080.19 281.768 1083.21 283.145 1086.52H283.142Z" fill="#030303"/>
<path d="M283.124 1086.53L283.142 1086.52C281.766 1083.21 279.827 1080.19 277.452 1077.57C277.148 1077.23 276.834 1076.9 276.514 1076.58C276.108 1076.16 275.688 1075.76 275.257 1075.37C275.067 1075.2 274.877 1075.03 274.684 1074.86C274.425 1074.64 274.161 1074.42 273.894 1074.2C273.685 1074.03 273.474 1073.87 273.26 1073.7C271.039 1072 268.582 1070.6 265.959 1069.54L266.223 1068.4C269.15 1069.46 271.876 1070.98 274.319 1072.86C274.536 1073.02 274.75 1073.19 274.959 1073.36C275.231 1073.58 275.5 1073.81 275.764 1074.04C275.96 1074.21 276.153 1074.38 276.343 1074.55C276.776 1074.95 277.199 1075.36 277.611 1075.78C277.93 1076.11 278.245 1076.45 278.548 1076.79C281.087 1079.64 283.1 1082.96 284.426 1086.59C284.077 1086.57 283.639 1086.55 283.126 1086.52L283.124 1086.53Z" fill="#CE6326"/>
<path d="M306.456 1082.07C306.443 1082.11 306.416 1082.16 306.321 1082.19C305.822 1082.38 305.46 1082.16 305.328 1082.06C302.179 1075.18 295.248 1070.39 287.225 1070.39C283.245 1070.39 279.533 1071.57 276.419 1073.6C276.155 1073.36 275.883 1073.13 275.611 1072.91C278.979 1070.62 283.02 1069.29 287.302 1069.29C295.253 1069.29 302.649 1073.89 306.144 1081.02L306.163 1081.05C306.329 1081.32 306.54 1081.83 306.458 1082.07L306.456 1082.07Z" fill="#CE6326"/>
<path d="M285.305 1086.83L284.594 1087.08C284.539 1086.92 284.481 1086.75 284.425 1086.6C283.099 1082.97 281.086 1079.64 278.548 1076.8C278.241 1076.45 277.93 1076.12 277.61 1075.79C277.198 1075.37 276.775 1074.96 276.342 1074.56C276.152 1074.39 275.959 1074.21 275.764 1074.04C275.499 1073.82 275.233 1073.59 274.958 1073.37C274.747 1073.2 274.533 1073.03 274.319 1072.86C271.878 1070.98 269.149 1069.47 266.222 1068.41C266.077 1068.36 265.929 1068.31 265.781 1068.25L266.027 1067.54C266.148 1067.58 266.273 1067.63 266.394 1067.67C269.466 1068.77 272.372 1070.38 274.963 1072.4C275.18 1072.56 275.396 1072.74 275.608 1072.91C275.882 1073.13 276.152 1073.37 276.416 1073.6C276.611 1073.77 276.807 1073.95 276.997 1074.12C277.296 1074.4 277.586 1074.68 277.871 1074.96C278.006 1075.1 278.138 1075.23 278.268 1075.37C278.59 1075.7 278.902 1076.04 279.208 1076.39C281.847 1079.39 283.913 1082.89 285.236 1086.64C285.26 1086.71 285.281 1086.77 285.302 1086.83L285.305 1086.83Z" fill="#030303"/>
<path d="M248.498 1090.54C248.498 1092.21 248.303 1093.88 247.917 1095.49C247.869 1095.62 247.518 1096.45 247.045 1096.35C246.615 1096.26 246.652 1095.43 246.665 1095.23C247.003 1093.77 247.183 1092.25 247.183 1090.69C247.183 1082.04 241.672 1074.66 233.991 1071.89C234.133 1071.43 234.276 1070.98 234.416 1070.53C242.613 1073.46 248.498 1081.32 248.498 1090.54Z" fill="#CE6326"/>
<path d="M232.295 1069.9C232.15 1070.37 232.01 1070.82 231.872 1071.26C230.398 1070.91 228.856 1070.72 227.276 1070.72C221.98 1070.72 217.159 1072.81 213.59 1076.2L213.577 1076.16C212.803 1076.42 212.011 1076.48 211.902 1076.34C211.789 1076.19 212.114 1075.78 212.317 1075.61L212.341 1075.58C216.343 1071.54 221.671 1069.32 227.347 1069.32C229.051 1069.32 230.707 1069.52 232.292 1069.9H232.295Z" fill="#CE6326"/>
<path d="M237.916 1056.81C237.903 1056.89 237.876 1057.02 237.816 1057.21C237.718 1057.54 235.964 1063.11 233.927 1069.57C233.851 1069.81 233.777 1070.05 233.7 1070.3C233.558 1070.74 233.418 1071.19 233.275 1071.64C233.198 1071.88 233.122 1072.12 233.048 1072.37C232.873 1072.91 232.702 1073.47 232.527 1074.01C232.39 1074.45 232.255 1074.88 232.118 1075.31C230.396 1080.78 228.75 1086 227.96 1088.51C227.759 1088.45 227.545 1088.41 227.321 1088.41C227.905 1086.5 229.558 1081.19 231.455 1075.12C231.59 1074.69 231.724 1074.26 231.862 1073.82C232.031 1073.27 232.202 1072.72 232.377 1072.17C232.453 1071.93 232.527 1071.69 232.601 1071.44C232.744 1071 232.884 1070.54 233.024 1070.09C233.101 1069.85 233.174 1069.61 233.251 1069.37C234.675 1064.81 236.093 1060.27 237.195 1056.75L237.205 1056.71C237.213 1056.68 237.24 1056.62 237.264 1056.61C237.282 1056.6 237.34 1056.59 237.451 1056.63L237.913 1056.81L237.916 1056.81Z" fill="#CE6326"/>
<path d="M260.906 1081.66L260.695 1082.59L236.367 1064.35C236.438 1064.12 236.509 1063.9 236.575 1063.68L260.906 1081.66Z" fill="#CE6326"/>
<path d="M238.537 1057.43C238.476 1057.64 237.797 1059.79 236.815 1062.92C236.735 1063.17 236.656 1063.42 236.574 1063.68C236.506 1063.9 236.437 1064.12 236.366 1064.35C236.286 1064.6 236.207 1064.86 236.125 1065.11C235.663 1066.57 235.164 1068.16 234.643 1069.82C234.567 1070.05 234.493 1070.3 234.416 1070.54C234.276 1070.98 234.134 1071.44 233.991 1071.89C233.914 1072.13 233.838 1072.37 233.764 1072.61C233.589 1073.16 233.418 1073.71 233.243 1074.26C233.106 1074.69 232.971 1075.12 232.834 1075.56C231.378 1080.18 229.981 1084.62 229.101 1087.4C228.927 1087.96 228.771 1088.45 228.642 1088.86C228.589 1089.03 228.541 1089.18 228.497 1089.32C228.333 1089.84 228.225 1090.18 228.19 1090.3L227.622 1090.12L227.472 1090.07C227.477 1090.06 227.501 1089.98 227.54 1089.85C227.577 1089.73 227.633 1089.56 227.699 1089.35C227.736 1089.23 227.778 1089.1 227.823 1088.95C227.865 1088.82 227.913 1088.67 227.96 1088.52C228.75 1086.01 230.396 1080.79 232.118 1075.32C232.255 1074.89 232.39 1074.45 232.528 1074.02C232.702 1073.47 232.874 1072.92 233.048 1072.37C233.125 1072.13 233.198 1071.89 233.275 1071.65C233.418 1071.2 233.558 1070.75 233.7 1070.3C233.777 1070.06 233.851 1069.82 233.928 1069.58C235.964 1063.12 237.718 1057.55 237.816 1057.22C237.874 1057.02 237.903 1056.89 237.916 1056.81L237.454 1056.64C237.343 1056.59 237.285 1056.6 237.266 1056.61C237.24 1056.62 237.216 1056.68 237.208 1056.71L237.198 1056.76C236.096 1060.27 234.678 1064.81 233.254 1069.38C233.177 1069.62 233.103 1069.86 233.027 1070.1C232.887 1070.55 232.747 1071 232.604 1071.45C232.53 1071.69 232.456 1071.93 232.38 1072.17C232.205 1072.72 232.034 1073.28 231.865 1073.82C231.727 1074.26 231.592 1074.69 231.458 1075.12C229.561 1081.2 227.908 1086.51 227.324 1088.41C227.281 1088.55 227.245 1088.67 227.213 1088.78C227.147 1088.99 227.11 1089.12 227.099 1089.15L226.774 1089.07H226.354C226.354 1089.06 226.354 1089.04 226.428 1088.79C226.447 1088.73 226.471 1088.65 226.5 1088.55C226.568 1088.32 226.669 1087.98 226.822 1087.5C227.337 1085.82 228.425 1082.31 230.726 1074.94C230.858 1074.52 230.993 1074.09 231.133 1073.64C231.299 1073.11 231.471 1072.55 231.648 1071.98C231.725 1071.74 231.798 1071.5 231.875 1071.26C232.012 1070.82 232.155 1070.37 232.298 1069.9C232.372 1069.66 232.446 1069.43 232.525 1069.18C233.632 1065.64 234.937 1061.47 236.477 1056.54C236.503 1056.44 236.598 1056.12 236.897 1055.95C236.992 1055.89 237.126 1055.84 237.306 1055.84C237.428 1055.84 237.568 1055.87 237.726 1055.92L237.752 1055.93L238.294 1056.14L238.349 1056.15C238.437 1056.18 238.513 1056.23 238.574 1056.3C238.611 1056.35 238.637 1056.4 238.656 1056.46C238.725 1056.66 238.688 1056.96 238.548 1057.42L238.537 1057.43Z" fill="#030303"/>
<path d="M244.377 1050.11C243.672 1050.25 241.466 1050.84 239.989 1052.93C238.975 1054.37 238.434 1055.47 238.156 1056.14L237.615 1055.94C237.8 1055.33 238.333 1053.74 238.959 1053.04C239.028 1052.96 239.062 1052.86 239.052 1052.76C239.041 1052.65 238.988 1052.56 238.904 1052.49C238.592 1052.26 237.554 1051.45 237.345 1050.85C237.306 1050.73 237.255 1050.6 237.203 1050.47C236.891 1049.69 236.54 1048.8 237.329 1047.74C238.006 1046.83 238.603 1046.19 238.898 1045.89C238.927 1045.86 238.962 1045.85 238.98 1045.85C238.999 1045.85 239.031 1045.86 239.06 1045.89L239.398 1046.27C239.411 1046.29 239.414 1046.3 239.414 1046.32C239.414 1046.33 239.408 1046.34 239.39 1046.36C238.896 1046.78 237.559 1048.2 237.62 1049.02C237.686 1049.92 237.855 1050.82 239.168 1051.76C239.416 1051.93 239.754 1051.89 239.958 1051.67C240.391 1051.18 241.683 1050 244.324 1049.54L244.366 1050.11H244.377Z" fill="#4F4F4F"/>
<path d="M244.832 1050.12C244.848 1050.33 244.706 1050.51 244.502 1050.55C244.494 1050.55 244.489 1050.55 244.484 1050.56C243.842 1050.68 241.755 1051.22 240.363 1053.19C239.293 1054.71 238.765 1055.84 238.522 1056.46C238.387 1056.8 238.342 1056.99 238.34 1056.99L237.901 1056.89C237.906 1056.86 237.97 1056.61 238.163 1056.14C238.437 1055.47 238.982 1054.37 239.996 1052.93C241.472 1050.84 243.678 1050.25 244.383 1050.11L244.341 1049.54C241.7 1050 240.408 1051.18 239.975 1051.66C239.771 1051.89 239.431 1051.93 239.185 1051.75C237.872 1050.81 237.703 1049.92 237.637 1049.01C237.579 1048.2 238.915 1046.78 239.407 1046.36C239.425 1046.34 239.428 1046.32 239.431 1046.31C239.431 1046.3 239.431 1046.29 239.415 1046.27L239.077 1045.89C239.048 1045.85 239.016 1045.85 238.997 1045.85C238.979 1045.85 238.945 1045.85 238.915 1045.88C238.62 1046.19 238.02 1046.82 237.346 1047.73C236.557 1048.8 236.908 1049.68 237.22 1050.47C237.27 1050.6 237.32 1050.73 237.362 1050.84C237.571 1051.45 238.609 1052.26 238.921 1052.49C239.005 1052.55 239.058 1052.65 239.069 1052.75C239.079 1052.86 239.045 1052.96 238.976 1053.04C238.35 1053.74 237.817 1055.33 237.632 1055.93C237.587 1056.08 237.563 1056.17 237.56 1056.17L237.125 1056.05C237.13 1056.04 237.148 1055.96 237.185 1055.84C237.362 1055.26 237.899 1053.62 238.58 1052.8C238.112 1052.45 237.167 1051.67 236.937 1050.99C236.897 1050.88 236.85 1050.76 236.802 1050.64C236.483 1049.84 236.047 1048.73 236.99 1047.47C237.682 1046.54 238.295 1045.88 238.599 1045.57C238.709 1045.46 238.86 1045.39 239.013 1045.4C239.024 1045.4 239.037 1045.4 239.048 1045.4C239.19 1045.41 239.325 1045.48 239.42 1045.59L239.497 1045.68L239.758 1045.97C239.787 1046.01 239.814 1046.05 239.835 1046.09C239.874 1046.17 239.895 1046.26 239.888 1046.35C239.882 1046.44 239.853 1046.52 239.808 1046.59C239.782 1046.64 239.748 1046.67 239.708 1046.71C239.034 1047.29 238.06 1048.5 238.097 1048.98C238.157 1049.84 238.297 1050.56 239.457 1051.39C239.515 1051.43 239.6 1051.43 239.647 1051.37C240.115 1050.84 241.502 1049.57 244.299 1049.09C244.302 1049.09 244.304 1049.09 244.304 1049.09C244.312 1049.09 244.323 1049.09 244.331 1049.09C244.442 1049.07 244.555 1049.1 244.645 1049.17C244.722 1049.23 244.772 1049.31 244.79 1049.4C244.793 1049.42 244.796 1049.44 244.798 1049.46L244.846 1050.09V1050.12L244.832 1050.12Z" fill="#030303"/>
<path d="M244.898 1043.83C244.478 1044.06 240.807 1045.66 239.821 1046.09C239.803 1046.05 239.777 1046.01 239.745 1045.97L239.483 1045.67L244.304 1043.04C244.412 1043 244.714 1042.91 244.89 1042.98C244.949 1043.01 244.983 1043.05 245.009 1043.11L245.015 1043.13C245.15 1043.47 245.112 1043.71 244.898 1043.82V1043.83Z" fill="#4F4F4F"/>
<path d="M245.114 1044.22C244.628 1044.49 240.269 1046.38 239.791 1046.59C239.775 1046.6 239.762 1046.6 239.754 1046.61L239.574 1046.19C239.574 1046.19 239.667 1046.15 239.817 1046.09C240.803 1045.66 244.474 1044.06 244.894 1043.83C245.109 1043.71 245.148 1043.48 245.011 1043.13L245.005 1043.11C244.979 1043.05 244.945 1043.01 244.887 1042.98C244.71 1042.91 244.406 1043 244.3 1043.04L239.479 1045.68L239.191 1045.83L238.975 1045.43L239.03 1045.4L244.115 1042.63C244.171 1042.6 244.67 1042.4 245.061 1042.57C245.23 1042.64 245.357 1042.77 245.425 1042.94L245.433 1042.96C245.634 1043.48 245.779 1043.85 245.111 1044.22L245.114 1044.22Z" fill="#030303"/>
<path d="M251.293 1049.12C251.274 1049.68 251.264 1049.69 251.005 1049.75C250.749 1049.8 247.307 1049.97 244.829 1050.09L244.781 1049.45C244.781 1049.44 244.776 1049.42 244.774 1049.4C245.439 1049.2 247.204 1048.78 250.823 1048.7H250.841C250.902 1048.69 251.089 1048.7 251.192 1048.8C251.264 1048.87 251.295 1048.98 251.293 1049.13V1049.12Z" fill="#4F4F4F"/>
<path d="M251.745 1049.14C251.719 1049.93 251.589 1050.07 251.119 1050.19C250.773 1050.27 245.559 1050.51 244.484 1050.55H244.47L244.452 1050.1C244.576 1050.1 244.7 1050.09 244.83 1050.08C247.305 1049.97 250.749 1049.8 251.006 1049.75C251.264 1049.69 251.275 1049.68 251.294 1049.12C251.299 1048.97 251.264 1048.86 251.193 1048.8C251.087 1048.7 250.903 1048.69 250.842 1048.7H250.823C247.204 1048.78 245.44 1049.19 244.774 1049.4C244.552 1049.47 244.452 1049.51 244.449 1049.51L244.254 1049.1C244.254 1049.1 244.267 1049.1 244.283 1049.09C244.286 1049.09 244.288 1049.09 244.288 1049.09C244.544 1048.98 246.193 1048.36 250.802 1048.25C250.881 1048.24 251.238 1048.22 251.5 1048.47C251.618 1048.58 251.758 1048.78 251.745 1049.14Z" fill="#030303"/>
<path d="M223.023 1075L227.793 1090.59L227.2 1090.77L222.43 1075.18L223.023 1075Z" fill="#030303"/>
<path d="M226.398 1091.03L226.873 1091.43L216.971 1103.22L216.497 1102.82L226.398 1091.03Z" fill="#030303"/>
<path d="M242.115 1083.21L242.406 1083.76L229.332 1090.72L229.041 1090.17L242.115 1083.21Z" fill="#030303"/>
<path d="M229.028 1091.11L243.904 1093.74L243.797 1094.35L228.921 1091.72L229.028 1091.11Z" fill="#030303"/>
<path d="M228.045 1091.37L242.021 1097.72L241.765 1098.29L227.789 1091.94L228.045 1091.37Z" fill="#030303"/>
<path d="M227.797 1090.61L231.676 1106.32L231.073 1106.47L227.195 1090.76L227.797 1090.61Z" fill="#030303"/>
<path d="M211.96 1084.02L225.83 1090.06L225.583 1090.63L211.712 1084.59L211.96 1084.02Z" fill="#030303"/>
<path d="M283.863 1074.22L287.506 1089.25L286.903 1089.4L283.259 1074.37L283.863 1074.22Z" fill="#030303"/>
<path d="M298.298 1077.69L298.764 1078.1L288.792 1089.45L288.327 1089.03L298.298 1077.69Z" fill="#030303"/>
<path d="M302.848 1084.86L303.061 1085.44L288.974 1090.6L288.761 1090.02L302.848 1084.86Z" fill="#030303"/>
<path d="M288.646 1091.57L302.004 1098.65L301.714 1099.2L288.356 1092.12L288.646 1091.57Z" fill="#030303"/>
<path d="M288.179 1092.47L290.896 1106.78L290.286 1106.9L287.568 1092.59L288.179 1092.47Z" fill="#030303"/>
<path d="M286.741 1092.24L287.232 1092.62L278.2 1104.36L277.709 1103.98L286.741 1092.24Z" fill="#030303"/>
<path d="M286.096 1091.81L286.48 1092.29L274.785 1101.56L274.4 1101.07L286.096 1091.81Z" fill="#030303"/>
<path d="M227.399 1090.38L227.594 1090.98L211.813 1096.2L211.618 1095.61L227.399 1090.38Z" fill="#030303"/>
<path d="M59.2704 1704.81C66.1539 1704.81 71.7341 1699.2 71.7341 1692.28C71.7341 1685.36 66.1539 1679.75 59.2704 1679.75C52.3869 1679.75 46.8066 1685.36 46.8066 1692.28C46.8066 1699.2 52.3869 1704.81 59.2704 1704.81Z" fill="#CE6326"/>
<path d="M59.2697 1705.06C52.2581 1705.06 46.5547 1699.33 46.5547 1692.28C46.5547 1685.23 52.2581 1679.5 59.2697 1679.5C66.2813 1679.5 71.9848 1685.23 71.9848 1692.28C71.9848 1699.33 66.2813 1705.06 59.2697 1705.06ZM59.2697 1680C52.5344 1680 47.0573 1685.51 47.0573 1692.28C47.0573 1699.05 52.5361 1704.55 59.2697 1704.55C66.0034 1704.55 71.4822 1699.05 71.4822 1692.28C71.4822 1685.51 66.0034 1680 59.2697 1680Z" fill="#030303"/>
<path d="M59.2696 1692.8C59.2113 1692.8 59.1548 1692.78 59.1065 1692.74L53.9523 1688.34C53.8474 1688.25 53.8324 1688.09 53.9223 1687.98C54.0155 1687.88 54.1703 1687.87 54.2768 1687.95L59.431 1692.35C59.5359 1692.44 59.5509 1692.6 59.461 1692.71C59.4111 1692.77 59.3412 1692.8 59.2696 1692.8Z" fill="#030303"/>
<path d="M59.2805 1697.03C59.2223 1697.03 59.1657 1697.01 59.1191 1696.97C59.0126 1696.88 58.9993 1696.73 59.0875 1696.62L64.8958 1689.68C64.9857 1689.58 65.1471 1689.56 65.2486 1689.65C65.3551 1689.74 65.3684 1689.9 65.2802 1690L59.4719 1696.94C59.4237 1697 59.3521 1697.03 59.2805 1697.03Z" fill="#030303"/>
<path d="M59.1654 1699.83C59.1138 1699.83 59.0606 1699.82 59.0156 1699.78L55.246 1696.96C55.1345 1696.88 55.1112 1696.72 55.1944 1696.61C55.2776 1696.5 55.4358 1696.47 55.5456 1696.56L59.3152 1699.38C59.4267 1699.46 59.45 1699.62 59.3668 1699.73C59.3185 1699.8 59.2419 1699.83 59.1654 1699.83V1699.83Z" fill="#030303"/>
<path d="M59.271 1758.82C59.1328 1758.82 59.0195 1758.7 59.0195 1758.56V1685.01C59.0195 1684.87 59.1311 1684.75 59.271 1684.75C59.4109 1684.75 59.5225 1684.87 59.5225 1685.01V1758.56C59.5225 1758.7 59.4109 1758.82 59.271 1758.82Z" fill="#030303"/>
<path d="M83.8575 1706.97C83.7992 1706.97 83.7427 1706.95 83.6944 1706.91L78.5401 1702.52C78.4353 1702.43 78.4203 1702.26 78.5102 1702.16C78.6017 1702.05 78.7598 1702.04 78.8647 1702.13L84.0189 1706.53C84.1238 1706.62 84.1388 1706.78 84.0489 1706.88C83.999 1706.94 83.9291 1706.97 83.8575 1706.97Z" fill="#030303"/>
<path d="M83.8665 1711.21C83.8082 1711.21 83.7516 1711.19 83.705 1711.15C83.5985 1711.06 83.5852 1710.9 83.6734 1710.8L89.4817 1703.86C89.5716 1703.75 89.7314 1703.74 89.8346 1703.83C89.9411 1703.92 89.9544 1704.08 89.8662 1704.18L84.0579 1711.12C84.0096 1711.18 83.938 1711.21 83.8665 1711.21Z" fill="#030303"/>
<path d="M83.751 1714.01C83.6994 1714.01 83.6462 1713.99 83.6013 1713.96L79.83 1711.14C79.7185 1711.05 79.6952 1710.9 79.7784 1710.79C79.8616 1710.67 80.0198 1710.65 80.1296 1710.73L83.9008 1713.55C84.0123 1713.64 84.0356 1713.8 83.9524 1713.91C83.9042 1713.97 83.8276 1714.01 83.751 1714.01V1714.01Z" fill="#030303"/>
<path d="M83.8569 1758.98C83.7187 1758.98 83.6055 1758.87 83.6055 1758.73V1701.54C83.6055 1701.4 83.717 1701.29 83.8569 1701.29C83.9968 1701.29 84.1084 1701.4 84.1084 1701.54V1758.73C84.1084 1758.87 83.9968 1758.98 83.8569 1758.98Z" fill="#030303"/>
<path d="M93.2306 1708.22C92.4701 1706.93 91.608 1705.45 91.5514 1703.17C91.5214 1701.97 91.7228 1701.03 91.8959 1700.21C92.1838 1698.91 92.4118 1697.8 91.7528 1696.23C91.1203 1694.7 90.0435 1693.76 89.5409 1693.3C87.6886 1691.68 85.6648 1690.9 83.5246 1690.95C82.8788 1690.96 79.5753 1691.16 77.4367 1693.82C76.2883 1695.22 75.9571 1696.69 75.8573 1697.24C75.4695 1698.96 75.7857 1700.01 76.1153 1701.13C76.3449 1701.91 76.5746 1702.72 76.6312 1703.83C76.7177 1705.97 75.9987 1707.35 75.3097 1708.68C74.5625 1710.12 73.8585 1711.49 74.3478 1713.61C74.7073 1715.19 75.4246 1716.49 76.4881 1717.48C78.3986 1719.26 80.8102 1719.42 82.8772 1719.42H83.6228C83.7809 1719.42 83.9257 1719.42 84.0821 1719.4C86.1076 1719.36 89.1365 1719.17 91.6629 1716.89C92.2803 1716.33 93.7449 1715.03 94.2758 1712.92C94.8067 1710.94 94.0311 1709.62 93.2273 1708.22L93.2306 1708.22ZM93.8348 1712.79C93.3172 1714.77 91.9391 1716.01 91.35 1716.55C88.9518 1718.71 86.0526 1718.9 84.0838 1718.93C83.9257 1718.94 83.7826 1718.94 83.6245 1718.94H83.5679C81.3427 1718.97 78.7997 1718.99 76.8192 1717.14C75.829 1716.2 75.14 1714.99 74.8088 1713.52C74.3494 1711.57 74.9819 1710.33 75.7275 1708.9C76.4181 1707.57 77.192 1706.09 77.0922 1703.81C77.0489 1702.64 76.7909 1701.77 76.5613 1701.01C76.2451 1699.9 75.9588 1698.94 76.3166 1697.34C76.4181 1696.81 76.7194 1695.44 77.7962 1694.12C79.8199 1691.63 82.9221 1691.44 83.5396 1691.43H83.6977C85.6648 1691.43 87.5305 1692.18 89.2264 1693.66C89.7007 1694.09 90.7192 1694.99 91.3234 1696.42C91.9258 1697.85 91.7111 1698.84 91.4382 1700.11C91.2651 1700.91 91.0937 1701.82 91.0937 1702.94V1703.19C91.152 1705.6 92.0274 1707.11 92.8162 1708.47C93.6201 1709.84 94.2941 1711.02 93.8364 1712.8L93.8348 1712.79Z" fill="#030303"/>
<path d="M135.13 1730.25C127.731 1730.25 121.711 1724.2 121.711 1716.76C121.711 1709.32 127.731 1703.27 135.13 1703.27C142.529 1703.27 148.551 1709.32 148.551 1716.76C148.551 1724.2 142.531 1730.25 135.13 1730.25ZM135.13 1703.81C128.022 1703.81 122.24 1709.62 122.24 1716.76C122.24 1723.9 128.022 1729.72 135.13 1729.72C142.238 1729.72 148.021 1723.9 148.021 1716.76C148.021 1709.62 142.238 1703.81 135.13 1703.81Z" fill="#030303"/>
<path d="M135.13 1717.31C135.07 1717.31 135.008 1717.29 134.959 1717.24L129.518 1712.6C129.407 1712.51 129.392 1712.34 129.486 1712.23C129.585 1712.11 129.748 1712.1 129.861 1712.19L135.301 1716.84C135.413 1716.93 135.428 1717.1 135.333 1717.21C135.28 1717.27 135.206 1717.31 135.13 1717.31Z" fill="#030303"/>
<path d="M135.142 1721.78C135.082 1721.78 135.02 1721.76 134.972 1721.72C134.859 1721.62 134.845 1721.45 134.939 1721.34L141.07 1714.02C141.165 1713.91 141.334 1713.89 141.443 1713.99C141.556 1714.08 141.569 1714.25 141.476 1714.36L135.345 1721.68C135.293 1721.75 135.218 1721.78 135.142 1721.78Z" fill="#030303"/>
<path d="M135.023 1724.73C134.968 1724.73 134.912 1724.71 134.865 1724.68L130.886 1721.7C130.769 1721.62 130.744 1721.45 130.831 1721.33C130.917 1721.21 131.086 1721.19 131.202 1721.27L135.181 1724.25C135.298 1724.34 135.323 1724.51 135.236 1724.62C135.185 1724.69 135.105 1724.73 135.023 1724.73Z" fill="#030303"/>
<path d="M134.865 1758.65V1709.08C134.865 1708.94 134.983 1708.82 135.13 1708.82C135.277 1708.82 135.395 1708.94 135.395 1709.08V1758.65" fill="#030303"/>
<path d="M118.002 1703.62C117.208 1702.28 116.308 1700.73 116.248 1698.35C116.218 1697.1 116.427 1696.12 116.607 1695.26C116.907 1693.91 117.146 1692.75 116.457 1691.11C115.798 1689.51 114.675 1688.53 114.151 1688.05C112.219 1686.36 110.107 1685.55 107.873 1685.6C107.199 1685.61 103.752 1685.82 101.521 1688.59C100.322 1690.05 99.9761 1691.59 99.8729 1692.16C99.4685 1693.95 99.7981 1695.05 100.143 1696.23C100.382 1697.04 100.622 1697.88 100.682 1699.05C100.772 1701.27 100.023 1702.72 99.3038 1704.11C98.5249 1705.61 97.7893 1707.04 98.3002 1709.26C98.6747 1710.9 99.4236 1712.25 100.532 1713.29C102.524 1715.14 105.042 1715.31 107.199 1715.31H108.218C108.293 1715.31 108.382 1715.29 108.457 1715.29C110.569 1715.25 113.731 1715.05 116.368 1712.67C117.012 1712.09 118.541 1710.73 119.095 1708.53C119.65 1706.47 118.841 1705.08 118.002 1703.62V1703.62ZM118.633 1708.4C118.093 1710.46 116.655 1711.75 116.041 1712.31C113.54 1714.57 110.513 1714.77 108.461 1714.8C108.386 1714.81 108.296 1714.81 108.221 1714.81H107.921C105.598 1714.84 102.947 1714.86 100.88 1712.93C99.8463 1711.95 99.1274 1710.69 98.7829 1709.15C98.3035 1707.12 98.9626 1705.82 99.7415 1704.33C100.46 1702.94 101.269 1701.39 101.164 1699.01C101.119 1697.79 100.85 1696.89 100.61 1696.09C100.281 1694.93 99.9811 1693.94 100.356 1692.27C100.46 1691.71 100.775 1690.28 101.9 1688.91C104.012 1686.3 107.249 1686.11 107.893 1686.09H108.058C110.11 1686.09 112.059 1686.88 113.826 1688.43C114.321 1688.88 115.384 1689.81 116.013 1691.3C116.642 1692.79 116.417 1693.83 116.133 1695.16C115.953 1695.99 115.773 1696.93 115.773 1698.11V1698.37C115.833 1700.88 116.747 1702.46 117.573 1703.88C118.411 1705.31 119.115 1706.54 118.636 1708.4H118.633Z" fill="#030303"/>
<path d="M118.633 1708.4C118.094 1710.46 116.656 1711.75 116.042 1712.31C113.541 1714.57 110.513 1714.76 108.461 1714.79C108.386 1714.81 108.297 1714.81 108.222 1714.81H107.922C105.599 1714.84 102.948 1714.86 100.881 1712.93C99.8471 1711.95 99.1281 1710.69 98.7836 1709.15C98.3043 1707.12 98.9634 1705.82 99.7423 1704.33C100.461 1702.94 101.27 1701.39 101.165 1699.01C101.12 1697.79 100.851 1696.89 100.611 1696.09C100.281 1694.93 99.9819 1693.94 100.356 1692.27C100.461 1691.71 100.776 1690.28 101.901 1688.91C104.013 1686.3 107.25 1686.11 107.894 1686.09H108.059C110.111 1686.09 112.06 1686.87 113.827 1688.43C114.321 1688.88 115.385 1689.81 116.014 1691.3C116.643 1692.79 116.418 1693.83 116.134 1695.16C115.954 1695.99 115.774 1696.93 115.774 1698.11V1698.37C115.834 1700.88 116.748 1702.46 117.573 1703.88C118.412 1705.31 119.116 1706.54 118.637 1708.4H118.633Z" fill="#CE6326"/>
<path d="M108.221 1702.31C108.161 1702.31 108.101 1702.29 108.051 1702.25L102.671 1697.66C102.561 1697.57 102.546 1697.4 102.641 1697.29C102.737 1697.18 102.9 1697.17 103.01 1697.26L108.391 1701.85C108.501 1701.95 108.516 1702.11 108.421 1702.22C108.368 1702.28 108.294 1702.31 108.221 1702.31Z" fill="#030303"/>
<path d="M108.229 1706.73C108.169 1706.73 108.109 1706.71 108.061 1706.67C107.949 1706.58 107.934 1706.41 108.029 1706.3L114.091 1699.06C114.184 1698.95 114.352 1698.94 114.46 1699.03C114.572 1699.12 114.587 1699.29 114.492 1699.4L108.43 1706.64C108.379 1706.7 108.304 1706.73 108.231 1706.73H108.229Z" fill="#030303"/>
<path d="M108.11 1709.66C108.055 1709.66 108 1709.64 107.954 1709.6L104.019 1706.66C103.905 1706.57 103.88 1706.41 103.964 1706.29C104.051 1706.18 104.216 1706.15 104.332 1706.24L108.267 1709.18C108.381 1709.27 108.406 1709.43 108.322 1709.55C108.27 1709.62 108.192 1709.65 108.11 1709.65V1709.66Z" fill="#030303"/>
<path d="M107.959 1758.39V1694.09C107.959 1693.95 108.076 1693.83 108.22 1693.83C108.365 1693.83 108.482 1693.95 108.482 1694.09V1758.4" fill="#030303"/>
<path d="M37.2475 1730.4C31.0032 1730.4 25.9238 1725.3 25.9238 1719.02C25.9238 1712.74 31.0032 1707.64 37.2475 1707.64C43.4919 1707.64 48.5713 1712.74 48.5713 1719.02C48.5713 1725.3 43.4919 1730.4 37.2475 1730.4ZM37.2475 1708.09C31.2495 1708.09 26.3715 1712.99 26.3715 1719.02C26.3715 1725.05 31.2512 1729.95 37.2475 1729.95C43.2439 1729.95 48.1236 1725.05 48.1236 1719.02C48.1236 1712.99 43.2439 1708.09 37.2475 1708.09Z" fill="#030303"/>
<path d="M37.2475 1719.48C37.1959 1719.48 37.1443 1719.46 37.1027 1719.43L32.5127 1715.51C32.4195 1715.43 32.4062 1715.28 32.486 1715.19C32.5693 1715.1 32.7074 1715.09 32.8023 1715.16L37.3923 1719.08C37.4855 1719.16 37.4988 1719.31 37.419 1719.4C37.374 1719.45 37.3108 1719.48 37.2475 1719.48V1719.48Z" fill="#030303"/>
<path d="M37.2569 1723.25C37.2053 1723.25 37.1537 1723.24 37.1138 1723.2C37.0189 1723.12 37.0056 1722.98 37.0855 1722.88L42.2581 1716.71C42.338 1716.61 42.4811 1716.6 42.5726 1716.68C42.6675 1716.76 42.6808 1716.9 42.6009 1716.99L37.4284 1723.17C37.3851 1723.23 37.3202 1723.25 37.2569 1723.25V1723.25Z" fill="#030303"/>
<path d="M37.1543 1725.75C37.1077 1725.75 37.0611 1725.73 37.0212 1725.7L33.6643 1723.19C33.5661 1723.12 33.5445 1722.98 33.6177 1722.88C33.691 1722.78 33.8324 1722.76 33.9306 1722.83L37.2874 1725.34C37.3856 1725.42 37.4073 1725.56 37.3341 1725.66C37.2908 1725.71 37.2225 1725.75 37.1543 1725.75Z" fill="#030303"/>
<path d="M36.9844 1758.4V1713.02C36.9844 1712.89 37.1026 1712.79 37.2492 1712.79C37.3957 1712.79 37.5123 1712.9 37.5123 1713.02L37.4673 1758.4" fill="#030303"/>
<path d="M329 566.5V1078C329 1096.23 314.225 1111 296 1111H34C15.7746 1111 1 1125.77 1 1144V1532.5C1 1550.73 15.7746 1565.5 34 1565.5H296C314.225 1565.5 329 1580.27 329 1598.5V1725.5C329 1743.73 314.225 1758.5 296 1758.5H34C15.7746 1758.5 1 1773.27 1 1791.5V1902" stroke="#030303" stroke-width="2" stroke-linecap="round"/>
<path d="M200.443 1541.51C201.119 1532.44 206.657 1524.51 214.903 1520.73C214.974 1520.7 215.042 1520.66 215.112 1520.63C218.307 1519.22 221.692 1518.5 225.18 1518.5H268.142C276.422 1518.5 283.141 1525.24 283.141 1533.53V1552.67C283.141 1555.22 281.074 1557.27 278.559 1557.27H204.959C202.459 1557.27 200.393 1555.22 200.393 1552.67V1543.39C200.393 1542.76 200.393 1542.14 200.445 1541.51L200.443 1541.51ZM200.999 1552.68C200.999 1554.87 202.786 1556.67 204.956 1556.67H278.556C280.727 1556.67 282.532 1554.87 282.532 1552.68V1533.53C282.532 1525.57 276.075 1519.11 268.142 1519.11H225.18C224.294 1519.11 223.393 1519.17 222.523 1519.25C222.314 1519.29 222.089 1519.3 221.914 1519.34C219.71 1519.63 217.576 1520.23 215.509 1521.13C215.439 1521.15 215.405 1521.17 215.371 1521.18C215.196 1521.25 215.042 1521.34 214.885 1521.43C207.075 1525.12 201.814 1532.66 201.085 1541.3C201.085 1541.39 201.051 1541.46 201.051 1541.54V1542C201.017 1542.47 200.999 1542.94 200.999 1543.39V1552.68Z" fill="#030303"/>
<path d="M200.991 1543.39V1552.68C200.991 1554.87 202.778 1556.67 204.964 1556.67H216.646C216.836 1552.28 220.449 1548.79 224.858 1548.79C229.268 1548.79 232.878 1552.28 233.068 1556.67H253.116C253.307 1552.28 256.917 1548.79 261.326 1548.79C265.736 1548.79 269.328 1552.28 269.518 1556.67H278.546C280.732 1556.67 282.521 1554.88 282.521 1552.68V1539.23H223.816C222.774 1539.23 221.907 1538.38 221.907 1537.32V1519.34C219.702 1519.64 217.568 1520.23 215.502 1521.13C215.415 1523.54 214.216 1535.84 201.041 1542C201.007 1542.47 200.988 1542.94 200.988 1543.39H200.991Z" fill="#CE6326"/>
<path d="M265.537 1518.81H266.146V1538.93H265.537V1518.81Z" fill="#030303"/>
<path d="M250.702 1518.88H251.309V1538.97H250.702V1518.88Z" fill="#030303"/>
<path d="M235.855 1518.74H236.461V1538.97H235.855V1518.74Z" fill="#030303"/>
<path d="M221.915 1518.81V1537.31C221.915 1538.37 222.782 1539.23 223.825 1539.23H282.93V1538.62H223.825C223.114 1538.62 222.524 1538.02 222.524 1537.31V1518.81H221.915Z" fill="#030303"/>
<path d="M227.28 1533.34C227.369 1533.34 227.455 1533.29 227.487 1533.19L230.07 1525.68C230.109 1525.56 230.049 1525.44 229.937 1525.4C229.822 1525.36 229.699 1525.42 229.66 1525.53L227.077 1533.05C227.037 1533.16 227.097 1533.29 227.21 1533.33C227.233 1533.34 227.257 1533.34 227.28 1533.34Z" fill="#030303"/>
<path d="M229.599 1533.69C229.688 1533.69 229.774 1533.64 229.806 1533.55L231.326 1529.05C231.365 1528.94 231.305 1528.82 231.19 1528.78C231.086 1528.74 230.955 1528.8 230.916 1528.91L229.396 1533.41C229.356 1533.52 229.416 1533.65 229.531 1533.68C229.552 1533.69 229.578 1533.7 229.602 1533.7L229.599 1533.69Z" fill="#030303"/>
<path d="M271.21 1534.18C271.288 1534.18 271.362 1534.14 271.401 1534.06L275.512 1526.38C275.567 1526.27 275.528 1526.14 275.424 1526.09C275.316 1526.03 275.186 1526.07 275.128 1526.18L271.017 1533.86C270.962 1533.97 271.001 1534.1 271.106 1534.15C271.14 1534.17 271.174 1534.18 271.21 1534.18V1534.18Z" fill="#030303"/>
<path d="M273.775 1533.21C273.853 1533.21 273.926 1533.17 273.965 1533.09L275.669 1529.9C275.723 1529.8 275.684 1529.67 275.58 1529.61C275.481 1529.56 275.345 1529.59 275.287 1529.7L273.584 1532.89C273.529 1532.99 273.568 1533.13 273.673 1533.18C273.704 1533.2 273.738 1533.21 273.775 1533.21Z" fill="#030303"/>
<path d="M253.101 1557.05C253.101 1557.12 253.101 1557.21 253.119 1557.28C253.224 1561.72 256.852 1565.31 261.329 1565.31C265.806 1565.31 269.419 1561.72 269.521 1557.28C269.539 1557.21 269.539 1557.12 269.539 1557.05C269.539 1556.91 269.539 1556.79 269.521 1556.67C269.33 1552.28 265.738 1548.79 261.329 1548.79C256.92 1548.79 253.31 1552.28 253.119 1556.67C253.101 1556.79 253.101 1556.91 253.101 1557.05Z" fill="#030303"/>
<path d="M261.306 1561.72C258.735 1561.72 256.651 1559.63 256.651 1557.05C256.651 1554.47 258.735 1552.38 261.306 1552.38C263.877 1552.38 265.961 1554.47 265.961 1557.05C265.961 1559.63 263.877 1561.72 261.306 1561.72Z" fill="#FCFCFC"/>
<path d="M216.631 1557.05C216.631 1557.12 216.631 1557.21 216.647 1557.28C216.751 1561.72 220.38 1565.31 224.86 1565.31C229.339 1565.31 232.965 1561.72 233.07 1557.28C233.088 1557.21 233.088 1557.12 233.088 1557.05C233.088 1556.91 233.088 1556.79 233.07 1556.67C232.879 1552.28 229.269 1548.79 224.86 1548.79C220.45 1548.79 216.84 1552.28 216.647 1556.67C216.631 1556.79 216.631 1556.91 216.631 1557.05Z" fill="#030303"/>
<path d="M224.742 1561.72C222.171 1561.72 220.087 1559.63 220.087 1557.05C220.087 1554.47 222.171 1552.38 224.742 1552.38C227.312 1552.38 229.396 1554.47 229.396 1557.05C229.396 1559.63 227.312 1561.72 224.742 1561.72Z" fill="#FCFCFC"/>
<path d="M200.643 1541.51L200.905 1542.07C200.957 1542.05 200.991 1542.02 201.043 1542C214.219 1535.84 215.415 1523.54 215.504 1521.13C215.52 1520.89 215.52 1520.75 215.52 1520.73H214.911C214.911 1520.79 214.911 1521.03 214.877 1521.43C214.686 1524.34 213.158 1535.49 201.093 1541.3C200.936 1541.37 200.797 1541.44 200.641 1541.51H200.643Z" fill="#030303"/>
</g>
</svg>
