<svg width="330" height="2057" viewBox="0 0 330 2057" fill="none" xmlns="http://www.w3.org/2000/svg">
<g opacity="0.7">
<path d="M115.166 1182.26H75.2359C74.1278 1182.26 73.053 1182.01 72.124 1181.54C69.9718 1180.44 69.1836 1178.6 69.9053 1176.35C70.3736 1174.88 71.1592 1173.91 72.2417 1173.47C73.1835 1173.08 74.1534 1173.17 74.8649 1173.35C73.8514 1171.65 72.0242 1167.99 73.0095 1164.91C73.5879 1163.11 75.0363 1161.81 77.3165 1161.04C83.896 1158.82 87.2203 1160.07 88.5281 1160.9C88.5562 1160 88.807 1158.53 89.9612 1157.26C91.6118 1155.44 94.5087 1154.66 98.5675 1154.95C102.724 1155.24 105.682 1156.44 107.356 1158.51C108.433 1159.84 108.707 1161.22 108.761 1162.06C109.769 1161.34 111.865 1160.1 114.142 1160.32C115.719 1160.48 117.085 1161.31 118.209 1162.8C120.31 1165.57 118.621 1169.52 117.945 1170.85C118.956 1171.1 121.239 1171.84 122.501 1173.63C123.273 1174.73 123.532 1176.04 123.263 1177.51C123.007 1178.93 121.971 1180.12 120.182 1181.06C118.68 1181.84 116.945 1182.26 115.166 1182.26ZM73.6595 1173.94C73.2859 1173.94 72.8943 1174 72.5156 1174.16C71.648 1174.52 71.0082 1175.33 70.609 1176.57C69.9948 1178.49 70.6167 1179.94 72.4593 1180.88C73.2859 1181.3 74.2456 1181.52 75.2359 1181.52H115.166C116.824 1181.52 118.442 1181.13 119.839 1180.4C121.413 1179.58 122.319 1178.56 122.534 1177.38C122.764 1176.11 122.549 1174.99 121.897 1174.06C120.458 1172.01 117.354 1171.48 117.323 1171.47C117.203 1171.45 117.101 1171.38 117.047 1171.26C116.996 1171.15 117.001 1171.02 117.065 1170.92C117.093 1170.87 119.821 1166.16 117.618 1163.24C116.625 1161.93 115.43 1161.2 114.068 1161.06C111.274 1160.78 108.651 1163.09 108.625 1163.11C108.51 1163.21 108.341 1163.23 108.205 1163.16C108.07 1163.08 107.993 1162.93 108.013 1162.78C108.013 1162.76 108.259 1160.8 106.77 1158.96C105.229 1157.06 102.452 1155.96 98.5189 1155.68C94.6956 1155.41 92.0008 1156.11 90.5114 1157.75C88.9657 1159.45 89.2984 1161.61 89.3009 1161.63C89.3291 1161.79 89.2446 1161.96 89.0936 1162.02C88.9452 1162.1 88.7661 1162.06 88.656 1161.94C88.6304 1161.91 85.8256 1158.95 77.5519 1161.74C75.5072 1162.43 74.2174 1163.57 73.7158 1165.13C72.5258 1168.84 76.0344 1173.8 76.0702 1173.85C76.17 1173.99 76.1623 1174.18 76.0497 1174.31C75.9371 1174.44 75.7503 1174.47 75.5993 1174.39C75.5865 1174.39 74.7011 1173.94 73.6621 1173.94L73.6595 1173.94Z" fill="#030303"/>
<path d="M86.3969 1182.26C86.2459 1182.26 86.1052 1182.17 86.0489 1182.02L80.8538 1167.86C80.7822 1167.66 80.882 1167.45 81.0739 1167.38C81.2658 1167.31 81.4782 1167.41 81.5499 1167.6L86.7449 1181.76C86.8166 1181.95 86.7168 1182.17 86.5249 1182.24C86.4813 1182.25 86.4404 1182.26 86.3969 1182.26Z" fill="#030303"/>
<path d="M82.8773 1172.67C82.8338 1172.67 82.7878 1172.66 82.7443 1172.64C82.5523 1172.57 82.4602 1172.35 82.5344 1172.16L85.3085 1165.01C85.3827 1164.82 85.5977 1164.73 85.7871 1164.8C85.979 1164.88 86.0711 1165.09 85.9969 1165.28L83.2228 1172.43C83.1665 1172.58 83.0258 1172.67 82.8773 1172.67Z" fill="#030303"/>
<path d="M84.7513 1177.77C84.6234 1177.77 84.498 1177.71 84.4314 1177.59C84.3291 1177.41 84.3905 1177.18 84.5671 1177.08L89.0276 1174.49C89.2042 1174.39 89.432 1174.45 89.5343 1174.63C89.6367 1174.8 89.5753 1175.03 89.3987 1175.13L84.9381 1177.72C84.8793 1177.76 84.8153 1177.77 84.7539 1177.77H84.7513Z" fill="#030303"/>
<path d="M97.7584 1181.96C97.6125 1181.96 97.4717 1181.87 97.4154 1181.72L92.4226 1169.2C92.4021 1169.15 92.3944 1169.09 92.397 1169.04L92.6989 1163.72C92.7117 1163.52 92.8832 1163.36 93.0905 1163.37C93.2952 1163.39 93.4513 1163.56 93.4385 1163.77L93.1417 1169L98.1038 1181.45C98.1806 1181.64 98.0885 1181.85 97.8965 1181.93C97.8505 1181.95 97.8044 1181.95 97.7584 1181.95V1181.96Z" fill="#030303"/>
<path d="M96.385 1178.33C96.3363 1178.33 96.2877 1178.32 96.2391 1178.3C96.0497 1178.22 95.9627 1178 96.042 1177.81L101.465 1165C101.544 1164.81 101.762 1164.72 101.951 1164.8C102.14 1164.88 102.227 1165.1 102.148 1165.29L96.7253 1178.1C96.6664 1178.24 96.5283 1178.32 96.385 1178.32V1178.33Z" fill="#030303"/>
<path d="M99.4713 1171.04C99.328 1171.04 99.1924 1170.95 99.1309 1170.81C99.0491 1170.63 99.1361 1170.41 99.3229 1170.33L104.119 1168.23C104.306 1168.15 104.526 1168.24 104.605 1168.43C104.687 1168.61 104.6 1168.83 104.413 1168.91L99.6172 1171.01C99.5686 1171.03 99.5199 1171.04 99.4687 1171.04H99.4713Z" fill="#030303"/>
<path d="M106.081 1182.26C106.04 1182.26 105.999 1182.25 105.958 1182.24C105.767 1182.17 105.664 1181.96 105.731 1181.77L108.794 1172.96L107.809 1169.78C107.747 1169.58 107.857 1169.38 108.052 1169.31C108.246 1169.25 108.454 1169.36 108.515 1169.56L109.536 1172.86C109.559 1172.93 109.559 1173.01 109.531 1173.09L106.429 1182.01C106.376 1182.16 106.232 1182.26 106.079 1182.26H106.081Z" fill="#030303"/>
<path d="M107.631 1178.05C107.468 1178.05 107.317 1177.94 107.273 1177.77C107.222 1177.57 107.342 1177.37 107.539 1177.32L111.662 1176.25C111.862 1176.2 112.061 1176.32 112.112 1176.52C112.164 1176.72 112.043 1176.92 111.846 1176.97L107.723 1178.04C107.693 1178.04 107.662 1178.05 107.631 1178.05Z" fill="#030303"/>
<path d="M154.668 1172.31C154.588 1172.29 152.874 1171.69 150.763 1171.87C151.054 1170.7 151.53 1167.97 150.212 1165.98C149.352 1164.69 147.899 1163.96 145.89 1163.82C140.482 1163.45 138.888 1165.37 138.422 1166.44C137.893 1165.95 136.918 1165.16 135.597 1164.47C132.91 1163.09 130.069 1162.85 127.382 1163.8C123.984 1164.99 122.54 1166.97 121.929 1168.42C121.45 1169.55 121.389 1170.53 121.394 1171.02C120.255 1171.33 116.365 1172.58 115.715 1175.57C115.459 1176.74 115.838 1177.99 116.836 1179.28C118.287 1181.15 120.606 1182.27 123.039 1182.27H148.418C149.731 1182.27 150.983 1182.04 152.134 1181.61C154.371 1180.77 155.799 1179.35 156.265 1177.49C156.449 1176.75 156.526 1176.12 156.526 1175.57C156.526 1173.04 154.896 1172.4 154.668 1172.32V1172.31ZM155.546 1177.31C155.036 1179.34 153.268 1180.39 151.873 1180.91C150.803 1181.31 149.639 1181.52 148.416 1181.52H123.037C120.831 1181.52 118.73 1180.51 117.417 1178.82C116.56 1177.71 116.23 1176.67 116.437 1175.72C117.082 1172.76 121.811 1171.68 121.86 1171.66C122.047 1171.62 122.172 1171.45 122.146 1171.26C122.141 1171.21 121.647 1166.6 127.625 1164.5C128.685 1164.12 129.701 1163.97 130.655 1163.97C135.134 1163.97 138.289 1167.34 138.328 1167.38C138.425 1167.49 138.578 1167.53 138.717 1167.48C138.855 1167.44 138.955 1167.31 138.97 1167.17C138.983 1167.04 139.377 1164.12 145.839 1164.56C147.605 1164.69 148.866 1165.3 149.593 1166.39C151.072 1168.62 149.913 1172.15 149.9 1172.18C149.859 1172.3 149.885 1172.44 149.967 1172.54C150.049 1172.64 150.179 1172.69 150.307 1172.67C152.477 1172.34 154.397 1173.01 154.414 1173.02C154.422 1173.02 154.432 1173.02 154.437 1173.03C154.519 1173.05 156.454 1173.67 155.54 1177.31L155.546 1177.31Z" fill="#030303"/>
<path d="M155.546 1177.31C155.037 1179.34 153.268 1180.39 151.874 1180.91C150.804 1181.31 149.64 1181.52 148.416 1181.52H139.188L139.802 1177.68C139.805 1177.67 139.807 1177.66 139.807 1177.64L140.368 1174.14L146.157 1170.69C146.333 1170.58 146.389 1170.35 146.285 1170.18C146.18 1170 145.952 1169.94 145.778 1170.05L140.521 1173.18L141.189 1169.01C141.223 1168.8 141.084 1168.61 140.882 1168.58C140.683 1168.55 140.491 1168.69 140.457 1168.89L139.185 1176.85L136.642 1174.4C136.496 1174.25 136.26 1174.26 136.12 1174.41C135.976 1174.56 135.981 1174.79 136.13 1174.93L139.045 1177.74L138.441 1181.52H129.801L128.839 1178.27L132.194 1168.69C132.263 1168.5 132.161 1168.29 131.966 1168.22C131.774 1168.15 131.562 1168.25 131.495 1168.45L128.478 1177.06L127.055 1172.28C126.996 1172.09 126.789 1171.97 126.595 1172.03C126.397 1172.09 126.287 1172.3 126.344 1172.49L129.028 1181.52H123.04C120.834 1181.52 118.733 1180.5 117.42 1178.81C116.563 1177.71 116.233 1176.67 116.44 1175.72C117.085 1172.75 121.814 1171.67 121.863 1171.66C122.05 1171.62 122.175 1171.44 122.149 1171.25C122.144 1171.21 121.65 1166.59 127.628 1164.49C128.688 1164.12 129.704 1163.97 130.658 1163.97C135.137 1163.97 138.292 1167.34 138.331 1167.38C138.428 1167.48 138.582 1167.52 138.72 1167.48C138.858 1167.43 138.958 1167.31 138.973 1167.16C138.986 1167.04 139.38 1164.11 145.842 1164.56C147.608 1164.68 148.869 1165.3 149.596 1166.39C151.075 1168.61 149.916 1172.15 149.903 1172.18C149.862 1172.3 149.888 1172.44 149.97 1172.54C150.052 1172.64 150.182 1172.69 150.31 1172.67C152.48 1172.34 154.4 1173.01 154.417 1173.02C154.425 1173.02 154.435 1173.02 154.44 1173.02C154.522 1173.05 156.457 1173.67 155.543 1177.31L155.546 1177.31Z" fill="#CE6326"/>
<path d="M129.629 1182.24C129.593 1182.26 129.558 1182.26 129.522 1182.26C129.363 1182.26 129.215 1182.16 129.169 1181.99L129.025 1181.52L126.341 1172.49C126.282 1172.3 126.395 1172.09 126.592 1172.03C126.786 1171.97 126.993 1172.09 127.052 1172.28L128.475 1177.06L128.836 1178.27L129.798 1181.52L129.878 1181.78C129.936 1181.98 129.824 1182.18 129.629 1182.24V1182.24Z" fill="#030303"/>
<path d="M132.193 1168.7L128.838 1178.28L128.8 1178.39C128.746 1178.54 128.603 1178.64 128.449 1178.64C128.408 1178.64 128.367 1178.63 128.326 1178.61C128.134 1178.55 128.032 1178.33 128.098 1178.14L128.477 1177.07L131.494 1168.45C131.561 1168.26 131.773 1168.15 131.965 1168.22C132.16 1168.29 132.26 1168.5 132.193 1168.7Z" fill="#030303"/>
<path d="M141.189 1169.01L140.521 1173.18L140.368 1174.13L139.807 1177.64C139.807 1177.65 139.805 1177.67 139.802 1177.68L139.188 1181.52L139.119 1181.94C139.088 1182.13 138.932 1182.26 138.753 1182.26C138.732 1182.26 138.714 1182.26 138.694 1182.25C138.492 1182.22 138.354 1182.03 138.387 1181.83L138.438 1181.51L139.042 1177.74L139.185 1176.84L140.457 1168.89C140.49 1168.68 140.68 1168.54 140.882 1168.58C141.084 1168.61 141.222 1168.8 141.189 1169V1169.01Z" fill="#030303"/>
<path d="M139.807 1177.64C139.807 1177.66 139.804 1177.67 139.802 1177.68C139.789 1177.75 139.756 1177.81 139.704 1177.87C139.633 1177.94 139.536 1177.98 139.438 1177.98C139.346 1177.98 139.254 1177.95 139.182 1177.88L139.042 1177.74L136.127 1174.94C135.978 1174.79 135.973 1174.56 136.117 1174.41C136.257 1174.26 136.493 1174.26 136.639 1174.4L139.182 1176.85L139.694 1177.34C139.779 1177.42 139.817 1177.54 139.807 1177.64Z" fill="#030303"/>
<path d="M146.156 1170.69L140.367 1174.14L140.219 1174.23C140.16 1174.26 140.093 1174.28 140.029 1174.28C139.901 1174.28 139.778 1174.21 139.712 1174.09C139.607 1173.92 139.663 1173.69 139.84 1173.58L140.521 1173.18L145.777 1170.05C145.951 1169.94 146.179 1170 146.284 1170.18C146.389 1170.35 146.332 1170.58 146.156 1170.69Z" fill="#030303"/>
<path d="M78.1202 1175.51C77.9564 1173.69 77.2706 1172.41 76.0857 1171.7C74.1945 1170.57 71.5867 1171.25 70.4428 1171.64C70.5042 1170.64 70.4658 1168.64 69.3884 1167.3C68.7538 1166.5 67.8581 1166.06 66.7295 1165.99C63.6457 1165.78 61.7725 1167.56 60.9356 1168.62C60.2165 1166.21 57.8621 1165.49 57.5217 1165.4C57.2095 1165.26 55.1085 1164.47 51.9275 1166.16C49.3914 1167.51 49.4221 1171.24 49.6038 1173.04C48.9794 1172.61 48.3063 1172.4 47.6 1172.41C45.7088 1172.45 44.2629 1174.08 44.1938 1174.15C42.1516 1176.6 42.7095 1179.36 44.2757 1180.7C45.911 1182.11 48.8361 1182.18 48.8642 1182.18C57.4859 1182.25 64.2804 1182.26 68.3162 1182.26C70.8804 1182.26 72.3314 1182.25 72.421 1182.25C72.5874 1182.26 75.0902 1182.26 76.7536 1180.47C77.8489 1179.29 78.3096 1177.62 78.1202 1175.51V1175.51ZM76.2162 1179.96C74.7677 1181.53 72.4568 1181.51 72.4312 1181.51C72.4287 1181.51 72.4261 1181.51 72.4236 1181.51C72.3724 1181.51 69.6136 1181.52 64.8204 1181.51C64.5542 1181.51 64.283 1181.51 64.0066 1181.51C62.6375 1181.51 61.1199 1181.51 59.4667 1181.5C59.2057 1181.5 58.9395 1181.5 58.6682 1181.49C57.2633 1181.49 55.7687 1181.48 54.1898 1181.47C53.9441 1181.47 53.6984 1181.47 53.4476 1181.47C51.9889 1181.46 50.4611 1181.45 48.8719 1181.43C48.8463 1181.43 46.172 1181.36 44.7594 1180.14C43.4619 1179.02 43.0243 1176.71 44.7594 1174.64C44.7722 1174.62 46.0568 1173.18 47.6179 1173.15C47.6333 1173.15 47.6486 1173.15 47.6614 1173.15C48.4368 1173.15 49.1687 1173.51 49.8341 1174.22C49.9493 1174.34 50.1259 1174.37 50.2717 1174.29C50.4176 1174.22 50.4969 1174.06 50.4662 1173.89C50.456 1173.84 49.4298 1168.34 52.2755 1166.82C55.3004 1165.21 57.2198 1166.08 57.2351 1166.09C57.2607 1166.1 57.2863 1166.11 57.3145 1166.12C57.4271 1166.14 60.0834 1166.8 60.3777 1169.6C60.3957 1169.76 60.5159 1169.9 60.6772 1169.93C60.8384 1169.96 60.9996 1169.88 61.0764 1169.73C61.0917 1169.7 62.8038 1166.47 66.6809 1166.73C67.5945 1166.79 68.3085 1167.14 68.8101 1167.76C70.0615 1169.33 69.6546 1172.12 69.6495 1172.15C69.629 1172.28 69.6827 1172.41 69.7877 1172.5C69.8951 1172.58 70.0385 1172.6 70.1613 1172.55C70.1946 1172.53 73.5982 1171.08 75.7069 1172.34C76.6768 1172.92 77.2399 1174.01 77.3806 1175.58C77.5521 1177.47 77.158 1178.94 76.2136 1179.96L76.2162 1179.96Z" fill="#030303"/>
<path d="M76.2166 1179.96C74.7682 1181.53 72.4573 1181.51 72.4317 1181.51C72.4291 1181.51 72.4266 1181.51 72.424 1181.51C72.3728 1181.51 69.6141 1181.52 64.8208 1181.51L67.2418 1176.81L69.4938 1175.95C69.6857 1175.88 69.7804 1175.67 69.7062 1175.47C69.6346 1175.28 69.4196 1175.19 69.2302 1175.26L67.2341 1176.02L66.2002 1171.91C66.1516 1171.71 65.9494 1171.59 65.7524 1171.64C65.5527 1171.69 65.435 1171.89 65.4836 1172.09L66.5841 1176.47L64.0403 1181.41C64.0224 1181.44 64.0096 1181.47 64.007 1181.51C62.6379 1181.51 61.1203 1181.5 59.4671 1181.5L62.4357 1174.69C62.5176 1174.5 62.4332 1174.28 62.2463 1174.2C62.057 1174.12 61.8394 1174.2 61.7575 1174.39L61.0487 1176.02L59.9124 1174.23C59.8024 1174.06 59.5721 1174.01 59.4006 1174.12C59.2266 1174.23 59.1779 1174.46 59.288 1174.63L60.6878 1176.83C60.6878 1176.83 60.6904 1176.84 60.693 1176.84L59.6744 1179.17L59.073 1177.78C58.9911 1177.59 58.7736 1177.5 58.5868 1177.58C58.4 1177.67 58.313 1177.88 58.3949 1178.07L59.265 1180.09C59.265 1180.09 59.2701 1180.1 59.2726 1180.1L58.6968 1181.42C58.6866 1181.44 58.6764 1181.47 58.6738 1181.5C57.2688 1181.49 55.7743 1181.48 54.1953 1181.47C54.1953 1181.22 54.1646 1180.82 54.1185 1180.15C54.0674 1179.38 53.9855 1178.32 53.8805 1176.98C53.8601 1176.73 53.8396 1176.47 53.8217 1176.23C53.8524 1176.21 53.8831 1176.18 53.9087 1176.16L57.8421 1171.64C57.9777 1171.49 57.9598 1171.25 57.8062 1171.12C57.6527 1170.98 57.4173 1171 57.2842 1171.15L53.7423 1175.22C53.6144 1173.66 53.5095 1172.41 53.5069 1172.39C53.4916 1172.19 53.3124 1172.03 53.1077 1172.05C52.9055 1172.07 52.7545 1172.25 52.7699 1172.45C52.9157 1174.19 53.0949 1176.38 53.2356 1178.19L51.5031 1176.94C51.3368 1176.82 51.1064 1176.86 50.9862 1177.02C50.8684 1177.19 50.9043 1177.42 51.0706 1177.54L53.228 1179.1C53.2536 1179.12 53.2817 1179.13 53.3098 1179.14C53.3943 1180.27 53.4532 1181.14 53.4583 1181.47C51.9996 1181.46 50.4718 1181.45 48.8826 1181.44C48.857 1181.44 46.1827 1181.36 44.77 1180.14C43.4725 1179.02 43.0349 1176.71 44.77 1174.64C44.7828 1174.62 46.0675 1173.18 47.6286 1173.16C47.6439 1173.16 47.6593 1173.16 47.6721 1173.16C48.4475 1173.16 49.1794 1173.52 49.8448 1174.22C49.96 1174.34 50.1365 1174.37 50.2824 1174.3C50.4283 1174.22 50.5076 1174.06 50.4769 1173.9C50.4667 1173.84 49.4404 1168.34 52.2862 1166.82C55.3111 1165.21 57.2304 1166.08 57.2458 1166.09C57.2714 1166.1 57.297 1166.11 57.3251 1166.12C57.4377 1166.14 60.0941 1166.8 60.3884 1169.6C60.4063 1169.77 60.5266 1169.9 60.6878 1169.93C60.8491 1169.96 61.0103 1169.88 61.0871 1169.73C61.1024 1169.7 62.8145 1166.47 66.6916 1166.73C67.6052 1166.79 68.3192 1167.14 68.8208 1167.77C70.0722 1169.33 69.6653 1172.12 69.6601 1172.15C69.6397 1172.28 69.6934 1172.42 69.7983 1172.5C69.9058 1172.58 70.0491 1172.6 70.172 1172.55C70.2052 1172.53 73.6089 1171.08 75.7176 1172.34C76.6875 1172.92 77.2505 1174.01 77.3913 1175.58C77.5627 1177.47 77.1686 1178.95 76.2243 1179.97L76.2166 1179.96Z" fill="#CE6326"/>
<path d="M67.3056 1176.69L67.2416 1176.82L64.8207 1181.52L64.7004 1181.75C64.6364 1181.88 64.5059 1181.95 64.3703 1181.95C64.3139 1181.95 64.2551 1181.94 64.2014 1181.91C64.0529 1181.83 63.9787 1181.67 64.0069 1181.51C64.012 1181.48 64.0222 1181.44 64.0401 1181.41L66.5839 1176.47L65.4835 1172.09C65.4323 1171.89 65.5526 1171.69 65.7522 1171.64C65.9518 1171.59 66.1514 1171.71 66.2 1171.91L67.2339 1176.02L67.3363 1176.43C67.3593 1176.52 67.3491 1176.61 67.3056 1176.69Z" fill="#030303"/>
<path d="M69.4945 1175.96L67.2424 1176.82L67.1094 1176.87C67.0659 1176.88 67.0224 1176.89 66.9763 1176.89C66.8279 1176.89 66.6871 1176.8 66.6308 1176.65C66.5592 1176.46 66.6538 1176.24 66.8458 1176.17L67.2348 1176.02L69.2309 1175.26C69.4228 1175.19 69.6352 1175.29 69.7069 1175.48C69.7785 1175.67 69.6839 1175.88 69.4945 1175.96Z" fill="#030303"/>
<path d="M54.113 1180.15C54.0618 1179.38 53.98 1178.32 53.875 1176.98C53.8546 1176.73 53.8341 1176.47 53.8162 1176.23C53.788 1175.88 53.7599 1175.54 53.7343 1175.22C53.6063 1173.65 53.5014 1172.4 53.4988 1172.39C53.4835 1172.18 53.3044 1172.03 53.0996 1172.05C52.8975 1172.07 52.7465 1172.25 52.7618 1172.45C52.9077 1174.19 53.0868 1176.38 53.2276 1178.19C53.2532 1178.52 53.2788 1178.84 53.2992 1179.14C53.3837 1180.27 53.4425 1181.14 53.4477 1181.47C53.4477 1181.51 53.4477 1181.54 53.4477 1181.57C53.4297 1181.66 53.4425 1181.75 53.4912 1181.84C53.5603 1181.95 53.6831 1182.02 53.8085 1182.02C53.8725 1182.02 53.939 1182 53.9979 1181.96C54.1335 1181.88 54.1898 1181.85 54.1873 1181.48C54.1873 1181.23 54.1565 1180.83 54.1105 1180.16L54.113 1180.15Z" fill="#030303"/>
<path d="M57.8368 1171.64L53.9034 1176.16C53.8778 1176.18 53.8496 1176.21 53.8164 1176.23C53.7575 1176.26 53.691 1176.28 53.6219 1176.28C53.5349 1176.28 53.4479 1176.25 53.3788 1176.19C53.2252 1176.06 53.2073 1175.82 53.3429 1175.67L53.7345 1175.22L57.2763 1171.15C57.4119 1171 57.6448 1170.98 57.7984 1171.12C57.9519 1171.25 57.9698 1171.48 57.8342 1171.64H57.8368Z" fill="#030303"/>
<path d="M53.7345 1179.01C53.6629 1179.11 53.5477 1179.17 53.4326 1179.17C53.3891 1179.17 53.343 1179.16 53.2995 1179.14C53.2713 1179.14 53.2432 1179.12 53.2176 1179.1L51.0602 1177.54C50.8939 1177.42 50.8581 1177.19 50.9758 1177.02C51.0961 1176.86 51.3264 1176.82 51.4927 1176.94L53.2253 1178.19L53.6501 1178.5C53.8164 1178.62 53.8523 1178.85 53.7345 1179.02V1179.01Z" fill="#030303"/>
<path d="M62.4352 1174.69L59.4666 1181.5L59.3719 1181.72C59.3105 1181.85 59.1774 1181.94 59.0316 1181.94C58.9829 1181.94 58.9318 1181.93 58.8831 1181.91C58.7219 1181.84 58.6349 1181.66 58.6682 1181.5C58.6733 1181.47 58.681 1181.44 58.6912 1181.42L59.267 1180.1L59.6714 1179.17L60.6899 1176.84L61.0482 1176.02L61.757 1174.39C61.8389 1174.2 62.059 1174.12 62.2458 1174.2C62.4327 1174.28 62.5197 1174.51 62.4352 1174.69V1174.69Z" fill="#030303"/>
<path d="M61.1994 1176.95C61.138 1176.99 61.0689 1177.01 60.9998 1177.01C60.8821 1177.01 60.7618 1176.95 60.6927 1176.84C60.6927 1176.84 60.6901 1176.84 60.6875 1176.84L59.2877 1174.63C59.1777 1174.46 59.2263 1174.23 59.4003 1174.12C59.5718 1174.01 59.8021 1174.06 59.9121 1174.23L61.0484 1176.02L61.312 1176.44C61.422 1176.61 61.3708 1176.84 61.1968 1176.95L61.1994 1176.95Z" fill="#030303"/>
<path d="M59.7456 1180.28C59.697 1180.3 59.6483 1180.31 59.5997 1180.31C59.4615 1180.31 59.331 1180.24 59.267 1180.1C59.2645 1180.1 59.2619 1180.09 59.2593 1180.09L58.3892 1178.07C58.3074 1177.88 58.3944 1177.66 58.5812 1177.58C58.768 1177.5 58.9881 1177.59 59.0674 1177.78L59.6688 1179.17L59.9375 1179.79C60.0194 1179.98 59.9324 1180.2 59.743 1180.28H59.7456Z" fill="#030303"/>
<path d="M250.269 351.717C257.537 351.717 263.428 345.796 263.428 338.492C263.428 331.188 257.537 325.267 250.269 325.267C243.002 325.267 237.11 331.188 237.11 338.492C237.11 345.796 243.002 351.717 250.269 351.717Z" fill="#CE6326"/>
<path d="M250.269 351.984C242.866 351.984 236.845 345.932 236.845 338.492C236.845 331.052 242.866 325 250.269 325C257.672 325 263.693 331.052 263.693 338.492C263.693 345.932 257.672 351.984 250.269 351.984ZM250.269 325.532C243.158 325.532 237.375 331.345 237.375 338.49C237.375 345.635 243.16 351.449 250.269 351.449C257.378 351.449 263.163 345.635 263.163 338.49C263.163 331.345 257.378 325.532 250.269 325.532Z" fill="#030303"/>
<path d="M250.269 339.038C250.207 339.038 250.148 339.016 250.097 338.976L244.655 334.333C244.544 334.238 244.528 334.068 244.623 333.957C244.722 333.844 244.885 333.833 244.998 333.925L250.439 338.568C250.55 338.663 250.566 338.833 250.471 338.944C250.418 339.006 250.344 339.038 250.269 339.038Z" fill="#030303"/>
<path d="M250.28 343.511C250.218 343.511 250.159 343.49 250.109 343.449C249.997 343.354 249.983 343.186 250.076 343.075L256.208 335.749C256.303 335.638 256.474 335.624 256.581 335.716C256.693 335.811 256.707 335.979 256.614 336.09L250.482 343.415C250.431 343.477 250.355 343.511 250.28 343.511Z" fill="#030303"/>
<path d="M250.159 346.465C250.104 346.465 250.048 346.449 250.001 346.413L246.021 343.436C245.903 343.348 245.878 343.18 245.966 343.063C246.054 342.947 246.221 342.92 246.337 343.008L250.317 345.986C250.435 346.074 250.459 346.242 250.371 346.359C250.32 346.429 250.24 346.466 250.159 346.466V346.465Z" fill="#030303"/>
<path d="M250.269 408.739C250.123 408.739 250.004 408.621 250.004 408.473V330.814C250.004 330.667 250.122 330.547 250.269 330.547C250.417 330.547 250.535 330.665 250.535 330.814V408.473C250.535 408.619 250.417 408.739 250.269 408.739Z" fill="#030303"/>
<path d="M274.945 354.005C274.884 354.005 274.824 353.984 274.773 353.943L269.331 349.299C269.221 349.204 269.205 349.034 269.3 348.923C269.396 348.812 269.563 348.797 269.674 348.891L275.116 353.536C275.226 353.631 275.242 353.8 275.147 353.912C275.095 353.973 275.021 354.005 274.945 354.005Z" fill="#030303"/>
<path d="M274.956 358.477C274.894 358.477 274.834 358.456 274.785 358.415C274.673 358.32 274.659 358.152 274.752 358.041L280.884 350.717C280.979 350.602 281.148 350.592 281.257 350.684C281.369 350.779 281.383 350.947 281.29 351.058L275.158 358.382C275.107 358.445 275.031 358.477 274.956 358.477Z" fill="#030303"/>
<path d="M274.834 361.433C274.78 361.433 274.724 361.417 274.676 361.382L270.695 358.404C270.577 358.316 270.552 358.148 270.64 358.032C270.728 357.913 270.895 357.888 271.011 357.977L274.992 360.954C275.11 361.043 275.135 361.21 275.047 361.327C274.996 361.397 274.915 361.435 274.834 361.435V361.433Z" fill="#030303"/>
<path d="M274.946 408.913C274.8 408.913 274.68 408.795 274.68 408.647V348.27C274.68 348.123 274.798 348.003 274.946 348.003C275.093 348.003 275.211 348.121 275.211 348.27V408.647C275.211 408.793 275.093 408.913 274.946 408.913Z" fill="#030303"/>
<path d="M284.843 355.321C284.04 353.965 283.13 352.397 283.07 349.988C283.039 348.723 283.251 347.733 283.434 346.864C283.738 345.493 283.979 344.319 283.283 342.659C282.615 341.045 281.478 340.054 280.948 339.567C278.992 337.861 276.855 337.038 274.596 337.084C273.914 337.1 270.426 337.312 268.168 340.116C266.956 341.594 266.606 343.148 266.501 343.727C266.091 345.541 266.425 346.652 266.773 347.84C267.016 348.663 267.258 349.516 267.318 350.689C267.409 352.944 266.65 354.406 265.923 355.809C265.134 357.333 264.391 358.779 264.907 361.018C265.287 362.678 266.044 364.05 267.167 365.101C269.184 366.975 271.73 367.143 273.912 367.143H274.699C274.866 367.143 275.019 367.143 275.184 367.127C277.323 367.081 280.521 366.883 283.188 364.476C283.84 363.883 285.386 362.51 285.947 360.285C286.507 358.198 285.688 356.796 284.84 355.318L284.843 355.321ZM285.481 360.151C284.935 362.238 283.48 363.549 282.858 364.112C280.326 366.397 277.265 366.595 275.186 366.627C275.019 366.643 274.868 366.643 274.701 366.643H274.642C272.292 366.673 269.607 366.689 267.516 364.739C266.471 363.748 265.744 362.468 265.394 360.916C264.909 358.858 265.577 357.548 266.364 356.04C267.093 354.638 267.91 353.07 267.805 350.662C267.759 349.428 267.487 348.515 267.244 347.706C266.91 346.534 266.608 345.527 266.986 343.837C267.093 343.274 267.411 341.826 268.548 340.439C270.685 337.803 273.96 337.605 274.612 337.591H274.779C276.855 337.591 278.825 338.384 280.616 339.952C281.116 340.409 282.192 341.354 282.83 342.862C283.466 344.37 283.239 345.421 282.951 346.763C282.768 347.602 282.587 348.561 282.587 349.749V350.009C282.649 352.554 283.573 354.154 284.406 355.586C285.254 357.034 285.966 358.283 285.483 360.156L285.481 360.151Z" fill="#030303"/>
<path d="M230.119 378.579C222.307 378.579 215.952 372.191 215.952 364.34C215.952 356.488 222.307 350.101 230.119 350.101C237.931 350.101 244.289 356.488 244.289 364.34C244.289 372.191 237.933 378.579 230.119 378.579ZM230.119 350.662C222.615 350.662 216.51 356.797 216.51 364.34C216.51 371.882 222.615 378.017 230.119 378.017C237.624 378.017 243.73 371.882 243.73 364.34C243.73 356.797 237.624 350.662 230.119 350.662Z" fill="#030303"/>
<path d="M230.119 364.916C230.056 364.916 229.991 364.895 229.938 364.851L224.194 359.95C224.076 359.849 224.061 359.671 224.161 359.553C224.264 359.434 224.437 359.422 224.556 359.519L230.3 364.42C230.418 364.52 230.434 364.699 230.333 364.817C230.277 364.882 230.2 364.916 230.119 364.916Z" fill="#030303"/>
<path d="M230.131 369.638C230.068 369.638 230.003 369.617 229.952 369.573C229.832 369.472 229.818 369.296 229.917 369.177L236.39 361.446C236.49 361.326 236.669 361.313 236.784 361.41C236.903 361.511 236.917 361.688 236.819 361.806L230.345 369.538C230.291 369.605 230.212 369.638 230.131 369.638Z" fill="#030303"/>
<path d="M230.006 372.754C229.948 372.754 229.888 372.736 229.839 372.699L225.637 369.558C225.514 369.466 225.488 369.287 225.579 369.164C225.671 369.04 225.848 369.014 225.971 369.106L230.172 372.247C230.295 372.339 230.322 372.517 230.23 372.641C230.176 372.715 230.092 372.754 230.006 372.754Z" fill="#030303"/>
<path d="M229.839 408.567V356.234C229.839 356.079 229.964 355.953 230.119 355.953C230.274 355.953 230.398 356.079 230.398 356.234V408.569" fill="#030303"/>
<path d="M214.873 350.469C214.035 349.055 213.084 347.416 213.021 344.905C212.989 343.586 213.211 342.553 213.401 341.645C213.717 340.214 213.97 338.991 213.242 337.256C212.547 335.572 211.361 334.539 210.807 334.028C208.767 332.248 206.537 331.39 204.179 331.437C203.468 331.453 199.829 331.676 197.472 334.602C196.207 336.144 195.842 337.767 195.733 338.371C195.306 340.262 195.654 341.424 196.017 342.664C196.27 343.522 196.524 344.412 196.587 345.638C196.682 347.99 195.891 349.518 195.132 350.98C194.31 352.569 193.533 354.081 194.072 356.417C194.468 358.15 195.258 359.582 196.429 360.679C198.532 362.634 201.19 362.808 203.468 362.808H204.543C204.622 362.808 204.717 362.792 204.796 362.792C207.026 362.745 210.364 362.538 213.148 360.027C213.828 359.407 215.442 357.977 216.027 355.654C216.613 353.477 215.759 352.013 214.873 350.471V350.469ZM215.539 355.51C214.97 357.687 213.451 359.056 212.803 359.644C210.162 362.028 206.966 362.234 204.8 362.266C204.72 362.282 204.626 362.282 204.546 362.282H204.23C201.777 362.314 198.978 362.33 196.796 360.295C195.705 359.262 194.946 357.927 194.582 356.304C194.076 354.159 194.772 352.79 195.594 351.216C196.353 349.754 197.207 348.117 197.096 345.604C197.049 344.317 196.764 343.363 196.511 342.521C196.163 341.297 195.847 340.248 196.242 338.482C196.353 337.894 196.685 336.384 197.873 334.936C200.103 332.186 203.52 331.978 204.2 331.962H204.374C206.541 331.962 208.598 332.788 210.464 334.425C210.986 334.902 212.109 335.888 212.773 337.463C213.437 339.036 213.2 340.135 212.9 341.534C212.71 342.408 212.52 343.409 212.52 344.651V344.921C212.583 347.575 213.548 349.246 214.42 350.74C215.305 352.25 216.049 353.555 215.542 355.51H215.539Z" fill="#030303"/>
<path d="M215.539 355.51C214.969 357.687 213.451 359.056 212.803 359.644C210.162 362.028 206.966 362.234 204.799 362.266C204.72 362.282 204.625 362.282 204.546 362.282H204.23C201.777 362.314 198.978 362.33 196.796 360.295C195.705 359.262 194.945 357.927 194.582 356.304C194.076 354.159 194.772 352.79 195.594 351.216C196.353 349.754 197.207 348.117 197.096 345.604C197.049 344.317 196.764 343.363 196.511 342.521C196.163 341.297 195.847 340.248 196.242 338.482C196.353 337.894 196.685 336.384 197.873 334.936C200.103 332.186 203.52 331.978 204.2 331.962H204.374C206.541 331.962 208.598 332.788 210.464 334.425C210.986 334.902 212.109 335.888 212.773 337.463C213.437 339.036 213.2 340.135 212.9 341.534C212.71 342.408 212.52 343.409 212.52 344.65V344.921C212.583 347.575 213.548 349.246 214.42 350.74C215.305 352.25 216.048 353.555 215.542 355.51H215.539Z" fill="#CE6326"/>
<path d="M204.547 349.09C204.483 349.09 204.42 349.069 204.367 349.025L198.687 344.177C198.571 344.078 198.555 343.902 198.655 343.785C198.757 343.669 198.929 343.656 199.045 343.754L204.726 348.601C204.842 348.7 204.858 348.877 204.758 348.993C204.701 349.059 204.624 349.09 204.547 349.09Z" fill="#030303"/>
<path d="M204.555 353.755C204.492 353.755 204.429 353.733 204.378 353.689C204.26 353.59 204.244 353.414 204.344 353.297L210.744 345.656C210.842 345.536 211.02 345.525 211.134 345.622C211.252 345.721 211.267 345.898 211.167 346.014L204.768 353.656C204.713 353.723 204.634 353.755 204.557 353.755H204.555Z" fill="#030303"/>
<path d="M204.431 356.839C204.373 356.839 204.315 356.821 204.265 356.784L200.112 353.678C199.99 353.586 199.964 353.411 200.054 353.288C200.145 353.166 200.319 353.139 200.442 353.229L204.596 356.336C204.717 356.427 204.743 356.602 204.654 356.726C204.599 356.798 204.517 356.837 204.431 356.837V356.839Z" fill="#030303"/>
<path d="M204.269 408.287V340.408C204.269 340.256 204.392 340.133 204.545 340.133C204.698 340.133 204.821 340.256 204.821 340.408V408.305" fill="#030303"/>
<path d="M181.442 378.742C174.849 378.742 169.486 373.352 169.486 366.726C169.486 360.101 174.849 354.709 181.442 354.709C188.034 354.709 193.397 360.099 193.397 366.726C193.397 373.354 188.034 378.742 181.442 378.742ZM181.442 355.184C175.109 355.184 169.959 360.362 169.959 366.726C169.959 373.091 175.111 378.267 181.442 378.267C187.773 378.267 192.924 373.089 192.924 366.726C192.924 360.364 187.773 355.184 181.442 355.184Z" fill="#030303"/>
<path d="M181.441 367.212C181.387 367.212 181.332 367.192 181.288 367.155L176.442 363.018C176.344 362.933 176.33 362.781 176.414 362.682C176.502 362.583 176.648 362.573 176.748 362.654L181.594 366.791C181.693 366.876 181.707 367.028 181.622 367.127C181.575 367.184 181.508 367.21 181.441 367.21V367.212Z" fill="#030303"/>
<path d="M181.452 371.196C181.398 371.196 181.343 371.177 181.301 371.139C181.201 371.055 181.187 370.905 181.271 370.806L186.732 364.284C186.816 364.181 186.968 364.173 187.064 364.254C187.164 364.339 187.178 364.489 187.094 364.588L181.633 371.109C181.587 371.166 181.519 371.194 181.452 371.194V371.196Z" fill="#030303"/>
<path d="M181.343 373.828C181.294 373.828 181.245 373.814 181.203 373.782L177.659 371.132C177.555 371.054 177.532 370.904 177.609 370.8C177.687 370.696 177.836 370.673 177.94 370.75L181.484 373.401C181.588 373.479 181.61 373.629 181.533 373.733C181.487 373.795 181.415 373.828 181.343 373.828Z" fill="#030303"/>
<path d="M181.164 408.3V360.389C181.164 360.258 181.289 360.154 181.444 360.154C181.598 360.154 181.721 360.26 181.721 360.389L181.674 408.3" fill="#030303"/>
<path d="M247.187 1161.19C247.187 1162.76 247.007 1164.27 246.669 1165.73C246.553 1166.23 246.418 1166.72 246.265 1167.21C243.716 1175.29 236.166 1181.17 227.277 1181.17C216.299 1181.17 207.371 1172.21 207.371 1161.19C207.371 1155.97 209.378 1151.21 212.667 1147.64C212.963 1147.32 213.275 1147 213.594 1146.7C217.163 1143.3 221.984 1141.22 227.28 1141.22C228.86 1141.22 230.4 1141.4 231.876 1141.75C232.122 1141.81 232.365 1141.88 232.608 1141.94C232.534 1142.18 232.46 1142.43 232.383 1142.67C232.14 1142.6 231.895 1142.54 231.649 1142.48C230.244 1142.15 228.78 1141.97 227.28 1141.97C216.719 1141.97 208.126 1150.59 208.126 1161.19C208.126 1171.79 216.719 1180.41 227.28 1180.41C236.327 1180.41 243.93 1174.09 245.924 1165.61C245.924 1165.61 245.924 1165.61 245.924 1165.61C245.924 1165.6 245.927 1165.59 245.927 1165.59C246.259 1164.18 246.434 1162.71 246.434 1161.19C246.434 1152.88 241.145 1145.78 233.768 1143.11C233.532 1143.02 233.295 1142.94 233.054 1142.87C233.131 1142.62 233.205 1142.39 233.282 1142.14C233.522 1142.22 233.76 1142.3 233.995 1142.39C241.679 1145.16 247.187 1152.54 247.187 1161.19V1161.19Z" fill="#030303"/>
<path d="M244.709 1161.19C244.709 1170.84 236.89 1178.69 227.278 1178.69C217.665 1178.69 209.846 1170.84 209.846 1161.19C209.846 1151.55 217.665 1143.7 227.278 1143.7C228.601 1143.7 229.893 1143.85 231.132 1144.14C231.38 1144.19 231.623 1144.25 231.866 1144.32C231.729 1144.76 231.594 1145.19 231.459 1145.62C231.216 1145.55 230.973 1145.49 230.725 1145.44C229.616 1145.19 228.461 1145.07 227.278 1145.07C225.812 1145.07 224.393 1145.26 223.041 1145.64C222.798 1145.7 222.557 1145.77 222.32 1145.85C217.259 1147.5 213.291 1151.61 211.82 1156.77C211.751 1157.01 211.688 1157.25 211.632 1157.5C211.379 1158.57 211.233 1159.68 211.209 1160.82C211.207 1160.94 211.204 1161.07 211.204 1161.2C211.204 1161.32 211.204 1161.45 211.209 1161.57C211.276 1164.41 212.073 1167.07 213.426 1169.37C213.553 1169.59 213.685 1169.8 213.825 1170.01C216.696 1174.41 221.654 1177.32 227.278 1177.32C228.522 1177.32 229.734 1177.18 230.899 1176.91C231.145 1176.85 231.388 1176.79 231.631 1176.72C236.661 1175.3 240.699 1171.48 242.435 1166.57C242.519 1166.33 242.599 1166.1 242.67 1165.85C243.116 1164.38 243.354 1162.81 243.354 1161.19C243.354 1160.36 243.291 1159.54 243.169 1158.74C243.132 1158.49 243.087 1158.24 243.037 1158C242.303 1154.35 240.335 1151.14 237.588 1148.83C237.398 1148.67 237.199 1148.51 237.001 1148.35C235.747 1147.4 234.347 1146.62 232.838 1146.06C232.603 1145.97 232.365 1145.89 232.125 1145.81C232.262 1145.38 232.397 1144.95 232.535 1144.51C232.775 1144.59 233.013 1144.67 233.248 1144.76C239.928 1147.21 244.712 1153.65 244.712 1161.19H244.709Z" fill="#030303"/>
<path d="M229.554 1161.19C229.554 1161.37 229.536 1161.54 229.493 1161.71C229.435 1161.96 229.337 1162.2 229.203 1162.41C228.97 1162.79 228.632 1163.08 228.231 1163.27C228.006 1163.37 227.76 1163.45 227.502 1163.47C227.425 1163.48 227.351 1163.48 227.274 1163.48C226.543 1163.48 225.89 1163.14 225.473 1162.59C225.317 1162.4 225.198 1162.17 225.116 1161.93C225.074 1161.8 225.045 1161.68 225.024 1161.55C225.005 1161.43 224.997 1161.32 224.997 1161.19C224.997 1161.06 225.011 1160.92 225.034 1160.79C225.034 1160.79 225.034 1160.78 225.037 1160.78C225.085 1160.52 225.172 1160.28 225.299 1160.06C225.542 1159.63 225.919 1159.29 226.371 1159.1C226.413 1159.08 226.458 1159.06 226.5 1159.05C226.691 1158.98 226.891 1158.93 227.103 1158.92C227.161 1158.91 227.216 1158.91 227.277 1158.91C227.293 1158.91 227.309 1158.91 227.325 1158.91C227.546 1158.91 227.76 1158.95 227.964 1159.01C228.022 1159.03 228.08 1159.05 228.136 1159.07C228.318 1159.15 228.489 1159.24 228.645 1159.36C228.693 1159.4 228.738 1159.43 228.783 1159.47C229.002 1159.67 229.184 1159.9 229.316 1160.17C229.43 1160.39 229.506 1160.64 229.538 1160.9C229.551 1161 229.557 1161.09 229.557 1161.19L229.554 1161.19Z" fill="#030303"/>
<path d="M275.255 1145.87C275.057 1146.03 274.862 1146.19 274.671 1146.36C272.603 1148.16 270.923 1150.41 269.777 1152.94C269.703 1153.1 269.631 1153.27 269.565 1153.43C269.441 1153.72 269.325 1154.02 269.214 1154.33C269.153 1154.49 269.098 1154.66 269.04 1154.83C268.881 1155.31 268.741 1155.79 268.62 1156.29C268.559 1156.54 268.503 1156.79 268.453 1157.04C268.197 1157.02 267.943 1157.01 267.693 1157C267.74 1156.75 267.796 1156.5 267.854 1156.25C267.967 1155.77 268.097 1155.3 268.245 1154.83C268.292 1154.68 268.342 1154.53 268.393 1154.38C268.548 1153.92 268.723 1153.47 268.91 1153.03C268.974 1152.88 269.037 1152.74 269.106 1152.59C270.284 1150 271.996 1147.71 274.098 1145.86C274.288 1145.69 274.484 1145.52 274.682 1145.36C274.875 1145.53 275.065 1145.7 275.255 1145.87V1145.87ZM307.136 1160.87C307.136 1171.88 298.205 1180.84 287.227 1180.84C276.996 1180.84 268.543 1173.06 267.442 1163.08C267.415 1162.83 267.391 1162.58 267.373 1162.33L268.126 1162.3C268.144 1162.55 268.168 1162.8 268.197 1163.06C269.283 1172.63 277.403 1180.09 287.227 1180.09C297.787 1180.09 306.383 1171.47 306.383 1160.87C306.383 1150.27 297.79 1141.64 287.227 1141.64C283.47 1141.64 279.962 1142.74 277.001 1144.62C276.779 1144.76 276.557 1144.9 276.344 1145.06C276.153 1144.88 275.961 1144.71 275.765 1144.54C275.982 1144.38 276.198 1144.24 276.42 1144.09C279.534 1142.07 283.246 1140.89 287.227 1140.89C295.249 1140.89 302.18 1145.68 305.329 1152.55C305.472 1152.87 305.609 1153.19 305.738 1153.51C306.642 1155.79 307.136 1158.27 307.136 1160.87V1160.87Z" fill="#030303"/>
<path d="M268.07 1160.87C268.07 1161.35 268.089 1161.83 268.123 1162.3L267.37 1162.33C267.333 1161.84 267.315 1161.36 267.315 1160.87C267.315 1159.54 267.442 1158.25 267.69 1157C267.941 1157.01 268.194 1157.03 268.451 1157.04C268.2 1158.28 268.07 1159.56 268.07 1160.87Z" fill="#CE6326"/>
<path d="M277.453 1148.07C277.252 1148.22 277.057 1148.38 276.867 1148.54C274.458 1150.58 272.654 1153.32 271.763 1156.44C271.695 1156.69 271.629 1156.94 271.573 1157.19C271.111 1157.17 270.651 1157.14 270.2 1157.12C270.255 1156.87 270.313 1156.62 270.379 1156.38C271.301 1152.89 273.272 1149.83 275.932 1147.55C276.122 1147.39 276.317 1147.23 276.515 1147.07C276.838 1147.4 277.149 1147.73 277.453 1148.07ZM304.658 1160.87C304.658 1170.51 296.839 1178.36 287.227 1178.36C278.333 1178.36 270.971 1171.64 269.925 1162.99C269.893 1162.74 269.869 1162.49 269.848 1162.23L271.203 1162.18C271.222 1162.43 271.251 1162.68 271.283 1162.93C271.66 1165.89 272.838 1168.6 274.592 1170.83C274.748 1171.03 274.909 1171.22 275.071 1171.41C275.852 1172.32 276.732 1173.13 277.694 1173.84C277.894 1173.99 278.103 1174.14 278.312 1174.28C280.863 1175.99 283.93 1176.99 287.224 1176.99C288.159 1176.99 289.076 1176.92 289.969 1176.76C290.217 1176.72 290.463 1176.67 290.708 1176.61C295.479 1175.55 299.46 1172.36 301.599 1168.08C301.713 1167.86 301.821 1167.63 301.922 1167.4C302.809 1165.4 303.303 1163.19 303.303 1160.87C303.303 1157.91 302.503 1155.13 301.108 1152.74C300.984 1152.52 300.849 1152.31 300.712 1152.1C299.351 1149.99 297.516 1148.23 295.357 1146.96C295.141 1146.83 294.922 1146.7 294.7 1146.59C292.468 1145.4 289.924 1144.73 287.229 1144.73C286.094 1144.73 284.989 1144.85 283.92 1145.08C283.671 1145.13 283.428 1145.19 283.185 1145.25C281.78 1145.62 280.446 1146.17 279.215 1146.88C278.991 1147.01 278.769 1147.15 278.549 1147.29C278.243 1146.95 277.931 1146.61 277.612 1146.28C277.828 1146.14 278.05 1146 278.275 1145.86C280.892 1144.28 283.957 1143.37 287.227 1143.37C296.839 1143.37 304.658 1151.22 304.658 1160.86V1160.87ZM271.763 1156.45C271.695 1156.69 271.629 1156.94 271.573 1157.19C271.111 1157.17 270.651 1157.15 270.2 1157.13C270.255 1156.87 270.313 1156.63 270.379 1156.38C270.836 1156.4 271.301 1156.43 271.763 1156.45Z" fill="#030303"/>
<path d="M271.15 1160.87C271.15 1161.31 271.169 1161.75 271.203 1162.18L269.848 1162.23C269.814 1161.78 269.795 1161.32 269.795 1160.87C269.795 1159.58 269.933 1158.33 270.197 1157.13C270.651 1157.15 271.111 1157.17 271.57 1157.19C271.296 1158.37 271.15 1159.6 271.15 1160.87Z" fill="#CE6326"/>
<path d="M289.503 1160.87C289.503 1161.27 289.4 1161.65 289.218 1161.98C289.088 1162.21 288.922 1162.41 288.724 1162.59C288.544 1162.75 288.341 1162.88 288.116 1162.97C287.886 1163.07 287.641 1163.13 287.382 1163.15C287.332 1163.15 287.279 1163.15 287.226 1163.15C287.112 1163.15 286.999 1163.14 286.891 1163.13C286.618 1163.09 286.365 1163 286.135 1162.87C286.08 1162.84 286.027 1162.81 285.977 1162.77C285.786 1162.65 285.617 1162.5 285.472 1162.32C285.454 1162.3 285.435 1162.28 285.417 1162.26C285.271 1162.07 285.155 1161.85 285.078 1161.63C284.994 1161.39 284.949 1161.13 284.949 1160.87C284.949 1159.88 285.572 1159.04 286.447 1158.72C286.455 1158.71 286.463 1158.71 286.471 1158.71C286.698 1158.63 286.938 1158.59 287.189 1158.58C287.197 1158.58 287.205 1158.58 287.215 1158.58H287.229C287.641 1158.58 288.029 1158.7 288.362 1158.89C288.589 1159.02 288.787 1159.19 288.956 1159.38C289.083 1159.53 289.194 1159.7 289.278 1159.87C289.392 1160.11 289.466 1160.37 289.495 1160.64C289.503 1160.72 289.508 1160.79 289.508 1160.87L289.503 1160.87Z" fill="#030303"/>
<path d="M233.253 1139.87C233.176 1140.11 233.102 1140.35 233.026 1140.59C232.783 1140.53 232.54 1140.46 232.294 1140.4C230.706 1140.02 229.05 1139.82 227.349 1139.82C221.672 1139.82 216.344 1142.04 212.342 1146.08L212.319 1146.11C212.113 1146.28 211.788 1146.69 211.904 1146.84C212.012 1146.97 212.805 1146.92 213.579 1146.66L213.592 1146.7L213.819 1147.38C213.602 1147.45 213.143 1147.59 212.667 1147.64C212.139 1147.7 211.587 1147.66 211.312 1147.3C210.829 1146.68 211.402 1145.91 211.822 1145.54C215.964 1141.36 221.479 1139.06 227.352 1139.06C229.132 1139.06 230.865 1139.28 232.524 1139.68C232.769 1139.74 233.012 1139.8 233.255 1139.87L233.253 1139.87Z" fill="#030303"/>
<path d="M249.252 1161.04C249.252 1162.78 249.046 1164.52 248.644 1166.2L248.634 1166.23C248.444 1166.78 247.926 1167.62 247.133 1167.62C247.054 1167.62 246.975 1167.61 246.893 1167.59C246.616 1167.53 246.41 1167.4 246.262 1167.21C245.905 1166.77 245.863 1166.08 245.921 1165.62C245.921 1165.61 245.921 1165.61 245.921 1165.61C245.921 1165.6 245.921 1165.6 245.921 1165.59L246.666 1165.69C246.666 1165.69 246.666 1165.71 246.661 1165.73C246.645 1165.94 246.61 1166.77 247.041 1166.86C247.514 1166.95 247.865 1166.12 247.913 1166C248.296 1164.39 248.494 1162.72 248.494 1161.04C248.494 1151.83 242.609 1143.97 234.412 1141.04C234.174 1140.95 233.936 1140.87 233.699 1140.8C233.775 1140.56 233.849 1140.32 233.926 1140.08C234.166 1140.15 234.404 1140.23 234.642 1140.32C243.145 1143.34 249.249 1151.49 249.249 1161.04L249.252 1161.04Z" fill="#030303"/>
<path d="M273.892 1144.71C273.694 1144.87 273.501 1145.04 273.311 1145.21C271.063 1147.23 269.243 1149.74 268.033 1152.58C267.967 1152.73 267.906 1152.88 267.845 1153.03C267.668 1153.48 267.507 1153.93 267.359 1154.38C267.312 1154.53 267.264 1154.69 267.219 1154.84C267.087 1155.28 266.968 1155.74 266.868 1156.2C266.81 1156.45 266.76 1156.7 266.715 1156.95C266.456 1156.94 266.205 1156.93 265.957 1156.92C265.999 1156.67 266.049 1156.42 266.102 1156.16C266.2 1155.72 266.311 1155.28 266.435 1154.84C266.477 1154.68 266.522 1154.53 266.57 1154.38C266.707 1153.93 266.863 1153.48 267.032 1153.03C267.09 1152.88 267.148 1152.73 267.211 1152.58C268.421 1149.61 270.284 1146.91 272.682 1144.72C272.809 1144.6 272.941 1144.49 273.07 1144.37C273.134 1144.31 273.197 1144.26 273.261 1144.21C273.475 1144.37 273.686 1144.54 273.895 1144.71L273.892 1144.71Z" fill="#030303"/>
<path d="M307.17 1152.81C307.078 1153.09 306.874 1153.29 306.584 1153.4C306.267 1153.51 305.981 1153.54 305.736 1153.51C305.123 1153.44 304.748 1153.04 304.727 1153.02L305.274 1152.5C305.274 1152.5 305.295 1152.52 305.329 1152.55C305.461 1152.65 305.823 1152.88 306.322 1152.69C306.417 1152.65 306.444 1152.61 306.457 1152.57C306.539 1152.33 306.33 1151.82 306.161 1151.55L306.143 1151.51C302.648 1144.39 295.252 1139.78 287.301 1139.78C283.019 1139.78 278.977 1141.11 275.609 1143.4C275.39 1143.55 275.173 1143.7 274.959 1143.86C274.748 1143.69 274.534 1143.52 274.32 1143.36C274.532 1143.19 274.748 1143.04 274.967 1142.89C278.576 1140.38 282.873 1139.03 287.303 1139.03C291.437 1139.03 295.463 1140.19 298.942 1142.4C302.331 1144.55 305.052 1147.58 306.814 1151.17C306.911 1151.33 307.392 1152.17 307.173 1152.81H307.17Z" fill="#030303"/>
<path d="M269.795 1160.87C269.795 1161.32 269.814 1161.78 269.848 1162.23L268.123 1162.3C268.089 1161.83 268.07 1161.35 268.07 1160.87C268.07 1159.56 268.202 1158.28 268.451 1157.04C269.021 1157.07 269.602 1157.1 270.197 1157.13C269.933 1158.33 269.795 1159.58 269.795 1160.87Z" fill="#CE6326"/>
<path d="M284.947 1160.87C284.947 1161.13 284.992 1161.39 285.076 1161.63L271.203 1162.18C271.169 1161.75 271.15 1161.31 271.15 1160.87C271.15 1159.6 271.295 1158.37 271.57 1157.2C277.764 1157.51 284.374 1157.84 285.195 1157.9C285.948 1157.94 286.26 1158.26 286.394 1158.51C286.394 1158.51 286.394 1158.51 286.394 1158.52L286.442 1158.72C285.568 1159.04 284.944 1159.88 284.944 1160.87H284.947Z" fill="#CE6326"/>
<path d="M287.239 1158.79L286.862 1158.8L286.486 1158.82C286.486 1158.82 286.486 1158.82 286.486 1158.82C286.486 1158.8 286.481 1158.76 286.471 1158.71C286.457 1158.66 286.434 1158.59 286.399 1158.52C286.399 1158.52 286.399 1158.52 286.399 1158.51C286.267 1158.26 285.955 1157.95 285.2 1157.89C284.378 1157.84 277.769 1157.51 271.575 1157.2C271.113 1157.17 270.653 1157.15 270.201 1157.13C269.61 1157.1 269.026 1157.07 268.455 1157.04C268.199 1157.03 267.946 1157.01 267.695 1157C267.362 1156.99 267.034 1156.97 266.715 1156.95C266.456 1156.94 266.205 1156.93 265.957 1156.92C265.521 1156.89 265.103 1156.87 264.702 1156.85C264.527 1156.85 264.361 1156.84 264.195 1156.83C264.018 1156.82 263.849 1156.81 263.682 1156.8C263.508 1156.79 263.339 1156.78 263.175 1156.78C261.484 1156.69 260.401 1156.64 260.351 1156.63H260.33C260.33 1156.63 258.97 1156.51 257.741 1157.35C256.859 1157.95 255.94 1159.05 255.467 1159.66C255.089 1160.15 254.809 1160.67 254.638 1161.22C254.458 1161.79 254.45 1162.22 254.614 1162.34C254.902 1162.55 255.372 1162.66 255.818 1162.71C255.977 1162.73 256.133 1162.74 256.275 1162.75C256.505 1162.76 256.701 1162.76 256.827 1162.75L257.599 1162.72L258.05 1162.7L259.82 1162.63L260.354 1162.61L260.843 1162.59L261.379 1162.57L263.299 1162.49L263.751 1162.47L265.19 1162.41L265.642 1162.4L267.378 1162.33L268.13 1162.3L269.855 1162.23L271.211 1162.18L285.084 1161.62L285.448 1161.61L285.472 1162.21L285.477 1162.32V1162.36L285.271 1162.37L271.287 1162.93L269.927 1162.98L268.199 1163.05L267.444 1163.08L265.595 1163.15L265.138 1163.17L263.643 1163.23L263.164 1163.25L260.927 1163.34L260.391 1163.36L259.91 1163.38L259.376 1163.4L258.246 1163.45L257.768 1163.47L256.864 1163.5C256.827 1163.5 256.724 1163.51 256.579 1163.51C256.521 1163.51 256.458 1163.51 256.389 1163.51C256.252 1163.5 256.09 1163.5 255.919 1163.48C255.348 1163.43 254.648 1163.29 254.178 1162.95C253.705 1162.61 253.621 1161.95 253.924 1160.99C254.125 1160.35 254.447 1159.75 254.881 1159.19C255.488 1158.41 256.405 1157.35 257.321 1156.72C258.396 1155.99 259.524 1155.87 260.074 1155.87C260.246 1155.87 260.362 1155.88 260.399 1155.88C260.438 1155.88 260.589 1155.89 260.84 1155.9C261.014 1155.91 261.233 1155.92 261.495 1155.93C261.72 1155.95 261.976 1155.96 262.261 1155.97C262.657 1155.99 263.106 1156.01 263.6 1156.04C263.764 1156.05 263.933 1156.06 264.105 1156.07C264.274 1156.07 264.446 1156.08 264.623 1156.09C264.789 1156.1 264.958 1156.11 265.13 1156.12C265.444 1156.13 265.766 1156.15 266.102 1156.16C266.353 1156.18 266.609 1156.19 266.868 1156.2C267.19 1156.22 267.52 1156.24 267.856 1156.25C268.107 1156.27 268.363 1156.28 268.622 1156.29C269.195 1156.32 269.784 1156.35 270.381 1156.38C270.838 1156.4 271.303 1156.43 271.765 1156.45C275.643 1156.64 279.663 1156.85 282.31 1156.99C282.598 1157 282.87 1157.01 283.124 1157.03C283.639 1157.05 284.077 1157.08 284.423 1157.09C284.825 1157.12 285.105 1157.13 285.24 1157.14H285.245C285.583 1157.16 285.868 1157.23 286.106 1157.33C286.648 1157.54 286.954 1157.91 287.107 1158.26C287.107 1158.26 287.107 1158.26 287.107 1158.27C287.155 1158.38 287.189 1158.48 287.21 1158.58C287.226 1158.66 287.234 1158.73 287.237 1158.79L287.239 1158.79Z" fill="#030303"/>
<path d="M265.638 1162.48C265.638 1162.71 265.622 1162.94 265.59 1163.16C265.263 1165.56 263.205 1167.41 260.724 1167.41C260.035 1167.41 259.38 1167.27 258.786 1167.01C258.648 1166.95 258.511 1166.89 258.379 1166.81L258.606 1166.42C258.738 1166.49 258.875 1166.56 259.015 1166.62C259.541 1166.84 260.12 1166.96 260.724 1166.96C262.951 1166.96 264.8 1165.32 265.133 1163.18C265.168 1162.95 265.186 1162.72 265.186 1162.48C265.186 1162.46 265.186 1162.44 265.186 1162.42L265.638 1162.4C265.638 1162.43 265.638 1162.45 265.638 1162.48ZM258.278 1166.23L258.051 1166.62C257.924 1166.54 257.8 1166.45 257.681 1166.35C256.791 1165.65 256.149 1164.64 255.912 1163.48C255.861 1163.23 255.827 1162.97 255.814 1162.71C255.972 1162.73 256.128 1162.74 256.271 1162.75C256.284 1163.01 256.321 1163.26 256.382 1163.51C256.609 1164.48 257.158 1165.34 257.911 1165.95C258.027 1166.05 258.152 1166.14 258.278 1166.22V1166.23Z" fill="#030303"/>
<path d="M259.201 1164.61L258.973 1165.01C258.847 1164.92 258.725 1164.83 258.611 1164.73C258.231 1164.39 257.935 1163.95 257.761 1163.47C257.674 1163.23 257.618 1162.98 257.594 1162.72L258.046 1162.7C258.073 1162.96 258.139 1163.21 258.239 1163.45C258.379 1163.78 258.588 1164.08 258.844 1164.32C258.955 1164.43 259.074 1164.53 259.201 1164.61V1164.61ZM263.747 1162.47C263.744 1162.74 263.707 1162.99 263.638 1163.24C263.282 1164.55 262.082 1165.52 260.664 1165.52C260.342 1165.52 260.033 1165.47 259.739 1165.37C259.594 1165.33 259.451 1165.27 259.317 1165.2L259.547 1164.81C259.684 1164.88 259.827 1164.93 259.977 1164.97C260.196 1165.03 260.429 1165.06 260.667 1165.06C261.829 1165.06 262.814 1164.31 263.163 1163.26C263.242 1163.02 263.29 1162.76 263.295 1162.49L263.747 1162.47Z" fill="#030303"/>
<path d="M258.775 1169.99C258.775 1170.61 258.27 1171.12 257.65 1171.12H253.059C252.441 1171.12 251.936 1170.61 251.936 1169.99C251.936 1169.36 252.441 1168.86 253.059 1168.86H257.65C257.671 1168.86 257.692 1168.86 257.71 1168.86C258.302 1168.89 258.772 1169.38 258.772 1169.98L258.775 1169.99ZM258.323 1169.99C258.323 1169.62 258.022 1169.31 257.652 1169.31H253.061C252.691 1169.31 252.39 1169.62 252.39 1169.99C252.39 1170.36 252.691 1170.66 253.061 1170.66H257.652C258.022 1170.66 258.323 1170.36 258.323 1169.99Z" fill="#030303"/>
<path d="M258.323 1169.99C258.323 1170.36 258.022 1170.66 257.652 1170.66H253.061C252.691 1170.66 252.39 1170.36 252.39 1169.99C252.39 1169.62 252.691 1169.31 253.061 1169.31H257.652C258.022 1169.31 258.323 1169.62 258.323 1169.99Z" fill="#4F4F4F"/>
<path d="M267.36 1154.38C267.312 1154.53 267.265 1154.69 267.22 1154.84H264.808L265.067 1154.38H267.36ZM267.36 1154.38C267.312 1154.53 267.265 1154.69 267.22 1154.84H264.808L265.067 1154.38H267.36ZM267.36 1154.38C267.312 1154.53 267.265 1154.69 267.22 1154.84H264.808L265.067 1154.38H267.36ZM267.36 1154.38C267.312 1154.53 267.265 1154.69 267.22 1154.84H264.808L265.067 1154.38H267.36ZM267.36 1154.38C267.312 1154.53 267.265 1154.69 267.22 1154.84H264.808L265.067 1154.38H267.36ZM267.36 1154.38C267.312 1154.53 267.265 1154.69 267.22 1154.84H264.808L265.067 1154.38H267.36ZM267.36 1154.38C267.312 1154.53 267.265 1154.69 267.22 1154.84H264.808L265.067 1154.38H267.36ZM267.36 1154.38C267.312 1154.53 267.265 1154.69 267.22 1154.84H264.808L265.067 1154.38H267.36ZM267.36 1154.38C267.312 1154.53 267.265 1154.69 267.22 1154.84H264.808L265.067 1154.38H267.36ZM267.36 1154.38C267.312 1154.53 267.265 1154.69 267.22 1154.84H264.808L265.067 1154.38H267.36ZM267.36 1154.38C267.312 1154.53 267.265 1154.69 267.22 1154.84H264.808L265.067 1154.38H267.36ZM263.691 1153.71C263.691 1154.08 263.992 1154.38 264.362 1154.38H267.36C267.312 1154.53 267.265 1154.68 267.22 1154.83H264.362C264.335 1154.83 264.312 1154.83 264.288 1154.83C263.704 1154.79 263.239 1154.3 263.239 1153.7C263.239 1153.11 263.744 1152.58 264.362 1152.58H268.036C267.97 1152.72 267.909 1152.88 267.849 1153.03H264.364C263.995 1153.03 263.693 1153.33 263.693 1153.7L263.691 1153.71ZM269.777 1152.94C269.703 1153.1 269.632 1153.27 269.566 1153.43C269.46 1153.2 269.227 1153.03 268.953 1153.03H268.913C268.976 1152.89 269.04 1152.74 269.109 1152.59C269.373 1152.63 269.608 1152.76 269.777 1152.94ZM269.212 1154.33C269.151 1154.5 269.095 1154.66 269.037 1154.83C269.008 1154.83 268.979 1154.84 268.95 1154.84H268.242C268.29 1154.69 268.34 1154.53 268.39 1154.38H268.947C269.04 1154.38 269.127 1154.36 269.209 1154.33H269.212ZM267.36 1154.38C267.312 1154.53 267.265 1154.69 267.22 1154.84H264.808L265.067 1154.38H267.36ZM267.36 1154.38C267.312 1154.53 267.265 1154.69 267.22 1154.84H264.808L265.067 1154.38H267.36ZM267.36 1154.38C267.312 1154.53 267.265 1154.69 267.22 1154.84H264.808L265.067 1154.38H267.36ZM267.36 1154.38C267.312 1154.53 267.265 1154.69 267.22 1154.84H264.808L265.067 1154.38H267.36ZM267.36 1154.38C267.312 1154.53 267.265 1154.69 267.22 1154.84H264.808L265.067 1154.38H267.36ZM267.36 1154.38C267.312 1154.53 267.265 1154.69 267.22 1154.84H264.808L265.067 1154.38H267.36ZM267.36 1154.38C267.312 1154.53 267.265 1154.69 267.22 1154.84H264.808L265.067 1154.38H267.36ZM267.36 1154.38C267.312 1154.53 267.265 1154.69 267.22 1154.84H264.808L265.067 1154.38H267.36ZM267.36 1154.38C267.312 1154.53 267.265 1154.69 267.22 1154.84H264.808L265.067 1154.38H267.36ZM267.36 1154.38C267.312 1154.53 267.265 1154.69 267.22 1154.84H264.808L265.067 1154.38H267.36Z" fill="#030303"/>
<path d="M258.614 1164.73L257.914 1165.96C257.161 1165.34 256.611 1164.49 256.384 1163.51C256.453 1163.51 256.516 1163.51 256.575 1163.51C256.72 1163.51 256.823 1163.51 256.86 1163.51L257.763 1163.47C257.938 1163.96 258.233 1164.39 258.614 1164.73Z" fill="#5D5D5D"/>
<path d="M260.349 1162.61L259.905 1163.38L259.2 1164.61L258.976 1165.01L258.278 1166.23L258.051 1166.62L256.77 1168.86L256.516 1169.3L256.123 1169.07L256.249 1168.86L257.684 1166.36L257.911 1165.96L258.614 1164.73L258.843 1164.33L259.372 1163.41L259.816 1162.63L260.349 1162.61Z" fill="#030303"/>
<path d="M267.03 1153.03C266.861 1153.48 266.705 1153.93 266.568 1154.38H264.359C263.989 1154.38 263.688 1154.08 263.688 1153.71C263.688 1153.34 263.989 1153.04 264.359 1153.04H267.03V1153.03Z" fill="#4F4F4F"/>
<path d="M265.064 1154.38L264.805 1154.84L264.103 1156.07L263.683 1156.8C263.508 1156.79 263.339 1156.78 263.176 1156.78L263.598 1156.04L264.288 1154.83L264.547 1154.39H265.067L265.064 1154.38Z" fill="#030303"/>
<path d="M265.133 1163.17C264.8 1165.32 262.951 1166.96 260.724 1166.96C260.119 1166.96 259.541 1166.84 259.015 1166.62L259.739 1165.37C260.032 1165.47 260.341 1165.52 260.663 1165.52C262.082 1165.52 263.281 1164.55 263.638 1163.24L265.133 1163.18V1163.17Z" fill="#4F4F4F"/>
<path d="M260.386 1163.37L259.546 1164.81L259.316 1165.2L258.606 1166.42L258.379 1166.82L257.19 1168.86H256.77L258.051 1166.62L258.278 1166.23L258.976 1165.01L259.2 1164.61L259.905 1163.38L260.386 1163.37Z" fill="#5D5D5D"/>
<path d="M261.374 1162.57L260.922 1163.34L259.974 1164.97L259.739 1165.37L259.018 1166.62L258.785 1167.01L257.71 1168.86L257.515 1169.2L257.124 1168.97L257.19 1168.86L258.379 1166.82L258.606 1166.42L259.316 1165.2L259.546 1164.81L260.386 1163.37L260.838 1162.59L261.374 1162.57Z" fill="#030303"/>
<path d="M267.317 1160.87C267.317 1161.36 267.336 1161.85 267.373 1162.33L265.637 1162.4L265.186 1162.42L263.746 1162.47L263.294 1162.49L261.374 1162.57L260.838 1162.59L260.349 1162.61L259.816 1162.63L258.046 1162.7L257.594 1162.72L256.823 1162.75C256.696 1162.76 256.5 1162.76 256.271 1162.75C256.128 1162.74 255.972 1162.73 255.814 1162.71C255.367 1162.66 254.897 1162.55 254.609 1162.34C254.443 1162.22 254.451 1161.79 254.633 1161.22C254.807 1160.67 255.085 1160.15 255.462 1159.66C255.935 1159.06 256.854 1157.96 257.737 1157.35C258.965 1156.51 260.312 1156.63 260.325 1156.63H260.347C260.397 1156.64 261.48 1156.69 263.17 1156.78C263.334 1156.78 263.503 1156.79 263.677 1156.8C263.844 1156.81 264.013 1156.82 264.19 1156.83C264.356 1156.83 264.525 1156.84 264.697 1156.85C265.096 1156.87 265.516 1156.89 265.952 1156.92C266.2 1156.93 266.451 1156.94 266.71 1156.95C267.03 1156.97 267.357 1156.99 267.69 1157C267.442 1158.25 267.315 1159.55 267.315 1160.87H267.317Z" fill="#CE6326"/>
<path d="M265.35 1154.84L264.621 1156.09C264.444 1156.08 264.272 1156.07 264.103 1156.06L264.806 1154.83H265.35V1154.84Z" fill="#5D5D5D"/>
<path d="M265.901 1154.79L265.872 1154.83L265.127 1156.11L264.699 1156.85C264.525 1156.84 264.359 1156.83 264.192 1156.82L264.62 1156.09L265.349 1154.84L265.51 1154.56L265.901 1154.79V1154.79Z" fill="#030303"/>
<path d="M266.396 1131.27L266.335 1131.53L260.832 1155.9L260.735 1156.34L259.998 1156.17L260.066 1155.87H260.069L260.51 1153.9L260.692 1153.09L260.906 1152.16L261.086 1151.35L265.582 1131.45L265.661 1131.1L266.396 1131.27Z" fill="#030303"/>
<path d="M267.973 1131.39L267.899 1131.7L266.396 1138.16L266.224 1138.91L265.96 1140.05L265.785 1140.79L262.254 1155.97L262.164 1156.37L261.43 1156.2L261.49 1155.93L267.143 1131.62L267.238 1131.22L267.973 1131.39Z" fill="#030303"/>
<path d="M274.463 1130.08C274.003 1131.11 272.957 1131.49 272.452 1131.67C271.866 1131.88 271.324 1131.94 270.852 1131.94C270.548 1131.94 270.276 1131.92 270.035 1131.9C269.19 1131.83 268.493 1131.76 267.901 1131.7C267.629 1131.67 267.378 1131.65 267.146 1131.62C266.85 1131.59 266.586 1131.56 266.337 1131.53C266.065 1131.5 265.819 1131.47 265.584 1131.44C265.471 1131.43 265.36 1131.42 265.252 1131.4C264.972 1131.37 264.699 1131.34 264.409 1131.3L263.965 1131.25C262.232 1131.06 261.086 1130.93 260.436 1130.08C260.293 1129.89 259.913 1129.4 259.974 1128.72C259.982 1128.64 260.056 1127.97 260.581 1127.57C260.864 1127.35 261.184 1127.27 261.511 1127.27C261.873 1127.27 262.245 1127.36 262.597 1127.45C262.665 1127.46 262.737 1127.48 262.805 1127.5C262.819 1127.5 264.079 1127.78 265.959 1127.78H265.965C266.739 1127.78 268.015 1127.43 270.558 1126.73L270.949 1126.62C272.249 1126.26 272.685 1126.14 273.261 1126.42C274.439 1127 275.033 1128.81 274.465 1130.08L274.463 1130.08ZM272.928 1127.1C272.621 1126.95 272.355 1127.01 271.15 1127.35L270.756 1127.46C268.149 1128.18 266.839 1128.54 265.962 1128.54H265.957C263.984 1128.54 262.689 1128.24 262.634 1128.23C262.562 1128.22 262.491 1128.2 262.417 1128.18C261.865 1128.05 261.347 1127.92 261.036 1128.16C260.761 1128.37 260.721 1128.78 260.719 1128.79C260.684 1129.17 260.917 1129.47 261.028 1129.62C261.485 1130.21 262.502 1130.33 264.044 1130.5L264.491 1130.55C264.781 1130.59 265.056 1130.62 265.339 1130.65C266.395 1130.78 267.592 1130.93 270.099 1131.14C270.672 1131.19 271.388 1131.25 272.196 1130.96C272.632 1130.8 273.446 1130.5 273.776 1129.77C274.217 1128.79 273.667 1127.46 272.928 1127.1V1127.1Z" fill="#030303"/>
<path d="M273.776 1129.77C273.446 1130.51 272.632 1130.8 272.196 1130.96C271.388 1131.26 270.675 1131.2 270.099 1131.15C267.595 1130.93 266.396 1130.79 265.339 1130.66C265.056 1130.62 264.782 1130.59 264.491 1130.56L264.045 1130.51C262.502 1130.33 261.485 1130.21 261.028 1129.62C260.917 1129.48 260.687 1129.18 260.719 1128.79C260.719 1128.79 260.761 1128.38 261.036 1128.17C261.348 1127.93 261.865 1128.05 262.417 1128.19C262.489 1128.2 262.56 1128.22 262.634 1128.24C262.689 1128.25 263.984 1128.54 265.957 1128.54H265.962C266.837 1128.54 268.147 1128.18 270.757 1127.46L271.15 1127.35C272.355 1127.02 272.622 1126.95 272.928 1127.11C273.668 1127.47 274.217 1128.8 273.776 1129.77V1129.77Z" fill="#7C5039"/>
<path d="M267.143 1131.62L261.49 1155.93C261.228 1155.92 261.007 1155.91 260.835 1155.9L266.337 1131.53C266.586 1131.56 266.85 1131.59 267.146 1131.62H267.143Z" fill="#CE6326"/>
<path d="M261.15 1153.44L260.698 1154.04L260.511 1153.9L236.127 1135.61L235.511 1135.15L235.96 1134.55L236.367 1134.85L260.693 1153.09L261.15 1153.44Z" fill="#030303"/>
<path d="M261.609 1151.74L261.163 1152.34L260.907 1152.16L236.576 1134.18L236.076 1133.81L236.523 1133.2L236.816 1133.42L261.086 1151.35L261.609 1151.74Z" fill="#030303"/>
<path d="M274.098 1145.86C271.995 1147.71 270.284 1150.01 269.106 1152.59C269.04 1152.74 268.974 1152.88 268.91 1153.03C268.723 1153.48 268.548 1153.93 268.392 1154.38C268.342 1154.53 268.292 1154.68 268.245 1154.84C268.097 1155.3 267.967 1155.77 267.854 1156.25C267.518 1156.24 267.188 1156.22 266.866 1156.2C266.966 1155.74 267.085 1155.29 267.217 1154.84C267.262 1154.68 267.309 1154.53 267.357 1154.38C267.505 1153.93 267.666 1153.48 267.843 1153.03C267.904 1152.88 267.965 1152.73 268.031 1152.58C269.24 1149.74 271.06 1147.23 273.308 1145.21C273.572 1145.42 273.837 1145.64 274.096 1145.86H274.098Z" fill="#CE6326"/>
<path d="M283.143 1157.02L283.124 1157.03L282.448 1157.31C282.403 1157.2 282.356 1157.09 282.311 1156.98C280.972 1153.87 279.12 1151.02 276.867 1148.54C276.563 1148.21 276.251 1147.88 275.932 1147.55C275.522 1147.14 275.105 1146.74 274.674 1146.36C274.487 1146.19 274.294 1146.02 274.101 1145.86C273.842 1145.64 273.581 1145.42 273.314 1145.2C273.105 1145.04 272.894 1144.88 272.682 1144.71C270.575 1143.12 268.261 1141.79 265.788 1140.79C265.661 1140.74 265.534 1140.69 265.408 1140.64L265.68 1139.93C265.772 1139.97 265.867 1140.01 265.962 1140.04C268.585 1141.09 271.039 1142.5 273.264 1144.2C273.478 1144.37 273.689 1144.53 273.898 1144.7C274.164 1144.92 274.428 1145.14 274.687 1145.36C274.88 1145.53 275.07 1145.7 275.261 1145.87C275.691 1146.26 276.111 1146.66 276.518 1147.07C276.84 1147.4 277.152 1147.73 277.456 1148.07C279.83 1150.69 281.769 1153.71 283.146 1157.02H283.143Z" fill="#030303"/>
<path d="M283.124 1157.03L283.142 1157.02C281.766 1153.71 279.827 1150.69 277.453 1148.07C277.149 1147.73 276.835 1147.4 276.515 1147.08C276.108 1146.66 275.688 1146.26 275.258 1145.87C275.067 1145.7 274.877 1145.53 274.684 1145.36C274.425 1145.14 274.161 1144.92 273.895 1144.7C273.686 1144.53 273.475 1144.37 273.261 1144.2C271.039 1142.5 268.582 1141.1 265.959 1140.04L266.224 1138.9C269.15 1139.96 271.876 1141.48 274.32 1143.36C274.536 1143.52 274.75 1143.69 274.959 1143.86C275.231 1144.08 275.501 1144.31 275.765 1144.54C275.96 1144.71 276.153 1144.88 276.343 1145.05C276.776 1145.45 277.199 1145.86 277.611 1146.28C277.931 1146.61 278.245 1146.95 278.549 1147.29C281.087 1150.14 283.1 1153.46 284.426 1157.09C284.078 1157.07 283.639 1157.05 283.127 1157.02L283.124 1157.03Z" fill="#CE6326"/>
<path d="M306.457 1152.57C306.444 1152.61 306.418 1152.66 306.322 1152.69C305.823 1152.88 305.461 1152.66 305.329 1152.56C302.181 1145.68 295.249 1140.89 287.227 1140.89C283.246 1140.89 279.535 1142.07 276.42 1144.1C276.156 1143.86 275.884 1143.63 275.612 1143.41C278.98 1141.12 283.022 1139.79 287.304 1139.79C295.254 1139.79 302.651 1144.39 306.145 1151.52L306.164 1151.55C306.33 1151.82 306.542 1152.33 306.46 1152.57L306.457 1152.57Z" fill="#CE6326"/>
<path d="M285.307 1157.33L284.596 1157.58C284.541 1157.42 284.482 1157.25 284.427 1157.1C283.101 1153.47 281.088 1150.14 278.55 1147.3C278.243 1146.95 277.932 1146.62 277.612 1146.29C277.2 1145.87 276.777 1145.46 276.344 1145.06C276.154 1144.89 275.961 1144.71 275.765 1144.54C275.501 1144.32 275.235 1144.09 274.96 1143.87C274.748 1143.7 274.535 1143.53 274.321 1143.36C271.88 1141.48 269.151 1139.97 266.224 1138.91C266.079 1138.86 265.931 1138.81 265.783 1138.75L266.029 1138.04C266.15 1138.08 266.274 1138.13 266.396 1138.17C269.468 1139.27 272.374 1140.88 274.965 1142.9C275.182 1143.06 275.398 1143.24 275.61 1143.41C275.884 1143.63 276.154 1143.87 276.418 1144.1C276.613 1144.27 276.809 1144.45 276.999 1144.62C277.298 1144.9 277.588 1145.18 277.873 1145.46C278.008 1145.6 278.14 1145.73 278.27 1145.87C278.592 1146.2 278.904 1146.54 279.21 1146.89C281.849 1149.89 283.915 1153.39 285.238 1157.14C285.262 1157.21 285.283 1157.27 285.304 1157.33L285.307 1157.33Z" fill="#030303"/>
<path d="M248.5 1161.04C248.5 1162.71 248.304 1164.38 247.918 1165.99C247.871 1166.12 247.52 1166.95 247.047 1166.85C246.616 1166.76 246.653 1165.93 246.666 1165.73C247.004 1164.27 247.184 1162.75 247.184 1161.19C247.184 1152.54 241.674 1145.16 233.992 1142.39C234.135 1141.93 234.278 1141.48 234.418 1141.03C242.614 1143.96 248.5 1151.82 248.5 1161.04Z" fill="#CE6326"/>
<path d="M232.296 1140.4C232.151 1140.87 232.011 1141.32 231.874 1141.76C230.4 1141.41 228.857 1141.22 227.278 1141.22C221.981 1141.22 217.16 1143.31 213.592 1146.7L213.579 1146.66C212.805 1146.92 212.012 1146.98 211.904 1146.84C211.79 1146.69 212.115 1146.28 212.319 1146.11L212.342 1146.08C216.344 1142.04 221.672 1139.82 227.349 1139.82C229.053 1139.82 230.709 1140.02 232.294 1140.4H232.296Z" fill="#CE6326"/>
<path d="M237.917 1127.31C237.904 1127.39 237.877 1127.52 237.817 1127.71C237.719 1128.04 235.965 1133.61 233.928 1140.07C233.852 1140.31 233.778 1140.55 233.701 1140.8C233.558 1141.24 233.418 1141.69 233.276 1142.14C233.199 1142.38 233.123 1142.62 233.049 1142.87C232.874 1143.41 232.703 1143.97 232.528 1144.51C232.391 1144.95 232.256 1145.38 232.119 1145.81C230.397 1151.28 228.751 1156.5 227.961 1159.01C227.76 1158.95 227.546 1158.91 227.322 1158.91C227.906 1157 229.559 1151.69 231.456 1145.62C231.591 1145.19 231.725 1144.76 231.863 1144.32C232.032 1143.77 232.203 1143.22 232.378 1142.67C232.454 1142.43 232.528 1142.19 232.602 1141.94C232.745 1141.5 232.885 1141.04 233.025 1140.59C233.102 1140.35 233.175 1140.11 233.252 1139.87C234.676 1135.31 236.094 1130.77 237.196 1127.25L237.206 1127.21C237.214 1127.18 237.241 1127.12 237.265 1127.11C237.283 1127.1 237.341 1127.09 237.452 1127.13L237.914 1127.31L237.917 1127.31Z" fill="#CE6326"/>
<path d="M260.906 1152.16L260.695 1153.09L236.367 1134.85C236.438 1134.62 236.509 1134.4 236.575 1134.18L260.906 1152.16Z" fill="#CE6326"/>
<path d="M238.538 1127.93C238.478 1128.14 237.799 1130.29 236.816 1133.42C236.737 1133.67 236.658 1133.92 236.576 1134.18C236.507 1134.4 236.438 1134.62 236.367 1134.85C236.288 1135.1 236.209 1135.36 236.127 1135.61C235.664 1137.07 235.165 1138.66 234.645 1140.32C234.568 1140.55 234.494 1140.8 234.418 1141.04C234.278 1141.48 234.135 1141.94 233.992 1142.39C233.916 1142.63 233.839 1142.87 233.765 1143.11C233.591 1143.66 233.419 1144.21 233.245 1144.76C233.108 1145.19 232.973 1145.62 232.835 1146.06C231.38 1150.68 229.983 1155.12 229.103 1157.9C228.929 1158.46 228.773 1158.95 228.643 1159.36C228.591 1159.53 228.543 1159.68 228.498 1159.82C228.334 1160.34 228.226 1160.68 228.192 1160.8L227.624 1160.62L227.473 1160.57C227.478 1160.56 227.502 1160.48 227.542 1160.35C227.579 1160.23 227.634 1160.06 227.7 1159.85C227.737 1159.73 227.78 1159.6 227.824 1159.45C227.867 1159.32 227.914 1159.17 227.962 1159.02C228.752 1156.51 230.397 1151.29 232.12 1145.82C232.257 1145.39 232.392 1144.95 232.529 1144.52C232.703 1143.97 232.875 1143.42 233.049 1142.87C233.126 1142.63 233.2 1142.39 233.277 1142.15C233.419 1141.7 233.559 1141.25 233.702 1140.8C233.778 1140.56 233.852 1140.32 233.929 1140.08C235.966 1133.62 237.72 1128.05 237.817 1127.72C237.875 1127.52 237.905 1127.39 237.918 1127.31L237.455 1127.14C237.345 1127.09 237.286 1127.1 237.268 1127.11C237.241 1127.12 237.218 1127.18 237.21 1127.21L237.199 1127.26C236.098 1130.77 234.679 1135.31 233.255 1139.88C233.179 1140.12 233.105 1140.36 233.028 1140.6C232.888 1141.05 232.748 1141.5 232.606 1141.95C232.532 1142.19 232.458 1142.43 232.381 1142.67C232.207 1143.22 232.035 1143.78 231.866 1144.32C231.729 1144.76 231.594 1145.19 231.459 1145.62C229.563 1151.7 227.909 1157.01 227.325 1158.91C227.283 1159.05 227.246 1159.17 227.214 1159.28C227.148 1159.49 227.111 1159.62 227.101 1159.65L226.776 1159.57H226.356C226.356 1159.56 226.356 1159.54 226.43 1159.29C226.448 1159.23 226.472 1159.15 226.501 1159.05C226.57 1158.82 226.67 1158.48 226.823 1158C227.338 1156.32 228.427 1152.81 230.727 1145.44C230.86 1145.02 230.994 1144.59 231.134 1144.14C231.301 1143.61 231.472 1143.05 231.649 1142.48C231.726 1142.24 231.8 1142 231.877 1141.76C232.014 1141.32 232.157 1140.87 232.299 1140.4C232.373 1140.16 232.447 1139.93 232.526 1139.68C233.633 1136.14 234.938 1131.97 236.478 1127.04C236.505 1126.94 236.6 1126.62 236.898 1126.45C236.993 1126.39 237.128 1126.34 237.308 1126.34C237.429 1126.34 237.569 1126.37 237.728 1126.42L237.754 1126.43L238.295 1126.64L238.351 1126.65C238.438 1126.68 238.515 1126.73 238.575 1126.8C238.612 1126.85 238.639 1126.9 238.657 1126.96C238.726 1127.16 238.689 1127.46 238.549 1127.92L238.538 1127.93Z" fill="#030303"/>
<path d="M244.378 1120.61C243.673 1120.75 241.467 1121.34 239.991 1123.43C238.977 1124.87 238.435 1125.97 238.158 1126.64L237.616 1126.44C237.801 1125.83 238.335 1124.24 238.961 1123.54C239.029 1123.46 239.064 1123.36 239.053 1123.26C239.043 1123.15 238.99 1123.06 238.905 1122.99C238.593 1122.76 237.555 1121.95 237.347 1121.35C237.307 1121.23 237.257 1121.1 237.204 1120.97C236.892 1120.19 236.541 1119.3 237.331 1118.24C238.007 1117.33 238.604 1116.69 238.9 1116.39C238.929 1116.36 238.963 1116.35 238.982 1116.35C239 1116.35 239.032 1116.36 239.061 1116.39L239.399 1116.77C239.412 1116.79 239.415 1116.8 239.415 1116.82C239.415 1116.83 239.41 1116.84 239.391 1116.86C238.897 1117.28 237.561 1118.7 237.621 1119.52C237.687 1120.42 237.856 1121.32 239.169 1122.26C239.418 1122.43 239.756 1122.39 239.959 1122.17C240.392 1121.68 241.684 1120.5 244.326 1120.04L244.368 1120.61H244.378Z" fill="#4F4F4F"/>
<path d="M244.833 1120.62C244.849 1120.83 244.706 1121.01 244.503 1121.05C244.495 1121.05 244.49 1121.05 244.484 1121.06C243.842 1121.18 241.756 1121.72 240.364 1123.69C239.294 1125.21 238.765 1126.34 238.522 1126.96C238.388 1127.3 238.343 1127.49 238.34 1127.49L237.902 1127.39C237.907 1127.36 237.97 1127.11 238.163 1126.64C238.438 1125.97 238.982 1124.87 239.996 1123.43C241.473 1121.34 243.679 1120.75 244.384 1120.61L244.342 1120.04C241.7 1120.5 240.408 1121.68 239.975 1122.16C239.772 1122.39 239.431 1122.43 239.185 1122.25C237.873 1121.31 237.704 1120.42 237.637 1119.51C237.579 1118.7 238.916 1117.28 239.407 1116.86C239.426 1116.84 239.428 1116.82 239.431 1116.81C239.431 1116.8 239.431 1116.79 239.415 1116.77L239.077 1116.39C239.048 1116.35 239.016 1116.35 238.998 1116.35C238.979 1116.35 238.945 1116.35 238.916 1116.38C238.62 1116.69 238.021 1117.32 237.347 1118.23C236.557 1119.3 236.908 1120.18 237.22 1120.97C237.27 1121.1 237.32 1121.23 237.363 1121.34C237.571 1121.95 238.61 1122.76 238.921 1122.99C239.006 1123.05 239.059 1123.15 239.069 1123.25C239.08 1123.36 239.045 1123.46 238.977 1123.54C238.351 1124.24 237.817 1125.83 237.632 1126.43C237.587 1126.58 237.564 1126.67 237.561 1126.67L237.125 1126.55C237.13 1126.54 237.149 1126.46 237.186 1126.34C237.363 1125.76 237.899 1124.12 238.581 1123.3C238.113 1122.95 237.167 1122.17 236.937 1121.49C236.898 1121.38 236.85 1121.26 236.803 1121.14C236.483 1120.34 236.047 1119.23 236.99 1117.97C237.682 1117.04 238.295 1116.38 238.599 1116.07C238.71 1115.96 238.861 1115.89 239.014 1115.9C239.024 1115.9 239.037 1115.9 239.048 1115.9C239.191 1115.91 239.325 1115.98 239.421 1116.09L239.497 1116.18L239.759 1116.47C239.788 1116.51 239.814 1116.55 239.835 1116.59C239.875 1116.67 239.896 1116.76 239.888 1116.85C239.883 1116.94 239.854 1117.02 239.809 1117.09C239.782 1117.14 239.748 1117.17 239.708 1117.21C239.035 1117.79 238.06 1119 238.097 1119.48C238.158 1120.34 238.298 1121.06 239.457 1121.89C239.516 1121.93 239.6 1121.93 239.648 1121.87C240.115 1121.34 241.502 1120.07 244.299 1119.59C244.302 1119.59 244.305 1119.59 244.305 1119.59C244.313 1119.59 244.323 1119.59 244.331 1119.59C244.442 1119.57 244.556 1119.6 244.645 1119.67C244.722 1119.73 244.772 1119.81 244.791 1119.9C244.793 1119.92 244.796 1119.94 244.799 1119.96L244.846 1120.59V1120.62L244.833 1120.62Z" fill="#030303"/>
<path d="M244.899 1114.33C244.479 1114.56 240.807 1116.16 239.822 1116.59C239.803 1116.55 239.777 1116.51 239.745 1116.47L239.484 1116.17L244.305 1113.54C244.413 1113.5 244.714 1113.41 244.891 1113.48C244.949 1113.51 244.983 1113.55 245.01 1113.61L245.015 1113.63C245.151 1113.97 245.112 1114.21 244.899 1114.32V1114.33Z" fill="#4F4F4F"/>
<path d="M245.115 1114.72C244.629 1114.99 240.271 1116.88 239.792 1117.09C239.777 1117.1 239.763 1117.1 239.756 1117.11L239.576 1116.69C239.576 1116.69 239.668 1116.65 239.819 1116.59C240.804 1116.16 244.476 1114.56 244.896 1114.33C245.111 1114.21 245.149 1113.98 245.012 1113.63L245.007 1113.61C244.98 1113.55 244.946 1113.51 244.888 1113.48C244.711 1113.41 244.407 1113.5 244.302 1113.54L239.481 1116.18L239.193 1116.33L238.976 1115.93L239.032 1115.9L244.117 1113.13C244.172 1113.1 244.671 1112.9 245.062 1113.07C245.231 1113.14 245.358 1113.27 245.427 1113.44L245.435 1113.46C245.636 1113.98 245.781 1114.35 245.113 1114.72L245.115 1114.72Z" fill="#030303"/>
<path d="M251.294 1119.62C251.275 1120.18 251.265 1120.19 251.006 1120.25C250.75 1120.3 247.308 1120.47 244.83 1120.59L244.782 1119.95C244.782 1119.94 244.777 1119.92 244.775 1119.9C245.44 1119.7 247.205 1119.28 250.824 1119.2H250.842C250.903 1119.19 251.09 1119.2 251.193 1119.3C251.265 1119.37 251.296 1119.48 251.294 1119.63V1119.62Z" fill="#4F4F4F"/>
<path d="M251.746 1119.64C251.719 1120.43 251.59 1120.57 251.12 1120.69C250.774 1120.77 245.559 1121.01 244.484 1121.05H244.471L244.452 1120.6C244.577 1120.6 244.701 1120.59 244.83 1120.58C247.305 1120.47 250.75 1120.3 251.006 1120.25C251.265 1120.19 251.276 1120.18 251.294 1119.62C251.299 1119.47 251.265 1119.36 251.194 1119.3C251.088 1119.2 250.903 1119.19 250.842 1119.2H250.824C247.205 1119.28 245.44 1119.69 244.775 1119.9C244.553 1119.97 244.452 1120.01 244.45 1120.01L244.254 1119.6C244.254 1119.6 244.268 1119.6 244.283 1119.59C244.286 1119.59 244.289 1119.59 244.289 1119.59C244.545 1119.48 246.193 1118.86 250.803 1118.75C250.882 1118.74 251.239 1118.72 251.5 1118.97C251.619 1119.08 251.759 1119.28 251.746 1119.64Z" fill="#030303"/>
<path d="M223.025 1145.5L227.794 1161.09L227.201 1161.27L222.431 1145.68L223.025 1145.5Z" fill="#030303"/>
<path d="M226.4 1161.53L226.875 1161.93L216.973 1173.72L216.498 1173.32L226.4 1161.53Z" fill="#030303"/>
<path d="M242.116 1153.71L242.407 1154.26L229.333 1161.22L229.042 1160.67L242.116 1153.71Z" fill="#030303"/>
<path d="M229.029 1161.61L243.905 1164.24L243.797 1164.85L228.921 1162.22L229.029 1161.61Z" fill="#030303"/>
<path d="M228.045 1161.87L242.021 1168.22L241.765 1168.79L227.789 1162.44L228.045 1161.87Z" fill="#030303"/>
<path d="M227.799 1161.11L231.677 1176.82L231.075 1176.97L227.196 1161.26L227.799 1161.11Z" fill="#030303"/>
<path d="M211.96 1154.52L225.831 1160.56L225.583 1161.13L211.713 1155.09L211.96 1154.52Z" fill="#030303"/>
<path d="M283.864 1144.72L287.507 1159.75L286.904 1159.9L283.26 1144.87L283.864 1144.72Z" fill="#030303"/>
<path d="M298.3 1148.19L298.766 1148.6L288.794 1159.95L288.329 1159.53L298.3 1148.19Z" fill="#030303"/>
<path d="M302.849 1155.36L303.062 1155.94L288.976 1161.1L288.763 1160.52L302.849 1155.36Z" fill="#030303"/>
<path d="M288.647 1162.07L302.005 1169.15L301.715 1169.7L288.357 1162.62L288.647 1162.07Z" fill="#030303"/>
<path d="M288.18 1162.97L290.897 1177.28L290.287 1177.4L287.569 1163.09L288.18 1162.97Z" fill="#030303"/>
<path d="M286.742 1162.74L287.233 1163.12L278.201 1174.86L277.71 1174.48L286.742 1162.74Z" fill="#030303"/>
<path d="M286.097 1162.31L286.481 1162.79L274.786 1172.06L274.401 1171.57L286.097 1162.31Z" fill="#030303"/>
<path d="M227.401 1160.88L227.596 1161.48L211.815 1166.7L211.62 1166.11L227.401 1160.88Z" fill="#030303"/>
<path d="M59.2709 1775.31C66.1544 1775.31 71.7346 1769.7 71.7346 1762.78C71.7346 1755.86 66.1544 1750.25 59.2709 1750.25C52.3873 1750.25 46.8071 1755.86 46.8071 1762.78C46.8071 1769.7 52.3873 1775.31 59.2709 1775.31Z" fill="#CE6326"/>
<path d="M59.2707 1775.56C52.2591 1775.56 46.5557 1769.83 46.5557 1762.78C46.5557 1755.73 52.2591 1750 59.2707 1750C66.2823 1750 71.9858 1755.73 71.9858 1762.78C71.9858 1769.83 66.2823 1775.56 59.2707 1775.56ZM59.2707 1750.5C52.5354 1750.5 47.0583 1756.01 47.0583 1762.78C47.0583 1769.55 52.537 1775.05 59.2707 1775.05C66.0043 1775.05 71.4831 1769.55 71.4831 1762.78C71.4831 1756.01 66.0043 1750.5 59.2707 1750.5Z" fill="#030303"/>
<path d="M59.2706 1763.3C59.2123 1763.3 59.1557 1763.28 59.1075 1763.24L53.9532 1758.84C53.8484 1758.75 53.8334 1758.59 53.9233 1758.48C54.0165 1758.38 54.1712 1758.37 54.2778 1758.45L59.432 1762.85C59.5369 1762.94 59.5518 1763.1 59.462 1763.21C59.412 1763.27 59.3421 1763.3 59.2706 1763.3Z" fill="#030303"/>
<path d="M59.281 1767.53C59.2228 1767.53 59.1662 1767.51 59.1196 1767.47C59.0131 1767.38 58.9998 1767.23 59.088 1767.12L64.8963 1760.18C64.9861 1760.08 65.1476 1760.06 65.2491 1760.15C65.3556 1760.24 65.3689 1760.4 65.2807 1760.5L59.4724 1767.44C59.4242 1767.5 59.3526 1767.53 59.281 1767.53Z" fill="#030303"/>
<path d="M59.1654 1770.33C59.1138 1770.33 59.0606 1770.32 59.0156 1770.28L55.246 1767.46C55.1345 1767.38 55.1112 1767.22 55.1944 1767.11C55.2776 1767 55.4358 1766.97 55.5456 1767.06L59.3152 1769.88C59.4267 1769.96 59.45 1770.12 59.3668 1770.23C59.3185 1770.3 59.2419 1770.33 59.1654 1770.33V1770.33Z" fill="#030303"/>
<path d="M59.2715 1829.32C59.1333 1829.32 59.02 1829.2 59.02 1829.06V1755.51C59.02 1755.37 59.1316 1755.25 59.2715 1755.25C59.4114 1755.25 59.523 1755.37 59.523 1755.51V1829.06C59.523 1829.2 59.4114 1829.32 59.2715 1829.32Z" fill="#030303"/>
<path d="M83.8575 1777.47C83.7992 1777.47 83.7427 1777.45 83.6944 1777.41L78.5401 1773.02C78.4353 1772.93 78.4203 1772.76 78.5102 1772.66C78.6017 1772.55 78.7598 1772.54 78.8647 1772.63L84.0189 1777.03C84.1238 1777.12 84.1388 1777.28 84.0489 1777.38C83.999 1777.44 83.9291 1777.47 83.8575 1777.47Z" fill="#030303"/>
<path d="M83.867 1781.71C83.8087 1781.71 83.7521 1781.69 83.7055 1781.65C83.599 1781.56 83.5857 1781.4 83.6739 1781.3L89.4822 1774.36C89.5721 1774.25 89.7319 1774.24 89.835 1774.33C89.9416 1774.42 89.9549 1774.58 89.8667 1774.68L84.0584 1781.62C84.0101 1781.68 83.9385 1781.71 83.867 1781.71Z" fill="#030303"/>
<path d="M83.7525 1784.51C83.7009 1784.51 83.6477 1784.49 83.6027 1784.46L79.8315 1781.64C79.72 1781.55 79.6967 1781.4 79.7799 1781.29C79.8631 1781.17 80.0212 1781.15 80.1311 1781.23L83.9023 1784.05C84.0138 1784.14 84.0371 1784.3 83.9539 1784.41C83.9056 1784.47 83.8291 1784.51 83.7525 1784.51V1784.51Z" fill="#030303"/>
<path d="M83.8574 1829.48C83.7192 1829.48 83.606 1829.37 83.606 1829.23V1772.04C83.606 1771.9 83.7175 1771.79 83.8574 1771.79C83.9973 1771.79 84.1089 1771.9 84.1089 1772.04V1829.23C84.1089 1829.37 83.9973 1829.48 83.8574 1829.48Z" fill="#030303"/>
<path d="M93.2316 1778.72C92.471 1777.43 91.6089 1775.95 91.5524 1773.67C91.5224 1772.47 91.7238 1771.53 91.8969 1770.71C92.1848 1769.41 92.4128 1768.3 91.7537 1766.73C91.1213 1765.2 90.0445 1764.26 89.5419 1763.8C87.6896 1762.18 85.6658 1761.4 83.5256 1761.45C82.8798 1761.46 79.5762 1761.66 77.4377 1764.32C76.2893 1765.72 75.9581 1767.19 75.8583 1767.74C75.4705 1769.46 75.7867 1770.51 76.1162 1771.63C76.3459 1772.41 76.5756 1773.22 76.6322 1774.33C76.7187 1776.47 75.9997 1777.85 75.3107 1779.18C74.5635 1780.62 73.8595 1781.99 74.3488 1784.11C74.7082 1785.69 75.4256 1786.99 76.489 1787.98C78.3996 1789.76 80.8111 1789.92 82.8782 1789.92H83.6238C83.7819 1789.92 83.9267 1789.92 84.0831 1789.9C86.1085 1789.86 89.1375 1789.67 91.6639 1787.39C92.2813 1786.83 93.7459 1785.53 94.2768 1783.42C94.8077 1781.44 94.0321 1780.12 93.2283 1778.72L93.2316 1778.72ZM93.8357 1783.29C93.3182 1785.27 91.9401 1786.51 91.351 1787.05C88.9528 1789.21 86.0536 1789.4 84.0848 1789.43C83.9266 1789.44 83.7835 1789.44 83.6254 1789.44H83.5688C81.3437 1789.47 78.8007 1789.49 76.8202 1787.64C75.83 1786.7 75.141 1785.49 74.8098 1784.02C74.3504 1782.07 74.9829 1780.83 75.7284 1779.4C76.4191 1778.07 77.193 1776.59 77.0932 1774.31C77.0499 1773.14 76.7919 1772.27 76.5622 1771.51C76.246 1770.4 75.9598 1769.44 76.3176 1767.84C76.4191 1767.31 76.7204 1765.94 77.7971 1764.62C79.8209 1762.13 82.9231 1761.94 83.5406 1761.93H83.6987C85.6658 1761.93 87.5315 1762.68 89.2274 1764.16C89.7017 1764.59 90.7202 1765.49 91.3243 1766.92C91.9268 1768.35 91.7121 1769.34 91.4392 1770.61C91.2661 1771.41 91.0947 1772.32 91.0947 1773.44V1773.69C91.1529 1776.1 92.0283 1777.61 92.8172 1778.97C93.6211 1780.34 94.2951 1781.52 93.8374 1783.3L93.8357 1783.29Z" fill="#030303"/>
<path d="M135.13 1800.75C127.731 1800.75 121.711 1794.7 121.711 1787.26C121.711 1779.82 127.731 1773.77 135.13 1773.77C142.529 1773.77 148.551 1779.82 148.551 1787.26C148.551 1794.7 142.531 1800.75 135.13 1800.75ZM135.13 1774.31C128.022 1774.31 122.24 1780.12 122.24 1787.26C122.24 1794.4 128.022 1800.22 135.13 1800.22C142.238 1800.22 148.021 1794.4 148.021 1787.26C148.021 1780.12 142.238 1774.31 135.13 1774.31Z" fill="#030303"/>
<path d="M135.129 1787.81C135.07 1787.81 135.008 1787.79 134.958 1787.74L129.518 1783.1C129.406 1783.01 129.391 1782.84 129.486 1782.73C129.584 1782.61 129.747 1782.6 129.86 1782.69L135.301 1787.34C135.412 1787.43 135.427 1787.6 135.332 1787.71C135.279 1787.77 135.206 1787.81 135.129 1787.81Z" fill="#030303"/>
<path d="M135.142 1792.28C135.082 1792.28 135.021 1792.26 134.972 1792.22C134.859 1792.12 134.846 1791.95 134.939 1791.84L141.07 1784.52C141.165 1784.41 141.335 1784.39 141.443 1784.49C141.556 1784.58 141.57 1784.75 141.476 1784.86L135.345 1792.18C135.294 1792.25 135.219 1792.28 135.142 1792.28Z" fill="#030303"/>
<path d="M135.022 1795.23C134.967 1795.23 134.911 1795.21 134.864 1795.18L130.885 1792.2C130.768 1792.12 130.743 1791.95 130.83 1791.83C130.916 1791.71 131.085 1791.69 131.201 1791.77L135.18 1794.75C135.297 1794.84 135.322 1795.01 135.235 1795.12C135.184 1795.19 135.104 1795.23 135.022 1795.23Z" fill="#030303"/>
<path d="M134.865 1829.15V1779.58C134.865 1779.44 134.983 1779.32 135.13 1779.32C135.276 1779.32 135.394 1779.44 135.394 1779.58V1829.15" fill="#030303"/>
<path d="M118.002 1774.12C117.208 1772.78 116.308 1771.23 116.248 1768.85C116.218 1767.6 116.427 1766.62 116.607 1765.76C116.907 1764.41 117.146 1763.25 116.457 1761.61C115.798 1760.01 114.675 1759.03 114.151 1758.55C112.219 1756.86 110.107 1756.05 107.873 1756.1C107.199 1756.11 103.752 1756.32 101.521 1759.09C100.322 1760.55 99.9761 1762.09 99.8729 1762.66C99.4685 1764.45 99.7981 1765.55 100.143 1766.73C100.382 1767.54 100.622 1768.38 100.682 1769.55C100.772 1771.77 100.023 1773.22 99.3038 1774.61C98.5249 1776.11 97.7893 1777.54 98.3002 1779.76C98.6747 1781.4 99.4236 1782.75 100.532 1783.79C102.524 1785.64 105.042 1785.81 107.199 1785.81H108.218C108.293 1785.81 108.382 1785.79 108.457 1785.79C110.569 1785.75 113.731 1785.55 116.368 1783.17C117.012 1782.59 118.541 1781.23 119.095 1779.03C119.65 1776.97 118.841 1775.58 118.002 1774.12V1774.12ZM118.633 1778.9C118.093 1780.96 116.655 1782.25 116.041 1782.81C113.54 1785.07 110.513 1785.27 108.461 1785.3C108.386 1785.31 108.296 1785.31 108.221 1785.31H107.921C105.598 1785.34 102.947 1785.36 100.88 1783.43C99.8463 1782.45 99.1274 1781.19 98.7829 1779.65C98.3035 1777.62 98.9626 1776.32 99.7415 1774.83C100.46 1773.44 101.269 1771.89 101.164 1769.51C101.119 1768.29 100.85 1767.39 100.61 1766.59C100.281 1765.43 99.9811 1764.44 100.356 1762.77C100.46 1762.21 100.775 1760.78 101.9 1759.41C104.012 1756.8 107.249 1756.61 107.893 1756.59H108.058C110.11 1756.59 112.059 1757.38 113.826 1758.93C114.321 1759.38 115.384 1760.31 116.013 1761.8C116.642 1763.29 116.417 1764.33 116.133 1765.66C115.953 1766.49 115.773 1767.43 115.773 1768.61V1768.87C115.833 1771.38 116.747 1772.96 117.573 1774.38C118.411 1775.81 119.115 1777.04 118.636 1778.9H118.633Z" fill="#030303"/>
<path d="M118.633 1778.9C118.094 1780.96 116.656 1782.25 116.042 1782.81C113.541 1785.07 110.513 1785.26 108.461 1785.29C108.386 1785.31 108.297 1785.31 108.222 1785.31H107.922C105.599 1785.34 102.948 1785.36 100.881 1783.43C99.8471 1782.45 99.1281 1781.19 98.7836 1779.65C98.3043 1777.62 98.9634 1776.32 99.7423 1774.83C100.461 1773.44 101.27 1771.89 101.165 1769.51C101.12 1768.29 100.851 1767.39 100.611 1766.59C100.281 1765.43 99.9819 1764.44 100.356 1762.77C100.461 1762.21 100.776 1760.78 101.901 1759.41C104.013 1756.8 107.25 1756.61 107.894 1756.59H108.059C110.111 1756.59 112.06 1757.37 113.827 1758.93C114.321 1759.38 115.385 1760.31 116.014 1761.8C116.643 1763.29 116.418 1764.33 116.134 1765.66C115.954 1766.49 115.774 1767.43 115.774 1768.61V1768.87C115.834 1771.38 116.748 1772.96 117.573 1774.38C118.412 1775.81 119.116 1777.04 118.637 1778.9H118.633Z" fill="#CE6326"/>
<path d="M108.222 1772.81C108.162 1772.81 108.102 1772.79 108.052 1772.75L102.671 1768.16C102.561 1768.07 102.546 1767.9 102.641 1767.79C102.738 1767.68 102.901 1767.67 103.011 1767.76L108.391 1772.35C108.501 1772.45 108.516 1772.61 108.421 1772.72C108.368 1772.78 108.295 1772.81 108.222 1772.81Z" fill="#030303"/>
<path d="M108.23 1777.23C108.17 1777.23 108.11 1777.21 108.061 1777.17C107.95 1777.08 107.935 1776.91 108.03 1776.8L114.091 1769.56C114.184 1769.45 114.352 1769.44 114.461 1769.53C114.572 1769.62 114.587 1769.79 114.492 1769.9L108.431 1777.14C108.379 1777.2 108.304 1777.23 108.231 1777.23H108.23Z" fill="#030303"/>
<path d="M108.111 1780.16C108.056 1780.16 108.001 1780.14 107.954 1780.1L104.02 1777.16C103.905 1777.07 103.88 1776.91 103.965 1776.79C104.052 1776.68 104.216 1776.65 104.333 1776.74L108.267 1779.68C108.382 1779.77 108.407 1779.93 108.322 1780.05C108.27 1780.12 108.192 1780.15 108.111 1780.15V1780.16Z" fill="#030303"/>
<path d="M107.959 1828.89V1764.59C107.959 1764.45 108.076 1764.33 108.22 1764.33C108.365 1764.33 108.482 1764.45 108.482 1764.59V1828.9" fill="#030303"/>
<path d="M37.2475 1800.9C31.0032 1800.9 25.9238 1795.8 25.9238 1789.52C25.9238 1783.24 31.0032 1778.14 37.2475 1778.14C43.4919 1778.14 48.5713 1783.24 48.5713 1789.52C48.5713 1795.8 43.4919 1800.9 37.2475 1800.9ZM37.2475 1778.59C31.2495 1778.59 26.3715 1783.49 26.3715 1789.52C26.3715 1795.55 31.2512 1800.45 37.2475 1800.45C43.2439 1800.45 48.1236 1795.55 48.1236 1789.52C48.1236 1783.49 43.2439 1778.59 37.2475 1778.59Z" fill="#030303"/>
<path d="M37.2475 1789.98C37.1959 1789.98 37.1443 1789.96 37.1027 1789.93L32.5127 1786.01C32.4195 1785.93 32.4062 1785.78 32.486 1785.69C32.5693 1785.6 32.7074 1785.59 32.8023 1785.66L37.3923 1789.58C37.4855 1789.66 37.4988 1789.81 37.419 1789.9C37.374 1789.95 37.3108 1789.98 37.2475 1789.98V1789.98Z" fill="#030303"/>
<path d="M37.2569 1793.75C37.2053 1793.75 37.1537 1793.74 37.1138 1793.7C37.0189 1793.62 37.0056 1793.48 37.0855 1793.38L42.2581 1787.21C42.338 1787.11 42.4811 1787.1 42.5726 1787.18C42.6675 1787.26 42.6808 1787.4 42.6009 1787.49L37.4284 1793.67C37.3851 1793.73 37.3202 1793.75 37.2569 1793.75V1793.75Z" fill="#030303"/>
<path d="M37.1543 1796.25C37.1077 1796.25 37.0611 1796.23 37.0212 1796.2L33.6643 1793.69C33.5661 1793.62 33.5445 1793.48 33.6177 1793.38C33.691 1793.28 33.8324 1793.26 33.9306 1793.33L37.2874 1795.84C37.3856 1795.92 37.4073 1796.06 37.3341 1796.16C37.2908 1796.21 37.2225 1796.25 37.1543 1796.25Z" fill="#030303"/>
<path d="M36.9854 1828.9V1783.52C36.9854 1783.39 37.1036 1783.29 37.2501 1783.29C37.3967 1783.29 37.5133 1783.4 37.5133 1783.52L37.4683 1828.9" fill="#030303"/>
<path d="M1 1.5V376C1 394.225 15.7746 409 34 409H296C314.225 409 329 423.775 329 442V1148.5C329 1166.73 314.225 1181.5 296 1181.5H34C15.7746 1181.5 1 1196.27 1 1214.5V1603C1 1621.23 15.7746 1636 34 1636H296C314.225 1636 329 1650.77 329 1669V1796C329 1814.23 314.225 1829 296 1829H34C15.7746 1829 1 1843.77 1 1862V2057" stroke="#030303" stroke-width="2" stroke-linecap="round"/>
<path d="M200.442 1612.01C201.118 1602.94 206.656 1595.01 214.902 1591.23C214.973 1591.2 215.041 1591.16 215.111 1591.13C218.306 1589.72 221.691 1589 225.179 1589H268.141C276.421 1589 283.14 1595.74 283.14 1604.03V1623.17C283.14 1625.72 281.073 1627.77 278.558 1627.77H204.958C202.458 1627.77 200.392 1625.72 200.392 1623.17V1613.89C200.392 1613.26 200.392 1612.64 200.444 1612.01L200.442 1612.01ZM200.998 1623.18C200.998 1625.37 202.785 1627.17 204.955 1627.17H278.555C280.726 1627.17 282.531 1625.37 282.531 1623.18V1604.03C282.531 1596.07 276.074 1589.61 268.141 1589.61H225.179C224.293 1589.61 223.392 1589.67 222.522 1589.75C222.313 1589.79 222.088 1589.8 221.913 1589.84C219.709 1590.13 217.575 1590.73 215.508 1591.63C215.438 1591.65 215.404 1591.67 215.37 1591.68C215.195 1591.75 215.041 1591.84 214.884 1591.93C207.074 1595.62 201.813 1603.16 201.084 1611.8C201.084 1611.89 201.05 1611.96 201.05 1612.04V1612.5C201.016 1612.97 200.998 1613.44 200.998 1613.89V1623.18Z" fill="#030303"/>
<path d="M200.99 1613.89V1623.18C200.99 1625.37 202.777 1627.17 204.963 1627.17H216.645C216.835 1622.78 220.448 1619.29 224.857 1619.29C229.267 1619.29 232.877 1622.78 233.067 1627.17H253.116C253.306 1622.78 256.916 1619.29 261.326 1619.29C265.735 1619.29 269.327 1622.78 269.517 1627.17H278.545C280.731 1627.17 282.521 1625.38 282.521 1623.18V1609.73H223.815C222.773 1609.73 221.906 1608.88 221.906 1607.82V1589.84C219.701 1590.14 217.567 1590.73 215.501 1591.63C215.414 1594.04 214.215 1606.34 201.04 1612.5C201.006 1612.97 200.987 1613.44 200.987 1613.89H200.99Z" fill="#CE6326"/>
<path d="M265.536 1589.31H266.146V1609.43H265.536V1589.31Z" fill="#030303"/>
<path d="M250.702 1589.38H251.308V1609.47H250.702V1589.38Z" fill="#030303"/>
<path d="M235.855 1589.24H236.461V1609.47H235.855V1589.24Z" fill="#030303"/>
<path d="M221.914 1589.31V1607.81C221.914 1608.87 222.781 1609.73 223.824 1609.73H282.929V1609.12H223.824C223.113 1609.12 222.523 1608.52 222.523 1607.81V1589.31H221.914Z" fill="#030303"/>
<path d="M227.279 1603.84C227.368 1603.84 227.454 1603.79 227.486 1603.69L230.069 1596.18C230.108 1596.06 230.048 1595.94 229.936 1595.9C229.821 1595.86 229.698 1595.92 229.659 1596.03L227.076 1603.55C227.036 1603.66 227.096 1603.79 227.209 1603.83C227.232 1603.84 227.256 1603.84 227.279 1603.84Z" fill="#030303"/>
<path d="M229.599 1604.19C229.688 1604.19 229.774 1604.14 229.805 1604.05L231.325 1599.55C231.365 1599.44 231.305 1599.32 231.19 1599.28C231.085 1599.24 230.955 1599.3 230.915 1599.41L229.395 1603.91C229.356 1604.02 229.416 1604.15 229.531 1604.18C229.552 1604.19 229.578 1604.2 229.601 1604.2L229.599 1604.19Z" fill="#030303"/>
<path d="M271.21 1604.68C271.288 1604.68 271.362 1604.64 271.401 1604.56L275.512 1596.88C275.567 1596.77 275.528 1596.64 275.424 1596.59C275.316 1596.53 275.186 1596.57 275.128 1596.68L271.017 1604.36C270.962 1604.47 271.001 1604.6 271.106 1604.65C271.14 1604.67 271.174 1604.68 271.21 1604.68V1604.68Z" fill="#030303"/>
<path d="M273.773 1603.71C273.851 1603.71 273.924 1603.67 273.964 1603.59L275.667 1600.4C275.721 1600.3 275.682 1600.17 275.578 1600.11C275.479 1600.06 275.343 1600.09 275.285 1600.2L273.582 1603.39C273.527 1603.49 273.566 1603.63 273.671 1603.68C273.702 1603.7 273.736 1603.71 273.773 1603.71Z" fill="#030303"/>
<path d="M253.101 1627.55C253.101 1627.62 253.101 1627.71 253.119 1627.78C253.224 1632.22 256.852 1635.81 261.329 1635.81C265.806 1635.81 269.419 1632.22 269.521 1627.78C269.539 1627.71 269.539 1627.62 269.539 1627.55C269.539 1627.41 269.539 1627.29 269.521 1627.17C269.33 1622.78 265.738 1619.29 261.329 1619.29C256.92 1619.29 253.31 1622.78 253.119 1627.17C253.101 1627.29 253.101 1627.41 253.101 1627.55Z" fill="#030303"/>
<path d="M261.305 1632.22C258.734 1632.22 256.65 1630.13 256.65 1627.55C256.65 1624.97 258.734 1622.88 261.305 1622.88C263.875 1622.88 265.959 1624.97 265.959 1627.55C265.959 1630.13 263.875 1632.22 261.305 1632.22Z" fill="#FCFCFC"/>
<path d="M216.629 1627.55C216.629 1627.62 216.629 1627.71 216.645 1627.78C216.75 1632.22 220.378 1635.81 224.858 1635.81C229.338 1635.81 232.963 1632.22 233.068 1627.78C233.086 1627.71 233.086 1627.62 233.086 1627.55C233.086 1627.41 233.086 1627.29 233.068 1627.17C232.877 1622.78 229.267 1619.29 224.858 1619.29C220.448 1619.29 216.838 1622.78 216.645 1627.17C216.629 1627.29 216.629 1627.41 216.629 1627.55Z" fill="#030303"/>
<path d="M224.74 1632.22C222.169 1632.22 220.085 1630.13 220.085 1627.55C220.085 1624.97 222.169 1622.88 224.74 1622.88C227.311 1622.88 229.395 1624.97 229.395 1627.55C229.395 1630.13 227.311 1632.22 224.74 1632.22Z" fill="#FCFCFC"/>
<path d="M200.643 1612.01L200.904 1612.57C200.956 1612.55 200.99 1612.52 201.043 1612.5C214.218 1606.34 215.415 1594.04 215.503 1591.63C215.519 1591.39 215.519 1591.25 215.519 1591.23H214.91C214.91 1591.29 214.91 1591.53 214.876 1591.93C214.686 1594.84 213.158 1605.99 201.092 1611.8C200.935 1611.87 200.797 1611.94 200.64 1612.01H200.643Z" fill="#030303"/>
</g>
</svg>
