<svg width="153" height="146" viewBox="0 0 153 146" fill="none" xmlns="http://www.w3.org/2000/svg">
<path d="M148.028 24.4864L78.336 1.29754C77.1438 0.900821 75.8549 0.900821 74.6627 1.29754L4.97097 24.4864C3.81456 24.8712 2.80877 25.6094 2.09607 26.5966C1.38337 27.5837 0.99991 28.7697 1 29.9864V87.9585C1 89.496 1.61187 90.9706 2.70102 92.0577C3.79016 93.1449 5.26736 93.7557 6.80764 93.7557C8.34793 93.7557 9.82512 93.1449 10.9143 92.0577C12.0034 90.9706 12.6153 89.496 12.6153 87.9585V38.0301L37.0001 46.1389C30.5214 56.5869 28.4612 69.1744 31.2719 81.1374C34.0826 93.1004 41.5344 103.461 51.9911 109.944C38.9239 115.06 27.628 124.314 19.3667 136.967C18.937 137.604 18.6386 138.32 18.4887 139.074C18.3388 139.827 18.3405 140.603 18.4936 141.356C18.6468 142.109 18.9483 142.824 19.3807 143.46C19.8131 144.095 20.3678 144.639 21.0124 145.058C21.6571 145.478 22.3789 145.766 23.1359 145.905C23.8929 146.043 24.67 146.031 25.422 145.867C26.174 145.703 26.8859 145.392 27.5164 144.952C28.1468 144.511 28.6833 143.949 29.0945 143.3C40.0346 126.546 57.3124 116.945 76.4994 116.945C95.6863 116.945 112.964 126.546 123.904 143.3C124.756 144.564 126.072 145.442 127.567 145.745C129.063 146.048 130.617 145.752 131.895 144.92C133.174 144.087 134.072 142.787 134.397 141.298C134.722 139.81 134.447 138.254 133.632 136.967C125.371 124.314 114.031 115.06 101.008 109.944C111.454 103.461 118.899 93.1074 121.709 81.1532C124.52 69.1989 122.466 56.6201 115.999 46.1751L148.028 35.5228C149.184 35.1382 150.19 34.4 150.903 33.4129C151.616 32.4257 152 31.2396 152 30.0227C152 28.8057 151.616 27.6197 150.903 26.6325C150.19 25.6453 149.184 24.9072 148.028 24.5226V24.4864ZM111.345 70.5669C111.347 76.0659 110.042 81.487 107.538 86.3853C105.035 91.2836 101.403 95.5195 96.9417 98.7456C92.4804 101.972 87.3163 104.096 81.8733 104.944C76.4302 105.792 70.8633 105.34 65.6292 103.624C60.3952 101.909 55.6432 98.9791 51.7631 95.0755C47.883 91.1718 44.9854 86.4055 43.308 81.1675C41.6307 75.9296 41.2213 70.3693 42.1136 64.9428C43.0059 59.5164 45.1744 54.3785 48.4412 49.9506L74.6627 58.6464C75.8549 59.0431 77.1438 59.0431 78.336 58.6464L104.558 49.9506C108.969 55.9219 111.348 63.1473 111.345 70.5669ZM76.4994 47.0665L25.1743 29.9864L76.4994 12.9064L127.824 29.9864L76.4994 47.0665Z" fill="#4F4F4F"/>
<path d="M6.65039 87.9004V29.9666M6.65039 29.9666L76.6504 6.90039L146.65 29.9666L76.6504 53.0328L6.65039 29.9666Z" stroke="#E0AD49" stroke-width="12" stroke-linecap="round" stroke-linejoin="round"/>
</svg>
