<?xml version="1.0" encoding="UTF-8"?>
<svg id="Ebene_1" data-name="Ebene 1" xmlns="http://www.w3.org/2000/svg" viewBox="0 0 1416 1239.88">
  <defs>
    <style>
      .cls-1 {
        fill: none;
        stroke: #030303;
        stroke-width: 3px;
      }

      .cls-2 {
        fill: #030303;
      }

      .cls-3 {
        fill: #ce6326;
      }

      .cls-4 {
        opacity: .7;
      }
    </style>
  </defs>
  <g class="cls-4">
    <path class="cls-3" d="M902.25,898.75c14.17,0,25.67-11.5,25.67-25.68s-11.49-25.67-25.67-25.67-25.67,11.49-25.67,25.67,11.49,25.68,25.67,25.68Z"/>
    <path class="cls-2" d="M902.25,899.27c-14.44,0-26.18-11.75-26.18-26.2s11.74-26.19,26.18-26.19,26.18,11.75,26.18,26.19-11.74,26.2-26.18,26.2ZM902.25,847.91c-13.87,0-25.15,11.29-25.15,25.16s11.28,25.16,25.15,25.16,25.15-11.28,25.15-25.16-11.28-25.16-25.15-25.16Z"/>
    <path class="cls-2" d="M902.25,874.13c-.12,0-.24-.04-.34-.12l-10.61-9.01c-.22-.19-.24-.52-.06-.73.19-.22.51-.24.73-.06l10.61,9.02c.22.18.25.51.06.72-.1.12-.25.18-.4.18h0Z"/>
    <path class="cls-2" d="M902.27,882.82c-.12,0-.24-.04-.33-.12-.22-.18-.25-.51-.07-.73l11.96-14.22c.18-.22.52-.24.73-.06.22.18.25.51.07.72l-11.96,14.23c-.1.12-.25.18-.4.18Z"/>
    <path class="cls-2" d="M902.03,888.56c-.11,0-.22-.04-.31-.11l-7.76-5.78c-.23-.16-.28-.49-.11-.72.17-.22.49-.28.72-.11l7.76,5.78c.23.17.28.5.11.72-.1.14-.26.21-.42.21h0Z"/>
    <path class="cls-2" d="M902.25,1009.45c-.29,0-.52-.23-.52-.51v-150.77c0-.29.23-.52.52-.52s.52.23.52.52v150.77c0,.28-.23.51-.52.51Z"/>
    <path class="cls-2" d="M855.51,903.19c-.12,0-.24-.04-.34-.12l-10.61-9.02c-.22-.18-.24-.51-.06-.72.19-.22.52-.25.73-.06l10.61,9.01c.22.19.24.52.06.73-.1.12-.25.18-.4.18h0Z"/>
    <path class="cls-2" d="M855.53,911.87c-.12,0-.24-.03-.33-.12-.22-.18-.25-.51-.07-.72l11.96-14.22c.18-.22.52-.25.73-.07.22.19.25.52.07.73l-11.96,14.22c-.1.12-.25.18-.4.18Z"/>
    <path class="cls-2" d="M855.29,917.61c-.11,0-.22-.03-.31-.1l-7.77-5.78c-.23-.17-.28-.5-.11-.73.17-.22.49-.27.72-.1l7.77,5.77c.23.17.28.5.11.73-.1.13-.26.2-.42.2h0Z"/>
    <path class="cls-2" d="M855.51,1009.79c-.29,0-.52-.23-.52-.51v-117.22c0-.29.23-.52.52-.52s.52.24.52.52v117.22c0,.28-.23.51-.52.51Z"/>
    <path class="cls-2" d="M874.81,905.75c-1.57-2.63-3.34-5.68-3.46-10.35-.06-2.46.35-4.38.71-6.07.59-2.66,1.07-4.94-.29-8.16-1.3-3.14-3.52-5.06-4.55-6-3.82-3.31-7.98-4.91-12.39-4.83-1.33.03-8.13.45-12.54,5.89-2.36,2.87-3.05,5.89-3.26,7.01-.8,3.52-.15,5.68.53,7.99.47,1.59.95,3.25,1.07,5.52.18,4.38-1.3,7.22-2.72,9.94-1.54,2.96-2.99,5.77-1.98,10.12.74,3.22,2.22,5.89,4.41,7.93,3.93,3.63,8.9,3.96,13.16,3.96h1.54c.33,0,.62,0,.95-.03,4.17-.08,10.41-.47,15.61-5.15,1.27-1.15,4.29-3.81,5.38-8.13,1.09-4.05-.51-6.77-2.16-9.64h.01ZM876.06,915.12c-1.07,4.05-3.9,6.59-5.11,7.69-4.94,4.44-10.91,4.82-14.96,4.88-.33.03-.62.03-.95.03h-.12c-4.58.06-9.82.09-13.9-3.7-2.04-1.92-3.46-4.4-4.14-7.42-.95-3.99.35-6.54,1.89-9.47,1.42-2.72,3.02-5.76,2.81-10.44-.09-2.4-.62-4.17-1.09-5.74-.65-2.27-1.24-4.23-.5-7.51.21-1.09.83-3.9,3.05-6.59,4.17-5.12,10.55-5.51,11.83-5.53h.33c4.05,0,7.9,1.54,11.39,4.58.98.89,3.08,2.72,4.32,5.65,1.24,2.93.8,4.97.24,7.57-.35,1.63-.71,3.49-.71,5.8v.5c.12,4.94,1.92,8.04,3.55,10.82,1.66,2.81,3.04,5.24,2.1,8.87h0Z"/>
    <path class="cls-2" d="M831.08,891.33c-1.57-2.63-3.34-5.68-3.46-10.35-.06-2.46.35-4.38.71-6.06.59-2.67,1.07-4.95-.29-8.17-1.3-3.14-3.52-5.06-4.55-6-3.82-3.31-7.98-4.91-12.39-4.82-1.33.02-8.13.44-12.54,5.88-2.36,2.87-3.05,5.89-3.26,7.01-.8,3.52-.15,5.68.53,7.99.47,1.6.95,3.25,1.07,5.53.18,4.37-1.3,7.22-2.72,9.93-1.54,2.96-2.99,5.77-1.98,10.12.74,3.23,2.22,5.89,4.41,7.93,3.93,3.63,8.9,3.96,13.16,3.96h2.01c.15,0,.33-.03.47-.03,4.17-.08,10.41-.47,15.61-5.14,1.27-1.16,4.29-3.82,5.38-8.14,1.09-4.05-.5-6.77-2.16-9.64ZM832.32,900.71c-1.07,4.05-3.9,6.59-5.11,7.69-4.94,4.43-10.91,4.82-14.96,4.88-.15.03-.33.03-.47.03h-.59c-4.58.06-9.82.08-13.9-3.7-2.04-1.92-3.46-4.41-4.14-7.43-.95-3.99.35-6.53,1.89-9.46,1.42-2.72,3.02-5.77,2.81-10.44-.09-2.4-.62-4.17-1.09-5.74-.65-2.28-1.24-4.23-.5-7.51.21-1.1.83-3.91,3.05-6.6,4.17-5.11,10.55-5.5,11.83-5.53h.33c4.05,0,7.9,1.54,11.39,4.59.97.88,3.08,2.72,4.32,5.65s.8,4.96.24,7.57c-.35,1.62-.71,3.49-.71,5.79v.51c.12,4.94,1.92,8.05,3.55,10.82,1.66,2.81,3.04,5.24,2.1,8.88h0Z"/>
    <path class="cls-3" d="M832.32,900.71c-1.07,4.05-3.9,6.59-5.11,7.69-4.94,4.44-10.91,4.82-14.96,4.88-.15.03-.33.03-.47.03h-.59c-4.58.06-9.82.09-13.9-3.7-2.04-1.92-3.46-4.41-4.14-7.42-.95-4,.35-6.54,1.89-9.47,1.42-2.72,3.02-5.77,2.81-10.44-.09-2.4-.62-4.17-1.09-5.74-.65-2.28-1.24-4.23-.5-7.51.21-1.09.83-3.91,3.05-6.6,4.17-5.11,10.55-5.5,11.83-5.53h.33c4.05,0,7.9,1.54,11.39,4.59.97.88,3.08,2.72,4.32,5.65,1.24,2.93.8,4.96.24,7.57-.35,1.62-.71,3.49-.71,5.79v.51c.12,4.94,1.92,8.05,3.55,10.82,1.66,2.81,3.04,5.24,2.1,8.88h0Z"/>
    <path class="cls-2" d="M811.77,888.76c-.12,0-.24-.04-.34-.12l-10.61-9.02c-.22-.18-.24-.51-.06-.73.19-.21.51-.23.73-.06l10.61,9.02c.22.19.24.52.06.73-.1.12-.25.18-.4.18h0Z"/>
    <path class="cls-2" d="M811.8,897.44c-.12,0-.24-.03-.33-.12-.22-.18-.25-.51-.07-.72l11.96-14.22c.18-.22.52-.24.73-.07.22.19.25.52.07.73l-11.96,14.22c-.1.12-.25.18-.4.18Z"/>
    <path class="cls-2" d="M811.56,903.18c-.11,0-.22-.03-.31-.1l-7.77-5.78c-.23-.17-.28-.5-.11-.73.17-.22.49-.27.72-.11l7.77,5.78c.23.17.28.5.11.73-.1.13-.26.2-.42.2h0Z"/>
    <path class="cls-2" d="M811.78,1009.79c-.29,0-.52-.23-.52-.52v-136.66c0-.29.23-.52.52-.52s.52.24.52.52v136.66c0,.29-.23.52-.52.52Z"/>
    <path class="cls-2" d="M751.01,876.67c-18.68,0-33.88-15.2-33.88-33.89s15.2-33.9,33.88-33.9,33.88,15.21,33.88,33.9-15.2,33.89-33.88,33.89ZM751.01,810.21c-17.95,0-32.55,14.61-32.55,32.56s14.6,32.56,32.55,32.56,32.54-14.61,32.54-32.56-14.6-32.56-32.54-32.56Z"/>
    <path class="cls-2" d="M751.01,844.15c-.15,0-.31-.06-.43-.16l-13.74-11.67c-.28-.24-.32-.67-.08-.95.25-.29.66-.31.95-.08l13.74,11.67c.28.24.32.66.08.95-.14.16-.32.24-.51.24h0Z"/>
    <path class="cls-2" d="M751.04,855.39c-.15,0-.31-.05-.43-.16-.28-.24-.32-.66-.08-.94l15.48-18.41c.24-.28.67-.31.94-.08.28.24.32.66.08.94l-15.48,18.41c-.13.16-.32.23-.51.23h0Z"/>
    <path class="cls-2" d="M750.73,862.81c-.14,0-.28-.05-.4-.13l-10.04-7.49c-.3-.22-.36-.64-.14-.93.22-.29.65-.36.94-.14l10.04,7.48c.3.22.36.65.14.94-.13.18-.33.27-.54.27h0Z"/>
    <path class="cls-2" d="M750.36,1009.32v-185.84c-.01-.36.29-.67.66-.67s.67.3.67.67v185.8"/>
    <path class="cls-2" d="M636.69,894.38c-17.18,0-31.17-13.99-31.17-31.18s13.98-31.18,31.17-31.18,31.17,13.99,31.17,31.18-13.98,31.18-31.17,31.18ZM636.69,833.26c-16.51,0-29.93,13.43-29.93,29.94s13.43,29.95,29.93,29.95,29.93-13.44,29.93-29.95-13.43-29.94-29.93-29.94Z"/>
    <path class="cls-2" d="M636.69,866.79c-.15,0-.31-.06-.43-.16l-13.74-11.67c-.28-.24-.32-.67-.08-.95.25-.29.66-.31.95-.08l13.74,11.67c.28.24.32.66.08.95-.14.16-.32.24-.51.24h0Z"/>
    <path class="cls-2" d="M636.72,878.03c-.15,0-.31-.05-.43-.16-.28-.24-.32-.66-.08-.94l15.48-18.41c.24-.28.67-.31.94-.08.28.24.32.66.08.94l-15.48,18.41c-.13.16-.32.23-.51.23h0Z"/>
    <path class="cls-2" d="M636.41,885.45c-.14,0-.28-.04-.4-.13l-10.04-7.48c-.3-.22-.36-.65-.14-.94.22-.29.64-.36.94-.13l10.04,7.48c.3.22.36.65.14.94-.13.17-.33.26-.54.26h0Z"/>
    <path class="cls-2" d="M636.01,1009.35v-159.8c0-.36.31-.67.67-.67s.67.3.67.67v159.76"/>
    <path class="cls-2" d="M693.27,871.19c0,.16-.05.31-.15.43-.14.15-.33.24-.52.24-.15,0-.31-.06-.44-.17l-.22-.19-13.51-11.48c-.27-.24-.33-.67-.08-.94.25-.29.67-.33.96-.08l12.63,10.75,1.09.92c.15.14.24.33.24.52h0Z"/>
    <path class="cls-2" d="M708.61,864.45l-15.34,18.24-.14.17c-.12.15-.33.24-.52.24-.15,0-.31-.05-.43-.15-.27-.24-.33-.67-.08-.94l1.17-1.39,14.32-17.02c.24-.29.67-.31.94-.08.27.23.31.67.07.94h0Z"/>
    <path class="cls-2" d="M692.86,890.25c-.14.17-.34.26-.55.26-.14,0-.26-.04-.38-.12h-.02l-10.05-7.48c-.29-.23-.36-.66-.14-.95.22-.29.65-.36.94-.13l9.26,6.9.79.58c.29.23.36.63.14.94h0Z"/>
    <path class="cls-2" d="M693.27,857.44v151.71c0,.38-.31.67-.67.67s-.67-.29-.67-.67v-151.71c0-.36.29-.66.67-.66s.67.3.67.66Z"/>
    <path class="cls-2" d="M717.59,875.16c-2.04-3.4-4.33-7.36-4.48-13.4-.08-3.17.46-5.67.92-7.85.75-3.44,1.37-6.38-.39-10.56-1.68-4.06-4.55-6.54-5.89-7.78-4.93-4.28-10.34-6.35-16.04-6.23-1.71.04-10.51.56-16.21,7.62-3.06,3.71-3.96,7.62-4.21,9.08-1.04,4.55-.21,7.34.69,10.32.62,2.07,1.21,4.21,1.37,7.16.24,5.67-1.68,9.35-3.51,12.86-2,3.84-3.87,7.46-2.57,13.1.96,4.15,2.88,7.61,5.7,10.26,5.09,4.71,11.52,5.11,17.03,5.11h1.98c.43,0,.8,0,1.23-.03h.05c5.39-.12,13.42-.64,20.15-6.66,1.64-1.49,5.55-4.93,6.97-10.53,1.4-5.25-.65-8.75-2.79-12.47ZM719.19,887.29c-1.37,5.25-5.05,8.54-6.61,9.96-6.38,5.72-14.07,6.24-19.31,6.31h-.05c-.43.05-.81.05-1.23.05h-.15c-5.92.07-12.7.1-17.99-4.79-2.64-2.48-4.47-5.71-5.36-9.61-1.21-5.17.46-8.46,2.45-12.25,1.85-3.53,3.92-7.46,3.65-13.51-.12-3.1-.8-5.41-1.42-7.43-.84-2.95-1.61-5.48-.65-9.73.27-1.42,1.08-5.05,3.94-8.53,5.41-6.63,13.66-7.13,15.32-7.16h.41c5.24,0,10.22,1.99,14.74,5.93,1.27,1.15,3.97,3.52,5.58,7.31,1.61,3.78,1.04,6.44.31,9.79-.46,2.11-.92,4.52-.92,7.52v.65c.15,6.39,2.5,10.41,4.61,14.01,2.14,3.63,3.94,6.76,2.71,11.47h0Z"/>
    <path class="cls-3" d="M719.19,887.29c-1.37,5.25-5.05,8.54-6.61,9.96-6.38,5.72-14.07,6.24-19.31,6.31v-20.88l15.34-18.24c.24-.27.21-.7-.07-.94-.27-.23-.7-.21-.94.08l-14.33,17.02v-23.17c0-.36-.31-.67-.67-.67-.38,0-.67.31-.67.67v12.31l-12.63-10.75c-.29-.24-.71-.21-.96.08-.24.28-.19.7.08.95l13.51,11.47v17.23l-9.26-6.9c-.29-.23-.72-.16-.94.13-.23.29-.15.72.14.94l10.05,7.49h.02v13.22h-.1c-5.92.07-12.7.1-17.99-4.79-2.64-2.49-4.47-5.71-5.36-9.61-1.21-5.17.46-8.46,2.45-12.25,1.85-3.53,3.92-7.46,3.65-13.51-.12-3.1-.8-5.41-1.42-7.43-.84-2.95-1.61-5.48-.65-9.73.27-1.42,1.08-5.05,3.94-8.53,5.41-6.63,13.66-7.13,15.32-7.16h.41c5.24,0,10.22,1.99,14.74,5.93,1.27,1.15,3.97,3.52,5.58,7.31,1.61,3.78,1.04,6.44.31,9.79-.46,2.11-.92,4.52-.92,7.52v.65c.15,6.38,2.5,10.41,4.61,14.01,2.14,3.63,3.94,6.76,2.71,11.47v.02Z"/>
    <path class="cls-2" d="M599.36,856.5c-2.03-3.4-4.32-7.35-4.48-13.4-.08-3.17.46-5.66.92-7.85.76-3.44,1.38-6.39-.39-10.57-1.68-4.05-4.55-6.54-5.89-7.77-4.94-4.29-10.33-6.35-16.04-6.24-1.72.04-10.52.58-16.23,7.62-3.06,3.72-3.94,7.62-4.21,9.07-1.03,4.56-.19,7.35.69,10.34.61,2.07,1.23,4.21,1.38,7.16.23,5.66-1.68,9.34-3.52,12.86-1.99,3.82-3.87,7.46-2.56,13.09.96,4.17,2.87,7.62,5.7,10.26,5.09,4.71,11.52,5.13,17.02,5.13h2.61c.19,0,.42-.04.61-.04,5.39-.11,13.47-.61,20.2-6.65,1.65-1.5,5.55-4.95,6.96-10.53,1.42-5.24-.65-8.77-2.79-12.48h0ZM600.97,868.63c-1.38,5.25-5.05,8.54-6.62,9.96-6.39,5.74-14.12,6.23-19.36,6.31-.19.04-.42.04-.61.04h-.76c-5.93.07-12.71.11-17.98-4.79-2.64-2.49-4.48-5.7-5.36-9.61-1.23-5.16.46-8.46,2.45-12.25,1.84-3.52,3.9-7.46,3.64-13.51-.11-3.1-.8-5.4-1.41-7.43-.84-2.95-1.61-5.47-.65-9.72.27-1.42,1.07-5.05,3.94-8.54,5.39-6.62,13.66-7.12,15.31-7.15h.42c5.24,0,10.22,1.99,14.73,5.93,1.26,1.15,3.98,3.53,5.58,7.31,1.6,3.79,1.03,6.44.31,9.8-.46,2.1-.92,4.52-.92,7.51v.65c.15,6.39,2.49,10.41,4.6,14.01,2.14,3.64,3.94,6.78,2.72,11.48h-.01Z"/>
    <path class="cls-3" d="M600.97,868.63c-1.38,5.25-5.05,8.54-6.62,9.96-6.39,5.74-14.12,6.23-19.36,6.31-.19.04-.42.04-.61.04h-.76c-5.93.07-12.71.11-17.98-4.79-2.64-2.49-4.48-5.7-5.36-9.61-1.23-5.16.46-8.46,2.45-12.25,1.84-3.52,3.9-7.46,3.64-13.51-.11-3.1-.8-5.4-1.41-7.43-.84-2.95-1.61-5.47-.65-9.72.27-1.42,1.07-5.05,3.94-8.54,5.39-6.62,13.66-7.12,15.31-7.15h.42c5.24,0,10.22,1.99,14.73,5.93,1.26,1.15,3.98,3.53,5.58,7.31,1.6,3.79,1.03,6.44.31,9.8-.46,2.1-.92,4.52-.92,7.51v.65c.15,6.39,2.49,10.41,4.6,14.01,2.14,3.64,3.94,6.78,2.72,11.48h-.01Z"/>
    <path class="cls-2" d="M574.37,853.18c-.15,0-.31-.05-.43-.16l-13.74-11.67c-.28-.24-.32-.66-.08-.95.25-.28.66-.31.95-.08l13.74,11.67c.28.24.32.67.08.95-.14.16-.32.24-.51.24h0Z"/>
    <path class="cls-2" d="M574.4,864.42c-.15,0-.31-.06-.43-.16-.28-.24-.32-.67-.08-.95l15.48-18.4c.24-.29.67-.31.94-.08.28.24.32.67.08.94l-15.48,18.4c-.13.16-.32.24-.51.24h0Z"/>
    <path class="cls-2" d="M574.1,871.85c-.14,0-.28-.05-.4-.14l-10.05-7.48c-.3-.22-.36-.64-.14-.93.22-.29.65-.36.93-.14l10.05,7.48c.3.22.36.65.14.94-.13.18-.33.27-.54.27h0Z"/>
    <path class="cls-2" d="M574.38,1009.81c-.37,0-.67-.29-.67-.67v-176.86c0-.37.3-.67.67-.67s.67.3.67.67v176.86c0,.37-.3.67-.67.67Z"/>
    <path class="cls-2" d="M116.89,784.52v-29.1c0-.62.5-1.13,1.13-1.13h313.53c.62,0,1.13.5,1.13,1.13v29.1c0,.62-.5,1.13-1.13,1.13H118.01c-.62,0-1.13-.51-1.13-1.13h0ZM430.42,756.54H119.15v26.85h311.27v-26.85Z"/>
    <path class="cls-2" d="M168.96,800.39v-60.26c0-.62.5-1.13,1.13-1.13h73.46c.62,0,1.13.5,1.13,1.13v60.26c0,.62-.5,1.13-1.13,1.13h-73.46c-.62,0-1.13-.5-1.13-1.13ZM242.42,741.26h-71.21v58h71.21v-58Z"/>
    <path class="cls-2" d="M117.45,964.29v-55.83c0-.62.5-1.13,1.13-1.13h43.35c.62,0,1.13.5,1.13,1.13v55.83c0,.62-.5,1.13-1.13,1.13h-43.35c-.62,0-1.13-.5-1.13-1.13ZM160.79,909.59h-41.09v53.58h41.09v-53.58Z"/>
    <path class="cls-2" d="M140.99,784.08h-2.25v125.19h2.25v-125.19Z"/>
    <path class="cls-2" d="M179.11,1009.88l-1.54-26.68c-.01-.31.1-.61.3-.83.21-.23.51-.36.82-.36h58.49c.31,0,.6.13.81.35s.32.52.31.83l-1.1,26.58c-.02.6-.52,1.08-1.12,1.08l-55.85.09c-.6,0-1.09-.46-1.12-1.06ZM236.02,984.26h-56.13l1.4,24.42,53.71-.1,1.01-24.33h0Z"/>
    <path class="cls-2" d="M231.39,800.01h-2.25v183.99h2.25v-183.99Z"/>
    <path class="cls-2" d="M186.73,800.39h-2.25v182.94h2.25v-182.94Z"/>
    <path class="cls-2" d="M185.55,973.87l45.26-23.99c.38-.2.61-.59.6-1.03-.01-.43-.27-.81-.67-.99l-42.47-19.06,42.28-20.3c.4-.19.64-.59.64-1.03s-.27-.84-.67-1.02l-41.95-18.57,41.81-19.71c.39-.19.64-.58.64-1.01s-.25-.84-.64-1.02l-41.23-19.8,40.63-19.66c.38-.19.63-.58.64-1.01,0-.43-.24-.82-.61-1.01l-43.89-22.4-1.03,2.01,41.87,21.36-40.7,19.69c-.39.19-.63.59-.63,1.02s.25.82.64,1.01l41.21,19.79-41.9,19.76c-.4.18-.65.59-.64,1.03,0,.45.27.84.67,1.02l41.97,18.58-42.27,20.3c-.39.19-.64.59-.64,1.03s.27.83.67,1.01l42.58,19.11-43.22,22.9,1.06,2h0Z"/>
    <path class="cls-2" d="M214.52,800.86l2.09-.84-10.13-25.06v-35.39h-2.25v35.61c0,.15.03.29.08.42l10.21,25.27h0Z"/>
    <path class="cls-2" d="M186.5,741.32l21.26-24.54,19.15,24.33,1.77-1.4-19.99-25.4c-.21-.27-.52-.42-.86-.43-.36,0-.66.13-.88.39l-22.15,25.57,1.71,1.48h0Z"/>
    <path class="cls-2" d="M395.8,859.92c-2.25,0-5.27-.86-7.67-2.96-1.95-1.71-4.24-4.94-4.06-10.6.02-.62.56-1.16,1.16-1.09.62.02,1.11.54,1.09,1.16-.13,3.84.98,6.82,3.29,8.84,2.45,2.15,5.53,2.58,7,2.34,3.33-.54,8.93-2.45,9.08-9.13.13-6.08-2.41-7.83-5.36-9.85-.39-.27-.78-.54-1.17-.82-3.86-2.79-3.77-9.58-3.77-9.86v-42.84c0-.62.5-1.13,1.13-1.13s1.13.5,1.13,1.13v42.86c0,.08-.07,5.91,2.84,8,.38.27.75.53,1.13.79,3.2,2.19,6.5,4.45,6.34,11.76-.19,8.61-7.74,10.77-10.96,11.3-.36.06-.76.08-1.19.08v.02Z"/>
    <path class="cls-2" d="M1122.6,520.69c0,.38-.3.69-.68.69s-.68-.31-.68-.69"/>
    <path class="cls-2" d="M1186,521.14c0,.38-.3.68-.68.68s-.68-.3-.68-.68"/>
    <path class="cls-1" d="M1415.24,0l-.74,521.38c1.5,42.88,0,44.77,0,100v288.5c0,55.23-44.77,100-100,100H102c-55.23,0-100,44.77-100,100v162"/>
  </g>
</svg>