<svg width="1510" height="2329" viewBox="0 0 1510 2329" fill="none" xmlns="http://www.w3.org/2000/svg">
<g opacity="0.7">
<path d="M1263.53 2274.01C1265.06 2253.5 1277.61 2235.58 1296.31 2227.04C1296.47 2226.96 1296.62 2226.88 1296.78 2226.8C1304.02 2223.62 1311.7 2222 1319.6 2222H1417C1435.77 2222 1451 2237.24 1451 2255.97V2299.24C1451 2304.98 1446.32 2309.63 1440.61 2309.63H1273.76C1268.1 2309.63 1263.41 2304.98 1263.41 2299.24V2278.25C1263.41 2276.84 1263.41 2275.42 1263.53 2274L1263.53 2274.01ZM1264.79 2299.24C1264.79 2304.2 1268.84 2308.26 1273.76 2308.26H1440.61C1445.53 2308.26 1449.62 2304.21 1449.62 2299.24V2255.98C1449.62 2237.99 1434.98 2223.39 1417 2223.39H1319.6C1317.6 2223.39 1315.55 2223.5 1313.58 2223.7C1313.11 2223.78 1312.6 2223.82 1312.2 2223.9C1307.2 2224.57 1302.37 2225.9 1297.68 2227.95C1297.52 2227.99 1297.45 2228.02 1297.37 2228.07C1296.97 2228.23 1296.62 2228.42 1296.27 2228.62C1278.56 2236.96 1266.63 2254.01 1264.98 2273.53C1264.98 2273.73 1264.91 2273.89 1264.91 2274.08V2275.11C1264.83 2276.17 1264.79 2277.23 1264.79 2278.26V2299.24Z" fill="#030303"/>
<path d="M1264.77 2278.27V2299.25C1264.77 2304.21 1268.82 2308.27 1273.78 2308.27H1300.26C1300.69 2298.34 1308.88 2290.47 1318.88 2290.47C1328.87 2290.47 1337.06 2298.34 1337.49 2308.27H1382.94C1383.37 2298.34 1391.55 2290.47 1401.55 2290.47C1411.54 2290.47 1419.69 2298.34 1420.12 2308.27H1440.58C1445.54 2308.27 1449.6 2304.21 1449.6 2299.25V2268.86H1316.51C1314.15 2268.86 1312.18 2266.93 1312.18 2264.53V2223.9C1307.19 2224.57 1302.35 2225.91 1297.66 2227.95C1297.47 2233.39 1294.75 2261.18 1264.88 2275.11C1264.8 2276.18 1264.76 2277.24 1264.76 2278.27H1264.77Z" fill="#CE6326"/>
<path d="M1411.09 2222.71H1412.47V2268.18H1411.09V2222.71Z" fill="#030303"/>
<path d="M1377.46 2222.87H1378.84V2268.26H1377.46V2222.87Z" fill="#030303"/>
<path d="M1343.8 2222.53H1345.18V2268.27H1343.8V2222.53Z" fill="#030303"/>
<path d="M1312.2 2222.71V2264.52C1312.2 2266.92 1314.17 2268.85 1316.53 2268.85H1450.52V2267.47H1316.53C1314.92 2267.47 1313.58 2266.13 1313.58 2264.52V2222.71H1312.2Z" fill="#030303"/>
<path d="M1324.37 2255.54C1324.57 2255.54 1324.76 2255.42 1324.83 2255.21L1330.69 2238.22C1330.78 2237.96 1330.64 2237.68 1330.39 2237.59C1330.13 2237.5 1329.85 2237.64 1329.76 2237.89L1323.9 2254.88C1323.81 2255.14 1323.95 2255.42 1324.21 2255.51C1324.26 2255.53 1324.31 2255.54 1324.37 2255.54Z" fill="#030303"/>
<path d="M1329.62 2256.34C1329.82 2256.34 1330.02 2256.21 1330.09 2256.01L1333.54 2245.85C1333.63 2245.6 1333.49 2245.32 1333.23 2245.23C1332.99 2245.13 1332.7 2245.28 1332.61 2245.54L1329.16 2255.7C1329.07 2255.95 1329.21 2256.23 1329.47 2256.32C1329.52 2256.34 1329.58 2256.35 1329.63 2256.35L1329.62 2256.34Z" fill="#030303"/>
<path d="M1423.96 2257.43C1424.13 2257.43 1424.3 2257.34 1424.39 2257.18L1433.71 2239.81C1433.83 2239.57 1433.74 2239.27 1433.51 2239.14C1433.26 2239.01 1432.97 2239.1 1432.84 2239.35L1423.52 2256.71C1423.39 2256.95 1423.48 2257.25 1423.72 2257.38C1423.8 2257.41 1423.87 2257.44 1423.96 2257.44V2257.43Z" fill="#030303"/>
<path d="M1429.76 2255.24C1429.94 2255.24 1430.11 2255.15 1430.2 2254.98L1434.06 2247.77C1434.18 2247.54 1434.09 2247.24 1433.86 2247.11C1433.63 2246.99 1433.32 2247.06 1433.19 2247.31L1429.33 2254.52C1429.21 2254.76 1429.3 2255.06 1429.53 2255.19C1429.61 2255.22 1429.68 2255.24 1429.76 2255.24Z" fill="#030303"/>
<path d="M1382.9 2309.13C1382.9 2309.29 1382.9 2309.48 1382.94 2309.64C1383.18 2319.67 1391.4 2327.78 1401.55 2327.78C1411.7 2327.78 1419.89 2319.67 1420.12 2309.64C1420.17 2309.48 1420.17 2309.28 1420.17 2309.13C1420.17 2308.82 1420.17 2308.54 1420.12 2308.26C1419.69 2298.34 1411.55 2290.47 1401.55 2290.47C1391.56 2290.47 1383.37 2298.34 1382.94 2308.26C1382.9 2308.54 1382.9 2308.82 1382.9 2309.13Z" fill="#030303"/>
<path d="M1401.5 2319.68C1395.67 2319.68 1390.95 2314.95 1390.95 2309.12C1390.95 2303.29 1395.67 2298.56 1401.5 2298.56C1407.33 2298.56 1412.05 2303.29 1412.05 2309.12C1412.05 2314.95 1407.33 2319.68 1401.5 2319.68Z" fill="#FCFCFC"/>
<path d="M1300.22 2309.13C1300.22 2309.29 1300.22 2309.48 1300.26 2309.64C1300.49 2319.67 1308.72 2327.78 1318.88 2327.78C1329.03 2327.78 1337.25 2319.67 1337.49 2309.64C1337.53 2309.48 1337.53 2309.28 1337.53 2309.13C1337.53 2308.82 1337.53 2308.54 1337.49 2308.26C1337.06 2298.34 1328.87 2290.47 1318.88 2290.47C1308.88 2290.47 1300.7 2298.34 1300.26 2308.26C1300.22 2308.54 1300.22 2308.82 1300.22 2309.13Z" fill="#030303"/>
<path d="M1318.61 2319.68C1312.78 2319.68 1308.06 2314.95 1308.06 2309.12C1308.06 2303.29 1312.78 2298.56 1318.61 2298.56C1324.44 2298.56 1329.16 2303.29 1329.16 2309.12C1329.16 2314.95 1324.44 2319.68 1318.61 2319.68Z" fill="#FCFCFC"/>
<path d="M1263.98 2274.01L1264.57 2275.27C1264.69 2275.23 1264.77 2275.16 1264.89 2275.11C1294.76 2261.18 1297.47 2233.39 1297.67 2227.95C1297.71 2227.4 1297.71 2227.09 1297.71 2227.05H1296.33C1296.33 2227.17 1296.33 2227.72 1296.25 2228.62C1295.82 2235.2 1292.35 2260.39 1265 2273.54C1264.65 2273.7 1264.33 2273.85 1263.98 2274.01H1263.98Z" fill="#030303"/>
<path d="M839.333 2328.07C845.966 2328.07 857.14 2328.04 871.31 2327.93C871.358 2327.93 876.166 2327.83 878.855 2325.52C881.425 2323.31 882.348 2318.79 878.985 2314.78C878.878 2314.66 876.498 2311.98 873.389 2311.93C872.228 2311.9 871.121 2312.25 870.096 2312.95C870.393 2310 870.44 2303.89 866.271 2301.68C861.042 2298.9 857.59 2300.2 857.075 2300.43C856.512 2300.58 852.645 2301.76 851.461 2305.71C850.087 2303.96 847.008 2301.06 841.939 2301.39C840.085 2301.51 838.611 2302.23 837.569 2303.54C835.804 2305.74 835.739 2309.02 835.84 2310.66C833.956 2310.01 829.669 2308.9 826.56 2310.75C824.606 2311.91 823.481 2314.01 823.215 2317C822.901 2320.46 823.659 2323.19 825.459 2325.13C828.195 2328.06 832.316 2328.06 832.583 2328.05C832.731 2328.05 835.117 2328.06 839.333 2328.06V2328.07ZM873.288 2313.14C873.288 2313.14 873.336 2313.14 873.359 2313.14C875.923 2313.19 878.043 2315.55 878.061 2315.57C880.909 2318.97 880.187 2322.75 878.061 2324.59C875.74 2326.58 871.346 2326.71 871.298 2326.71C847.937 2326.89 832.731 2326.83 832.583 2326.83H832.571C832.529 2326.83 828.734 2326.86 826.347 2324.29C824.796 2322.62 824.15 2320.2 824.429 2317.1C824.659 2314.53 825.589 2312.74 827.182 2311.8C830.646 2309.73 836.242 2312.11 836.301 2312.13C836.503 2312.22 836.74 2312.19 836.917 2312.06C837.095 2311.92 837.184 2311.7 837.148 2311.48C837.142 2311.43 836.473 2306.85 838.528 2304.3C839.351 2303.27 840.53 2302.7 842.028 2302.6C848.376 2302.18 851.129 2307.3 851.242 2307.52C851.366 2307.76 851.633 2307.89 851.893 2307.84C852.16 2307.79 852.355 2307.57 852.385 2307.3C852.87 2302.71 857.235 2301.64 857.418 2301.59C857.46 2301.58 857.507 2301.57 857.548 2301.55C857.578 2301.54 860.734 2300.11 865.703 2302.75C870.375 2305.23 868.693 2314.25 868.675 2314.34C868.622 2314.61 868.752 2314.88 868.995 2315C869.238 2315.12 869.528 2315.07 869.717 2314.88C870.813 2313.72 872.015 2313.13 873.288 2313.13V2313.14Z" fill="#030303"/>
<path d="M845.776 2327.8C845.871 2327.8 845.959 2327.77 846.048 2327.73C846.35 2327.58 846.469 2327.21 846.321 2326.91L842.181 2318.69L843.976 2311.39C844.059 2311.07 843.857 2310.73 843.532 2310.66C843.206 2310.57 842.874 2310.78 842.797 2311.1L840.95 2318.62C840.914 2318.76 840.932 2318.91 840.997 2319.04L845.237 2327.46C845.344 2327.68 845.557 2327.8 845.782 2327.8L845.776 2327.8Z" fill="#030303"/>
<path d="M841.536 2319.26C841.779 2319.26 842.01 2319.12 842.105 2318.87C842.223 2318.56 842.069 2318.21 841.755 2318.09L837.835 2316.59C837.521 2316.47 837.172 2316.63 837.048 2316.94C836.929 2317.26 837.083 2317.61 837.397 2317.73L841.317 2319.22C841.388 2319.25 841.459 2319.26 841.536 2319.26Z" fill="#030303"/>
<path d="M863.18 2327.67C863.387 2327.67 863.589 2327.56 863.701 2327.37C863.784 2327.23 863.808 2327.07 863.772 2326.93C863.749 2326.05 864.43 2317.57 864.903 2311.99C864.933 2311.65 864.684 2311.36 864.347 2311.33C864.015 2311.3 863.719 2311.55 863.689 2311.89C863.689 2311.93 863.37 2315.69 863.074 2319.42C862.902 2321.61 862.766 2323.36 862.683 2324.62C862.556 2326.45 862.618 2327.44 862.866 2327.59C862.967 2327.65 863.074 2327.68 863.18 2327.68V2327.67Z" fill="#030303"/>
<path d="M863.494 2318.27C863.636 2318.27 863.778 2318.22 863.896 2318.12C864.151 2317.9 864.175 2317.52 863.956 2317.26L857.489 2309.86C857.27 2309.6 856.885 2309.58 856.631 2309.8C856.376 2310.02 856.352 2310.4 856.571 2310.66L863.038 2318.06C863.156 2318.2 863.328 2318.27 863.494 2318.27Z" fill="#030303"/>
<path d="M863.801 2323C863.926 2323 864.05 2322.96 864.157 2322.88L867.704 2320.33C867.976 2320.14 868.041 2319.76 867.84 2319.48C867.645 2319.21 867.266 2319.14 866.987 2319.34L863.44 2321.9C863.168 2322.09 863.103 2322.47 863.304 2322.75C863.422 2322.91 863.612 2323 863.801 2323V2323Z" fill="#030303"/>
<path d="M854.6 2327.54C854.683 2327.54 854.765 2327.52 854.842 2327.49C855.15 2327.35 855.292 2327 855.156 2326.69L850.117 2315.18C849.981 2314.87 849.625 2314.73 849.317 2314.86C849.01 2315 848.867 2315.36 849.004 2315.66L854.043 2327.17C854.144 2327.41 854.369 2327.54 854.6 2327.54Z" fill="#030303"/>
<path d="M851.366 2319.45C851.568 2319.45 851.763 2319.35 851.881 2319.17L854.185 2315.56C854.369 2315.27 854.286 2314.9 854.001 2314.72C853.717 2314.54 853.344 2314.62 853.161 2314.9L850.857 2318.51C850.673 2318.79 850.756 2319.17 851.041 2319.35C851.141 2319.41 851.254 2319.44 851.366 2319.44V2319.45Z" fill="#030303"/>
<path d="M853.664 2324.88C853.901 2324.88 854.126 2324.74 854.22 2324.51L855.653 2321.2C855.79 2320.89 855.647 2320.53 855.334 2320.4C855.026 2320.27 854.664 2320.41 854.534 2320.72L853.101 2324.03C852.965 2324.34 853.107 2324.7 853.421 2324.83C853.498 2324.86 853.581 2324.88 853.664 2324.88Z" fill="#030303"/>
<path d="M719.215 2327.94H760.933C764.937 2327.94 768.744 2326.11 771.131 2323.04C772.771 2320.92 773.393 2318.88 772.972 2316.96C771.9 2312.07 765.505 2310.01 763.634 2309.5C763.646 2308.7 763.545 2307.09 762.757 2305.24C761.751 2302.86 759.376 2299.62 753.792 2297.67C749.374 2296.12 744.708 2296.51 740.29 2298.78C738.117 2299.9 736.512 2301.2 735.642 2302C734.878 2300.26 732.255 2297.1 723.366 2297.71C720.062 2297.94 717.676 2299.13 716.26 2301.25C714.093 2304.5 714.875 2308.99 715.354 2310.9C711.884 2310.6 709.066 2311.59 708.935 2311.64C708.479 2311.79 704.606 2313.32 706.312 2320.12C707.076 2323.16 709.427 2325.5 713.104 2326.87C714.999 2327.58 717.054 2327.94 719.215 2327.94ZM748.409 2297.96C749.978 2297.96 751.648 2298.21 753.389 2298.82C763.178 2302.25 762.432 2309.59 762.396 2309.9C762.361 2310.21 762.562 2310.5 762.87 2310.57C762.947 2310.59 770.722 2312.36 771.782 2317.22C772.119 2318.77 771.575 2320.47 770.165 2322.29C768.01 2325.06 764.558 2326.71 760.928 2326.71H719.209C717.196 2326.71 715.283 2326.38 713.525 2325.72C711.233 2324.86 708.325 2323.15 707.49 2319.82C705.992 2313.85 709.172 2312.83 709.308 2312.79C709.32 2312.79 709.338 2312.79 709.344 2312.78C709.373 2312.77 712.53 2311.67 716.095 2312.2C716.302 2312.24 716.515 2312.16 716.651 2311.99C716.787 2311.83 716.829 2311.61 716.764 2311.4C716.746 2311.35 714.839 2305.56 717.273 2301.92C718.463 2300.13 720.542 2299.12 723.443 2298.92C734.067 2298.19 734.712 2302.98 734.736 2303.19C734.76 2303.43 734.925 2303.63 735.15 2303.7C735.376 2303.78 735.63 2303.72 735.79 2303.54C735.849 2303.47 741.043 2297.95 748.403 2297.95L748.409 2297.96Z" fill="#030303"/>
<path d="M750.274 2327.94C750.535 2327.94 750.777 2327.77 750.854 2327.51L755.497 2311.94C755.592 2311.62 755.408 2311.28 755.088 2311.18C754.769 2311.09 754.425 2311.27 754.33 2311.59L749.688 2327.16C749.593 2327.48 749.777 2327.82 750.096 2327.92C750.156 2327.93 750.215 2327.94 750.268 2327.94H750.274Z" fill="#030303"/>
<path d="M752.045 2322C752.11 2322 752.181 2321.98 752.247 2321.96C752.566 2321.85 752.732 2321.5 752.62 2321.19L747.035 2305.3C746.923 2304.98 746.574 2304.82 746.26 2304.93C745.94 2305.04 745.774 2305.39 745.887 2305.71L751.471 2321.59C751.56 2321.84 751.796 2322 752.045 2322Z" fill="#030303"/>
<path d="M735.103 2327.94C735.133 2327.94 735.168 2327.94 735.198 2327.93C735.529 2327.88 735.754 2327.57 735.701 2327.23L732.302 2306.03C732.249 2305.7 731.935 2305.47 731.603 2305.52C731.272 2305.58 731.047 2305.89 731.1 2306.22L734.499 2327.43C734.547 2327.73 734.807 2327.95 735.097 2327.95L735.103 2327.94Z" fill="#030303"/>
<path d="M733.978 2320.92C734.132 2320.92 734.28 2320.87 734.399 2320.75L739.42 2315.94C739.663 2315.71 739.669 2315.32 739.438 2315.08C739.207 2314.83 738.822 2314.83 738.579 2315.06L733.558 2319.88C733.315 2320.11 733.309 2320.49 733.54 2320.73C733.659 2320.86 733.818 2320.92 733.978 2320.92Z" fill="#030303"/>
<path d="M733.001 2314.85C733.209 2314.85 733.41 2314.74 733.522 2314.55C733.694 2314.26 733.599 2313.89 733.309 2313.72L723.55 2307.92C723.26 2307.74 722.887 2307.84 722.715 2308.13C722.544 2308.42 722.638 2308.79 722.928 2308.96L732.687 2314.76C732.782 2314.82 732.895 2314.85 732.995 2314.85H733.001Z" fill="#030303"/>
<path d="M861.836 2311.64C861.966 2311.59 864.785 2310.61 868.255 2310.9C867.775 2308.99 866.993 2304.5 869.161 2301.25C870.576 2299.13 872.962 2297.94 876.267 2297.71C885.155 2297.1 887.778 2300.25 888.542 2301.99C889.413 2301.2 891.018 2299.9 893.185 2298.78C897.603 2296.51 902.275 2296.12 906.692 2297.67C912.276 2299.62 914.651 2302.86 915.658 2305.23C916.445 2307.09 916.546 2308.7 916.534 2309.5C918.405 2310.01 924.801 2312.06 925.873 2316.96C926.293 2318.88 925.671 2320.93 924.031 2323.04C921.645 2326.1 917.837 2327.94 913.834 2327.94H872.116C869.96 2327.94 867.899 2327.58 866.005 2326.87C862.327 2325.49 859.976 2323.16 859.212 2320.11C858.91 2318.9 858.78 2317.86 858.78 2316.95C858.78 2312.82 861.457 2311.76 861.836 2311.63V2311.64ZM860.397 2319.82C861.232 2323.15 864.139 2324.87 866.431 2325.73C868.19 2326.39 870.102 2326.72 872.116 2326.72H913.834C917.464 2326.72 920.916 2325.06 923.072 2322.29C924.481 2320.48 925.02 2318.77 924.682 2317.23C923.622 2312.37 915.847 2310.59 915.77 2310.58C915.462 2310.5 915.261 2310.22 915.296 2309.91C915.308 2309.83 916.12 2302.26 906.29 2298.82C904.549 2298.21 902.879 2297.96 901.31 2297.96C893.949 2297.96 888.761 2303.49 888.696 2303.55C888.536 2303.73 888.282 2303.79 888.057 2303.72C887.832 2303.65 887.666 2303.44 887.642 2303.2C887.619 2302.99 886.973 2298.2 876.35 2298.94C873.448 2299.14 871.37 2300.14 870.179 2301.93C867.746 2305.58 869.652 2311.36 869.67 2311.42C869.741 2311.62 869.7 2311.84 869.558 2312C869.421 2312.17 869.208 2312.25 869.001 2312.22C865.436 2311.68 862.28 2312.78 862.25 2312.79C862.238 2312.79 862.221 2312.8 862.209 2312.8C862.072 2312.84 858.893 2313.86 860.397 2319.83V2319.82Z" fill="#030303"/>
<path d="M860.397 2319.82C861.232 2323.15 864.139 2324.87 866.431 2325.73C868.19 2326.39 870.102 2326.72 872.116 2326.72H887.287L886.28 2320.43C886.28 2320.43 886.274 2320.39 886.268 2320.37L885.345 2314.62L875.829 2308.97C875.538 2308.79 875.444 2308.42 875.615 2308.13C875.787 2307.84 876.16 2307.75 876.45 2307.92L885.09 2313.05L883.995 2306.21C883.941 2305.88 884.166 2305.57 884.504 2305.51C884.835 2305.46 885.149 2305.68 885.203 2306.02L887.293 2319.06L891.474 2315.05C891.716 2314.82 892.101 2314.82 892.332 2315.07C892.563 2315.31 892.557 2315.7 892.314 2315.93L887.524 2320.53L888.513 2326.72H902.713L904.294 2321.41L898.775 2305.71C898.662 2305.39 898.828 2305.04 899.148 2304.93C899.462 2304.82 899.811 2304.98 899.924 2305.3L904.886 2319.43L907.225 2311.59C907.32 2311.27 907.663 2311.08 907.983 2311.18C908.309 2311.28 908.492 2311.62 908.398 2311.94L903.986 2326.73H913.828C917.458 2326.73 920.91 2325.07 923.066 2322.3C924.475 2320.49 925.014 2318.78 924.676 2317.24C923.616 2312.37 915.841 2310.6 915.764 2310.58C915.456 2310.51 915.255 2310.23 915.291 2309.91C915.302 2309.84 916.114 2302.27 906.284 2298.83C904.543 2298.22 902.873 2297.97 901.304 2297.97C893.943 2297.97 888.756 2303.49 888.69 2303.56C888.53 2303.73 888.276 2303.79 888.051 2303.72C887.826 2303.65 887.66 2303.44 887.636 2303.21C887.613 2303 886.967 2298.21 876.344 2298.94C873.442 2299.14 871.364 2300.15 870.173 2301.94C867.74 2305.58 869.646 2311.37 869.664 2311.42C869.735 2311.63 869.694 2311.85 869.552 2312.01C869.415 2312.18 869.202 2312.25 868.995 2312.22C865.43 2311.68 862.274 2312.79 862.244 2312.8C862.232 2312.8 862.215 2312.8 862.203 2312.81C862.067 2312.85 858.887 2313.86 860.391 2319.84L860.397 2319.82Z" fill="#CE6326"/>
<path d="M902.997 2327.91C903.057 2327.93 903.116 2327.94 903.175 2327.94C903.436 2327.94 903.678 2327.77 903.755 2327.5L903.986 2326.72L908.398 2311.93C908.493 2311.61 908.309 2311.27 907.983 2311.17C907.664 2311.08 907.326 2311.26 907.225 2311.58L904.886 2319.42L904.294 2321.4L902.713 2326.71L902.583 2327.14C902.488 2327.46 902.672 2327.81 902.991 2327.9L902.997 2327.91Z" fill="#030303"/>
<path d="M898.787 2305.71L904.306 2321.41L904.371 2321.59C904.46 2321.84 904.697 2322 904.945 2322C905.016 2322 905.081 2321.99 905.147 2321.96C905.46 2321.85 905.632 2321.51 905.52 2321.19L904.898 2319.42L899.936 2305.3C899.823 2304.98 899.48 2304.81 899.16 2304.93C898.84 2305.04 898.674 2305.39 898.787 2305.7V2305.71Z" fill="#030303"/>
<path d="M883.995 2306.22L885.09 2313.05L885.339 2314.62L886.263 2320.37C886.263 2320.37 886.263 2320.42 886.274 2320.44L887.281 2326.73L887.394 2327.43C887.441 2327.73 887.702 2327.95 887.998 2327.95C888.027 2327.95 888.063 2327.95 888.092 2327.93C888.424 2327.88 888.655 2327.57 888.602 2327.23L888.519 2326.73L887.53 2320.53L887.299 2319.07L885.209 2306.03C885.155 2305.7 884.841 2305.47 884.51 2305.52C884.178 2305.58 883.947 2305.89 884.001 2306.22L883.995 2306.22Z" fill="#030303"/>
<path d="M886.268 2320.37C886.268 2320.37 886.268 2320.41 886.28 2320.43C886.304 2320.55 886.357 2320.65 886.44 2320.73C886.558 2320.86 886.718 2320.92 886.878 2320.92C887.032 2320.92 887.18 2320.87 887.299 2320.75L887.53 2320.53L892.32 2315.94C892.563 2315.71 892.569 2315.32 892.338 2315.07C892.107 2314.83 891.722 2314.82 891.479 2315.05L887.299 2319.06L886.458 2319.87C886.322 2320.01 886.256 2320.19 886.274 2320.37H886.268Z" fill="#030303"/>
<path d="M875.829 2308.96L885.345 2314.62L885.594 2314.76C885.688 2314.82 885.801 2314.85 885.902 2314.85C886.109 2314.85 886.316 2314.74 886.423 2314.55C886.594 2314.26 886.5 2313.89 886.21 2313.72L885.09 2313.05L876.451 2307.92C876.161 2307.75 875.787 2307.84 875.616 2308.13C875.444 2308.42 875.539 2308.8 875.829 2308.97V2308.96Z" fill="#030303"/>
<path d="M562.865 2304.2C563.048 2304.14 567.016 2302.75 571.901 2303.17C571.226 2300.48 570.125 2294.17 573.174 2289.59C575.164 2286.61 578.527 2284.93 583.176 2284.61C595.688 2283.75 599.378 2288.19 600.455 2290.64C601.681 2289.53 603.937 2287.69 606.993 2286.12C613.211 2282.92 619.784 2282.38 626.001 2284.56C633.865 2287.31 637.205 2291.87 638.621 2295.21C639.728 2297.82 639.87 2300.09 639.858 2301.22C642.493 2301.92 651.494 2304.82 652.998 2311.71C653.591 2314.42 652.714 2317.29 650.405 2320.26C647.047 2324.58 641.682 2327.16 636.051 2327.16H577.325C574.287 2327.16 571.392 2326.65 568.727 2325.65C563.551 2323.72 560.247 2320.43 559.169 2316.15C558.743 2314.45 558.565 2312.97 558.565 2311.7C558.565 2305.88 562.338 2304.4 562.865 2304.21V2304.2ZM560.833 2315.72C562.012 2320.4 566.104 2322.83 569.331 2324.04C571.806 2324.96 574.501 2325.43 577.331 2325.43H636.056C641.161 2325.43 646.023 2323.1 649.06 2319.2C651.044 2316.65 651.808 2314.25 651.328 2312.07C649.836 2305.22 638.893 2302.73 638.78 2302.7C638.348 2302.61 638.058 2302.2 638.117 2301.76C638.129 2301.66 639.272 2291.01 625.439 2286.16C622.987 2285.31 620.636 2284.96 618.428 2284.96C608.065 2284.96 600.763 2292.72 600.674 2292.82C600.449 2293.07 600.094 2293.15 599.774 2293.05C599.455 2292.95 599.224 2292.66 599.188 2292.33C599.159 2292.03 598.247 2285.29 583.294 2286.32C579.208 2286.6 576.289 2288.02 574.607 2290.54C571.185 2295.67 573.867 2303.82 573.897 2303.89C573.991 2304.18 573.932 2304.49 573.743 2304.72C573.553 2304.95 573.251 2305.07 572.955 2305.02C567.934 2304.26 563.492 2305.81 563.451 2305.83C563.433 2305.83 563.409 2305.84 563.398 2305.84C563.208 2305.9 558.731 2307.33 560.845 2315.73L560.833 2315.72Z" fill="#030303"/>
<path d="M620.802 2327.11C620.885 2327.14 620.968 2327.15 621.051 2327.15C621.418 2327.15 621.762 2326.9 621.868 2326.53L622.2 2325.43L628.412 2304.62C628.548 2304.17 628.287 2303.69 627.831 2303.55C627.381 2303.42 626.902 2303.68 626.765 2304.13L623.473 2315.16L622.638 2317.95L620.411 2325.43L620.228 2326.04C620.092 2326.49 620.352 2326.97 620.802 2327.11V2327.11Z" fill="#030303"/>
<path d="M614.869 2295.86L622.632 2317.96L622.721 2318.21C622.845 2318.57 623.177 2318.79 623.532 2318.79C623.627 2318.79 623.722 2318.77 623.817 2318.73C624.261 2318.58 624.498 2318.09 624.344 2317.64L623.467 2315.16L616.486 2295.29C616.332 2294.84 615.84 2294.61 615.396 2294.76C614.946 2294.92 614.715 2295.41 614.869 2295.86Z" fill="#030303"/>
<path d="M594.054 2296.57L595.6 2306.19L595.955 2308.4L597.252 2316.49C597.252 2316.52 597.258 2316.55 597.264 2316.58L598.685 2325.43L598.845 2326.42C598.916 2326.84 599.277 2327.14 599.692 2327.14C599.739 2327.14 599.78 2327.14 599.828 2327.13C600.296 2327.06 600.615 2326.61 600.538 2326.15L600.42 2325.42L599.022 2316.71L598.691 2314.65L595.748 2296.29C595.671 2295.83 595.233 2295.51 594.765 2295.58C594.297 2295.66 593.977 2296.1 594.054 2296.57V2296.57Z" fill="#030303"/>
<path d="M597.252 2316.49C597.252 2316.52 597.258 2316.55 597.264 2316.58C597.293 2316.74 597.37 2316.89 597.489 2317.01C597.654 2317.19 597.879 2317.28 598.104 2317.28C598.318 2317.28 598.531 2317.2 598.697 2317.03L599.022 2316.72L605.767 2310.25C606.111 2309.92 606.122 2309.38 605.791 2309.04C605.465 2308.7 604.92 2308.68 604.583 2309.01L598.697 2314.66L597.512 2315.8C597.317 2315.99 597.228 2316.25 597.252 2316.49Z" fill="#030303"/>
<path d="M582.56 2300.45L595.955 2308.4L596.298 2308.61C596.435 2308.69 596.588 2308.73 596.737 2308.73C597.033 2308.73 597.317 2308.58 597.471 2308.31C597.714 2307.9 597.583 2307.37 597.175 2307.13L595.6 2306.19L583.436 2298.97C583.034 2298.73 582.507 2298.86 582.264 2299.27C582.021 2299.68 582.151 2300.2 582.56 2300.45Z" fill="#030303"/>
<path d="M629.247 2313.72C631.32 2310.77 635.074 2309.56 636.732 2309.15C635.625 2306.98 632.847 2300.51 636.3 2295.96C638.141 2293.53 640.392 2292.16 642.985 2291.91C646.728 2291.54 650.174 2293.57 651.832 2294.76C651.921 2293.38 652.371 2291.12 654.142 2288.94C656.895 2285.54 661.751 2283.57 668.591 2283.09C675.264 2282.63 680.025 2283.9 682.743 2286.88C684.644 2288.97 685.053 2291.37 685.1 2292.85C687.256 2291.49 692.721 2289.44 703.534 2293.08C707.283 2294.34 709.663 2296.47 710.611 2299.43C712.233 2304.47 709.225 2310.48 707.561 2313.25C708.728 2312.96 710.327 2312.81 711.872 2313.44C713.649 2314.17 714.94 2315.76 715.709 2318.16C716.894 2321.85 715.597 2324.88 712.062 2326.67C710.534 2327.45 708.763 2327.86 706.945 2327.86H641.304C638.378 2327.86 635.53 2327.17 633.061 2325.89C630.123 2324.36 628.418 2322.4 627.998 2320.08C627.559 2317.66 627.986 2315.52 629.253 2313.72H629.247ZM629.194 2319.86C629.543 2321.8 631.035 2323.46 633.623 2324.8C635.921 2326 638.58 2326.64 641.304 2326.64H706.945C708.58 2326.64 710.155 2326.27 711.511 2325.58C714.537 2324.05 715.561 2321.68 714.549 2318.53C713.891 2316.49 712.837 2315.15 711.416 2314.57C710.794 2314.31 710.149 2314.21 709.539 2314.21C707.828 2314.21 706.377 2314.95 706.353 2314.97C706.104 2315.1 705.797 2315.04 705.613 2314.82C705.429 2314.61 705.418 2314.3 705.577 2314.06C705.637 2313.98 711.404 2305.85 709.45 2299.78C708.627 2297.22 706.501 2295.35 703.144 2294.21C689.542 2289.64 684.929 2294.49 684.887 2294.54C684.709 2294.74 684.413 2294.8 684.171 2294.69C683.928 2294.57 683.786 2294.31 683.827 2294.04C683.833 2294.01 684.366 2290.45 681.826 2287.67C679.374 2284.99 674.945 2283.85 668.674 2284.3C662.207 2284.75 657.641 2286.56 655.113 2289.67C652.667 2292.67 653.064 2295.89 653.064 2295.93C653.1 2296.17 652.975 2296.42 652.75 2296.55C652.525 2296.67 652.247 2296.64 652.057 2296.46C652.016 2296.42 647.705 2292.65 643.11 2293.11C640.871 2293.33 638.905 2294.53 637.277 2296.68C633.653 2301.46 638.141 2309.18 638.183 2309.26C638.284 2309.43 638.295 2309.65 638.212 2309.83C638.13 2310.01 637.958 2310.14 637.756 2310.17C637.703 2310.18 632.605 2311.06 630.236 2314.42C629.164 2315.94 628.809 2317.77 629.188 2319.86H629.194Z" fill="#030303"/>
<path d="M629.193 2319.86C629.543 2321.8 631.035 2323.46 633.623 2324.8C635.921 2326 638.579 2326.64 641.303 2326.64H655.379L653.372 2320.89L646.751 2319.19C646.426 2319.11 646.23 2318.77 646.313 2318.45C646.396 2318.12 646.728 2317.93 647.053 2318.01L652.886 2319.51L650.553 2312.83C650.512 2312.7 650.506 2312.57 650.547 2312.44L652.229 2307.04C652.329 2306.72 652.667 2306.54 652.993 2306.64C653.313 2306.74 653.49 2307.08 653.389 2307.41L651.767 2312.62L656.658 2326.64H669.307C669.313 2326.6 669.325 2326.56 669.342 2326.52L671.569 2320.95L666.624 2309.31L658.968 2305.98C658.66 2305.85 658.518 2305.49 658.654 2305.18C658.79 2304.88 659.151 2304.73 659.453 2304.87L665.937 2307.69L662.692 2300.05C662.562 2299.75 662.704 2299.38 663.012 2299.25C663.32 2299.12 663.681 2299.27 663.812 2299.57L667.643 2308.6L672.209 2319.35L677.497 2306.12L677.005 2297.54C676.987 2297.21 677.242 2296.92 677.579 2296.9C677.917 2296.88 678.201 2297.14 678.225 2297.48L678.722 2306.19C678.722 2306.27 678.716 2306.36 678.681 2306.45L670.604 2326.64H688.156L690.542 2320.16L683.655 2316.17C683.365 2316.01 683.264 2315.63 683.43 2315.34C683.596 2315.05 683.969 2314.95 684.265 2315.12L690.968 2319L693.716 2311.53L689.239 2300.03C689.115 2299.72 689.269 2299.36 689.583 2299.24C689.897 2299.12 690.252 2299.28 690.37 2299.59L694.35 2309.81L696.547 2303.83C696.659 2303.51 697.014 2303.35 697.328 2303.47C697.642 2303.58 697.808 2303.93 697.689 2304.25L694.942 2311.7L691.874 2320.04C691.874 2320.04 691.857 2320.1 691.845 2320.12L689.447 2326.64H706.921C708.556 2326.64 710.131 2326.27 711.487 2325.59C714.513 2324.05 715.537 2321.68 714.525 2318.54C713.867 2316.49 712.813 2315.16 711.392 2314.57C710.77 2314.31 710.125 2314.22 709.515 2314.22C707.804 2314.22 706.353 2314.96 706.329 2314.97C706.08 2315.1 705.773 2315.04 705.589 2314.83C705.405 2314.62 705.394 2314.3 705.553 2314.07C705.613 2313.99 711.38 2305.86 709.426 2299.79C708.603 2297.22 706.477 2295.35 703.12 2294.22C689.518 2289.65 684.905 2294.5 684.863 2294.55C684.685 2294.75 684.389 2294.81 684.147 2294.69C683.904 2294.58 683.762 2294.31 683.803 2294.05C683.809 2294.01 684.342 2290.46 681.802 2287.68C679.35 2285 674.921 2283.86 668.65 2284.3C662.183 2284.76 657.618 2286.57 655.089 2289.68C652.643 2292.68 653.04 2295.9 653.04 2295.93C653.076 2296.18 652.951 2296.43 652.726 2296.55C652.501 2296.67 652.223 2296.64 652.033 2296.47C651.992 2296.43 647.681 2292.66 643.086 2293.12C640.847 2293.34 638.881 2294.54 637.253 2296.69C633.629 2301.46 638.117 2309.18 638.159 2309.27C638.26 2309.44 638.271 2309.65 638.189 2309.83C638.106 2310.02 637.934 2310.15 637.733 2310.18C637.679 2310.19 632.581 2311.07 630.212 2314.43C629.14 2315.95 628.785 2317.78 629.164 2319.86L629.193 2319.86Z" fill="#CE6326"/>
<path d="M688.387 2327.82C688.458 2327.85 688.529 2327.86 688.6 2327.86C688.849 2327.86 689.08 2327.71 689.169 2327.46L689.471 2326.65L691.869 2320.12C691.869 2320.12 691.887 2320.07 691.898 2320.05L694.966 2311.71L697.714 2304.25C697.826 2303.94 697.666 2303.59 697.352 2303.47C697.038 2303.35 696.689 2303.51 696.571 2303.83L694.374 2309.81L693.74 2311.54L690.992 2319L690.566 2320.16L688.18 2326.64L688.032 2327.04C687.913 2327.35 688.079 2327.7 688.393 2327.82H688.387Z" fill="#030303"/>
<path d="M689.251 2300.03L693.728 2311.54L693.811 2311.75C693.905 2311.99 694.136 2312.14 694.379 2312.14C694.45 2312.14 694.527 2312.13 694.598 2312.1C694.776 2312.03 694.906 2311.88 694.96 2311.71C695.001 2311.58 694.995 2311.44 694.948 2311.31L694.367 2309.81L690.388 2299.59C690.264 2299.28 689.914 2299.13 689.6 2299.25C689.287 2299.37 689.133 2299.72 689.257 2300.04L689.251 2300.03Z" fill="#030303"/>
<path d="M683.667 2316.17L690.554 2320.16L690.998 2320.42C691.093 2320.47 691.2 2320.5 691.3 2320.5C691.508 2320.5 691.715 2320.39 691.827 2320.2C691.839 2320.17 691.857 2320.15 691.863 2320.13C691.869 2320.1 691.881 2320.07 691.893 2320.05C691.964 2319.79 691.851 2319.51 691.608 2319.37L690.981 2319.01L684.277 2315.13C683.987 2314.96 683.614 2315.06 683.442 2315.35C683.276 2315.64 683.371 2316.01 683.667 2316.18V2316.17Z" fill="#030303"/>
<path d="M669.692 2327.32C669.763 2327.35 669.84 2327.36 669.917 2327.36C670.16 2327.36 670.385 2327.22 670.48 2326.97L670.616 2326.64L678.693 2306.44C678.728 2306.36 678.74 2306.27 678.734 2306.18L678.237 2297.47C678.219 2297.13 677.929 2296.88 677.591 2296.9C677.254 2296.92 676.999 2297.21 677.017 2297.54L677.509 2306.12L672.221 2319.34L671.575 2320.95L669.349 2326.52C669.337 2326.56 669.319 2326.59 669.313 2326.64C669.26 2326.91 669.414 2327.2 669.686 2327.31L669.692 2327.32Z" fill="#030303"/>
<path d="M662.704 2300.05L665.95 2307.68L666.642 2309.31L671.587 2320.95L671.622 2321.04C671.723 2321.27 671.948 2321.41 672.185 2321.41C672.268 2321.41 672.345 2321.39 672.422 2321.36C672.73 2321.23 672.878 2320.87 672.742 2320.56L672.226 2319.35L667.661 2308.6L663.83 2299.57C663.699 2299.27 663.338 2299.12 663.03 2299.25C662.722 2299.39 662.574 2299.75 662.71 2300.05L662.704 2300.05Z" fill="#030303"/>
<path d="M658.98 2305.98L666.637 2309.31L666.862 2309.41C666.939 2309.44 667.022 2309.46 667.105 2309.46C667.342 2309.46 667.567 2309.33 667.661 2309.09C667.732 2308.93 667.726 2308.75 667.661 2308.6C667.602 2308.46 667.496 2308.35 667.353 2308.29L665.95 2307.68L659.466 2304.86C659.158 2304.72 658.797 2304.86 658.666 2305.17C658.53 2305.48 658.672 2305.84 658.98 2305.97V2305.98Z" fill="#030303"/>
<path d="M650.559 2312.83L652.892 2319.51L653.372 2320.89L655.38 2326.64L655.664 2327.45C655.753 2327.7 655.984 2327.86 656.238 2327.86C656.303 2327.86 656.374 2327.85 656.44 2327.83C656.753 2327.71 656.925 2327.37 656.813 2327.05L656.67 2326.64L651.779 2312.62L653.402 2307.41C653.502 2307.09 653.319 2306.74 653.005 2306.64C652.685 2306.54 652.342 2306.72 652.241 2307.04L650.559 2312.44C650.518 2312.57 650.524 2312.7 650.565 2312.83H650.559Z" fill="#030303"/>
<path d="M646.757 2319.19L653.378 2320.89L653.538 2320.93C653.591 2320.94 653.638 2320.95 653.692 2320.95C653.964 2320.95 654.213 2320.76 654.284 2320.49C654.367 2320.17 654.171 2319.83 653.845 2319.75L652.898 2319.51L647.065 2318.01C646.74 2317.93 646.408 2318.12 646.325 2318.45C646.242 2318.77 646.438 2319.11 646.763 2319.19H646.757Z" fill="#030303"/>
<path d="M760.199 2314.47C760.537 2310.71 761.954 2308.07 764.406 2306.62C768.318 2304.29 773.706 2305.7 776.073 2306.5C775.948 2304.44 776.028 2300.32 778.252 2297.54C779.566 2295.9 781.416 2294.99 783.747 2294.84C790.124 2294.41 793.992 2298.07 795.721 2300.27C797.21 2295.31 802.072 2293.82 802.78 2293.63C803.426 2293.35 807.772 2291.71 814.345 2295.2C819.586 2297.99 819.523 2305.67 819.149 2309.38C820.437 2308.49 821.832 2308.06 823.289 2308.09C827.197 2308.16 830.188 2311.52 830.326 2311.68C834.551 2316.72 833.392 2322.4 830.156 2325.18C826.774 2328.09 820.731 2328.22 820.669 2328.22C802.847 2328.36 788.8 2328.39 780.462 2328.39C775.159 2328.39 772.164 2328.38 771.977 2328.38C771.634 2328.39 766.455 2328.39 763.02 2324.71C760.751 2322.27 759.802 2318.83 760.194 2314.48L760.199 2314.47ZM764.134 2323.65C767.128 2326.88 771.906 2326.84 771.959 2326.84C771.964 2326.84 771.968 2326.84 771.973 2326.84C772.075 2326.84 777.784 2326.87 787.691 2326.85C788.239 2326.85 788.8 2326.85 789.371 2326.85C792.201 2326.84 795.338 2326.83 798.756 2326.82C799.3 2326.82 799.848 2326.82 800.405 2326.81C803.311 2326.8 806.399 2326.78 809.666 2326.77C810.169 2326.77 810.682 2326.76 811.199 2326.76C814.216 2326.74 817.371 2326.71 820.655 2326.69C820.709 2326.69 826.235 2326.54 829.154 2324.02C831.832 2321.71 832.741 2316.95 829.154 2312.68C829.127 2312.64 826.471 2309.67 823.244 2309.62C823.213 2309.62 823.182 2309.62 823.151 2309.62C821.551 2309.62 820.036 2310.36 818.659 2311.81C818.423 2312.06 818.057 2312.12 817.754 2311.97C817.451 2311.81 817.291 2311.47 817.353 2311.14C817.375 2311.03 819.497 2299.69 813.614 2296.56C807.362 2293.24 803.395 2295.03 803.36 2295.04C803.306 2295.07 803.253 2295.09 803.199 2295.1C802.967 2295.15 797.477 2296.51 796.867 2302.29C796.831 2302.62 796.577 2302.9 796.247 2302.96C795.913 2303.02 795.579 2302.86 795.423 2302.56C795.387 2302.49 791.853 2295.83 783.84 2296.37C781.955 2296.49 780.476 2297.21 779.437 2298.5C776.852 2301.72 777.69 2307.48 777.699 2307.54C777.744 2307.81 777.628 2308.09 777.41 2308.26C777.187 2308.43 776.893 2308.47 776.639 2308.35C776.567 2308.32 769.53 2305.34 765.172 2307.93C763.167 2309.12 762.003 2311.37 761.709 2314.61C761.357 2318.5 762.168 2321.54 764.12 2323.65L764.134 2323.65Z" fill="#030303"/>
<path d="M764.134 2323.65C767.128 2326.88 771.906 2326.84 771.959 2326.84C771.964 2326.84 771.968 2326.84 771.973 2326.84C772.075 2326.84 777.784 2326.87 787.691 2326.85L782.686 2317.16L778.029 2315.39C777.632 2315.23 777.436 2314.79 777.588 2314.4C777.739 2314 778.18 2313.8 778.573 2313.95L782.699 2315.52L784.834 2307.05C784.936 2306.64 785.351 2306.39 785.761 2306.49C786.171 2306.6 786.421 2307.02 786.314 2307.43L784.041 2316.46L789.295 2326.63C789.331 2326.7 789.357 2326.78 789.366 2326.85C792.196 2326.84 795.333 2326.83 798.752 2326.82L792.615 2312.79C792.446 2312.4 792.619 2311.95 793.007 2311.78C793.395 2311.61 793.845 2311.78 794.019 2312.18L795.485 2315.52L797.834 2311.84C798.061 2311.48 798.533 2311.38 798.89 2311.6C799.246 2311.83 799.353 2312.3 799.121 2312.66L796.229 2317.2C796.229 2317.2 796.225 2317.21 796.22 2317.21L798.328 2322.03L799.572 2319.15C799.741 2318.76 800.191 2318.58 800.579 2318.75C800.966 2318.92 801.145 2319.37 800.975 2319.76L799.179 2323.92C799.179 2323.92 799.17 2323.93 799.166 2323.94L800.356 2326.65C800.378 2326.71 800.396 2326.76 800.405 2326.82C803.311 2326.8 806.399 2326.79 809.665 2326.77C809.665 2326.26 809.728 2325.43 809.821 2324.05C809.928 2322.47 810.093 2320.26 810.316 2317.51C810.356 2316.99 810.401 2316.47 810.441 2315.96C810.379 2315.92 810.316 2315.87 810.263 2315.81L802.13 2306.5C801.849 2306.18 801.884 2305.7 802.201 2305.41C802.517 2305.13 803.003 2305.17 803.284 2305.49L810.606 2313.87C810.869 2310.65 811.092 2308.07 811.092 2308.03C811.127 2307.61 811.497 2307.3 811.92 2307.33C812.339 2307.37 812.651 2307.74 812.62 2308.16C812.317 2311.74 811.947 2316.26 811.658 2319.99L815.241 2317.41C815.584 2317.16 816.061 2317.24 816.31 2317.58C816.555 2317.93 816.479 2318.4 816.136 2318.65L811.675 2321.87C811.622 2321.91 811.564 2321.94 811.506 2321.95C811.332 2324.28 811.212 2326.08 811.199 2326.75C814.216 2326.74 817.371 2326.71 820.655 2326.69C820.709 2326.69 826.235 2326.53 829.154 2324.01C831.832 2321.71 832.741 2316.95 829.154 2312.67C829.127 2312.64 826.471 2309.67 823.244 2309.62C823.213 2309.62 823.182 2309.62 823.151 2309.62C821.551 2309.62 820.036 2310.36 818.659 2311.81C818.422 2312.05 818.057 2312.12 817.754 2311.96C817.451 2311.81 817.291 2311.47 817.353 2311.13C817.375 2311.02 819.496 2299.68 813.614 2296.55C807.361 2293.23 803.395 2295.02 803.36 2295.04C803.306 2295.06 803.253 2295.08 803.199 2295.1C802.967 2295.15 797.477 2296.5 796.866 2302.28C796.831 2302.62 796.577 2302.89 796.247 2302.95C795.913 2303.02 795.579 2302.85 795.423 2302.55C795.387 2302.48 791.853 2295.83 783.84 2296.36C781.955 2296.49 780.476 2297.21 779.437 2298.49C776.852 2301.71 777.69 2307.48 777.699 2307.53C777.744 2307.81 777.628 2308.09 777.409 2308.26C777.187 2308.42 776.893 2308.46 776.639 2308.35C776.567 2308.32 769.53 2305.33 765.172 2307.92C763.167 2309.12 762.003 2311.36 761.709 2314.6C761.357 2318.5 762.168 2321.54 764.12 2323.64L764.134 2323.65Z" fill="#CE6326"/>
<path d="M782.552 2316.9L782.686 2317.16L787.691 2326.85L787.94 2327.33C788.074 2327.6 788.341 2327.75 788.622 2327.75C788.738 2327.75 788.863 2327.72 788.97 2327.66C789.277 2327.51 789.433 2327.17 789.371 2326.84C789.362 2326.77 789.335 2326.7 789.299 2326.63L784.045 2316.45L786.318 2307.42C786.421 2307.01 786.175 2306.59 785.765 2306.49C785.355 2306.39 784.937 2306.64 784.838 2307.04L782.704 2315.52L782.494 2316.36C782.45 2316.54 782.472 2316.73 782.557 2316.9L782.552 2316.9Z" fill="#030303"/>
<path d="M778.034 2315.39L782.691 2317.16L782.963 2317.26C783.052 2317.3 783.145 2317.31 783.234 2317.31C783.542 2317.31 783.836 2317.13 783.952 2316.82C784.103 2316.42 783.903 2315.98 783.506 2315.83L782.704 2315.52L778.577 2313.95C778.181 2313.8 777.74 2314 777.592 2314.39C777.441 2314.79 777.637 2315.23 778.034 2315.38V2315.39Z" fill="#030303"/>
<path d="M809.822 2324.04C809.929 2322.46 810.094 2320.26 810.316 2317.5C810.356 2316.98 810.401 2316.47 810.441 2315.95C810.499 2315.24 810.557 2314.54 810.61 2313.87C810.873 2310.65 811.096 2308.07 811.096 2308.03C811.132 2307.61 811.502 2307.3 811.925 2307.33C812.344 2307.37 812.656 2307.74 812.625 2308.16C812.322 2311.74 811.952 2316.26 811.662 2319.99C811.609 2320.68 811.56 2321.34 811.511 2321.96C811.337 2324.28 811.217 2326.08 811.203 2326.75C811.203 2326.84 811.203 2326.91 811.203 2326.95C811.239 2327.14 811.212 2327.34 811.11 2327.51C810.967 2327.75 810.713 2327.88 810.45 2327.88C810.316 2327.88 810.183 2327.85 810.058 2327.77C809.777 2327.6 809.661 2327.53 809.67 2326.76C809.67 2326.25 809.733 2325.42 809.826 2324.04H809.822Z" fill="#030303"/>
<path d="M802.13 2306.49L810.263 2315.8C810.316 2315.86 810.374 2315.91 810.441 2315.95C810.561 2316.02 810.699 2316.06 810.842 2316.06C811.02 2316.06 811.198 2316 811.346 2315.88C811.662 2315.6 811.698 2315.11 811.417 2314.79L810.61 2313.87L803.288 2305.48C803.007 2305.17 802.526 2305.13 802.205 2305.41C801.884 2305.69 801.853 2306.17 802.134 2306.49L802.13 2306.49Z" fill="#030303"/>
<path d="M810.606 2321.69C810.757 2321.9 810.993 2322.01 811.23 2322.01C811.323 2322.01 811.417 2322 811.506 2321.96C811.564 2321.94 811.622 2321.91 811.675 2321.87L816.136 2318.66C816.479 2318.41 816.555 2317.93 816.31 2317.59C816.06 2317.24 815.584 2317.16 815.24 2317.41L811.657 2319.99L810.78 2320.62C810.436 2320.87 810.361 2321.35 810.606 2321.69Z" fill="#030303"/>
<path d="M792.62 2312.79L798.756 2326.82L798.952 2327.27C799.077 2327.56 799.358 2327.73 799.652 2327.73C799.754 2327.73 799.857 2327.7 799.959 2327.66C800.294 2327.51 800.472 2327.16 800.405 2326.81C800.396 2326.76 800.378 2326.7 800.356 2326.65L799.166 2323.94L798.328 2322.02L796.22 2317.21L795.481 2315.52L794.014 2312.18C793.845 2311.79 793.391 2311.61 793.003 2311.78C792.615 2311.95 792.441 2312.4 792.611 2312.79H792.62Z" fill="#030303"/>
<path d="M795.177 2317.43C795.302 2317.51 795.445 2317.55 795.587 2317.55C795.832 2317.55 796.078 2317.43 796.225 2317.21C796.225 2317.21 796.229 2317.2 796.234 2317.2L799.126 2312.66C799.358 2312.3 799.251 2311.83 798.894 2311.6C798.538 2311.37 798.065 2311.48 797.838 2311.83L795.489 2315.52L794.946 2316.37C794.718 2316.73 794.821 2317.2 795.182 2317.43H795.177Z" fill="#030303"/>
<path d="M798.181 2324.31C798.279 2324.35 798.382 2324.37 798.484 2324.37C798.77 2324.37 799.041 2324.21 799.171 2323.93C799.175 2323.92 799.184 2323.91 799.184 2323.9L800.98 2319.74C801.149 2319.36 800.971 2318.9 800.583 2318.74C800.196 2318.57 799.745 2318.75 799.576 2319.13L798.333 2322.01L797.78 2323.29C797.611 2323.68 797.794 2324.13 798.181 2324.3V2324.31Z" fill="#030303"/>
<path d="M169.299 2304.2C169.483 2304.14 173.45 2302.75 178.336 2303.17C177.661 2300.48 176.559 2294.17 179.609 2289.59C181.598 2286.61 184.962 2284.93 189.61 2284.61C202.123 2283.75 205.812 2288.19 206.89 2290.64C208.116 2289.53 210.372 2287.69 213.427 2286.12C219.645 2282.92 226.218 2282.38 232.436 2284.56C240.3 2287.31 243.64 2291.87 245.055 2295.21C246.162 2297.82 246.305 2300.09 246.293 2301.22C248.928 2301.92 257.929 2304.82 259.433 2311.71C260.025 2314.42 259.149 2317.29 256.839 2320.26C253.482 2324.58 248.117 2327.16 242.485 2327.16H183.76C180.722 2327.16 177.826 2326.65 175.162 2325.65C169.986 2323.72 166.682 2320.43 165.604 2316.15C165.178 2314.45 165 2312.97 165 2311.7C165 2305.88 168.772 2304.4 169.299 2304.21V2304.2ZM167.268 2315.72C168.446 2320.4 172.538 2322.83 175.766 2324.04C178.241 2324.96 180.935 2325.43 183.766 2325.43H242.491C247.595 2325.43 252.457 2323.1 255.495 2319.2C257.479 2316.65 258.243 2314.25 257.763 2312.07C256.271 2305.22 245.328 2302.73 245.215 2302.7C244.783 2302.61 244.493 2302.2 244.552 2301.76C244.564 2301.66 245.706 2291.01 231.873 2286.16C229.422 2285.31 227.071 2284.96 224.862 2284.96C214.499 2284.96 207.198 2292.72 207.109 2292.82C206.884 2293.07 206.529 2293.15 206.209 2293.05C205.889 2292.95 205.658 2292.66 205.623 2292.33C205.593 2292.03 204.681 2285.29 189.729 2286.32C185.643 2286.6 182.724 2288.02 181.042 2290.54C177.619 2295.67 180.302 2303.82 180.331 2303.89C180.426 2304.18 180.367 2304.49 180.177 2304.72C179.988 2304.95 179.686 2305.07 179.39 2305.02C174.368 2304.26 169.927 2305.81 169.885 2305.83C169.868 2305.83 169.844 2305.84 169.832 2305.84C169.643 2305.9 165.166 2307.33 167.28 2315.73L167.268 2315.72Z" fill="#030303"/>
<path d="M227.237 2327.11C227.32 2327.14 227.403 2327.15 227.485 2327.15C227.853 2327.15 228.196 2326.9 228.303 2326.53L228.634 2325.43L234.846 2304.62C234.982 2304.17 234.722 2303.69 234.266 2303.55C233.816 2303.42 233.336 2303.68 233.2 2304.13L229.907 2315.16L229.073 2317.95L226.846 2325.43L226.662 2326.04C226.526 2326.49 226.787 2326.97 227.237 2327.11V2327.11Z" fill="#030303"/>
<path d="M221.304 2295.86L229.067 2317.96L229.156 2318.21C229.28 2318.57 229.612 2318.79 229.967 2318.79C230.062 2318.79 230.156 2318.77 230.251 2318.73C230.695 2318.58 230.932 2318.09 230.778 2317.64L229.902 2315.16L222.92 2295.29C222.766 2294.84 222.275 2294.61 221.831 2294.76C221.381 2294.92 221.15 2295.41 221.304 2295.86Z" fill="#030303"/>
<path d="M200.489 2296.57L202.034 2306.19L202.39 2308.4L203.686 2316.49C203.686 2316.52 203.692 2316.55 203.698 2316.58L205.119 2325.43L205.279 2326.42C205.35 2326.84 205.712 2327.14 206.126 2327.14C206.174 2327.14 206.215 2327.14 206.262 2327.13C206.73 2327.06 207.05 2326.61 206.973 2326.15L206.855 2325.42L205.457 2316.71L205.125 2314.65L202.182 2296.29C202.105 2295.83 201.667 2295.51 201.199 2295.58C200.731 2295.66 200.412 2296.1 200.489 2296.57V2296.57Z" fill="#030303"/>
<path d="M203.686 2316.49C203.686 2316.52 203.692 2316.55 203.698 2316.58C203.728 2316.74 203.805 2316.89 203.923 2317.01C204.089 2317.19 204.314 2317.28 204.539 2317.28C204.752 2317.28 204.965 2317.2 205.131 2317.03L205.457 2316.72L212.202 2310.25C212.545 2309.92 212.557 2309.38 212.225 2309.04C211.9 2308.7 211.355 2308.68 211.017 2309.01L205.131 2314.66L203.947 2315.8C203.751 2315.99 203.663 2316.25 203.686 2316.49Z" fill="#030303"/>
<path d="M188.995 2300.45L202.389 2308.4L202.733 2308.61C202.869 2308.69 203.023 2308.73 203.171 2308.73C203.467 2308.73 203.751 2308.58 203.905 2308.31C204.148 2307.9 204.018 2307.37 203.609 2307.13L202.034 2306.19L189.871 2298.97C189.468 2298.73 188.941 2298.86 188.698 2299.27C188.456 2299.68 188.586 2300.2 188.995 2300.45Z" fill="#030303"/>
<path d="M235.682 2313.72C237.754 2310.77 241.509 2309.56 243.167 2309.15C242.059 2306.98 239.282 2300.51 242.734 2295.96C244.576 2293.53 246.826 2292.16 249.42 2291.91C253.162 2291.54 256.609 2293.57 258.267 2294.76C258.356 2293.38 258.806 2291.12 260.576 2288.94C263.33 2285.54 268.186 2283.57 275.025 2283.09C281.699 2282.63 286.46 2283.9 289.178 2286.88C291.079 2288.97 291.487 2291.37 291.535 2292.85C293.69 2291.49 299.156 2289.44 309.969 2293.08C313.717 2294.34 316.098 2296.47 317.045 2299.43C318.668 2304.47 315.66 2310.48 313.996 2313.25C315.162 2312.96 316.761 2312.81 318.307 2313.44C320.083 2314.17 321.374 2315.76 322.144 2318.16C323.328 2321.85 322.031 2324.88 318.496 2326.67C316.968 2327.45 315.198 2327.86 313.38 2327.86H247.738C244.813 2327.86 241.965 2327.17 239.495 2325.89C236.558 2324.36 234.853 2322.4 234.432 2320.08C233.994 2317.66 234.42 2315.52 235.688 2313.72H235.682ZM235.628 2319.86C235.978 2321.8 237.47 2323.46 240.058 2324.8C242.355 2326 245.014 2326.64 247.738 2326.64H313.38C315.014 2326.64 316.589 2326.27 317.945 2325.58C320.971 2324.05 321.996 2321.68 320.983 2318.53C320.326 2316.49 319.272 2315.15 317.851 2314.57C317.229 2314.31 316.584 2314.21 315.974 2314.21C314.262 2314.21 312.811 2314.95 312.788 2314.97C312.539 2315.1 312.231 2315.04 312.048 2314.82C311.864 2314.61 311.852 2314.3 312.012 2314.06C312.071 2313.98 317.839 2305.85 315.885 2299.78C315.062 2297.22 312.936 2295.35 309.578 2294.21C295.976 2289.64 291.363 2294.49 291.322 2294.54C291.144 2294.74 290.848 2294.8 290.605 2294.69C290.362 2294.57 290.22 2294.31 290.262 2294.04C290.268 2294.01 290.801 2290.45 288.26 2287.67C285.809 2284.99 281.379 2283.85 275.108 2284.3C268.642 2284.75 264.076 2286.56 261.547 2289.67C259.102 2292.67 259.499 2295.89 259.499 2295.93C259.534 2296.17 259.41 2296.42 259.185 2296.55C258.96 2296.67 258.681 2296.64 258.492 2296.46C258.45 2296.42 254.139 2292.65 249.544 2293.11C247.306 2293.33 245.34 2294.53 243.711 2296.68C240.087 2301.46 244.576 2309.18 244.617 2309.26C244.718 2309.43 244.73 2309.65 244.647 2309.83C244.564 2310.01 244.392 2310.14 244.191 2310.17C244.138 2310.18 239.039 2311.06 236.671 2314.42C235.599 2315.94 235.243 2317.77 235.622 2319.86H235.628Z" fill="#030303"/>
<path d="M235.628 2319.86C235.977 2321.8 237.47 2323.46 240.057 2324.8C242.355 2326 245.014 2326.64 247.738 2326.64H261.814L259.806 2320.89L253.186 2319.19C252.86 2319.11 252.665 2318.77 252.748 2318.45C252.831 2318.12 253.162 2317.93 253.488 2318.01L259.321 2319.51L256.988 2312.83C256.946 2312.7 256.94 2312.57 256.982 2312.44L258.663 2307.04C258.764 2306.72 259.102 2306.54 259.427 2306.64C259.747 2306.74 259.925 2307.08 259.824 2307.41L258.201 2312.62L263.093 2326.64H275.741C275.747 2326.6 275.759 2326.56 275.777 2326.52L278.004 2320.95L273.059 2309.31L265.402 2305.98C265.094 2305.85 264.952 2305.49 265.088 2305.18C265.225 2304.88 265.586 2304.73 265.888 2304.87L272.372 2307.69L269.127 2300.05C268.997 2299.75 269.139 2299.38 269.447 2299.25C269.755 2299.12 270.116 2299.27 270.246 2299.57L274.078 2308.6L278.643 2319.35L283.931 2306.12L283.44 2297.54C283.422 2297.21 283.676 2296.92 284.014 2296.9C284.352 2296.88 284.636 2297.14 284.66 2297.48L285.157 2306.19C285.157 2306.27 285.151 2306.36 285.116 2306.45L277.038 2326.64H294.59L296.977 2320.16L290.09 2316.17C289.799 2316.01 289.699 2315.63 289.865 2315.34C290.03 2315.05 290.404 2314.95 290.7 2315.12L297.403 2319L300.151 2311.53L295.674 2300.03C295.549 2299.72 295.703 2299.36 296.017 2299.24C296.331 2299.12 296.686 2299.28 296.805 2299.59L300.784 2309.81L302.981 2303.83C303.094 2303.51 303.449 2303.35 303.763 2303.47C304.077 2303.58 304.242 2303.93 304.124 2304.25L301.376 2311.7L298.309 2320.04C298.309 2320.04 298.291 2320.1 298.279 2320.12L295.881 2326.64H313.356C314.99 2326.64 316.565 2326.27 317.922 2325.59C320.947 2324.05 321.972 2321.68 320.959 2318.54C320.302 2316.49 319.248 2315.16 317.827 2314.57C317.205 2314.31 316.56 2314.22 315.95 2314.22C314.238 2314.22 312.787 2314.96 312.764 2314.97C312.515 2315.1 312.207 2315.04 312.024 2314.83C311.84 2314.62 311.828 2314.3 311.988 2314.07C312.047 2313.99 317.815 2305.86 315.861 2299.79C315.038 2297.22 312.912 2295.35 309.554 2294.22C295.952 2289.65 291.339 2294.5 291.298 2294.55C291.12 2294.75 290.824 2294.81 290.581 2294.69C290.338 2294.58 290.196 2294.31 290.238 2294.05C290.244 2294.01 290.777 2290.46 288.236 2287.68C285.785 2285 281.355 2283.86 275.084 2284.3C268.618 2284.76 264.052 2286.57 261.524 2289.68C259.078 2292.68 259.475 2295.9 259.475 2295.93C259.51 2296.18 259.386 2296.43 259.161 2296.55C258.936 2296.67 258.657 2296.64 258.468 2296.47C258.427 2296.43 254.116 2292.66 249.52 2293.12C247.282 2293.34 245.316 2294.54 243.687 2296.69C240.063 2301.46 244.552 2309.18 244.593 2309.27C244.694 2309.44 244.706 2309.65 244.623 2309.83C244.54 2310.02 244.368 2310.15 244.167 2310.18C244.114 2310.19 239.015 2311.07 236.647 2314.43C235.575 2315.95 235.22 2317.78 235.599 2319.86L235.628 2319.86Z" fill="#CE6326"/>
<path d="M294.821 2327.82C294.893 2327.85 294.964 2327.86 295.035 2327.86C295.283 2327.86 295.514 2327.71 295.603 2327.46L295.905 2326.65L298.303 2320.12C298.303 2320.12 298.321 2320.07 298.333 2320.05L301.401 2311.71L304.148 2304.25C304.261 2303.94 304.101 2303.59 303.787 2303.47C303.473 2303.35 303.124 2303.51 303.005 2303.83L300.808 2309.81L300.175 2311.54L297.427 2319L297.001 2320.16L294.614 2326.64L294.466 2327.04C294.348 2327.35 294.514 2327.7 294.827 2327.82H294.821Z" fill="#030303"/>
<path d="M295.686 2300.03L300.162 2311.54L300.245 2311.75C300.34 2311.99 300.571 2312.14 300.814 2312.14C300.885 2312.14 300.962 2312.13 301.033 2312.1C301.211 2312.03 301.341 2311.88 301.394 2311.71C301.436 2311.58 301.43 2311.44 301.382 2311.31L300.802 2309.81L296.823 2299.59C296.698 2299.28 296.349 2299.13 296.035 2299.25C295.721 2299.37 295.567 2299.72 295.692 2300.04L295.686 2300.03Z" fill="#030303"/>
<path d="M290.102 2316.17L296.989 2320.16L297.433 2320.42C297.528 2320.47 297.634 2320.5 297.735 2320.5C297.942 2320.5 298.149 2320.39 298.262 2320.2C298.274 2320.17 298.292 2320.15 298.298 2320.13C298.303 2320.1 298.315 2320.07 298.327 2320.05C298.398 2319.79 298.286 2319.51 298.043 2319.37L297.415 2319.01L290.712 2315.13C290.422 2314.96 290.049 2315.06 289.877 2315.35C289.711 2315.64 289.806 2316.01 290.102 2316.18V2316.17Z" fill="#030303"/>
<path d="M276.127 2327.32C276.198 2327.35 276.275 2327.36 276.352 2327.36C276.594 2327.36 276.819 2327.22 276.914 2326.97L277.05 2326.64L285.127 2306.44C285.163 2306.36 285.175 2306.27 285.169 2306.18L284.672 2297.47C284.654 2297.13 284.364 2296.88 284.026 2296.9C283.689 2296.92 283.434 2297.21 283.452 2297.54L283.943 2306.12L278.655 2319.34L278.01 2320.95L275.783 2326.52C275.771 2326.56 275.753 2326.59 275.748 2326.64C275.694 2326.91 275.848 2327.2 276.121 2327.31L276.127 2327.32Z" fill="#030303"/>
<path d="M269.139 2300.05L272.384 2307.68L273.077 2309.31L278.021 2320.95L278.057 2321.04C278.158 2321.27 278.383 2321.41 278.62 2321.41C278.702 2321.41 278.779 2321.39 278.856 2321.36C279.164 2321.23 279.312 2320.87 279.176 2320.56L278.661 2319.35L274.095 2308.6L270.264 2299.57C270.134 2299.27 269.773 2299.12 269.465 2299.25C269.157 2299.39 269.009 2299.75 269.145 2300.05L269.139 2300.05Z" fill="#030303"/>
<path d="M265.415 2305.98L273.071 2309.31L273.296 2309.41C273.373 2309.44 273.456 2309.46 273.539 2309.46C273.776 2309.46 274.001 2309.33 274.096 2309.09C274.167 2308.93 274.161 2308.75 274.096 2308.6C274.037 2308.46 273.93 2308.35 273.788 2308.29L272.385 2307.68L265.9 2304.86C265.592 2304.72 265.231 2304.86 265.101 2305.17C264.965 2305.48 265.107 2305.84 265.415 2305.97V2305.98Z" fill="#030303"/>
<path d="M256.994 2312.83L259.327 2319.51L259.807 2320.89L261.814 2326.64L262.098 2327.45C262.187 2327.7 262.418 2327.86 262.673 2327.86C262.738 2327.86 262.809 2327.85 262.874 2327.83C263.188 2327.71 263.36 2327.37 263.247 2327.05L263.105 2326.64L258.214 2312.62L259.836 2307.41C259.937 2307.09 259.753 2306.74 259.439 2306.64C259.12 2306.54 258.776 2306.72 258.676 2307.04L256.994 2312.44C256.952 2312.57 256.958 2312.7 257 2312.83H256.994Z" fill="#030303"/>
<path d="M253.192 2319.19L259.812 2320.89L259.972 2320.93C260.025 2320.94 260.073 2320.95 260.126 2320.95C260.398 2320.95 260.647 2320.76 260.718 2320.49C260.801 2320.17 260.606 2319.83 260.28 2319.75L259.333 2319.51L253.5 2318.01C253.174 2317.93 252.842 2318.12 252.76 2318.45C252.677 2318.77 252.872 2319.11 253.198 2319.19H253.192Z" fill="#030303"/>
<path d="M366.633 2314.47C366.972 2310.71 368.389 2308.07 370.84 2306.62C374.753 2304.29 380.141 2305.7 382.507 2306.5C382.382 2304.44 382.463 2300.32 384.686 2297.54C386.001 2295.9 387.85 2294.99 390.181 2294.84C396.558 2294.41 400.427 2298.07 402.156 2300.27C403.644 2295.31 408.506 2293.82 409.215 2293.63C409.861 2293.35 414.206 2291.71 420.779 2295.2C426.02 2297.99 425.958 2305.67 425.584 2309.38C426.871 2308.49 428.266 2308.06 429.724 2308.09C433.632 2308.16 436.622 2311.52 436.76 2311.68C440.985 2316.72 439.826 2322.4 436.591 2325.18C433.209 2328.09 427.166 2328.22 427.103 2328.22C409.282 2328.36 395.235 2328.39 386.897 2328.39C381.594 2328.39 378.599 2328.38 378.412 2328.38C378.068 2328.39 372.89 2328.39 369.454 2324.71C367.186 2322.27 366.237 2318.83 366.629 2314.48L366.633 2314.47ZM370.568 2323.65C373.563 2326.88 378.34 2326.84 378.394 2326.84C378.398 2326.84 378.403 2326.84 378.407 2326.84C378.51 2326.84 384.218 2326.87 394.125 2326.85C394.673 2326.85 395.235 2326.85 395.805 2326.85C398.635 2326.84 401.773 2326.83 405.191 2326.82C405.734 2326.82 406.282 2326.82 406.84 2326.81C409.745 2326.8 412.834 2326.78 416.1 2326.77C416.604 2326.77 417.116 2326.76 417.633 2326.76C420.65 2326.74 423.805 2326.71 427.09 2326.69C427.143 2326.69 432.669 2326.54 435.588 2324.02C438.267 2321.71 439.176 2316.95 435.588 2312.68C435.562 2312.64 432.906 2309.67 429.679 2309.62C429.648 2309.62 429.617 2309.62 429.585 2309.62C427.986 2309.62 426.47 2310.36 425.093 2311.81C424.857 2312.06 424.492 2312.12 424.189 2311.97C423.886 2311.81 423.725 2311.47 423.788 2311.14C423.81 2311.03 425.931 2299.69 420.049 2296.56C413.796 2293.24 409.83 2295.03 409.794 2295.04C409.741 2295.07 409.687 2295.09 409.634 2295.1C409.402 2295.15 403.912 2296.51 403.301 2302.29C403.265 2302.62 403.011 2302.9 402.682 2302.96C402.347 2303.02 402.013 2302.86 401.857 2302.56C401.822 2302.49 398.288 2295.83 390.275 2296.37C388.39 2296.49 386.91 2297.21 385.872 2298.5C383.287 2301.72 384.125 2307.48 384.134 2307.54C384.178 2307.81 384.062 2308.09 383.844 2308.26C383.621 2308.43 383.327 2308.47 383.073 2308.35C383.002 2308.32 375.965 2305.34 371.607 2307.93C369.601 2309.12 368.438 2311.37 368.144 2314.61C367.792 2318.5 368.603 2321.54 370.555 2323.65L370.568 2323.65Z" fill="#030303"/>
<path d="M370.568 2323.65C373.563 2326.88 378.34 2326.84 378.394 2326.84C378.398 2326.84 378.403 2326.84 378.407 2326.84C378.51 2326.84 384.218 2326.87 394.125 2326.85L389.121 2317.16L384.464 2315.39C384.067 2315.23 383.871 2314.79 384.022 2314.4C384.174 2314 384.615 2313.8 385.007 2313.95L389.134 2315.52L391.269 2307.05C391.371 2306.64 391.785 2306.39 392.195 2306.49C392.605 2306.6 392.855 2307.02 392.748 2307.43L390.475 2316.46L395.73 2326.63C395.765 2326.7 395.792 2326.78 395.801 2326.85C398.631 2326.84 401.768 2326.83 405.186 2326.82L399.05 2312.79C398.88 2312.4 399.054 2311.95 399.442 2311.78C399.829 2311.61 400.28 2311.78 400.453 2312.18L401.92 2315.52L404.268 2311.84C404.495 2311.48 404.968 2311.38 405.324 2311.6C405.681 2311.83 405.788 2312.3 405.556 2312.66L402.664 2317.2C402.664 2317.2 402.659 2317.21 402.655 2317.21L404.763 2322.03L406.006 2319.15C406.175 2318.76 406.626 2318.58 407.013 2318.75C407.401 2318.92 407.579 2319.37 407.41 2319.76L405.614 2323.92C405.614 2323.92 405.605 2323.93 405.601 2323.94L406.79 2326.65C406.813 2326.71 406.831 2326.76 406.84 2326.82C409.745 2326.8 412.833 2326.79 416.1 2326.77C416.1 2326.26 416.162 2325.43 416.256 2324.05C416.363 2322.47 416.528 2320.26 416.751 2317.51C416.791 2316.99 416.835 2316.47 416.875 2315.96C416.813 2315.92 416.751 2315.87 416.697 2315.81L408.564 2306.5C408.283 2306.18 408.319 2305.7 408.635 2305.41C408.952 2305.13 409.438 2305.17 409.718 2305.49L417.04 2313.87C417.303 2310.65 417.526 2308.07 417.526 2308.03C417.562 2307.61 417.932 2307.3 418.355 2307.33C418.774 2307.37 419.086 2307.74 419.055 2308.16C418.752 2311.74 418.382 2316.26 418.092 2319.99L421.675 2317.41C422.018 2317.16 422.495 2317.24 422.745 2317.58C422.99 2317.93 422.914 2318.4 422.571 2318.65L418.11 2321.87C418.056 2321.91 417.999 2321.94 417.941 2321.95C417.767 2324.28 417.646 2326.08 417.633 2326.75C420.65 2326.74 423.805 2326.71 427.09 2326.69C427.143 2326.69 432.669 2326.53 435.588 2324.01C438.267 2321.71 439.176 2316.95 435.588 2312.67C435.562 2312.64 432.905 2309.67 429.679 2309.62C429.648 2309.62 429.617 2309.62 429.585 2309.62C427.986 2309.62 426.47 2310.36 425.093 2311.81C424.857 2312.05 424.492 2312.12 424.189 2311.96C423.886 2311.81 423.725 2311.47 423.787 2311.13C423.81 2311.02 425.931 2299.68 420.049 2296.55C413.796 2293.23 409.83 2295.02 409.794 2295.04C409.741 2295.06 409.687 2295.08 409.634 2295.1C409.402 2295.15 403.912 2296.5 403.301 2302.28C403.265 2302.62 403.011 2302.89 402.682 2302.95C402.347 2303.02 402.013 2302.85 401.857 2302.55C401.822 2302.48 398.288 2295.83 390.275 2296.36C388.39 2296.49 386.91 2297.21 385.872 2298.49C383.287 2301.71 384.125 2307.48 384.134 2307.53C384.178 2307.81 384.062 2308.09 383.844 2308.26C383.621 2308.42 383.327 2308.46 383.073 2308.35C383.002 2308.32 375.965 2305.33 371.607 2307.92C369.601 2309.12 368.438 2311.36 368.144 2314.6C367.792 2318.5 368.603 2321.54 370.555 2323.64L370.568 2323.65Z" fill="#CE6326"/>
<path d="M388.987 2316.9L389.121 2317.16L394.125 2326.85L394.375 2327.33C394.508 2327.6 394.776 2327.75 395.057 2327.75C395.172 2327.75 395.297 2327.72 395.404 2327.66C395.712 2327.51 395.868 2327.17 395.805 2326.84C395.796 2326.77 395.77 2326.7 395.734 2326.63L390.48 2316.45L392.753 2307.42C392.855 2307.01 392.61 2306.59 392.2 2306.49C391.79 2306.39 391.371 2306.64 391.273 2307.04L389.138 2315.52L388.929 2316.36C388.884 2316.54 388.907 2316.73 388.991 2316.9L388.987 2316.9Z" fill="#030303"/>
<path d="M384.468 2315.39L389.125 2317.16L389.397 2317.26C389.486 2317.3 389.58 2317.31 389.669 2317.31C389.976 2317.31 390.271 2317.13 390.386 2316.82C390.538 2316.42 390.337 2315.98 389.941 2315.83L389.139 2315.52L385.012 2313.95C384.615 2313.8 384.174 2314 384.027 2314.39C383.876 2314.79 384.072 2315.23 384.468 2315.38V2315.39Z" fill="#030303"/>
<path d="M416.256 2324.04C416.363 2322.46 416.528 2320.26 416.751 2317.5C416.791 2316.98 416.836 2316.47 416.876 2315.95C416.934 2315.24 416.992 2314.54 417.045 2313.87C417.308 2310.65 417.531 2308.07 417.531 2308.03C417.566 2307.61 417.936 2307.3 418.36 2307.33C418.779 2307.37 419.091 2307.74 419.059 2308.16C418.756 2311.74 418.386 2316.26 418.097 2319.99C418.043 2320.68 417.994 2321.34 417.945 2321.96C417.771 2324.28 417.651 2326.08 417.638 2326.75C417.638 2326.84 417.638 2326.91 417.638 2326.95C417.673 2327.14 417.647 2327.34 417.544 2327.51C417.402 2327.75 417.148 2327.88 416.885 2327.88C416.751 2327.88 416.617 2327.85 416.492 2327.77C416.212 2327.6 416.096 2327.53 416.105 2326.76C416.105 2326.25 416.167 2325.42 416.261 2324.04H416.256Z" fill="#030303"/>
<path d="M408.564 2306.49L416.697 2315.8C416.751 2315.86 416.809 2315.91 416.875 2315.95C416.996 2316.02 417.134 2316.06 417.277 2316.06C417.455 2316.06 417.633 2316 417.78 2315.88C418.097 2315.6 418.132 2315.11 417.851 2314.79L417.045 2313.87L409.723 2305.48C409.442 2305.17 408.961 2305.13 408.64 2305.41C408.319 2305.69 408.288 2306.17 408.569 2306.49L408.564 2306.49Z" fill="#030303"/>
<path d="M417.04 2321.69C417.192 2321.9 417.428 2322.01 417.664 2322.01C417.758 2322.01 417.851 2322 417.941 2321.96C417.998 2321.94 418.056 2321.91 418.11 2321.87L422.571 2318.66C422.914 2318.41 422.99 2317.93 422.745 2317.59C422.495 2317.24 422.018 2317.16 421.675 2317.41L418.092 2319.99L417.214 2320.62C416.871 2320.87 416.795 2321.35 417.04 2321.69Z" fill="#030303"/>
<path d="M399.054 2312.79L405.191 2326.82L405.387 2327.27C405.512 2327.56 405.792 2327.73 406.086 2327.73C406.189 2327.73 406.291 2327.7 406.394 2327.66C406.728 2327.51 406.906 2327.16 406.84 2326.81C406.831 2326.76 406.813 2326.7 406.791 2326.65L405.601 2323.94L404.763 2322.02L402.655 2317.21L401.915 2315.52L400.449 2312.18C400.28 2311.79 399.825 2311.61 399.437 2311.78C399.05 2311.95 398.876 2312.4 399.045 2312.79H399.054Z" fill="#030303"/>
<path d="M401.612 2317.43C401.737 2317.51 401.879 2317.55 402.022 2317.55C402.267 2317.55 402.512 2317.43 402.659 2317.21C402.659 2317.21 402.664 2317.2 402.668 2317.2L405.56 2312.66C405.792 2312.3 405.685 2311.83 405.329 2311.6C404.972 2311.37 404.5 2311.48 404.272 2311.83L401.924 2315.52L401.38 2316.37C401.153 2316.73 401.255 2317.2 401.616 2317.43H401.612Z" fill="#030303"/>
<path d="M404.616 2324.31C404.714 2324.35 404.816 2324.37 404.919 2324.37C405.204 2324.37 405.476 2324.21 405.605 2323.93C405.61 2323.92 405.619 2323.91 405.619 2323.9L407.414 2319.74C407.584 2319.36 407.406 2318.9 407.018 2318.74C406.63 2318.57 406.18 2318.75 406.011 2319.13L404.767 2322.01L404.215 2323.29C404.045 2323.68 404.228 2324.13 404.616 2324.3V2324.31Z" fill="#030303"/>
<path d="M2 0V2252.5C2 2293.92 35.5786 2327.5 77 2327.5H1510" stroke="#030303" stroke-width="3"/>
</g>
</svg>
