<?xml version="1.0" encoding="UTF-8"?>
<svg id="Ebene_1" xmlns="http://www.w3.org/2000/svg" viewBox="0 0 288 288">
  <defs>
    <style>
      .cls-1 {
        fill: #e0ad49;
      }

      .cls-2 {
        fill: #8cdba4;
      }

      .cls-3 {
        fill: #030303;
      }

      .cls-4 {
        fill: #ce6326;
      }
    </style>
  </defs>
  <g id="Logo_x5F_new">
    <g>
      <path class="cls-2" d="M57.15,180.55v48.77c-1.16-1.2-2.3-2.43-3.42-3.71v-45.06h3.42Z"/>
      <path class="cls-2" d="M63.05,235c-1.57-1.4-3.12-2.86-4.64-4.4-.38-.38-.76-.76-1.13-1.15l1.16,1.12,4.61,4.43Z"/>
      <path class="cls-2" d="M125.74,180.55v77.59c-23.15-3.93-44.48-14.84-61.49-31.7v-45.89h61.49Z"/>
    </g>
    <path class="cls-1" d="M234.26,217.86c-1.09,1.31-2.2,2.6-3.35,3.86v9.8s-7.09,0-7.09,0v-2.61c-16.09,14.97-36.46,25.41-59.04,29.24v-112.96h69.48v72.67Z"/>
    <path class="cls-4" d="M182.46,85.3v50.04h-10.51s-17.38-.03-17.38-.03l.03,124.12v1.74s-.1.03-.38.09v-1.8c-2.93.23-5.88.34-8.86.34s-6.08-.12-9.09-.36c-.05,0-.09,0-.14-.01v-89l-31.5-.14v-84.99h77.83Z"/>
    <path class="cls-3" d="M64.25,236.17c-4.13-3.48-6.48-6.13-6.99-6.72h.01l1.16,1.12,4.61,4.43,1.11,1.07.1.1Z"/>
    <g>
      <path class="cls-3" d="M64.25,236.07v.09s-.07-.05-.1-.09c-1.97-1.74-3.9-3.56-5.77-5.45l.05-.05,4.61,4.43c.4.37.8.72,1.21,1.07Z"/>
      <path class="cls-3" d="M154.61,259.43v1.74s-.1.03-.38.09v-1.8c.13-.01.25-.02.38-.03Z"/>
      <path class="cls-3" d="M230.93,231.52h-7.1v-2.61c2.47-2.28,4.84-4.69,7.09-7.19v9.8Z"/>
    </g>
    <g>
      <path d="M64.25,236.07v.1l-.1-.1-1.11-1.07c.4.37.8.72,1.21,1.07Z"/>
      <path class="cls-3" d="M230.93,231.52v.42c-22.08,21.61-52.29,34.95-85.56,34.95-30.22,0-58.72-10.85-81.11-30.72v-.1c-.41-.35-.81-.7-1.21-1.07l-4.61-4.43-1.16-1.12h-.01l-.08-.09-.03-.03v-48.78h7.1v45.89c17.01,16.86,38.34,27.77,61.49,31.7,1.14.2,2.28.38,3.43.53,2.3.33,4.62.58,6.96.76.05.01.09.02.14.01,3.01.24,6.04.36,9.09.36s5.93-.11,8.86-.34v1.8c.28-.06.38-.09.38-.09v-1.74c2.26-.18,4.49-.42,6.71-.74,1.16-.15,2.32-.33,3.47-.54,22.58-3.83,42.95-14.27,59.04-29.24v2.61h7.1Z"/>
      <path d="M136.27,170.05v89.39s-.09,0-.14-.01c-2.34-.18-4.66-.43-6.96-.76v-81.52h-64.92v3.4h-7.1v-10.5h79.12Z"/>
    </g>
    <path class="cls-3" d="M230.93,231.52v.42h-7.1v-3.03l-.05-83.72v-3.41h-62.41l-.05,116.91c-2.22.32-4.45.56-6.71.74v1.74s-.1.03-.38.09v-1.8l.05-124.78h76.59v10.51s.05,76.53.05,76.53v9.8Z"/>
    <polygon class="cls-3" points="94.14 174.35 94.13 74.8 179.06 74.8 179.06 138.64 171.96 138.64 171.96 81.9 101.23 81.9 101.23 174.35 94.14 174.35"/>
    <g id="Fenster">
      <rect class="cls-3" x="191.91" y="157.93" width="11.18" height="10.6" transform="translate(395 326.46) rotate(-180)"/>
      <rect class="cls-3" x="177.21" y="171.87" width="11.18" height="10.6" transform="translate(365.61 354.34) rotate(-180)"/>
      <rect class="cls-3" x="117.78" y="103.5" width="13.76" height="13.05" transform="translate(249.31 220.06) rotate(-180)"/>
      <rect class="cls-3" x="98.54" y="191.61" width="12.62" height="11.97" transform="translate(209.7 395.18) rotate(-180)"/>
      <rect class="cls-3" x="79.74" y="191.61" width="12.62" height="11.97" transform="translate(172.1 395.18) rotate(-180)"/>
      <rect class="cls-3" x="177.21" y="157.93" width="11.18" height="10.6" transform="translate(365.61 326.46) rotate(-180)"/>
      <rect class="cls-3" x="191.91" y="171.87" width="11.18" height="10.6" transform="translate(395 354.34) rotate(-180)"/>
      <rect class="cls-3" x="117.86" y="128.02" width="13.76" height="13.05" transform="translate(249.48 269.09) rotate(-180)"/>
    </g>
  </g>
</svg>