<?xml version="1.0" encoding="UTF-8"?>
<svg id="Ebene_1" xmlns="http://www.w3.org/2000/svg" viewBox="0 0 288 288">
  <defs>
    <style>
      .cls-1 {
        fill: #8cdba4;
      }

      .cls-2 {
        fill: #030303;
      }
    </style>
  </defs>
  <g id="Logo_x5F_new">
    <path class="cls-1" d="M61.67,234.46c-1.54-1.38-3.07-2.82-4.56-4.33-.36-.36-.72-.72-1.07-1.09l1.1,1.06,4.53,4.36Z"/>
    <path class="cls-2" d="M62.8,235.55c-4.03-3.41-6.33-5.99-6.83-6.57h.01l.06.06,1.1,1.06,4.53,4.36.08.07.06.06.99.96Z"/>
    <path class="cls-2" d="M62.96,235.7s-.09-.08-.13-.12l.03.02.1.1Z"/>
    <g>
      <path class="cls-2" d="M62.96,235.6v.09s-.07-.05-.1-.09l-.03-.02-.03-.03c-1.95-1.73-3.86-3.53-5.71-5.4l.05-.05,4.53,4.36.08.07.06.06c.38.34.77.68,1.15,1.01Z"/>
      <polygon class="cls-2" points="25.22 152.31 11.15 136.83 16.4 132.06 25.22 141.77 34.05 132.07 39.3 136.85 25.22 152.31"/>
    </g>
    <path d="M62.96,235.6v.1l-.1-.1-.03-.02-.03-.03-.99-.96c.38.34.77.68,1.15,1.01Z"/>
    <path class="cls-2" d="M266.49,144c0,67.51-54.92,122.42-122.42,122.42-30.22,0-58.72-10.85-81.11-30.72v-.1c-.38-.33-.77-.67-1.15-1.01l-.06-.06-.08-.07-4.53-4.36,4.99-4.95c.28.28.55.55.83.82,17.01,16.86,38.34,27.77,61.49,31.7,1.14.2,2.28.38,3.43.53,2.3.33,4.62.58,6.96.76.05.01.09.02.14.01,3.01.24,6.04.36,9.09.36s5.93-.11,8.86-.34c.13-.01.25-.02.38-.03,2.26-.18,4.49-.42,6.71-.74,1.16-.15,2.32-.33,3.47-.54,22.58-3.83,42.95-14.27,59.04-29.24,2.47-2.28,4.84-4.69,7.09-7.19,1.15-1.26,2.26-2.55,3.35-3.86,16.5-19.96,26.42-45.54,26.42-73.39,0-63.59-51.73-115.32-115.32-115.32S28.74,80.41,28.74,144l.02,1.69-7.1.1v-1.79c-.01-67.5,54.9-122.42,122.41-122.42s122.42,54.92,122.42,122.42Z"/>
  </g>
</svg>