<svg width="1536" height="381" viewBox="0 0 1536 381" fill="none" xmlns="http://www.w3.org/2000/svg">
<g opacity="0.7">
<path d="M513.167 133.36C478.329 133.36 450 105.025 450 70.1801C450 35.3353 478.329 7 513.167 7C548.004 7 576.333 35.3353 576.333 70.1801C576.333 105.025 548.004 133.36 513.167 133.36ZM513.167 9.52083C479.701 9.52083 452.52 36.7393 452.52 70.1801C452.52 103.621 479.733 130.839 513.167 130.839C546.6 130.839 573.813 103.621 573.813 70.1801C573.813 36.7393 546.6 9.52083 513.167 9.52083Z" fill="#030303"/>
<path d="M513.168 72.7694C512.88 72.7694 512.593 72.6736 512.37 72.4822L486.784 50.752C486.274 50.3053 486.178 49.5076 486.625 48.997C487.071 48.4546 487.869 48.4227 488.379 48.8375L513.965 70.5676C514.476 71.0143 514.571 71.8121 514.125 72.3226C513.869 72.6098 513.518 72.7694 513.168 72.7694Z" fill="#030303"/>
<path d="M513.198 93.6963C512.911 93.6963 512.624 93.6006 512.4 93.4091C511.858 92.9624 511.794 92.1646 512.241 91.6541L541.081 57.3518C541.527 56.8412 542.325 56.7774 542.835 57.1922C543.378 57.6389 543.441 58.4367 542.995 58.9472L514.155 93.2496C513.9 93.5367 513.549 93.6963 513.198 93.6963Z" fill="#030303"/>
<path d="M512.625 107.514C512.37 107.514 512.115 107.45 511.891 107.259L493.165 93.3144C492.622 92.8996 492.495 92.1019 492.909 91.5594C493.324 91.017 494.122 90.8893 494.664 91.3042L513.391 105.248C513.933 105.663 514.061 106.461 513.646 107.003C513.391 107.323 513.04 107.514 512.657 107.514H512.625Z" fill="#030303"/>
<path d="M511.922 380.528V34.2503C511.922 33.5483 512.464 33.0059 513.134 33.0059C513.804 33.0059 514.379 33.5483 514.379 34.2503V380.465" fill="#030303"/>
<path d="M283.264 122.992C283.264 123.279 283.169 123.566 282.977 123.79C282.722 124.077 282.371 124.236 282.02 124.236C281.733 124.236 281.446 124.141 281.191 123.917L280.776 123.566L255.605 102.187C255.094 101.74 254.999 100.943 255.445 100.432C255.924 99.8896 256.69 99.8257 257.232 100.272L280.776 120.311L282.818 122.034C283.105 122.29 283.264 122.641 283.264 122.992Z" fill="#030303"/>
<path d="M311.849 110.423L283.264 144.406L283.009 144.725C282.786 145.012 282.403 145.172 282.052 145.172C281.765 145.172 281.478 145.076 281.255 144.884C280.744 144.438 280.648 143.64 281.095 143.129L283.264 140.545L309.967 108.827C310.413 108.285 311.211 108.253 311.721 108.668C312.232 109.114 312.296 109.912 311.849 110.423Z" fill="#030303"/>
<path d="M282.497 158.507C282.242 158.826 281.859 158.986 281.476 158.986C281.221 158.986 280.998 158.922 280.775 158.763H280.743L262.016 144.818C261.474 144.404 261.346 143.606 261.761 143.063C262.176 142.521 262.973 142.393 263.516 142.808L280.775 155.667L282.242 156.752C282.785 157.167 282.912 157.933 282.497 158.507Z" fill="#030303"/>
<path d="M283.264 97.3714V380.055C283.264 380.757 282.69 381.299 282.02 381.299C281.318 381.299 280.776 380.757 280.776 380.055V97.3714C280.776 96.7013 281.318 96.127 282.02 96.127C282.722 96.127 283.264 96.7013 283.264 97.3714Z" fill="#030303"/>
<path d="M328.598 130.398C324.801 124.048 320.527 116.677 320.239 105.413C320.08 99.51 321.101 94.8513 321.962 90.7988C323.366 84.3851 324.514 78.8967 321.228 71.1109C318.102 63.5484 312.742 58.9216 310.254 56.6241C301.066 48.6468 290.985 44.7858 280.362 45.0092C277.171 45.073 260.774 46.0622 250.15 59.2087C244.44 66.133 242.781 73.4083 242.302 76.1206C240.356 84.6084 241.919 89.8096 243.578 95.3618C244.727 99.2228 245.843 103.211 246.13 108.7C246.577 119.262 243.004 126.122 239.59 132.664C235.858 139.811 232.38 146.576 234.805 157.074C236.592 164.828 240.165 171.274 245.428 176.188C254.903 184.963 266.899 185.729 277.171 185.729H280.872C281.669 185.729 282.371 185.729 283.169 185.665H283.265C293.314 185.441 308.276 184.484 320.814 173.252C323.876 170.476 331.15 164.062 333.798 153.628C336.414 143.864 332.586 137.322 328.598 130.398ZM331.565 152.99C329.012 162.786 322.153 168.912 319.25 171.561C307.351 182.219 293.027 183.176 283.265 183.303H283.169C282.371 183.399 281.669 183.399 280.872 183.399H280.585C269.547 183.527 256.913 183.591 247.056 174.465C242.143 169.838 238.729 163.839 237.07 156.564C234.805 146.927 237.931 140.8 241.632 133.749C245.078 127.175 248.938 119.836 248.427 108.572C248.204 102.797 246.928 98.4889 245.779 94.7236C244.216 89.2353 242.781 84.5127 244.567 76.5992C245.078 73.9508 246.577 67.186 251.905 60.7085C261.986 48.3596 277.363 47.4343 280.457 47.3704H281.223C290.985 47.3704 300.269 51.0719 308.691 58.411C311.051 60.5489 316.092 64.9843 319.091 72.0362C322.09 79.0881 321.037 84.0341 319.665 90.2883C318.804 94.2131 317.942 98.7123 317.942 104.296V105.509C318.23 117.411 322.6 124.91 326.524 131.611C330.512 138.375 333.862 144.215 331.565 152.99Z" fill="#030303"/>
<path d="M331.565 152.987C329.012 162.783 322.154 168.909 319.25 171.558C307.351 182.215 293.027 183.173 283.265 183.3V144.403L311.849 110.42C312.296 109.909 312.232 109.111 311.721 108.665C311.211 108.25 310.413 108.282 309.967 108.824L283.265 140.542V97.3688C283.265 96.6987 282.69 96.1244 282.02 96.1244C281.319 96.1244 280.776 96.6987 280.776 97.3688V120.312L257.232 100.273C256.69 99.8258 255.924 99.8897 255.446 100.432C254.999 100.943 255.095 101.74 255.605 102.187L280.776 123.566V155.667L263.517 142.807C262.975 142.393 262.177 142.52 261.762 143.063C261.348 143.605 261.475 144.403 262.018 144.818L280.744 158.762H280.776V183.396H280.585C269.547 183.524 256.913 183.587 247.056 174.461C242.143 169.835 238.729 163.836 237.07 156.56C234.805 146.924 237.931 140.797 241.632 133.745C245.078 127.172 248.938 119.833 248.427 108.569C248.204 102.793 246.928 98.4857 245.779 94.7204C244.216 89.232 242.781 84.5094 244.567 76.596C245.078 73.9475 246.577 67.1828 251.905 60.7052C261.986 48.3564 277.363 47.431 280.457 47.3672H281.223C290.985 47.3672 300.269 51.0686 308.691 58.4078C311.052 60.5457 316.092 64.981 319.091 72.033C322.09 79.0849 321.037 84.0308 319.665 90.285C318.804 94.2098 317.942 98.709 317.942 104.293V105.506C318.23 117.408 322.6 124.906 326.524 131.607C330.512 138.372 333.862 144.211 331.565 152.987Z" fill="#CE6326"/>
<path d="M71.1793 95.7646C67.383 89.4147 63.108 82.0756 62.8209 70.8116C62.6933 64.8765 63.6823 60.2497 64.5437 56.1972C65.9793 49.7835 67.0958 44.2951 63.8418 36.5093C60.7154 28.9468 55.3558 24.32 52.8674 22.0225C43.6796 14.0452 33.5984 10.1842 22.975 10.4076C19.7528 10.4714 3.35505 11.4925 -7.26842 24.6072C-12.9789 31.5315 -14.6059 38.8067 -15.1164 41.519C-17.0305 50.0069 -15.4673 55.2081 -13.8403 60.7922C-12.6918 64.6532 -11.5433 68.6418 -11.2562 74.1302C-10.8415 84.6921 -14.3826 91.5207 -17.8281 98.094C-21.5287 105.242 -25.038 112.006 -22.6134 122.504C-20.8269 130.29 -17.2538 136.704 -11.99 141.618C-2.51497 150.393 9.48028 151.191 19.7528 151.191H24.602C24.9529 151.191 25.3995 151.127 25.7505 151.127C35.7997 150.904 50.8576 149.978 63.3952 138.714C66.4578 135.938 73.7315 129.524 76.3794 119.09C79.0273 109.326 75.1671 102.753 71.1793 95.8284V95.7646ZM74.1782 118.388C71.626 128.152 64.767 134.311 61.832 136.927C49.9324 147.617 35.5126 148.542 25.7505 148.702C25.3995 148.766 24.9529 148.766 24.602 148.766H23.1664C12.0963 148.893 -0.505133 148.989 -10.3629 139.863C-15.2759 135.236 -18.7213 129.237 -20.3484 121.962C-22.6134 112.325 -19.487 106.199 -15.7863 99.147C-12.3728 92.5737 -8.5126 85.2346 -9.02304 73.9706C-9.24636 68.1951 -10.5225 63.9193 -11.6709 60.1221C-13.2341 54.6337 -14.6698 49.9111 -12.8832 41.9977C-12.3728 39.3492 -10.8734 32.5845 -5.54569 26.075C4.50353 13.7262 19.9123 12.8008 22.975 12.737H23.7725C33.5346 12.737 42.8182 16.4384 51.2404 23.7775C53.6012 25.9154 58.6417 30.3508 61.6406 37.4027C64.6394 44.4547 63.5547 49.4006 62.2148 55.6548C61.3534 59.5796 60.4921 64.0788 60.4921 69.631V70.8435C60.7792 82.7457 65.1179 90.2443 69.0419 96.9452C73.0297 103.71 76.3794 109.581 74.1143 118.356L74.1782 118.388Z" fill="#030303"/>
<path d="M74.1779 118.391C71.6257 128.156 64.7667 134.314 61.8317 136.931C49.9322 147.62 35.5123 148.546 25.7502 148.705C25.3993 148.769 24.9527 148.769 24.6017 148.769H23.1661C12.096 148.897 -0.505363 148.992 -10.3632 139.866C-15.2761 135.239 -18.7216 129.241 -20.3486 121.965C-22.6137 112.329 -19.4872 106.202 -15.7866 99.1502C-12.373 92.577 -8.51283 85.2378 -9.02327 73.9739C-9.24659 68.1984 -10.5227 63.9225 -11.6712 60.1253C-13.2344 54.637 -14.67 49.9144 -12.8835 42.0009C-12.373 39.3525 -10.8736 32.5877 -5.54592 26.0783C4.5033 13.7294 19.9121 12.8041 22.9747 12.7402H23.7723C33.5344 12.7402 42.818 16.4417 51.2402 23.7808C53.6009 25.9187 58.6415 30.3541 61.6403 37.406C64.6391 44.4579 63.5545 49.4039 62.2146 55.6581C61.3532 59.5829 60.4918 64.0821 60.4918 69.6343V70.8468C60.7789 82.7489 65.1177 90.2476 69.0416 96.9485C73.0294 103.713 76.3792 109.585 74.1141 118.36L74.1779 118.391Z" fill="#CE6326"/>
<path d="M24.6341 89.5779C24.347 89.5779 24.0599 89.4821 23.8365 89.2907L-1.74909 67.5286C-2.25952 67.0819 -2.35524 66.2842 -1.90861 65.7736C-1.46198 65.2631 -0.664408 65.1993 -0.153972 65.6141L25.4317 87.3761C25.9421 87.8229 26.0378 88.6206 25.5912 89.1311C25.336 89.4183 24.985 89.5779 24.6341 89.5779Z" fill="#030303"/>
<path d="M24.6665 110.503C24.3793 110.503 24.0922 110.407 23.8689 110.216C23.3266 109.769 23.2628 108.971 23.7094 108.461L52.5491 74.1904C52.9957 73.6479 53.7933 73.616 54.3037 74.0308C54.846 74.4776 54.9099 75.2753 54.4632 75.7859L25.6235 110.056C25.3683 110.343 25.0174 110.503 24.6665 110.503Z" fill="#030303"/>
<path d="M24.0915 124.35C23.8363 124.35 23.5811 124.286 23.3578 124.095L4.63112 110.15C4.08878 109.736 3.96116 108.938 4.37589 108.395C4.79062 107.853 5.58819 107.725 6.13053 108.14L24.8572 122.084C25.3995 122.499 25.5271 123.297 25.1124 123.839C24.8572 124.159 24.5062 124.35 24.1234 124.35H24.0915Z" fill="#030303"/>
<path d="M24.6348 381.449C23.933 381.449 23.3906 380.907 23.3906 380.205V50.6468C23.3906 49.9448 23.933 49.4023 24.6348 49.4023C25.3367 49.4023 25.879 49.9448 25.879 50.6468V380.205C25.879 380.907 25.3367 381.449 24.6348 381.449Z" fill="#030303"/>
</g>
<g opacity="0.7">
<path d="M1511.21 129.286C1475.8 129.286 1447 100.484 1447 65.0649C1447 29.646 1475.8 0.84375 1511.21 0.84375C1546.62 0.84375 1575.41 29.646 1575.41 65.0649C1575.41 100.484 1546.62 129.286 1511.21 129.286ZM1511.21 3.40611C1477.19 3.40611 1449.56 31.0731 1449.56 65.0649C1449.56 99.0567 1477.22 126.724 1511.21 126.724C1545.19 126.724 1572.85 99.0567 1572.85 65.0649C1572.85 31.0731 1545.19 3.40611 1511.21 3.40611Z" fill="#030303"/>
<path d="M1511.21 67.6976C1510.92 67.6976 1510.63 67.6003 1510.4 67.4057L1484.39 45.3175C1483.87 44.8635 1483.77 44.0526 1484.23 43.5336C1484.68 42.9822 1485.49 42.9498 1486.01 43.3714L1512.02 65.4596C1512.54 65.9137 1512.64 66.7246 1512.18 67.2436C1511.92 67.5355 1511.57 67.6976 1511.21 67.6976Z" fill="#030303"/>
<path d="M1511.24 88.9683C1510.95 88.9683 1510.66 88.871 1510.43 88.6764C1509.88 88.2223 1509.81 87.4114 1510.27 86.8924L1539.58 52.0249C1540.04 51.5059 1540.85 51.4411 1541.36 51.8627C1541.92 52.3168 1541.98 53.1277 1541.53 53.6466L1512.21 88.5142C1511.95 88.8061 1511.6 88.9683 1511.24 88.9683Z" fill="#030303"/>
<path d="M1510.66 103.014C1510.4 103.014 1510.14 102.949 1509.91 102.754L1490.88 88.5801C1490.32 88.1585 1490.2 87.3476 1490.62 86.7962C1491.04 86.2448 1491.85 86.1151 1492.4 86.5367L1511.44 100.711C1511.99 101.132 1512.12 101.943 1511.69 102.495C1511.44 102.819 1511.08 103.014 1510.69 103.014H1510.66Z" fill="#030303"/>
<path d="M1509.94 380.526V28.5423C1509.94 27.8287 1510.49 27.2773 1511.18 27.2773C1511.86 27.2773 1512.44 27.8287 1512.44 28.5423V380.461" fill="#030303"/>
<path d="M926.094 166.35C894.064 166.35 868 140.28 868 108.243C868 76.2065 894.064 50.1367 926.094 50.1367C958.124 50.1367 984.188 76.2065 984.188 108.243C984.188 140.28 958.124 166.35 926.094 166.35ZM926.094 52.4661C895.34 52.4661 870.297 77.4829 870.297 108.275C870.297 139.068 895.308 164.084 926.094 164.084C956.88 164.084 981.891 139.068 981.891 108.275C981.891 77.4829 956.88 52.4661 926.094 52.4661Z" fill="#030303"/>
<path d="M926.094 114.947C925.807 114.947 925.52 114.851 925.296 114.66L899.711 92.9298C899.2 92.483 899.104 91.6853 899.551 91.1748C899.998 90.6323 900.795 90.6004 901.306 91.0152L926.891 112.745C927.402 113.192 927.498 113.99 927.051 114.5C926.796 114.788 926.445 114.947 926.094 114.947Z" fill="#030303"/>
<path d="M926.126 135.874C925.839 135.874 925.552 135.778 925.328 135.587C924.786 135.14 924.722 134.342 925.169 133.832L954.009 99.5295C954.455 99.0189 955.253 98.9551 955.763 99.3699C956.306 99.8167 956.369 100.614 955.923 101.125L927.083 135.427C926.828 135.714 926.477 135.874 926.126 135.874Z" fill="#030303"/>
<path d="M925.584 149.725C925.329 149.725 925.074 149.661 924.85 149.47L906.124 135.525C905.581 135.111 905.454 134.313 905.869 133.77C906.283 133.228 907.081 133.1 907.623 133.515L926.35 147.459C926.892 147.874 927.02 148.672 926.605 149.214C926.35 149.533 925.999 149.725 925.616 149.725H925.584Z" fill="#030303"/>
<path d="M924.819 380.587V82.8109C924.819 82.1089 925.393 81.5664 926.095 81.5664C926.797 81.5664 927.339 82.1089 927.339 82.8109V380.491" fill="#030303"/>
<path d="M1037.26 123.146C1037.26 123.433 1037.17 123.72 1036.98 123.944C1036.72 124.231 1036.37 124.391 1036.02 124.391C1035.73 124.391 1035.45 124.295 1035.19 124.071L1034.78 123.72L1009.6 102.341C1009.09 101.895 1009 101.097 1009.45 100.586C1009.92 100.044 1010.69 99.98 1011.23 100.427L1034.78 120.466L1036.82 122.189C1037.1 122.444 1037.26 122.795 1037.26 123.146Z" fill="#030303"/>
<path d="M1065.85 110.577L1037.26 144.56L1037.01 144.879C1036.79 145.166 1036.4 145.326 1036.05 145.326C1035.77 145.326 1035.48 145.23 1035.25 145.039C1034.74 144.592 1034.65 143.794 1035.1 143.284L1037.26 140.699L1063.97 108.981C1064.41 108.439 1065.21 108.407 1065.72 108.822C1066.23 109.269 1066.3 110.066 1065.85 110.577Z" fill="#030303"/>
<path d="M1036.5 158.662C1036.24 158.981 1035.86 159.14 1035.48 159.14C1035.22 159.14 1035 159.076 1034.77 158.917H1034.74L1016.02 144.973C1015.47 144.558 1015.35 143.76 1015.76 143.218C1016.18 142.675 1016.97 142.548 1017.52 142.962L1034.77 155.822L1036.24 156.907C1036.78 157.321 1036.91 158.087 1036.5 158.662Z" fill="#030303"/>
<path d="M1037.26 97.5257V380.209C1037.26 380.911 1036.69 381.453 1036.02 381.453C1035.32 381.453 1034.78 380.911 1034.78 380.209V97.5257C1034.78 96.8556 1035.32 96.2812 1036.02 96.2812C1036.72 96.2812 1037.26 96.8556 1037.26 97.5257Z" fill="#030303"/>
<path d="M1082.6 130.552C1078.8 124.202 1074.53 116.831 1074.24 105.567C1074.08 99.6643 1075.1 95.0056 1075.96 90.9531C1077.37 84.5394 1078.51 79.051 1075.23 71.2651C1072.1 63.7027 1066.74 59.0758 1064.25 56.7784C1055.07 48.8011 1044.98 44.9401 1034.36 45.1635C1031.17 45.2273 1014.77 46.2165 1004.15 59.363C998.44 66.2873 996.781 73.5626 996.302 76.2749C994.356 84.7627 995.919 89.9639 997.578 95.5161C998.727 99.3771 999.843 103.366 1000.13 108.854C1000.58 119.416 997.004 126.277 993.59 132.818C989.858 139.966 986.38 146.73 988.805 157.228C990.592 164.982 994.165 171.428 999.428 176.342C1008.9 185.117 1020.9 185.883 1031.17 185.883H1034.87C1035.67 185.883 1036.37 185.883 1037.17 185.819H1037.26C1047.31 185.596 1062.28 184.638 1074.81 173.406C1077.88 170.63 1085.15 164.217 1087.8 153.782C1090.41 144.018 1086.59 137.477 1082.6 130.552ZM1085.56 153.144C1083.01 162.94 1076.15 169.067 1073.25 171.715C1061.35 182.373 1047.03 183.33 1037.26 183.458H1037.17C1036.37 183.553 1035.67 183.553 1034.87 183.553H1034.58C1023.55 183.681 1010.91 183.745 1001.06 174.619C996.143 169.992 992.729 163.993 991.07 156.718C988.805 147.081 991.931 140.955 995.632 133.903C999.078 127.33 1002.94 119.99 1002.43 108.726C1002.2 102.951 1000.93 98.6432 999.779 94.8779C998.216 89.3896 996.781 84.667 998.567 76.7535C999.078 74.1051 1000.58 67.3403 1005.9 60.8628C1015.99 48.5139 1031.36 47.5886 1034.46 47.5247H1035.22C1044.98 47.5247 1054.27 51.2262 1062.69 58.5653C1065.05 60.7032 1070.09 65.1386 1073.09 72.1905C1076.09 79.2424 1075.04 84.1884 1073.67 90.4426C1072.8 94.3674 1071.94 98.8666 1071.94 104.451V105.663C1072.23 117.565 1076.6 125.064 1080.52 131.765C1084.51 138.53 1087.86 144.369 1085.56 153.144Z" fill="#030303"/>
<path d="M1085.56 153.141C1083.01 162.937 1076.15 169.063 1073.25 171.712C1061.35 182.37 1047.03 183.327 1037.26 183.454V144.557L1065.85 110.574C1066.3 110.063 1066.23 109.266 1065.72 108.819C1065.21 108.404 1064.41 108.436 1063.97 108.979L1037.26 140.696V97.5231C1037.26 96.853 1036.69 96.2787 1036.02 96.2787C1035.32 96.2787 1034.78 96.853 1034.78 97.5231V120.466L1011.23 100.427C1010.69 99.9801 1009.92 100.044 1009.45 100.586C1009 101.097 1009.1 101.895 1009.61 102.341L1034.78 123.721V155.821L1017.52 142.962C1016.98 142.547 1016.18 142.675 1015.76 143.217C1015.35 143.76 1015.48 144.557 1016.02 144.972L1034.74 158.916H1034.78V183.55H1034.59C1023.55 183.678 1010.91 183.742 1001.06 174.616C996.143 169.989 992.729 163.99 991.07 156.715C988.805 147.078 991.932 140.951 995.632 133.9C999.078 127.326 1002.94 119.987 1002.43 108.723C1002.2 102.948 1000.93 98.64 999.78 94.8747C998.216 89.3863 996.781 84.6637 998.567 76.7503C999.078 74.1018 1000.58 67.3371 1005.9 60.8595C1015.99 48.5107 1031.36 47.5853 1034.46 47.5215H1035.22C1044.99 47.5215 1054.27 51.2229 1062.69 58.562C1065.05 60.7 1070.09 65.1353 1073.09 72.1873C1076.09 79.2392 1075.04 84.1851 1073.67 90.4393C1072.8 94.3641 1071.94 98.8633 1071.94 104.447V105.66C1072.23 117.562 1076.6 125.061 1080.52 131.762C1084.51 138.526 1087.86 144.366 1085.56 153.141Z" fill="#CE6326"/>
<path d="M1224.26 123.146C1224.26 123.433 1224.17 123.72 1223.98 123.944C1223.72 124.231 1223.37 124.391 1223.02 124.391C1222.73 124.391 1222.45 124.295 1222.19 124.071L1221.78 123.72L1196.6 102.341C1196.09 101.895 1196 101.097 1196.45 100.586C1196.92 100.044 1197.69 99.98 1198.23 100.427L1221.78 120.466L1223.82 122.189C1224.1 122.444 1224.26 122.795 1224.26 123.146Z" fill="#030303"/>
<path d="M1252.85 110.577L1224.26 144.56L1224.01 144.879C1223.79 145.166 1223.4 145.326 1223.05 145.326C1222.77 145.326 1222.48 145.23 1222.25 145.039C1221.74 144.592 1221.65 143.794 1222.1 143.284L1224.26 140.699L1250.97 108.981C1251.41 108.439 1252.21 108.407 1252.72 108.822C1253.23 109.269 1253.3 110.066 1252.85 110.577Z" fill="#030303"/>
<path d="M1223.5 158.662C1223.24 158.981 1222.86 159.14 1222.48 159.14C1222.22 159.14 1222 159.076 1221.77 158.917H1221.74L1203.02 144.973C1202.47 144.558 1202.35 143.76 1202.76 143.218C1203.18 142.675 1203.97 142.548 1204.52 142.962L1221.77 155.822L1223.24 156.907C1223.78 157.321 1223.91 158.087 1223.5 158.662Z" fill="#030303"/>
<path d="M1224.26 97.5257V380.209C1224.26 380.911 1223.69 381.453 1223.02 381.453C1222.32 381.453 1221.78 380.911 1221.78 380.209V97.5257C1221.78 96.8556 1222.32 96.2812 1223.02 96.2812C1223.72 96.2812 1224.26 96.8556 1224.26 97.5257Z" fill="#030303"/>
<path d="M1269.6 130.552C1265.8 124.202 1261.53 116.831 1261.24 105.567C1261.08 99.6643 1262.1 95.0056 1262.96 90.9531C1264.37 84.5394 1265.51 79.051 1262.23 71.2651C1259.1 63.7027 1253.74 59.0758 1251.25 56.7784C1242.07 48.8011 1231.98 44.9401 1221.36 45.1635C1218.17 45.2273 1201.77 46.2165 1191.15 59.363C1185.44 66.2873 1183.78 73.5626 1183.3 76.2749C1181.36 84.7627 1182.92 89.9639 1184.58 95.5161C1185.73 99.3771 1186.84 103.366 1187.13 108.854C1187.58 119.416 1184 126.277 1180.59 132.818C1176.86 139.966 1173.38 146.73 1175.81 157.228C1177.59 164.982 1181.16 171.428 1186.43 176.342C1195.9 185.117 1207.9 185.883 1218.17 185.883H1221.87C1222.67 185.883 1223.37 185.883 1224.17 185.819H1224.26C1234.31 185.596 1249.28 184.638 1261.81 173.406C1264.88 170.63 1272.15 164.217 1274.8 153.782C1277.41 144.018 1273.59 137.477 1269.6 130.552ZM1272.56 153.144C1270.01 162.94 1263.15 169.067 1260.25 171.715C1248.35 182.373 1234.03 183.33 1224.26 183.458H1224.17C1223.37 183.553 1222.67 183.553 1221.87 183.553H1221.58C1210.55 183.681 1197.91 183.745 1188.06 174.619C1183.14 169.992 1179.73 163.993 1178.07 156.718C1175.81 147.081 1178.93 140.955 1182.63 133.903C1186.08 127.33 1189.94 119.99 1189.43 108.726C1189.2 102.951 1187.93 98.6432 1186.78 94.8779C1185.22 89.3896 1183.78 84.667 1185.57 76.7535C1186.08 74.1051 1187.58 67.3403 1192.9 60.8628C1202.99 48.5139 1218.36 47.5886 1221.46 47.5247H1222.22C1231.98 47.5247 1241.27 51.2262 1249.69 58.5653C1252.05 60.7032 1257.09 65.1386 1260.09 72.1905C1263.09 79.2424 1262.04 84.1884 1260.67 90.4426C1259.8 94.3674 1258.94 98.8666 1258.94 104.451V105.663C1259.23 117.565 1263.6 125.064 1267.52 131.765C1271.51 138.53 1274.86 144.369 1272.56 153.144Z" fill="#030303"/>
<path d="M1272.56 153.141C1270.01 162.937 1263.15 169.063 1260.25 171.712C1248.35 182.37 1234.03 183.327 1224.26 183.454V144.557L1252.85 110.574C1253.3 110.063 1253.23 109.266 1252.72 108.819C1252.21 108.404 1251.41 108.436 1250.97 108.979L1224.26 140.696V97.5231C1224.26 96.853 1223.69 96.2787 1223.02 96.2787C1222.32 96.2787 1221.78 96.853 1221.78 97.5231V120.466L1198.23 100.427C1197.69 99.9801 1196.92 100.044 1196.45 100.586C1196 101.097 1196.1 101.895 1196.61 102.341L1221.78 123.721V155.821L1204.52 142.962C1203.98 142.547 1203.18 142.675 1202.76 143.217C1202.35 143.76 1202.48 144.557 1203.02 144.972L1221.74 158.916H1221.78V183.55H1221.59C1210.55 183.678 1197.91 183.742 1188.06 174.616C1183.14 169.989 1179.73 163.99 1178.07 156.715C1175.81 147.078 1178.93 140.951 1182.63 133.9C1186.08 127.326 1189.94 119.987 1189.43 108.723C1189.2 102.948 1187.93 98.64 1186.78 94.8747C1185.22 89.3863 1183.78 84.6637 1185.57 76.7503C1186.08 74.1018 1187.58 67.3371 1192.9 60.8595C1202.99 48.5107 1218.36 47.5853 1221.46 47.5215H1222.22C1231.99 47.5215 1241.27 51.2229 1249.69 58.562C1252.05 60.7 1257.09 65.1353 1260.09 72.1873C1263.09 79.2392 1262.04 84.1851 1260.67 90.4393C1259.8 94.3641 1258.94 98.8633 1258.94 104.447V105.66C1259.23 117.562 1263.6 125.061 1267.52 131.762C1271.51 138.526 1274.86 144.366 1272.56 153.141Z" fill="#CE6326"/>
<path d="M715.594 95.7646C711.798 89.4147 707.523 82.0756 707.235 70.8116C707.108 64.8765 708.097 60.2497 708.958 56.1972C710.394 49.7835 711.51 44.2951 708.256 36.5093C705.13 28.9468 699.77 24.32 697.282 22.0225C688.094 14.0452 678.013 10.1842 667.39 10.4076C664.167 10.4714 647.77 11.4925 637.146 24.6072C631.436 31.5315 629.809 38.8067 629.298 41.519C627.384 50.0069 628.947 55.2081 630.574 60.7922C631.723 64.6532 632.871 68.6418 633.158 74.1302C633.573 84.6921 630.032 91.5207 626.586 98.094C622.886 105.242 619.377 112.006 621.801 122.504C623.588 130.29 627.161 136.704 632.425 141.618C641.9 150.393 653.895 151.191 664.167 151.191H669.017C669.367 151.191 669.814 151.127 670.165 151.127C680.214 150.904 695.272 149.978 707.81 138.714C710.872 135.938 718.146 129.524 720.794 119.09C723.442 109.326 719.582 102.753 715.594 95.8284V95.7646ZM718.593 118.388C716.041 128.152 709.182 134.311 706.247 136.927C694.347 147.617 679.927 148.542 670.165 148.702C669.814 148.766 669.367 148.766 669.017 148.766H667.581C656.511 148.893 643.909 148.989 634.052 139.863C629.139 135.236 625.693 129.237 624.066 121.962C621.801 112.325 624.928 106.199 628.628 99.147C632.042 92.5737 635.902 85.2346 635.392 73.9706C635.168 68.1951 633.892 63.9193 632.744 60.1221C631.18 54.6337 629.745 49.9111 631.531 41.9977C632.042 39.3492 633.541 32.5845 638.869 26.075C648.918 13.7262 664.327 12.8008 667.39 12.737H668.187C677.949 12.737 687.233 16.4384 695.655 23.7775C698.016 25.9154 703.056 30.3508 706.055 37.4027C709.054 44.4547 707.969 49.4006 706.629 55.6548C705.768 59.5796 704.907 64.0788 704.907 69.631V70.8435C705.194 82.7457 709.532 90.2443 713.456 96.9452C717.444 103.71 720.794 109.581 718.529 118.356L718.593 118.388Z" fill="#030303"/>
<path d="M718.592 118.391C716.04 128.156 709.181 134.314 706.246 136.931C694.347 147.62 679.927 148.546 670.165 148.705C669.814 148.769 669.367 148.769 669.016 148.769H667.581C656.511 148.897 643.909 148.992 634.051 139.866C629.138 135.239 625.693 129.241 624.066 121.965C621.801 112.329 624.927 106.202 628.628 99.1502C632.042 92.577 635.902 85.2378 635.391 73.9739C635.168 68.1984 633.892 63.9225 632.743 60.1253C631.18 54.637 629.745 49.9144 631.531 42.0009C632.042 39.3525 633.541 32.5877 638.869 26.0783C648.918 13.7294 664.327 12.8041 667.389 12.7402H668.187C677.949 12.7402 687.233 16.4417 695.655 23.7808C698.015 25.9187 703.056 30.3541 706.055 37.406C709.054 44.4579 707.969 49.4039 706.629 55.6581C705.768 59.5829 704.906 64.0821 704.906 69.6343V70.8468C705.193 82.7489 709.532 90.2476 713.456 96.9485C717.444 103.713 720.794 109.585 718.529 118.36L718.592 118.391Z" fill="#CE6326"/>
<path d="M669.049 89.5779C668.762 89.5779 668.474 89.4821 668.251 89.2907L642.665 67.5286C642.155 67.0819 642.059 66.2842 642.506 65.7736C642.953 65.2631 643.75 65.1993 644.261 65.6141L669.846 87.3761C670.357 87.8229 670.452 88.6206 670.006 89.1311C669.751 89.4183 669.4 89.5779 669.049 89.5779Z" fill="#030303"/>
<path d="M669.081 110.503C668.794 110.503 668.507 110.407 668.283 110.216C667.741 109.769 667.677 108.971 668.124 108.461L696.964 74.1904C697.41 73.6479 698.208 73.616 698.718 74.0308C699.261 74.4776 699.324 75.2753 698.878 75.7859L670.038 110.056C669.783 110.343 669.432 110.503 669.081 110.503Z" fill="#030303"/>
<path d="M668.506 124.35C668.251 124.35 667.996 124.286 667.772 124.095L649.046 110.15C648.503 109.736 648.376 108.938 648.79 108.395C649.205 107.853 650.003 107.725 650.545 108.14L669.272 122.084C669.814 122.499 669.942 123.297 669.527 123.839C669.272 124.159 668.921 124.35 668.538 124.35H668.506Z" fill="#030303"/>
<path d="M669.049 381.449C668.348 381.449 667.805 380.907 667.805 380.205V50.6468C667.805 49.9448 668.348 49.4023 669.049 49.4023C669.751 49.4023 670.294 49.9448 670.294 50.6468V380.205C670.294 380.907 669.751 381.449 669.049 381.449Z" fill="#030303"/>
</g>
</svg>
