<svg width="1416" height="875" viewBox="0 0 1416 875" fill="none" xmlns="http://www.w3.org/2000/svg">
<g opacity="0.7">
<path d="M1079.45 499.437C1098.13 499.437 1113.26 484.27 1113.26 465.56C1113.26 446.851 1098.13 431.684 1079.45 431.684C1060.78 431.684 1045.65 446.851 1045.65 465.56C1045.65 484.27 1060.78 499.437 1079.45 499.437Z" fill="#CE6326"/>
<path d="M1079.45 500.119C1060.43 500.119 1044.96 484.617 1044.96 465.56C1044.96 446.502 1060.43 431 1079.45 431C1098.47 431 1113.95 446.502 1113.95 465.56C1113.95 484.617 1098.47 500.119 1079.45 500.119ZM1079.45 432.362C1061.18 432.362 1046.33 447.253 1046.33 465.555C1046.33 483.857 1061.19 498.749 1079.45 498.749C1097.72 498.749 1112.58 483.857 1112.58 465.555C1112.58 447.253 1097.72 432.362 1079.45 432.362Z" fill="#030303"/>
<path d="M1079.45 466.958C1079.3 466.958 1079.14 466.904 1079.01 466.8L1065.03 454.907C1064.75 454.663 1064.71 454.229 1064.95 453.944C1065.2 453.654 1065.62 453.627 1065.91 453.862L1079.89 465.755C1080.18 465.999 1080.22 466.433 1079.97 466.718C1079.84 466.876 1079.65 466.958 1079.45 466.958Z" fill="#030303"/>
<path d="M1079.48 478.415C1079.32 478.415 1079.17 478.36 1079.04 478.256C1078.75 478.012 1078.72 477.582 1078.96 477.297L1094.71 458.534C1094.96 458.249 1095.4 458.213 1095.67 458.448C1095.96 458.692 1096 459.122 1095.76 459.407L1080 478.17C1079.87 478.329 1079.68 478.415 1079.48 478.415Z" fill="#030303"/>
<path d="M1079.17 485.983C1079.03 485.983 1078.89 485.942 1078.76 485.852L1068.54 478.225C1068.24 477.999 1068.17 477.569 1068.4 477.271C1068.62 476.972 1069.05 476.904 1069.35 477.13L1079.58 484.757C1079.88 484.983 1079.94 485.413 1079.72 485.712C1079.59 485.892 1079.38 485.988 1079.17 485.988V485.983Z" fill="#030303"/>
<path d="M1079.45 645.497C1079.08 645.497 1078.77 645.194 1078.77 644.814V445.892C1078.77 445.517 1079.08 445.209 1079.45 445.209C1079.83 445.209 1080.14 445.512 1080.14 445.892V644.814C1080.14 645.189 1079.83 645.497 1079.45 645.497Z" fill="#030303"/>
<path d="M1146.15 505.297C1145.99 505.297 1145.83 505.242 1145.7 505.138L1131.72 493.242C1131.44 492.997 1131.4 492.563 1131.64 492.278C1131.89 491.993 1132.32 491.957 1132.6 492.197L1146.58 504.094C1146.87 504.338 1146.91 504.772 1146.67 505.057C1146.53 505.215 1146.34 505.297 1146.15 505.297Z" fill="#030303"/>
<path d="M1146.17 516.751C1146.02 516.751 1145.86 516.697 1145.74 516.593C1145.45 516.348 1145.41 515.919 1145.65 515.634L1161.41 496.875C1161.65 496.581 1162.08 496.553 1162.36 496.789C1162.65 497.033 1162.69 497.463 1162.45 497.748L1146.69 516.507C1146.56 516.67 1146.37 516.751 1146.17 516.751Z" fill="#030303"/>
<path d="M1145.86 524.322C1145.72 524.322 1145.58 524.281 1145.46 524.191L1135.23 516.564C1134.92 516.338 1134.86 515.908 1135.09 515.61C1135.31 515.307 1135.74 515.243 1136.04 515.47L1146.27 523.096C1146.57 523.323 1146.63 523.752 1146.41 524.051C1146.28 524.232 1146.07 524.327 1145.86 524.327V524.322Z" fill="#030303"/>
<path d="M1146.15 645.943C1145.77 645.943 1145.46 645.64 1145.46 645.26V490.605C1145.46 490.229 1145.77 489.922 1146.15 489.922C1146.53 489.922 1146.83 490.225 1146.83 490.605V645.26C1146.83 645.635 1146.53 645.943 1146.15 645.943Z" fill="#030303"/>
<path d="M1171.58 508.667C1169.51 505.193 1167.17 501.176 1167.02 495.006C1166.94 491.767 1167.49 489.23 1167.96 487.004C1168.74 483.494 1169.36 480.486 1167.57 476.234C1165.85 472.099 1162.93 469.561 1161.57 468.313C1156.54 463.943 1151.05 461.835 1145.25 461.953C1143.5 461.994 1134.53 462.536 1128.73 469.72C1125.62 473.506 1124.72 477.487 1124.45 478.97C1123.4 483.616 1124.26 486.461 1125.15 489.506C1125.77 491.614 1126.4 493.798 1126.55 496.802C1126.78 502.579 1124.83 506.324 1122.96 509.916C1120.94 513.82 1119.03 517.524 1120.35 523.26C1121.33 527.512 1123.28 531.027 1126.16 533.719C1131.34 538.518 1137.88 538.948 1143.49 538.948H1145.51C1145.94 538.948 1146.34 538.948 1146.76 538.907C1152.25 538.79 1160.47 538.283 1167.32 532.117C1169 530.597 1172.97 527.083 1174.41 521.383C1175.85 516.036 1173.75 512.444 1171.57 508.658L1171.58 508.667ZM1173.22 521.039C1171.81 526.386 1168.07 529.742 1166.47 531.185C1159.97 537.039 1152.11 537.545 1146.76 537.627C1146.34 537.668 1145.95 537.668 1145.52 537.668H1145.37C1139.33 537.745 1132.43 537.785 1127.06 532.791C1124.37 530.254 1122.5 526.974 1121.61 522.998C1120.36 517.728 1122.07 514.372 1124.1 510.508C1125.97 506.917 1128.07 502.9 1127.8 496.734C1127.68 493.572 1126.98 491.234 1126.36 489.162C1125.5 486.158 1124.72 483.58 1125.7 479.251C1125.97 477.808 1126.79 474.099 1129.71 470.548C1135.2 463.794 1143.61 463.287 1145.29 463.251H1145.72C1151.05 463.251 1156.11 465.282 1160.71 469.299C1162 470.471 1164.76 472.891 1166.4 476.754C1168.04 480.617 1167.45 483.308 1166.71 486.746C1166.24 488.895 1165.78 491.351 1165.78 494.396V495.061C1165.94 501.579 1168.31 505.677 1170.45 509.346C1172.63 513.055 1174.46 516.253 1173.22 521.053L1173.22 521.039Z" fill="#030303"/>
<path d="M1285.23 568.243C1265.16 568.243 1248.83 551.882 1248.83 531.77C1248.83 511.659 1265.16 495.297 1285.23 495.297C1305.3 495.297 1321.64 511.659 1321.64 531.77C1321.64 551.882 1305.31 568.243 1285.23 568.243ZM1285.23 496.735C1265.95 496.735 1250.27 512.45 1250.27 531.77C1250.27 551.09 1265.95 566.805 1285.23 566.805C1304.51 566.805 1320.2 551.09 1320.2 531.77C1320.2 512.45 1304.51 496.735 1285.23 496.735Z" fill="#030303"/>
<path d="M1285.23 533.245C1285.07 533.245 1284.9 533.191 1284.77 533.078L1270.01 520.525C1269.71 520.267 1269.67 519.81 1269.92 519.507C1270.19 519.204 1270.63 519.172 1270.94 519.421L1285.7 531.974C1286 532.232 1286.04 532.689 1285.78 532.992C1285.64 533.159 1285.44 533.245 1285.23 533.245Z" fill="#030303"/>
<path d="M1285.26 545.343C1285.1 545.343 1284.93 545.288 1284.8 545.175C1284.5 544.917 1284.46 544.465 1284.71 544.162L1301.34 524.358C1301.6 524.05 1302.06 524.019 1302.35 524.267C1302.66 524.525 1302.7 524.978 1302.44 525.281L1285.81 545.085C1285.67 545.257 1285.47 545.343 1285.26 545.343Z" fill="#030303"/>
<path d="M1284.94 553.324C1284.79 553.324 1284.64 553.279 1284.51 553.184L1273.71 545.136C1273.4 544.901 1273.33 544.444 1273.57 544.127C1273.8 543.811 1274.26 543.743 1274.57 543.978L1285.37 552.026C1285.68 552.261 1285.75 552.718 1285.52 553.034C1285.38 553.224 1285.16 553.324 1284.94 553.324Z" fill="#030303"/>
<path d="M1284.51 645.055V511.005C1284.51 510.607 1284.83 510.286 1285.23 510.286C1285.63 510.286 1285.95 510.607 1285.95 511.005V645.06" fill="#030303"/>
<path d="M1238.77 496.24C1236.62 492.617 1234.18 488.419 1234.02 481.987C1233.94 478.608 1234.5 475.961 1234.99 473.636C1235.8 469.972 1236.45 466.837 1234.59 462.395C1232.8 458.08 1229.75 455.434 1228.33 454.126C1223.09 449.566 1217.36 447.368 1211.3 447.49C1209.47 447.531 1200.12 448.101 1194.07 455.596C1190.82 459.545 1189.88 463.702 1189.6 465.25C1188.5 470.094 1189.39 473.071 1190.33 476.246C1190.98 478.445 1191.63 480.725 1191.79 483.864C1192.04 489.889 1190 493.802 1188.05 497.548C1185.94 501.619 1183.95 505.491 1185.33 511.475C1186.35 515.913 1188.38 519.582 1191.39 522.391C1196.79 527.398 1203.62 527.846 1209.47 527.846H1212.23C1212.44 527.846 1212.68 527.805 1212.88 527.805C1218.61 527.683 1227.19 527.154 1234.34 520.722C1236.09 519.134 1240.24 515.47 1241.74 509.521C1243.24 503.944 1241.05 500.194 1238.77 496.245V496.24ZM1240.49 509.15C1239.02 514.728 1235.12 518.234 1233.46 519.74C1226.67 525.847 1218.46 526.376 1212.89 526.457C1212.69 526.498 1212.45 526.498 1212.24 526.498H1211.43C1205.13 526.58 1197.94 526.62 1192.33 521.409C1189.53 518.763 1187.58 515.343 1186.64 511.186C1185.34 505.69 1187.13 502.184 1189.24 498.154C1191.19 494.408 1193.39 490.215 1193.1 483.778C1192.98 480.48 1192.25 478.038 1191.6 475.88C1190.7 472.745 1189.89 470.058 1190.91 465.535C1191.19 464.028 1192.05 460.161 1195.1 456.451C1200.83 449.408 1209.61 448.874 1211.35 448.834H1211.8C1217.37 448.834 1222.65 450.951 1227.45 455.144C1228.79 456.365 1231.67 458.89 1233.38 462.924C1235.09 466.955 1234.48 469.769 1233.71 473.351C1233.22 475.59 1232.73 478.155 1232.73 481.335V482.027C1232.89 488.826 1235.37 493.105 1237.61 496.932C1239.89 500.8 1241.8 504.143 1240.49 509.15H1240.49Z" fill="#030303"/>
<path d="M1240.49 509.15C1239.02 514.727 1235.12 518.233 1233.46 519.739C1226.67 525.846 1218.46 526.375 1212.89 526.457C1212.69 526.497 1212.45 526.497 1212.24 526.497H1211.43C1205.13 526.579 1197.94 526.62 1192.33 521.408C1189.53 518.762 1187.58 515.342 1186.64 511.185C1185.34 505.689 1187.13 502.183 1189.24 498.153C1191.19 494.407 1193.39 490.214 1193.1 483.777C1192.98 480.48 1192.25 478.037 1191.6 475.879C1190.7 472.744 1189.89 470.057 1190.91 465.534C1191.19 464.027 1192.05 460.16 1195.1 456.451C1200.83 449.407 1209.61 448.874 1211.35 448.833H1211.8C1217.37 448.833 1222.65 450.95 1227.45 455.143C1228.79 456.365 1231.67 458.889 1233.38 462.924C1235.09 466.954 1234.48 469.768 1233.71 473.35C1233.22 475.59 1232.73 478.154 1232.73 481.335V482.027C1232.89 488.826 1235.37 493.105 1237.61 496.932C1239.89 500.799 1241.8 504.142 1240.5 509.15H1240.49Z" fill="#CE6326"/>
<path d="M1212.24 492.707C1212.08 492.707 1211.92 492.653 1211.78 492.54L1197.19 480.122C1196.89 479.869 1196.85 479.417 1197.11 479.118C1197.37 478.82 1197.81 478.788 1198.11 479.037L1212.7 491.454C1213 491.707 1213.04 492.16 1212.78 492.458C1212.64 492.626 1212.44 492.707 1212.24 492.707Z" fill="#030303"/>
<path d="M1212.27 504.656C1212.1 504.656 1211.94 504.602 1211.81 504.489C1211.51 504.235 1211.47 503.783 1211.72 503.484L1228.17 483.911C1228.42 483.603 1228.87 483.576 1229.17 483.825C1229.47 484.078 1229.51 484.531 1229.25 484.829L1212.81 504.403C1212.67 504.574 1212.47 504.656 1212.27 504.656H1212.27Z" fill="#030303"/>
<path d="M1211.95 512.557C1211.8 512.557 1211.65 512.512 1211.52 512.417L1200.85 504.46C1200.54 504.225 1200.47 503.777 1200.7 503.46C1200.93 503.148 1201.38 503.08 1201.7 503.311L1212.37 511.268C1212.68 511.503 1212.75 511.951 1212.52 512.267C1212.38 512.453 1212.17 512.552 1211.95 512.552V512.557Z" fill="#030303"/>
<path d="M1211.53 644.34V470.469C1211.53 470.08 1211.85 469.764 1212.24 469.764C1212.63 469.764 1212.95 470.08 1212.95 470.469V644.385" fill="#030303"/>
<path d="M1019.72 568.661C1002.78 568.661 989 554.855 989 537.883C989 520.911 1002.78 507.101 1019.72 507.101C1036.66 507.101 1050.43 520.906 1050.43 537.883C1050.43 554.86 1036.66 568.661 1019.72 568.661ZM1019.72 508.317C1003.45 508.317 990.214 521.58 990.214 537.883C990.214 554.186 1003.45 567.444 1019.72 567.444C1035.98 567.444 1049.22 554.181 1049.22 537.883C1049.22 521.585 1035.98 508.317 1019.72 508.317Z" fill="#030303"/>
<path d="M1019.72 539.127C1019.58 539.127 1019.44 539.077 1019.32 538.982L1006.87 528.383C1006.62 528.166 1006.58 527.777 1006.8 527.524C1007.03 527.27 1007.4 527.243 1007.66 527.451L1020.11 538.05C1020.36 538.267 1020.4 538.656 1020.18 538.909C1020.06 539.054 1019.89 539.122 1019.72 539.122V539.127Z" fill="#030303"/>
<path d="M1019.74 549.332C1019.6 549.332 1019.46 549.282 1019.36 549.187C1019.1 548.97 1019.06 548.586 1019.28 548.332L1033.31 531.627C1033.53 531.365 1033.92 531.342 1034.16 531.55C1034.42 531.767 1034.46 532.152 1034.24 532.405L1020.21 549.11C1020.09 549.255 1019.92 549.328 1019.74 549.328V549.332Z" fill="#030303"/>
<path d="M1019.46 556.073C1019.34 556.073 1019.21 556.037 1019.1 555.955L1010 549.166C1009.73 548.967 1009.67 548.582 1009.87 548.315C1010.07 548.048 1010.45 547.99 1010.72 548.189L1019.83 554.978C1020.09 555.177 1020.15 555.562 1019.95 555.829C1019.83 555.987 1019.65 556.073 1019.46 556.073Z" fill="#030303"/>
<path d="M1019 644.373V521.649C1019 521.315 1019.32 521.048 1019.72 521.048C1020.12 521.048 1020.44 521.319 1020.44 521.649L1020.31 644.373" fill="#030303"/>
<path d="M2 0V544.5C2 599.728 46.7715 644.5 102 644.5H1314.5C1369.73 644.5 1414.5 689.272 1414.5 744.5V1241.5C1414.5 1296.73 1369.73 1341.5 1314.5 1341.5H102C46.7716 1341.5 2 1386.27 2 1441.5V1867.5C2 1922.73 46.7715 1967.5 102 1967.5H1314.5C1369.73 1967.5 1414.5 2012.27 1414.5 2067.5V2356C1414.5 2411.23 1369.73 2456 1314.5 2456H102C46.7716 2456 2 2500.77 2 2556L2 2718" stroke="#030303" stroke-width="3"/>
<path d="M646.935 645.888H554.539C551.975 645.888 549.488 645.313 547.338 644.217C542.358 641.688 540.534 637.434 542.204 632.245C543.288 628.862 545.106 626.629 547.61 625.604C549.79 624.71 552.034 624.923 553.68 625.332C551.335 621.422 547.107 612.963 549.387 605.866C550.725 601.713 554.077 598.704 559.353 596.926C574.578 591.808 582.27 594.693 585.296 596.612C585.361 594.527 585.941 591.145 588.612 588.206C592.431 584.006 599.135 582.217 608.527 582.875C618.143 583.55 624.989 586.317 628.862 591.103C631.355 594.178 631.988 597.353 632.113 599.296C634.446 597.625 639.296 594.764 644.566 595.285C648.214 595.647 651.376 597.566 653.975 600.99C658.837 607.394 654.929 616.499 653.366 619.562C655.705 620.136 660.987 621.843 663.906 625.983C665.694 628.519 666.292 631.534 665.671 634.935C665.079 638.205 662.68 640.959 658.541 643.115C655.065 644.928 651.05 645.888 646.935 645.888ZM550.891 626.7C550.026 626.7 549.12 626.836 548.244 627.198C546.237 628.027 544.756 629.899 543.832 632.772C542.411 637.192 543.85 640.533 548.114 642.695C550.026 643.666 552.247 644.176 554.539 644.176H646.935C650.772 644.176 654.514 643.287 657.748 641.599C661.389 639.703 663.486 637.357 663.983 634.632C664.516 631.7 664.019 629.123 662.509 626.979C659.181 622.251 651.998 621.019 651.927 621.007C651.648 620.96 651.411 620.782 651.287 620.521C651.169 620.267 651.18 619.965 651.328 619.722C651.394 619.615 657.706 608.745 652.608 602.021C650.31 598.994 647.545 597.3 644.394 596.986C637.928 596.346 631.858 601.654 631.799 601.707C631.532 601.944 631.141 601.991 630.828 601.82C630.514 601.648 630.336 601.298 630.383 600.943C630.383 600.901 630.952 596.376 627.506 592.14C623.941 587.762 617.516 585.215 608.414 584.575C599.567 583.953 593.332 585.558 589.885 589.35C586.308 593.277 587.078 598.242 587.084 598.295C587.149 598.674 586.954 599.047 586.605 599.207C586.261 599.373 585.847 599.284 585.592 599C585.533 598.935 579.043 592.104 559.898 598.544C555.166 600.137 552.182 602.767 551.021 606.375C548.268 614.923 556.386 626.363 556.469 626.481C556.7 626.801 556.682 627.245 556.422 627.541C556.161 627.843 555.729 627.926 555.38 627.743C555.35 627.731 553.301 626.688 550.897 626.688L550.891 626.7Z" fill="#030303"/>
<path d="M580.363 645.888C580.014 645.888 579.688 645.675 579.558 645.325L567.537 612.661C567.371 612.216 567.602 611.725 568.046 611.559C568.49 611.393 568.982 611.624 569.147 612.068L581.168 644.733C581.334 645.177 581.103 645.669 580.659 645.835C580.558 645.87 580.464 645.888 580.363 645.888Z" fill="#030303"/>
<path d="M572.221 623.762C572.12 623.762 572.014 623.744 571.913 623.703C571.469 623.531 571.256 623.034 571.427 622.595L577.847 606.103C578.018 605.665 578.516 605.445 578.954 605.617C579.398 605.789 579.611 606.287 579.439 606.725L573.02 623.217C572.89 623.555 572.564 623.762 572.221 623.762Z" fill="#030303"/>
<path d="M576.556 635.533C576.26 635.533 575.969 635.379 575.815 635.107C575.579 634.698 575.721 634.171 576.129 633.934L586.451 627.962C586.859 627.725 587.386 627.868 587.623 628.276C587.86 628.685 587.718 629.212 587.309 629.449L576.988 635.421C576.852 635.498 576.704 635.533 576.562 635.533H576.556Z" fill="#030303"/>
<path d="M606.656 645.188C606.318 645.188 605.992 644.987 605.862 644.649L594.309 615.752C594.262 615.634 594.244 615.509 594.25 615.385L594.948 603.122C594.978 602.649 595.375 602.281 595.854 602.317C596.328 602.346 596.689 602.749 596.66 603.223L595.973 615.29L607.455 644.01C607.633 644.448 607.419 644.946 606.975 645.123C606.869 645.165 606.762 645.182 606.656 645.182V645.188Z" fill="#030303"/>
<path d="M603.476 636.812C603.363 636.812 603.251 636.788 603.138 636.741C602.7 636.557 602.499 636.054 602.682 635.616L615.23 606.073C615.414 605.634 615.917 605.433 616.355 605.617C616.793 605.8 616.995 606.304 616.811 606.742L604.263 636.285C604.127 636.611 603.807 636.806 603.476 636.806V636.812Z" fill="#030303"/>
<path d="M610.617 620C610.286 620 609.972 619.805 609.83 619.485C609.64 619.052 609.842 618.543 610.274 618.359L621.371 613.531C621.803 613.342 622.313 613.543 622.496 613.976C622.686 614.408 622.484 614.918 622.052 615.101L610.955 619.929C610.842 619.977 610.73 620 610.611 620H610.617Z" fill="#030303"/>
<path d="M625.913 645.887C625.818 645.887 625.723 645.87 625.629 645.84C625.185 645.686 624.948 645.194 625.102 644.75L632.19 624.437L629.91 617.097C629.768 616.647 630.023 616.167 630.473 616.025C630.923 615.883 631.402 616.137 631.544 616.588L633.907 624.194C633.961 624.372 633.96 624.555 633.895 624.733L626.718 645.313C626.594 645.668 626.262 645.887 625.907 645.887H625.913Z" fill="#030303"/>
<path d="M629.501 636.172C629.122 636.172 628.772 635.917 628.672 635.526C628.553 635.07 628.832 634.602 629.288 634.484L638.828 632.031C639.289 631.913 639.751 632.191 639.87 632.647C639.988 633.103 639.71 633.571 639.254 633.69L629.714 636.142C629.643 636.16 629.572 636.172 629.501 636.172Z" fill="#030303"/>
<path d="M738.336 622.945C738.152 622.88 734.185 621.493 729.299 621.908C729.974 619.225 731.076 612.916 728.026 608.336C726.036 605.351 722.673 603.674 718.024 603.354C705.512 602.495 701.823 606.932 700.745 609.385C699.519 608.271 697.263 606.429 694.207 604.859C687.99 601.66 681.417 601.121 675.199 603.301C667.335 606.05 663.995 610.611 662.58 613.952C661.472 616.559 661.33 618.828 661.342 619.959C658.707 620.664 649.706 623.567 648.202 630.456C647.61 633.158 648.486 636.031 650.796 639.005C654.153 643.317 659.518 645.9 665.15 645.9H723.875C726.913 645.9 729.808 645.391 732.473 644.395C737.649 642.458 740.953 639.171 742.031 634.893C742.457 633.187 742.635 631.712 742.635 630.445C742.635 624.621 738.863 623.14 738.336 622.957V622.945ZM740.367 634.461C739.188 639.147 735.096 641.57 731.869 642.778C729.394 643.702 726.7 644.176 723.869 644.176H665.144C660.039 644.176 655.178 641.842 652.14 637.944C650.156 635.391 649.392 632.992 649.872 630.812C651.364 623.964 662.307 621.47 662.42 621.446C662.852 621.351 663.142 620.943 663.083 620.504C663.071 620.398 661.928 609.752 675.761 604.906C678.213 604.047 680.564 603.698 682.773 603.698C693.135 603.698 700.437 611.464 700.526 611.559C700.751 611.808 701.106 611.897 701.426 611.79C701.746 611.689 701.977 611.399 702.012 611.067C702.042 610.777 702.954 604.03 717.906 605.066C721.992 605.345 724.911 606.767 726.593 609.284C730.016 614.414 727.333 622.56 727.304 622.637C727.209 622.921 727.268 623.235 727.458 623.466C727.647 623.697 727.949 623.81 728.245 623.762C733.267 623.004 737.708 624.55 737.749 624.568C737.767 624.568 737.791 624.58 737.803 624.586C737.992 624.639 742.469 626.073 740.355 634.473L740.367 634.461Z" fill="#030303"/>
<path d="M740.367 634.461C739.188 639.147 735.096 641.57 731.869 642.779C729.394 643.703 726.7 644.177 723.869 644.177H702.515L703.937 635.326C703.943 635.297 703.948 635.267 703.948 635.237L705.245 627.145L718.64 619.189C719.049 618.947 719.179 618.419 718.936 618.011C718.693 617.602 718.166 617.471 717.764 617.714L705.601 624.936L707.146 615.315C707.223 614.847 706.903 614.409 706.436 614.332C705.974 614.255 705.53 614.575 705.453 615.043L702.51 633.401L696.623 627.75C696.286 627.418 695.741 627.436 695.415 627.773C695.084 628.117 695.096 628.656 695.439 628.988L702.184 635.457L700.786 644.171H680.795L678.568 636.695L686.331 614.592C686.491 614.148 686.254 613.656 685.804 613.497C685.36 613.337 684.869 613.574 684.715 614.024L677.733 633.899L674.441 622.868C674.305 622.418 673.825 622.157 673.375 622.294C672.919 622.43 672.664 622.91 672.795 623.36L679.006 644.171H665.15C660.045 644.171 655.183 641.837 652.146 637.939C650.162 635.385 649.398 632.986 649.878 630.806C651.37 623.958 662.313 621.464 662.426 621.441C662.858 621.346 663.148 620.937 663.089 620.499C663.077 620.392 661.934 609.747 675.767 604.901C678.219 604.042 680.57 603.692 682.778 603.692C693.141 603.692 700.443 611.459 700.532 611.553C700.757 611.802 701.112 611.891 701.432 611.784C701.752 611.684 701.982 611.394 702.018 611.062C702.048 610.772 702.96 604.024 717.912 605.061C721.998 605.339 724.917 606.761 726.599 609.279C730.022 614.409 727.339 622.554 727.309 622.631C727.215 622.916 727.274 623.23 727.463 623.461C727.653 623.692 727.955 623.804 728.251 623.757C733.273 622.998 737.714 624.545 737.755 624.562C737.773 624.562 737.797 624.574 737.809 624.58C737.998 624.634 742.475 626.067 740.361 634.467L740.367 634.461Z" fill="#CE6326"/>
<path d="M680.398 645.853C680.315 645.876 680.232 645.888 680.149 645.888C679.782 645.888 679.439 645.645 679.332 645.272L679 644.17L672.789 623.359C672.652 622.909 672.913 622.429 673.369 622.293C673.819 622.157 674.299 622.417 674.435 622.868L677.727 633.898L678.562 636.694L680.789 644.17L680.972 644.78C681.109 645.231 680.848 645.71 680.398 645.847V645.853Z" fill="#030303"/>
<path d="M686.331 614.598L678.568 636.7L678.479 636.955C678.355 637.31 678.023 637.53 677.668 637.53C677.573 637.53 677.478 637.512 677.384 637.476C676.939 637.322 676.703 636.831 676.857 636.386L677.733 633.904L684.715 614.029C684.869 613.585 685.36 613.348 685.804 613.502C686.254 613.662 686.485 614.148 686.331 614.598Z" fill="#030303"/>
<path d="M707.146 615.315L705.6 624.936L705.245 627.139L703.948 635.232C703.948 635.261 703.942 635.291 703.936 635.32L702.515 644.171L702.355 645.16C702.284 645.581 701.923 645.883 701.509 645.883C701.461 645.883 701.42 645.883 701.372 645.871C700.905 645.8 700.585 645.356 700.662 644.888L700.78 644.165L702.178 635.451L702.509 633.395L705.452 615.037C705.529 614.569 705.968 614.249 706.435 614.326C706.903 614.403 707.223 614.841 707.146 615.309V615.315Z" fill="#030303"/>
<path d="M703.948 635.237C703.948 635.267 703.943 635.296 703.937 635.326C703.907 635.48 703.83 635.628 703.712 635.752C703.546 635.93 703.321 636.019 703.096 636.019C702.883 636.019 702.669 635.942 702.504 635.776L702.178 635.462L695.433 628.993C695.09 628.661 695.078 628.122 695.409 627.779C695.735 627.441 696.28 627.423 696.617 627.755L702.504 633.407L703.688 634.538C703.883 634.728 703.972 634.988 703.948 635.237Z" fill="#030303"/>
<path d="M718.64 619.189L705.245 627.145L704.902 627.352C704.766 627.435 704.612 627.471 704.464 627.471C704.168 627.471 703.883 627.322 703.729 627.05C703.487 626.641 703.617 626.114 704.025 625.871L705.601 624.935L717.764 617.714C718.166 617.471 718.694 617.601 718.936 618.01C719.179 618.419 719.049 618.94 718.64 619.189Z" fill="#030303"/>
<path d="M561.213 630.32C560.834 626.114 559.247 623.158 556.505 621.523C552.129 618.922 546.095 620.492 543.448 621.398C543.59 619.088 543.501 614.479 541.008 611.375C539.539 609.539 537.467 608.52 534.855 608.348C527.72 607.874 523.385 611.968 521.449 614.426C519.785 608.869 514.337 607.205 513.549 606.991C512.827 606.677 507.965 604.841 500.604 608.751C494.736 611.867 494.807 620.463 495.227 624.615C493.783 623.62 492.225 623.134 490.591 623.17C486.215 623.253 482.869 627.008 482.709 627.186C477.984 632.832 479.275 639.188 482.899 642.298C486.683 645.55 493.451 645.699 493.516 645.699C513.466 645.858 529.188 645.888 538.527 645.888C544.46 645.888 547.818 645.876 548.025 645.876C548.41 645.888 554.201 645.894 558.051 641.765C560.585 639.04 561.651 635.189 561.213 630.314V630.32ZM556.807 640.586C553.455 644.2 548.108 644.158 548.049 644.158C548.043 644.158 548.037 644.158 548.031 644.158C547.913 644.158 541.529 644.188 530.438 644.164C529.822 644.164 529.194 644.164 528.555 644.164C525.387 644.158 521.875 644.146 518.05 644.129C517.446 644.129 516.83 644.129 516.202 644.123C512.951 644.111 509.493 644.093 505.839 644.069C505.271 644.069 504.702 644.063 504.122 644.058C500.747 644.04 497.211 644.01 493.534 643.981C493.475 643.981 487.287 643.803 484.018 640.995C481.015 638.418 480.003 633.086 484.018 628.3C484.047 628.264 487.02 624.941 490.632 624.882C490.668 624.882 490.703 624.882 490.733 624.882C492.527 624.882 494.221 625.711 495.76 627.34C496.027 627.613 496.436 627.684 496.773 627.512C497.111 627.34 497.294 626.961 497.223 626.588C497.199 626.463 494.825 613.768 501.41 610.273C508.409 606.553 512.85 608.561 512.886 608.579C512.945 608.609 513.004 608.632 513.069 608.644C513.33 608.704 519.477 610.22 520.158 616.683C520.199 617.062 520.478 617.364 520.851 617.435C521.224 617.506 521.597 617.323 521.774 616.985C521.81 616.908 525.771 609.462 534.743 610.06C536.857 610.202 538.509 611.002 539.67 612.447C542.565 616.049 541.624 622.494 541.612 622.56C541.565 622.868 541.689 623.176 541.932 623.371C542.18 623.561 542.512 623.602 542.796 623.478C542.873 623.442 550.749 620.101 555.629 623.004C557.873 624.343 559.176 626.854 559.501 630.48C559.898 634.84 558.986 638.24 556.801 640.592L556.807 640.586Z" fill="#030303"/>
<path d="M556.807 640.587C553.455 644.2 548.108 644.159 548.049 644.159C548.043 644.159 548.037 644.159 548.031 644.159C547.913 644.159 541.529 644.188 530.438 644.165L536.04 633.324L541.251 631.339C541.695 631.173 541.914 630.676 541.742 630.231C541.576 629.787 541.079 629.568 540.641 629.74L536.022 631.493L533.63 622.003C533.517 621.547 533.049 621.269 532.593 621.381C532.131 621.5 531.859 621.962 531.972 622.424L534.518 632.53L528.632 643.916C528.59 643.993 528.561 644.076 528.555 644.159C525.387 644.153 521.875 644.141 518.05 644.123L524.919 628.425C525.108 627.992 524.913 627.489 524.481 627.299C524.042 627.11 523.539 627.305 523.35 627.743L521.709 631.487L519.08 627.364C518.825 626.967 518.292 626.849 517.896 627.104C517.493 627.358 517.381 627.892 517.635 628.288L520.874 633.371C520.874 633.371 520.88 633.383 520.886 633.383L518.529 638.768L517.138 635.545C516.948 635.113 516.445 634.911 516.013 635.101C515.58 635.291 515.379 635.794 515.568 636.227L517.582 640.883C517.582 640.883 517.594 640.901 517.6 640.912L516.267 643.945C516.244 644.005 516.22 644.064 516.214 644.123C512.963 644.111 509.505 644.094 505.851 644.07C505.851 643.495 505.78 642.571 505.673 641.025C505.555 639.254 505.365 636.789 505.123 633.703C505.075 633.122 505.028 632.542 504.986 631.973C505.057 631.926 505.129 631.872 505.188 631.807L514.289 621.387C514.603 621.032 514.562 620.487 514.206 620.179C513.851 619.871 513.306 619.906 512.998 620.262L504.803 629.645C504.507 626.037 504.264 623.158 504.258 623.117C504.223 622.649 503.808 622.293 503.334 622.335C502.866 622.376 502.517 622.791 502.553 623.265C502.89 627.27 503.305 632.334 503.63 636.505L499.621 633.614C499.236 633.336 498.704 633.425 498.425 633.81C498.153 634.195 498.236 634.728 498.621 635.006L503.613 638.596C503.672 638.643 503.737 638.673 503.802 638.697C503.998 641.303 504.134 643.306 504.146 644.064C500.77 644.046 497.235 644.016 493.558 643.987C493.498 643.987 487.31 643.809 484.041 641.001C481.039 638.424 480.027 633.093 484.041 628.306C484.071 628.271 487.044 624.947 490.656 624.888C490.692 624.888 490.727 624.888 490.757 624.888C492.551 624.888 494.245 625.717 495.784 627.347C496.051 627.619 496.459 627.69 496.797 627.518C497.134 627.347 497.318 626.967 497.247 626.594C497.223 626.47 494.849 613.775 501.433 610.28C508.433 606.559 512.874 608.568 512.91 608.585C512.969 608.615 513.028 608.639 513.093 608.651C513.354 608.71 519.5 610.226 520.181 616.689C520.223 617.068 520.501 617.371 520.874 617.442C521.247 617.513 521.62 617.329 521.798 616.991C521.834 616.914 525.795 609.468 534.767 610.066C536.881 610.209 538.533 611.008 539.693 612.454C542.589 616.055 541.648 622.501 541.636 622.566C541.588 622.874 541.713 623.182 541.955 623.378C542.204 623.567 542.536 623.609 542.82 623.484C542.897 623.449 550.773 620.107 555.652 623.01C557.897 624.349 559.199 626.861 559.525 630.486C559.922 634.846 559.01 638.247 556.825 640.598L556.807 640.587Z" fill="#CE6326"/>
<path d="M536.188 633.039L536.04 633.329L530.438 644.17L530.159 644.715C530.011 645.011 529.709 645.177 529.395 645.177C529.265 645.177 529.129 645.147 529.005 645.082C528.661 644.904 528.489 644.531 528.555 644.164C528.566 644.081 528.59 644.004 528.632 643.921L534.518 632.535L531.971 622.429C531.853 621.967 532.131 621.505 532.593 621.386C533.055 621.268 533.517 621.552 533.63 622.008L536.022 631.499L536.259 632.434C536.312 632.636 536.288 632.855 536.188 633.039Z" fill="#030303"/>
<path d="M541.251 631.345L536.04 633.329L535.732 633.448C535.631 633.483 535.531 633.501 535.424 633.501C535.081 633.501 534.755 633.294 534.625 632.95C534.459 632.506 534.678 632.008 535.122 631.842L536.022 631.499L540.641 629.745C541.085 629.573 541.577 629.799 541.742 630.237C541.908 630.681 541.689 631.179 541.251 631.345Z" fill="#030303"/>
<path d="M505.661 641.024C505.543 639.253 505.353 636.789 505.111 633.702C505.063 633.122 505.016 632.541 504.974 631.973C504.909 631.179 504.844 630.391 504.785 629.639C504.489 626.031 504.246 623.152 504.24 623.11C504.205 622.642 503.79 622.287 503.316 622.328C502.849 622.37 502.499 622.785 502.535 623.259C502.872 627.263 503.287 632.328 503.612 636.499C503.672 637.263 503.731 638.003 503.778 638.696C503.974 641.303 504.11 643.305 504.122 644.063C504.122 644.158 504.122 644.229 504.122 644.289C504.08 644.496 504.11 644.715 504.222 644.911C504.382 645.177 504.666 645.331 504.957 645.331C505.105 645.331 505.259 645.29 505.395 645.207C505.709 645.017 505.839 644.94 505.833 644.081C505.833 643.507 505.762 642.582 505.655 641.036L505.661 641.024Z" fill="#030303"/>
<path d="M514.278 621.387L505.176 631.807C505.117 631.872 505.052 631.932 504.975 631.973C504.838 632.056 504.684 632.097 504.525 632.097C504.323 632.097 504.122 632.026 503.962 631.89C503.607 631.576 503.565 631.037 503.879 630.682L504.785 629.645L512.981 620.261C513.295 619.906 513.833 619.865 514.189 620.179C514.544 620.492 514.586 621.032 514.272 621.387H514.278Z" fill="#030303"/>
<path d="M504.785 638.4C504.619 638.631 504.353 638.756 504.086 638.756C503.986 638.756 503.879 638.738 503.778 638.696C503.713 638.679 503.648 638.643 503.589 638.596L498.597 635.006C498.212 634.727 498.129 634.194 498.401 633.809C498.68 633.424 499.213 633.335 499.598 633.614L503.607 636.504L504.59 637.209C504.975 637.482 505.057 638.021 504.785 638.406V638.4Z" fill="#030303"/>
<path d="M524.919 628.43L518.05 644.129L517.831 644.632C517.689 644.952 517.381 645.148 517.043 645.148C516.931 645.148 516.812 645.124 516.7 645.077C516.327 644.911 516.125 644.508 516.202 644.123C516.214 644.064 516.232 644.004 516.256 643.945L517.588 640.912L518.524 638.768L520.88 633.383L521.709 631.487L523.35 627.743C523.539 627.305 524.049 627.109 524.481 627.299C524.913 627.488 525.114 627.998 524.919 628.424V628.43Z" fill="#030303"/>
<path d="M522.059 633.631C521.917 633.726 521.757 633.768 521.597 633.768C521.325 633.768 521.046 633.637 520.886 633.388C520.886 633.388 520.88 633.377 520.874 633.377L517.635 628.294C517.381 627.897 517.493 627.364 517.896 627.109C518.293 626.854 518.826 626.973 519.08 627.37L521.709 631.493L522.319 632.452C522.574 632.849 522.456 633.383 522.053 633.637L522.059 633.631Z" fill="#030303"/>
<path d="M518.695 641.326C518.583 641.374 518.47 641.397 518.358 641.397C518.038 641.397 517.736 641.22 517.588 640.912C517.582 640.9 517.576 640.894 517.57 640.882L515.557 636.226C515.367 635.787 515.569 635.284 516.001 635.1C516.433 634.916 516.942 635.112 517.126 635.544L518.518 638.767L519.139 640.201C519.329 640.633 519.127 641.143 518.689 641.326H518.695Z" fill="#030303"/>
<path d="M324.439 599.585C324.439 603.075 324.842 606.469 325.6 609.727C325.861 610.847 326.163 611.943 326.506 613.027C332.221 631.095 349.145 644.228 369.071 644.228C393.682 644.228 413.697 624.199 413.697 599.585C413.697 587.903 409.196 577.264 401.824 569.296C401.161 568.573 400.462 567.868 399.745 567.187C391.745 559.599 380.938 554.937 369.065 554.937C365.524 554.937 362.072 555.351 358.761 556.139C358.211 556.269 357.666 556.412 357.121 556.56C357.287 557.099 357.453 557.638 357.625 558.177C358.169 558.023 358.72 557.887 359.271 557.756C362.421 557.016 365.702 556.625 369.065 556.625C392.74 556.625 412.003 575.895 412.003 599.585C412.003 623.269 392.74 642.54 369.065 642.54C348.783 642.54 331.741 628.405 327.27 609.461C327.27 609.455 327.27 609.449 327.27 609.449C327.27 609.437 327.264 609.419 327.264 609.407C326.518 606.25 326.127 602.962 326.127 599.585C326.127 581.002 337.982 565.138 354.522 559.166C355.049 558.971 355.582 558.793 356.12 558.621C355.949 558.082 355.783 557.549 355.611 557.01C355.072 557.182 354.539 557.359 354.012 557.549C336.786 563.739 324.439 580.244 324.439 599.579V599.585Z" fill="#030303"/>
<path d="M329.994 599.585C329.994 621.137 347.522 638.677 369.071 638.677C390.62 638.677 408.148 621.143 408.148 599.585C408.148 578.028 390.62 560.493 369.071 560.493C366.105 560.493 363.209 560.825 360.432 561.459C359.875 561.583 359.33 561.713 358.785 561.873C359.093 562.845 359.395 563.816 359.697 564.776C360.242 564.628 360.787 564.492 361.344 564.373C363.831 563.822 366.418 563.538 369.071 563.538C372.358 563.538 375.538 563.982 378.57 564.812C379.114 564.96 379.653 565.12 380.186 565.297C391.532 568.982 400.427 578.164 403.725 589.686C403.879 590.225 404.021 590.776 404.145 591.327C404.714 593.715 405.04 596.203 405.093 598.744C405.099 599.023 405.105 599.307 405.105 599.591C405.105 599.876 405.105 600.154 405.093 600.432C404.945 606.777 403.156 612.725 400.125 617.855C399.84 618.341 399.544 618.82 399.23 619.288C392.794 629.128 381.679 635.633 369.071 635.633C366.282 635.633 363.564 635.313 360.953 634.708C360.402 634.584 359.857 634.448 359.312 634.294C348.038 631.113 338.983 622.57 335.093 611.605C334.903 611.072 334.726 610.539 334.566 609.994C333.565 606.7 333.032 603.199 333.032 599.585C333.032 597.725 333.174 595.889 333.447 594.106C333.529 593.543 333.63 592.992 333.743 592.441C335.389 584.278 339.8 577.104 345.959 571.944C346.385 571.583 346.829 571.233 347.274 570.89C350.086 568.745 353.225 567.004 356.606 565.754C357.133 565.558 357.666 565.374 358.205 565.209C357.897 564.243 357.595 563.277 357.287 562.306C356.748 562.478 356.215 562.655 355.688 562.851C340.712 568.331 329.988 582.726 329.988 599.585H329.994Z" fill="#030303"/>
<path d="M363.967 599.586C363.967 599.983 364.008 600.368 364.103 600.741C364.233 601.304 364.452 601.831 364.754 602.311C365.276 603.14 366.034 603.81 366.934 604.224C367.437 604.455 367.988 604.615 368.568 604.669C368.74 604.686 368.906 604.698 369.077 604.698C370.718 604.698 372.18 603.922 373.116 602.714C373.465 602.269 373.732 601.766 373.915 601.221C374.01 600.948 374.075 600.67 374.123 600.38C374.164 600.119 374.182 599.858 374.182 599.586C374.182 599.278 374.152 598.982 374.099 598.691C374.099 598.68 374.099 598.662 374.093 598.65C373.986 598.075 373.791 597.536 373.507 597.05C372.962 596.097 372.115 595.333 371.102 594.894C371.008 594.853 370.907 594.811 370.812 594.782C370.386 594.628 369.936 594.527 369.462 594.497C369.332 594.485 369.208 594.479 369.071 594.479C369.036 594.479 369 594.479 368.965 594.479C368.467 594.485 367.988 594.568 367.532 594.71C367.401 594.752 367.271 594.793 367.147 594.847C366.738 595.013 366.353 595.226 366.004 595.487C365.897 595.57 365.797 595.652 365.696 595.741C365.204 596.174 364.796 596.701 364.5 597.293C364.245 597.791 364.073 598.342 364.002 598.928C363.973 599.142 363.961 599.361 363.961 599.58L363.967 599.586Z" fill="#030303"/>
<path d="M261.516 565.333C261.96 565.689 262.398 566.056 262.824 566.429C267.461 570.463 271.227 575.475 273.797 581.144C273.963 581.5 274.123 581.867 274.271 582.228C274.549 582.886 274.81 583.561 275.058 584.237C275.195 584.61 275.319 584.977 275.449 585.356C275.805 586.422 276.118 587.512 276.391 588.62C276.527 589.177 276.651 589.734 276.764 590.291C277.338 590.261 277.907 590.232 278.469 590.208C278.363 589.645 278.238 589.088 278.108 588.537C277.853 587.465 277.563 586.411 277.232 585.368C277.125 585.03 277.013 584.687 276.9 584.355C276.551 583.336 276.16 582.329 275.739 581.34C275.597 581.008 275.455 580.682 275.301 580.35C272.66 574.569 268.823 569.45 264.109 565.304C263.683 564.93 263.245 564.557 262.801 564.196C262.368 564.569 261.942 564.948 261.516 565.327V565.333ZM190.047 598.851C190.047 623.471 210.068 643.5 234.679 643.5C257.613 643.5 276.562 626.107 279.032 603.809C279.091 603.246 279.144 602.69 279.186 602.121L277.498 602.056C277.457 602.619 277.403 603.181 277.338 603.744C274.904 625.135 256.701 641.811 234.679 641.811C211.004 641.811 191.735 622.541 191.735 598.851C191.735 575.167 210.998 555.89 234.679 555.89C243.099 555.89 250.963 558.331 257.601 562.537C258.099 562.857 258.596 563.177 259.076 563.515C259.502 563.124 259.934 562.739 260.373 562.359C259.887 562.016 259.401 561.684 258.904 561.364C251.922 556.838 243.602 554.202 234.679 554.202C216.694 554.202 201.156 564.901 194.097 580.273C193.778 580.978 193.47 581.689 193.179 582.412C191.154 587.507 190.047 593.051 190.047 598.857V598.851Z" fill="#030303"/>
<path d="M277.622 598.851C277.622 599.929 277.581 601.001 277.504 602.056L279.192 602.121C279.274 601.037 279.316 599.953 279.316 598.851C279.316 595.895 279.032 593.01 278.475 590.214C277.912 590.243 277.344 590.273 276.77 590.297C277.332 593.063 277.622 595.925 277.622 598.851Z" fill="#CE6326"/>
<path d="M256.589 570.244C257.039 570.588 257.477 570.943 257.903 571.311C263.304 575.872 267.349 581.991 269.344 588.97C269.498 589.521 269.646 590.078 269.771 590.64C270.807 590.587 271.837 590.534 272.85 590.486C272.725 589.924 272.595 589.367 272.447 588.816C270.38 581.026 265.963 574.184 260 569.101C259.573 568.728 259.135 568.372 258.691 568.029C257.969 568.751 257.27 569.486 256.589 570.244ZM195.602 598.851C195.602 620.408 213.13 637.943 234.679 637.943C254.617 637.943 271.121 622.92 273.466 603.59C273.537 603.033 273.59 602.47 273.637 601.902L270.6 601.783C270.558 602.346 270.493 602.909 270.422 603.466C269.575 610.071 266.934 616.131 263.002 621.119C262.653 621.563 262.291 621.996 261.93 622.422C260.177 624.442 258.205 626.267 256.05 627.855C255.6 628.192 255.132 628.518 254.664 628.826C248.944 632.659 242.069 634.898 234.685 634.898C232.588 634.898 230.534 634.72 228.532 634.371C227.975 634.276 227.425 634.17 226.874 634.045C216.179 631.676 207.255 624.537 202.459 614.982C202.204 614.478 201.961 613.969 201.736 613.453C199.747 608.987 198.639 604.046 198.639 598.851C198.639 592.234 200.434 586.026 203.56 580.688C203.839 580.202 204.141 579.723 204.449 579.249C207.498 574.551 211.614 570.606 216.452 567.762C216.937 567.478 217.429 567.199 217.926 566.939C222.93 564.291 228.633 562.798 234.673 562.798C237.219 562.798 239.694 563.058 242.093 563.568C242.649 563.681 243.194 563.811 243.739 563.947C246.889 564.77 249.88 566.003 252.639 567.596C253.142 567.892 253.64 568.195 254.131 568.514C254.818 567.744 255.517 566.992 256.234 566.257C255.748 565.932 255.251 565.618 254.747 565.315C248.879 561.785 242.01 559.753 234.679 559.753C213.13 559.753 195.602 577.288 195.602 598.845V598.851ZM269.344 588.976C269.498 589.527 269.646 590.084 269.771 590.646C270.807 590.593 271.837 590.54 272.85 590.492C272.725 589.929 272.595 589.373 272.447 588.822C271.423 588.875 270.38 588.928 269.344 588.976Z" fill="#030303"/>
<path d="M270.718 598.851C270.718 599.84 270.676 600.818 270.599 601.783L273.637 601.902C273.714 600.895 273.756 599.876 273.756 598.851C273.756 595.984 273.448 593.188 272.856 590.492C271.837 590.546 270.807 590.599 269.776 590.646C270.392 593.282 270.718 596.025 270.718 598.851Z" fill="#CE6326"/>
<path d="M229.574 598.851C229.574 599.751 229.805 600.598 230.214 601.333C230.504 601.848 230.877 602.31 231.321 602.695C231.724 603.051 232.18 603.341 232.683 603.554C233.198 603.773 233.749 603.91 234.329 603.945C234.442 603.957 234.56 603.957 234.679 603.957C234.933 603.957 235.188 603.939 235.431 603.904C236.041 603.815 236.609 603.619 237.124 603.335C237.249 603.27 237.367 603.193 237.48 603.116C237.906 602.837 238.285 602.5 238.611 602.109C238.652 602.055 238.694 602.008 238.735 601.955C239.061 601.534 239.321 601.06 239.493 600.551C239.683 600.018 239.783 599.443 239.783 598.851C239.783 596.641 238.386 594.763 236.426 594.052C236.408 594.04 236.39 594.034 236.372 594.034C235.863 593.857 235.324 593.756 234.762 593.75C234.744 593.75 234.726 593.75 234.703 593.75H234.673C233.749 593.75 232.879 593.999 232.133 594.431C231.623 594.716 231.179 595.095 230.8 595.533C230.516 595.865 230.267 596.238 230.078 596.635C229.823 597.162 229.657 597.743 229.592 598.347C229.574 598.519 229.562 598.691 229.562 598.862L229.574 598.851Z" fill="#030303"/>
<path d="M355.676 551.928C355.848 552.467 356.013 553 356.185 553.539C356.73 553.391 357.275 553.249 357.825 553.113C361.384 552.26 365.097 551.803 368.911 551.803C381.636 551.803 393.58 556.78 402.552 565.808L402.605 565.861C403.067 566.258 403.795 567.164 403.535 567.502C403.292 567.804 401.516 567.68 399.78 567.105L399.751 567.188L399.242 568.705C399.727 568.864 400.758 569.173 401.823 569.297C403.008 569.427 404.245 569.327 404.861 568.539C405.945 567.141 404.66 565.417 403.718 564.599C394.433 555.257 382.069 550.121 368.905 550.121C364.914 550.121 361.029 550.601 357.31 551.507C356.76 551.638 356.215 551.78 355.67 551.934L355.676 551.928Z" fill="#030303"/>
<path d="M319.809 599.236C319.809 603.134 320.27 607.008 321.171 610.764L321.194 610.847C321.621 612.062 322.781 613.945 324.558 613.945C324.735 613.945 324.913 613.928 325.097 613.886C325.718 613.756 326.18 613.448 326.512 613.033C327.311 612.056 327.406 610.498 327.276 609.467C327.276 609.461 327.276 609.455 327.276 609.455C327.276 609.443 327.276 609.425 327.276 609.414L325.606 609.633C325.606 609.633 325.606 609.668 325.618 609.733C325.653 610.184 325.73 612.038 324.765 612.239C323.705 612.453 322.917 610.592 322.811 610.326C321.952 606.718 321.508 602.992 321.508 599.248C321.508 578.65 334.702 561.08 353.077 554.54C353.609 554.35 354.142 554.173 354.675 554.001C354.504 553.462 354.338 552.929 354.166 552.39C353.627 552.556 353.094 552.733 352.561 552.923C333.499 559.676 319.815 577.892 319.815 599.242L319.809 599.236Z" fill="#030303"/>
<path d="M264.571 562.733C265.015 563.094 265.448 563.473 265.874 563.852C270.913 568.384 274.993 573.988 277.706 580.333C277.854 580.665 277.99 581.008 278.126 581.346C278.523 582.335 278.884 583.342 279.216 584.361C279.322 584.693 279.429 585.036 279.529 585.374C279.826 586.375 280.092 587.394 280.317 588.431C280.447 588.988 280.56 589.545 280.661 590.107C281.241 590.078 281.803 590.048 282.36 590.024C282.265 589.462 282.153 588.905 282.034 588.342C281.815 587.347 281.567 586.357 281.288 585.374C281.193 585.031 281.093 584.693 280.986 584.361C280.678 583.342 280.329 582.335 279.95 581.346C279.82 581.002 279.689 580.665 279.547 580.333C276.835 573.686 272.66 567.667 267.283 562.762C266.999 562.496 266.703 562.241 266.413 561.98C266.271 561.856 266.129 561.738 265.987 561.625C265.507 561.992 265.033 562.36 264.565 562.739L264.571 562.733Z" fill="#030303"/>
<path d="M189.97 580.848C190.177 581.465 190.633 581.921 191.285 582.158C191.995 582.418 192.635 582.472 193.185 582.406C194.559 582.247 195.4 581.37 195.447 581.322L194.222 580.161C194.222 580.161 194.174 580.209 194.097 580.268C193.801 580.499 192.99 580.997 191.871 580.576C191.658 580.499 191.598 580.398 191.569 580.303C191.385 579.77 191.853 578.633 192.232 578.029L192.273 577.952C200.108 562.022 216.688 551.732 234.513 551.732C244.112 551.732 253.172 554.7 260.722 559.818C261.214 560.15 261.699 560.494 262.179 560.849C262.652 560.464 263.132 560.085 263.612 559.718C263.138 559.356 262.652 559.007 262.161 558.675C254.072 553.077 244.437 550.044 234.507 550.044C225.239 550.044 216.215 552.65 208.416 557.585C200.818 562.389 194.719 569.161 190.769 577.176C190.55 577.531 189.472 579.415 189.964 580.848H189.97Z" fill="#030303"/>
<path d="M273.756 598.851C273.756 599.876 273.714 600.895 273.637 601.902L277.504 602.056C277.581 600.996 277.622 599.929 277.622 598.851C277.622 595.925 277.326 593.063 276.77 590.297C275.491 590.362 274.188 590.427 272.855 590.492C273.448 593.188 273.756 595.978 273.756 598.851Z" fill="#CE6326"/>
<path d="M239.789 598.851C239.789 599.444 239.688 600.018 239.499 600.551L270.6 601.783C270.677 600.818 270.718 599.835 270.718 598.851C270.718 596.031 270.392 593.283 269.777 590.646C255.89 591.346 241.074 592.092 239.233 592.21C237.545 592.317 236.846 593.022 236.544 593.591C236.544 593.591 236.544 593.591 236.544 593.597L236.438 594.053C238.398 594.764 239.795 596.647 239.795 598.851H239.789Z" fill="#CE6326"/>
<path d="M234.649 594.213L235.496 594.242L236.337 594.284C236.337 594.284 236.337 594.278 236.337 594.272C236.337 594.231 236.349 594.148 236.373 594.035C236.402 593.917 236.456 593.763 236.533 593.597C236.533 593.597 236.533 593.597 236.533 593.591C236.829 593.028 237.527 592.323 239.221 592.211C241.063 592.092 255.879 591.346 269.765 590.647C270.801 590.593 271.832 590.54 272.844 590.493C274.171 590.427 275.479 590.362 276.758 590.297C277.333 590.268 277.901 590.238 278.464 590.214C279.21 590.179 279.944 590.137 280.661 590.108C281.241 590.078 281.804 590.048 282.36 590.025C283.337 589.971 284.273 589.924 285.173 589.882C285.564 589.865 285.937 589.847 286.31 589.823C286.707 589.805 287.086 589.788 287.459 589.764C287.85 589.746 288.229 589.728 288.596 589.711C292.386 589.521 294.814 589.403 294.926 589.391H294.973C294.973 589.391 298.023 589.112 300.777 590.99C302.755 592.341 304.815 594.799 305.875 596.156C306.722 597.24 307.35 598.407 307.735 599.639C308.137 600.913 308.155 601.873 307.788 602.145C307.143 602.613 306.088 602.856 305.088 602.974C304.732 603.016 304.383 603.04 304.063 603.057C303.548 603.081 303.11 603.075 302.826 603.057L301.096 602.992L300.084 602.951L296.116 602.791L294.92 602.743L293.825 602.702L292.623 602.654L288.318 602.483L287.305 602.441L284.078 602.311L283.065 602.269L279.174 602.115L277.487 602.05L273.62 601.896L270.582 601.778L239.481 600.546L238.664 600.51L238.611 601.861L238.599 602.104V602.198L239.061 602.216L270.41 603.46L273.46 603.585L277.333 603.739L279.026 603.804L283.172 603.964L284.196 604.005L287.548 604.141L288.62 604.183L293.635 604.384L294.837 604.432L295.915 604.473L297.111 604.521L299.646 604.621L300.717 604.663L302.743 604.746C302.826 604.746 303.057 604.757 303.382 604.757C303.513 604.757 303.655 604.757 303.809 604.752C304.117 604.746 304.478 604.728 304.863 604.692C306.142 604.58 307.711 604.272 308.765 603.508C309.825 602.743 310.015 601.268 309.334 599.124C308.883 597.702 308.161 596.351 307.19 595.107C305.828 593.366 303.773 590.996 301.718 589.592C299.308 587.945 296.78 587.691 295.548 587.679C295.163 587.679 294.902 587.697 294.82 587.702C294.731 587.702 294.393 587.72 293.831 587.75C293.44 587.768 292.948 587.791 292.362 587.827C291.859 587.856 291.284 587.88 290.645 587.916C289.756 587.957 288.75 588.005 287.642 588.064C287.275 588.082 286.896 588.105 286.511 588.123C286.132 588.141 285.748 588.159 285.351 588.182C284.978 588.2 284.599 588.218 284.214 588.236C283.509 588.271 282.787 588.313 282.035 588.342C281.472 588.372 280.898 588.401 280.317 588.431C279.595 588.467 278.855 588.508 278.103 588.544C277.54 588.573 276.966 588.603 276.385 588.627C275.1 588.692 273.78 588.757 272.442 588.822C271.417 588.875 270.375 588.929 269.339 588.976C260.646 589.414 251.633 589.871 245.699 590.179C245.054 590.208 244.444 590.244 243.875 590.267C242.721 590.327 241.738 590.38 240.962 590.422C240.062 590.469 239.434 590.504 239.132 590.522H239.12C238.362 590.576 237.723 590.718 237.19 590.937C235.976 591.423 235.289 592.252 234.945 593.028C234.945 593.028 234.945 593.034 234.945 593.04C234.839 593.289 234.762 593.526 234.715 593.745C234.679 593.917 234.661 594.077 234.655 594.219L234.649 594.213Z" fill="#030303"/>
<path d="M283.076 602.465C283.076 602.974 283.112 603.478 283.183 603.97C283.917 609.337 288.53 613.484 294.09 613.484C295.636 613.484 297.105 613.164 298.437 612.589C298.745 612.453 299.053 612.305 299.349 612.145L298.84 611.268C298.544 611.428 298.236 611.576 297.922 611.706C296.743 612.198 295.447 612.47 294.09 612.47C289.098 612.47 284.953 608.798 284.207 604.011C284.13 603.508 284.089 602.992 284.089 602.465C284.089 602.412 284.089 602.364 284.089 602.317L283.076 602.275C283.076 602.341 283.076 602.4 283.076 602.465ZM299.574 610.83L300.083 611.706C300.367 611.523 300.646 611.321 300.912 611.114C302.908 609.532 304.347 607.275 304.88 604.692C304.992 604.13 305.069 603.555 305.099 602.968C304.744 603.01 304.394 603.034 304.074 603.051C304.045 603.632 303.962 604.201 303.826 604.752C303.316 606.938 302.085 608.851 300.397 610.219C300.137 610.439 299.858 610.64 299.574 610.824V610.83Z" fill="#030303"/>
<path d="M297.508 607.228L298.017 608.111C298.301 607.921 298.574 607.714 298.828 607.483C299.681 606.724 300.344 605.753 300.735 604.663C300.93 604.13 301.055 603.567 301.108 602.986L300.095 602.945C300.036 603.531 299.888 604.1 299.663 604.621C299.349 605.368 298.881 606.031 298.307 606.582C298.058 606.819 297.792 607.032 297.508 607.222V607.228ZM287.316 602.447C287.322 603.034 287.405 603.608 287.559 604.153C288.359 607.086 291.047 609.248 294.227 609.248C294.949 609.248 295.642 609.135 296.3 608.928C296.625 608.827 296.945 608.697 297.247 608.549L296.732 607.672C296.424 607.82 296.104 607.939 295.767 608.028C295.275 608.164 294.754 608.235 294.221 608.235C291.616 608.235 289.407 606.541 288.625 604.195C288.447 603.656 288.341 603.081 288.329 602.489L287.316 602.447Z" fill="#030303"/>
<path d="M298.461 619.236C298.461 620.622 299.592 621.759 300.984 621.759H311.275C312.661 621.759 313.792 620.628 313.792 619.236C313.792 617.843 312.661 616.712 311.275 616.712H300.984C300.936 616.712 300.889 616.712 300.847 616.718C299.521 616.789 298.467 617.891 298.467 619.23L298.461 619.236ZM299.474 619.236C299.474 618.406 300.149 617.731 300.978 617.731H311.27C312.099 617.731 312.774 618.406 312.774 619.236C312.774 620.065 312.099 620.74 311.27 620.74H300.978C300.149 620.74 299.474 620.065 299.474 619.236Z" fill="#030303"/>
<path d="M299.474 619.235C299.474 620.065 300.149 620.74 300.978 620.74H311.27C312.099 620.74 312.774 620.065 312.774 619.235C312.774 618.406 312.099 617.73 311.27 617.73H300.978C300.149 617.73 299.474 618.406 299.474 619.235Z" fill="#4F4F4F"/>
<path d="M279.215 584.361C279.322 584.693 279.428 585.037 279.529 585.374H284.936L284.355 584.361H279.215ZM279.215 584.361C279.322 584.693 279.428 585.037 279.529 585.374H284.936L284.355 584.361H279.215ZM279.215 584.361C279.322 584.693 279.428 585.037 279.529 585.374H284.936L284.355 584.361H279.215ZM279.215 584.361C279.322 584.693 279.428 585.037 279.529 585.374H284.936L284.355 584.361H279.215ZM279.215 584.361C279.322 584.693 279.428 585.037 279.529 585.374H284.936L284.355 584.361H279.215ZM279.215 584.361C279.322 584.693 279.428 585.037 279.529 585.374H284.936L284.355 584.361H279.215ZM279.215 584.361C279.322 584.693 279.428 585.037 279.529 585.374H284.936L284.355 584.361H279.215ZM279.215 584.361C279.322 584.693 279.428 585.037 279.529 585.374H284.936L284.355 584.361H279.215ZM279.215 584.361C279.322 584.693 279.428 585.037 279.529 585.374H284.936L284.355 584.361H279.215ZM279.215 584.361C279.322 584.693 279.428 585.037 279.529 585.374H284.936L284.355 584.361H279.215ZM279.215 584.361C279.322 584.693 279.428 585.037 279.529 585.374H284.936L284.355 584.361H279.215ZM287.44 582.851C287.44 583.68 286.765 584.355 285.936 584.355H279.215C279.322 584.687 279.428 585.031 279.529 585.369H285.936C285.996 585.369 286.049 585.368 286.102 585.357C287.411 585.274 288.453 584.178 288.453 582.845C288.453 581.512 287.322 580.321 285.936 580.321H277.699C277.847 580.653 277.983 580.997 278.12 581.334H285.93C286.759 581.334 287.434 582.01 287.434 582.839L287.44 582.851ZM273.797 581.145C273.963 581.5 274.123 581.867 274.271 582.229C274.507 581.708 275.029 581.346 275.644 581.346H275.733C275.591 581.014 275.449 580.689 275.295 580.357C274.703 580.434 274.176 580.724 273.797 581.145ZM275.064 584.243C275.2 584.616 275.325 584.983 275.455 585.363C275.52 585.368 275.585 585.374 275.65 585.374H277.237C277.131 585.037 277.018 584.693 276.906 584.361H275.656C275.449 584.361 275.254 584.32 275.07 584.243H275.064ZM279.215 584.361C279.322 584.693 279.428 585.037 279.529 585.374H284.936L284.355 584.361H279.215ZM279.215 584.361C279.322 584.693 279.428 585.037 279.529 585.374H284.936L284.355 584.361H279.215ZM279.215 584.361C279.322 584.693 279.428 585.037 279.529 585.374H284.936L284.355 584.361H279.215ZM279.215 584.361C279.322 584.693 279.428 585.037 279.529 585.374H284.936L284.355 584.361H279.215ZM279.215 584.361C279.322 584.693 279.428 585.037 279.529 585.374H284.936L284.355 584.361H279.215ZM279.215 584.361C279.322 584.693 279.428 585.037 279.529 585.374H284.936L284.355 584.361H279.215ZM279.215 584.361C279.322 584.693 279.428 585.037 279.529 585.374H284.936L284.355 584.361H279.215ZM279.215 584.361C279.322 584.693 279.428 585.037 279.529 585.374H284.936L284.355 584.361H279.215ZM279.215 584.361C279.322 584.693 279.428 585.037 279.529 585.374H284.936L284.355 584.361H279.215ZM279.215 584.361C279.322 584.693 279.428 585.037 279.529 585.374H284.936L284.355 584.361H279.215Z" fill="#030303"/>
<path d="M298.822 607.488L300.392 610.225C302.079 608.856 303.311 606.943 303.82 604.757C303.666 604.763 303.524 604.763 303.394 604.763C303.068 604.763 302.837 604.751 302.754 604.751L300.729 604.668C300.338 605.758 299.675 606.724 298.822 607.488Z" fill="#5D5D5D"/>
<path d="M294.932 602.743L295.926 604.479L297.508 607.228L298.011 608.11L299.574 610.829L300.084 611.706L302.955 616.712L303.524 617.701L304.406 617.198L304.122 616.712L300.907 611.12L300.397 610.225L298.822 607.488L298.307 606.588L297.123 604.526L296.128 602.791L294.932 602.743Z" fill="#030303"/>
<path d="M279.956 581.346C280.335 582.335 280.684 583.342 280.992 584.361H285.943C286.772 584.361 287.447 583.686 287.447 582.856C287.447 582.027 286.772 581.352 285.943 581.352H279.956V581.346Z" fill="#4F4F4F"/>
<path d="M284.361 584.361L284.942 585.374L286.517 588.123L287.458 589.764C287.849 589.746 288.228 589.728 288.595 589.711L287.648 588.064L286.102 585.368L285.522 584.367H284.355L284.361 584.361Z" fill="#030303"/>
<path d="M284.207 604.011C284.953 608.797 289.098 612.47 294.09 612.47C295.446 612.47 296.743 612.198 297.922 611.706L296.299 608.928C295.642 609.135 294.949 609.248 294.227 609.248C291.047 609.248 288.358 607.085 287.559 604.153L284.207 604.017V604.011Z" fill="#4F4F4F"/>
<path d="M294.849 604.438L296.732 607.672L297.247 608.549L298.84 611.274L299.349 612.15L302.014 616.712H302.955L300.083 611.706L299.574 610.829L298.011 608.11L297.507 607.228L295.926 604.479L294.849 604.438Z" fill="#5D5D5D"/>
<path d="M292.634 602.654L293.646 604.39L295.772 608.027L296.299 608.928L297.916 611.706L298.437 612.589L300.847 616.718L301.285 617.476L302.162 616.967L302.014 616.712L299.349 612.15L298.84 611.274L297.247 608.549L296.732 607.672L294.848 604.437L293.836 602.702L292.634 602.654Z" fill="#030303"/>
<path d="M279.311 598.851C279.311 599.952 279.269 601.042 279.186 602.121L283.077 602.275L284.089 602.316L287.317 602.446L288.329 602.488L292.634 602.66L293.836 602.707L294.932 602.748L296.128 602.796L300.096 602.956L301.108 602.997L302.837 603.062C303.122 603.074 303.56 603.08 304.075 603.062C304.395 603.045 304.744 603.021 305.099 602.979C306.1 602.855 307.154 602.612 307.8 602.15C308.173 601.878 308.155 600.918 307.746 599.644C307.356 598.418 306.734 597.245 305.887 596.161C304.827 594.81 302.766 592.346 300.788 590.995C298.035 589.112 295.015 589.384 294.985 589.39H294.938C294.825 589.402 292.397 589.52 288.608 589.71C288.24 589.728 287.861 589.745 287.471 589.763C287.098 589.781 286.719 589.799 286.322 589.822C285.949 589.84 285.57 589.858 285.185 589.882C284.291 589.923 283.349 589.971 282.372 590.024C281.815 590.053 281.253 590.077 280.673 590.107C279.956 590.142 279.222 590.178 278.476 590.213C279.032 593.009 279.316 595.9 279.316 598.851H279.311Z" fill="#CE6326"/>
<path d="M283.722 585.374L285.356 588.176C285.753 588.158 286.138 588.135 286.517 588.117L284.942 585.368H283.722V585.374Z" fill="#5D5D5D"/>
<path d="M282.484 585.261L282.55 585.368L284.219 588.229L285.179 589.876C285.57 589.858 285.943 589.841 286.316 589.817L285.356 588.176L283.722 585.374L283.361 584.758L282.484 585.267V585.261Z" fill="#030303"/>
<path d="M281.377 532.71L281.513 533.297L293.848 587.75L294.067 588.733L295.719 588.36L295.565 587.678H295.559L294.57 583.289L294.162 581.482L293.682 579.385L293.28 577.59L283.201 533.101L283.023 532.331L281.377 532.71Z" fill="#030303"/>
<path d="M277.842 532.971L278.008 533.676L281.377 548.113L281.762 549.771L282.354 552.319L282.745 553.983L290.662 587.916L290.864 588.798L292.51 588.413L292.374 587.827L279.701 533.498L279.488 532.586L277.842 532.971Z" fill="#030303"/>
<path d="M263.292 530.05C264.323 532.343 266.668 533.196 267.799 533.605C269.113 534.079 270.327 534.209 271.387 534.209C272.068 534.209 272.678 534.156 273.217 534.108C275.112 533.948 276.675 533.806 278.002 533.67C278.612 533.611 279.174 533.551 279.695 533.492C280.358 533.427 280.951 533.356 281.507 533.291C282.117 533.226 282.668 533.16 283.195 533.095C283.45 533.066 283.698 533.036 283.941 533.006C284.569 532.929 285.179 532.852 285.83 532.781L286.825 532.669C290.71 532.23 293.28 531.94 294.736 530.044C295.056 529.63 295.909 528.522 295.773 527.011C295.755 526.84 295.589 525.329 294.411 524.429C293.777 523.943 293.06 523.777 292.326 523.777C291.515 523.777 290.68 523.978 289.892 524.162C289.738 524.198 289.579 524.239 289.425 524.275C289.395 524.28 286.57 524.914 282.354 524.914H282.342C280.607 524.914 277.747 524.126 272.044 522.557L271.168 522.314C268.255 521.508 267.278 521.236 265.987 521.864C263.346 523.155 262.013 527.207 263.286 530.044L263.292 530.05ZM266.733 523.386C267.42 523.048 268.018 523.19 270.718 523.943L271.6 524.186C277.445 525.797 280.382 526.603 282.348 526.603H282.36C286.783 526.603 289.685 525.945 289.809 525.916C289.969 525.88 290.129 525.839 290.295 525.803C291.533 525.507 292.693 525.228 293.392 525.761C294.008 526.235 294.097 527.142 294.103 527.154C294.18 528.007 293.659 528.682 293.41 529.008C292.385 530.335 290.106 530.595 286.647 530.986L285.647 531.099C284.995 531.176 284.379 531.247 283.746 531.324C281.377 531.608 278.694 531.94 273.075 532.42C271.79 532.527 270.185 532.663 268.373 532.005C267.396 531.65 265.572 530.986 264.832 529.345C263.843 527.16 265.075 524.186 266.733 523.38V523.386Z" fill="#030303"/>
<path d="M264.832 529.357C265.572 530.998 267.396 531.655 268.373 532.017C270.185 532.674 271.784 532.538 273.075 532.432C278.689 531.952 281.377 531.626 283.746 531.336C284.379 531.259 284.995 531.182 285.647 531.11L286.647 530.998C290.106 530.607 292.385 530.346 293.41 529.019C293.659 528.694 294.174 528.024 294.103 527.165C294.103 527.153 294.008 526.247 293.392 525.773C292.693 525.24 291.533 525.518 290.295 525.814C290.135 525.85 289.975 525.891 289.81 525.927C289.685 525.957 286.784 526.614 282.36 526.614H282.348C280.388 526.614 277.451 525.803 271.6 524.197L270.718 523.954C268.018 523.202 267.42 523.06 266.733 523.398C265.075 524.203 263.843 527.177 264.832 529.363V529.357Z" fill="#7C5039"/>
<path d="M279.701 533.498L292.374 587.827C292.96 587.797 293.457 587.773 293.842 587.75L281.507 533.297C280.951 533.362 280.359 533.427 279.695 533.498H279.701Z" fill="#CE6326"/>
<path d="M293.138 582.246L294.15 583.603L294.571 583.289L349.234 542.414L350.613 541.377L349.607 540.026L348.695 540.708L294.162 581.482L293.138 582.246Z" fill="#030303"/>
<path d="M292.107 578.449L293.108 579.805L293.683 579.385L348.227 539.214L349.346 538.391L348.346 537.028L347.688 537.514L293.28 577.59L292.107 578.449Z" fill="#030303"/>
<path d="M264.109 565.31C268.823 569.457 272.66 574.581 275.301 580.357C275.449 580.682 275.597 581.014 275.74 581.346C276.16 582.335 276.551 583.342 276.9 584.361C277.013 584.693 277.125 585.037 277.232 585.374C277.563 586.417 277.854 587.471 278.108 588.544C278.86 588.508 279.6 588.467 280.323 588.431C280.098 587.394 279.831 586.381 279.535 585.374C279.435 585.031 279.328 584.693 279.221 584.361C278.89 583.342 278.529 582.335 278.132 581.346C277.996 581.002 277.859 580.665 277.711 580.333C274.999 573.994 270.919 568.384 265.88 563.853C265.288 564.326 264.696 564.818 264.115 565.31H264.109Z" fill="#CE6326"/>
<path d="M243.833 590.249L243.875 590.267L245.39 590.901C245.491 590.658 245.598 590.415 245.698 590.172C248.701 583.212 252.852 576.849 257.903 571.31C258.584 570.558 259.283 569.823 259.999 569.101C260.917 568.183 261.853 567.288 262.818 566.423C263.238 566.044 263.671 565.671 264.103 565.304C264.683 564.812 265.27 564.326 265.868 563.846C266.335 563.473 266.809 563.112 267.283 562.75C272.008 559.184 277.196 556.216 282.738 553.977C283.023 553.864 283.307 553.752 283.591 553.639L282.981 552.063C282.774 552.146 282.561 552.229 282.348 552.312C276.467 554.658 270.966 557.81 265.98 561.613C265.5 561.98 265.027 562.347 264.559 562.727C263.961 563.206 263.369 563.698 262.788 564.202C262.356 564.575 261.93 564.954 261.503 565.333C260.538 566.204 259.597 567.104 258.685 568.029C257.962 568.751 257.263 569.486 256.582 570.244C251.259 576.103 246.912 582.856 243.827 590.249H243.833Z" fill="#030303"/>
<path d="M243.874 590.268L243.833 590.25C246.918 582.857 251.265 576.103 256.588 570.245C257.269 569.492 257.974 568.752 258.69 568.029C259.602 567.105 260.544 566.205 261.509 565.334C261.936 564.955 262.362 564.575 262.794 564.202C263.375 563.699 263.967 563.207 264.565 562.727C265.033 562.348 265.506 561.981 265.986 561.614C270.966 557.81 276.473 554.665 282.353 552.313L281.761 549.766C275.2 552.135 269.089 555.524 263.611 559.718C263.126 560.085 262.646 560.464 262.178 560.849C261.568 561.341 260.964 561.845 260.372 562.354C259.934 562.733 259.502 563.118 259.075 563.509C258.104 564.398 257.157 565.31 256.233 566.252C255.516 566.987 254.812 567.739 254.131 568.509C248.44 574.871 243.928 582.3 240.955 590.41C241.737 590.368 242.72 590.315 243.869 590.256L243.874 590.268Z" fill="#CE6326"/>
<path d="M191.569 580.309C191.599 580.404 191.658 580.505 191.871 580.582C192.99 581.003 193.802 580.505 194.098 580.28C201.156 564.907 216.695 554.208 234.679 554.208C243.603 554.208 251.923 556.845 258.905 561.371C259.497 560.849 260.107 560.334 260.717 559.83C253.166 554.712 244.106 551.744 234.507 551.744C216.683 551.744 200.102 562.034 192.268 577.964L192.226 578.041C191.853 578.645 191.38 579.782 191.563 580.315L191.569 580.309Z" fill="#CE6326"/>
<path d="M238.983 590.943L240.576 591.499C240.701 591.144 240.831 590.777 240.955 590.427C243.928 582.311 248.44 574.889 254.131 568.526C254.818 567.756 255.517 567.004 256.233 566.269C257.157 565.327 258.104 564.415 259.076 563.527C259.502 563.136 259.934 562.75 260.372 562.371C260.965 561.862 261.563 561.352 262.179 560.867C262.652 560.482 263.132 560.102 263.612 559.735C269.083 555.535 275.2 552.153 281.762 549.783C282.087 549.659 282.419 549.546 282.75 549.433L282.2 547.834C281.927 547.929 281.649 548.029 281.377 548.124C274.49 550.589 267.976 554.184 262.167 558.693C261.681 559.066 261.196 559.451 260.722 559.836C260.106 560.339 259.502 560.855 258.91 561.376C258.472 561.755 258.033 562.152 257.607 562.549C256.938 563.159 256.287 563.787 255.647 564.427C255.345 564.723 255.049 565.031 254.759 565.333C254.036 566.074 253.338 566.838 252.651 567.614C246.735 574.314 242.104 582.151 239.137 590.534C239.084 590.67 239.037 590.812 238.989 590.954L238.983 590.943Z" fill="#030303"/>
<path d="M321.496 599.236C321.496 602.98 321.934 606.706 322.799 610.314C322.905 610.587 323.693 612.441 324.753 612.228C325.718 612.026 325.635 610.172 325.606 609.722C324.848 606.464 324.445 603.069 324.445 599.58C324.445 580.244 336.798 563.74 354.018 557.55C353.698 556.537 353.378 555.529 353.065 554.528C334.69 561.062 321.496 578.639 321.496 599.236Z" fill="#CE6326"/>
<path d="M357.819 553.118C358.145 554.154 358.459 555.162 358.767 556.145C362.071 555.357 365.529 554.942 369.07 554.942C380.943 554.942 391.75 559.605 399.751 567.193L399.78 567.11C401.515 567.685 403.292 567.809 403.535 567.507C403.789 567.175 403.061 566.263 402.605 565.866L402.552 565.813C393.58 556.785 381.636 551.809 368.911 551.809C365.091 551.809 361.378 552.259 357.825 553.118H357.819Z" fill="#CE6326"/>
<path d="M345.219 523.848C345.248 524.031 345.308 524.322 345.444 524.754C345.663 525.489 349.595 537.935 354.16 552.383C354.332 552.917 354.498 553.456 354.67 553.995C354.99 554.996 355.303 556.003 355.623 557.01C355.795 557.543 355.967 558.082 356.132 558.621C356.523 559.848 356.908 561.08 357.299 562.306C357.607 563.278 357.909 564.243 358.217 565.209C362.078 577.436 365.767 589.1 367.538 594.71C367.988 594.562 368.467 594.485 368.971 594.479C367.662 590.22 363.955 578.354 359.703 564.776C359.401 563.817 359.099 562.845 358.791 561.874C358.412 560.647 358.027 559.415 357.636 558.177C357.465 557.638 357.299 557.105 357.133 556.56C356.813 555.559 356.5 554.552 356.186 553.544C356.014 553.005 355.848 552.472 355.676 551.933C352.485 541.738 349.305 531.596 346.835 523.729L346.812 523.634C346.794 523.557 346.735 523.433 346.681 523.403C346.64 523.38 346.51 523.368 346.261 523.463L345.225 523.854L345.219 523.848Z" fill="#CE6326"/>
<path d="M293.682 579.385L294.155 581.482L348.694 540.708C348.534 540.198 348.374 539.707 348.226 539.215L293.682 579.385Z" fill="#CE6326"/>
<path d="M343.827 525.24C343.963 525.702 345.485 530.524 347.688 537.508C347.866 538.065 348.043 538.628 348.227 539.214C348.381 539.7 348.535 540.198 348.695 540.707C348.872 541.264 349.05 541.839 349.234 542.413C350.27 545.677 351.389 549.232 352.556 552.922C352.727 553.456 352.893 553.995 353.065 554.534C353.379 555.535 353.699 556.542 354.018 557.555C354.19 558.094 354.362 558.627 354.528 559.166C354.918 560.393 355.303 561.625 355.694 562.851C356.002 563.823 356.304 564.788 356.612 565.76C359.875 576.079 363.007 586.002 364.979 592.228C365.37 593.478 365.72 594.568 366.01 595.492C366.128 595.859 366.235 596.197 366.335 596.511C366.702 597.678 366.945 598.436 367.022 598.697L368.295 598.294L368.633 598.187C368.621 598.158 368.568 597.986 368.479 597.696C368.396 597.423 368.272 597.044 368.124 596.576C368.041 596.309 367.946 596.019 367.845 595.693C367.751 595.391 367.644 595.065 367.537 594.722C365.767 589.112 362.078 577.448 358.217 565.221C357.909 564.255 357.607 563.289 357.299 562.318C356.908 561.086 356.523 559.859 356.132 558.633C355.961 558.094 355.795 557.561 355.623 557.022C355.303 556.009 354.989 555.002 354.67 554.007C354.498 553.467 354.332 552.934 354.16 552.395C349.595 537.947 345.663 525.501 345.444 524.766C345.313 524.333 345.248 524.043 345.219 523.86L346.255 523.469C346.504 523.374 346.634 523.386 346.675 523.409C346.735 523.439 346.788 523.569 346.806 523.64L346.829 523.735C349.299 531.596 352.479 541.744 355.67 551.939C355.842 552.478 356.008 553.011 356.18 553.55C356.494 554.557 356.807 555.565 357.127 556.566C357.293 557.105 357.459 557.644 357.631 558.183C358.021 559.421 358.406 560.659 358.785 561.879C359.093 562.851 359.395 563.823 359.697 564.782C363.949 578.366 367.656 590.226 368.965 594.485C369.059 594.799 369.142 595.071 369.213 595.296C369.361 595.776 369.444 596.067 369.468 596.144L370.196 595.96H371.138C371.138 595.924 371.138 595.889 370.972 595.326C370.931 595.184 370.877 595.006 370.812 594.787C370.658 594.272 370.433 593.525 370.09 592.441C368.935 588.685 366.495 580.836 361.337 564.379C361.041 563.437 360.739 562.466 360.426 561.465C360.052 560.274 359.668 559.036 359.271 557.762C359.099 557.229 358.933 556.696 358.762 556.145C358.454 555.162 358.134 554.155 357.814 553.118C357.648 552.585 357.482 552.052 357.305 551.507C354.824 543.592 351.898 534.262 348.446 523.261C348.387 523.018 348.174 522.319 347.504 521.934C347.291 521.81 346.989 521.697 346.587 521.691C346.314 521.691 346 521.745 345.645 521.875L345.586 521.893L344.372 522.349L344.248 522.39C344.052 522.444 343.88 522.562 343.744 522.722C343.661 522.823 343.602 522.935 343.561 523.066C343.407 523.522 343.49 524.179 343.803 525.228L343.827 525.24Z" fill="#030303"/>
<path d="M330.734 508.89C332.315 509.198 337.26 510.513 340.57 515.187C342.844 518.398 344.058 520.856 344.68 522.361L345.894 521.905C345.479 520.554 344.283 516.994 342.88 515.43C342.726 515.258 342.649 515.027 342.672 514.796C342.696 514.565 342.815 514.352 343.004 514.21C343.703 513.688 346.03 511.887 346.498 510.525C346.587 510.264 346.699 509.98 346.818 509.69C347.516 507.942 348.304 505.958 346.533 503.576C345.017 501.544 343.679 500.117 343.016 499.441C342.951 499.376 342.874 499.364 342.832 499.364C342.791 499.364 342.72 499.376 342.655 499.447L341.897 500.306C341.867 500.342 341.861 500.377 341.861 500.401C341.861 500.425 341.873 500.466 341.914 500.502C343.022 501.449 346.018 504.613 345.882 506.437C345.734 508.463 345.355 510.46 342.412 512.563C341.855 512.96 341.097 512.871 340.641 512.361C339.67 511.271 336.774 508.635 330.853 507.61L330.758 508.89H330.734Z" fill="#4F4F4F"/>
<path d="M329.715 508.902C329.68 509.364 329.999 509.778 330.455 509.867C330.473 509.867 330.485 509.873 330.497 509.879C331.936 510.157 336.614 511.372 339.735 515.773C342.133 519.156 343.317 521.691 343.862 523.078C344.164 523.842 344.265 524.256 344.271 524.268L345.254 524.031C345.242 523.978 345.1 523.397 344.667 522.355C344.052 520.85 342.832 518.392 340.558 515.181C337.248 510.513 332.303 509.192 330.722 508.884L330.817 507.604C336.738 508.629 339.634 511.265 340.605 512.355C341.061 512.865 341.825 512.948 342.376 512.557C345.319 510.454 345.698 508.457 345.846 506.431C345.976 504.613 342.98 501.443 341.878 500.495C341.837 500.46 341.831 500.418 341.825 500.395C341.825 500.371 341.825 500.336 341.861 500.3L342.618 499.441C342.684 499.37 342.755 499.358 342.796 499.358C342.838 499.358 342.915 499.364 342.98 499.435C343.643 500.11 344.987 501.538 346.497 503.57C348.268 505.951 347.48 507.93 346.781 509.684C346.669 509.98 346.556 510.258 346.462 510.519C345.994 511.881 343.667 513.682 342.968 514.204C342.778 514.34 342.66 514.553 342.636 514.79C342.613 515.021 342.69 515.252 342.844 515.424C344.247 516.988 345.443 520.548 345.858 521.899C345.958 522.225 346.012 522.42 346.018 522.432L346.995 522.159C346.983 522.124 346.941 521.958 346.858 521.697C346.462 520.4 345.26 516.733 343.732 514.903C344.78 514.115 346.9 512.367 347.415 510.856C347.504 510.608 347.61 510.341 347.717 510.063C348.434 508.268 349.411 505.803 347.297 502.972C345.745 500.892 344.371 499.417 343.69 498.73C343.442 498.481 343.104 498.339 342.761 498.357C342.737 498.357 342.707 498.357 342.684 498.363C342.364 498.387 342.062 498.541 341.849 498.778L341.677 498.973L341.091 499.637C341.026 499.714 340.966 499.796 340.919 499.891C340.83 500.069 340.783 500.27 340.801 500.478C340.812 500.673 340.878 500.857 340.978 501.023C341.037 501.118 341.114 501.2 341.203 501.277C342.713 502.569 344.898 505.276 344.815 506.366C344.679 508.28 344.365 509.891 341.766 511.745C341.635 511.84 341.446 511.822 341.339 511.698C340.291 510.519 337.182 507.681 330.911 506.609C330.905 506.609 330.899 506.609 330.899 506.609C330.882 506.609 330.858 506.603 330.84 506.597C330.592 506.556 330.337 506.621 330.136 506.775C329.964 506.905 329.851 507.095 329.81 507.296C329.804 507.338 329.798 507.379 329.792 507.421L329.686 508.83V508.908L329.715 508.902Z" fill="#030303"/>
<path d="M329.568 494.838C330.509 495.359 338.74 498.931 340.949 499.885C340.991 499.796 341.05 499.707 341.121 499.63L341.707 498.967L330.9 493.078C330.657 492.984 329.982 492.782 329.586 492.948C329.455 493.007 329.378 493.09 329.319 493.232L329.307 493.274C329.003 494.048 329.09 494.567 329.568 494.832V494.838Z" fill="#4F4F4F"/>
<path d="M329.082 495.727C330.172 496.331 339.942 500.555 341.014 501.017C341.05 501.035 341.079 501.047 341.097 501.053L341.5 500.123C341.5 500.123 341.292 500.034 340.955 499.886C338.746 498.932 330.515 495.36 329.573 494.838C329.092 494.574 329.005 494.054 329.313 493.28L329.325 493.239C329.384 493.097 329.461 493.014 329.591 492.955C329.988 492.789 330.669 492.99 330.906 493.085L341.713 498.973L342.358 499.323L342.844 498.428L342.72 498.363L331.32 492.155C331.196 492.101 330.077 491.645 329.2 492.019C328.821 492.179 328.537 492.469 328.383 492.866L328.365 492.907C327.915 494.062 327.59 494.892 329.088 495.721L329.082 495.727Z" fill="#030303"/>
<path d="M315.231 506.675C315.272 507.93 315.296 507.936 315.876 508.073C316.451 508.197 324.167 508.57 329.721 508.825L329.828 507.415C329.828 507.374 329.84 507.332 329.845 507.291C328.353 506.84 324.398 505.916 316.285 505.733H316.243C316.107 505.715 315.687 505.733 315.456 505.952C315.296 506.1 315.225 506.349 315.231 506.681V506.675Z" fill="#4F4F4F"/>
<path d="M314.219 506.71C314.278 508.482 314.568 508.802 315.622 509.056C316.398 509.246 328.087 509.767 330.497 509.874H330.527L330.568 508.861C330.29 508.849 330.012 508.837 329.722 508.825C324.173 508.576 316.451 508.197 315.877 508.073C315.296 507.937 315.273 507.925 315.231 506.675C315.22 506.343 315.296 506.094 315.456 505.946C315.693 505.727 316.108 505.715 316.244 505.727H316.285C324.398 505.917 328.354 506.835 329.846 507.291C330.343 507.445 330.568 507.546 330.574 507.552L331.013 506.633C331.013 506.633 330.983 506.622 330.947 506.604C330.942 506.604 330.936 506.604 330.936 506.604C330.361 506.355 326.666 504.963 316.333 504.72C316.155 504.702 315.356 504.667 314.769 505.206C314.503 505.455 314.189 505.911 314.219 506.71Z" fill="#030303"/>
<path d="M378.605 564.498L367.912 599.355L369.242 599.764L379.935 564.906L378.605 564.498Z" fill="#030303"/>
<path d="M371.039 600.336L369.975 601.233L392.172 627.576L393.236 626.679L371.039 600.336Z" fill="#030303"/>
<path d="M335.806 582.853L335.153 584.083L364.462 599.64L365.115 598.41L335.806 582.853Z" fill="#030303"/>
<path d="M365.145 600.517L331.796 606.382L332.037 607.753L365.386 601.888L365.145 600.517Z" fill="#030303"/>
<path d="M367.35 601.091L336.019 615.282L336.593 616.55L367.924 602.359L367.35 601.091Z" fill="#030303"/>
<path d="M367.903 599.395L359.208 634.518L360.559 634.852L369.254 599.73L367.903 599.395Z" fill="#030303"/>
<path d="M403.408 584.657L372.313 598.17L372.868 599.447L403.962 585.934L403.408 584.657Z" fill="#030303"/>
<path d="M242.217 562.771L234.05 596.364L235.402 596.693L243.569 563.1L242.217 562.771Z" fill="#030303"/>
<path d="M209.855 570.521L208.812 571.441L231.165 596.797L232.209 595.876L209.855 570.521Z" fill="#030303"/>
<path d="M199.657 586.54L199.18 587.848L230.758 599.383L231.235 598.075L199.657 586.54Z" fill="#030303"/>
<path d="M231.494 601.544L201.548 617.365L202.198 618.596L232.144 602.775L231.494 601.544Z" fill="#030303"/>
<path d="M232.542 603.56L226.449 635.543L227.817 635.804L233.91 603.821L232.542 603.56Z" fill="#030303"/>
<path d="M235.765 603.041L234.664 603.892L254.912 630.119L256.014 629.268L235.765 603.041Z" fill="#030303"/>
<path d="M237.212 602.067L236.35 603.159L262.568 623.866L263.43 622.773L237.212 602.067Z" fill="#030303"/>
<path d="M368.792 598.891L368.356 600.213L403.734 611.89L404.17 610.568L368.792 598.891Z" fill="#030303"/>
</g>
</svg>
