<svg width="1416" height="2082" viewBox="0 0 1416 2082" fill="none" xmlns="http://www.w3.org/2000/svg">
<g opacity="0.7">
<path d="M1079.45 858.437C1098.13 858.437 1113.26 843.27 1113.26 824.56C1113.26 805.851 1098.13 790.684 1079.45 790.684C1060.78 790.684 1045.65 805.851 1045.65 824.56C1045.65 843.27 1060.78 858.437 1079.45 858.437Z" fill="#CE6326"/>
<path d="M1079.45 859.119C1060.43 859.119 1044.96 843.617 1044.96 824.56C1044.96 805.502 1060.43 790 1079.45 790C1098.47 790 1113.95 805.502 1113.95 824.56C1113.95 843.617 1098.47 859.119 1079.45 859.119ZM1079.45 791.362C1061.18 791.362 1046.33 806.253 1046.33 824.555C1046.33 842.857 1061.19 857.749 1079.45 857.749C1097.72 857.749 1112.58 842.857 1112.58 824.555C1112.58 806.253 1097.72 791.362 1079.45 791.362Z" fill="#030303"/>
<path d="M1079.45 825.958C1079.3 825.958 1079.14 825.904 1079.01 825.8L1065.03 813.907C1064.75 813.663 1064.71 813.229 1064.95 812.944C1065.2 812.654 1065.62 812.627 1065.91 812.862L1079.89 824.755C1080.18 824.999 1080.22 825.433 1079.97 825.718C1079.84 825.876 1079.65 825.958 1079.45 825.958Z" fill="#030303"/>
<path d="M1079.48 837.415C1079.32 837.415 1079.17 837.36 1079.04 837.256C1078.75 837.012 1078.72 836.582 1078.96 836.297L1094.71 817.534C1094.96 817.249 1095.4 817.213 1095.67 817.448C1095.96 817.692 1096 818.122 1095.76 818.407L1080 837.17C1079.87 837.329 1079.68 837.415 1079.48 837.415Z" fill="#030303"/>
<path d="M1079.17 844.983C1079.03 844.983 1078.89 844.942 1078.76 844.852L1068.54 837.225C1068.24 836.999 1068.17 836.569 1068.4 836.271C1068.62 835.972 1069.05 835.904 1069.35 836.13L1079.58 843.757C1079.88 843.983 1079.94 844.413 1079.72 844.712C1079.59 844.892 1079.38 844.988 1079.17 844.988V844.983Z" fill="#030303"/>
<path d="M1079.45 1004.5C1079.08 1004.5 1078.77 1004.19 1078.77 1003.81V804.892C1078.77 804.517 1079.08 804.209 1079.45 804.209C1079.83 804.209 1080.14 804.512 1080.14 804.892V1003.81C1080.14 1004.19 1079.83 1004.5 1079.45 1004.5Z" fill="#030303"/>
<path d="M1146.15 864.297C1145.99 864.297 1145.83 864.242 1145.7 864.138L1131.72 852.242C1131.44 851.997 1131.4 851.563 1131.64 851.278C1131.89 850.993 1132.32 850.957 1132.6 851.197L1146.58 863.094C1146.87 863.338 1146.91 863.772 1146.67 864.057C1146.53 864.215 1146.34 864.297 1146.15 864.297Z" fill="#030303"/>
<path d="M1146.17 875.751C1146.02 875.751 1145.86 875.697 1145.74 875.593C1145.45 875.348 1145.41 874.919 1145.65 874.634L1161.41 855.875C1161.65 855.581 1162.08 855.553 1162.36 855.789C1162.65 856.033 1162.69 856.463 1162.45 856.748L1146.69 875.507C1146.56 875.67 1146.37 875.751 1146.17 875.751Z" fill="#030303"/>
<path d="M1145.86 883.322C1145.72 883.322 1145.58 883.281 1145.46 883.191L1135.23 875.564C1134.92 875.338 1134.86 874.908 1135.09 874.61C1135.31 874.307 1135.74 874.243 1136.04 874.47L1146.27 882.096C1146.57 882.323 1146.63 882.752 1146.41 883.051C1146.28 883.232 1146.07 883.327 1145.86 883.327V883.322Z" fill="#030303"/>
<path d="M1146.15 1004.94C1145.77 1004.94 1145.46 1004.64 1145.46 1004.26V849.605C1145.46 849.229 1145.77 848.922 1146.15 848.922C1146.53 848.922 1146.83 849.225 1146.83 849.605V1004.26C1146.83 1004.63 1146.53 1004.94 1146.15 1004.94Z" fill="#030303"/>
<path d="M1171.58 867.667C1169.51 864.193 1167.17 860.176 1167.02 854.006C1166.94 850.767 1167.49 848.23 1167.96 846.004C1168.74 842.494 1169.36 839.486 1167.57 835.234C1165.85 831.099 1162.93 828.561 1161.57 827.313C1156.54 822.943 1151.05 820.835 1145.25 820.953C1143.5 820.994 1134.53 821.536 1128.73 828.72C1125.62 832.506 1124.72 836.487 1124.45 837.97C1123.4 842.616 1124.26 845.461 1125.15 848.506C1125.77 850.614 1126.4 852.798 1126.55 855.802C1126.78 861.579 1124.83 865.324 1122.96 868.916C1120.94 872.82 1119.03 876.524 1120.35 882.26C1121.33 886.512 1123.28 890.027 1126.16 892.719C1131.34 897.518 1137.88 897.948 1143.49 897.948H1145.51C1145.94 897.948 1146.34 897.948 1146.76 897.907C1152.25 897.79 1160.47 897.283 1167.32 891.117C1169 889.597 1172.97 886.083 1174.41 880.383C1175.85 875.036 1173.75 871.444 1171.57 867.658L1171.58 867.667ZM1173.22 880.039C1171.81 885.386 1168.07 888.742 1166.47 890.185C1159.97 896.039 1152.11 896.545 1146.76 896.627C1146.34 896.668 1145.95 896.668 1145.52 896.668H1145.37C1139.33 896.745 1132.43 896.785 1127.06 891.791C1124.37 889.254 1122.5 885.974 1121.61 881.998C1120.36 876.728 1122.07 873.372 1124.1 869.508C1125.97 865.917 1128.07 861.9 1127.8 855.734C1127.68 852.572 1126.98 850.234 1126.36 848.162C1125.5 845.158 1124.72 842.58 1125.7 838.251C1125.97 836.808 1126.79 833.099 1129.71 829.548C1135.2 822.794 1143.61 822.287 1145.29 822.251H1145.72C1151.05 822.251 1156.11 824.282 1160.71 828.299C1162 829.471 1164.76 831.891 1166.4 835.754C1168.04 839.617 1167.45 842.308 1166.71 845.746C1166.24 847.895 1165.78 850.351 1165.78 853.396V854.061C1165.94 860.579 1168.31 864.677 1170.45 868.346C1172.63 872.055 1174.46 875.253 1173.22 880.053V880.039Z" fill="#030303"/>
<path d="M1285.23 927.243C1265.16 927.243 1248.83 910.882 1248.83 890.77C1248.83 870.659 1265.16 854.297 1285.23 854.297C1305.3 854.297 1321.64 870.659 1321.64 890.77C1321.64 910.882 1305.31 927.243 1285.23 927.243ZM1285.23 855.735C1265.95 855.735 1250.27 871.45 1250.27 890.77C1250.27 910.09 1265.95 925.805 1285.23 925.805C1304.51 925.805 1320.2 910.09 1320.2 890.77C1320.2 871.45 1304.51 855.735 1285.23 855.735Z" fill="#030303"/>
<path d="M1285.23 892.245C1285.07 892.245 1284.9 892.191 1284.77 892.078L1270.01 879.525C1269.71 879.267 1269.67 878.81 1269.92 878.507C1270.19 878.204 1270.63 878.172 1270.94 878.421L1285.7 890.974C1286 891.232 1286.04 891.689 1285.78 891.992C1285.64 892.159 1285.44 892.245 1285.23 892.245Z" fill="#030303"/>
<path d="M1285.26 904.343C1285.1 904.343 1284.93 904.288 1284.8 904.175C1284.5 903.917 1284.46 903.465 1284.71 903.162L1301.34 883.358C1301.6 883.05 1302.06 883.019 1302.35 883.267C1302.66 883.525 1302.7 883.978 1302.44 884.281L1285.81 904.085C1285.67 904.257 1285.47 904.343 1285.26 904.343Z" fill="#030303"/>
<path d="M1284.94 912.324C1284.79 912.324 1284.64 912.279 1284.51 912.184L1273.71 904.136C1273.4 903.901 1273.33 903.444 1273.57 903.127C1273.8 902.811 1274.26 902.743 1274.57 902.978L1285.37 911.026C1285.68 911.261 1285.75 911.718 1285.52 912.034C1285.38 912.224 1285.16 912.324 1284.94 912.324Z" fill="#030303"/>
<path d="M1284.51 1004.06V870.005C1284.51 869.607 1284.83 869.286 1285.23 869.286C1285.63 869.286 1285.95 869.607 1285.95 870.005V1004.06" fill="#030303"/>
<path d="M1238.77 855.24C1236.62 851.617 1234.18 847.419 1234.02 840.987C1233.94 837.608 1234.5 834.961 1234.99 832.636C1235.8 828.972 1236.45 825.837 1234.59 821.395C1232.8 817.08 1229.75 814.434 1228.33 813.126C1223.09 808.566 1217.36 806.368 1211.3 806.49C1209.47 806.531 1200.12 807.101 1194.07 814.596C1190.82 818.545 1189.88 822.702 1189.6 824.25C1188.5 829.094 1189.39 832.071 1190.33 835.246C1190.98 837.445 1191.63 839.725 1191.79 842.864C1192.04 848.889 1190 852.802 1188.05 856.548C1185.94 860.619 1183.95 864.491 1185.33 870.475C1186.35 874.913 1188.38 878.582 1191.39 881.391C1196.79 886.398 1203.62 886.846 1209.47 886.846H1212.23C1212.44 886.846 1212.68 886.805 1212.88 886.805C1218.61 886.683 1227.19 886.154 1234.34 879.722C1236.09 878.134 1240.24 874.47 1241.74 868.521C1243.24 862.944 1241.05 859.194 1238.77 855.245V855.24ZM1240.49 868.15C1239.02 873.728 1235.12 877.234 1233.46 878.74C1226.67 884.847 1218.46 885.376 1212.89 885.457C1212.69 885.498 1212.45 885.498 1212.24 885.498H1211.43C1205.13 885.58 1197.94 885.62 1192.33 880.409C1189.53 877.763 1187.58 874.343 1186.64 870.186C1185.34 864.69 1187.13 861.184 1189.24 857.154C1191.19 853.408 1193.39 849.215 1193.1 842.778C1192.98 839.48 1192.25 837.038 1191.6 834.88C1190.7 831.745 1189.89 829.058 1190.91 824.535C1191.19 823.028 1192.05 819.161 1195.1 815.451C1200.83 808.408 1209.61 807.874 1211.35 807.834H1211.8C1217.37 807.834 1222.65 809.951 1227.45 814.144C1228.79 815.365 1231.67 817.89 1233.38 821.924C1235.09 825.955 1234.48 828.769 1233.71 832.351C1233.22 834.59 1232.73 837.155 1232.73 840.335V841.027C1232.89 847.826 1235.37 852.105 1237.61 855.932C1239.89 859.8 1241.8 863.143 1240.49 868.15Z" fill="#030303"/>
<path d="M1240.49 868.15C1239.02 873.727 1235.12 877.233 1233.46 878.739C1226.67 884.846 1218.46 885.375 1212.89 885.457C1212.69 885.497 1212.45 885.497 1212.24 885.497H1211.43C1205.13 885.579 1197.94 885.62 1192.33 880.408C1189.53 877.762 1187.58 874.342 1186.64 870.185C1185.34 864.689 1187.13 861.183 1189.24 857.153C1191.19 853.407 1193.39 849.214 1193.1 842.777C1192.98 839.48 1192.25 837.037 1191.6 834.879C1190.7 831.744 1189.89 829.057 1190.91 824.534C1191.19 823.027 1192.05 819.16 1195.1 815.451C1200.83 808.407 1209.61 807.874 1211.35 807.833H1211.8C1217.37 807.833 1222.65 809.95 1227.45 814.143C1228.79 815.365 1231.67 817.889 1233.38 821.924C1235.09 825.954 1234.48 828.768 1233.71 832.35C1233.22 834.59 1232.73 837.154 1232.73 840.335V841.027C1232.89 847.826 1235.37 852.105 1237.61 855.932C1239.89 859.799 1241.8 863.142 1240.5 868.15H1240.49Z" fill="#CE6326"/>
<path d="M1212.24 851.707C1212.08 851.707 1211.92 851.653 1211.78 851.54L1197.19 839.122C1196.89 838.869 1196.85 838.417 1197.11 838.118C1197.37 837.82 1197.81 837.788 1198.11 838.037L1212.7 850.454C1213 850.707 1213.04 851.16 1212.78 851.458C1212.64 851.626 1212.44 851.707 1212.24 851.707Z" fill="#030303"/>
<path d="M1212.27 863.656C1212.1 863.656 1211.94 863.602 1211.81 863.489C1211.51 863.235 1211.47 862.783 1211.72 862.484L1228.17 842.911C1228.42 842.603 1228.87 842.576 1229.17 842.825C1229.47 843.078 1229.51 843.531 1229.25 843.829L1212.81 863.403C1212.67 863.574 1212.47 863.656 1212.27 863.656Z" fill="#030303"/>
<path d="M1211.95 871.557C1211.8 871.557 1211.65 871.512 1211.52 871.417L1200.85 863.46C1200.54 863.225 1200.47 862.777 1200.7 862.46C1200.93 862.148 1201.38 862.08 1201.7 862.311L1212.37 870.268C1212.68 870.503 1212.75 870.951 1212.52 871.267C1212.38 871.453 1212.17 871.552 1211.95 871.552V871.557Z" fill="#030303"/>
<path d="M1211.53 1003.34V829.469C1211.53 829.08 1211.85 828.764 1212.24 828.764C1212.63 828.764 1212.95 829.08 1212.95 829.469V1003.38" fill="#030303"/>
<path d="M1019.72 927.661C1002.78 927.661 989 913.855 989 896.883C989 879.911 1002.78 866.101 1019.72 866.101C1036.66 866.101 1050.43 879.906 1050.43 896.883C1050.43 913.86 1036.66 927.661 1019.72 927.661ZM1019.72 867.317C1003.45 867.317 990.214 880.58 990.214 896.883C990.214 913.186 1003.45 926.444 1019.72 926.444C1035.98 926.444 1049.22 913.181 1049.22 896.883C1049.22 880.585 1035.98 867.317 1019.72 867.317Z" fill="#030303"/>
<path d="M1019.72 898.127C1019.58 898.127 1019.44 898.077 1019.32 897.982L1006.87 887.383C1006.62 887.166 1006.58 886.777 1006.8 886.524C1007.03 886.27 1007.4 886.243 1007.66 886.451L1020.11 897.05C1020.36 897.267 1020.4 897.656 1020.18 897.909C1020.06 898.054 1019.89 898.122 1019.72 898.122V898.127Z" fill="#030303"/>
<path d="M1019.74 908.332C1019.6 908.332 1019.46 908.282 1019.36 908.187C1019.1 907.97 1019.06 907.586 1019.28 907.332L1033.31 890.627C1033.53 890.365 1033.92 890.342 1034.16 890.55C1034.42 890.767 1034.46 891.152 1034.24 891.405L1020.21 908.11C1020.09 908.255 1019.92 908.328 1019.74 908.328V908.332Z" fill="#030303"/>
<path d="M1019.46 915.073C1019.34 915.073 1019.21 915.037 1019.1 914.955L1010 908.166C1009.73 907.967 1009.67 907.582 1009.87 907.315C1010.07 907.048 1010.45 906.99 1010.72 907.189L1019.83 913.978C1020.09 914.177 1020.15 914.562 1019.95 914.829C1019.83 914.987 1019.65 915.073 1019.46 915.073Z" fill="#030303"/>
<path d="M1019 1003.37V880.649C1019 880.315 1019.32 880.048 1019.72 880.048C1020.12 880.048 1020.44 880.319 1020.44 880.649L1020.31 1003.37" fill="#030303"/>
<path d="M2 0V903.5C2 958.728 46.7715 1003.5 102 1003.5H1314.5C1369.73 1003.5 1414.5 1048.27 1414.5 1103.5V2082" stroke="#030303" stroke-width="3"/>
<path d="M646.936 1004.89H554.54C551.976 1004.89 549.489 1004.31 547.339 1003.22C542.359 1000.69 540.535 996.434 542.205 991.245C543.289 987.862 545.107 985.629 547.611 984.604C549.791 983.71 552.035 983.923 553.681 984.332C551.336 980.422 547.108 971.963 549.388 964.866C550.726 960.713 554.078 957.704 559.354 955.926C574.579 950.808 582.271 953.693 585.297 955.612C585.362 953.527 585.942 950.145 588.613 947.206C592.432 943.006 599.136 941.217 608.528 941.875C618.144 942.55 624.99 945.317 628.863 950.103C631.356 953.178 631.989 956.353 632.114 958.296C634.447 956.625 639.297 953.764 644.567 954.285C648.215 954.647 651.377 956.566 653.976 959.99C658.838 966.394 654.93 975.499 653.367 978.562C655.706 979.136 660.988 980.843 663.907 984.983C665.695 987.519 666.293 990.534 665.672 993.935C665.08 997.205 662.681 999.959 658.542 1002.11C655.066 1003.93 651.051 1004.89 646.936 1004.89ZM550.892 985.7C550.027 985.7 549.121 985.836 548.245 986.198C546.238 987.027 544.757 988.899 543.833 991.772C542.412 996.192 543.851 999.533 548.115 1001.69C550.027 1002.67 552.248 1003.18 554.54 1003.18H646.936C650.773 1003.18 654.515 1002.29 657.749 1000.6C661.39 998.703 663.487 996.357 663.984 993.632C664.517 990.7 664.02 988.123 662.51 985.979C659.182 981.251 651.999 980.019 651.928 980.007C651.649 979.96 651.412 979.782 651.288 979.521C651.17 979.267 651.181 978.965 651.329 978.722C651.395 978.615 657.707 967.745 652.609 961.021C650.311 957.994 647.546 956.3 644.395 955.986C637.929 955.346 631.859 960.654 631.8 960.707C631.533 960.944 631.142 960.991 630.829 960.82C630.515 960.648 630.337 960.298 630.384 959.943C630.384 959.901 630.953 955.376 627.507 951.14C623.942 946.762 617.517 944.215 608.415 943.575C599.568 942.953 593.333 944.558 589.886 948.35C586.309 952.277 587.079 957.242 587.085 957.295C587.15 957.674 586.955 958.047 586.606 958.207C586.262 958.373 585.848 958.284 585.593 958C585.534 957.935 579.044 951.104 559.899 957.544C555.167 959.137 552.183 961.767 551.022 965.375C548.269 973.923 556.387 985.363 556.47 985.481C556.701 985.801 556.683 986.245 556.423 986.541C556.162 986.843 555.73 986.926 555.381 986.743C555.351 986.731 553.302 985.688 550.898 985.688L550.892 985.7Z" fill="#030303"/>
<path d="M580.362 1004.89C580.013 1004.89 579.687 1004.67 579.557 1004.32L567.536 971.661C567.37 971.216 567.601 970.725 568.045 970.559C568.489 970.393 568.981 970.624 569.146 971.068L581.167 1003.73C581.333 1004.18 581.102 1004.67 580.658 1004.83C580.557 1004.87 580.463 1004.89 580.362 1004.89Z" fill="#030303"/>
<path d="M572.22 982.762C572.119 982.762 572.013 982.744 571.912 982.703C571.468 982.531 571.255 982.034 571.426 981.595L577.846 965.103C578.017 964.665 578.515 964.445 578.953 964.617C579.397 964.789 579.61 965.287 579.438 965.725L573.019 982.217C572.889 982.555 572.563 982.762 572.22 982.762Z" fill="#030303"/>
<path d="M576.556 994.533C576.26 994.533 575.969 994.379 575.815 994.107C575.579 993.698 575.721 993.171 576.129 992.934L586.451 986.962C586.859 986.725 587.386 986.868 587.623 987.276C587.86 987.685 587.718 988.212 587.309 988.449L576.988 994.421C576.852 994.498 576.704 994.533 576.562 994.533H576.556Z" fill="#030303"/>
<path d="M606.655 1004.19C606.317 1004.19 605.991 1003.99 605.861 1003.65L594.308 974.752C594.261 974.634 594.243 974.509 594.249 974.385L594.947 962.122C594.977 961.649 595.374 961.281 595.853 961.317C596.327 961.346 596.688 961.749 596.659 962.223L595.972 974.29L607.454 1003.01C607.632 1003.45 607.418 1003.95 606.974 1004.12C606.868 1004.16 606.761 1004.18 606.655 1004.18V1004.19Z" fill="#030303"/>
<path d="M603.477 995.812C603.364 995.812 603.252 995.788 603.139 995.741C602.701 995.557 602.5 995.054 602.683 994.616L615.231 965.073C615.415 964.634 615.918 964.433 616.356 964.617C616.794 964.8 616.996 965.304 616.812 965.742L604.264 995.285C604.128 995.611 603.808 995.806 603.477 995.806V995.812Z" fill="#030303"/>
<path d="M610.616 979C610.285 979 609.971 978.805 609.829 978.485C609.639 978.052 609.841 977.543 610.273 977.359L621.37 972.531C621.802 972.342 622.312 972.543 622.495 972.976C622.685 973.408 622.483 973.918 622.051 974.101L610.954 978.929C610.841 978.977 610.729 979 610.61 979H610.616Z" fill="#030303"/>
<path d="M625.913 1004.89C625.818 1004.89 625.723 1004.87 625.629 1004.84C625.185 1004.69 624.948 1004.19 625.102 1003.75L632.19 983.437L629.91 976.097C629.768 975.647 630.023 975.167 630.473 975.025C630.923 974.883 631.402 975.137 631.544 975.588L633.907 983.194C633.961 983.372 633.96 983.555 633.895 983.733L626.718 1004.31C626.594 1004.67 626.262 1004.89 625.907 1004.89H625.913Z" fill="#030303"/>
<path d="M629.501 995.172C629.122 995.172 628.772 994.917 628.672 994.526C628.553 994.07 628.832 993.602 629.288 993.484L638.828 991.031C639.289 990.913 639.751 991.191 639.87 991.647C639.988 992.103 639.71 992.571 639.254 992.69L629.714 995.142C629.643 995.16 629.572 995.172 629.501 995.172Z" fill="#030303"/>
<path d="M738.337 981.945C738.153 981.88 734.186 980.493 729.3 980.908C729.975 978.225 731.077 971.916 728.027 967.336C726.037 964.351 722.674 962.674 718.025 962.354C705.513 961.495 701.824 965.932 700.746 968.385C699.52 967.271 697.264 965.429 694.208 963.859C687.991 960.66 681.418 960.121 675.2 962.301C667.336 965.05 663.996 969.611 662.581 972.952C661.473 975.559 661.331 977.828 661.343 978.959C658.708 979.664 649.707 982.567 648.203 989.456C647.611 992.158 648.487 995.031 650.797 998.005C654.154 1002.32 659.519 1004.9 665.151 1004.9H723.876C726.914 1004.9 729.809 1004.39 732.474 1003.4C737.65 1001.46 740.954 998.171 742.032 993.893C742.458 992.187 742.636 990.712 742.636 989.445C742.636 983.621 738.864 982.14 738.337 981.957V981.945ZM740.368 993.461C739.189 998.147 735.097 1000.57 731.87 1001.78C729.395 1002.7 726.701 1003.18 723.87 1003.18H665.145C660.04 1003.18 655.179 1000.84 652.141 996.944C650.157 994.391 649.393 991.992 649.873 989.812C651.365 982.964 662.308 980.47 662.421 980.446C662.853 980.351 663.143 979.943 663.084 979.504C663.072 979.398 661.929 968.752 675.762 963.906C678.214 963.047 680.565 962.698 682.774 962.698C693.136 962.698 700.438 970.464 700.527 970.559C700.752 970.808 701.107 970.897 701.427 970.79C701.747 970.689 701.978 970.399 702.013 970.067C702.043 969.777 702.955 963.03 717.907 964.066C721.993 964.345 724.912 965.767 726.594 968.284C730.017 973.414 727.334 981.56 727.305 981.637C727.21 981.921 727.269 982.235 727.459 982.466C727.648 982.697 727.95 982.81 728.246 982.762C733.268 982.004 737.709 983.55 737.75 983.568C737.768 983.568 737.792 983.58 737.804 983.586C737.993 983.639 742.47 985.073 740.356 993.473L740.368 993.461Z" fill="#030303"/>
<path d="M740.366 993.461C739.187 998.147 735.095 1000.57 731.868 1001.78C729.393 1002.7 726.699 1003.18 723.868 1003.18H702.514L703.936 994.326C703.942 994.297 703.947 994.267 703.947 994.237L705.244 986.145L718.639 978.189C719.048 977.947 719.178 977.419 718.935 977.011C718.692 976.602 718.165 976.471 717.763 976.714L705.6 983.936L707.145 974.315C707.222 973.847 706.902 973.409 706.435 973.332C705.973 973.255 705.529 973.575 705.452 974.043L702.509 992.401L696.622 986.75C696.285 986.418 695.74 986.436 695.414 986.773C695.083 987.117 695.095 987.656 695.438 987.988L702.183 994.457L700.785 1003.17H680.794L678.567 995.695L686.33 973.592C686.49 973.148 686.253 972.656 685.803 972.497C685.359 972.337 684.868 972.574 684.714 973.024L677.732 992.899L674.44 981.868C674.304 981.418 673.824 981.157 673.374 981.294C672.918 981.43 672.663 981.91 672.794 982.36L679.005 1003.17H665.149C660.044 1003.17 655.182 1000.84 652.145 996.939C650.161 994.385 649.397 991.986 649.877 989.806C651.369 982.958 662.312 980.464 662.425 980.441C662.857 980.346 663.147 979.937 663.088 979.499C663.076 979.392 661.933 968.747 675.766 963.901C678.218 963.042 680.569 962.692 682.777 962.692C693.14 962.692 700.442 970.459 700.531 970.553C700.756 970.802 701.111 970.891 701.431 970.784C701.751 970.684 701.981 970.394 702.017 970.062C702.047 969.772 702.959 963.024 717.911 964.061C721.997 964.339 724.916 965.761 726.598 968.279C730.021 973.409 727.338 981.554 727.308 981.631C727.214 981.916 727.273 982.23 727.462 982.461C727.652 982.692 727.954 982.804 728.25 982.757C733.272 981.998 737.713 983.545 737.754 983.562C737.772 983.562 737.796 983.574 737.808 983.58C737.997 983.634 742.474 985.067 740.36 993.467L740.366 993.461Z" fill="#CE6326"/>
<path d="M680.397 1004.85C680.314 1004.88 680.231 1004.89 680.148 1004.89C679.781 1004.89 679.438 1004.64 679.331 1004.27L678.999 1003.17L672.788 982.359C672.651 981.909 672.912 981.429 673.368 981.293C673.818 981.157 674.298 981.417 674.434 981.868L677.726 992.898L678.561 995.694L680.788 1003.17L680.971 1003.78C681.108 1004.23 680.847 1004.71 680.397 1004.85V1004.85Z" fill="#030303"/>
<path d="M686.332 973.598L678.569 995.7L678.48 995.955C678.356 996.31 678.024 996.53 677.669 996.53C677.574 996.53 677.479 996.512 677.385 996.476C676.94 996.322 676.704 995.831 676.858 995.386L677.734 992.904L684.716 973.029C684.87 972.585 685.361 972.348 685.805 972.502C686.255 972.662 686.486 973.148 686.332 973.598Z" fill="#030303"/>
<path d="M707.146 974.315L705.6 983.936L705.245 986.139L703.948 994.232C703.948 994.261 703.942 994.291 703.936 994.32L702.515 1003.17L702.355 1004.16C702.284 1004.58 701.923 1004.88 701.509 1004.88C701.461 1004.88 701.42 1004.88 701.372 1004.87C700.905 1004.8 700.585 1004.36 700.662 1003.89L700.78 1003.16L702.178 994.451L702.509 992.395L705.452 974.037C705.529 973.569 705.968 973.249 706.435 973.326C706.903 973.403 707.223 973.841 707.146 974.309V974.315Z" fill="#030303"/>
<path d="M703.948 994.237C703.948 994.267 703.943 994.296 703.937 994.326C703.907 994.48 703.83 994.628 703.712 994.752C703.546 994.93 703.321 995.019 703.096 995.019C702.883 995.019 702.669 994.942 702.504 994.776L702.178 994.462L695.433 987.993C695.09 987.661 695.078 987.122 695.409 986.779C695.735 986.441 696.28 986.423 696.617 986.755L702.504 992.407L703.688 993.538C703.883 993.728 703.972 993.988 703.948 994.237Z" fill="#030303"/>
<path d="M718.64 978.189L705.245 986.145L704.902 986.352C704.766 986.435 704.612 986.471 704.464 986.471C704.168 986.471 703.883 986.322 703.729 986.05C703.487 985.641 703.617 985.114 704.025 984.871L705.601 983.935L717.764 976.714C718.166 976.471 718.694 976.601 718.936 977.01C719.179 977.419 719.049 977.94 718.64 978.189Z" fill="#030303"/>
<path d="M561.213 989.32C560.834 985.114 559.247 982.158 556.505 980.523C552.129 977.922 546.095 979.492 543.448 980.398C543.59 978.088 543.501 973.479 541.008 970.375C539.539 968.539 537.467 967.52 534.855 967.348C527.72 966.874 523.385 970.968 521.449 973.426C519.785 967.869 514.337 966.205 513.549 965.991C512.827 965.677 507.965 963.841 500.604 967.751C494.736 970.867 494.807 979.463 495.227 983.615C493.783 982.62 492.225 982.134 490.591 982.17C486.215 982.253 482.869 986.008 482.709 986.186C477.984 991.832 479.275 998.188 482.899 1001.3C486.683 1004.55 493.451 1004.7 493.516 1004.7C513.466 1004.86 529.188 1004.89 538.527 1004.89C544.46 1004.89 547.818 1004.88 548.025 1004.88C548.41 1004.89 554.201 1004.89 558.051 1000.77C560.585 998.04 561.651 994.189 561.213 989.314V989.32ZM556.807 999.586C553.455 1003.2 548.108 1003.16 548.049 1003.16C548.043 1003.16 548.037 1003.16 548.031 1003.16C547.913 1003.16 541.529 1003.19 530.438 1003.16C529.822 1003.16 529.194 1003.16 528.555 1003.16C525.387 1003.16 521.875 1003.15 518.05 1003.13C517.446 1003.13 516.83 1003.13 516.202 1003.12C512.951 1003.11 509.493 1003.09 505.839 1003.07C505.271 1003.07 504.702 1003.06 504.122 1003.06C500.747 1003.04 497.211 1003.01 493.534 1002.98C493.475 1002.98 487.287 1002.8 484.018 999.995C481.015 997.418 480.003 992.086 484.018 987.3C484.047 987.264 487.02 983.941 490.632 983.882C490.668 983.882 490.703 983.882 490.733 983.882C492.527 983.882 494.221 984.711 495.76 986.34C496.027 986.613 496.436 986.684 496.773 986.512C497.111 986.34 497.294 985.961 497.223 985.588C497.199 985.463 494.825 972.768 501.41 969.273C508.409 965.553 512.85 967.561 512.886 967.579C512.945 967.609 513.004 967.632 513.069 967.644C513.33 967.704 519.477 969.22 520.158 975.683C520.199 976.062 520.478 976.364 520.851 976.435C521.224 976.506 521.597 976.323 521.774 975.985C521.81 975.908 525.771 968.462 534.743 969.06C536.857 969.202 538.509 970.002 539.67 971.447C542.565 975.049 541.624 981.494 541.612 981.56C541.565 981.868 541.689 982.176 541.932 982.371C542.18 982.561 542.512 982.602 542.796 982.478C542.873 982.442 550.749 979.101 555.629 982.004C557.873 983.343 559.176 985.854 559.501 989.48C559.898 993.84 558.986 997.24 556.801 999.592L556.807 999.586Z" fill="#030303"/>
<path d="M556.807 999.587C553.455 1003.2 548.108 1003.16 548.049 1003.16C548.043 1003.16 548.037 1003.16 548.031 1003.16C547.913 1003.16 541.529 1003.19 530.438 1003.16L536.04 992.324L541.251 990.339C541.695 990.173 541.914 989.676 541.742 989.231C541.576 988.787 541.079 988.568 540.641 988.74L536.022 990.493L533.63 981.003C533.517 980.547 533.049 980.269 532.593 980.381C532.131 980.5 531.859 980.962 531.972 981.424L534.518 991.53L528.632 1002.92C528.59 1002.99 528.561 1003.08 528.555 1003.16C525.387 1003.15 521.875 1003.14 518.05 1003.12L524.919 987.425C525.108 986.992 524.913 986.489 524.481 986.299C524.042 986.11 523.539 986.305 523.35 986.743L521.709 990.487L519.08 986.364C518.825 985.967 518.292 985.849 517.896 986.104C517.493 986.358 517.381 986.892 517.635 987.288L520.874 992.371C520.874 992.371 520.88 992.383 520.886 992.383L518.529 997.768L517.138 994.545C516.948 994.113 516.445 993.911 516.013 994.101C515.58 994.291 515.379 994.794 515.568 995.227L517.582 999.883C517.582 999.883 517.594 999.901 517.6 999.912L516.267 1002.94C516.244 1003 516.22 1003.06 516.214 1003.12C512.963 1003.11 509.505 1003.09 505.851 1003.07C505.851 1002.49 505.78 1001.57 505.673 1000.02C505.555 998.254 505.365 995.789 505.123 992.703C505.075 992.122 505.028 991.542 504.986 990.973C505.057 990.926 505.129 990.872 505.188 990.807L514.289 980.387C514.603 980.032 514.562 979.487 514.206 979.179C513.851 978.871 513.306 978.906 512.998 979.262L504.803 988.645C504.507 985.037 504.264 982.158 504.258 982.117C504.223 981.649 503.808 981.293 503.334 981.335C502.866 981.376 502.517 981.791 502.553 982.265C502.89 986.27 503.305 991.334 503.63 995.505L499.621 992.614C499.236 992.336 498.704 992.425 498.425 992.81C498.153 993.195 498.236 993.728 498.621 994.006L503.613 997.596C503.672 997.643 503.737 997.673 503.802 997.697C503.998 1000.3 504.134 1002.31 504.146 1003.06C500.77 1003.05 497.235 1003.02 493.558 1002.99C493.498 1002.99 487.31 1002.81 484.041 1000C481.039 997.424 480.027 992.093 484.041 987.306C484.071 987.271 487.044 983.947 490.656 983.888C490.692 983.888 490.727 983.888 490.757 983.888C492.551 983.888 494.245 984.717 495.784 986.347C496.051 986.619 496.459 986.69 496.797 986.518C497.134 986.347 497.318 985.967 497.247 985.594C497.223 985.47 494.849 972.775 501.433 969.28C508.433 965.559 512.874 967.568 512.91 967.585C512.969 967.615 513.028 967.639 513.093 967.651C513.354 967.71 519.5 969.226 520.181 975.689C520.223 976.068 520.501 976.371 520.874 976.442C521.247 976.513 521.62 976.329 521.798 975.991C521.834 975.914 525.795 968.468 534.767 969.066C536.881 969.209 538.533 970.008 539.693 971.454C542.589 975.055 541.648 981.501 541.636 981.566C541.588 981.874 541.713 982.182 541.955 982.378C542.204 982.567 542.536 982.609 542.82 982.484C542.897 982.449 550.773 979.107 555.652 982.01C557.897 983.349 559.199 985.861 559.525 989.486C559.922 993.846 559.01 997.247 556.825 999.598L556.807 999.587Z" fill="#CE6326"/>
<path d="M536.188 992.039L536.04 992.329L530.438 1003.17L530.159 1003.72C530.011 1004.01 529.709 1004.18 529.395 1004.18C529.265 1004.18 529.129 1004.15 529.005 1004.08C528.661 1003.9 528.489 1003.53 528.555 1003.16C528.566 1003.08 528.59 1003 528.632 1002.92L534.518 991.535L531.971 981.429C531.853 980.967 532.131 980.505 532.593 980.386C533.055 980.268 533.517 980.552 533.63 981.008L536.022 990.499L536.259 991.434C536.312 991.636 536.288 991.855 536.188 992.039Z" fill="#030303"/>
<path d="M541.252 990.345L536.041 992.329L535.733 992.448C535.632 992.483 535.532 992.501 535.425 992.501C535.082 992.501 534.756 992.294 534.626 991.95C534.46 991.506 534.679 991.008 535.123 990.842L536.023 990.499L540.642 988.745C541.086 988.573 541.578 988.799 541.743 989.237C541.909 989.681 541.69 990.179 541.252 990.345Z" fill="#030303"/>
<path d="M505.662 1000.02C505.544 998.253 505.354 995.789 505.112 992.702C505.064 992.122 505.017 991.541 504.975 990.973C504.91 990.179 504.845 989.391 504.786 988.639C504.49 985.031 504.247 982.152 504.241 982.11C504.206 981.642 503.791 981.287 503.317 981.328C502.85 981.37 502.5 981.785 502.536 982.259C502.873 986.263 503.288 991.328 503.613 995.499C503.673 996.263 503.732 997.003 503.779 997.696C503.975 1000.3 504.111 1002.31 504.123 1003.06C504.123 1003.16 504.123 1003.23 504.123 1003.29C504.081 1003.5 504.111 1003.72 504.223 1003.91C504.383 1004.18 504.667 1004.33 504.958 1004.33C505.106 1004.33 505.26 1004.29 505.396 1004.21C505.71 1004.02 505.84 1003.94 505.834 1003.08C505.834 1002.51 505.763 1001.58 505.656 1000.04L505.662 1000.02Z" fill="#030303"/>
<path d="M514.279 980.387L505.177 990.807C505.118 990.872 505.053 990.932 504.976 990.973C504.839 991.056 504.685 991.097 504.526 991.097C504.324 991.097 504.123 991.026 503.963 990.89C503.608 990.576 503.566 990.037 503.88 989.682L504.786 988.645L512.982 979.261C513.296 978.906 513.834 978.865 514.19 979.179C514.545 979.492 514.587 980.032 514.273 980.387H514.279Z" fill="#030303"/>
<path d="M504.786 997.4C504.62 997.631 504.354 997.756 504.087 997.756C503.987 997.756 503.88 997.738 503.779 997.696C503.714 997.679 503.649 997.643 503.59 997.596L498.598 994.006C498.213 993.727 498.13 993.194 498.402 992.809C498.681 992.424 499.214 992.335 499.599 992.614L503.608 995.504L504.591 996.209C504.976 996.482 505.058 997.021 504.786 997.406V997.4Z" fill="#030303"/>
<path d="M524.919 987.43L518.05 1003.13L517.831 1003.63C517.689 1003.95 517.381 1004.15 517.043 1004.15C516.931 1004.15 516.812 1004.12 516.7 1004.08C516.327 1003.91 516.125 1003.51 516.202 1003.12C516.214 1003.06 516.232 1003 516.256 1002.95L517.588 999.912L518.524 997.768L520.88 992.383L521.709 990.487L523.35 986.743C523.539 986.305 524.049 986.109 524.481 986.299C524.913 986.488 525.114 986.998 524.919 987.424V987.43Z" fill="#030303"/>
<path d="M522.06 992.631C521.918 992.726 521.757 992.768 521.597 992.768C521.325 992.768 521.046 992.637 520.886 992.388C520.886 992.388 520.881 992.377 520.875 992.377L517.636 987.294C517.382 986.897 517.494 986.364 517.897 986.109C518.294 985.854 518.827 985.973 519.081 986.37L521.709 990.493L522.319 991.452C522.574 991.849 522.456 992.383 522.053 992.637L522.06 992.631Z" fill="#030303"/>
<path d="M518.696 1000.33C518.584 1000.37 518.471 1000.4 518.359 1000.4C518.039 1000.4 517.737 1000.22 517.589 999.912C517.583 999.9 517.577 999.894 517.571 999.882L515.558 995.226C515.368 994.787 515.57 994.284 516.002 994.1C516.434 993.916 516.943 994.112 517.127 994.544L518.519 997.767L519.14 999.201C519.33 999.633 519.128 1000.14 518.69 1000.33H518.696Z" fill="#030303"/>
<path d="M324.439 958.586C324.439 962.076 324.842 965.469 325.6 968.727C325.861 969.847 326.163 970.943 326.506 972.027C332.221 990.095 349.145 1003.23 369.071 1003.23C393.682 1003.23 413.697 983.2 413.697 958.586C413.697 946.904 409.196 936.265 401.824 928.297C401.161 927.574 400.462 926.868 399.745 926.188C391.745 918.6 380.938 913.938 369.065 913.938C365.524 913.938 362.072 914.351 358.761 915.139C358.211 915.269 357.666 915.412 357.121 915.56C357.287 916.099 357.453 916.638 357.625 917.177C358.169 917.023 358.72 916.887 359.271 916.756C362.421 916.016 365.702 915.625 369.065 915.625C392.74 915.625 412.003 934.896 412.003 958.586C412.003 982.27 392.74 1001.54 369.065 1001.54C348.783 1001.54 331.741 987.405 327.27 968.461C327.27 968.455 327.27 968.449 327.27 968.449C327.27 968.437 327.264 968.419 327.264 968.407C326.518 965.25 326.127 961.963 326.127 958.586C326.127 940.003 337.982 924.139 354.522 918.167C355.049 917.972 355.582 917.793 356.12 917.621C355.949 917.082 355.783 916.549 355.611 916.01C355.072 916.182 354.539 916.359 354.012 916.549C336.786 922.739 324.439 939.244 324.439 958.579V958.586Z" fill="#030303"/>
<path d="M329.994 958.585C329.994 980.137 347.522 997.677 369.071 997.677C390.62 997.677 408.148 980.143 408.148 958.585C408.148 937.028 390.62 919.493 369.071 919.493C366.105 919.493 363.209 919.825 360.432 920.459C359.875 920.583 359.33 920.713 358.785 920.873C359.093 921.845 359.395 922.816 359.697 923.776C360.242 923.628 360.787 923.492 361.344 923.373C363.831 922.822 366.418 922.538 369.071 922.538C372.358 922.538 375.538 922.982 378.57 923.812C379.114 923.96 379.653 924.12 380.186 924.297C391.532 927.982 400.427 937.164 403.725 948.686C403.879 949.225 404.021 949.776 404.145 950.327C404.714 952.715 405.04 955.203 405.093 957.744C405.099 958.023 405.105 958.307 405.105 958.591C405.105 958.876 405.105 959.154 405.093 959.432C404.945 965.777 403.156 971.725 400.125 976.855C399.84 977.341 399.544 977.82 399.23 978.288C392.794 988.128 381.679 994.633 369.071 994.633C366.282 994.633 363.564 994.313 360.953 993.708C360.402 993.584 359.857 993.448 359.312 993.294C348.038 990.113 338.983 981.57 335.093 970.605C334.903 970.072 334.726 969.539 334.566 968.994C333.565 965.7 333.032 962.199 333.032 958.585C333.032 956.725 333.174 954.889 333.447 953.106C333.529 952.543 333.63 951.992 333.743 951.441C335.389 943.278 339.8 936.104 345.959 930.944C346.385 930.583 346.829 930.233 347.274 929.89C350.086 927.745 353.225 926.004 356.606 924.754C357.133 924.558 357.666 924.374 358.205 924.209C357.897 923.243 357.595 922.277 357.287 921.306C356.748 921.478 356.215 921.655 355.688 921.851C340.712 927.331 329.988 941.726 329.988 958.585H329.994Z" fill="#030303"/>
<path d="M363.967 958.586C363.967 958.983 364.008 959.368 364.103 959.741C364.233 960.304 364.452 960.83 364.754 961.31C365.276 962.139 366.034 962.81 366.934 963.224C367.437 963.455 367.988 963.615 368.568 963.669C368.74 963.686 368.906 963.698 369.077 963.698C370.718 963.698 372.18 962.922 373.116 961.714C373.465 961.269 373.732 960.766 373.915 960.221C374.01 959.948 374.075 959.67 374.123 959.38C374.164 959.119 374.182 958.858 374.182 958.586C374.182 958.278 374.152 957.981 374.099 957.69C374.099 957.679 374.099 957.662 374.093 957.65C373.986 957.075 373.791 956.535 373.507 956.049C372.962 955.096 372.115 954.332 371.102 953.893C371.008 953.852 370.907 953.81 370.812 953.781C370.386 953.627 369.936 953.527 369.462 953.497C369.332 953.485 369.208 953.479 369.071 953.479C369.036 953.479 369 953.479 368.965 953.479C368.467 953.485 367.988 953.568 367.532 953.71C367.401 953.752 367.271 953.792 367.147 953.846C366.738 954.012 366.353 954.226 366.004 954.487C365.897 954.57 365.797 954.652 365.696 954.741C365.204 955.174 364.796 955.701 364.5 956.293C364.245 956.791 364.073 957.341 364.002 957.927C363.973 958.141 363.961 958.361 363.961 958.58L363.967 958.586Z" fill="#030303"/>
<path d="M261.516 924.333C261.96 924.689 262.398 925.056 262.824 925.429C267.461 929.463 271.227 934.475 273.797 940.144C273.963 940.5 274.123 940.867 274.271 941.228C274.549 941.886 274.81 942.561 275.058 943.237C275.195 943.61 275.319 943.977 275.449 944.356C275.805 945.422 276.118 946.512 276.391 947.62C276.527 948.177 276.651 948.734 276.764 949.291C277.338 949.261 277.907 949.232 278.469 949.208C278.363 948.645 278.238 948.088 278.108 947.537C277.853 946.465 277.563 945.411 277.232 944.368C277.125 944.03 277.013 943.687 276.9 943.355C276.551 942.336 276.16 941.329 275.739 940.34C275.597 940.008 275.455 939.682 275.301 939.35C272.66 933.569 268.823 928.45 264.109 924.304C263.683 923.93 263.245 923.557 262.801 923.196C262.368 923.569 261.942 923.948 261.516 924.327V924.333ZM190.047 957.851C190.047 982.471 210.068 1002.5 234.679 1002.5C257.613 1002.5 276.562 985.107 279.032 962.809C279.091 962.246 279.144 961.69 279.186 961.121L277.498 961.056C277.457 961.619 277.403 962.181 277.338 962.744C274.904 984.135 256.701 1000.81 234.679 1000.81C211.004 1000.81 191.735 981.541 191.735 957.851C191.735 934.167 210.998 914.89 234.679 914.89C243.099 914.89 250.963 917.331 257.601 921.537C258.099 921.857 258.596 922.177 259.076 922.515C259.502 922.124 259.934 921.739 260.373 921.359C259.887 921.016 259.401 920.684 258.904 920.364C251.922 915.838 243.602 913.202 234.679 913.202C216.694 913.202 201.156 923.901 194.097 939.273C193.778 939.978 193.47 940.689 193.179 941.412C191.154 946.507 190.047 952.051 190.047 957.857V957.851Z" fill="#030303"/>
<path d="M277.622 957.851C277.622 958.929 277.581 960.001 277.504 961.056L279.192 961.121C279.274 960.037 279.316 958.953 279.316 957.851C279.316 954.895 279.032 952.01 278.475 949.214C277.912 949.243 277.344 949.273 276.77 949.297C277.332 952.063 277.622 954.925 277.622 957.851Z" fill="#CE6326"/>
<path d="M256.589 929.244C257.039 929.588 257.477 929.943 257.903 930.311C263.304 934.872 267.349 940.991 269.344 947.97C269.498 948.521 269.646 949.078 269.771 949.64C270.807 949.587 271.837 949.534 272.85 949.486C272.725 948.924 272.595 948.367 272.447 947.816C270.38 940.026 265.963 933.184 260 928.101C259.573 927.728 259.135 927.372 258.691 927.029C257.969 927.751 257.27 928.486 256.589 929.244ZM195.602 957.851C195.602 979.408 213.13 996.943 234.679 996.943C254.617 996.943 271.121 981.92 273.466 962.59C273.537 962.033 273.59 961.47 273.637 960.902L270.6 960.783C270.558 961.346 270.493 961.909 270.422 962.466C269.575 969.071 266.934 975.131 263.002 980.119C262.653 980.563 262.291 980.996 261.93 981.422C260.177 983.442 258.205 985.267 256.05 986.855C255.6 987.192 255.132 987.518 254.664 987.826C248.944 991.659 242.069 993.898 234.685 993.898C232.588 993.898 230.534 993.72 228.532 993.371C227.975 993.276 227.425 993.17 226.874 993.045C216.179 990.676 207.255 983.537 202.459 973.982C202.204 973.478 201.961 972.969 201.736 972.453C199.747 967.987 198.639 963.046 198.639 957.851C198.639 951.234 200.434 945.026 203.56 939.688C203.839 939.202 204.141 938.723 204.449 938.249C207.498 933.551 211.614 929.606 216.452 926.762C216.937 926.478 217.429 926.199 217.926 925.939C222.93 923.291 228.633 921.798 234.673 921.798C237.219 921.798 239.694 922.058 242.093 922.568C242.649 922.681 243.194 922.811 243.739 922.947C246.889 923.77 249.88 925.003 252.639 926.596C253.142 926.892 253.64 927.195 254.131 927.514C254.818 926.744 255.517 925.992 256.234 925.257C255.748 924.932 255.251 924.618 254.747 924.315C248.879 920.785 242.01 918.753 234.679 918.753C213.13 918.753 195.602 936.288 195.602 957.845V957.851ZM269.344 947.976C269.498 948.527 269.646 949.084 269.771 949.646C270.807 949.593 271.837 949.54 272.85 949.492C272.725 948.929 272.595 948.373 272.447 947.822C271.423 947.875 270.38 947.928 269.344 947.976Z" fill="#030303"/>
<path d="M270.717 957.851C270.717 958.84 270.675 959.818 270.598 960.783L273.636 960.902C273.713 959.895 273.755 958.876 273.755 957.851C273.755 954.984 273.447 952.188 272.855 949.492C271.836 949.546 270.806 949.599 269.775 949.646C270.391 952.282 270.717 955.025 270.717 957.851Z" fill="#CE6326"/>
<path d="M229.575 957.851C229.575 958.751 229.806 959.598 230.215 960.333C230.505 960.848 230.878 961.31 231.322 961.695C231.725 962.051 232.181 962.341 232.684 962.554C233.199 962.773 233.749 962.91 234.329 962.945C234.442 962.957 234.561 962.957 234.68 962.957C234.934 962.957 235.189 962.939 235.432 962.904C236.042 962.815 236.609 962.619 237.124 962.335C237.249 962.27 237.367 962.193 237.48 962.116C237.906 961.837 238.285 961.5 238.611 961.109C238.652 961.055 238.695 961.008 238.736 960.955C239.062 960.534 239.321 960.06 239.493 959.551C239.683 959.018 239.784 958.443 239.784 957.851C239.784 955.641 238.386 953.763 236.426 953.052C236.408 953.04 236.39 953.034 236.372 953.034C235.863 952.857 235.324 952.756 234.762 952.75C234.744 952.75 234.727 952.75 234.704 952.75H234.674C233.75 952.75 232.879 952.999 232.133 953.431C231.623 953.716 231.18 954.095 230.801 954.533C230.517 954.865 230.268 955.238 230.079 955.635C229.824 956.162 229.657 956.743 229.592 957.347C229.574 957.519 229.562 957.691 229.562 957.862L229.575 957.851Z" fill="#030303"/>
<path d="M355.676 910.928C355.848 911.467 356.013 912 356.185 912.539C356.73 912.391 357.275 912.249 357.825 912.113C361.384 911.26 365.097 910.803 368.911 910.803C381.636 910.803 393.58 915.78 402.552 924.808L402.605 924.861C403.067 925.258 403.795 926.164 403.535 926.502C403.292 926.804 401.516 926.68 399.78 926.105L399.751 926.188L399.242 927.705C399.727 927.864 400.758 928.173 401.823 928.297C403.008 928.427 404.245 928.327 404.861 927.539C405.945 926.141 404.66 924.417 403.718 923.599C394.433 914.257 382.069 909.121 368.905 909.121C364.914 909.121 361.029 909.601 357.31 910.507C356.76 910.638 356.215 910.78 355.67 910.934L355.676 910.928Z" fill="#030303"/>
<path d="M319.809 958.236C319.809 962.134 320.27 966.008 321.171 969.764L321.194 969.847C321.621 971.062 322.781 972.945 324.558 972.945C324.735 972.945 324.913 972.928 325.097 972.886C325.718 972.756 326.18 972.448 326.512 972.033C327.311 971.056 327.406 969.498 327.276 968.467C327.276 968.461 327.276 968.455 327.276 968.455C327.276 968.443 327.276 968.425 327.276 968.414L325.606 968.633C325.606 968.633 325.606 968.668 325.618 968.733C325.653 969.184 325.73 971.038 324.765 971.239C323.705 971.453 322.917 969.592 322.811 969.326C321.952 965.718 321.508 961.992 321.508 958.248C321.508 937.65 334.702 920.08 353.077 913.54C353.609 913.35 354.142 913.173 354.675 913.001C354.504 912.462 354.338 911.929 354.166 911.39C353.627 911.556 353.094 911.733 352.561 911.923C333.499 918.676 319.815 936.892 319.815 958.242L319.809 958.236Z" fill="#030303"/>
<path d="M264.57 921.733C265.014 922.094 265.447 922.473 265.873 922.852C270.912 927.384 274.992 932.988 277.705 939.333C277.853 939.665 277.989 940.008 278.125 940.346C278.522 941.335 278.883 942.342 279.215 943.361C279.321 943.693 279.428 944.036 279.528 944.374C279.825 945.375 280.091 946.394 280.316 947.431C280.446 947.988 280.559 948.545 280.66 949.107C281.24 949.078 281.802 949.048 282.359 949.024C282.264 948.462 282.152 947.905 282.033 947.342C281.814 946.347 281.566 945.357 281.287 944.374C281.192 944.031 281.092 943.693 280.985 943.361C280.677 942.342 280.328 941.335 279.949 940.346C279.819 940.002 279.688 939.665 279.546 939.333C276.834 932.686 272.659 926.667 267.282 921.762C266.998 921.496 266.702 921.241 266.412 920.98C266.27 920.856 266.128 920.738 265.986 920.625C265.506 920.992 265.032 921.36 264.564 921.739L264.57 921.733Z" fill="#030303"/>
<path d="M189.969 939.848C190.176 940.465 190.632 940.921 191.284 941.158C191.994 941.418 192.634 941.472 193.184 941.406C194.558 941.247 195.399 940.37 195.446 940.322L194.221 939.161C194.221 939.161 194.173 939.209 194.096 939.268C193.8 939.499 192.989 939.997 191.87 939.576C191.657 939.499 191.597 939.398 191.568 939.303C191.384 938.77 191.852 937.633 192.231 937.029L192.272 936.952C200.107 921.022 216.687 910.732 234.512 910.732C244.111 910.732 253.171 913.7 260.721 918.818C261.213 919.15 261.698 919.494 262.178 919.849C262.651 919.464 263.131 919.085 263.611 918.718C263.137 918.356 262.651 918.007 262.16 917.675C254.071 912.077 244.436 909.044 234.506 909.044C225.238 909.044 216.214 911.65 208.415 916.585C200.817 921.389 194.718 928.161 190.768 936.176C190.549 936.531 189.471 938.415 189.963 939.848H189.969Z" fill="#030303"/>
<path d="M273.756 957.851C273.756 958.876 273.714 959.895 273.637 960.902L277.504 961.056C277.581 959.996 277.622 958.929 277.622 957.851C277.622 954.925 277.326 952.063 276.77 949.297C275.491 949.362 274.188 949.427 272.855 949.492C273.448 952.188 273.756 954.978 273.756 957.851Z" fill="#CE6326"/>
<path d="M239.788 957.852C239.788 958.445 239.687 959.019 239.498 959.552L270.6 960.784C270.677 959.819 270.717 958.836 270.717 957.852C270.717 955.032 270.392 952.283 269.777 949.646C255.89 950.346 241.073 951.093 239.232 951.211C237.544 951.318 236.846 952.022 236.544 952.591C236.544 952.591 236.544 952.591 236.544 952.597L236.438 953.053C238.398 953.764 239.794 955.648 239.794 957.852H239.788Z" fill="#CE6326"/>
<path d="M234.648 953.213L235.495 953.242L236.336 953.284C236.336 953.284 236.336 953.278 236.336 953.272C236.336 953.231 236.348 953.148 236.372 953.035C236.401 952.917 236.455 952.763 236.532 952.597C236.532 952.597 236.532 952.597 236.532 952.591C236.828 952.028 237.526 951.323 239.22 951.211C241.062 951.092 255.878 950.346 269.764 949.647C270.8 949.593 271.831 949.54 272.843 949.493C274.17 949.427 275.478 949.362 276.757 949.297C277.332 949.268 277.9 949.238 278.463 949.214C279.209 949.179 279.943 949.137 280.66 949.108C281.24 949.078 281.803 949.048 282.359 949.025C283.336 948.971 284.272 948.924 285.172 948.882C285.563 948.865 285.936 948.847 286.309 948.823C286.706 948.805 287.085 948.788 287.458 948.764C287.849 948.746 288.228 948.728 288.595 948.711C292.385 948.521 294.813 948.403 294.925 948.391H294.972C294.972 948.391 298.022 948.112 300.776 949.99C302.754 951.341 304.814 953.799 305.874 955.156C306.721 956.24 307.349 957.407 307.734 958.639C308.136 959.913 308.154 960.873 307.787 961.145C307.142 961.613 306.087 961.856 305.087 961.974C304.731 962.016 304.382 962.04 304.062 962.057C303.547 962.081 303.109 962.075 302.825 962.057L301.095 961.992L300.083 961.951L296.115 961.791L294.919 961.743L293.824 961.702L292.622 961.654L288.317 961.483L287.304 961.441L284.077 961.311L283.064 961.269L279.173 961.115L277.486 961.05L273.619 960.896L270.581 960.778L239.48 959.546L238.663 959.51L238.61 960.861L238.598 961.104V961.198L239.06 961.216L270.409 962.46L273.459 962.585L277.332 962.739L279.025 962.804L283.171 962.964L284.195 963.005L287.547 963.141L288.619 963.183L293.634 963.384L294.836 963.432L295.914 963.473L297.11 963.521L299.645 963.621L300.716 963.663L302.742 963.746C302.825 963.746 303.056 963.757 303.381 963.757C303.512 963.757 303.654 963.757 303.808 963.752C304.116 963.746 304.477 963.728 304.862 963.692C306.141 963.58 307.71 963.272 308.764 962.508C309.824 961.743 310.014 960.268 309.333 958.124C308.882 956.702 308.16 955.351 307.189 954.107C305.827 952.366 303.772 949.996 301.717 948.592C299.307 946.945 296.779 946.691 295.547 946.679C295.162 946.679 294.901 946.697 294.819 946.702C294.73 946.702 294.392 946.72 293.83 946.75C293.439 946.768 292.947 946.791 292.361 946.827C291.858 946.856 291.283 946.88 290.644 946.916C289.755 946.957 288.749 947.005 287.641 947.064C287.274 947.082 286.895 947.105 286.51 947.123C286.131 947.141 285.747 947.159 285.35 947.182C284.977 947.2 284.598 947.218 284.213 947.236C283.508 947.271 282.786 947.313 282.034 947.342C281.471 947.372 280.897 947.401 280.316 947.431C279.594 947.467 278.854 947.508 278.102 947.544C277.539 947.573 276.965 947.603 276.384 947.627C275.099 947.692 273.779 947.757 272.441 947.822C271.416 947.875 270.374 947.929 269.338 947.976C260.645 948.414 251.632 948.871 245.698 949.179C245.053 949.208 244.443 949.244 243.874 949.267C242.72 949.327 241.737 949.38 240.961 949.422C240.061 949.469 239.433 949.504 239.131 949.522H239.119C238.361 949.576 237.722 949.718 237.189 949.937C235.975 950.423 235.288 951.252 234.944 952.028C234.944 952.028 234.944 952.034 234.944 952.04C234.838 952.289 234.761 952.526 234.714 952.745C234.678 952.917 234.66 953.077 234.654 953.219L234.648 953.213Z" fill="#030303"/>
<path d="M283.076 961.465C283.076 961.974 283.112 962.478 283.183 962.97C283.917 968.337 288.53 972.484 294.09 972.484C295.636 972.484 297.105 972.164 298.437 971.589C298.745 971.453 299.053 971.305 299.349 971.145L298.84 970.268C298.544 970.428 298.236 970.576 297.922 970.706C296.743 971.198 295.447 971.47 294.09 971.47C289.098 971.47 284.953 967.798 284.207 963.011C284.13 962.508 284.089 961.992 284.089 961.465C284.089 961.412 284.089 961.364 284.089 961.317L283.076 961.275C283.076 961.341 283.076 961.4 283.076 961.465ZM299.574 969.83L300.083 970.706C300.367 970.523 300.646 970.321 300.912 970.114C302.908 968.532 304.347 966.275 304.88 963.692C304.992 963.13 305.069 962.555 305.099 961.968C304.744 962.01 304.394 962.034 304.074 962.051C304.045 962.632 303.962 963.201 303.826 963.752C303.316 965.938 302.085 967.851 300.397 969.219C300.137 969.439 299.858 969.64 299.574 969.824V969.83Z" fill="#030303"/>
<path d="M297.508 966.228L298.017 967.111C298.301 966.921 298.574 966.714 298.828 966.483C299.681 965.724 300.344 964.753 300.735 963.663C300.93 963.13 301.055 962.567 301.108 961.986L300.095 961.945C300.036 962.531 299.888 963.1 299.663 963.621C299.349 964.368 298.881 965.031 298.307 965.582C298.058 965.819 297.792 966.032 297.508 966.222V966.228ZM287.316 961.447C287.322 962.034 287.405 962.608 287.559 963.153C288.359 966.086 291.047 968.248 294.227 968.248C294.949 968.248 295.642 968.135 296.3 967.928C296.625 967.827 296.945 967.697 297.247 967.549L296.732 966.672C296.424 966.82 296.104 966.939 295.767 967.028C295.275 967.164 294.754 967.235 294.221 967.235C291.616 967.235 289.407 965.541 288.625 963.195C288.447 962.656 288.341 962.081 288.329 961.489L287.316 961.447Z" fill="#030303"/>
<path d="M298.461 978.236C298.461 979.622 299.592 980.759 300.984 980.759H311.275C312.661 980.759 313.792 979.628 313.792 978.236C313.792 976.843 312.661 975.712 311.275 975.712H300.984C300.936 975.712 300.889 975.712 300.847 975.718C299.521 975.789 298.467 976.891 298.467 978.23L298.461 978.236ZM299.474 978.236C299.474 977.406 300.149 976.731 300.978 976.731H311.27C312.099 976.731 312.774 977.406 312.774 978.236C312.774 979.065 312.099 979.74 311.27 979.74H300.978C300.149 979.74 299.474 979.065 299.474 978.236Z" fill="#030303"/>
<path d="M299.475 978.235C299.475 979.065 300.15 979.74 300.979 979.74H311.271C312.1 979.74 312.775 979.065 312.775 978.235C312.775 977.406 312.1 976.73 311.271 976.73H300.979C300.15 976.73 299.475 977.406 299.475 978.235Z" fill="#4F4F4F"/>
<path d="M279.215 943.361C279.322 943.693 279.428 944.037 279.529 944.374H284.936L284.355 943.361H279.215ZM279.215 943.361C279.322 943.693 279.428 944.037 279.529 944.374H284.936L284.355 943.361H279.215ZM279.215 943.361C279.322 943.693 279.428 944.037 279.529 944.374H284.936L284.355 943.361H279.215ZM279.215 943.361C279.322 943.693 279.428 944.037 279.529 944.374H284.936L284.355 943.361H279.215ZM279.215 943.361C279.322 943.693 279.428 944.037 279.529 944.374H284.936L284.355 943.361H279.215ZM279.215 943.361C279.322 943.693 279.428 944.037 279.529 944.374H284.936L284.355 943.361H279.215ZM279.215 943.361C279.322 943.693 279.428 944.037 279.529 944.374H284.936L284.355 943.361H279.215ZM279.215 943.361C279.322 943.693 279.428 944.037 279.529 944.374H284.936L284.355 943.361H279.215ZM279.215 943.361C279.322 943.693 279.428 944.037 279.529 944.374H284.936L284.355 943.361H279.215ZM279.215 943.361C279.322 943.693 279.428 944.037 279.529 944.374H284.936L284.355 943.361H279.215ZM279.215 943.361C279.322 943.693 279.428 944.037 279.529 944.374H284.936L284.355 943.361H279.215ZM287.44 941.851C287.44 942.68 286.765 943.355 285.936 943.355H279.215C279.322 943.687 279.428 944.031 279.529 944.369H285.936C285.996 944.369 286.049 944.368 286.102 944.357C287.411 944.274 288.453 943.178 288.453 941.845C288.453 940.512 287.322 939.321 285.936 939.321H277.699C277.847 939.653 277.983 939.997 278.12 940.334H285.93C286.759 940.334 287.434 941.01 287.434 941.839L287.44 941.851ZM273.797 940.145C273.963 940.5 274.123 940.867 274.271 941.229C274.507 940.708 275.029 940.346 275.644 940.346H275.733C275.591 940.014 275.449 939.689 275.295 939.357C274.703 939.434 274.176 939.724 273.797 940.145ZM275.064 943.243C275.2 943.616 275.325 943.983 275.455 944.363C275.52 944.368 275.585 944.374 275.65 944.374H277.237C277.131 944.037 277.018 943.693 276.906 943.361H275.656C275.449 943.361 275.254 943.32 275.07 943.243H275.064ZM279.215 943.361C279.322 943.693 279.428 944.037 279.529 944.374H284.936L284.355 943.361H279.215ZM279.215 943.361C279.322 943.693 279.428 944.037 279.529 944.374H284.936L284.355 943.361H279.215ZM279.215 943.361C279.322 943.693 279.428 944.037 279.529 944.374H284.936L284.355 943.361H279.215ZM279.215 943.361C279.322 943.693 279.428 944.037 279.529 944.374H284.936L284.355 943.361H279.215ZM279.215 943.361C279.322 943.693 279.428 944.037 279.529 944.374H284.936L284.355 943.361H279.215ZM279.215 943.361C279.322 943.693 279.428 944.037 279.529 944.374H284.936L284.355 943.361H279.215ZM279.215 943.361C279.322 943.693 279.428 944.037 279.529 944.374H284.936L284.355 943.361H279.215ZM279.215 943.361C279.322 943.693 279.428 944.037 279.529 944.374H284.936L284.355 943.361H279.215ZM279.215 943.361C279.322 943.693 279.428 944.037 279.529 944.374H284.936L284.355 943.361H279.215ZM279.215 943.361C279.322 943.693 279.428 944.037 279.529 944.374H284.936L284.355 943.361H279.215Z" fill="#030303"/>
<path d="M298.822 966.488L300.392 969.225C302.079 967.856 303.311 965.943 303.82 963.757C303.666 963.763 303.524 963.763 303.394 963.763C303.068 963.763 302.837 963.751 302.754 963.751L300.729 963.668C300.338 964.758 299.675 965.724 298.822 966.488Z" fill="#5D5D5D"/>
<path d="M294.932 961.743L295.926 963.479L297.508 966.228L298.011 967.11L299.574 969.829L300.084 970.706L302.955 975.712L303.524 976.701L304.406 976.198L304.122 975.712L300.907 970.12L300.397 969.225L298.822 966.488L298.307 965.588L297.123 963.526L296.128 961.791L294.932 961.743Z" fill="#030303"/>
<path d="M279.955 940.346C280.334 941.335 280.683 942.342 280.991 943.361H285.942C286.771 943.361 287.446 942.686 287.446 941.856C287.446 941.027 286.771 940.352 285.942 940.352H279.955V940.346Z" fill="#4F4F4F"/>
<path d="M284.361 943.361L284.942 944.374L286.517 947.123L287.458 948.764C287.849 948.746 288.228 948.728 288.595 948.711L287.648 947.064L286.102 944.368L285.522 943.367H284.355L284.361 943.361Z" fill="#030303"/>
<path d="M284.207 963.011C284.953 967.797 289.098 971.47 294.09 971.47C295.446 971.47 296.743 971.198 297.922 970.706L296.299 967.928C295.642 968.135 294.949 968.248 294.227 968.248C291.047 968.248 288.358 966.085 287.559 963.153L284.207 963.017V963.011Z" fill="#4F4F4F"/>
<path d="M294.85 963.438L296.733 966.672L297.248 967.549L298.841 970.273L299.35 971.15L302.015 975.711H302.956L300.084 970.706L299.575 969.828L298.012 967.109L297.508 966.228L295.927 963.479L294.85 963.438Z" fill="#5D5D5D"/>
<path d="M292.635 961.654L293.647 963.39L295.773 967.027L296.3 967.928L297.917 970.706L298.438 971.589L300.848 975.718L301.286 976.476L302.163 975.967L302.015 975.712L299.35 971.15L298.841 970.274L297.248 967.549L296.733 966.672L294.849 963.437L293.837 961.702L292.635 961.654Z" fill="#030303"/>
<path d="M279.312 957.851C279.312 958.952 279.27 960.042 279.187 961.121L283.078 961.275L284.09 961.316L287.318 961.446L288.33 961.488L292.635 961.66L293.837 961.707L294.933 961.748L296.129 961.796L300.097 961.956L301.109 961.997L302.838 962.062C303.123 962.074 303.561 962.08 304.076 962.062C304.396 962.045 304.745 962.021 305.1 961.979C306.101 961.855 307.155 961.612 307.801 961.15C308.174 960.878 308.156 959.918 307.747 958.644C307.357 957.418 306.735 956.245 305.888 955.161C304.828 953.81 302.767 951.346 300.789 949.995C298.036 948.112 295.016 948.384 294.986 948.39H294.939C294.826 948.402 292.398 948.52 288.609 948.71C288.241 948.728 287.862 948.745 287.472 948.763C287.099 948.781 286.72 948.799 286.323 948.822C285.95 948.84 285.571 948.858 285.186 948.882C284.292 948.923 283.35 948.971 282.373 949.024C281.816 949.053 281.254 949.077 280.674 949.107C279.957 949.142 279.223 949.178 278.477 949.213C279.033 952.009 279.317 954.9 279.317 957.851H279.312Z" fill="#CE6326"/>
<path d="M283.723 944.374L285.357 947.176C285.754 947.158 286.139 947.135 286.518 947.117L284.943 944.368H283.723V944.374Z" fill="#5D5D5D"/>
<path d="M282.484 944.261L282.55 944.368L284.219 947.229L285.179 948.876C285.57 948.858 285.943 948.841 286.316 948.817L285.356 947.176L283.722 944.374L283.361 943.758L282.484 944.267V944.261Z" fill="#030303"/>
<path d="M281.377 891.71L281.513 892.297L293.848 946.75L294.067 947.733L295.719 947.36L295.565 946.678H295.559L294.57 942.289L294.162 940.482L293.682 938.385L293.28 936.59L283.201 892.101L283.023 891.331L281.377 891.71Z" fill="#030303"/>
<path d="M277.842 891.971L278.008 892.676L281.377 907.113L281.762 908.771L282.354 911.319L282.745 912.983L290.662 946.916L290.864 947.798L292.51 947.413L292.374 946.827L279.701 892.498L279.488 891.586L277.842 891.971Z" fill="#030303"/>
<path d="M263.292 889.05C264.323 891.343 266.668 892.196 267.799 892.605C269.113 893.079 270.327 893.209 271.387 893.209C272.068 893.209 272.678 893.156 273.217 893.108C275.112 892.948 276.675 892.806 278.002 892.67C278.612 892.611 279.174 892.551 279.695 892.492C280.358 892.427 280.951 892.356 281.507 892.291C282.117 892.226 282.668 892.16 283.195 892.095C283.45 892.066 283.698 892.036 283.941 892.006C284.569 891.929 285.179 891.852 285.83 891.781L286.825 891.669C290.71 891.23 293.28 890.94 294.736 889.044C295.056 888.63 295.909 887.522 295.773 886.011C295.755 885.84 295.589 884.329 294.411 883.429C293.777 882.943 293.06 882.777 292.326 882.777C291.515 882.777 290.68 882.978 289.892 883.162C289.738 883.198 289.579 883.239 289.425 883.275C289.395 883.28 286.57 883.914 282.354 883.914H282.342C280.607 883.914 277.747 883.126 272.044 881.557L271.168 881.314C268.255 880.508 267.278 880.236 265.987 880.864C263.346 882.155 262.013 886.207 263.286 889.044L263.292 889.05ZM266.733 882.386C267.42 882.048 268.018 882.19 270.718 882.943L271.6 883.186C277.445 884.797 280.382 885.603 282.348 885.603H282.36C286.783 885.603 289.685 884.945 289.809 884.916C289.969 884.88 290.129 884.839 290.295 884.803C291.533 884.507 292.693 884.228 293.392 884.761C294.008 885.235 294.097 886.142 294.103 886.154C294.18 887.007 293.659 887.682 293.41 888.008C292.385 889.335 290.106 889.595 286.647 889.986L285.647 890.099C284.995 890.176 284.379 890.247 283.746 890.324C281.377 890.608 278.694 890.94 273.075 891.42C271.79 891.527 270.185 891.663 268.373 891.005C267.396 890.65 265.572 889.986 264.832 888.345C263.843 886.16 265.075 883.186 266.733 882.38V882.386Z" fill="#030303"/>
<path d="M264.832 888.357C265.572 889.998 267.396 890.655 268.373 891.017C270.185 891.674 271.784 891.538 273.075 891.432C278.689 890.952 281.377 890.626 283.746 890.336C284.379 890.259 284.995 890.182 285.647 890.11L286.647 889.998C290.106 889.607 292.385 889.346 293.41 888.019C293.659 887.694 294.174 887.024 294.103 886.165C294.103 886.153 294.008 885.247 293.392 884.773C292.693 884.24 291.533 884.518 290.295 884.814C290.135 884.85 289.975 884.891 289.81 884.927C289.685 884.957 286.784 885.614 282.36 885.614H282.348C280.388 885.614 277.451 884.803 271.6 883.197L270.718 882.954C268.018 882.202 267.42 882.06 266.733 882.398C265.075 883.203 263.843 886.177 264.832 888.363V888.357Z" fill="#7C5039"/>
<path d="M279.701 892.498L292.374 946.827C292.96 946.797 293.457 946.773 293.842 946.75L281.507 892.297C280.951 892.362 280.359 892.427 279.695 892.498H279.701Z" fill="#CE6326"/>
<path d="M293.139 941.246L294.151 942.603L294.572 942.289L349.235 901.414L350.614 900.377L349.608 899.026L348.696 899.708L294.163 940.482L293.139 941.246Z" fill="#030303"/>
<path d="M292.107 937.449L293.108 938.805L293.683 938.385L348.227 898.214L349.346 897.391L348.346 896.028L347.688 896.514L293.28 936.59L292.107 937.449Z" fill="#030303"/>
<path d="M264.109 924.31C268.823 928.457 272.66 933.581 275.301 939.357C275.449 939.682 275.597 940.014 275.74 940.346C276.16 941.335 276.551 942.343 276.9 943.362C277.013 943.694 277.125 944.038 277.232 944.375C277.563 945.418 277.854 946.471 278.108 947.544C278.86 947.508 279.6 947.468 280.323 947.432C280.098 946.395 279.831 945.382 279.535 944.375C279.435 944.032 279.328 943.694 279.221 943.362C278.89 942.343 278.529 941.335 278.132 940.346C277.996 940.002 277.859 939.665 277.711 939.333C274.999 932.994 270.919 927.385 265.88 922.854C265.288 923.327 264.696 923.818 264.115 924.31H264.109Z" fill="#CE6326"/>
<path d="M243.832 949.249L243.874 949.267L245.389 949.901C245.49 949.658 245.597 949.415 245.697 949.172C248.7 942.212 252.851 935.849 257.902 930.31C258.583 929.558 259.282 928.823 259.998 928.101C260.916 927.183 261.852 926.287 262.817 925.422C263.237 925.043 263.67 924.671 264.102 924.304C264.682 923.812 265.269 923.326 265.867 922.846C266.334 922.473 266.808 922.112 267.282 921.75C272.007 918.184 277.195 915.216 282.737 912.977C283.022 912.864 283.306 912.751 283.59 912.638L282.98 911.062C282.773 911.145 282.56 911.229 282.347 911.312C276.466 913.658 270.965 916.809 265.979 920.612C265.499 920.979 265.026 921.347 264.558 921.727C263.96 922.206 263.368 922.698 262.787 923.202C262.355 923.575 261.929 923.954 261.502 924.333C260.537 925.204 259.596 926.104 258.684 927.029C257.961 927.751 257.262 928.486 256.581 929.244C251.258 935.103 246.911 941.856 243.826 949.249H243.832Z" fill="#030303"/>
<path d="M243.874 949.268L243.833 949.25C246.918 941.857 251.265 935.103 256.588 929.245C257.269 928.492 257.974 927.752 258.69 927.029C259.602 926.105 260.544 925.205 261.509 924.334C261.936 923.955 262.362 923.575 262.794 923.202C263.375 922.699 263.967 922.207 264.565 921.727C265.033 921.348 265.506 920.981 265.986 920.614C270.966 916.81 276.473 913.665 282.353 911.313L281.761 908.766C275.2 911.135 269.089 914.524 263.611 918.718C263.126 919.085 262.646 919.464 262.178 919.849C261.568 920.341 260.964 920.845 260.372 921.354C259.934 921.733 259.502 922.118 259.075 922.509C258.104 923.398 257.157 924.31 256.233 925.252C255.516 925.987 254.812 926.739 254.131 927.509C248.44 933.871 243.928 941.3 240.955 949.41C241.737 949.368 242.72 949.315 243.869 949.256L243.874 949.268Z" fill="#CE6326"/>
<path d="M191.568 939.309C191.598 939.404 191.657 939.505 191.87 939.582C192.989 940.003 193.801 939.505 194.097 939.28C201.155 923.907 216.694 913.208 234.678 913.208C243.602 913.208 251.922 915.845 258.904 920.371C259.496 919.849 260.106 919.334 260.716 918.83C253.165 913.712 244.105 910.744 234.506 910.744C216.682 910.744 200.101 921.034 192.267 936.964L192.225 937.041C191.852 937.645 191.379 938.782 191.562 939.315L191.568 939.309Z" fill="#CE6326"/>
<path d="M238.982 949.943L240.575 950.499C240.7 950.144 240.83 949.777 240.954 949.427C243.927 941.311 248.439 933.889 254.13 927.526C254.817 926.756 255.516 926.004 256.232 925.269C257.156 924.327 258.103 923.415 259.075 922.527C259.501 922.136 259.933 921.75 260.371 921.371C260.964 920.862 261.562 920.352 262.178 919.867C262.651 919.482 263.131 919.102 263.611 918.735C269.082 914.535 275.199 911.153 281.761 908.783C282.086 908.659 282.418 908.546 282.749 908.433L282.199 906.834C281.926 906.929 281.648 907.029 281.376 907.124C274.489 909.589 267.975 913.184 262.166 917.693C261.68 918.066 261.195 918.451 260.721 918.836C260.105 919.339 259.501 919.855 258.909 920.376C258.471 920.755 258.032 921.152 257.606 921.549C256.937 922.159 256.286 922.787 255.646 923.427C255.344 923.723 255.048 924.031 254.758 924.333C254.035 925.074 253.337 925.838 252.65 926.614C246.734 933.314 242.103 941.151 239.136 949.534C239.083 949.67 239.036 949.812 238.988 949.954L238.982 949.943Z" fill="#030303"/>
<path d="M321.496 958.236C321.496 961.98 321.934 965.706 322.799 969.314C322.905 969.587 323.693 971.441 324.753 971.228C325.718 971.026 325.635 969.172 325.606 968.722C324.848 965.464 324.445 962.069 324.445 958.58C324.445 939.244 336.798 922.74 354.018 916.55C353.698 915.537 353.378 914.529 353.065 913.528C334.69 920.062 321.496 937.639 321.496 958.236Z" fill="#CE6326"/>
<path d="M357.818 912.118C358.144 913.154 358.458 914.162 358.766 915.145C362.07 914.357 365.528 913.942 369.069 913.942C380.942 913.942 391.749 918.605 399.75 926.193L399.779 926.11C401.514 926.685 403.291 926.809 403.534 926.507C403.788 926.175 403.06 925.263 402.604 924.866L402.551 924.813C393.579 915.785 381.635 910.809 368.91 910.809C365.09 910.809 361.377 911.259 357.824 912.118H357.818Z" fill="#CE6326"/>
<path d="M345.219 882.848C345.248 883.031 345.308 883.322 345.444 883.754C345.663 884.489 349.595 896.935 354.16 911.383C354.332 911.917 354.498 912.456 354.67 912.995C354.99 913.996 355.303 915.003 355.623 916.01C355.795 916.543 355.967 917.082 356.132 917.621C356.523 918.848 356.908 920.08 357.299 921.306C357.607 922.278 357.909 923.243 358.217 924.209C362.078 936.436 365.767 948.1 367.538 953.71C367.988 953.562 368.467 953.485 368.971 953.479C367.662 949.22 363.955 937.354 359.703 923.776C359.401 922.817 359.099 921.845 358.791 920.874C358.412 919.647 358.027 918.415 357.636 917.177C357.465 916.638 357.299 916.105 357.133 915.56C356.813 914.559 356.5 913.552 356.186 912.544C356.014 912.005 355.848 911.472 355.676 910.933C352.485 900.738 349.305 890.596 346.835 882.729L346.812 882.634C346.794 882.557 346.735 882.433 346.681 882.403C346.64 882.38 346.51 882.368 346.261 882.463L345.225 882.854L345.219 882.848Z" fill="#CE6326"/>
<path d="M293.682 938.385L294.155 940.482L348.694 899.708C348.534 899.198 348.374 898.707 348.226 898.215L293.682 938.385Z" fill="#CE6326"/>
<path d="M343.828 884.24C343.964 884.702 345.486 889.524 347.689 896.508C347.867 897.065 348.044 897.628 348.228 898.214C348.382 898.7 348.536 899.198 348.696 899.707C348.873 900.264 349.051 900.839 349.235 901.413C350.271 904.677 351.39 908.232 352.557 911.922C352.728 912.456 352.894 912.995 353.066 913.534C353.38 914.535 353.7 915.542 354.019 916.555C354.191 917.094 354.363 917.627 354.529 918.166C354.919 919.393 355.304 920.625 355.695 921.851C356.003 922.823 356.305 923.788 356.613 924.76C359.876 935.079 363.008 945.002 364.98 951.228C365.371 952.478 365.721 953.568 366.011 954.492C366.129 954.859 366.236 955.197 366.336 955.511C366.703 956.678 366.946 957.436 367.023 957.697L368.296 957.294L368.634 957.187C368.622 957.158 368.569 956.986 368.48 956.696C368.397 956.423 368.273 956.044 368.125 955.576C368.042 955.309 367.947 955.019 367.846 954.693C367.752 954.391 367.645 954.065 367.538 953.722C365.768 948.112 362.079 936.448 358.218 924.221C357.91 923.255 357.608 922.289 357.3 921.318C356.909 920.086 356.524 918.859 356.133 917.633C355.962 917.094 355.796 916.561 355.624 916.022C355.304 915.009 354.99 914.002 354.671 913.007C354.499 912.467 354.333 911.934 354.161 911.395C349.596 896.947 345.664 884.501 345.445 883.766C345.314 883.333 345.249 883.043 345.22 882.86L346.256 882.469C346.505 882.374 346.635 882.386 346.676 882.409C346.736 882.439 346.789 882.569 346.807 882.64L346.83 882.735C349.3 890.596 352.48 900.744 355.671 910.939C355.843 911.478 356.009 912.011 356.181 912.55C356.495 913.557 356.808 914.565 357.128 915.566C357.294 916.105 357.46 916.644 357.632 917.183C358.022 918.421 358.407 919.659 358.786 920.879C359.094 921.851 359.396 922.823 359.698 923.782C363.95 937.366 367.657 949.226 368.966 953.485C369.06 953.799 369.143 954.071 369.214 954.296C369.362 954.776 369.445 955.067 369.469 955.144L370.197 954.96H371.139C371.139 954.924 371.139 954.889 370.973 954.326C370.932 954.184 370.878 954.006 370.813 953.787C370.659 953.272 370.434 952.525 370.091 951.441C368.936 947.685 366.496 939.836 361.338 923.379C361.042 922.437 360.74 921.466 360.427 920.465C360.053 919.274 359.669 918.036 359.272 916.762C359.1 916.229 358.934 915.696 358.763 915.145C358.455 914.162 358.135 913.155 357.815 912.118C357.649 911.585 357.483 911.052 357.306 910.507C354.825 902.592 351.899 893.262 348.447 882.261C348.388 882.018 348.175 881.319 347.505 880.934C347.292 880.81 346.99 880.697 346.588 880.691C346.315 880.691 346.001 880.745 345.646 880.875L345.587 880.893L344.373 881.349L344.249 881.39C344.053 881.444 343.881 881.562 343.745 881.722C343.662 881.823 343.603 881.935 343.562 882.066C343.408 882.522 343.491 883.179 343.804 884.228L343.828 884.24Z" fill="#030303"/>
<path d="M330.734 867.89C332.315 868.198 337.26 869.513 340.57 874.187C342.844 877.398 344.058 879.856 344.68 881.361L345.894 880.905C345.479 879.554 344.283 875.994 342.88 874.43C342.726 874.258 342.649 874.027 342.672 873.796C342.696 873.565 342.815 873.352 343.004 873.21C343.703 872.688 346.03 870.887 346.498 869.525C346.587 869.264 346.699 868.98 346.818 868.69C347.516 866.942 348.304 864.958 346.533 862.576C345.017 860.544 343.679 859.117 343.016 858.441C342.951 858.376 342.874 858.364 342.832 858.364C342.791 858.364 342.72 858.376 342.655 858.447L341.897 859.306C341.867 859.342 341.861 859.377 341.861 859.401C341.861 859.425 341.873 859.466 341.914 859.502C343.022 860.449 346.018 863.613 345.882 865.437C345.734 867.463 345.355 869.46 342.412 871.563C341.855 871.96 341.097 871.871 340.641 871.361C339.67 870.271 336.774 867.635 330.853 866.61L330.758 867.89H330.734Z" fill="#4F4F4F"/>
<path d="M329.715 867.902C329.68 868.364 329.999 868.778 330.455 868.867C330.473 868.867 330.485 868.873 330.497 868.879C331.936 869.157 336.614 870.372 339.735 874.773C342.133 878.156 343.317 880.691 343.862 882.078C344.164 882.842 344.265 883.256 344.271 883.268L345.254 883.031C345.242 882.978 345.1 882.397 344.667 881.355C344.052 879.85 342.832 877.392 340.558 874.181C337.248 869.513 332.303 868.192 330.722 867.884L330.817 866.604C336.738 867.629 339.634 870.265 340.605 871.355C341.061 871.865 341.825 871.948 342.376 871.557C345.319 869.454 345.698 867.457 345.846 865.431C345.976 863.613 342.98 860.443 341.878 859.495C341.837 859.46 341.831 859.418 341.825 859.395C341.825 859.371 341.825 859.336 341.861 859.3L342.618 858.441C342.684 858.37 342.755 858.358 342.796 858.358C342.838 858.358 342.915 858.364 342.98 858.435C343.643 859.11 344.987 860.538 346.497 862.57C348.268 864.951 347.48 866.93 346.781 868.684C346.669 868.98 346.556 869.258 346.462 869.519C345.994 870.881 343.667 872.682 342.968 873.204C342.778 873.34 342.66 873.553 342.636 873.79C342.613 874.021 342.69 874.252 342.844 874.424C344.247 875.988 345.443 879.548 345.858 880.899C345.958 881.225 346.012 881.42 346.018 881.432L346.995 881.159C346.983 881.124 346.941 880.958 346.858 880.697C346.462 879.4 345.26 875.733 343.732 873.903C344.78 873.115 346.9 871.367 347.415 869.856C347.504 869.608 347.61 869.341 347.717 869.063C348.434 867.268 349.411 864.803 347.297 861.972C345.745 859.892 344.371 858.417 343.69 857.73C343.442 857.481 343.104 857.339 342.761 857.357C342.737 857.357 342.707 857.357 342.684 857.363C342.364 857.387 342.062 857.541 341.849 857.778L341.677 857.973L341.091 858.637C341.026 858.714 340.966 858.796 340.919 858.891C340.83 859.069 340.783 859.27 340.801 859.478C340.812 859.673 340.878 859.857 340.978 860.023C341.037 860.118 341.114 860.2 341.203 860.277C342.713 861.569 344.898 864.276 344.815 865.366C344.679 867.28 344.365 868.891 341.766 870.745C341.635 870.84 341.446 870.822 341.339 870.698C340.291 869.519 337.182 866.681 330.911 865.609C330.905 865.609 330.899 865.609 330.899 865.609C330.882 865.609 330.858 865.603 330.84 865.597C330.592 865.556 330.337 865.621 330.136 865.775C329.964 865.905 329.851 866.095 329.81 866.296C329.804 866.338 329.798 866.379 329.792 866.421L329.686 867.83V867.908L329.715 867.902Z" fill="#030303"/>
<path d="M329.567 853.838C330.508 854.359 338.739 857.931 340.948 858.885C340.99 858.796 341.049 858.707 341.12 858.63L341.706 857.967L330.899 852.078C330.656 851.984 329.981 851.782 329.585 851.948C329.454 852.007 329.377 852.09 329.318 852.232L329.306 852.274C329.002 853.048 329.089 853.567 329.567 853.832V853.838Z" fill="#4F4F4F"/>
<path d="M329.082 854.727C330.172 855.331 339.942 859.555 341.014 860.017C341.05 860.035 341.079 860.047 341.097 860.053L341.5 859.123C341.5 859.123 341.292 859.034 340.955 858.886C338.746 857.932 330.515 854.36 329.573 853.838C329.092 853.574 329.005 853.054 329.313 852.28L329.325 852.239C329.384 852.097 329.461 852.014 329.591 851.955C329.988 851.789 330.669 851.99 330.906 852.085L341.713 857.973L342.358 858.323L342.844 857.428L342.72 857.363L331.32 851.155C331.196 851.101 330.077 850.645 329.2 851.019C328.821 851.179 328.537 851.469 328.383 851.866L328.365 851.907C327.915 853.062 327.59 853.892 329.088 854.721L329.082 854.727Z" fill="#030303"/>
<path d="M315.231 865.675C315.272 866.93 315.296 866.936 315.876 867.073C316.451 867.197 324.167 867.57 329.721 867.825L329.828 866.415C329.828 866.374 329.84 866.332 329.845 866.291C328.353 865.84 324.398 864.916 316.285 864.733H316.243C316.107 864.715 315.687 864.733 315.456 864.952C315.296 865.1 315.225 865.349 315.231 865.681V865.675Z" fill="#4F4F4F"/>
<path d="M314.219 865.71C314.278 867.482 314.568 867.802 315.622 868.056C316.398 868.246 328.087 868.767 330.497 868.874H330.527L330.568 867.861C330.29 867.849 330.012 867.837 329.722 867.825C324.173 867.576 316.451 867.197 315.877 867.073C315.296 866.937 315.273 866.925 315.231 865.675C315.22 865.343 315.296 865.094 315.456 864.946C315.693 864.727 316.108 864.715 316.244 864.727H316.285C324.398 864.917 328.354 865.835 329.846 866.291C330.343 866.445 330.568 866.546 330.574 866.552L331.013 865.633C331.013 865.633 330.983 865.622 330.947 865.604C330.942 865.604 330.936 865.604 330.936 865.604C330.361 865.355 326.666 863.963 316.333 863.72C316.155 863.702 315.356 863.667 314.769 864.206C314.503 864.455 314.189 864.911 314.219 865.71Z" fill="#030303"/>
<path d="M378.605 923.498L367.912 958.355L369.242 958.764L379.935 923.906L378.605 923.498Z" fill="#030303"/>
<path d="M371.039 959.336L369.975 960.233L392.172 986.576L393.236 985.679L371.039 959.336Z" fill="#030303"/>
<path d="M335.805 941.854L335.152 943.083L364.461 958.641L365.114 957.41L335.805 941.854Z" fill="#030303"/>
<path d="M365.146 959.517L331.797 965.382L332.038 966.753L365.387 960.888L365.146 959.517Z" fill="#030303"/>
<path d="M367.351 960.091L336.02 974.282L336.594 975.55L367.925 961.359L367.351 960.091Z" fill="#030303"/>
<path d="M367.902 958.395L359.207 993.518L360.558 993.852L369.253 958.729L367.902 958.395Z" fill="#030303"/>
<path d="M403.408 943.657L372.312 957.17L372.868 958.447L403.962 944.934L403.408 943.657Z" fill="#030303"/>
<path d="M242.218 921.771L234.051 955.365L235.403 955.693L243.57 922.1L242.218 921.771Z" fill="#030303"/>
<path d="M209.855 929.521L208.812 930.441L231.165 955.797L232.21 954.876L209.855 929.521Z" fill="#030303"/>
<path d="M199.657 945.54L199.18 946.848L230.758 958.383L231.235 957.075L199.657 945.54Z" fill="#030303"/>
<path d="M231.495 960.544L201.549 976.365L202.199 977.596L232.145 961.775L231.495 960.544Z" fill="#030303"/>
<path d="M232.542 962.56L226.449 994.543L227.817 994.804L233.91 962.821L232.542 962.56Z" fill="#030303"/>
<path d="M235.765 962.041L234.664 962.892L254.912 989.119L256.014 988.268L235.765 962.041Z" fill="#030303"/>
<path d="M237.212 961.067L236.35 962.159L262.568 982.866L263.43 981.773L237.212 961.067Z" fill="#030303"/>
<path d="M368.791 957.891L368.355 959.213L403.733 970.89L404.169 969.568L368.791 957.891Z" fill="#030303"/>
</g>
</svg>
