<svg width="1103" height="302" viewBox="0 0 1103 302" fill="none" xmlns="http://www.w3.org/2000/svg">
<g clip-path="url(#clip0_1196_3539)">
<g opacity="0.7">
<path d="M1083.88 65.9674H791.474C791.156 65.9674 790.909 65.721 790.909 65.4022V38.2585C790.909 37.9397 791.156 37.6934 791.474 37.6934H1083.88C1084.2 37.6934 1084.44 37.9397 1084.44 38.2585V65.4022C1084.44 65.721 1084.2 65.9674 1083.88 65.9674ZM792.039 64.837H1083.31V38.8237H792.039V64.837Z" fill="#030303"/>
<path d="M1035.31 80.7642H966.804C966.485 80.7642 966.239 80.5178 966.239 80.199V23.9988C966.239 23.68 966.485 23.4336 966.804 23.4336H1035.31C1035.63 23.4336 1035.88 23.68 1035.88 23.9988V80.2135C1035.88 80.5323 1035.63 80.7787 1035.31 80.7787V80.7642ZM967.369 79.6338H1034.75V24.564H967.369V79.6483V79.6338Z" fill="#030303"/>
<path d="M1083.36 233.654H1042.93C1042.61 233.654 1042.37 233.408 1042.37 233.089V181.005C1042.37 180.686 1042.61 180.439 1042.93 180.439H1083.36C1083.68 180.439 1083.92 180.686 1083.92 181.005V233.089C1083.92 233.408 1083.68 233.654 1083.36 233.654ZM1043.5 232.524H1082.79V181.57H1043.5V232.524Z" fill="#030303"/>
<path d="M1064.08 64.9961H1062.95V181.135H1064.08V64.9961Z" fill="#030303"/>
<path d="M1025.86 276.103L973.756 276.016C973.452 276.016 973.206 275.77 973.191 275.48L972.163 250.684C972.163 250.525 972.207 250.38 972.322 250.264C972.424 250.148 972.569 250.09 972.728 250.09H1027.29C1027.45 250.09 1027.59 250.148 1027.7 250.264C1027.8 250.38 1027.85 250.525 1027.85 250.684L1026.42 275.567C1026.41 275.871 1026.16 276.103 1025.86 276.103ZM974.307 274.886L1025.32 274.973L1026.68 251.22H973.307L974.292 274.886H974.307Z" fill="#030303"/>
<path d="M979.767 79.8516H978.638V251.467H979.767V79.8516Z" fill="#030303"/>
<path d="M1021.41 80.2129H1020.28V250.857H1021.41V80.2129Z" fill="#030303"/>
<path d="M1020.74 241.538L978.898 219.221C978.71 219.119 978.594 218.916 978.594 218.699C978.594 218.482 978.725 218.293 978.927 218.206L1019.5 200.004L979.116 180.614C978.913 180.512 978.797 180.31 978.797 180.092C978.797 179.875 978.927 179.672 979.13 179.585L1019.22 161.832L979.261 142.993C979.058 142.906 978.942 142.703 978.942 142.485C978.942 142.268 979.072 142.065 979.261 141.978L1019.28 123.051L979.434 104.226C979.232 104.139 979.116 103.936 979.116 103.719C979.116 103.502 979.232 103.299 979.42 103.212L1020.74 82.3867L1021.25 83.4012L980.97 103.705L1020.84 122.544C1021.05 122.631 1021.16 122.834 1021.16 123.051C1021.16 123.269 1021.03 123.472 1020.84 123.559L980.825 142.485L1020.82 161.339C1021.02 161.426 1021.15 161.629 1021.13 161.861C1021.13 162.079 1021 162.281 1020.8 162.368L980.694 180.121L1021.06 199.512C1021.26 199.613 1021.38 199.816 1021.38 200.033C1021.38 200.251 1021.25 200.454 1021.05 200.54L980.419 218.771L1021.25 240.553L1020.71 241.553L1020.74 241.538Z" fill="#030303"/>
<path d="M993.426 80.4593L992.383 80.0391L1001.87 56.5764V23.4766H1003V56.6924C1003 56.6924 1003 56.8373 1002.96 56.9097L993.426 80.4738V80.4593Z" fill="#030303"/>
<path d="M1020.05 24.3898L1000.16 1.44883L982.085 24.2738L981.201 23.5782L999.697 0.217008C999.799 0.0865794 999.958 -0.000372932 1000.13 -0.000372932C1000.29 -0.014865 1000.46 0.0720874 1000.57 0.188024L1020.9 23.6507L1020.05 24.3898Z" fill="#030303"/>
<path d="M803.868 129.321C803.492 129.321 803.144 129.292 802.825 129.249C799.928 128.77 793.179 126.843 793.005 119.177C792.86 112.626 795.829 110.598 798.712 108.612C799.059 108.366 799.422 108.119 799.769 107.873C802.68 105.772 802.623 100.076 802.623 100.018V66.0007C802.623 65.6819 802.869 65.4355 803.187 65.4355C803.506 65.4355 803.752 65.6819 803.752 66.0007V100.004C803.752 100.25 803.839 106.337 800.435 108.786C800.073 109.047 799.711 109.293 799.349 109.54C796.481 111.511 794.004 113.206 794.135 119.133C794.294 125.959 800.392 127.698 803.014 128.118C804.476 128.35 807.533 127.944 809.937 125.829C812.197 123.843 813.297 120.93 813.167 117.206C813.167 116.887 813.399 116.626 813.717 116.626H813.732C814.036 116.626 814.282 116.873 814.297 117.177C814.456 122.264 812.414 125.162 810.676 126.684C808.547 128.553 805.852 129.321 803.854 129.321H803.868Z" fill="#030303"/>
</g>
<g opacity="0.7">
<path d="M1123.43 276.144H-13.4351C-13.7538 276.144 -14 275.898 -14 275.579C-14 275.26 -13.7538 275.014 -13.4351 275.014H1123.45C1123.77 275.014 1124.01 275.26 1124.01 275.579C1124.01 275.898 1123.77 276.144 1123.45 276.144H1123.43Z" fill="#030303"/>
<path d="M203.116 288.273H36.593C36.2743 288.273 36.0281 288.027 36.0281 287.708C36.0281 287.389 36.2743 287.143 36.593 287.143H203.116C203.435 287.143 203.681 287.389 203.681 287.708C203.681 288.027 203.435 288.273 203.116 288.273Z" fill="#030303"/>
<path d="M485.889 288.187H319.366C319.047 288.187 318.801 287.941 318.801 287.622C318.801 287.303 319.047 287.057 319.366 287.057H485.889C486.208 287.057 486.454 287.303 486.454 287.622C486.454 287.941 486.208 288.187 485.889 288.187Z" fill="#030303"/>
<path d="M341.816 301.998H167.659C167.341 301.998 167.094 301.751 167.094 301.432C167.094 301.114 167.341 300.867 167.659 300.867H341.816C342.135 300.867 342.381 301.114 342.381 301.432C342.381 301.751 342.135 301.998 341.816 301.998Z" fill="#030303"/>
<path d="M869.616 288.173H703.092C702.774 288.173 702.528 287.927 702.528 287.608C702.528 287.289 702.774 287.043 703.092 287.043H869.616C869.935 287.043 870.181 287.289 870.181 287.608C870.181 287.927 869.935 288.173 869.616 288.173Z" fill="#030303"/>
<path d="M822.137 301.939H618.505C618.187 301.939 617.94 301.693 617.94 301.374C617.94 301.055 618.187 300.809 618.505 300.809H822.137C822.456 300.809 822.702 301.055 822.702 301.374C822.702 301.693 822.456 301.939 822.137 301.939Z" fill="#030303"/>
<path d="M1066.24 301.853H862.606C862.287 301.853 862.041 301.607 862.041 301.288C862.041 300.969 862.287 300.723 862.606 300.723H1066.24C1066.56 300.723 1066.8 300.969 1066.8 301.288C1066.8 301.607 1066.56 301.853 1066.24 301.853Z" fill="#030303"/>
<path d="M415.294 163.426C399.477 163.426 386.615 150.557 386.615 134.731C386.615 118.906 399.477 106.037 415.294 106.037C431.11 106.037 443.972 118.906 443.972 134.731C443.972 150.557 431.11 163.426 415.294 163.426ZM415.294 107.182C400.1 107.182 387.759 119.544 387.759 134.731C387.759 149.919 400.114 162.281 415.294 162.281C430.473 162.281 442.828 149.919 442.828 134.731C442.828 119.544 430.473 107.182 415.294 107.182Z" fill="#030303"/>
<path d="M415.294 135.89C415.163 135.89 415.033 135.847 414.932 135.76L403.315 125.891C403.084 125.688 403.04 125.325 403.243 125.093C403.446 124.847 403.808 124.833 404.04 125.021L415.656 134.89C415.888 135.093 415.931 135.455 415.728 135.687C415.612 135.818 415.453 135.89 415.294 135.89Z" fill="#030303"/>
<path d="M415.323 145.412C415.192 145.412 415.062 145.368 414.961 145.281C414.714 145.078 414.685 144.716 414.888 144.484L427.982 128.905C428.185 128.673 428.547 128.644 428.778 128.833C429.025 129.036 429.054 129.398 428.851 129.63L415.757 145.209C415.641 145.339 415.482 145.412 415.323 145.412Z" fill="#030303"/>
<path d="M415.062 151.686C414.946 151.686 414.83 151.657 414.729 151.57L406.227 145.237C405.98 145.049 405.922 144.687 406.111 144.44C406.299 144.194 406.661 144.136 406.907 144.324L415.41 150.657C415.656 150.846 415.714 151.208 415.525 151.455C415.41 151.599 415.25 151.686 415.076 151.686H415.062Z" fill="#030303"/>
<path d="M414.743 275.681V118.413C414.743 118.094 414.99 117.848 415.294 117.848C415.598 117.848 415.859 118.094 415.859 118.413V275.652" fill="#030303"/>
<path d="M318.569 178.411C304.027 178.411 292.193 166.571 292.193 152.021C292.193 137.471 304.027 125.631 318.569 125.631C333.111 125.631 344.944 137.471 344.944 152.021C344.944 166.571 333.111 178.411 318.569 178.411ZM318.569 126.674C304.606 126.674 293.236 138.036 293.236 152.021C293.236 166.006 304.592 177.368 318.569 177.368C332.546 177.368 343.902 166.006 343.902 152.021C343.902 138.036 332.546 126.674 318.569 126.674Z" fill="#030303"/>
<path d="M318.569 155.05C318.438 155.05 318.308 155.007 318.207 154.92L306.59 145.051C306.359 144.848 306.315 144.486 306.518 144.254C306.721 144.007 307.083 143.993 307.315 144.181L318.931 154.05C319.163 154.253 319.206 154.615 319.003 154.847C318.887 154.978 318.728 155.05 318.569 155.05Z" fill="#030303"/>
<path d="M318.583 164.572C318.453 164.572 318.323 164.528 318.221 164.441C317.975 164.238 317.946 163.876 318.149 163.644L331.243 148.065C331.445 147.833 331.807 147.804 332.039 147.993C332.285 148.196 332.314 148.558 332.112 148.79L319.018 164.369C318.902 164.499 318.743 164.572 318.583 164.572Z" fill="#030303"/>
<path d="M318.323 170.847C318.207 170.847 318.091 170.818 317.99 170.731L309.487 164.398C309.241 164.209 309.183 163.847 309.371 163.601C309.56 163.354 309.922 163.296 310.168 163.485L318.67 169.818C318.916 170.006 318.974 170.368 318.786 170.615C318.67 170.76 318.511 170.847 318.337 170.847H318.323Z" fill="#030303"/>
<path d="M317.99 275.697V140.471C317.99 140.153 318.25 139.906 318.569 139.906C318.888 139.906 319.134 140.153 319.134 140.471V275.668" fill="#030303"/>
<path d="M366.439 158.789C366.439 158.919 366.395 159.05 366.309 159.151C366.193 159.281 366.033 159.354 365.874 159.354C365.744 159.354 365.613 159.31 365.497 159.209L365.309 159.05L353.881 149.34C353.649 149.137 353.606 148.775 353.809 148.543C354.026 148.296 354.374 148.267 354.62 148.47L365.309 157.571L366.236 158.354C366.366 158.47 366.439 158.629 366.439 158.789Z" fill="#030303"/>
<path d="M379.416 153.078L366.439 168.512L366.323 168.657C366.221 168.787 366.048 168.86 365.888 168.86C365.758 168.86 365.628 168.816 365.526 168.729C365.294 168.526 365.251 168.164 365.454 167.932L366.439 166.758L378.562 152.353C378.765 152.107 379.127 152.092 379.359 152.281C379.59 152.484 379.619 152.846 379.416 153.078Z" fill="#030303"/>
<path d="M366.091 174.917C365.975 175.062 365.802 175.135 365.628 175.135C365.512 175.135 365.411 175.106 365.309 175.033H365.295L356.793 168.7C356.546 168.512 356.488 168.15 356.677 167.903C356.865 167.657 357.227 167.599 357.473 167.787L365.309 173.628L365.975 174.12C366.222 174.309 366.28 174.657 366.091 174.917Z" fill="#030303"/>
<path d="M366.439 147.151V275.536C366.439 275.855 366.178 276.101 365.874 276.101C365.555 276.101 365.309 275.855 365.309 275.536V147.151C365.309 146.847 365.555 146.586 365.874 146.586C366.193 146.586 366.439 146.847 366.439 147.151Z" fill="#030303"/>
<path d="M387.021 162.15C385.297 159.266 383.356 155.919 383.226 150.803C383.153 148.122 383.617 146.006 384.008 144.166C384.645 141.253 385.167 138.76 383.675 135.224C382.255 131.789 379.822 129.688 378.692 128.645C374.521 125.021 369.944 123.268 365.121 123.369C363.672 123.398 356.228 123.848 351.404 129.818C348.812 132.963 348.059 136.267 347.841 137.499C346.958 141.354 347.667 143.716 348.421 146.238C348.942 147.991 349.449 149.803 349.579 152.296C349.782 157.092 348.16 160.208 346.61 163.179C344.915 166.425 343.337 169.498 344.438 174.266C345.249 177.787 346.871 180.714 349.261 182.946C353.562 186.932 359.009 187.279 363.672 187.279H365.353C365.715 187.279 366.033 187.279 366.395 187.25H366.439C371.001 187.149 377.794 186.714 383.487 181.613C384.877 180.352 388.179 177.439 389.382 172.7C390.569 168.266 388.831 165.295 387.021 162.15ZM388.368 172.411C387.209 176.86 384.095 179.642 382.777 180.845C377.374 185.685 370.871 186.12 366.439 186.178H366.395C366.033 186.221 365.715 186.221 365.353 186.221H365.222C360.211 186.279 354.475 186.308 349.999 182.164C347.769 180.062 346.219 177.338 345.466 174.034C344.438 169.657 345.857 166.875 347.537 163.672C349.101 160.686 350.854 157.353 350.622 152.238C350.521 149.615 349.941 147.658 349.42 145.948C348.71 143.455 348.059 141.311 348.87 137.717C349.101 136.514 349.782 133.441 352.201 130.499C356.778 124.891 363.759 124.471 365.164 124.442H365.512C369.944 124.442 374.159 126.123 377.983 129.456C379.054 130.427 381.343 132.441 382.704 135.644C384.066 138.847 383.588 141.093 382.965 143.934C382.574 145.716 382.183 147.76 382.183 150.296V150.846C382.313 156.252 384.298 159.658 386.079 162.701C387.89 165.773 389.411 168.425 388.368 172.411Z" fill="#030303"/>
<path d="M388.368 172.41C387.209 176.859 384.095 179.642 382.777 180.844C377.374 185.685 370.871 186.12 366.439 186.178V168.512L379.416 153.078C379.619 152.846 379.59 152.484 379.359 152.281C379.127 152.092 378.765 152.107 378.562 152.353L366.439 166.758V147.15C366.439 146.846 366.178 146.585 365.874 146.585C365.555 146.585 365.309 146.846 365.309 147.15V157.57L354.62 148.469C354.373 148.266 354.026 148.295 353.809 148.542C353.606 148.774 353.649 149.136 353.881 149.339L365.309 159.048V173.627L357.473 167.787C357.227 167.599 356.865 167.657 356.676 167.903C356.488 168.149 356.546 168.512 356.792 168.7L365.294 175.033H365.309V186.221H365.222C360.211 186.279 354.475 186.308 349.999 182.163C347.769 180.062 346.219 177.337 345.466 174.033C344.437 169.657 345.857 166.874 347.537 163.671C349.101 160.686 350.854 157.353 350.622 152.237C350.521 149.614 349.941 147.658 349.42 145.948C348.71 143.455 348.058 141.31 348.87 137.716C349.101 136.513 349.782 133.441 352.201 130.499C356.778 124.891 363.759 124.47 365.164 124.441H365.512C369.944 124.441 374.159 126.122 377.983 129.456C379.054 130.427 381.343 132.441 382.704 135.644C384.066 138.847 383.588 141.093 382.965 143.933C382.574 145.716 382.183 147.759 382.183 150.295V150.846C382.313 156.251 384.298 159.657 386.079 162.7C387.89 165.773 389.41 168.425 388.368 172.41Z" fill="#CE6326"/>
<path d="M286.979 146.354C285.256 143.47 283.315 140.137 283.184 135.022C283.126 132.326 283.575 130.225 283.966 128.384C284.618 125.471 285.125 122.979 283.648 119.443C282.228 116.008 279.795 113.907 278.665 112.863C274.494 109.24 269.917 107.487 265.094 107.588C263.631 107.617 256.186 108.081 251.363 114.037C248.77 117.182 248.031 120.486 247.8 121.718C246.931 125.573 247.64 127.935 248.379 130.471C248.9 132.225 249.422 134.036 249.552 136.529C249.741 141.326 248.133 144.427 246.569 147.412C244.888 150.659 243.295 153.731 244.396 158.499C245.207 162.035 246.829 164.948 249.219 167.179C253.521 171.165 258.967 171.527 263.631 171.527H265.832C265.992 171.527 266.195 171.498 266.354 171.498C270.916 171.397 277.753 170.976 283.445 165.861C284.836 164.6 288.138 161.687 289.34 156.948C290.542 152.514 288.79 149.528 286.979 146.383V146.354ZM288.341 156.615C287.182 161.049 284.068 163.846 282.735 165.035C277.333 169.89 270.786 170.31 266.354 170.382C266.195 170.411 265.992 170.411 265.832 170.411H265.181C260.155 170.469 254.433 170.513 249.958 166.368C247.727 164.267 246.163 161.542 245.424 158.238C244.396 153.861 245.815 151.079 247.496 147.876C249.045 144.891 250.798 141.558 250.566 136.442C250.465 133.819 249.885 131.877 249.364 130.152C248.654 127.66 248.002 125.515 248.814 121.921C249.045 120.718 249.726 117.646 252.145 114.689C256.707 109.081 263.703 108.661 265.094 108.632H265.456C269.888 108.632 274.103 110.313 277.927 113.646C278.998 114.617 281.287 116.631 282.648 119.834C284.01 123.037 283.517 125.283 282.909 128.123C282.518 129.906 282.127 131.949 282.127 134.471V135.022C282.257 140.427 284.227 143.833 286.009 146.876C287.819 149.948 289.34 152.615 288.312 156.6L288.341 156.615Z" fill="#030303"/>
<path d="M288.341 156.614C287.182 161.049 284.068 163.846 282.735 165.034C277.333 169.889 270.786 170.309 266.354 170.382C266.194 170.411 265.992 170.411 265.832 170.411H265.181C260.155 170.468 254.433 170.512 249.958 166.367C247.727 164.266 246.163 161.541 245.424 158.237C244.396 153.861 245.815 151.078 247.495 147.875C249.045 144.89 250.798 141.557 250.566 136.441C250.465 133.818 249.885 131.876 249.364 130.152C248.654 127.659 248.002 125.514 248.814 121.92C249.045 120.717 249.726 117.645 252.145 114.689C256.707 109.08 263.703 108.66 265.094 108.631H265.456C269.888 108.631 274.103 110.312 277.927 113.645C278.998 114.616 281.287 116.63 282.648 119.833C284.01 123.036 283.517 125.282 282.909 128.123C282.518 129.905 282.127 131.949 282.127 134.47V135.021C282.257 140.426 284.227 143.832 286.009 146.875C287.819 149.948 289.34 152.614 288.312 156.6L288.341 156.614Z" fill="#CE6326"/>
<path d="M265.832 143.542C265.702 143.542 265.572 143.499 265.47 143.412L253.854 133.528C253.622 133.325 253.579 132.963 253.782 132.731C253.984 132.499 254.347 132.47 254.578 132.659L266.195 142.542C266.426 142.745 266.47 143.108 266.267 143.339C266.151 143.47 265.992 143.542 265.832 143.542Z" fill="#030303"/>
<path d="M265.861 153.05C265.731 153.05 265.601 153.007 265.499 152.92C265.253 152.717 265.224 152.355 265.427 152.123L278.52 136.558C278.723 136.312 279.085 136.297 279.317 136.486C279.563 136.689 279.592 137.051 279.389 137.283L266.296 152.847C266.18 152.978 266.021 153.05 265.861 153.05Z" fill="#030303"/>
<path d="M265.601 159.339C265.485 159.339 265.369 159.31 265.268 159.223L256.765 152.89C256.519 152.701 256.461 152.339 256.65 152.093C256.838 151.846 257.2 151.788 257.446 151.977L265.948 158.31C266.195 158.498 266.253 158.86 266.064 159.107C265.948 159.252 265.789 159.339 265.615 159.339H265.601Z" fill="#030303"/>
<path d="M265.832 276.101C265.514 276.101 265.268 275.855 265.268 275.536V125.862C265.268 125.543 265.514 125.297 265.832 125.297C266.151 125.297 266.397 125.543 266.397 125.862V275.536C266.397 275.855 266.151 276.101 265.832 276.101Z" fill="#030303"/>
<path d="M340.86 231.494C339.6 214.611 329.273 199.873 313.891 192.844H313.876C313.746 192.771 313.63 192.713 313.5 192.641C307.547 190.018 301.232 188.699 294.728 188.699H214.588C199.148 188.699 186.619 201.235 186.619 216.654V252.261C186.619 256.986 190.472 260.812 195.165 260.812H332.445C337.109 260.812 340.962 256.986 340.962 252.261V234.987C340.962 233.827 340.962 232.654 340.86 231.494ZM336.558 258.406C336.167 258.667 335.747 258.899 335.313 259.087C334.864 259.276 334.4 259.42 333.922 259.522C333.444 259.609 332.952 259.667 332.445 259.667H195.165C194.658 259.667 194.165 259.609 193.687 259.522C193.557 259.507 193.412 259.464 193.282 259.42C193.166 259.391 193.065 259.362 192.963 259.333C192.731 259.276 192.514 259.189 192.297 259.087C191.848 258.899 191.428 258.667 191.037 258.406C190.646 258.145 190.284 257.841 189.95 257.493C189.864 257.421 189.777 257.334 189.704 257.232C189.559 257.073 189.429 256.928 189.299 256.754C189.168 256.594 189.052 256.421 188.937 256.247C188.705 255.899 188.517 255.522 188.343 255.131C188.154 254.696 187.995 254.232 187.908 253.74C187.807 253.261 187.749 252.769 187.749 252.261V216.654C187.749 201.844 199.785 189.83 214.588 189.83H294.728C296.38 189.83 298.06 189.931 299.682 190.09C300.073 190.148 300.493 190.177 300.812 190.25H300.826C304.94 190.801 308.923 191.902 312.776 193.583C312.891 193.612 312.949 193.655 313.022 193.684C313.34 193.815 313.63 193.974 313.92 194.134H313.934C328.491 201.017 338.311 215.031 339.672 231.103C339.672 231.277 339.73 231.393 339.73 231.552V232.393C339.788 233.277 339.832 234.146 339.832 234.987V252.261C339.832 254.29 338.992 256.145 337.659 257.493C337.326 257.841 336.949 258.145 336.558 258.406Z" fill="#030303"/>
<path d="M218.31 189.83V226.118H187.749V216.655C187.749 201.844 199.785 189.83 214.588 189.83H218.31Z" fill="#FCFCFC"/>
<path d="M245.99 189.83H219.44V226.118H245.99V189.83Z" fill="#FCFCFC"/>
<path d="M294.728 189.83H274.813V226.118H297.249C298.581 226.118 299.682 225.017 299.682 223.684V190.091C298.06 189.932 296.38 189.83 294.728 189.83ZM286.603 216.93C286.603 216.93 286.516 216.945 286.472 216.945C286.313 216.945 286.154 216.843 286.096 216.669L283.257 208.307C283.185 208.105 283.3 207.873 283.518 207.8C283.706 207.728 283.952 207.844 284.025 208.047L286.864 216.409C286.936 216.626 286.82 216.858 286.603 216.93ZM290.934 216.264C290.934 216.264 290.847 216.293 290.803 216.293C290.629 216.293 290.485 216.191 290.427 216.017L285.603 202.032C285.531 201.829 285.647 201.598 285.85 201.525C286.067 201.453 286.299 201.554 286.371 201.772L291.18 215.756C291.252 215.959 291.151 216.191 290.934 216.264Z" fill="#FCFCFC"/>
<path d="M273.683 189.83H247.119V226.118H273.683V189.83Z" fill="#FCFCFC"/>
<path d="M339.673 231.103C339.673 231.103 339.658 231.103 339.644 231.103C317.164 220.292 314.296 199.583 313.934 194.148C328.491 201.018 338.311 215.031 339.673 231.103Z" fill="#FCFCFC"/>
<path d="M339.832 234.988V252.248C339.832 256.335 336.5 259.668 332.416 259.668H310.632C310.27 251.509 303.535 245.031 295.322 245.031C287.11 245.031 280.36 251.509 280.012 259.668H242.615C242.252 251.509 235.517 245.031 227.305 245.031C219.092 245.031 212.372 251.509 212.024 259.668H195.194C191.109 259.668 187.778 256.335 187.778 252.248V227.235H297.278C299.218 227.235 300.841 225.64 300.841 223.669V190.236C304.954 190.787 308.937 191.888 312.79 193.57C312.949 198.033 315.18 220.916 339.759 232.379C339.817 233.249 339.861 234.133 339.861 234.973L339.832 234.988Z" fill="#CE6326"/>
<path d="M219.44 189.279H218.31V226.698H219.44V189.279Z" fill="#030303"/>
<path d="M247.119 189.41H245.99V226.771H247.119V189.41Z" fill="#030303"/>
<path d="M274.813 189.135H273.683V226.771H274.813V189.135Z" fill="#030303"/>
<path d="M300.812 189.279V223.683C300.812 224.669 300.406 225.567 299.754 226.205C299.653 226.306 299.552 226.408 299.436 226.495C299.088 226.756 298.697 226.959 298.292 227.089C298.118 227.133 297.958 227.176 297.785 227.205C297.611 227.234 297.437 227.248 297.263 227.248H186.996V226.118H297.249C298.581 226.118 299.682 225.017 299.682 223.683V189.279H300.812Z" fill="#030303"/>
<path d="M291.18 215.756C291.252 215.959 291.151 216.191 290.934 216.264C290.89 216.278 290.847 216.293 290.803 216.293C290.629 216.293 290.485 216.191 290.427 216.017L285.603 202.032C285.531 201.829 285.647 201.598 285.85 201.525C286.067 201.453 286.299 201.554 286.371 201.772L291.18 215.756Z" fill="#030303"/>
<path d="M286.863 216.407C286.936 216.625 286.82 216.857 286.603 216.929C286.559 216.944 286.516 216.944 286.472 216.944C286.313 216.944 286.154 216.842 286.096 216.668L283.257 208.306C283.184 208.103 283.3 207.871 283.518 207.799C283.706 207.727 283.952 207.843 284.025 208.045L286.863 216.407Z" fill="#030303"/>
<path d="M208.852 217.843C208.707 217.843 208.563 217.771 208.49 217.626L200.828 203.337C200.727 203.134 200.799 202.888 200.987 202.786C201.19 202.685 201.436 202.757 201.538 202.946L209.2 217.235C209.301 217.438 209.229 217.684 209.041 217.785C208.983 217.814 208.91 217.829 208.852 217.829V217.843Z" fill="#030303"/>
<path d="M204.087 216.046C203.942 216.046 203.797 215.974 203.725 215.829L200.553 209.902C200.451 209.699 200.524 209.467 200.727 209.351C200.915 209.25 201.161 209.308 201.277 209.525L204.449 215.452C204.55 215.655 204.478 215.887 204.275 216.003C204.217 216.032 204.145 216.046 204.087 216.046Z" fill="#030303"/>
<path d="M242.644 260.392C242.644 260.522 242.644 260.682 242.615 260.812C242.426 269.073 235.648 275.754 227.305 275.754C218.962 275.754 212.213 269.073 212.024 260.812C211.995 260.682 211.995 260.522 211.995 260.392C211.995 260.131 211.995 259.899 212.024 259.682C212.386 251.523 219.078 245.045 227.305 245.045C235.532 245.045 242.267 251.523 242.615 259.682C242.644 259.914 242.644 260.131 242.644 260.392Z" fill="#030303"/>
<path d="M227.334 269.057C232.126 269.057 236.01 265.17 236.01 260.376C236.01 255.582 232.126 251.695 227.334 251.695C222.542 251.695 218.658 255.582 218.658 260.376C218.658 265.17 222.542 269.057 227.334 269.057Z" fill="#FCFCFC"/>
<path d="M310.661 260.392C310.661 260.522 310.661 260.682 310.632 260.812C310.444 269.073 303.665 275.754 295.322 275.754C286.979 275.754 280.201 269.073 280.013 260.812C279.984 260.682 279.984 260.522 279.984 260.392C279.984 260.131 279.984 259.899 280.013 259.682C280.375 251.523 287.11 245.045 295.322 245.045C303.535 245.045 310.284 251.523 310.632 259.682C310.661 259.914 310.661 260.131 310.661 260.392Z" fill="#030303"/>
<path d="M295.539 269.057C300.331 269.057 304.215 265.17 304.215 260.376C304.215 255.582 300.331 251.695 295.539 251.695C290.748 251.695 286.864 255.582 286.864 260.376C286.864 265.17 290.748 269.057 295.539 269.057Z" fill="#FCFCFC"/>
<path d="M340.484 231.494L340.006 232.523C339.904 232.494 339.846 232.436 339.745 232.393H339.73C315.165 220.915 312.935 198.061 312.776 193.583C312.747 193.134 312.747 192.873 312.747 192.844H313.876C313.876 192.945 313.876 193.394 313.934 194.134C314.296 199.583 317.164 220.292 339.644 231.103C339.658 231.103 339.658 231.117 339.672 231.117C339.948 231.248 340.208 231.364 340.484 231.494Z" fill="#030303"/>
<path d="M98.2083 276.116H85.3899C84.4774 276.116 83.7532 275.392 83.7532 274.479V272.522C83.7532 271.609 84.4774 270.885 85.3899 270.885H86.0706V271.711H85.3899C84.9409 271.711 84.5788 272.073 84.5788 272.522V274.479C84.5788 274.928 84.9409 275.29 85.3899 275.29H98.2083C98.6428 275.29 99.0194 274.914 99.0194 274.479V272.522C99.0194 272.073 98.6428 271.711 98.2083 271.711H97.5275V270.885H98.2083C99.1063 270.885 99.845 271.624 99.845 272.522V274.479C99.845 275.392 99.1063 276.116 98.2083 276.116Z" fill="#020303"/>
<path d="M97.5276 179.933V271.291H86.0852V179.933C86.0852 179.223 86.6501 178.629 87.3888 178.629H96.2386C96.9483 178.629 97.5421 179.223 97.5421 179.933H97.5276Z" fill="#CE6224"/>
<path d="M97.9331 271.711H85.665V179.933C85.665 178.991 86.4327 178.223 87.3742 178.223H96.2239C97.1654 178.223 97.9331 178.991 97.9331 179.933V271.711ZM86.4906 270.885H97.1075V179.933C97.1075 179.454 96.7019 179.049 96.2239 179.049H87.3742C86.8817 179.049 86.4906 179.44 86.4906 179.933V270.885Z" fill="#020303"/>
<path d="M88.591 178.628H87.7654V128.558L88.591 128.471V178.628Z" fill="#020303"/>
<path d="M92.2987 178.628H91.4731V130.543L92.2987 130.5V178.628Z" fill="#020303"/>
<path d="M91.8207 125.342H91.7917V124.516L91.8207 125.342Z" fill="#020303"/>
<path d="M87.7654 128.558C87.7654 127.022 89.0689 125.688 91.5168 124.587L91.5892 124.514H91.7051C94.4715 123.254 98.4981 122.399 102.771 122.167C104.408 122.08 106.015 122.08 107.565 122.167L107.522 122.993C106.015 122.891 104.422 122.891 102.829 122.993C98.614 123.225 94.6743 124.051 91.9802 125.297L91.8354 125.355C89.7352 126.297 88.591 127.398 88.591 128.471L87.7654 128.572V128.558Z" fill="#020303"/>
<path d="M92.2843 130.601L91.4587 130.514C91.7919 127.398 99.6133 125.717 106.783 125.717H107.333V126.543H106.783C98.3677 126.543 92.4871 128.63 92.2699 130.601H92.2843Z" fill="#020303"/>
<path d="M130.928 129.355H130.696C114.575 129.326 110.042 128.051 108.014 127.094C107.333 126.776 106.884 126.283 106.638 125.616C106.146 124.225 106.855 122.587 106.971 122.341C107.174 121.747 109.231 118.472 129.277 118.138C130.551 118.124 131.768 118.109 132.927 118.109C150.829 118.109 155.015 120.501 155.203 120.617C155.898 120.95 157.231 122.095 157.014 123.935C156.724 126.239 153.523 126.979 153.378 127.007C153.335 127.007 145.702 129.384 130.928 129.384V129.355ZM132.869 118.921C131.739 118.921 130.537 118.921 129.291 118.95C109.274 119.283 107.768 122.573 107.753 122.602V122.66C107.753 122.66 107.015 124.196 107.42 125.341C107.58 125.79 107.884 126.123 108.362 126.341C110.303 127.268 114.735 128.486 130.682 128.515H130.913C145.542 128.515 153.074 126.196 153.146 126.167C153.204 126.152 155.956 125.515 156.174 123.79C156.376 122.095 154.856 121.327 154.798 121.298C154.725 121.254 150.467 118.892 132.854 118.892L132.869 118.921Z" fill="#020303"/>
<path d="M107.13 126.224L107.116 125.412L156.145 124.717L156.159 125.543L107.13 126.224Z" fill="#020303"/>
</g>
<path d="M802.254 127.171C802.694 126.902 803.248 126.902 803.688 127.171L855.449 158.827C856.634 159.551 856.12 161.375 854.732 161.375H751.21C749.822 161.375 749.308 159.551 750.493 158.827L802.254 127.171Z" stroke="#030303" stroke-width="1.25"/>
<rect x="663.625" y="158.969" width="278.75" height="42.75" rx="4.375" fill="#FCFCFC" stroke="#030303" stroke-width="1.25"/>
</g>
<defs>
<clipPath id="clip0_1196_3539">
<rect width="1138" height="302" fill="white" transform="translate(-14)"/>
</clipPath>
</defs>
</svg>
