<svg width="1510" height="3872" viewBox="0 0 1510 3872" fill="none" xmlns="http://www.w3.org/2000/svg">
<g opacity="0.7">
<path d="M1312.26 3825.91C1312.26 3829.26 1311.85 3832.52 1311.1 3835.65C1310.84 3836.72 1310.53 3837.77 1310.19 3838.82C1304.48 3856.16 1287.55 3868.77 1267.63 3868.77C1243.01 3868.77 1223 3849.54 1223 3825.91C1223 3814.7 1227.5 3804.49 1234.87 3796.84C1235.54 3796.14 1236.23 3795.47 1236.95 3794.81C1244.95 3787.53 1255.76 3783.05 1267.63 3783.05C1271.17 3783.05 1274.62 3783.45 1277.93 3784.21C1278.49 3784.33 1279.03 3784.47 1279.58 3784.61C1279.41 3785.13 1279.24 3785.65 1279.07 3786.16C1278.53 3786.02 1277.98 3785.88 1277.43 3785.76C1274.28 3785.05 1270.99 3784.67 1267.63 3784.67C1243.96 3784.67 1224.69 3803.17 1224.69 3825.91C1224.69 3848.65 1243.96 3867.15 1267.63 3867.15C1287.91 3867.15 1304.96 3853.58 1309.43 3835.39C1309.43 3835.39 1309.43 3835.38 1309.43 3835.38C1309.43 3835.37 1309.43 3835.35 1309.43 3835.34C1310.18 3832.31 1310.57 3829.15 1310.57 3825.91C1310.57 3808.07 1298.71 3792.84 1282.17 3787.11C1281.65 3786.93 1281.11 3786.75 1280.58 3786.59C1280.75 3786.07 1280.91 3785.56 1281.09 3785.04C1281.62 3785.21 1282.16 3785.38 1282.68 3785.56C1299.91 3791.5 1312.26 3807.35 1312.26 3825.91V3825.91Z" fill="#030303"/>
<path d="M1306.7 3825.91C1306.7 3846.6 1289.17 3863.44 1267.62 3863.44C1246.08 3863.44 1228.55 3846.61 1228.55 3825.91C1228.55 3805.22 1246.08 3788.39 1267.62 3788.39C1270.59 3788.39 1273.49 3788.71 1276.26 3789.31C1276.82 3789.43 1277.37 3789.56 1277.91 3789.71C1277.6 3790.64 1277.3 3791.58 1277 3792.5C1276.45 3792.36 1275.91 3792.23 1275.35 3792.11C1272.87 3791.58 1270.28 3791.31 1267.62 3791.31C1264.34 3791.31 1261.16 3791.74 1258.13 3792.53C1257.58 3792.67 1257.04 3792.83 1256.51 3793C1245.16 3796.54 1236.27 3805.35 1232.97 3816.41C1232.82 3816.93 1232.68 3817.46 1232.55 3817.99C1231.98 3820.28 1231.66 3822.67 1231.6 3825.1C1231.6 3825.37 1231.59 3825.65 1231.59 3825.92C1231.59 3826.19 1231.59 3826.46 1231.6 3826.73C1231.75 3832.82 1233.54 3838.53 1236.57 3843.45C1236.86 3843.92 1237.15 3844.38 1237.47 3844.83C1243.9 3854.27 1255.02 3860.52 1267.62 3860.52C1270.41 3860.52 1273.13 3860.21 1275.74 3859.63C1276.29 3859.51 1276.84 3859.38 1277.38 3859.23C1288.66 3856.18 1297.71 3847.98 1301.6 3837.45C1301.79 3836.94 1301.97 3836.43 1302.13 3835.9C1303.13 3832.74 1303.66 3829.38 1303.66 3825.91C1303.66 3824.13 1303.52 3822.36 1303.25 3820.65C1303.17 3820.11 1303.07 3819.58 1302.95 3819.05C1301.31 3811.22 1296.9 3804.33 1290.74 3799.38C1290.31 3799.03 1289.87 3798.7 1289.42 3798.37C1286.61 3796.31 1283.47 3794.64 1280.09 3793.44C1279.56 3793.25 1279.03 3793.07 1278.49 3792.91C1278.8 3791.99 1279.1 3791.06 1279.41 3790.13C1279.95 3790.29 1280.48 3790.46 1281.01 3790.65C1295.98 3795.91 1306.71 3809.73 1306.71 3825.91H1306.7Z" fill="#030303"/>
<path d="M1272.73 3825.91C1272.73 3826.29 1272.69 3826.66 1272.59 3827.02C1272.46 3827.56 1272.24 3828.07 1271.94 3828.53C1271.42 3829.32 1270.66 3829.97 1269.76 3830.36C1269.26 3830.59 1268.71 3830.74 1268.13 3830.79C1267.96 3830.81 1267.79 3830.82 1267.62 3830.82C1265.98 3830.82 1264.52 3830.07 1263.58 3828.91C1263.23 3828.49 1262.96 3828 1262.78 3827.48C1262.69 3827.22 1262.62 3826.95 1262.57 3826.67C1262.53 3826.42 1262.51 3826.17 1262.51 3825.91C1262.51 3825.62 1262.54 3825.33 1262.6 3825.05C1262.6 3825.04 1262.6 3825.02 1262.6 3825.01C1262.71 3824.46 1262.91 3823.94 1263.19 3823.48C1263.73 3822.56 1264.58 3821.83 1265.59 3821.41C1265.69 3821.37 1265.79 3821.33 1265.88 3821.3C1266.31 3821.15 1266.76 3821.06 1267.23 3821.03C1267.36 3821.02 1267.49 3821.01 1267.62 3821.01C1267.66 3821.01 1267.7 3821.01 1267.73 3821.01C1268.23 3821.02 1268.71 3821.1 1269.16 3821.23C1269.29 3821.27 1269.43 3821.31 1269.55 3821.36C1269.96 3821.52 1270.34 3821.73 1270.69 3821.98C1270.8 3822.06 1270.9 3822.14 1271 3822.22C1271.49 3822.64 1271.9 3823.14 1272.2 3823.71C1272.45 3824.19 1272.62 3824.72 1272.69 3825.28C1272.72 3825.49 1272.74 3825.7 1272.74 3825.91L1272.73 3825.91Z" fill="#030303"/>
<path d="M1375.18 3793.03C1374.74 3793.37 1374.3 3793.73 1373.87 3794.08C1369.24 3797.96 1365.47 3802.77 1362.9 3808.21C1362.73 3808.55 1362.57 3808.9 1362.43 3809.25C1362.15 3809.88 1361.89 3810.53 1361.64 3811.18C1361.5 3811.54 1361.38 3811.89 1361.25 3812.25C1360.89 3813.28 1360.58 3814.32 1360.31 3815.39C1360.17 3815.92 1360.04 3816.46 1359.93 3816.99C1359.36 3816.96 1358.79 3816.93 1358.23 3816.91C1358.33 3816.37 1358.46 3815.84 1358.59 3815.31C1358.84 3814.28 1359.13 3813.27 1359.46 3812.26C1359.57 3811.94 1359.68 3811.61 1359.8 3811.29C1360.15 3810.31 1360.54 3809.35 1360.96 3808.4C1361.1 3808.08 1361.24 3807.77 1361.4 3807.45C1364.04 3801.9 1367.87 3796.98 1372.59 3793C1373.01 3792.65 1373.45 3792.29 1373.9 3791.94C1374.33 3792.3 1374.75 3792.66 1375.18 3793.03V3793.03ZM1446.65 3825.21C1446.65 3848.84 1426.63 3868.07 1402.02 3868.07C1379.08 3868.07 1360.13 3851.37 1357.66 3829.97C1357.61 3829.43 1357.55 3828.89 1357.51 3828.35L1359.2 3828.28C1359.24 3828.82 1359.29 3829.36 1359.36 3829.9C1361.79 3850.44 1380 3866.45 1402.02 3866.45C1425.69 3866.45 1444.96 3847.95 1444.96 3825.21C1444.96 3802.47 1425.7 3783.97 1402.02 3783.97C1393.6 3783.97 1385.73 3786.31 1379.09 3790.35C1378.6 3790.66 1378.1 3790.96 1377.62 3791.29C1377.19 3790.91 1376.76 3790.54 1376.32 3790.18C1376.81 3789.85 1377.29 3789.53 1377.79 3789.22C1384.77 3784.88 1393.09 3782.35 1402.02 3782.35C1420 3782.35 1435.54 3792.62 1442.6 3807.37C1442.92 3808.05 1443.23 3808.73 1443.52 3809.43C1445.54 3814.32 1446.65 3819.64 1446.65 3825.21V3825.21Z" fill="#030303"/>
<path d="M1359.07 3825.21C1359.07 3826.24 1359.12 3827.27 1359.19 3828.28L1357.5 3828.35C1357.42 3827.31 1357.38 3826.26 1357.38 3825.21C1357.38 3822.37 1357.66 3819.6 1358.22 3816.92C1358.78 3816.94 1359.35 3816.97 1359.93 3817C1359.36 3819.65 1359.07 3822.4 1359.07 3825.21Z" fill="#CE6326"/>
<path d="M1380.11 3797.75C1379.66 3798.08 1379.22 3798.42 1378.79 3798.77C1373.39 3803.15 1369.35 3809.02 1367.35 3815.72C1367.2 3816.25 1367.05 3816.79 1366.93 3817.33C1365.89 3817.27 1364.86 3817.22 1363.85 3817.18C1363.97 3816.64 1364.1 3816.1 1364.25 3815.57C1366.32 3808.1 1370.73 3801.53 1376.7 3796.65C1377.12 3796.29 1377.56 3795.95 1378.01 3795.62C1378.73 3796.31 1379.43 3797.02 1380.11 3797.75ZM1441.09 3825.21C1441.09 3845.9 1423.57 3862.73 1402.02 3862.73C1382.08 3862.73 1365.58 3848.31 1363.23 3829.76C1363.16 3829.22 1363.11 3828.68 1363.06 3828.14L1366.1 3828.02C1366.14 3828.56 1366.2 3829.1 1366.27 3829.64C1367.12 3835.98 1369.76 3841.79 1373.69 3846.58C1374.04 3847.01 1374.4 3847.42 1374.77 3847.83C1376.52 3849.77 1378.49 3851.52 1380.65 3853.05C1381.1 3853.37 1381.56 3853.69 1382.03 3853.98C1387.75 3857.66 1394.63 3859.81 1402.01 3859.81C1404.11 3859.81 1406.16 3859.64 1408.16 3859.3C1408.72 3859.21 1409.27 3859.11 1409.82 3858.99C1420.52 3856.72 1429.44 3849.86 1434.24 3840.69C1434.49 3840.21 1434.73 3839.72 1434.96 3839.22C1436.95 3834.94 1438.06 3830.19 1438.06 3825.21C1438.06 3818.86 1436.26 3812.9 1433.14 3807.77C1432.86 3807.31 1432.56 3806.85 1432.25 3806.39C1429.2 3801.88 1425.08 3798.09 1420.24 3795.36C1419.76 3795.09 1419.27 3794.82 1418.77 3794.57C1413.77 3792.03 1408.06 3790.6 1402.02 3790.6C1399.48 3790.6 1397 3790.85 1394.6 3791.34C1394.05 3791.45 1393.5 3791.57 1392.96 3791.7C1389.81 3792.49 1386.82 3793.68 1384.06 3795.2C1383.55 3795.49 1383.06 3795.78 1382.56 3796.09C1381.88 3795.35 1381.18 3794.62 1380.46 3793.92C1380.95 3793.61 1381.45 3793.31 1381.95 3793.02C1387.82 3789.63 1394.69 3787.68 1402.02 3787.68C1423.57 3787.68 1441.09 3804.51 1441.09 3825.2V3825.21ZM1367.35 3815.73C1367.2 3816.26 1367.05 3816.79 1366.93 3817.33C1365.89 3817.28 1364.86 3817.23 1363.85 3817.18C1363.97 3816.64 1364.1 3816.11 1364.25 3815.58C1365.27 3815.63 1366.32 3815.68 1367.35 3815.73Z" fill="#030303"/>
<path d="M1365.98 3825.21C1365.98 3826.16 1366.02 3827.1 1366.1 3828.02L1363.06 3828.14C1362.98 3827.17 1362.94 3826.19 1362.94 3825.21C1362.94 3822.46 1363.25 3819.77 1363.84 3817.18C1364.86 3817.23 1365.89 3817.29 1366.92 3817.33C1366.3 3819.86 1365.98 3822.49 1365.98 3825.21Z" fill="#CE6326"/>
<path d="M1407.12 3825.21C1407.12 3826.07 1406.89 3826.88 1406.48 3827.59C1406.19 3828.08 1405.82 3828.53 1405.38 3828.9C1404.97 3829.24 1404.52 3829.52 1404.01 3829.72C1403.5 3829.93 1402.95 3830.06 1402.37 3830.1C1402.25 3830.11 1402.14 3830.11 1402.02 3830.11C1401.76 3830.11 1401.51 3830.09 1401.27 3830.06C1400.66 3829.97 1400.09 3829.78 1399.57 3829.51C1399.45 3829.45 1399.33 3829.37 1399.22 3829.3C1398.79 3829.03 1398.41 3828.71 1398.09 3828.33C1398.04 3828.28 1398 3828.24 1397.96 3828.19C1397.64 3827.78 1397.37 3827.33 1397.2 3826.84C1397.01 3826.33 1396.91 3825.78 1396.91 3825.21C1396.91 3823.09 1398.31 3821.28 1400.27 3820.6C1400.29 3820.59 1400.31 3820.58 1400.32 3820.58C1400.83 3820.41 1401.37 3820.32 1401.93 3820.31C1401.95 3820.31 1401.97 3820.31 1401.99 3820.31H1402.02C1402.95 3820.31 1403.82 3820.55 1404.56 3820.96C1405.07 3821.24 1405.52 3821.6 1405.9 3822.02C1406.18 3822.34 1406.43 3822.7 1406.62 3823.08C1406.87 3823.59 1407.04 3824.14 1407.1 3824.72C1407.12 3824.89 1407.13 3825.05 1407.13 3825.22L1407.12 3825.21Z" fill="#030303"/>
<path d="M1281.02 3780.16C1280.85 3780.68 1280.68 3781.19 1280.51 3781.71C1279.97 3781.57 1279.42 3781.43 1278.87 3781.3C1275.31 3780.48 1271.6 3780.04 1267.79 3780.04C1255.06 3780.04 1243.12 3784.82 1234.14 3793.49L1234.09 3793.54C1233.63 3793.92 1232.9 3794.79 1233.16 3795.11C1233.4 3795.4 1235.18 3795.28 1236.92 3794.73L1236.95 3794.81L1237.45 3796.27C1236.97 3796.42 1235.94 3796.72 1234.87 3796.84C1233.69 3796.96 1232.45 3796.87 1231.84 3796.11C1230.75 3794.77 1232.04 3793.11 1232.98 3792.33C1242.26 3783.36 1254.63 3778.43 1267.79 3778.43C1271.78 3778.43 1275.67 3778.89 1279.39 3779.76C1279.94 3779.89 1280.48 3780.02 1281.03 3780.17L1281.02 3780.16Z" fill="#030303"/>
<path d="M1316.89 3825.58C1316.89 3829.32 1316.43 3833.04 1315.53 3836.64L1315.5 3836.72C1315.08 3837.89 1313.92 3839.7 1312.14 3839.7C1311.96 3839.7 1311.78 3839.68 1311.6 3839.64C1310.98 3839.51 1310.52 3839.22 1310.18 3838.82C1309.38 3837.88 1309.29 3836.39 1309.42 3835.4C1309.42 3835.39 1309.42 3835.39 1309.42 3835.39C1309.42 3835.37 1309.42 3835.36 1309.42 3835.35L1311.09 3835.56C1311.09 3835.56 1311.09 3835.59 1311.08 3835.65C1311.04 3836.09 1310.97 3837.87 1311.93 3838.06C1312.99 3838.26 1313.78 3836.48 1313.89 3836.22C1314.74 3832.76 1315.19 3829.18 1315.19 3825.59C1315.19 3805.82 1301.99 3788.95 1283.62 3782.67C1283.09 3782.49 1282.55 3782.32 1282.02 3782.15C1282.19 3781.64 1282.36 3781.12 1282.53 3780.61C1283.07 3780.77 1283.6 3780.94 1284.13 3781.12C1303.2 3787.6 1316.88 3805.09 1316.88 3825.58L1316.89 3825.58Z" fill="#030303"/>
<path d="M1372.12 3790.54C1371.68 3790.88 1371.25 3791.25 1370.82 3791.61C1365.78 3795.96 1361.7 3801.34 1358.99 3807.43C1358.84 3807.75 1358.71 3808.08 1358.57 3808.4C1358.17 3809.35 1357.81 3810.32 1357.48 3811.3C1357.37 3811.62 1357.27 3811.95 1357.17 3812.27C1356.87 3813.23 1356.6 3814.21 1356.38 3815.2C1356.25 3815.74 1356.14 3816.27 1356.04 3816.81C1355.46 3816.79 1354.89 3816.76 1354.34 3816.73C1354.43 3816.19 1354.54 3815.66 1354.66 3815.12C1354.88 3814.16 1355.13 3813.21 1355.41 3812.27C1355.5 3811.94 1355.6 3811.62 1355.71 3811.3C1356.02 3810.32 1356.37 3809.35 1356.75 3808.4C1356.88 3808.07 1357.01 3807.75 1357.15 3807.43C1359.86 3801.05 1364.04 3795.27 1369.41 3790.56C1369.7 3790.31 1369.99 3790.06 1370.28 3789.81C1370.43 3789.69 1370.57 3789.58 1370.71 3789.47C1371.19 3789.83 1371.66 3790.18 1372.13 3790.54L1372.12 3790.54Z" fill="#030303"/>
<path d="M1446.73 3807.93C1446.52 3808.52 1446.06 3808.95 1445.41 3809.18C1444.7 3809.43 1444.06 3809.48 1443.51 3809.42C1442.14 3809.27 1441.3 3808.43 1441.25 3808.38L1442.47 3807.27C1442.47 3807.27 1442.52 3807.31 1442.6 3807.37C1442.9 3807.59 1443.71 3808.07 1444.83 3807.66C1445.04 3807.59 1445.1 3807.49 1445.13 3807.4C1445.31 3806.89 1444.84 3805.8 1444.46 3805.22L1444.42 3805.14C1436.59 3789.85 1420.01 3779.98 1402.18 3779.98C1392.58 3779.98 1383.52 3782.83 1375.97 3787.74C1375.48 3788.06 1375 3788.39 1374.52 3788.73C1374.04 3788.36 1373.56 3787.99 1373.08 3787.64C1373.56 3787.29 1374.04 3786.96 1374.54 3786.64C1382.62 3781.27 1392.26 3778.36 1402.19 3778.36C1411.46 3778.36 1420.48 3780.86 1428.28 3785.59C1435.88 3790.21 1441.98 3796.71 1445.93 3804.4C1446.15 3804.74 1447.22 3806.55 1446.73 3807.93H1446.73Z" fill="#030303"/>
<path d="M1362.94 3825.21C1362.94 3826.19 1362.98 3827.17 1363.06 3828.14L1359.19 3828.28C1359.12 3827.27 1359.07 3826.24 1359.07 3825.21C1359.07 3822.4 1359.37 3819.65 1359.93 3817C1361.21 3817.06 1362.51 3817.12 1363.84 3817.18C1363.25 3819.77 1362.94 3822.45 1362.94 3825.21Z" fill="#CE6326"/>
<path d="M1396.91 3825.21C1396.91 3825.77 1397.01 3826.33 1397.2 3826.84L1366.1 3828.02C1366.02 3827.09 1365.98 3826.15 1365.98 3825.21C1365.98 3822.5 1366.3 3819.86 1366.92 3817.33C1380.81 3818 1395.62 3818.72 1397.46 3818.83C1399.15 3818.93 1399.85 3819.61 1400.15 3820.16C1400.15 3820.16 1400.15 3820.16 1400.15 3820.16L1400.26 3820.6C1398.3 3821.28 1396.9 3823.09 1396.9 3825.21H1396.91Z" fill="#CE6326"/>
<path d="M1402.05 3820.75L1401.2 3820.78L1400.36 3820.82C1400.36 3820.82 1400.36 3820.82 1400.36 3820.81C1400.36 3820.77 1400.35 3820.69 1400.32 3820.58C1400.29 3820.47 1400.24 3820.32 1400.16 3820.16C1400.16 3820.16 1400.16 3820.16 1400.16 3820.16C1399.87 3819.62 1399.17 3818.94 1397.48 3818.83C1395.63 3818.72 1380.82 3818 1366.93 3817.33C1365.9 3817.28 1364.86 3817.23 1363.85 3817.18C1362.53 3817.12 1361.22 3817.06 1359.94 3817C1359.36 3816.97 1358.79 3816.94 1358.23 3816.92C1357.49 3816.88 1356.75 3816.84 1356.04 3816.81C1355.46 3816.79 1354.89 3816.76 1354.34 3816.73C1353.36 3816.68 1352.42 3816.64 1351.52 3816.6C1351.13 3816.58 1350.76 3816.56 1350.39 3816.54C1349.99 3816.52 1349.61 3816.51 1349.24 3816.48C1348.85 3816.47 1348.47 3816.45 1348.1 3816.43C1344.31 3816.25 1341.88 3816.14 1341.77 3816.13H1341.72C1341.72 3816.13 1338.67 3815.86 1335.92 3817.66C1333.94 3818.96 1331.88 3821.32 1330.82 3822.62C1329.97 3823.66 1329.35 3824.78 1328.96 3825.96C1328.56 3827.19 1328.54 3828.11 1328.91 3828.37C1329.55 3828.82 1330.61 3829.05 1331.61 3829.17C1331.96 3829.2 1332.31 3829.23 1332.63 3829.24C1333.15 3829.27 1333.59 3829.26 1333.87 3829.24L1335.6 3829.18L1336.61 3829.14L1340.58 3828.99L1341.78 3828.94L1342.87 3828.9L1344.07 3828.86L1348.38 3828.69L1349.39 3828.65L1352.62 3828.53L1353.63 3828.49L1357.52 3828.34L1359.21 3828.28L1363.08 3828.13L1366.11 3828.02L1397.21 3826.83L1398.03 3826.8L1398.09 3828.1L1398.1 3828.33V3828.42L1397.64 3828.44L1366.29 3829.63L1363.24 3829.75L1359.36 3829.9L1357.67 3829.96L1353.52 3830.11L1352.5 3830.15L1349.15 3830.29L1348.08 3830.33L1343.06 3830.52L1341.86 3830.56L1340.78 3830.6L1339.59 3830.65L1337.05 3830.75L1335.98 3830.79L1333.95 3830.87C1333.87 3830.87 1333.64 3830.88 1333.31 3830.88C1333.18 3830.88 1333.04 3830.88 1332.89 3830.87C1332.58 3830.87 1332.22 3830.85 1331.83 3830.81C1330.55 3830.71 1328.99 3830.41 1327.93 3829.68C1326.87 3828.94 1326.68 3827.53 1327.36 3825.47C1327.81 3824.1 1328.54 3822.81 1329.51 3821.61C1330.87 3819.94 1332.92 3817.67 1334.98 3816.32C1337.39 3814.74 1339.92 3814.49 1341.15 3814.48C1341.53 3814.48 1341.79 3814.5 1341.88 3814.51C1341.97 3814.51 1342.3 3814.52 1342.87 3814.55C1343.26 3814.57 1343.75 3814.59 1344.33 3814.62C1344.84 3814.65 1345.41 3814.68 1346.05 3814.71C1346.94 3814.75 1347.95 3814.8 1349.05 3814.85C1349.42 3814.87 1349.8 3814.89 1350.18 3814.91C1350.56 3814.93 1350.95 3814.94 1351.35 3814.97C1351.72 3814.98 1352.1 3815 1352.48 3815.02C1353.19 3815.05 1353.91 3815.09 1354.66 3815.12C1355.22 3815.15 1355.8 3815.18 1356.38 3815.2C1357.1 3815.24 1357.84 3815.28 1358.59 3815.31C1359.16 3815.34 1359.73 3815.37 1360.31 3815.39C1361.6 3815.45 1362.92 3815.52 1364.25 3815.58C1365.28 3815.63 1366.32 3815.68 1367.36 3815.73C1376.05 3816.15 1385.06 3816.59 1391 3816.88C1391.64 3816.91 1392.25 3816.94 1392.82 3816.97C1393.98 3817.02 1394.96 3817.08 1395.73 3817.12C1396.63 3817.16 1397.26 3817.19 1397.56 3817.21H1397.58C1398.33 3817.26 1398.97 3817.4 1399.51 3817.61C1400.72 3818.08 1401.41 3818.87 1401.75 3819.62C1401.75 3819.62 1401.75 3819.62 1401.75 3819.63C1401.86 3819.87 1401.93 3820.1 1401.98 3820.31C1402.02 3820.47 1402.04 3820.62 1402.04 3820.76L1402.05 3820.75Z" fill="#030303"/>
<path d="M1353.62 3828.68C1353.62 3829.17 1353.58 3829.65 1353.51 3830.12C1352.78 3835.27 1348.17 3839.25 1342.61 3839.25C1341.06 3839.25 1339.59 3838.95 1338.26 3838.39C1337.95 3838.26 1337.64 3838.12 1337.35 3837.97L1337.86 3837.13C1338.15 3837.28 1338.46 3837.42 1338.77 3837.55C1339.95 3838.02 1341.25 3838.28 1342.61 3838.28C1347.6 3838.28 1351.74 3834.76 1352.49 3830.16C1352.57 3829.68 1352.61 3829.18 1352.61 3828.68C1352.61 3828.62 1352.61 3828.58 1352.61 3828.53L1353.62 3828.49C1353.62 3828.56 1353.62 3828.61 1353.62 3828.68ZM1337.12 3836.71L1336.61 3837.55C1336.33 3837.37 1336.05 3837.18 1335.78 3836.98C1333.79 3835.46 1332.35 3833.29 1331.82 3830.81C1331.7 3830.27 1331.63 3829.72 1331.6 3829.16C1331.95 3829.2 1332.3 3829.22 1332.62 3829.24C1332.65 3829.8 1332.73 3830.34 1332.87 3830.87C1333.38 3832.97 1334.61 3834.81 1336.3 3836.12C1336.56 3836.33 1336.84 3836.52 1337.12 3836.7V3836.71Z" fill="#030303"/>
<path d="M1339.19 3833.25L1338.68 3834.09C1338.4 3833.91 1338.12 3833.71 1337.87 3833.49C1337.02 3832.76 1336.35 3831.83 1335.96 3830.78C1335.77 3830.27 1335.64 3829.73 1335.59 3829.18L1336.6 3829.14C1336.66 3829.7 1336.81 3830.24 1337.03 3830.75C1337.35 3831.46 1337.81 3832.1 1338.39 3832.63C1338.64 3832.85 1338.9 3833.06 1339.19 3833.24V3833.25ZM1349.38 3828.66C1349.37 3829.22 1349.29 3829.77 1349.14 3830.3C1348.34 3833.11 1345.65 3835.19 1342.47 3835.19C1341.75 3835.19 1341.05 3835.08 1340.4 3834.88C1340.07 3834.78 1339.75 3834.66 1339.45 3834.52L1339.96 3833.67C1340.27 3833.82 1340.59 3833.93 1340.93 3834.01C1341.42 3834.15 1341.94 3834.21 1342.48 3834.21C1345.08 3834.21 1347.29 3832.59 1348.07 3830.34C1348.25 3829.82 1348.36 3829.27 1348.37 3828.7L1349.38 3828.66Z" fill="#030303"/>
<path d="M1338.24 3844.77C1338.24 3846.1 1337.1 3847.2 1335.71 3847.2H1325.42C1324.04 3847.2 1322.9 3846.11 1322.9 3844.77C1322.9 3843.44 1324.04 3842.35 1325.42 3842.35H1335.71C1335.76 3842.35 1335.81 3842.35 1335.85 3842.36C1337.18 3842.43 1338.23 3843.48 1338.23 3844.77L1338.24 3844.77ZM1337.22 3844.77C1337.22 3843.98 1336.55 3843.33 1335.72 3843.33H1325.43C1324.6 3843.33 1323.92 3843.98 1323.92 3844.77C1323.92 3845.57 1324.6 3846.22 1325.43 3846.22H1335.72C1336.55 3846.22 1337.22 3845.57 1337.22 3844.77Z" fill="#030303"/>
<path d="M1337.22 3844.77C1337.22 3845.57 1336.55 3846.22 1335.72 3846.22H1325.43C1324.6 3846.22 1323.92 3845.57 1323.92 3844.77C1323.92 3843.98 1324.6 3843.33 1325.43 3843.33H1335.72C1336.55 3843.33 1337.22 3843.98 1337.22 3844.77Z" fill="#4F4F4F"/>
<path d="M1357.48 3811.3C1357.37 3811.62 1357.27 3811.95 1357.17 3812.27H1351.76L1352.34 3811.3H1357.48ZM1357.48 3811.3C1357.37 3811.62 1357.27 3811.95 1357.17 3812.27H1351.76L1352.34 3811.3H1357.48ZM1357.48 3811.3C1357.37 3811.62 1357.27 3811.95 1357.17 3812.27H1351.76L1352.34 3811.3H1357.48ZM1357.48 3811.3C1357.37 3811.62 1357.27 3811.95 1357.17 3812.27H1351.76L1352.34 3811.3H1357.48ZM1357.48 3811.3C1357.37 3811.62 1357.27 3811.95 1357.17 3812.27H1351.76L1352.34 3811.3H1357.48ZM1357.48 3811.3C1357.37 3811.62 1357.27 3811.95 1357.17 3812.27H1351.76L1352.34 3811.3H1357.48ZM1357.48 3811.3C1357.37 3811.62 1357.27 3811.95 1357.17 3812.27H1351.76L1352.34 3811.3H1357.48ZM1357.48 3811.3C1357.37 3811.62 1357.27 3811.95 1357.17 3812.27H1351.76L1352.34 3811.3H1357.48ZM1357.48 3811.3C1357.37 3811.62 1357.27 3811.95 1357.17 3812.27H1351.76L1352.34 3811.3H1357.48ZM1357.48 3811.3C1357.37 3811.62 1357.27 3811.95 1357.17 3812.27H1351.76L1352.34 3811.3H1357.48ZM1357.48 3811.3C1357.37 3811.62 1357.27 3811.95 1357.17 3812.27H1351.76L1352.34 3811.3H1357.48ZM1349.26 3809.85C1349.26 3810.64 1349.93 3811.29 1350.76 3811.29H1357.48C1357.37 3811.61 1357.27 3811.94 1357.17 3812.26H1350.76C1350.7 3812.26 1350.65 3812.26 1350.59 3812.25C1349.29 3812.17 1348.24 3811.12 1348.24 3809.84C1348.24 3808.56 1349.37 3807.42 1350.76 3807.42H1359C1358.85 3807.74 1358.71 3808.07 1358.58 3808.39H1350.77C1349.94 3808.39 1349.26 3809.04 1349.26 3809.84L1349.26 3809.85ZM1362.9 3808.21C1362.73 3808.55 1362.57 3808.9 1362.43 3809.25C1362.19 3808.75 1361.67 3808.4 1361.05 3808.4H1360.96C1361.11 3808.09 1361.25 3807.77 1361.4 3807.45C1361.99 3807.53 1362.52 3807.81 1362.9 3808.21ZM1361.63 3811.18C1361.5 3811.54 1361.37 3811.9 1361.24 3812.26C1361.18 3812.26 1361.11 3812.27 1361.05 3812.27H1359.46C1359.57 3811.95 1359.68 3811.62 1359.79 3811.3H1361.04C1361.25 3811.3 1361.44 3811.26 1361.63 3811.18H1361.63ZM1357.48 3811.3C1357.37 3811.62 1357.27 3811.95 1357.17 3812.27H1351.76L1352.34 3811.3H1357.48ZM1357.48 3811.3C1357.37 3811.62 1357.27 3811.95 1357.17 3812.27H1351.76L1352.34 3811.3H1357.48ZM1357.48 3811.3C1357.37 3811.62 1357.27 3811.95 1357.17 3812.27H1351.76L1352.34 3811.3H1357.48ZM1357.48 3811.3C1357.37 3811.62 1357.27 3811.95 1357.17 3812.27H1351.76L1352.34 3811.3H1357.48ZM1357.48 3811.3C1357.37 3811.62 1357.27 3811.95 1357.17 3812.27H1351.76L1352.34 3811.3H1357.48ZM1357.48 3811.3C1357.37 3811.62 1357.27 3811.95 1357.17 3812.27H1351.76L1352.34 3811.3H1357.48ZM1357.48 3811.3C1357.37 3811.62 1357.27 3811.95 1357.17 3812.27H1351.76L1352.34 3811.3H1357.48ZM1357.48 3811.3C1357.37 3811.62 1357.27 3811.95 1357.17 3812.27H1351.76L1352.34 3811.3H1357.48ZM1357.48 3811.3C1357.37 3811.62 1357.27 3811.95 1357.17 3812.27H1351.76L1352.34 3811.3H1357.48ZM1357.48 3811.3C1357.37 3811.62 1357.27 3811.95 1357.17 3812.27H1351.76L1352.34 3811.3H1357.48Z" fill="#030303"/>
<path d="M1337.87 3833.5L1336.3 3836.13C1334.62 3834.81 1333.39 3832.97 1332.88 3830.88C1333.03 3830.88 1333.17 3830.88 1333.3 3830.88C1333.63 3830.88 1333.86 3830.87 1333.94 3830.87L1335.97 3830.79C1336.36 3831.84 1337.02 3832.76 1337.87 3833.5Z" fill="#5D5D5D"/>
<path d="M1341.76 3828.94L1340.77 3830.61L1339.19 3833.25L1338.69 3834.1L1337.12 3836.71L1336.61 3837.55L1333.74 3842.35L1333.17 3843.3L1332.29 3842.82L1332.57 3842.35L1335.79 3836.98L1336.3 3836.13L1337.87 3833.5L1338.39 3832.63L1339.57 3830.65L1340.57 3828.99L1341.76 3828.94Z" fill="#030303"/>
<path d="M1356.74 3808.4C1356.36 3809.35 1356.01 3810.32 1355.7 3811.3H1350.75C1349.92 3811.3 1349.25 3810.65 1349.25 3809.85C1349.25 3809.06 1349.92 3808.41 1350.75 3808.41H1356.74V3808.4Z" fill="#4F4F4F"/>
<path d="M1352.33 3811.3L1351.75 3812.27L1350.18 3814.91L1349.24 3816.48C1348.85 3816.47 1348.47 3816.45 1348.1 3816.43L1349.05 3814.85L1350.59 3812.26L1351.17 3811.3H1352.34L1352.33 3811.3Z" fill="#030303"/>
<path d="M1352.49 3830.16C1351.74 3834.75 1347.6 3838.28 1342.61 3838.28C1341.25 3838.28 1339.95 3838.02 1338.77 3837.55L1340.4 3834.88C1341.05 3835.08 1341.75 3835.19 1342.47 3835.19C1345.65 3835.19 1348.34 3833.11 1349.14 3830.3L1352.49 3830.17V3830.16Z" fill="#4F4F4F"/>
<path d="M1341.85 3830.57L1339.96 3833.67L1339.45 3834.51L1337.86 3837.13L1337.35 3837.97L1334.68 3842.35H1333.74L1336.61 3837.55L1337.12 3836.7L1338.69 3834.09L1339.19 3833.25L1340.77 3830.61L1341.85 3830.57Z" fill="#5D5D5D"/>
<path d="M1344.06 3828.86L1343.05 3830.52L1340.92 3834.02L1340.4 3834.88L1338.78 3837.55L1338.26 3838.39L1335.85 3842.36L1335.41 3843.09L1334.53 3842.6L1334.68 3842.35L1337.35 3837.97L1337.86 3837.13L1339.45 3834.52L1339.96 3833.67L1341.85 3830.57L1342.86 3828.9L1344.06 3828.86Z" fill="#030303"/>
<path d="M1357.39 3825.21C1357.39 3826.26 1357.43 3827.31 1357.51 3828.35L1353.62 3828.49L1352.61 3828.53L1349.38 3828.66L1348.37 3828.7L1344.06 3828.86L1342.86 3828.91L1341.76 3828.95L1340.57 3828.99L1336.6 3829.15L1335.59 3829.19L1333.86 3829.25C1333.57 3829.26 1333.14 3829.27 1332.62 3829.25C1332.3 3829.23 1331.95 3829.21 1331.6 3829.17C1330.6 3829.05 1329.54 3828.82 1328.9 3828.37C1328.52 3828.11 1328.54 3827.19 1328.95 3825.97C1329.34 3824.79 1329.96 3823.67 1330.81 3822.63C1331.87 3821.33 1333.93 3818.96 1335.91 3817.67C1338.66 3815.86 1341.68 3816.12 1341.71 3816.13H1341.76C1341.87 3816.14 1344.3 3816.25 1348.09 3816.43C1348.46 3816.45 1348.83 3816.47 1349.23 3816.48C1349.6 3816.5 1349.98 3816.52 1350.37 3816.54C1350.75 3816.56 1351.13 3816.57 1351.51 3816.6C1352.41 3816.64 1353.35 3816.68 1354.32 3816.73C1354.88 3816.76 1355.44 3816.79 1356.02 3816.81C1356.74 3816.85 1357.47 3816.88 1358.22 3816.92C1357.66 3819.6 1357.38 3822.38 1357.38 3825.21H1357.39Z" fill="#CE6326"/>
<path d="M1352.97 3812.27L1351.34 3814.96C1350.94 3814.94 1350.56 3814.92 1350.18 3814.9L1351.75 3812.26H1352.97V3812.27Z" fill="#5D5D5D"/>
<path d="M1354.21 3812.16L1354.15 3812.26L1352.48 3815.01L1351.52 3816.59C1351.13 3816.57 1350.75 3816.56 1350.38 3816.53L1351.34 3814.96L1352.97 3812.27L1353.34 3811.68L1354.21 3812.17V3812.16Z" fill="#030303"/>
<path d="M1355.32 3761.72L1355.18 3762.28L1342.85 3814.55L1342.63 3815.49L1340.98 3815.14L1341.13 3814.48H1341.14L1342.13 3810.27L1342.53 3808.53L1343.01 3806.52L1343.42 3804.8L1353.5 3762.09L1353.67 3761.35L1355.32 3761.72Z" fill="#030303"/>
<path d="M1358.85 3761.97L1358.69 3762.64L1355.32 3776.5L1354.93 3778.09L1354.34 3780.54L1353.95 3782.14L1346.03 3814.71L1345.83 3815.56L1344.19 3815.19L1344.32 3814.62L1357 3762.47L1357.21 3761.6L1358.85 3761.97Z" fill="#030303"/>
<path d="M1373.4 3759.16C1372.37 3761.36 1370.03 3762.18 1368.9 3762.58C1367.58 3763.03 1366.37 3763.16 1365.31 3763.16C1364.63 3763.16 1364.02 3763.1 1363.48 3763.06C1361.58 3762.91 1360.02 3762.77 1358.69 3762.64C1358.08 3762.58 1357.52 3762.52 1357 3762.47C1356.34 3762.4 1355.75 3762.34 1355.19 3762.27C1354.58 3762.21 1354.03 3762.15 1353.5 3762.09C1353.25 3762.06 1353 3762.03 1352.76 3762C1352.13 3761.93 1351.52 3761.85 1350.87 3761.79L1349.87 3761.68C1345.99 3761.26 1343.42 3760.98 1341.96 3759.16C1341.64 3758.76 1340.79 3757.7 1340.92 3756.25C1340.94 3756.08 1341.11 3754.63 1342.29 3753.77C1342.92 3753.3 1343.64 3753.14 1344.37 3753.14C1345.18 3753.14 1346.02 3753.33 1346.8 3753.51C1346.96 3753.55 1347.12 3753.59 1347.27 3753.62C1347.3 3753.62 1350.13 3754.23 1354.34 3754.23H1354.35C1356.09 3754.23 1358.95 3753.48 1364.65 3751.97L1365.53 3751.74C1368.44 3750.96 1369.42 3750.7 1370.71 3751.3C1373.35 3752.54 1374.68 3756.43 1373.41 3759.16L1373.4 3759.16ZM1369.96 3752.77C1369.28 3752.44 1368.68 3752.58 1365.98 3753.3L1365.1 3753.53C1359.25 3755.08 1356.31 3755.85 1354.35 3755.85H1354.34C1349.91 3755.85 1347.01 3755.22 1346.89 3755.19C1346.73 3755.16 1346.57 3755.12 1346.4 3755.09C1345.16 3754.8 1344 3754.53 1343.3 3755.05C1342.69 3755.5 1342.6 3756.37 1342.59 3756.38C1342.52 3757.2 1343.04 3757.85 1343.29 3758.16C1344.31 3759.44 1346.59 3759.69 1350.05 3760.06L1351.05 3760.17C1351.7 3760.24 1352.32 3760.31 1352.95 3760.39C1355.32 3760.66 1358 3760.98 1363.62 3761.44C1364.91 3761.54 1366.51 3761.67 1368.32 3761.04C1369.3 3760.7 1371.12 3760.06 1371.86 3758.49C1372.85 3756.39 1371.62 3753.53 1369.96 3752.76V3752.77Z" fill="#030303"/>
<path d="M1371.86 3758.5C1371.12 3760.07 1369.3 3760.7 1368.32 3761.05C1366.51 3761.68 1364.91 3761.55 1363.62 3761.45C1358.01 3760.99 1355.32 3760.68 1352.95 3760.4C1352.32 3760.32 1351.7 3760.25 1351.05 3760.18L1350.05 3760.07C1346.59 3759.7 1344.31 3759.45 1343.29 3758.17C1343.04 3757.86 1342.52 3757.22 1342.59 3756.39C1342.59 3756.38 1342.69 3755.51 1343.3 3755.06C1344 3754.55 1345.16 3754.81 1346.4 3755.1C1346.56 3755.13 1346.72 3755.17 1346.89 3755.21C1347.01 3755.23 1349.91 3755.87 1354.34 3755.87H1354.35C1356.31 3755.87 1359.25 3755.09 1365.1 3753.54L1365.98 3753.31C1368.68 3752.59 1369.28 3752.45 1369.96 3752.78C1371.62 3753.55 1372.85 3756.41 1371.86 3758.5V3758.5Z" fill="#7C5039"/>
<path d="M1357 3762.47L1344.32 3814.62C1343.74 3814.6 1343.24 3814.57 1342.85 3814.55L1355.19 3762.28C1355.75 3762.34 1356.34 3762.4 1357 3762.47H1357Z" fill="#CE6326"/>
<path d="M1343.56 3809.27L1342.55 3810.57L1342.13 3810.27L1287.46 3771.03L1286.08 3770.03L1287.09 3768.74L1288 3769.39L1342.53 3808.53L1343.56 3809.27Z" fill="#030303"/>
<path d="M1344.59 3805.62L1343.59 3806.92L1343.01 3806.52L1288.47 3767.96L1287.35 3767.17L1288.35 3765.86L1289.01 3766.33L1343.42 3804.8L1344.59 3805.62Z" fill="#030303"/>
<path d="M1372.59 3793.01C1367.87 3796.99 1364.04 3801.91 1361.39 3807.45C1361.25 3807.77 1361.1 3808.09 1360.96 3808.4C1360.54 3809.35 1360.15 3810.32 1359.8 3811.3C1359.68 3811.62 1359.57 3811.95 1359.46 3812.27C1359.13 3813.27 1358.84 3814.28 1358.59 3815.31C1357.84 3815.28 1357.1 3815.24 1356.37 3815.2C1356.6 3814.21 1356.86 3813.24 1357.16 3812.27C1357.26 3811.94 1357.37 3811.62 1357.47 3811.3C1357.81 3810.32 1358.17 3809.35 1358.56 3808.4C1358.7 3808.07 1358.84 3807.75 1358.98 3807.43C1361.7 3801.35 1365.78 3795.96 1370.82 3791.61C1371.41 3792.07 1372 3792.54 1372.58 3793.01H1372.59Z" fill="#CE6326"/>
<path d="M1392.86 3816.95L1392.82 3816.97L1391.31 3817.58C1391.21 3817.34 1391.1 3817.11 1391 3816.88C1388 3810.19 1383.84 3804.09 1378.79 3798.77C1378.11 3798.05 1377.41 3797.34 1376.7 3796.65C1375.78 3795.77 1374.84 3794.91 1373.88 3794.08C1373.46 3793.72 1373.03 3793.36 1372.59 3793C1372.01 3792.53 1371.43 3792.07 1370.83 3791.61C1370.36 3791.25 1369.89 3790.9 1369.41 3790.55C1364.69 3787.13 1359.5 3784.28 1353.96 3782.13C1353.67 3782.02 1353.39 3781.92 1353.11 3781.81L1353.72 3780.29C1353.92 3780.37 1354.14 3780.45 1354.35 3780.53C1360.23 3782.79 1365.73 3785.81 1370.72 3789.46C1371.2 3789.81 1371.67 3790.17 1372.14 3790.53C1372.74 3790.99 1373.33 3791.46 1373.91 3791.95C1374.34 3792.3 1374.77 3792.67 1375.19 3793.03C1376.16 3793.87 1377.1 3794.73 1378.01 3795.62C1378.73 3796.31 1379.43 3797.02 1380.11 3797.75C1385.44 3803.37 1389.78 3809.85 1392.87 3816.95H1392.86Z" fill="#030303"/>
<path d="M1392.82 3816.97L1392.86 3816.95C1389.78 3809.85 1385.43 3803.37 1380.11 3797.75C1379.43 3797.02 1378.72 3796.31 1378.01 3795.62C1377.09 3794.73 1376.15 3793.87 1375.19 3793.03C1374.76 3792.67 1374.33 3792.3 1373.9 3791.95C1373.32 3791.46 1372.73 3790.99 1372.13 3790.53C1371.66 3790.17 1371.19 3789.81 1370.71 3789.46C1365.73 3785.81 1360.22 3782.79 1354.34 3780.53L1354.93 3778.09C1361.5 3780.36 1367.61 3783.62 1373.08 3787.64C1373.57 3787.99 1374.05 3788.36 1374.52 3788.73C1375.13 3789.2 1375.73 3789.68 1376.32 3790.17C1376.76 3790.54 1377.19 3790.91 1377.62 3791.28C1378.59 3792.13 1379.54 3793.01 1380.46 3793.91C1381.18 3794.62 1381.88 3795.34 1382.57 3796.08C1388.26 3802.19 1392.77 3809.32 1395.74 3817.1C1394.96 3817.06 1393.98 3817.01 1392.83 3816.96L1392.82 3816.97Z" fill="#CE6326"/>
<path d="M1445.13 3807.41C1445.1 3807.5 1445.04 3807.6 1444.83 3807.67C1443.71 3808.07 1442.89 3807.6 1442.6 3807.38C1435.54 3792.62 1420 3782.35 1402.02 3782.35C1393.09 3782.35 1384.77 3784.88 1377.79 3789.23C1377.2 3788.73 1376.59 3788.23 1375.98 3787.75C1383.53 3782.84 1392.59 3779.99 1402.19 3779.99C1420.01 3779.99 1436.59 3789.87 1444.43 3805.16L1444.47 3805.23C1444.84 3805.81 1445.32 3806.9 1445.13 3807.41L1445.13 3807.41Z" fill="#CE6326"/>
<path d="M1397.71 3817.62L1396.12 3818.15C1396 3817.81 1395.87 3817.46 1395.74 3817.12C1392.77 3809.33 1388.26 3802.2 1382.57 3796.1C1381.88 3795.36 1381.18 3794.64 1380.46 3793.93C1379.54 3793.03 1378.59 3792.15 1377.62 3791.3C1377.19 3790.92 1376.76 3790.55 1376.32 3790.19C1375.73 3789.7 1375.13 3789.21 1374.52 3788.74C1374.04 3788.38 1373.56 3788.01 1373.08 3787.66C1367.61 3783.63 1361.5 3780.38 1354.93 3778.11C1354.61 3777.99 1354.28 3777.88 1353.95 3777.77L1354.5 3776.23C1354.77 3776.33 1355.05 3776.42 1355.32 3776.51C1362.21 3778.88 1368.72 3782.33 1374.53 3786.66C1375.02 3787.02 1375.5 3787.39 1375.97 3787.76C1376.59 3788.24 1377.19 3788.73 1377.79 3789.23C1378.22 3789.6 1378.66 3789.98 1379.09 3790.36C1379.76 3790.95 1380.41 3791.55 1381.05 3792.16C1381.35 3792.45 1381.65 3792.74 1381.94 3793.03C1382.66 3793.74 1383.36 3794.48 1384.05 3795.22C1389.96 3801.65 1394.59 3809.18 1397.56 3817.22C1397.61 3817.35 1397.66 3817.49 1397.71 3817.63L1397.71 3817.62Z" fill="#030303"/>
<path d="M1315.2 3825.58C1315.2 3829.17 1314.76 3832.75 1313.9 3836.21C1313.79 3836.47 1313 3838.25 1311.94 3838.05C1310.98 3837.85 1311.06 3836.07 1311.09 3835.64C1311.85 3832.51 1312.25 3829.26 1312.25 3825.91C1312.25 3807.35 1299.9 3791.5 1282.68 3785.56C1283 3784.59 1283.32 3783.62 1283.63 3782.66C1302.01 3788.93 1315.2 3805.8 1315.2 3825.58Z" fill="#CE6326"/>
<path d="M1278.88 3781.31C1278.55 3782.3 1278.24 3783.27 1277.93 3784.21C1274.63 3783.46 1271.17 3783.06 1267.63 3783.06C1255.75 3783.06 1244.95 3787.53 1236.95 3794.82L1236.92 3794.74C1235.18 3795.29 1233.4 3795.41 1233.16 3795.12C1232.91 3794.8 1233.64 3793.92 1234.09 3793.54L1234.14 3793.49C1243.12 3784.83 1255.06 3780.05 1267.79 3780.05C1271.61 3780.05 1275.32 3780.48 1278.87 3781.31H1278.88Z" fill="#CE6326"/>
<path d="M1291.48 3753.21C1291.45 3753.38 1291.39 3753.66 1291.25 3754.08C1291.03 3754.78 1287.1 3766.73 1282.54 3780.6C1282.36 3781.11 1282.2 3781.63 1282.03 3782.15C1281.71 3783.11 1281.39 3784.07 1281.07 3785.04C1280.9 3785.55 1280.73 3786.07 1280.56 3786.59C1280.17 3787.77 1279.79 3788.95 1279.4 3790.13C1279.09 3791.06 1278.79 3791.98 1278.48 3792.91C1274.62 3804.65 1270.93 3815.85 1269.16 3821.23C1268.71 3821.09 1268.23 3821.01 1267.73 3821.01C1269.03 3816.92 1272.74 3805.53 1276.99 3792.5C1277.3 3791.58 1277.6 3790.64 1277.91 3789.71C1278.28 3788.53 1278.67 3787.35 1279.06 3786.16C1279.23 3785.64 1279.4 3785.13 1279.56 3784.61C1279.88 3783.65 1280.2 3782.68 1280.51 3781.71C1280.68 3781.2 1280.85 3780.69 1281.02 3780.17C1284.21 3770.38 1287.39 3760.65 1289.86 3753.09L1289.88 3753C1289.9 3752.93 1289.96 3752.81 1290.01 3752.78C1290.06 3752.76 1290.19 3752.75 1290.44 3752.84L1291.47 3753.21L1291.48 3753.21Z" fill="#CE6326"/>
<path d="M1343.01 3806.52L1342.54 3808.53L1288 3769.39C1288.16 3768.9 1288.32 3768.43 1288.47 3767.96L1343.01 3806.52Z" fill="#CE6326"/>
<path d="M1292.87 3754.54C1292.73 3754.99 1291.21 3759.62 1289.01 3766.32C1288.83 3766.86 1288.65 3767.4 1288.47 3767.96C1288.32 3768.43 1288.16 3768.9 1288 3769.39C1287.82 3769.93 1287.65 3770.48 1287.46 3771.03C1286.43 3774.16 1285.31 3777.58 1284.14 3781.12C1283.97 3781.63 1283.8 3782.15 1283.63 3782.66C1283.32 3783.63 1283 3784.59 1282.68 3785.57C1282.51 3786.08 1282.33 3786.59 1282.17 3787.11C1281.78 3788.29 1281.39 3789.47 1281 3790.65C1280.69 3791.58 1280.39 3792.51 1280.08 3793.44C1276.82 3803.35 1273.69 3812.87 1271.72 3818.85C1271.33 3820.05 1270.98 3821.09 1270.69 3821.98C1270.57 3822.33 1270.46 3822.66 1270.36 3822.96C1269.99 3824.08 1269.75 3824.81 1269.67 3825.06L1268.4 3824.67L1268.06 3824.57C1268.08 3824.54 1268.13 3824.38 1268.22 3824.1C1268.3 3823.84 1268.42 3823.47 1268.57 3823.02C1268.66 3822.77 1268.75 3822.49 1268.85 3822.18C1268.95 3821.89 1269.05 3821.57 1269.16 3821.24C1270.93 3815.86 1274.62 3804.66 1278.48 3792.92C1278.79 3792 1279.09 3791.07 1279.4 3790.14C1279.79 3788.95 1280.17 3787.78 1280.56 3786.6C1280.74 3786.08 1280.9 3785.57 1281.07 3785.05C1281.39 3784.08 1281.71 3783.11 1282.03 3782.16C1282.2 3781.64 1282.36 3781.13 1282.54 3780.61C1287.1 3766.74 1291.03 3754.8 1291.25 3754.09C1291.38 3753.67 1291.45 3753.4 1291.48 3753.22L1290.44 3752.84C1290.19 3752.75 1290.06 3752.77 1290.02 3752.79C1289.96 3752.82 1289.91 3752.94 1289.89 3753.01L1289.87 3753.1C1287.4 3760.65 1284.22 3770.39 1281.03 3780.17C1280.85 3780.69 1280.69 3781.2 1280.52 3781.72C1280.2 3782.69 1279.89 3783.65 1279.57 3784.62C1279.4 3785.13 1279.24 3785.65 1279.07 3786.17C1278.67 3787.36 1278.29 3788.54 1277.91 3789.72C1277.6 3790.65 1277.3 3791.58 1277 3792.5C1272.75 3805.54 1269.04 3816.93 1267.73 3821.02C1267.64 3821.32 1267.55 3821.58 1267.48 3821.79C1267.33 3822.25 1267.25 3822.53 1267.23 3822.61L1266.5 3822.43H1265.56C1265.56 3822.4 1265.56 3822.36 1265.72 3821.82C1265.77 3821.69 1265.82 3821.52 1265.88 3821.31C1266.04 3820.81 1266.26 3820.09 1266.61 3819.05C1267.76 3815.45 1270.2 3807.91 1275.36 3792.12C1275.65 3791.21 1275.96 3790.28 1276.27 3789.32C1276.64 3788.18 1277.03 3786.99 1277.43 3785.76C1277.6 3785.25 1277.76 3784.74 1277.93 3784.21C1278.24 3783.27 1278.56 3782.3 1278.88 3781.31C1279.05 3780.79 1279.21 3780.28 1279.39 3779.76C1281.87 3772.16 1284.8 3763.21 1288.25 3752.65C1288.31 3752.41 1288.52 3751.74 1289.19 3751.37C1289.41 3751.25 1289.71 3751.14 1290.11 3751.14C1290.38 3751.14 1290.7 3751.19 1291.05 3751.31L1291.11 3751.33L1292.32 3751.77L1292.45 3751.81C1292.64 3751.86 1292.82 3751.97 1292.95 3752.13C1293.04 3752.22 1293.09 3752.33 1293.14 3752.46C1293.29 3752.9 1293.21 3753.53 1292.89 3754.53L1292.87 3754.54Z" fill="#030303"/>
<path d="M1305.96 3738.85C1304.38 3739.15 1299.44 3740.41 1296.13 3744.9C1293.85 3747.98 1292.64 3750.34 1292.02 3751.78L1290.8 3751.34C1291.22 3750.05 1292.41 3746.63 1293.82 3745.13C1293.97 3744.96 1294.05 3744.74 1294.02 3744.52C1294 3744.3 1293.88 3744.09 1293.69 3743.96C1292.99 3743.46 1290.67 3741.73 1290.2 3740.42C1290.11 3740.17 1290 3739.9 1289.88 3739.62C1289.18 3737.94 1288.39 3736.04 1290.16 3733.75C1291.68 3731.8 1293.02 3730.43 1293.68 3729.78C1293.75 3729.72 1293.82 3729.71 1293.86 3729.71C1293.91 3729.71 1293.98 3729.72 1294.04 3729.79L1294.8 3730.61C1294.83 3730.65 1294.84 3730.68 1294.84 3730.7C1294.84 3730.72 1294.82 3730.76 1294.78 3730.8C1293.67 3731.71 1290.68 3734.75 1290.81 3736.5C1290.96 3738.44 1291.34 3740.36 1294.28 3742.38C1294.84 3742.76 1295.6 3742.67 1296.05 3742.18C1297.03 3741.14 1299.92 3738.61 1305.84 3737.62L1305.94 3738.85H1305.96Z" fill="#4F4F4F"/>
<path d="M1306.98 3738.86C1307.02 3739.31 1306.7 3739.7 1306.24 3739.79C1306.22 3739.79 1306.21 3739.79 1306.2 3739.8C1304.76 3740.07 1300.08 3741.23 1296.96 3745.46C1294.56 3748.71 1293.38 3751.14 1292.83 3752.47C1292.53 3753.2 1292.43 3753.6 1292.43 3753.61L1291.44 3753.39C1291.45 3753.33 1291.6 3752.78 1292.03 3751.78C1292.64 3750.33 1293.86 3747.97 1296.14 3744.89C1299.45 3740.41 1304.39 3739.14 1305.97 3738.84L1305.88 3737.62C1299.96 3738.6 1297.06 3741.13 1296.09 3742.18C1295.64 3742.67 1294.87 3742.75 1294.32 3742.37C1291.38 3740.35 1291 3738.44 1290.85 3736.49C1290.72 3734.74 1293.72 3731.7 1294.82 3730.79C1294.86 3730.76 1294.87 3730.72 1294.87 3730.7C1294.87 3730.67 1294.87 3730.64 1294.84 3730.6L1294.08 3729.78C1294.01 3729.71 1293.94 3729.7 1293.9 3729.7C1293.86 3729.7 1293.78 3729.71 1293.72 3729.77C1293.05 3730.42 1291.71 3731.79 1290.2 3733.74C1288.43 3736.03 1289.22 3737.93 1289.91 3739.61C1290.03 3739.9 1290.14 3740.16 1290.23 3740.41C1290.7 3741.72 1293.03 3743.45 1293.73 3743.95C1293.92 3744.08 1294.04 3744.29 1294.06 3744.51C1294.08 3744.74 1294.01 3744.96 1293.85 3745.12C1292.45 3746.62 1291.25 3750.04 1290.84 3751.34C1290.74 3751.65 1290.68 3751.84 1290.68 3751.85L1289.7 3751.59C1289.71 3751.55 1289.75 3751.39 1289.84 3751.14C1290.23 3749.9 1291.44 3746.38 1292.96 3744.62C1291.92 3743.87 1289.8 3742.19 1289.28 3740.74C1289.19 3740.5 1289.09 3740.24 1288.98 3739.98C1288.26 3738.25 1287.29 3735.89 1289.4 3733.17C1290.95 3731.17 1292.33 3729.76 1293.01 3729.1C1293.25 3728.86 1293.59 3728.72 1293.94 3728.74C1293.96 3728.74 1293.99 3728.74 1294.01 3728.75C1294.33 3728.77 1294.63 3728.92 1294.85 3729.14L1295.02 3729.33L1295.61 3729.97C1295.67 3730.04 1295.73 3730.12 1295.78 3730.21C1295.87 3730.38 1295.91 3730.58 1295.9 3730.78C1295.88 3730.96 1295.82 3731.14 1295.72 3731.3C1295.66 3731.39 1295.58 3731.47 1295.49 3731.54C1293.98 3732.78 1291.8 3735.38 1291.88 3736.43C1292.02 3738.26 1292.33 3739.81 1294.93 3741.59C1295.06 3741.68 1295.25 3741.67 1295.36 3741.55C1296.41 3740.41 1299.51 3737.69 1305.78 3736.66C1305.79 3736.66 1305.8 3736.66 1305.8 3736.66C1305.81 3736.66 1305.84 3736.66 1305.86 3736.65C1306.1 3736.61 1306.36 3736.67 1306.56 3736.82C1306.73 3736.95 1306.84 3737.13 1306.89 3737.32C1306.89 3737.36 1306.9 3737.4 1306.9 3737.44L1307.01 3738.79V3738.87L1306.98 3738.86Z" fill="#030303"/>
<path d="M1307.13 3725.36C1306.19 3725.86 1297.96 3729.29 1295.75 3730.21C1295.71 3730.12 1295.65 3730.04 1295.58 3729.96L1294.99 3729.32L1305.8 3723.67C1306.04 3723.58 1306.71 3723.39 1307.11 3723.55C1307.24 3723.6 1307.32 3723.68 1307.38 3723.82L1307.39 3723.86C1307.69 3724.6 1307.61 3725.1 1307.13 3725.36V3725.36Z" fill="#4F4F4F"/>
<path d="M1307.61 3726.22C1306.52 3726.8 1296.75 3730.85 1295.68 3731.29C1295.65 3731.31 1295.62 3731.32 1295.6 3731.33L1295.2 3730.43C1295.2 3730.43 1295.4 3730.35 1295.74 3730.21C1297.95 3729.29 1306.18 3725.86 1307.12 3725.36C1307.6 3725.11 1307.69 3724.61 1307.38 3723.87L1307.37 3723.83C1307.31 3723.69 1307.24 3723.61 1307.11 3723.55C1306.71 3723.39 1306.03 3723.59 1305.79 3723.68L1294.98 3729.33L1294.34 3729.67L1293.85 3728.81L1293.98 3728.75L1305.38 3722.79C1305.5 3722.73 1306.62 3722.3 1307.5 3722.66C1307.87 3722.81 1308.16 3723.09 1308.31 3723.47L1308.33 3723.51C1308.78 3724.62 1309.11 3725.41 1307.61 3726.21L1307.61 3726.22Z" fill="#030303"/>
<path d="M1321.47 3736.72C1321.42 3737.93 1321.4 3737.93 1320.82 3738.07C1320.25 3738.19 1312.53 3738.54 1306.98 3738.79L1306.87 3737.43C1306.87 3737.39 1306.86 3737.35 1306.85 3737.31C1308.34 3736.88 1312.3 3736 1320.41 3735.82H1320.45C1320.59 3735.8 1321.01 3735.82 1321.24 3736.03C1321.4 3736.17 1321.47 3736.41 1321.47 3736.73V3736.72Z" fill="#4F4F4F"/>
<path d="M1322.48 3736.76C1322.42 3738.46 1322.13 3738.77 1321.07 3739.01C1320.3 3739.19 1308.61 3739.69 1306.2 3739.79H1306.17L1306.13 3738.82C1306.41 3738.81 1306.68 3738.8 1306.97 3738.79C1312.52 3738.55 1320.25 3738.19 1320.82 3738.07C1321.4 3737.94 1321.42 3737.92 1321.46 3736.72C1321.48 3736.41 1321.4 3736.17 1321.24 3736.02C1321 3735.81 1320.59 3735.8 1320.45 3735.81H1320.41C1312.3 3736 1308.34 3736.88 1306.85 3737.32C1306.35 3737.46 1306.13 3737.56 1306.12 3737.57L1305.68 3736.68C1305.68 3736.68 1305.71 3736.67 1305.75 3736.66C1305.75 3736.66 1305.76 3736.66 1305.76 3736.66C1306.34 3736.42 1310.03 3735.08 1320.36 3734.85C1320.54 3734.83 1321.34 3734.8 1321.93 3735.31C1322.19 3735.55 1322.51 3735.99 1322.48 3736.76Z" fill="#030303"/>
<path d="M1258.09 3792.23L1268.78 3825.69L1267.45 3826.08L1256.76 3792.62L1258.09 3792.23Z" fill="#030303"/>
<path d="M1265.66 3826.63L1266.72 3827.49L1244.52 3852.78L1243.46 3851.92L1265.66 3826.63Z" fill="#030303"/>
<path d="M1300.89 3809.85L1301.54 3811.03L1272.23 3825.96L1271.58 3824.78L1300.89 3809.85Z" fill="#030303"/>
<path d="M1271.55 3826.81L1304.9 3832.44L1304.66 3833.75L1271.31 3828.12L1271.55 3826.81Z" fill="#030303"/>
<path d="M1269.35 3827.36L1300.68 3840.98L1300.1 3842.2L1268.77 3828.58L1269.35 3827.36Z" fill="#030303"/>
<path d="M1268.79 3825.73L1277.49 3859.44L1276.14 3859.76L1267.44 3826.05L1268.79 3825.73Z" fill="#030303"/>
<path d="M1233.29 3811.58L1264.38 3824.55L1263.83 3825.78L1232.73 3812.81L1233.29 3811.58Z" fill="#030303"/>
<path d="M1394.48 3790.57L1402.65 3822.82L1401.29 3823.14L1393.13 3790.89L1394.48 3790.57Z" fill="#030303"/>
<path d="M1426.84 3798.01L1427.88 3798.89L1405.53 3823.23L1404.49 3822.35L1426.84 3798.01Z" fill="#030303"/>
<path d="M1437.04 3813.39L1437.52 3814.64L1405.94 3825.72L1405.46 3824.46L1437.04 3813.39Z" fill="#030303"/>
<path d="M1405.2 3827.79L1435.15 3842.98L1434.5 3844.16L1404.55 3828.97L1405.2 3827.79Z" fill="#030303"/>
<path d="M1404.15 3829.73L1410.25 3860.43L1408.88 3860.68L1402.79 3829.98L1404.15 3829.73Z" fill="#030303"/>
<path d="M1400.93 3829.23L1402.03 3830.04L1381.78 3855.22L1380.68 3854.4L1400.93 3829.23Z" fill="#030303"/>
<path d="M1399.48 3828.29L1400.35 3829.34L1374.13 3849.22L1373.27 3848.17L1399.48 3828.29Z" fill="#030303"/>
<path d="M1267.9 3825.24L1268.34 3826.51L1232.96 3837.72L1232.53 3836.45L1267.9 3825.24Z" fill="#030303"/>
<path d="M839.333 3869.45C845.966 3869.45 857.14 3869.43 871.31 3869.32C871.358 3869.32 876.166 3869.22 878.855 3867C881.425 3864.88 882.348 3860.55 878.985 3856.7C878.878 3856.58 876.498 3854.01 873.389 3853.95C872.228 3853.93 871.121 3854.26 870.096 3854.94C870.393 3852.11 870.44 3846.24 866.271 3844.12C861.042 3841.45 857.59 3842.7 857.075 3842.92C856.512 3843.06 852.645 3844.2 851.461 3847.98C850.087 3846.31 847.008 3843.52 841.939 3843.84C840.085 3843.96 838.611 3844.65 837.569 3845.9C835.804 3848.02 835.739 3851.16 835.84 3852.74C833.956 3852.12 829.669 3851.05 826.56 3852.82C824.606 3853.94 823.481 3855.96 823.215 3858.82C822.901 3862.14 823.659 3864.77 825.459 3866.63C828.195 3869.44 832.316 3869.44 832.583 3869.43C832.731 3869.43 835.117 3869.44 839.333 3869.44V3869.45ZM873.288 3855.12C873.288 3855.12 873.336 3855.12 873.359 3855.12C875.923 3855.17 878.043 3857.43 878.061 3857.45C880.909 3860.72 880.187 3864.35 878.061 3866.11C875.74 3868.02 871.346 3868.14 871.298 3868.14C847.937 3868.32 832.731 3868.26 832.583 3868.26H832.571C832.529 3868.26 828.734 3868.29 826.347 3865.82C824.796 3864.22 824.15 3861.9 824.429 3858.92C824.659 3856.45 825.589 3854.74 827.182 3853.83C830.646 3851.85 836.242 3854.13 836.301 3854.15C836.503 3854.24 836.74 3854.21 836.917 3854.08C837.095 3853.95 837.184 3853.74 837.148 3853.53C837.142 3853.48 836.473 3849.09 838.528 3846.63C839.351 3845.65 840.53 3845.1 842.028 3845C848.376 3844.6 851.129 3849.52 851.242 3849.73C851.366 3849.96 851.633 3850.08 851.893 3850.03C852.16 3849.99 852.355 3849.77 852.385 3849.52C852.87 3845.11 857.235 3844.08 857.418 3844.04C857.46 3844.03 857.507 3844.01 857.548 3843.99C857.578 3843.98 860.734 3842.61 865.703 3845.15C870.375 3847.53 868.693 3856.19 868.675 3856.27C868.622 3856.53 868.752 3856.79 868.995 3856.91C869.238 3857.03 869.528 3856.97 869.717 3856.79C870.813 3855.68 872.015 3855.11 873.288 3855.11V3855.12Z" fill="#030303"/>
<path d="M845.776 3869.19C845.871 3869.19 845.96 3869.17 846.049 3869.13C846.351 3868.98 846.469 3868.63 846.321 3868.34L842.182 3860.45L843.976 3853.44C844.059 3853.13 843.858 3852.81 843.532 3852.74C843.206 3852.66 842.875 3852.85 842.798 3853.16L840.95 3860.38C840.915 3860.52 840.932 3860.66 840.998 3860.78L845.237 3868.87C845.344 3869.07 845.557 3869.19 845.782 3869.19L845.776 3869.19Z" fill="#030303"/>
<path d="M841.536 3861C841.779 3861 842.01 3860.86 842.105 3860.62C842.223 3860.32 842.069 3859.99 841.755 3859.87L837.835 3858.43C837.521 3858.32 837.172 3858.47 837.048 3858.77C836.929 3859.07 837.083 3859.41 837.397 3859.53L841.317 3860.96C841.388 3860.99 841.459 3861 841.536 3861Z" fill="#030303"/>
<path d="M863.18 3869.06C863.387 3869.06 863.588 3868.96 863.701 3868.78C863.784 3868.65 863.807 3868.49 863.772 3868.36C863.748 3867.51 864.429 3859.37 864.903 3854.02C864.932 3853.69 864.684 3853.41 864.346 3853.39C864.015 3853.36 863.719 3853.6 863.689 3853.92C863.689 3853.95 863.369 3857.57 863.073 3861.15C862.901 3863.25 862.765 3864.93 862.682 3866.14C862.556 3867.9 862.617 3868.84 862.866 3868.99C862.966 3869.05 863.073 3869.07 863.18 3869.07V3869.06Z" fill="#030303"/>
<path d="M863.493 3860.04C863.635 3860.04 863.777 3860 863.896 3859.9C864.15 3859.69 864.174 3859.32 863.955 3859.08L857.489 3851.97C857.27 3851.73 856.885 3851.7 856.63 3851.91C856.375 3852.12 856.352 3852.49 856.571 3852.74L863.037 3859.85C863.156 3859.98 863.327 3860.04 863.493 3860.04Z" fill="#030303"/>
<path d="M863.802 3864.58C863.926 3864.58 864.051 3864.55 864.157 3864.47L867.704 3862.02C867.977 3861.84 868.042 3861.47 867.841 3861.2C867.645 3860.94 867.266 3860.88 866.988 3861.07L863.441 3863.52C863.168 3863.71 863.103 3864.08 863.304 3864.34C863.423 3864.5 863.612 3864.59 863.802 3864.59V3864.58Z" fill="#030303"/>
<path d="M854.6 3868.95C854.683 3868.95 854.765 3868.93 854.842 3868.89C855.15 3868.76 855.292 3868.42 855.156 3868.13L850.117 3857.08C849.981 3856.78 849.625 3856.65 849.317 3856.78C849.01 3856.91 848.867 3857.25 849.004 3857.54L854.043 3868.59C854.144 3868.81 854.369 3868.95 854.6 3868.95Z" fill="#030303"/>
<path d="M851.366 3861.18C851.567 3861.18 851.763 3861.08 851.881 3860.9L854.185 3857.44C854.368 3857.17 854.285 3856.81 854.001 3856.63C853.717 3856.46 853.344 3856.54 853.16 3856.81L850.857 3860.27C850.673 3860.55 850.756 3860.9 851.04 3861.08C851.141 3861.14 851.253 3861.17 851.366 3861.17V3861.18Z" fill="#030303"/>
<path d="M853.664 3866.39C853.901 3866.39 854.126 3866.25 854.22 3866.03L855.653 3862.86C855.79 3862.56 855.647 3862.22 855.334 3862.09C855.026 3861.97 854.664 3862.1 854.534 3862.4L853.101 3865.57C852.965 3865.87 853.107 3866.21 853.421 3866.34C853.498 3866.37 853.581 3866.39 853.664 3866.39Z" fill="#030303"/>
<path d="M719.215 3869.33H760.933C764.937 3869.33 768.744 3867.57 771.131 3864.62C772.771 3862.59 773.393 3860.63 772.972 3858.79C771.9 3854.09 765.505 3852.11 763.634 3851.63C763.646 3850.86 763.545 3849.31 762.757 3847.53C761.751 3845.25 759.376 3842.14 753.792 3840.27C749.374 3838.78 744.708 3839.15 740.29 3841.34C738.117 3842.41 736.512 3843.66 735.642 3844.42C734.878 3842.75 732.255 3839.73 723.366 3840.31C720.062 3840.53 717.676 3841.67 716.26 3843.71C714.093 3846.83 714.875 3851.13 715.354 3852.96C711.884 3852.68 709.066 3853.63 708.935 3853.68C708.479 3853.82 704.606 3855.3 706.312 3861.82C707.076 3864.74 709.427 3866.98 713.104 3868.3C714.999 3868.98 717.054 3869.33 719.215 3869.33ZM748.409 3840.55C749.978 3840.55 751.648 3840.78 753.389 3841.37C763.178 3844.66 762.432 3851.71 762.396 3852.01C762.361 3852.31 762.562 3852.58 762.87 3852.65C762.947 3852.67 770.722 3854.37 771.782 3859.04C772.119 3860.52 771.575 3862.16 770.165 3863.9C768.01 3866.56 764.558 3868.15 760.928 3868.15H719.209C717.196 3868.15 715.283 3867.83 713.525 3867.2C711.233 3866.37 708.325 3864.72 707.49 3861.53C705.992 3855.8 709.172 3854.82 709.308 3854.78C709.32 3854.78 709.338 3854.78 709.344 3854.77C709.373 3854.76 712.53 3853.71 716.095 3854.22C716.302 3854.26 716.515 3854.18 716.651 3854.02C716.787 3853.86 716.829 3853.65 716.764 3853.45C716.746 3853.4 714.839 3847.85 717.273 3844.35C718.463 3842.63 720.542 3841.67 723.443 3841.47C734.067 3840.77 734.712 3845.37 734.736 3845.57C734.76 3845.79 734.925 3845.99 735.15 3846.06C735.376 3846.14 735.63 3846.07 735.79 3845.9C735.849 3845.84 741.043 3840.54 748.403 3840.54L748.409 3840.55Z" fill="#030303"/>
<path d="M750.275 3869.33C750.535 3869.33 750.778 3869.16 750.855 3868.91L755.498 3853.97C755.592 3853.66 755.409 3853.33 755.089 3853.24C754.769 3853.15 754.426 3853.32 754.331 3853.63L749.688 3868.58C749.594 3868.88 749.777 3869.21 750.097 3869.3C750.156 3869.32 750.215 3869.33 750.269 3869.33H750.275Z" fill="#030303"/>
<path d="M752.046 3863.62C752.111 3863.62 752.182 3863.61 752.247 3863.59C752.567 3863.48 752.733 3863.14 752.62 3862.84L747.036 3847.6C746.923 3847.29 746.574 3847.13 746.26 3847.24C745.94 3847.35 745.775 3847.68 745.887 3847.98L751.471 3863.23C751.56 3863.47 751.797 3863.62 752.046 3863.62Z" fill="#030303"/>
<path d="M735.103 3869.32C735.133 3869.32 735.168 3869.32 735.198 3869.32C735.529 3869.27 735.754 3868.97 735.701 3868.65L732.302 3848.29C732.249 3847.97 731.935 3847.76 731.603 3847.81C731.272 3847.86 731.047 3848.16 731.1 3848.48L734.499 3868.84C734.547 3869.13 734.807 3869.33 735.097 3869.33L735.103 3869.32Z" fill="#030303"/>
<path d="M733.978 3862.59C734.132 3862.59 734.28 3862.54 734.398 3862.43L739.42 3857.8C739.663 3857.58 739.669 3857.21 739.438 3856.98C739.207 3856.75 738.822 3856.74 738.579 3856.96L733.557 3861.59C733.315 3861.81 733.309 3862.18 733.54 3862.41C733.658 3862.53 733.818 3862.59 733.978 3862.59Z" fill="#030303"/>
<path d="M733.001 3856.76C733.208 3856.76 733.409 3856.65 733.522 3856.47C733.694 3856.19 733.599 3855.84 733.309 3855.67L723.55 3850.1C723.26 3849.94 722.887 3850.03 722.715 3850.31C722.543 3850.59 722.638 3850.95 722.928 3851.11L732.687 3856.68C732.782 3856.73 732.894 3856.76 732.995 3856.76H733.001Z" fill="#030303"/>
<path d="M861.836 3853.68C861.966 3853.63 864.785 3852.69 868.255 3852.97C867.775 3851.13 866.993 3846.83 869.161 3843.71C870.576 3841.67 872.962 3840.53 876.267 3840.31C885.155 3839.72 887.778 3842.75 888.542 3844.42C889.413 3843.66 891.018 3842.41 893.185 3841.33C897.603 3839.15 902.275 3838.78 906.692 3840.27C912.276 3842.14 914.651 3845.25 915.658 3847.53C916.445 3849.31 916.546 3850.86 916.534 3851.63C918.405 3852.11 924.801 3854.09 925.873 3858.79C926.293 3860.63 925.671 3862.59 924.031 3864.62C921.645 3867.56 917.837 3869.33 913.834 3869.33H872.116C869.96 3869.33 867.899 3868.98 866.005 3868.3C862.327 3866.98 859.976 3864.74 859.212 3861.81C858.91 3860.65 858.78 3859.65 858.78 3858.78C858.78 3854.81 861.457 3853.8 861.836 3853.67V3853.68ZM860.397 3861.53C861.232 3864.72 864.139 3866.38 866.431 3867.2C868.19 3867.84 870.102 3868.15 872.116 3868.15H913.834C917.464 3868.15 920.916 3866.56 923.072 3863.91C924.481 3862.17 925.02 3860.53 924.682 3859.04C923.622 3854.38 915.847 3852.68 915.77 3852.66C915.462 3852.59 915.261 3852.32 915.296 3852.02C915.308 3851.94 916.12 3844.68 906.29 3841.38C904.549 3840.79 902.879 3840.55 901.31 3840.55C893.949 3840.55 888.761 3845.85 888.696 3845.91C888.536 3846.08 888.282 3846.14 888.057 3846.07C887.832 3846 887.666 3845.81 887.642 3845.58C887.619 3845.38 886.973 3840.78 876.35 3841.48C873.448 3841.68 871.37 3842.64 870.179 3844.36C867.746 3847.86 869.652 3853.41 869.67 3853.47C869.741 3853.66 869.7 3853.88 869.558 3854.03C869.421 3854.19 869.208 3854.26 869.001 3854.23C865.436 3853.72 862.28 3854.77 862.25 3854.78C862.238 3854.78 862.221 3854.79 862.209 3854.8C862.072 3854.84 858.893 3855.81 860.397 3861.54V3861.53Z" fill="#030303"/>
<path d="M860.397 3861.53C861.232 3864.72 864.14 3866.38 866.431 3867.2C868.19 3867.84 870.103 3868.15 872.116 3868.15H887.287L886.281 3862.12C886.281 3862.12 886.275 3862.08 886.269 3862.06L885.345 3856.54L875.829 3851.11C875.539 3850.95 875.444 3850.59 875.616 3850.31C875.788 3850.03 876.161 3849.94 876.451 3850.1L885.091 3855.03L883.995 3848.47C883.942 3848.15 884.167 3847.85 884.504 3847.8C884.836 3847.74 885.15 3847.96 885.203 3848.28L887.293 3860.8L891.474 3856.95C891.717 3856.73 892.102 3856.73 892.333 3856.97C892.564 3857.2 892.558 3857.57 892.315 3857.8L887.524 3862.21L888.513 3868.15H902.713L904.295 3863.06L898.775 3847.98C898.663 3847.68 898.829 3847.35 899.149 3847.24C899.462 3847.13 899.812 3847.29 899.924 3847.6L904.887 3861.15L907.226 3853.63C907.32 3853.32 907.664 3853.14 907.984 3853.24C908.309 3853.33 908.493 3853.66 908.398 3853.97L903.987 3868.16H913.828C917.458 3868.16 920.911 3866.57 923.066 3863.91C924.476 3862.17 925.014 3860.53 924.677 3859.05C923.617 3854.38 915.842 3852.68 915.765 3852.66C915.457 3852.6 915.256 3852.32 915.291 3852.02C915.303 3851.95 916.114 3844.69 906.284 3841.38C904.543 3840.8 902.873 3840.56 901.304 3840.56C893.943 3840.56 888.756 3845.86 888.691 3845.92C888.531 3846.09 888.276 3846.15 888.051 3846.08C887.826 3846.01 887.661 3845.81 887.637 3845.58C887.613 3845.38 886.968 3840.78 876.344 3841.49C873.443 3841.68 871.364 3842.65 870.174 3844.37C867.74 3847.86 869.647 3853.42 869.665 3853.47C869.736 3853.66 869.694 3853.88 869.552 3854.03C869.416 3854.19 869.203 3854.27 868.995 3854.24C865.431 3853.72 862.274 3854.78 862.245 3854.79C862.233 3854.79 862.215 3854.8 862.203 3854.8C862.067 3854.84 858.887 3855.81 860.391 3861.55L860.397 3861.53Z" fill="#CE6326"/>
<path d="M902.997 3869.3C903.057 3869.31 903.116 3869.33 903.175 3869.33C903.436 3869.33 903.678 3869.16 903.755 3868.91L903.986 3868.15L908.398 3853.96C908.493 3853.65 908.309 3853.32 907.983 3853.23C907.664 3853.14 907.326 3853.32 907.225 3853.63L904.886 3861.15L904.294 3863.05L902.713 3868.15L902.583 3868.56C902.488 3868.87 902.672 3869.2 902.991 3869.29L902.997 3869.3Z" fill="#030303"/>
<path d="M898.787 3847.98L904.306 3863.06L904.371 3863.23C904.46 3863.47 904.697 3863.62 904.946 3863.62C905.017 3863.62 905.082 3863.61 905.147 3863.59C905.461 3863.48 905.633 3863.15 905.52 3862.84L904.898 3861.15L899.936 3847.59C899.823 3847.29 899.48 3847.12 899.16 3847.23C898.84 3847.34 898.675 3847.68 898.787 3847.98V3847.98Z" fill="#030303"/>
<path d="M883.995 3848.47L885.09 3855.03L885.339 3856.54L886.263 3862.06C886.263 3862.06 886.263 3862.1 886.274 3862.13L887.281 3868.16L887.394 3868.84C887.441 3869.13 887.702 3869.33 887.998 3869.33C888.027 3869.33 888.063 3869.33 888.092 3869.32C888.424 3869.27 888.655 3868.97 888.602 3868.65L888.519 3868.16L887.53 3862.22L887.299 3860.81L885.209 3848.29C885.155 3847.97 884.841 3847.76 884.51 3847.81C884.178 3847.86 883.947 3848.16 884.001 3848.48L883.995 3848.47Z" fill="#030303"/>
<path d="M886.268 3862.06C886.268 3862.06 886.268 3862.1 886.28 3862.12C886.304 3862.23 886.357 3862.33 886.44 3862.41C886.558 3862.53 886.718 3862.59 886.878 3862.59C887.032 3862.59 887.18 3862.54 887.299 3862.43L887.53 3862.22L892.32 3857.8C892.563 3857.58 892.569 3857.21 892.338 3856.97C892.107 3856.74 891.722 3856.74 891.479 3856.96L887.299 3860.81L886.458 3861.58C886.322 3861.71 886.256 3861.89 886.274 3862.06H886.268Z" fill="#030303"/>
<path d="M875.828 3851.11L885.345 3856.54L885.593 3856.68C885.688 3856.74 885.8 3856.76 885.901 3856.76C886.108 3856.76 886.316 3856.66 886.422 3856.47C886.594 3856.2 886.499 3855.84 886.209 3855.67L885.09 3855.04L876.45 3850.11C876.16 3849.95 875.787 3850.04 875.615 3850.32C875.443 3850.59 875.538 3850.95 875.828 3851.12V3851.11Z" fill="#030303"/>
<path d="M562.865 3846.54C563.048 3846.48 567.016 3845.15 571.901 3845.55C571.226 3842.97 570.125 3836.91 573.174 3832.52C575.164 3829.65 578.527 3828.04 583.176 3827.74C595.688 3826.91 599.378 3831.17 600.455 3833.52C601.681 3832.45 603.937 3830.69 606.993 3829.18C613.211 3826.11 619.784 3825.59 626.001 3827.68C633.865 3830.32 637.205 3834.7 638.621 3837.91C639.728 3840.41 639.87 3842.59 639.858 3843.67C642.493 3844.35 651.494 3847.14 652.998 3853.75C653.591 3856.34 652.714 3859.1 650.405 3861.96C647.047 3866.1 641.682 3868.58 636.051 3868.58H577.325C574.287 3868.58 571.392 3868.09 568.727 3867.13C563.551 3865.27 560.247 3862.12 559.169 3858.01C558.743 3856.37 558.565 3854.96 558.565 3853.74C558.565 3848.15 562.338 3846.73 562.865 3846.55V3846.54ZM560.833 3857.6C562.012 3862.09 566.104 3864.42 569.331 3865.58C571.806 3866.47 574.501 3866.92 577.331 3866.92H636.056C641.161 3866.92 646.023 3864.68 649.06 3860.94C651.044 3858.49 651.808 3856.18 651.328 3854.09C649.836 3847.52 638.893 3845.12 638.78 3845.1C638.348 3845.01 638.058 3844.62 638.117 3844.2C638.129 3844.1 639.272 3833.88 625.439 3829.22C622.987 3828.4 620.636 3828.06 618.428 3828.06C608.065 3828.06 600.763 3835.52 600.674 3835.61C600.449 3835.85 600.094 3835.94 599.774 3835.83C599.455 3835.74 599.224 3835.46 599.188 3835.14C599.159 3834.86 598.247 3828.38 583.294 3829.38C579.208 3829.65 576.289 3831.01 574.607 3833.43C571.185 3838.35 573.867 3846.17 573.897 3846.24C573.991 3846.52 573.932 3846.82 573.743 3847.04C573.553 3847.26 573.251 3847.37 572.955 3847.33C567.934 3846.6 563.492 3848.08 563.451 3848.1C563.433 3848.1 563.409 3848.11 563.398 3848.12C563.208 3848.17 558.731 3849.54 560.845 3857.61L560.833 3857.6Z" fill="#030303"/>
<path d="M620.802 3868.53C620.885 3868.55 620.968 3868.57 621.05 3868.57C621.418 3868.57 621.761 3868.33 621.868 3867.97L622.199 3866.92L628.411 3846.94C628.547 3846.51 628.287 3846.05 627.831 3845.92C627.381 3845.78 626.901 3846.04 626.765 3846.47L623.472 3857.06L622.637 3859.74L620.411 3866.92L620.227 3867.5C620.091 3867.93 620.352 3868.39 620.802 3868.53V3868.53Z" fill="#030303"/>
<path d="M614.869 3838.53L622.632 3859.75L622.721 3859.99C622.845 3860.33 623.177 3860.54 623.532 3860.54C623.627 3860.54 623.722 3860.52 623.817 3860.49C624.261 3860.34 624.498 3859.87 624.344 3859.44L623.467 3857.06L616.486 3837.98C616.332 3837.56 615.84 3837.33 615.396 3837.48C614.946 3837.63 614.715 3838.1 614.869 3838.53Z" fill="#030303"/>
<path d="M594.054 3839.22L595.6 3848.45L595.955 3850.57L597.252 3858.33C597.252 3858.36 597.258 3858.39 597.264 3858.42L598.685 3866.92L598.845 3867.87C598.916 3868.27 599.277 3868.56 599.692 3868.56C599.739 3868.56 599.78 3868.56 599.828 3868.55C600.296 3868.48 600.615 3868.05 600.538 3867.6L600.42 3866.91L599.022 3858.55L598.691 3856.57L595.748 3838.95C595.671 3838.5 595.233 3838.19 594.765 3838.27C594.297 3838.34 593.977 3838.76 594.054 3839.21V3839.22Z" fill="#030303"/>
<path d="M597.252 3858.34C597.252 3858.37 597.258 3858.4 597.264 3858.42C597.293 3858.57 597.37 3858.71 597.489 3858.83C597.654 3859.01 597.879 3859.09 598.104 3859.09C598.318 3859.09 598.531 3859.02 598.697 3858.86L599.022 3858.56L605.767 3852.35C606.111 3852.03 606.122 3851.51 605.791 3851.18C605.465 3850.86 604.92 3850.84 604.583 3851.16L598.697 3856.58L597.512 3857.67C597.317 3857.85 597.228 3858.1 597.252 3858.34Z" fill="#030303"/>
<path d="M582.56 3842.94L595.955 3850.57L596.298 3850.77C596.435 3850.85 596.588 3850.89 596.737 3850.89C597.033 3850.89 597.317 3850.74 597.471 3850.48C597.714 3850.09 597.583 3849.58 597.175 3849.35L595.6 3848.45L583.436 3841.52C583.034 3841.29 582.507 3841.41 582.264 3841.8C582.021 3842.2 582.151 3842.7 582.56 3842.94Z" fill="#030303"/>
<path d="M629.247 3855.67C631.32 3852.85 635.074 3851.69 636.732 3851.29C635.625 3849.21 632.847 3843 636.3 3838.63C638.141 3836.29 640.392 3834.98 642.985 3834.74C646.728 3834.38 650.174 3836.34 651.832 3837.47C651.921 3836.15 652.371 3833.98 654.142 3831.89C656.895 3828.63 661.751 3826.74 668.591 3826.28C675.264 3825.83 680.025 3827.05 682.743 3829.91C684.644 3831.91 685.053 3834.22 685.1 3835.64C687.256 3834.34 692.721 3832.37 703.534 3835.86C707.283 3837.07 709.663 3839.12 710.611 3841.96C712.233 3846.8 709.225 3852.57 707.561 3855.23C708.728 3854.95 710.327 3854.8 711.872 3855.41C713.649 3856.11 714.94 3857.63 715.709 3859.94C716.894 3863.49 715.597 3866.39 712.062 3868.11C710.534 3868.85 708.763 3869.25 706.945 3869.25H641.304C638.378 3869.25 635.53 3868.59 633.061 3867.36C630.123 3865.89 628.418 3864.01 627.998 3861.78C627.559 3859.46 627.986 3857.4 629.253 3855.67H629.247ZM629.194 3861.57C629.543 3863.43 631.035 3865.03 633.623 3866.32C635.921 3867.47 638.58 3868.07 641.304 3868.07H706.945C708.58 3868.07 710.155 3867.72 711.511 3867.06C714.537 3865.59 715.561 3863.31 714.549 3860.3C713.891 3858.33 712.837 3857.05 711.416 3856.49C710.794 3856.24 710.149 3856.15 709.539 3856.15C707.828 3856.15 706.377 3856.86 706.353 3856.87C706.104 3857 705.797 3856.94 705.613 3856.74C705.429 3856.53 705.418 3856.23 705.577 3856.01C705.637 3855.93 711.404 3848.13 709.45 3842.3C708.627 3839.83 706.501 3838.04 703.144 3836.95C689.542 3832.56 684.929 3837.22 684.887 3837.26C684.709 3837.46 684.413 3837.51 684.171 3837.41C683.928 3837.3 683.786 3837.04 683.827 3836.79C683.833 3836.75 684.366 3833.34 681.826 3830.67C679.374 3828.1 674.945 3827.01 668.674 3827.43C662.207 3827.87 657.641 3829.6 655.113 3832.59C652.667 3835.47 653.064 3838.56 653.064 3838.6C653.1 3838.83 652.975 3839.07 652.75 3839.19C652.525 3839.31 652.247 3839.28 652.057 3839.11C652.016 3839.07 647.705 3835.45 643.11 3835.89C640.871 3836.1 638.905 3837.26 637.277 3839.32C633.653 3843.91 638.141 3851.32 638.183 3851.4C638.284 3851.56 638.295 3851.77 638.212 3851.94C638.13 3852.12 637.958 3852.24 637.756 3852.27C637.703 3852.28 632.605 3853.12 630.236 3856.35C629.164 3857.81 628.809 3859.57 629.188 3861.57H629.194Z" fill="#030303"/>
<path d="M629.194 3861.57C629.543 3863.43 631.036 3865.03 633.623 3866.32C635.921 3867.47 638.58 3868.07 641.304 3868.07H655.38L653.372 3862.56L646.752 3860.93C646.426 3860.85 646.231 3860.53 646.314 3860.21C646.396 3859.9 646.728 3859.71 647.054 3859.79L652.887 3861.23L650.553 3854.82C650.512 3854.7 650.506 3854.57 650.548 3854.45L652.229 3849.26C652.33 3848.96 652.668 3848.78 652.993 3848.88C653.313 3848.98 653.491 3849.3 653.39 3849.62L651.767 3854.62L656.659 3868.08H669.307C669.313 3868.04 669.325 3868.01 669.343 3867.97L671.57 3862.62L666.625 3851.45L658.968 3848.25C658.66 3848.12 658.518 3847.77 658.654 3847.48C658.79 3847.19 659.152 3847.05 659.454 3847.18L665.938 3849.89L662.693 3842.56C662.563 3842.26 662.705 3841.92 663.013 3841.79C663.321 3841.67 663.682 3841.8 663.812 3842.1L667.643 3850.76L672.209 3861.08L677.497 3848.38L677.006 3840.15C676.988 3839.83 677.242 3839.55 677.58 3839.53C677.917 3839.51 678.202 3839.76 678.225 3840.08L678.723 3848.44C678.723 3848.53 678.717 3848.61 678.681 3848.69L670.604 3868.08H688.156L690.542 3861.86L683.656 3858.03C683.365 3857.87 683.265 3857.51 683.431 3857.24C683.596 3856.96 683.969 3856.86 684.266 3857.02L690.969 3860.74L693.716 3853.58L689.24 3842.54C689.115 3842.23 689.269 3841.89 689.583 3841.78C689.897 3841.66 690.252 3841.81 690.371 3842.11L694.35 3851.92L696.547 3846.18C696.66 3845.88 697.015 3845.72 697.329 3845.83C697.643 3845.94 697.808 3846.28 697.69 3846.58L694.942 3853.74L691.875 3861.74C691.875 3861.74 691.857 3861.8 691.845 3861.82L689.447 3868.08H706.922C708.556 3868.08 710.131 3867.73 711.487 3867.07C714.513 3865.59 715.538 3863.32 714.525 3860.3C713.868 3858.34 712.814 3857.06 711.393 3856.5C710.771 3856.25 710.125 3856.15 709.516 3856.15C707.804 3856.15 706.353 3856.87 706.33 3856.88C706.081 3857 705.773 3856.95 705.589 3856.74C705.406 3856.54 705.394 3856.23 705.554 3856.01C705.613 3855.93 711.381 3848.13 709.427 3842.3C708.604 3839.84 706.478 3838.04 703.12 3836.96C689.518 3832.57 684.905 3837.22 684.864 3837.27C684.686 3837.46 684.39 3837.52 684.147 3837.41C683.904 3837.3 683.762 3837.05 683.804 3836.79C683.81 3836.76 684.342 3833.35 681.802 3830.68C679.351 3828.1 674.921 3827.01 668.65 3827.44C662.184 3827.88 657.618 3829.61 655.089 3832.6C652.644 3835.48 653.041 3838.57 653.041 3838.6C653.076 3838.84 652.952 3839.08 652.727 3839.2C652.502 3839.31 652.223 3839.28 652.034 3839.12C651.992 3839.08 647.681 3835.46 643.086 3835.9C640.848 3836.11 638.882 3837.26 637.253 3839.33C633.629 3843.91 638.118 3851.32 638.159 3851.4C638.26 3851.57 638.272 3851.77 638.189 3851.95C638.106 3852.12 637.934 3852.25 637.733 3852.28C637.68 3852.29 632.581 3853.13 630.212 3856.35C629.141 3857.82 628.785 3859.57 629.164 3861.57L629.194 3861.57Z" fill="#CE6326"/>
<path d="M688.386 3869.21C688.457 3869.24 688.529 3869.25 688.6 3869.25C688.848 3869.25 689.079 3869.1 689.168 3868.87L689.47 3868.09L691.868 3861.83C691.868 3861.83 691.886 3861.77 691.898 3861.75L694.965 3853.74L697.713 3846.59C697.826 3846.29 697.666 3845.95 697.352 3845.84C697.038 3845.73 696.689 3845.88 696.57 3846.19L694.373 3851.92L693.74 3853.58L690.992 3860.74L690.566 3861.86L688.179 3868.08L688.031 3868.46C687.913 3868.76 688.078 3869.1 688.392 3869.21H688.386Z" fill="#030303"/>
<path d="M689.251 3842.54L693.728 3853.58L693.811 3853.78C693.905 3854.02 694.136 3854.16 694.379 3854.16C694.45 3854.16 694.527 3854.15 694.598 3854.12C694.776 3854.05 694.906 3853.91 694.96 3853.74C695.001 3853.62 694.995 3853.49 694.948 3853.36L694.367 3851.92L690.388 3842.12C690.264 3841.81 689.914 3841.67 689.6 3841.79C689.287 3841.9 689.133 3842.24 689.257 3842.54L689.251 3842.54Z" fill="#030303"/>
<path d="M683.667 3858.03L690.554 3861.86L690.998 3862.1C691.093 3862.15 691.199 3862.18 691.3 3862.18C691.507 3862.18 691.714 3862.07 691.827 3861.89C691.839 3861.87 691.857 3861.85 691.862 3861.82C691.868 3861.8 691.88 3861.77 691.892 3861.75C691.963 3861.5 691.851 3861.23 691.608 3861.1L690.98 3860.75L684.277 3857.03C683.987 3856.87 683.614 3856.96 683.442 3857.24C683.276 3857.52 683.371 3857.88 683.667 3858.04V3858.03Z" fill="#030303"/>
<path d="M669.691 3868.73C669.763 3868.76 669.84 3868.77 669.917 3868.77C670.159 3868.77 670.384 3868.63 670.479 3868.4L670.615 3868.07L678.692 3848.69C678.728 3848.61 678.74 3848.52 678.734 3848.44L678.237 3840.08C678.219 3839.76 677.929 3839.51 677.591 3839.53C677.253 3839.55 676.999 3839.82 677.017 3840.14L677.508 3848.38L672.22 3861.07L671.575 3862.62L669.348 3867.96C669.336 3868 669.318 3868.03 669.313 3868.07C669.259 3868.34 669.413 3868.61 669.686 3868.72L669.691 3868.73Z" fill="#030303"/>
<path d="M662.705 3842.55L665.95 3849.88L666.643 3851.45L671.587 3862.62L671.623 3862.7C671.724 3862.92 671.949 3863.06 672.185 3863.06C672.268 3863.06 672.345 3863.04 672.422 3863.01C672.73 3862.89 672.878 3862.54 672.742 3862.25L672.227 3861.08L667.661 3850.76L663.83 3842.1C663.7 3841.8 663.339 3841.66 663.031 3841.79C662.723 3841.92 662.575 3842.26 662.711 3842.56L662.705 3842.55Z" fill="#030303"/>
<path d="M658.98 3848.25L666.636 3851.45L666.861 3851.54C666.938 3851.57 667.021 3851.59 667.104 3851.59C667.341 3851.59 667.566 3851.46 667.661 3851.24C667.732 3851.08 667.726 3850.91 667.661 3850.76C667.602 3850.63 667.495 3850.53 667.353 3850.46L665.95 3849.88L659.465 3847.17C659.157 3847.04 658.796 3847.18 658.666 3847.47C658.53 3847.77 658.672 3848.11 658.98 3848.24V3848.25Z" fill="#030303"/>
<path d="M650.56 3854.82L652.893 3861.23L653.373 3862.56L655.38 3868.08L655.664 3868.86C655.753 3869.1 655.984 3869.25 656.239 3869.25C656.304 3869.25 656.375 3869.24 656.44 3869.22C656.754 3869.11 656.926 3868.78 656.813 3868.47L656.671 3868.08L651.78 3854.62L653.402 3849.62C653.503 3849.31 653.319 3848.98 653.005 3848.88C652.686 3848.79 652.342 3848.96 652.242 3849.26L650.56 3854.45C650.518 3854.57 650.524 3854.7 650.566 3854.82H650.56Z" fill="#030303"/>
<path d="M646.757 3860.93L653.378 3862.56L653.538 3862.6C653.591 3862.61 653.638 3862.61 653.692 3862.61C653.964 3862.61 654.213 3862.44 654.284 3862.18C654.367 3861.86 654.171 3861.55 653.845 3861.47L652.898 3861.23L647.065 3859.79C646.74 3859.71 646.408 3859.9 646.325 3860.21C646.242 3860.53 646.438 3860.85 646.763 3860.93H646.757Z" fill="#030303"/>
<path d="M760.199 3856.4C760.537 3852.79 761.954 3850.26 764.406 3848.86C768.318 3846.63 773.706 3847.97 776.073 3848.75C775.948 3846.77 776.028 3842.81 778.252 3840.15C779.566 3838.57 781.416 3837.7 783.747 3837.55C790.124 3837.14 793.992 3840.65 795.721 3842.77C797.21 3838 802.072 3836.57 802.78 3836.39C803.426 3836.12 807.772 3834.55 814.345 3837.9C819.586 3840.58 819.523 3847.94 819.149 3851.51C820.437 3850.66 821.832 3850.24 823.289 3850.27C827.197 3850.34 830.188 3853.57 830.326 3853.72C834.551 3858.56 833.392 3864.01 830.156 3866.68C826.774 3869.47 820.731 3869.6 820.669 3869.6C802.847 3869.73 788.8 3869.76 780.462 3869.76C775.159 3869.76 772.164 3869.75 771.977 3869.75C771.634 3869.76 766.455 3869.76 763.02 3866.22C760.751 3863.89 759.802 3860.58 760.194 3856.4L760.199 3856.4ZM764.134 3865.21C767.128 3868.31 771.906 3868.27 771.959 3868.27C771.964 3868.27 771.968 3868.27 771.973 3868.27C772.075 3868.27 777.784 3868.3 787.691 3868.28C788.239 3868.28 788.8 3868.28 789.371 3868.28C792.201 3868.27 795.338 3868.27 798.756 3868.25C799.3 3868.25 799.848 3868.25 800.405 3868.24C803.311 3868.23 806.399 3868.22 809.666 3868.2C810.169 3868.2 810.682 3868.2 811.199 3868.19C814.216 3868.18 817.371 3868.15 820.655 3868.13C820.709 3868.13 826.235 3867.98 829.154 3865.56C831.832 3863.35 832.741 3858.78 829.154 3854.67C829.127 3854.64 826.471 3851.79 823.244 3851.74C823.213 3851.74 823.182 3851.74 823.151 3851.74C821.551 3851.74 820.036 3852.45 818.659 3853.85C818.423 3854.08 818.057 3854.14 817.754 3853.99C817.451 3853.84 817.291 3853.52 817.353 3853.2C817.375 3853.09 819.497 3842.2 813.614 3839.2C807.362 3836.01 803.395 3837.74 803.36 3837.75C803.306 3837.77 803.253 3837.79 803.199 3837.8C802.967 3837.86 797.477 3839.15 796.867 3844.7C796.831 3845.03 796.577 3845.29 796.247 3845.35C795.913 3845.41 795.579 3845.25 795.423 3844.96C795.387 3844.9 791.853 3838.51 783.84 3839.02C781.955 3839.14 780.476 3839.83 779.437 3841.07C776.852 3844.16 777.69 3849.69 777.699 3849.74C777.744 3850.01 777.628 3850.27 777.41 3850.44C777.187 3850.6 776.893 3850.63 776.639 3850.53C776.567 3850.5 769.53 3847.63 765.172 3850.12C763.167 3851.26 762.003 3853.42 761.709 3856.53C761.357 3860.27 762.168 3863.18 764.12 3865.2L764.134 3865.21Z" fill="#030303"/>
<path d="M764.134 3865.21C767.128 3868.31 771.906 3868.27 771.959 3868.27C771.964 3868.27 771.968 3868.27 771.973 3868.27C772.075 3868.27 777.784 3868.3 787.691 3868.28L782.686 3858.98L778.029 3857.28C777.632 3857.13 777.436 3856.71 777.588 3856.33C777.739 3855.95 778.18 3855.76 778.573 3855.9L782.699 3857.41L784.834 3849.27C784.936 3848.88 785.351 3848.64 785.761 3848.74C786.171 3848.84 786.421 3849.24 786.314 3849.64L784.041 3858.3L789.295 3868.07C789.331 3868.14 789.357 3868.21 789.366 3868.28C792.196 3868.27 795.333 3868.27 798.752 3868.25L792.615 3854.78C792.446 3854.41 792.619 3853.98 793.007 3853.81C793.395 3853.65 793.845 3853.82 794.019 3854.2L795.485 3857.41L797.834 3853.87C798.061 3853.53 798.533 3853.43 798.89 3853.65C799.246 3853.87 799.353 3854.32 799.121 3854.66L796.229 3859.02C796.229 3859.02 796.225 3859.03 796.22 3859.03L798.328 3863.65L799.572 3860.89C799.741 3860.51 800.191 3860.34 800.579 3860.5C800.966 3860.67 801.145 3861.1 800.975 3861.47L799.179 3865.47C799.179 3865.47 799.17 3865.48 799.166 3865.49L800.356 3868.09C800.378 3868.15 800.396 3868.19 800.405 3868.25C803.311 3868.24 806.399 3868.22 809.665 3868.21C809.665 3867.71 809.728 3866.92 809.821 3865.59C809.928 3864.08 810.093 3861.96 810.316 3859.31C810.356 3858.82 810.401 3858.32 810.441 3857.83C810.379 3857.79 810.316 3857.74 810.263 3857.68L802.13 3848.75C801.849 3848.44 801.884 3847.98 802.201 3847.71C802.517 3847.44 803.003 3847.47 803.284 3847.77L810.606 3855.82C810.869 3852.73 811.092 3850.26 811.092 3850.22C811.127 3849.82 811.497 3849.51 811.92 3849.55C812.339 3849.58 812.651 3849.94 812.62 3850.34C812.317 3853.78 811.947 3858.12 811.658 3861.7L815.241 3859.22C815.584 3858.98 816.061 3859.06 816.31 3859.39C816.555 3859.72 816.479 3860.18 816.136 3860.42L811.675 3863.5C811.622 3863.54 811.564 3863.57 811.506 3863.58C811.332 3865.82 811.212 3867.54 811.199 3868.19C814.216 3868.17 817.371 3868.15 820.655 3868.12C820.709 3868.12 826.235 3867.97 829.154 3865.56C831.832 3863.35 832.741 3858.78 829.154 3854.67C829.127 3854.64 826.471 3851.79 823.244 3851.74C823.213 3851.74 823.182 3851.74 823.151 3851.74C821.551 3851.74 820.036 3852.45 818.659 3853.84C818.422 3854.08 818.057 3854.14 817.754 3853.99C817.451 3853.84 817.291 3853.51 817.353 3853.19C817.375 3853.09 819.496 3842.2 813.614 3839.2C807.361 3836.01 803.395 3837.73 803.36 3837.74C803.306 3837.77 803.253 3837.79 803.199 3837.8C802.967 3837.85 797.477 3839.15 796.866 3844.7C796.831 3845.02 796.577 3845.28 796.247 3845.34C795.913 3845.4 795.579 3845.24 795.423 3844.96C795.387 3844.89 791.853 3838.5 783.84 3839.02C781.955 3839.14 780.476 3839.82 779.437 3841.06C776.852 3844.15 777.69 3849.68 777.699 3849.74C777.744 3850 777.628 3850.27 777.409 3850.43C777.187 3850.6 776.893 3850.63 776.639 3850.52C776.567 3850.49 769.53 3847.62 765.172 3850.11C763.167 3851.26 762.003 3853.42 761.709 3856.52C761.357 3860.27 762.168 3863.18 764.12 3865.2L764.134 3865.21Z" fill="#CE6326"/>
<path d="M782.553 3858.73L782.686 3858.98L787.691 3868.28L787.941 3868.74C788.074 3869 788.342 3869.14 788.623 3869.14C788.738 3869.14 788.863 3869.12 788.97 3869.06C789.278 3868.91 789.434 3868.59 789.371 3868.27C789.362 3868.21 789.336 3868.14 789.3 3868.07L784.046 3858.3L786.318 3849.63C786.421 3849.24 786.176 3848.84 785.766 3848.74C785.356 3848.64 784.937 3848.88 784.839 3849.27L782.704 3857.41L782.495 3858.21C782.45 3858.39 782.473 3858.57 782.557 3858.73L782.553 3858.73Z" fill="#030303"/>
<path d="M778.033 3857.28L782.69 3858.98L782.962 3859.08C783.051 3859.11 783.145 3859.13 783.234 3859.13C783.541 3859.13 783.835 3858.95 783.951 3858.65C784.103 3858.27 783.902 3857.85 783.506 3857.7L782.704 3857.41L778.577 3855.9C778.18 3855.75 777.739 3855.94 777.592 3856.32C777.44 3856.7 777.637 3857.13 778.033 3857.27V3857.28Z" fill="#030303"/>
<path d="M809.822 3865.59C809.929 3864.07 810.094 3861.95 810.316 3859.31C810.356 3858.81 810.401 3858.31 810.441 3857.82C810.499 3857.14 810.557 3856.46 810.61 3855.82C810.873 3852.73 811.096 3850.26 811.096 3850.22C811.132 3849.82 811.502 3849.51 811.925 3849.55C812.344 3849.58 812.656 3849.94 812.625 3850.34C812.322 3853.77 811.952 3858.12 811.662 3861.7C811.609 3862.35 811.56 3862.99 811.511 3863.58C811.337 3865.82 811.217 3867.54 811.203 3868.19C811.203 3868.27 811.203 3868.33 811.203 3868.38C811.239 3868.56 811.212 3868.75 811.11 3868.91C810.967 3869.14 810.713 3869.27 810.45 3869.27C810.316 3869.27 810.183 3869.24 810.058 3869.16C809.777 3869 809.661 3868.94 809.67 3868.2C809.67 3867.7 809.733 3866.91 809.826 3865.59H809.822Z" fill="#030303"/>
<path d="M802.13 3848.74L810.263 3857.68C810.317 3857.73 810.375 3857.78 810.441 3857.82C810.562 3857.89 810.7 3857.93 810.842 3857.93C811.021 3857.93 811.199 3857.87 811.346 3857.75C811.662 3857.48 811.698 3857.02 811.417 3856.71L810.611 3855.82L803.289 3847.77C803.008 3847.47 802.527 3847.43 802.206 3847.7C801.885 3847.97 801.854 3848.43 802.135 3848.74L802.13 3848.74Z" fill="#030303"/>
<path d="M810.606 3863.33C810.758 3863.53 810.994 3863.63 811.23 3863.63C811.324 3863.63 811.417 3863.62 811.506 3863.58C811.564 3863.56 811.622 3863.53 811.676 3863.5L816.137 3860.41C816.48 3860.17 816.556 3859.72 816.311 3859.39C816.061 3859.06 815.584 3858.98 815.241 3859.22L811.658 3861.7L810.78 3862.3C810.437 3862.54 810.361 3863 810.606 3863.33Z" fill="#030303"/>
<path d="M792.62 3854.78L798.756 3868.25L798.952 3868.68C799.077 3868.96 799.358 3869.12 799.652 3869.12C799.754 3869.12 799.857 3869.1 799.959 3869.06C800.294 3868.92 800.472 3868.58 800.405 3868.24C800.396 3868.19 800.378 3868.14 800.356 3868.09L799.166 3865.49L798.328 3863.65L796.22 3859.03L795.481 3857.41L794.014 3854.19C793.845 3853.82 793.391 3853.66 793.003 3853.81C792.615 3853.98 792.441 3854.41 792.611 3854.78H792.62Z" fill="#030303"/>
<path d="M795.178 3859.24C795.303 3859.32 795.445 3859.35 795.588 3859.35C795.833 3859.35 796.078 3859.24 796.225 3859.03C796.225 3859.03 796.23 3859.02 796.234 3859.01L799.126 3854.66C799.358 3854.31 799.251 3853.86 798.895 3853.64C798.538 3853.42 798.066 3853.53 797.838 3853.86L795.49 3857.4L794.946 3858.22C794.719 3858.57 794.821 3859.02 795.182 3859.24H795.178Z" fill="#030303"/>
<path d="M798.181 3865.84C798.279 3865.88 798.382 3865.9 798.484 3865.9C798.77 3865.9 799.041 3865.74 799.171 3865.48C799.175 3865.47 799.184 3865.46 799.184 3865.45L800.98 3861.46C801.149 3861.09 800.971 3860.66 800.583 3860.49C800.196 3860.33 799.745 3860.51 799.576 3860.87L798.333 3863.64L797.78 3864.87C797.611 3865.24 797.794 3865.67 798.181 3865.83V3865.84Z" fill="#030303"/>
<path d="M132.555 3728.69C151.228 3728.69 166.365 3714.14 166.365 3696.18C166.365 3678.22 151.228 3663.66 132.555 3663.66C113.883 3663.66 98.7461 3678.22 98.7461 3696.18C98.7461 3714.14 113.883 3728.69 132.555 3728.69Z" fill="#CE6326"/>
<path d="M132.555 3729.35C113.536 3729.35 98.0645 3714.47 98.0645 3696.17C98.0645 3677.88 113.536 3663 132.555 3663C151.575 3663 167.046 3677.88 167.046 3696.17C167.046 3714.47 151.575 3729.35 132.555 3729.35ZM132.555 3664.31C114.285 3664.31 99.4278 3678.6 99.4278 3696.17C99.4278 3713.74 114.29 3728.03 132.555 3728.03C150.821 3728.03 165.683 3713.74 165.683 3696.17C165.683 3678.6 150.821 3664.31 132.555 3664.31Z" fill="#030303"/>
<path d="M132.556 3697.52C132.398 3697.52 132.244 3697.47 132.113 3697.37L118.132 3685.95C117.848 3685.72 117.807 3685.3 118.051 3685.02C118.304 3684.75 118.723 3684.72 119.012 3684.95L132.994 3696.36C133.278 3696.6 133.319 3697.01 133.075 3697.29C132.94 3697.44 132.75 3697.52 132.556 3697.52Z" fill="#030303"/>
<path d="M132.583 3708.51C132.425 3708.51 132.271 3708.46 132.145 3708.36C131.856 3708.13 131.82 3707.72 132.059 3707.44L147.815 3689.43C148.059 3689.16 148.497 3689.12 148.772 3689.35C149.061 3689.58 149.097 3689.99 148.858 3690.27L133.102 3708.28C132.971 3708.43 132.777 3708.51 132.583 3708.51Z" fill="#030303"/>
<path d="M132.271 3715.78C132.131 3715.78 131.987 3715.74 131.865 3715.65L121.64 3708.33C121.337 3708.12 121.274 3707.7 121.5 3707.42C121.725 3707.13 122.154 3707.06 122.452 3707.28L132.678 3714.6C132.98 3714.82 133.043 3715.23 132.818 3715.52C132.687 3715.69 132.479 3715.78 132.271 3715.78V3715.78Z" fill="#030303"/>
<path d="M132.556 3868.9C132.181 3868.9 131.874 3868.61 131.874 3868.25V3677.29C131.874 3676.93 132.177 3676.64 132.556 3676.64C132.936 3676.64 133.238 3676.93 133.238 3677.29V3868.25C133.238 3868.61 132.936 3868.9 132.556 3868.9Z" fill="#030303"/>
<path d="M195.955 3734.32C195.797 3734.32 195.644 3734.27 195.513 3734.17L181.531 3722.75C181.247 3722.51 181.206 3722.1 181.45 3721.82C181.698 3721.55 182.127 3721.52 182.412 3721.75L196.393 3733.17C196.678 3733.4 196.718 3733.82 196.474 3734.09C196.339 3734.24 196.149 3734.32 195.955 3734.32Z" fill="#030303"/>
<path d="M195.982 3745.32C195.824 3745.32 195.671 3745.26 195.544 3745.16C195.255 3744.93 195.219 3744.52 195.459 3744.24L211.214 3726.24C211.458 3725.95 211.891 3725.93 212.171 3726.15C212.46 3726.39 212.496 3726.8 212.257 3727.07L196.501 3745.08C196.371 3745.24 196.176 3745.32 195.982 3745.32Z" fill="#030303"/>
<path d="M195.671 3752.58C195.531 3752.58 195.387 3752.54 195.265 3752.46L185.035 3745.14C184.733 3744.92 184.669 3744.51 184.895 3744.22C185.121 3743.93 185.55 3743.87 185.848 3744.09L196.078 3751.41C196.38 3751.62 196.443 3752.04 196.218 3752.32C196.087 3752.5 195.879 3752.59 195.671 3752.59V3752.58Z" fill="#030303"/>
<path d="M195.956 3869.33C195.582 3869.33 195.274 3869.04 195.274 3868.68V3720.22C195.274 3719.86 195.577 3719.56 195.956 3719.56C196.336 3719.56 196.639 3719.85 196.639 3720.22V3868.68C196.639 3869.04 196.336 3869.33 195.956 3869.33Z" fill="#030303"/>
<path d="M221.385 3737.56C219.322 3734.22 216.984 3730.37 216.83 3724.44C216.749 3721.33 217.295 3718.9 217.765 3716.76C218.546 3713.39 219.164 3710.5 217.377 3706.42C215.661 3702.45 212.74 3700.02 211.377 3698.82C206.352 3694.62 200.862 3692.6 195.057 3692.71C193.305 3692.75 184.344 3693.27 178.543 3700.17C175.428 3703.8 174.529 3707.62 174.258 3709.05C173.207 3713.51 174.064 3716.24 174.958 3719.16C175.581 3721.19 176.204 3723.28 176.358 3726.17C176.592 3731.71 174.642 3735.31 172.773 3738.75C170.746 3742.5 168.836 3746.06 170.164 3751.56C171.139 3755.65 173.085 3759.02 175.969 3761.6C181.152 3766.21 187.694 3766.62 193.301 3766.62H195.323C195.752 3766.62 196.145 3766.62 196.569 3766.58C202.063 3766.47 210.28 3765.98 217.133 3760.07C218.808 3758.61 222.78 3755.23 224.221 3749.76C225.661 3744.63 223.557 3741.18 221.376 3737.55L221.385 3737.56ZM223.024 3749.43C221.62 3754.56 217.882 3757.79 216.284 3759.17C209.779 3764.79 201.914 3765.28 196.574 3765.36C196.145 3765.39 195.757 3765.39 195.328 3765.39H195.174C189.138 3765.47 182.24 3765.51 176.868 3760.71C174.182 3758.28 172.313 3755.13 171.414 3751.31C170.168 3746.25 171.884 3743.03 173.906 3739.32C175.78 3735.88 177.879 3732.02 177.608 3726.1C177.491 3723.07 176.791 3720.82 176.168 3718.83C175.31 3715.95 174.534 3713.47 175.504 3709.32C175.78 3707.93 176.597 3704.37 179.518 3700.96C185.007 3694.48 193.423 3693.99 195.097 3693.96H195.526C200.862 3693.96 205.923 3695.91 210.523 3699.77C211.81 3700.89 214.573 3703.21 216.212 3706.92C217.846 3710.63 217.264 3713.21 216.523 3716.51C216.054 3718.58 215.589 3720.93 215.589 3723.86V3724.49C215.747 3730.75 218.121 3734.69 220.261 3738.21C222.442 3741.77 224.27 3744.84 223.029 3749.45L223.024 3749.43Z" fill="#030303"/>
<path d="M80.7824 3794.74C60.7108 3794.74 44.3818 3779.04 44.3818 3759.73C44.3818 3740.43 60.7108 3724.72 80.7824 3724.72C100.854 3724.72 117.187 3740.43 117.187 3759.73C117.187 3779.04 100.858 3794.74 80.7824 3794.74ZM80.7824 3726.1C61.5009 3726.1 45.8174 3741.19 45.8174 3759.73C45.8174 3778.28 61.5009 3793.36 80.7824 3793.36C100.064 3793.36 115.752 3778.28 115.752 3759.73C115.752 3741.19 100.064 3726.1 80.7824 3726.1Z" fill="#030303"/>
<path d="M80.7821 3761.15C80.6196 3761.15 80.4526 3761.1 80.3171 3760.99L65.5592 3748.94C65.2567 3748.69 65.2161 3748.25 65.4734 3747.96C65.7398 3747.67 66.1822 3747.64 66.4892 3747.88L81.2472 3759.93C81.5496 3760.18 81.5902 3760.61 81.3329 3760.91C81.1884 3761.07 80.9898 3761.15 80.7821 3761.15Z" fill="#030303"/>
<path d="M80.8139 3772.76C80.6514 3772.76 80.4844 3772.71 80.3534 3772.6C80.0464 3772.35 80.0104 3771.92 80.2632 3771.63L96.8946 3752.62C97.152 3752.32 97.6124 3752.29 97.9059 3752.53C98.2129 3752.78 98.249 3753.21 97.9962 3753.5L81.3647 3772.51C81.2248 3772.68 81.0216 3772.76 80.8139 3772.76Z" fill="#030303"/>
<path d="M80.4896 3780.42C80.3406 3780.42 80.1871 3780.38 80.0607 3780.29L69.2665 3772.56C68.9505 3772.34 68.8828 3771.9 69.1175 3771.59C69.3523 3771.29 69.8082 3771.23 70.1243 3771.45L80.9184 3779.18C81.2345 3779.4 81.3022 3779.84 81.0674 3780.14C80.9275 3780.33 80.7108 3780.42 80.4896 3780.42Z" fill="#030303"/>
<path d="M80.0645 3868.48V3739.8C80.0645 3739.42 80.3852 3739.11 80.7827 3739.11C81.1802 3739.11 81.501 3739.42 81.501 3739.8V3868.48" fill="#030303"/>
<path d="M2 0.5V3770C2 3825.23 46.7715 3870 102 3870H1510" stroke="#030303" stroke-width="3"/>
</g>
</svg>
