<svg width="86" height="74" viewBox="0 0 86 74" fill="none" xmlns="http://www.w3.org/2000/svg">
    <path d="M7.81942 38.9473L15.9152 47.1591" stroke="#4F4F4F" stroke-width="5" />
    <path d="M21.0322 39.0133L12.9377 47.2264" stroke="#4F4F4F" stroke-width="5" />
    <path
        d="M38.1587 65.9961C51.8398 65.9961 62.9692 54.9449 62.9692 41.3599C62.9692 27.7749 51.8398 16.7236 38.1587 16.7236C24.4776 16.7236 13.3459 27.7749 13.3481 41.3599H14.758C14.758 28.547 25.2574 18.1236 38.1587 18.1236C51.06 18.1236 61.5616 28.5492 61.5616 41.3621C61.5616 54.175 51.0645 64.5984 38.1609 64.5984"
        stroke="#4F4F4F" stroke-width="4" />
    <line x1="0.115234" y1="64.9695" x2="38.6047" y2="64.9695" stroke="#4F4F4F" stroke-width="5.6" />
    <line x1="38.2803" y1="64.9695" x2="76.3688" y2="64.9695" stroke="#4F4F4F" stroke-width="5.6" />
    <path d="M70.6816 71.6234L79.2392 63.8941" stroke="#4F4F4F" stroke-width="5" />
    <path d="M71.3043 58.5244L79.156 66.9699" stroke="#4F4F4F" stroke-width="5" />
    <path d="M54.0403 12.0761L57.4629 17.3496" stroke="#CE6326" stroke-width="2.5" />
    <path d="M61.2247 13.4969L56.0009 16.9949" stroke="#CE6326" stroke-width="2.5" />
    <path
        d="M67.2273 30.3451C74.5334 31.8469 81.6884 27.1669 83.1777 19.9121C84.667 12.6573 79.9351 5.53388 72.629 4.03209C65.3229 2.53029 58.1667 7.21006 56.6786 14.4651L57.4315 14.6199C58.8361 7.7774 65.5858 3.36353 72.4755 4.77972C79.3652 6.19592 83.8304 12.9163 82.4258 19.7588C81.0211 26.6012 74.2726 31.0154 67.3817 29.5989"
        stroke="#CE6326" stroke-width="3" />
</svg>