<svg width="104" height="88" viewBox="0 0 104 88" fill="none" xmlns="http://www.w3.org/2000/svg">
<path d="M9.16553 45.0272L18.9061 54.9075" stroke="#CE6326" stroke-width="5"/>
<path d="M25.0625 45.1056L15.3234 54.9873" stroke="#CE6326" stroke-width="5"/>
<path d="M45.6687 78.5384C62.1293 78.5384 75.52 65.2418 75.52 48.8968C75.52 32.5517 62.1293 19.2552 45.6687 19.2552C29.208 19.2552 15.8147 32.5517 15.8174 48.8968H17.5137C17.5137 33.4807 30.1462 20.9396 45.6687 20.9396C61.1911 20.9396 73.8263 33.4834 73.8263 48.8994C73.8263 64.3155 61.1965 76.8566 45.6714 76.8566" stroke="#CE6326" stroke-width="3.5"/>
<line y1="77.6661" x2="46.3094" y2="77.6661" stroke="#CE6326" stroke-width="5.3"/>
<line x1="45.918" y1="77.6661" x2="91.7449" y2="77.6661" stroke="#CE6326" stroke-width="5.3"/>
<path d="M85.3799 85.3401L95.6761 76.0403" stroke="#CE6326" stroke-width="5"/>
<path d="M86.0972 69.3395L95.5441 79.5008" stroke="#CE6326" stroke-width="5"/>
<path d="M64.9509 13.6618L69.0688 20.0067" stroke="#CE6326" stroke-width="3"/>
<path d="M73.42 15.5089L67.135 19.7177" stroke="#CE6326" stroke-width="3"/>
<path d="M80.6426 35.6429C89.4331 37.4498 98.0417 31.8189 99.8336 23.0902C101.626 14.3614 95.9322 5.79077 87.1417 3.98385C78.3512 2.17694 69.7411 7.80749 67.9506 16.5365L68.8565 16.7228C70.5466 8.4901 78.6676 3.17946 86.957 4.88339C95.2465 6.58731 100.619 14.673 98.9289 22.9057C97.2388 31.1384 89.1193 36.4493 80.8284 34.7451" stroke="#CE6326" stroke-width="3"/>
</svg>
