<svg width="1025" height="6665" viewBox="0 0 1025 6665" fill="none" xmlns="http://www.w3.org/2000/svg">
<g opacity="0.7">
<path d="M573.551 6633.09C573.551 6635.36 573.277 6637.57 572.763 6639.69C572.586 6640.42 572.382 6641.14 572.149 6641.84C568.272 6653.61 556.791 6662.16 543.273 6662.16C526.578 6662.16 513 6649.12 513 6633.09C513 6625.48 516.053 6618.55 521.054 6613.36C521.504 6612.89 521.978 6612.43 522.464 6611.99C527.892 6607.05 535.223 6604.01 543.277 6604.01C545.68 6604.01 548.022 6604.28 550.267 6604.8C550.641 6604.88 551.01 6604.97 551.38 6605.07C551.267 6605.42 551.155 6605.77 551.038 6606.12C550.669 6606.02 550.295 6605.93 549.922 6605.85C547.785 6605.37 545.559 6605.11 543.277 6605.11C527.217 6605.11 514.149 6617.66 514.149 6633.09C514.149 6648.51 527.217 6661.06 543.277 6661.06C557.036 6661.06 568.597 6651.86 571.63 6639.52C571.63 6639.52 571.63 6639.51 571.63 6639.51C571.63 6639.5 571.634 6639.49 571.634 6639.48C572.141 6637.43 572.406 6635.29 572.406 6633.09C572.406 6620.99 564.363 6610.66 553.143 6606.77C552.786 6606.64 552.424 6606.52 552.059 6606.41C552.175 6606.06 552.288 6605.71 552.404 6605.36C552.77 6605.48 553.131 6605.59 553.489 6605.71C565.175 6609.75 573.551 6620.49 573.551 6633.08V6633.09Z" fill="#030303"/>
<path d="M569.783 6633.09C569.783 6647.12 557.892 6658.55 543.273 6658.55C528.655 6658.55 516.764 6647.13 516.764 6633.09C516.764 6619.05 528.655 6607.63 543.273 6607.63C545.286 6607.63 547.25 6607.85 549.134 6608.26C549.512 6608.34 549.882 6608.43 550.251 6608.53C550.042 6609.16 549.837 6609.8 549.632 6610.42C549.263 6610.33 548.893 6610.24 548.516 6610.16C546.828 6609.8 545.073 6609.62 543.273 6609.62C541.044 6609.62 538.887 6609.9 536.83 6610.45C536.46 6610.54 536.095 6610.65 535.733 6610.76C528.036 6613.16 522.002 6619.14 519.765 6626.64C519.66 6626.99 519.564 6627.35 519.48 6627.71C519.094 6629.27 518.873 6630.89 518.837 6632.54C518.833 6632.72 518.829 6632.91 518.829 6633.09C518.829 6633.28 518.829 6633.46 518.837 6633.64C518.937 6637.77 520.151 6641.65 522.207 6644.99C522.4 6645.3 522.601 6645.62 522.814 6645.92C527.181 6652.33 534.721 6656.56 543.273 6656.56C545.165 6656.56 547.009 6656.36 548.781 6655.96C549.154 6655.88 549.524 6655.79 549.894 6655.69C557.542 6653.62 563.684 6648.06 566.324 6640.92C566.452 6640.57 566.573 6640.22 566.681 6639.87C567.36 6637.72 567.722 6635.44 567.722 6633.09C567.722 6631.88 567.625 6630.68 567.441 6629.52C567.384 6629.15 567.316 6628.8 567.24 6628.44C566.123 6623.12 563.13 6618.45 558.952 6615.09C558.663 6614.85 558.362 6614.63 558.06 6614.4C556.152 6613.01 554.023 6611.87 551.729 6611.06C551.372 6610.93 551.01 6610.81 550.645 6610.7C550.854 6610.07 551.059 6609.45 551.267 6608.81C551.633 6608.93 551.995 6609.04 552.352 6609.17C562.511 6612.74 569.787 6622.11 569.787 6633.09H569.783Z" fill="#030303"/>
<path d="M546.736 6633.09C546.736 6633.35 546.708 6633.6 546.644 6633.84C546.555 6634.21 546.407 6634.55 546.202 6634.86C545.848 6635.4 545.334 6635.84 544.723 6636.11C544.382 6636.26 544.008 6636.36 543.615 6636.4C543.498 6636.41 543.386 6636.42 543.269 6636.42C542.156 6636.42 541.164 6635.91 540.53 6635.13C540.293 6634.84 540.112 6634.51 539.987 6634.15C539.923 6633.98 539.879 6633.79 539.847 6633.61C539.818 6633.44 539.806 6633.27 539.806 6633.09C539.806 6632.89 539.827 6632.7 539.863 6632.51C539.863 6632.5 539.863 6632.49 539.867 6632.48C539.939 6632.11 540.072 6631.75 540.264 6631.44C540.634 6630.82 541.208 6630.32 541.895 6630.03C541.96 6630.01 542.028 6629.98 542.092 6629.96C542.381 6629.86 542.687 6629.79 543.008 6629.78C543.096 6629.77 543.181 6629.76 543.273 6629.76C543.297 6629.76 543.321 6629.76 543.346 6629.76C543.683 6629.77 544.008 6629.82 544.318 6629.91C544.406 6629.94 544.494 6629.97 544.579 6630C544.856 6630.11 545.117 6630.25 545.354 6630.42C545.426 6630.47 545.495 6630.53 545.563 6630.59C545.896 6630.87 546.174 6631.21 546.374 6631.6C546.547 6631.92 546.664 6632.28 546.712 6632.66C546.732 6632.8 546.74 6632.94 546.74 6633.09L546.736 6633.09Z" fill="#030303"/>
<path d="M616.237 6610.79C615.936 6611.02 615.638 6611.26 615.349 6611.5C612.204 6614.13 609.649 6617.39 607.905 6621.08C607.793 6621.31 607.684 6621.55 607.584 6621.79C607.395 6622.22 607.218 6622.66 607.05 6623.1C606.957 6623.34 606.873 6623.58 606.784 6623.82C606.543 6624.52 606.33 6625.23 606.146 6625.95C606.053 6626.31 605.969 6626.68 605.893 6627.04C605.503 6627.02 605.117 6627 604.736 6626.98C604.808 6626.62 604.892 6626.25 604.981 6625.9C605.153 6625.2 605.35 6624.51 605.575 6623.83C605.648 6623.61 605.724 6623.39 605.8 6623.17C606.037 6622.51 606.302 6621.85 606.588 6621.21C606.684 6620.99 606.78 6620.78 606.885 6620.56C608.677 6616.8 611.28 6613.47 614.477 6610.77C614.767 6610.52 615.064 6610.28 615.365 6610.04C615.658 6610.29 615.948 6610.53 616.237 6610.78V6610.79ZM664.72 6632.61C664.72 6648.64 651.138 6661.69 634.443 6661.69C618.884 6661.69 606.029 6650.36 604.354 6635.84C604.314 6635.47 604.278 6635.11 604.25 6634.74L605.394 6634.7C605.423 6635.07 605.459 6635.43 605.503 6635.8C607.154 6649.73 619.503 6660.59 634.443 6660.59C650.503 6660.59 663.575 6648.04 663.575 6632.61C663.575 6617.19 650.507 6604.64 634.443 6604.64C628.73 6604.64 623.395 6606.23 618.892 6608.96C618.555 6609.17 618.217 6609.38 617.892 6609.6C617.603 6609.35 617.309 6609.1 617.012 6608.85C617.342 6608.63 617.671 6608.41 618.008 6608.2C622.745 6605.25 628.389 6603.54 634.443 6603.54C646.643 6603.54 657.184 6610.5 661.972 6620.51C662.189 6620.97 662.398 6621.44 662.595 6621.91C663.969 6625.22 664.72 6628.84 664.72 6632.62V6632.61Z" fill="#030303"/>
<path d="M605.31 6632.61C605.31 6633.31 605.338 6634.01 605.391 6634.7L604.246 6634.74C604.189 6634.03 604.161 6633.33 604.161 6632.61C604.161 6630.69 604.354 6628.81 604.732 6626.99C605.113 6627.01 605.499 6627.02 605.889 6627.04C605.507 6628.84 605.31 6630.71 605.31 6632.61Z" fill="#CE6326"/>
<path d="M619.579 6613.98C619.274 6614.21 618.977 6614.44 618.687 6614.68C615.024 6617.65 612.28 6621.63 610.926 6626.18C610.822 6626.54 610.721 6626.9 610.637 6627.26C609.934 6627.23 609.235 6627.19 608.548 6627.16C608.632 6626.8 608.721 6626.43 608.821 6626.08C610.223 6621 613.22 6616.55 617.265 6613.24C617.555 6612.99 617.852 6612.76 618.153 6612.54C618.643 6613.01 619.117 6613.49 619.579 6613.98ZM660.952 6632.61C660.952 6646.65 649.061 6658.07 634.443 6658.07C620.917 6658.07 609.721 6648.28 608.13 6635.7C608.082 6635.33 608.046 6634.97 608.014 6634.6L610.075 6634.52C610.103 6634.89 610.147 6635.25 610.195 6635.62C610.77 6639.92 612.561 6643.86 615.229 6647.11C615.466 6647.4 615.711 6647.68 615.956 6647.96C617.145 6649.28 618.482 6650.46 619.945 6651.5C620.25 6651.72 620.567 6651.93 620.885 6652.13C624.765 6654.63 629.429 6656.08 634.439 6656.08C635.861 6656.08 637.255 6655.97 638.612 6655.74C638.99 6655.68 639.364 6655.61 639.737 6655.53C646.992 6653.99 653.046 6649.34 656.3 6643.12C656.473 6642.79 656.637 6642.46 656.79 6642.12C658.14 6639.21 658.891 6635.99 658.891 6632.61C658.891 6628.3 657.674 6624.26 655.553 6620.78C655.364 6620.47 655.159 6620.15 654.95 6619.85C652.881 6616.79 650.089 6614.22 646.807 6612.37C646.478 6612.18 646.145 6612 645.807 6611.83C642.413 6610.11 638.544 6609.13 634.447 6609.13C632.719 6609.13 631.04 6609.3 629.413 6609.63C629.036 6609.71 628.666 6609.79 628.296 6609.88C626.159 6610.42 624.131 6611.22 622.259 6612.26C621.917 6612.45 621.58 6612.65 621.246 6612.86C620.78 6612.35 620.306 6611.86 619.82 6611.39C620.15 6611.17 620.487 6610.97 620.829 6610.77C624.81 6608.47 629.469 6607.15 634.443 6607.15C649.061 6607.15 660.952 6618.57 660.952 6632.61V6632.61ZM610.926 6626.18C610.822 6626.54 610.721 6626.9 610.637 6627.27C609.934 6627.23 609.235 6627.2 608.548 6627.17C608.632 6626.8 608.721 6626.44 608.821 6626.08C609.516 6626.11 610.223 6626.15 610.926 6626.18Z" fill="#030303"/>
<path d="M609.994 6632.61C609.994 6633.26 610.022 6633.89 610.075 6634.52L608.014 6634.6C607.962 6633.94 607.933 6633.28 607.933 6632.61C607.933 6630.74 608.142 6628.92 608.544 6627.17C609.235 6627.2 609.934 6627.24 610.633 6627.27C610.215 6628.98 609.994 6630.77 609.994 6632.61Z" fill="#CE6326"/>
<path d="M637.905 6632.61C637.905 6633.2 637.749 6633.75 637.472 6634.23C637.275 6634.56 637.022 6634.86 636.72 6635.11C636.447 6635.35 636.138 6635.53 635.796 6635.67C635.447 6635.82 635.073 6635.9 634.68 6635.93C634.603 6635.94 634.523 6635.94 634.443 6635.94C634.27 6635.94 634.097 6635.92 633.932 6635.9C633.519 6635.84 633.133 6635.72 632.783 6635.53C632.699 6635.49 632.619 6635.44 632.542 6635.39C632.253 6635.21 631.996 6634.99 631.775 6634.73C631.747 6634.7 631.719 6634.67 631.691 6634.63C631.47 6634.36 631.293 6634.05 631.177 6633.72C631.048 6633.37 630.98 6633 630.98 6632.61C630.98 6631.17 631.928 6629.95 633.258 6629.49C633.27 6629.48 633.282 6629.47 633.294 6629.47C633.639 6629.36 634.005 6629.29 634.386 6629.29C634.398 6629.29 634.41 6629.29 634.427 6629.29H634.447C635.073 6629.29 635.664 6629.45 636.17 6629.73C636.515 6629.92 636.817 6630.16 637.074 6630.45C637.267 6630.67 637.435 6630.91 637.564 6631.17C637.737 6631.51 637.849 6631.89 637.893 6632.28C637.905 6632.39 637.913 6632.51 637.913 6632.62L637.905 6632.61Z" fill="#030303"/>
<path d="M552.36 6602.06C552.244 6602.41 552.131 6602.75 552.015 6603.1C551.645 6603.01 551.276 6602.92 550.902 6602.83C548.488 6602.27 545.969 6601.97 543.382 6601.97C534.749 6601.97 526.646 6605.21 520.56 6611.09L520.524 6611.13C520.211 6611.39 519.717 6611.98 519.894 6612.2C520.058 6612.39 521.263 6612.31 522.44 6611.94L522.46 6611.99L522.806 6612.98C522.477 6613.08 521.778 6613.29 521.054 6613.37C520.251 6613.45 519.411 6613.39 518.994 6612.87C518.259 6611.96 519.13 6610.84 519.769 6610.31C526.068 6604.22 534.456 6600.88 543.386 6600.88C546.093 6600.88 548.729 6601.19 551.251 6601.78C551.625 6601.87 551.995 6601.96 552.364 6602.06L552.36 6602.06Z" fill="#030303"/>
<path d="M576.692 6632.86C576.692 6635.4 576.379 6637.92 575.768 6640.37L575.752 6640.42C575.463 6641.21 574.675 6642.44 573.47 6642.44C573.35 6642.44 573.229 6642.43 573.105 6642.4C572.683 6642.32 572.37 6642.12 572.145 6641.85C571.602 6641.21 571.538 6640.2 571.626 6639.52C571.626 6639.52 571.626 6639.52 571.626 6639.52C571.626 6639.51 571.626 6639.5 571.626 6639.49L572.759 6639.63C572.759 6639.63 572.759 6639.66 572.751 6639.7C572.727 6639.99 572.675 6641.2 573.33 6641.33C574.049 6641.47 574.583 6640.26 574.655 6640.08C575.238 6637.73 575.539 6635.31 575.539 6632.87C575.539 6619.46 566.589 6608.01 554.124 6603.76C553.762 6603.63 553.401 6603.52 553.039 6603.4C553.155 6603.05 553.268 6602.71 553.384 6602.36C553.75 6602.46 554.112 6602.58 554.473 6602.7C567.404 6607.1 576.688 6618.96 576.688 6632.87L576.692 6632.86Z" fill="#030303"/>
<path d="M614.164 6609.09C613.863 6609.33 613.569 6609.57 613.28 6609.82C609.862 6612.77 607.094 6616.42 605.254 6620.55C605.154 6620.77 605.061 6620.99 604.969 6621.21C604.7 6621.86 604.455 6622.51 604.23 6623.17C604.157 6623.39 604.085 6623.61 604.017 6623.83C603.816 6624.49 603.635 6625.15 603.482 6625.83C603.394 6626.19 603.318 6626.55 603.249 6626.92C602.856 6626.9 602.474 6626.88 602.096 6626.86C602.161 6626.5 602.237 6626.13 602.317 6625.77C602.466 6625.12 602.635 6624.47 602.824 6623.83C602.888 6623.61 602.956 6623.39 603.028 6623.17C603.237 6622.51 603.474 6621.86 603.731 6621.21C603.82 6620.99 603.908 6620.77 604.005 6620.55C605.845 6616.22 608.677 6612.3 612.324 6609.11C612.517 6608.94 612.718 6608.77 612.915 6608.6C613.011 6608.52 613.108 6608.44 613.204 6608.37C613.529 6608.61 613.851 6608.85 614.168 6609.09L614.164 6609.09Z" fill="#030303"/>
<path d="M664.772 6620.89C664.632 6621.29 664.322 6621.59 663.88 6621.74C663.398 6621.91 662.964 6621.94 662.591 6621.9C661.659 6621.8 661.088 6621.23 661.056 6621.2L661.888 6620.44C661.888 6620.44 661.92 6620.47 661.972 6620.51C662.173 6620.66 662.723 6620.98 663.483 6620.71C663.627 6620.66 663.667 6620.59 663.688 6620.53C663.812 6620.19 663.495 6619.45 663.238 6619.05L663.209 6619C657.895 6608.63 646.647 6601.93 634.555 6601.93C628.043 6601.93 621.897 6603.86 616.775 6607.19C616.442 6607.41 616.112 6607.63 615.787 6607.86C615.466 6607.61 615.14 6607.37 614.815 6607.13C615.136 6606.89 615.466 6606.66 615.799 6606.45C621.286 6602.8 627.822 6600.83 634.559 6600.83C640.846 6600.83 646.968 6602.53 652.259 6605.74C657.413 6608.87 661.55 6613.28 664.23 6618.5C664.378 6618.73 665.11 6619.95 664.776 6620.89H664.772Z" fill="#030303"/>
<path d="M607.933 6632.61C607.933 6633.28 607.962 6633.94 608.014 6634.6L605.391 6634.7C605.338 6634.01 605.31 6633.31 605.31 6632.61C605.31 6630.71 605.511 6628.84 605.889 6627.04C606.756 6627.08 607.64 6627.13 608.544 6627.17C608.142 6628.92 607.933 6630.74 607.933 6632.61Z" fill="#CE6326"/>
<path d="M630.976 6632.61C630.976 6633 631.044 6633.37 631.173 6633.72L610.075 6634.52C610.022 6633.89 609.994 6633.25 609.994 6632.61C609.994 6630.77 610.215 6628.98 610.633 6627.27C620.053 6627.72 630.104 6628.21 631.353 6628.29C632.498 6628.36 632.972 6628.81 633.177 6629.18C633.177 6629.18 633.177 6629.18 633.177 6629.19L633.25 6629.49C631.92 6629.95 630.972 6631.18 630.972 6632.61H630.976Z" fill="#CE6326"/>
<path d="M634.463 6629.59L633.888 6629.61L633.318 6629.64C633.318 6629.64 633.318 6629.63 633.318 6629.63C633.318 6629.6 633.31 6629.55 633.294 6629.48C633.274 6629.4 633.237 6629.3 633.185 6629.19C633.185 6629.19 633.185 6629.19 633.185 6629.19C632.984 6628.82 632.51 6628.36 631.361 6628.29C630.112 6628.21 620.061 6627.72 610.641 6627.27C609.938 6627.23 609.239 6627.2 608.552 6627.17C607.652 6627.13 606.764 6627.08 605.897 6627.04C605.507 6627.02 605.121 6627 604.74 6626.99C604.234 6626.96 603.735 6626.94 603.249 6626.92C602.856 6626.9 602.474 6626.88 602.096 6626.86C601.434 6626.83 600.799 6626.8 600.188 6626.77C599.923 6626.76 599.67 6626.75 599.417 6626.73C599.148 6626.72 598.891 6626.71 598.638 6626.69C598.373 6626.68 598.115 6626.67 597.866 6626.66C595.295 6626.54 593.648 6626.46 593.572 6626.45H593.54C593.54 6626.45 591.471 6626.27 589.603 6627.49C588.261 6628.37 586.863 6629.97 586.144 6630.86C585.57 6631.56 585.144 6632.32 584.883 6633.12C584.61 6633.95 584.598 6634.58 584.847 6634.76C585.285 6635.06 586 6635.22 586.679 6635.3C586.92 6635.32 587.157 6635.34 587.374 6635.35C587.723 6635.37 588.02 6635.36 588.213 6635.35L589.386 6635.31L590.073 6635.28L592.765 6635.18L593.576 6635.15L594.319 6635.12L595.135 6635.09L598.055 6634.98L598.742 6634.95L600.931 6634.86L601.618 6634.84L604.258 6634.74L605.403 6634.69L608.026 6634.59L610.087 6634.52L631.185 6633.71L631.739 6633.69L631.775 6634.57L631.783 6634.73V6634.79L631.47 6634.8L610.203 6635.61L608.134 6635.69L605.507 6635.79L604.358 6635.84L601.546 6635.94L600.851 6635.97L598.577 6636.06L597.85 6636.08L594.448 6636.21L593.632 6636.25L592.901 6636.27L592.09 6636.3L590.37 6636.37L589.643 6636.4L588.269 6636.45C588.213 6636.45 588.056 6636.46 587.836 6636.46C587.747 6636.46 587.651 6636.46 587.546 6636.45C587.337 6636.45 587.092 6636.44 586.831 6636.42C585.964 6636.34 584.899 6636.14 584.184 6635.64C583.465 6635.15 583.336 6634.19 583.798 6632.79C584.104 6631.86 584.594 6630.98 585.252 6630.17C586.176 6629.04 587.57 6627.5 588.964 6626.58C590.599 6625.51 592.315 6625.34 593.15 6625.34C593.411 6625.34 593.588 6625.35 593.644 6625.35C593.705 6625.35 593.934 6625.36 594.315 6625.38C594.58 6625.39 594.914 6625.41 595.311 6625.43C595.653 6625.45 596.043 6625.47 596.476 6625.49C597.079 6625.52 597.762 6625.55 598.513 6625.59C598.762 6625.6 599.019 6625.61 599.28 6625.63C599.537 6625.64 599.799 6625.65 600.068 6625.66C600.321 6625.68 600.578 6625.69 600.839 6625.7C601.317 6625.72 601.807 6625.75 602.317 6625.77C602.699 6625.79 603.089 6625.81 603.482 6625.83C603.972 6625.85 604.475 6625.88 604.985 6625.9C605.366 6625.92 605.756 6625.94 606.15 6625.95C607.021 6626 607.917 6626.04 608.825 6626.08C609.52 6626.12 610.227 6626.15 610.93 6626.18C616.827 6626.47 622.941 6626.76 626.967 6626.96C627.404 6626.98 627.818 6627.01 628.204 6627.02C628.987 6627.06 629.654 6627.1 630.18 6627.12C630.791 6627.15 631.217 6627.18 631.422 6627.19H631.43C631.944 6627.22 632.378 6627.31 632.739 6627.46C633.563 6627.77 634.029 6628.31 634.262 6628.82C634.262 6628.82 634.262 6628.82 634.262 6628.83C634.334 6628.99 634.386 6629.14 634.418 6629.29C634.443 6629.4 634.455 6629.5 634.459 6629.59L634.463 6629.59Z" fill="#030303"/>
<path d="M601.611 6634.97C601.611 6635.3 601.586 6635.62 601.538 6635.95C601.04 6639.44 597.911 6642.14 594.139 6642.14C593.09 6642.14 592.094 6641.93 591.19 6641.56C590.981 6641.47 590.772 6641.37 590.571 6641.27L590.917 6640.7C591.118 6640.8 591.327 6640.9 591.54 6640.98C592.339 6641.3 593.219 6641.48 594.139 6641.48C597.525 6641.48 600.337 6639.09 600.843 6635.97C600.895 6635.64 600.924 6635.31 600.924 6634.97C600.924 6634.93 600.924 6634.9 600.924 6634.87L601.611 6634.84C601.611 6634.88 601.611 6634.92 601.611 6634.97ZM590.419 6640.41L590.073 6640.98C589.88 6640.86 589.692 6640.73 589.511 6640.6C588.157 6639.57 587.181 6638.1 586.819 6636.42C586.743 6636.05 586.691 6635.68 586.671 6635.29C586.912 6635.32 587.149 6635.34 587.366 6635.35C587.386 6635.73 587.442 6636.1 587.534 6636.45C587.88 6637.88 588.715 6639.12 589.86 6640.01C590.037 6640.16 590.226 6640.29 590.419 6640.41V6640.41Z" fill="#030303"/>
<path d="M591.821 6638.07L591.475 6638.64C591.282 6638.52 591.098 6638.38 590.925 6638.23C590.346 6637.74 589.896 6637.11 589.631 6636.4C589.499 6636.05 589.414 6635.68 589.378 6635.3L590.065 6635.28C590.105 6635.66 590.206 6636.03 590.358 6636.37C590.571 6636.85 590.889 6637.29 591.278 6637.65C591.447 6637.8 591.628 6637.94 591.821 6638.06V6638.07ZM598.734 6634.95C598.73 6635.34 598.674 6635.71 598.57 6636.06C598.027 6637.97 596.203 6639.38 594.046 6639.38C593.556 6639.38 593.086 6639.31 592.64 6639.17C592.419 6639.11 592.202 6639.02 591.997 6638.93L592.347 6638.36C592.556 6638.45 592.773 6638.53 593.002 6638.59C593.335 6638.68 593.689 6638.72 594.05 6638.72C595.818 6638.72 597.316 6637.62 597.846 6636.09C597.967 6635.74 598.039 6635.37 598.047 6634.98L598.734 6634.95Z" fill="#030303"/>
<path d="M591.174 6645.89C591.174 6646.79 590.407 6647.53 589.463 6647.53H582.481C581.541 6647.53 580.773 6646.79 580.773 6645.89C580.773 6644.98 581.541 6644.24 582.481 6644.24H589.463C589.495 6644.24 589.527 6644.24 589.555 6644.25C590.455 6644.29 591.17 6645.01 591.17 6645.88L591.174 6645.89ZM590.487 6645.89C590.487 6645.35 590.029 6644.91 589.467 6644.91H582.485C581.922 6644.91 581.464 6645.35 581.464 6645.89C581.464 6646.43 581.922 6646.87 582.485 6646.87H589.467C590.029 6646.87 590.487 6646.43 590.487 6645.89Z" fill="#030303"/>
<path d="M590.487 6645.89C590.487 6646.43 590.029 6646.87 589.467 6646.87H582.485C581.922 6646.87 581.464 6646.43 581.464 6645.89C581.464 6645.35 581.922 6644.91 582.485 6644.91H589.467C590.029 6644.91 590.487 6645.35 590.487 6645.89Z" fill="#4F4F4F"/>
<path d="M604.23 6623.18C604.157 6623.39 604.085 6623.62 604.017 6623.84H600.349L600.743 6623.18H604.23ZM604.23 6623.18C604.157 6623.39 604.085 6623.62 604.017 6623.84H600.349L600.743 6623.18H604.23ZM604.23 6623.18C604.157 6623.39 604.085 6623.62 604.017 6623.84H600.349L600.743 6623.18H604.23ZM604.23 6623.18C604.157 6623.39 604.085 6623.62 604.017 6623.84H600.349L600.743 6623.18H604.23ZM604.23 6623.18C604.157 6623.39 604.085 6623.62 604.017 6623.84H600.349L600.743 6623.18H604.23ZM604.23 6623.18C604.157 6623.39 604.085 6623.62 604.017 6623.84H600.349L600.743 6623.18H604.23ZM604.23 6623.18C604.157 6623.39 604.085 6623.62 604.017 6623.84H600.349L600.743 6623.18H604.23ZM604.23 6623.18C604.157 6623.39 604.085 6623.62 604.017 6623.84H600.349L600.743 6623.18H604.23ZM604.23 6623.18C604.157 6623.39 604.085 6623.62 604.017 6623.84H600.349L600.743 6623.18H604.23ZM604.23 6623.18C604.157 6623.39 604.085 6623.62 604.017 6623.84H600.349L600.743 6623.18H604.23ZM604.23 6623.18C604.157 6623.39 604.085 6623.62 604.017 6623.84H600.349L600.743 6623.18H604.23ZM598.65 6622.19C598.65 6622.73 599.108 6623.17 599.67 6623.17H604.23C604.157 6623.39 604.085 6623.61 604.017 6623.83H599.67C599.63 6623.83 599.594 6623.83 599.558 6623.82C598.67 6623.77 597.963 6623.06 597.963 6622.19C597.963 6621.32 598.73 6620.54 599.67 6620.54H605.258C605.158 6620.76 605.065 6620.98 604.973 6621.2H599.674C599.112 6621.2 598.654 6621.64 598.654 6622.18L598.65 6622.19ZM607.905 6621.08C607.793 6621.31 607.684 6621.55 607.584 6621.79C607.423 6621.45 607.07 6621.21 606.652 6621.21H606.592C606.688 6621 606.784 6620.78 606.889 6620.57C607.291 6620.62 607.648 6620.81 607.905 6621.08ZM607.046 6623.1C606.953 6623.34 606.869 6623.58 606.78 6623.83C606.736 6623.83 606.692 6623.84 606.648 6623.84H605.571C605.644 6623.62 605.72 6623.39 605.796 6623.18H606.644C606.784 6623.18 606.917 6623.15 607.042 6623.1H607.046ZM604.23 6623.18C604.157 6623.39 604.085 6623.62 604.017 6623.84H600.349L600.743 6623.18H604.23ZM604.23 6623.18C604.157 6623.39 604.085 6623.62 604.017 6623.84H600.349L600.743 6623.18H604.23ZM604.23 6623.18C604.157 6623.39 604.085 6623.62 604.017 6623.84H600.349L600.743 6623.18H604.23ZM604.23 6623.18C604.157 6623.39 604.085 6623.62 604.017 6623.84H600.349L600.743 6623.18H604.23ZM604.23 6623.18C604.157 6623.39 604.085 6623.62 604.017 6623.84H600.349L600.743 6623.18H604.23ZM604.23 6623.18C604.157 6623.39 604.085 6623.62 604.017 6623.84H600.349L600.743 6623.18H604.23ZM604.23 6623.18C604.157 6623.39 604.085 6623.62 604.017 6623.84H600.349L600.743 6623.18H604.23ZM604.23 6623.18C604.157 6623.39 604.085 6623.62 604.017 6623.84H600.349L600.743 6623.18H604.23ZM604.23 6623.18C604.157 6623.39 604.085 6623.62 604.017 6623.84H600.349L600.743 6623.18H604.23ZM604.23 6623.18C604.157 6623.39 604.085 6623.62 604.017 6623.84H600.349L600.743 6623.18H604.23Z" fill="#030303"/>
<path d="M590.929 6638.23L589.864 6640.02C588.719 6639.13 587.884 6637.88 587.538 6636.46C587.643 6636.46 587.739 6636.46 587.828 6636.46C588.049 6636.46 588.205 6636.45 588.261 6636.45L589.635 6636.4C589.9 6637.11 590.35 6637.74 590.929 6638.23Z" fill="#5D5D5D"/>
<path d="M593.568 6635.15L592.893 6636.28L591.821 6638.07L591.479 6638.64L590.419 6640.41L590.073 6640.98L588.125 6644.24L587.739 6644.89L587.141 6644.56L587.333 6644.24L589.515 6640.6L589.86 6640.02L590.929 6638.24L591.278 6637.65L592.082 6636.31L592.757 6635.18L593.568 6635.15Z" fill="#030303"/>
<path d="M603.727 6621.21C603.47 6621.86 603.233 6622.51 603.024 6623.17H599.666C599.104 6623.17 598.646 6622.73 598.646 6622.19C598.646 6621.65 599.104 6621.21 599.666 6621.21H603.727V6621.21Z" fill="#4F4F4F"/>
<path d="M600.739 6623.18L600.345 6623.84L599.276 6625.63L598.638 6626.69C598.373 6626.68 598.115 6626.67 597.866 6626.66L598.509 6625.59L599.558 6623.83L599.951 6623.18H600.743L600.739 6623.18Z" fill="#030303"/>
<path d="M600.843 6635.97C600.337 6639.09 597.525 6641.48 594.139 6641.48C593.219 6641.48 592.339 6641.3 591.539 6640.98L592.64 6639.17C593.086 6639.31 593.556 6639.38 594.046 6639.38C596.203 6639.38 598.027 6637.97 598.569 6636.06L600.843 6635.97V6635.97Z" fill="#4F4F4F"/>
<path d="M593.624 6636.25L592.347 6638.35L591.997 6638.93L590.917 6640.7L590.571 6641.27L588.764 6644.24H588.125L590.073 6640.98L590.419 6640.41L591.479 6638.64L591.821 6638.06L592.893 6636.28L593.624 6636.25Z" fill="#5D5D5D"/>
<path d="M595.127 6635.09L594.44 6636.22L592.998 6638.59L592.64 6639.17L591.543 6640.98L591.19 6641.56L589.555 6644.25L589.258 6644.74L588.663 6644.41L588.764 6644.24L590.571 6641.27L590.917 6640.7L591.997 6638.93L592.347 6638.36L593.624 6636.25L594.311 6635.12L595.127 6635.09Z" fill="#030303"/>
<path d="M604.165 6632.61C604.165 6633.33 604.193 6634.04 604.25 6634.74L601.61 6634.84L600.923 6634.87L598.734 6634.95L598.047 6634.98L595.127 6635.09L594.311 6635.12L593.568 6635.15L592.757 6635.18L590.065 6635.28L589.378 6635.31L588.205 6635.35C588.012 6635.36 587.715 6635.37 587.366 6635.35C587.149 6635.34 586.912 6635.33 586.671 6635.3C585.992 6635.22 585.277 6635.06 584.839 6634.76C584.586 6634.58 584.598 6633.96 584.875 6633.13C585.14 6632.33 585.562 6631.57 586.136 6630.86C586.855 6629.98 588.253 6628.38 589.595 6627.5C591.463 6626.27 593.512 6626.45 593.532 6626.45H593.564C593.64 6626.46 595.287 6626.54 597.858 6626.66C598.107 6626.67 598.365 6626.68 598.63 6626.69C598.883 6626.71 599.14 6626.72 599.409 6626.73C599.662 6626.74 599.919 6626.76 600.18 6626.77C600.787 6626.8 601.426 6626.83 602.088 6626.86C602.466 6626.88 602.848 6626.9 603.241 6626.92C603.727 6626.94 604.226 6626.96 604.732 6626.99C604.354 6628.81 604.161 6630.69 604.161 6632.61H604.165Z" fill="#CE6326"/>
<path d="M601.173 6623.83L600.064 6625.66C599.795 6625.65 599.534 6625.63 599.276 6625.62L600.345 6623.83H601.173V6623.83Z" fill="#5D5D5D"/>
<path d="M602.012 6623.76L601.968 6623.83L600.835 6625.69L600.184 6626.77C599.919 6626.76 599.666 6626.74 599.413 6626.73L600.064 6625.66L601.173 6623.83L601.418 6623.43L602.012 6623.77V6623.76Z" fill="#030303"/>
<path d="M602.763 6589.54L602.671 6589.92L594.303 6625.38L594.155 6626.02L593.034 6625.78L593.138 6625.34H593.142L593.813 6622.48L594.09 6621.3L594.416 6619.93L594.689 6618.77L601.526 6589.79L601.647 6589.29L602.763 6589.54Z" fill="#030303"/>
<path d="M605.162 6589.71L605.049 6590.17L602.763 6599.57L602.502 6600.65L602.101 6602.31L601.835 6603.39L596.464 6625.49L596.328 6626.06L595.211 6625.81L595.303 6625.43L603.9 6590.05L604.045 6589.46L605.162 6589.71Z" fill="#030303"/>
<path d="M615.032 6587.81C614.333 6589.3 612.742 6589.86 611.975 6590.12C611.083 6590.43 610.259 6590.52 609.54 6590.52C609.078 6590.52 608.665 6590.48 608.299 6590.45C607.013 6590.35 605.953 6590.25 605.053 6590.17C604.639 6590.13 604.258 6590.09 603.904 6590.05C603.454 6590.01 603.053 6589.96 602.675 6589.92C602.261 6589.88 601.888 6589.83 601.53 6589.79C601.357 6589.77 601.189 6589.75 601.024 6589.73C600.598 6589.68 600.184 6589.63 599.742 6589.59L599.068 6589.51C596.432 6589.23 594.689 6589.04 593.701 6587.8C593.484 6587.53 592.905 6586.81 592.998 6585.83C593.01 6585.72 593.122 6584.73 593.922 6584.15C594.351 6583.83 594.837 6583.72 595.336 6583.72C595.886 6583.72 596.452 6583.85 596.987 6583.97C597.091 6584 597.2 6584.02 597.304 6584.05C597.324 6584.05 599.24 6584.46 602.101 6584.46H602.109C603.286 6584.46 605.226 6583.95 609.094 6582.93L609.689 6582.77C611.665 6582.25 612.328 6582.07 613.204 6582.48C614.996 6583.32 615.899 6585.96 615.036 6587.8L615.032 6587.81ZM612.698 6583.47C612.232 6583.25 611.826 6583.34 609.994 6583.83L609.396 6583.99C605.431 6585.04 603.438 6585.56 602.105 6585.56H602.096C599.096 6585.56 597.127 6585.14 597.043 6585.12C596.934 6585.09 596.826 6585.07 596.713 6585.04C595.874 6584.85 595.087 6584.67 594.613 6585.02C594.195 6585.32 594.134 6585.91 594.13 6585.92C594.078 6586.48 594.432 6586.92 594.6 6587.13C595.295 6587.99 596.842 6588.16 599.188 6588.42L599.867 6588.49C600.309 6588.54 600.727 6588.59 601.156 6588.64C602.763 6588.82 604.583 6589.04 608.395 6589.35C609.267 6589.42 610.356 6589.51 611.585 6589.08C612.248 6588.85 613.485 6588.42 613.987 6587.35C614.658 6585.93 613.823 6583.99 612.698 6583.46V6583.47Z" fill="#030303"/>
<path d="M613.987 6587.36C613.485 6588.43 612.248 6588.85 611.585 6589.09C610.356 6589.52 609.271 6589.43 608.395 6589.36C604.587 6589.05 602.763 6588.83 601.156 6588.65C600.727 6588.59 600.309 6588.54 599.867 6588.5L599.188 6588.43C596.842 6588.17 595.295 6588 594.6 6587.14C594.432 6586.92 594.082 6586.49 594.13 6585.93C594.13 6585.92 594.195 6585.33 594.613 6585.02C595.087 6584.68 595.874 6584.86 596.714 6585.05C596.822 6585.07 596.93 6585.1 597.043 6585.12C597.127 6585.14 599.096 6585.57 602.096 6585.57H602.105C603.434 6585.57 605.427 6585.04 609.396 6584L609.994 6583.84C611.826 6583.35 612.232 6583.26 612.698 6583.48C613.823 6584 614.658 6585.94 613.987 6587.36V6587.36Z" fill="#7C5039"/>
<path d="M603.9 6590.05L595.303 6625.43C594.906 6625.41 594.568 6625.4 594.307 6625.38L602.675 6589.92C603.053 6589.96 603.454 6590.01 603.904 6590.05H603.9Z" fill="#CE6326"/>
<path d="M594.785 6621.8L594.098 6622.68L593.813 6622.48L556.731 6595.86L555.795 6595.18L556.478 6594.3L557.096 6594.75L594.09 6621.3L594.785 6621.8Z" fill="#030303"/>
<path d="M595.484 6619.32L594.805 6620.21L594.416 6619.93L557.414 6593.78L556.654 6593.24L557.333 6592.35L557.779 6592.67L594.689 6618.76L595.484 6619.32Z" fill="#030303"/>
<path d="M614.477 6610.77C611.28 6613.47 608.677 6616.81 606.885 6620.57C606.785 6620.78 606.684 6621 606.588 6621.21C606.302 6621.86 606.037 6622.51 605.8 6623.18C605.724 6623.39 605.648 6623.62 605.575 6623.84C605.35 6624.51 605.154 6625.2 604.981 6625.9C604.471 6625.88 603.969 6625.85 603.478 6625.83C603.631 6625.15 603.812 6624.49 604.013 6623.84C604.081 6623.61 604.153 6623.39 604.226 6623.18C604.451 6622.51 604.696 6621.86 604.965 6621.21C605.057 6620.99 605.15 6620.77 605.25 6620.55C607.09 6616.42 609.858 6612.77 613.276 6609.82C613.678 6610.13 614.08 6610.45 614.473 6610.77H614.477Z" fill="#CE6326"/>
<path d="M628.232 6627.01L628.204 6627.02L627.176 6627.44C627.107 6627.28 627.035 6627.12 626.967 6626.96C624.93 6622.43 622.114 6618.28 618.687 6614.68C618.225 6614.19 617.751 6613.71 617.265 6613.24C616.643 6612.64 616.008 6612.06 615.353 6611.5C615.068 6611.25 614.775 6611.01 614.481 6610.77C614.088 6610.45 613.69 6610.13 613.284 6609.82C612.967 6609.57 612.646 6609.34 612.324 6609.1C609.118 6606.78 605.599 6604.85 601.839 6603.39C601.647 6603.32 601.454 6603.24 601.261 6603.17L601.675 6602.14C601.815 6602.2 601.96 6602.25 602.105 6602.31C606.094 6603.83 609.826 6605.89 613.208 6608.36C613.533 6608.6 613.855 6608.84 614.172 6609.09C614.578 6609.4 614.98 6609.72 615.373 6610.05C615.666 6610.29 615.956 6610.54 616.245 6610.79C616.9 6611.35 617.538 6611.94 618.157 6612.54C618.647 6613.01 619.121 6613.49 619.583 6613.98C623.195 6617.8 626.143 6622.2 628.236 6627.01H628.232Z" fill="#030303"/>
<path d="M628.204 6627.02L628.232 6627.01C626.139 6622.2 623.191 6617.8 619.579 6613.98C619.117 6613.49 618.639 6613.01 618.153 6612.54C617.534 6611.94 616.896 6611.35 616.241 6610.78C615.952 6610.54 615.662 6610.29 615.369 6610.05C614.975 6609.72 614.574 6609.4 614.168 6609.09C613.851 6608.84 613.529 6608.6 613.204 6608.36C609.826 6605.89 606.09 6603.84 602.101 6602.31L602.502 6600.65C606.953 6602.19 611.099 6604.4 614.815 6607.13C615.144 6607.37 615.47 6607.61 615.787 6607.86C616.201 6608.18 616.61 6608.51 617.012 6608.84C617.309 6609.09 617.603 6609.34 617.892 6609.6C618.551 6610.17 619.194 6610.77 619.82 6611.38C620.306 6611.86 620.784 6612.35 621.246 6612.85C625.107 6617 628.168 6621.83 630.184 6627.11C629.654 6627.09 628.987 6627.05 628.208 6627.01L628.204 6627.02Z" fill="#CE6326"/>
<path d="M663.687 6620.54C663.667 6620.6 663.627 6620.66 663.483 6620.71C662.723 6620.99 662.173 6620.66 661.972 6620.52C657.184 6610.51 646.643 6603.54 634.443 6603.54C628.389 6603.54 622.745 6605.26 618.008 6608.2C617.607 6607.86 617.193 6607.53 616.779 6607.2C621.901 6603.87 628.047 6601.94 634.559 6601.94C646.651 6601.94 657.899 6608.64 663.213 6619.01L663.242 6619.06C663.495 6619.45 663.816 6620.19 663.691 6620.54L663.687 6620.54Z" fill="#CE6326"/>
<path d="M631.522 6627.46L630.442 6627.82C630.357 6627.59 630.269 6627.35 630.184 6627.13C628.168 6621.84 625.107 6617.01 621.246 6612.86C620.78 6612.36 620.306 6611.87 619.82 6611.39C619.194 6610.78 618.551 6610.19 617.892 6609.61C617.603 6609.35 617.309 6609.1 617.012 6608.86C616.61 6608.52 616.205 6608.19 615.787 6607.88C615.466 6607.62 615.14 6607.38 614.815 6607.14C611.103 6604.4 606.953 6602.2 602.502 6600.66C602.281 6600.58 602.056 6600.5 601.831 6600.43L602.205 6599.39C602.39 6599.45 602.579 6599.52 602.763 6599.58C607.435 6601.18 611.854 6603.52 615.795 6606.46C616.124 6606.7 616.454 6606.95 616.775 6607.2C617.193 6607.53 617.603 6607.87 618.004 6608.21C618.302 6608.45 618.599 6608.71 618.888 6608.97C619.342 6609.37 619.784 6609.78 620.218 6610.19C620.423 6610.39 620.624 6610.59 620.82 6610.78C621.311 6611.27 621.785 6611.76 622.251 6612.27C626.264 6616.63 629.405 6621.74 631.418 6627.19C631.454 6627.28 631.486 6627.38 631.518 6627.47L631.522 6627.46Z" fill="#030303"/>
<path d="M575.547 6632.86C575.547 6635.3 575.25 6637.73 574.663 6640.08C574.591 6640.25 574.057 6641.46 573.338 6641.32C572.683 6641.19 572.739 6639.98 572.759 6639.69C573.273 6637.57 573.547 6635.36 573.547 6633.09C573.547 6620.49 565.167 6609.75 553.485 6605.72C553.702 6605.06 553.919 6604.4 554.132 6603.75C566.597 6608 575.547 6619.45 575.547 6632.86Z" fill="#CE6326"/>
<path d="M550.906 6602.83C550.685 6603.5 550.472 6604.16 550.263 6604.8C548.022 6604.29 545.675 6604.02 543.273 6604.02C535.219 6604.02 527.888 6607.05 522.46 6611.99L522.44 6611.94C521.263 6612.32 520.058 6612.4 519.893 6612.2C519.721 6611.98 520.215 6611.39 520.524 6611.13L520.56 6611.1C526.646 6605.22 534.749 6601.98 543.382 6601.98C545.973 6601.98 548.492 6602.27 550.902 6602.83H550.906Z" fill="#CE6326"/>
<path d="M559.454 6583.77C559.434 6583.89 559.394 6584.08 559.302 6584.36C559.153 6584.84 556.486 6592.94 553.388 6602.35C553.272 6602.7 553.159 6603.05 553.043 6603.4C552.826 6604.05 552.613 6604.71 552.396 6605.36C552.28 6605.71 552.163 6606.06 552.051 6606.41C551.786 6607.21 551.525 6608.01 551.259 6608.81C551.05 6609.45 550.846 6610.07 550.637 6610.7C548.018 6618.67 545.515 6626.26 544.314 6629.91C544.008 6629.82 543.683 6629.77 543.342 6629.76C544.229 6626.99 546.744 6619.26 549.628 6610.42C549.833 6609.8 550.038 6609.16 550.247 6608.53C550.504 6607.73 550.765 6606.93 551.03 6606.12C551.147 6605.77 551.259 6605.43 551.372 6605.07C551.589 6604.42 551.802 6603.76 552.015 6603.11C552.131 6602.76 552.244 6602.41 552.36 6602.06C554.525 6595.42 556.683 6588.81 558.358 6583.69L558.374 6583.63C558.386 6583.58 558.426 6583.5 558.462 6583.48C558.49 6583.46 558.579 6583.46 558.747 6583.52L559.45 6583.77L559.454 6583.77Z" fill="#CE6326"/>
<path d="M594.416 6619.94L594.094 6621.3L557.096 6594.75C557.205 6594.42 557.313 6594.1 557.414 6593.78L594.416 6619.94Z" fill="#CE6326"/>
<path d="M560.398 6584.68C560.306 6584.98 559.274 6588.12 557.779 6592.67C557.659 6593.03 557.538 6593.39 557.414 6593.78C557.309 6594.09 557.205 6594.42 557.096 6594.75C556.976 6595.11 556.855 6595.49 556.731 6595.86C556.028 6597.98 555.269 6600.3 554.477 6602.7C554.361 6603.05 554.248 6603.4 554.132 6603.75C553.919 6604.4 553.702 6605.06 553.485 6605.72C553.368 6606.07 553.252 6606.42 553.139 6606.77C552.874 6607.57 552.613 6608.37 552.348 6609.17C552.139 6609.8 551.934 6610.43 551.725 6611.06C549.512 6617.78 547.387 6624.24 546.049 6628.3C545.784 6629.11 545.547 6629.82 545.35 6630.42C545.27 6630.66 545.198 6630.88 545.129 6631.09C544.88 6631.85 544.715 6632.34 544.663 6632.51L543.8 6632.25L543.571 6632.18C543.579 6632.16 543.615 6632.05 543.675 6631.86C543.731 6631.68 543.816 6631.43 543.916 6631.13C543.972 6630.96 544.037 6630.77 544.105 6630.56C544.169 6630.36 544.241 6630.15 544.314 6629.92C545.515 6626.27 548.018 6618.67 550.637 6610.71C550.846 6610.08 551.05 6609.45 551.259 6608.82C551.525 6608.02 551.786 6607.22 552.051 6606.42C552.167 6606.07 552.28 6605.72 552.396 6605.37C552.613 6604.71 552.826 6604.06 553.043 6603.41C553.16 6603.06 553.272 6602.71 553.388 6602.36C556.486 6592.95 559.153 6584.85 559.302 6584.37C559.39 6584.09 559.434 6583.9 559.454 6583.78L558.751 6583.52C558.583 6583.46 558.494 6583.47 558.466 6583.48C558.426 6583.5 558.39 6583.59 558.378 6583.63L558.362 6583.7C556.687 6588.82 554.529 6595.42 552.364 6602.06C552.248 6602.41 552.135 6602.76 552.019 6603.11C551.806 6603.77 551.593 6604.42 551.376 6605.08C551.263 6605.43 551.151 6605.78 551.034 6606.13C550.769 6606.93 550.508 6607.74 550.251 6608.54C550.042 6609.17 549.837 6609.8 549.632 6610.43C546.748 6619.27 544.233 6626.99 543.346 6629.77C543.281 6629.97 543.225 6630.15 543.177 6630.3C543.076 6630.61 543.02 6630.8 543.004 6630.85L542.51 6630.73H541.871C541.871 6630.71 541.871 6630.68 541.984 6630.32C542.012 6630.22 542.048 6630.11 542.092 6629.96C542.197 6629.63 542.349 6629.14 542.582 6628.44C543.366 6625.99 545.021 6620.88 548.52 6610.16C548.721 6609.55 548.925 6608.92 549.138 6608.27C549.391 6607.49 549.653 6606.68 549.922 6605.85C550.038 6605.51 550.151 6605.16 550.267 6604.8C550.476 6604.16 550.693 6603.51 550.91 6602.83C551.022 6602.48 551.135 6602.14 551.255 6601.78C552.939 6596.63 554.923 6590.55 557.265 6583.39C557.305 6583.23 557.45 6582.77 557.904 6582.52C558.048 6582.44 558.253 6582.37 558.526 6582.37C558.711 6582.37 558.924 6582.4 559.165 6582.48L559.205 6582.5L560.029 6582.79L560.113 6582.82C560.246 6582.86 560.362 6582.93 560.455 6583.04C560.511 6583.1 560.551 6583.18 560.579 6583.26C560.684 6583.56 560.627 6583.99 560.414 6584.67L560.398 6584.68Z" fill="#030303"/>
<path d="M569.28 6574.03C568.208 6574.23 564.853 6575.09 562.608 6578.13C561.065 6580.22 560.242 6581.82 559.82 6582.8L558.996 6582.5C559.278 6581.63 560.089 6579.31 561.041 6578.29C561.146 6578.18 561.198 6578.03 561.182 6577.88C561.166 6577.72 561.085 6577.59 560.957 6577.49C560.483 6577.15 558.904 6575.98 558.587 6575.09C558.526 6574.92 558.45 6574.74 558.37 6574.55C557.896 6573.41 557.361 6572.12 558.563 6570.57C559.591 6569.25 560.499 6568.32 560.949 6567.88C560.993 6567.83 561.045 6567.83 561.073 6567.83C561.101 6567.83 561.15 6567.83 561.194 6567.88L561.708 6568.44C561.728 6568.46 561.732 6568.49 561.732 6568.5C561.732 6568.52 561.724 6568.54 561.696 6568.57C560.945 6569.18 558.912 6571.24 559.004 6572.43C559.105 6573.75 559.362 6575.05 561.359 6576.42C561.736 6576.68 562.25 6576.62 562.56 6576.29C563.218 6575.58 565.183 6573.86 569.2 6573.2L569.264 6574.03H569.28Z" fill="#4F4F4F"/>
<path d="M569.971 6574.04C569.995 6574.34 569.778 6574.61 569.469 6574.66C569.457 6574.66 569.449 6574.67 569.441 6574.67C568.465 6574.85 565.291 6575.64 563.174 6578.51C561.547 6580.71 560.744 6582.36 560.374 6583.27C560.169 6583.76 560.101 6584.03 560.097 6584.04L559.43 6583.89C559.438 6583.85 559.535 6583.48 559.828 6582.8C560.246 6581.82 561.073 6580.22 562.616 6578.12C564.861 6575.08 568.216 6574.22 569.288 6574.02L569.224 6573.19C565.207 6573.86 563.243 6575.57 562.584 6576.28C562.274 6576.62 561.756 6576.67 561.383 6576.42C559.386 6575.05 559.129 6573.75 559.029 6572.43C558.94 6571.24 560.973 6569.18 561.72 6568.56C561.748 6568.54 561.752 6568.51 561.756 6568.5C561.756 6568.48 561.756 6568.46 561.732 6568.43L561.218 6567.87C561.174 6567.83 561.126 6567.82 561.097 6567.82C561.069 6567.82 561.017 6567.82 560.973 6567.87C560.523 6568.31 559.611 6569.24 558.587 6570.56C557.386 6572.11 557.92 6573.4 558.394 6574.54C558.47 6574.74 558.547 6574.92 558.611 6575.09C558.928 6575.98 560.507 6577.15 560.981 6577.49C561.109 6577.58 561.19 6577.72 561.206 6577.87C561.222 6578.02 561.17 6578.17 561.065 6578.28C560.113 6579.3 559.302 6581.62 559.021 6582.5C558.952 6582.71 558.916 6582.84 558.912 6582.85L558.249 6582.67C558.257 6582.65 558.285 6582.54 558.342 6582.37C558.611 6581.52 559.426 6579.14 560.463 6577.94C559.752 6577.43 558.314 6576.29 557.964 6575.31C557.904 6575.15 557.831 6574.97 557.759 6574.79C557.273 6573.62 556.61 6572.02 558.044 6570.17C559.097 6568.82 560.029 6567.86 560.491 6567.41C560.66 6567.25 560.889 6567.16 561.122 6567.17C561.138 6567.17 561.158 6567.17 561.174 6567.17C561.391 6567.19 561.596 6567.29 561.74 6567.44L561.857 6567.57L562.254 6568C562.299 6568.05 562.339 6568.11 562.371 6568.17C562.431 6568.28 562.463 6568.41 562.451 6568.55C562.443 6568.68 562.399 6568.8 562.331 6568.9C562.291 6568.97 562.238 6569.02 562.178 6569.07C561.154 6569.91 559.671 6571.67 559.728 6572.38C559.82 6573.63 560.033 6574.68 561.796 6575.89C561.885 6575.95 562.013 6575.94 562.086 6575.86C562.797 6575.09 564.906 6573.24 569.16 6572.54C569.164 6572.54 569.168 6572.54 569.168 6572.54C569.18 6572.54 569.196 6572.54 569.208 6572.53C569.377 6572.51 569.55 6572.55 569.686 6572.65C569.803 6572.74 569.879 6572.86 569.907 6572.99C569.911 6573.02 569.915 6573.04 569.919 6573.07L569.991 6573.99V6574.04L569.971 6574.04Z" fill="#030303"/>
<path d="M570.072 6564.88C569.433 6565.22 563.849 6567.54 562.351 6568.16C562.323 6568.11 562.282 6568.05 562.234 6568L561.837 6567.57L569.168 6563.73C569.333 6563.67 569.791 6563.54 570.06 6563.65C570.148 6563.69 570.2 6563.74 570.24 6563.83L570.249 6563.86C570.455 6564.36 570.396 6564.7 570.072 6564.87V6564.88Z" fill="#4F4F4F"/>
<path d="M570.401 6565.46C569.662 6565.85 563.034 6568.6 562.307 6568.9C562.282 6568.91 562.262 6568.92 562.25 6568.92L561.977 6568.32C561.977 6568.32 562.118 6568.26 562.347 6568.17C563.845 6567.54 569.429 6565.22 570.068 6564.88C570.394 6564.71 570.453 6564.37 570.244 6563.86L570.236 6563.84C570.196 6563.74 570.144 6563.69 570.056 6563.65C569.787 6563.54 569.325 6563.67 569.164 6563.74L561.833 6567.57L561.395 6567.8L561.065 6567.22L561.15 6567.17L568.883 6563.13C568.967 6563.1 569.726 6562.8 570.321 6563.04C570.578 6563.15 570.771 6563.34 570.875 6563.59L570.887 6563.62C571.193 6564.37 571.413 6564.91 570.397 6565.45L570.401 6565.46Z" fill="#030303"/>
<path d="M579.797 6572.59C579.769 6573.4 579.753 6573.41 579.359 6573.5C578.97 6573.58 573.735 6573.82 569.967 6573.99L569.895 6573.07C569.895 6573.04 569.887 6573.01 569.883 6572.99C570.895 6572.69 573.579 6572.09 579.082 6571.97H579.11C579.203 6571.96 579.488 6571.97 579.645 6572.11C579.753 6572.21 579.801 6572.37 579.797 6572.59V6572.59Z" fill="#4F4F4F"/>
<path d="M580.484 6572.61C580.444 6573.76 580.247 6573.97 579.532 6574.14C579.006 6574.26 571.076 6574.6 569.441 6574.67H569.421L569.393 6574.01C569.582 6574 569.771 6573.99 569.967 6573.99C573.731 6573.83 578.97 6573.58 579.359 6573.5C579.753 6573.41 579.769 6573.4 579.797 6572.59C579.805 6572.37 579.753 6572.21 579.645 6572.11C579.484 6571.97 579.203 6571.96 579.11 6571.97H579.082C573.579 6572.09 570.895 6572.69 569.883 6572.99C569.546 6573.09 569.393 6573.15 569.389 6573.16L569.092 6572.56C569.092 6572.56 569.112 6572.55 569.136 6572.54C569.14 6572.54 569.144 6572.54 569.144 6572.54C569.534 6572.38 572.04 6571.47 579.05 6571.31C579.171 6571.3 579.713 6571.28 580.111 6571.63C580.291 6571.79 580.504 6572.09 580.484 6572.61Z" fill="#030303"/>
<path d="M536.806 6610.24L544.06 6632.94L543.157 6633.21L535.903 6610.51L536.806 6610.24Z" fill="#030303"/>
<path d="M541.939 6633.58L542.66 6634.16L527.602 6651.32L526.88 6650.73L541.939 6633.58Z" fill="#030303"/>
<path d="M565.84 6622.19L566.282 6622.99L546.4 6633.12L545.957 6632.32L565.84 6622.19Z" fill="#030303"/>
<path d="M545.937 6633.7L568.56 6637.52L568.397 6638.41L545.774 6634.59L545.937 6633.7Z" fill="#030303"/>
<path d="M544.441 6634.07L565.696 6643.31L565.306 6644.14L544.052 6634.9L544.441 6634.07Z" fill="#030303"/>
<path d="M544.066 6632.96L549.964 6655.84L549.048 6656.05L543.149 6633.18L544.066 6632.96Z" fill="#030303"/>
<path d="M519.98 6623.37L541.074 6632.17L540.698 6633L519.604 6624.2L519.98 6623.37Z" fill="#030303"/>
<path d="M629.329 6609.12L634.869 6630.99L633.952 6631.21L628.411 6609.33L629.329 6609.12Z" fill="#030303"/>
<path d="M651.283 6614.16L651.991 6614.76L636.826 6631.27L636.118 6630.67L651.283 6614.16Z" fill="#030303"/>
<path d="M658.201 6624.59L658.525 6625.45L637.103 6632.96L636.779 6632.11L658.201 6624.59Z" fill="#030303"/>
<path d="M636.603 6634.36L656.918 6644.67L656.477 6645.47L636.162 6635.17L636.603 6634.36Z" fill="#030303"/>
<path d="M635.892 6635.68L640.026 6656.5L639.098 6656.67L634.964 6635.85L635.892 6635.68Z" fill="#030303"/>
<path d="M633.705 6635.34L634.453 6635.89L620.717 6652.97L619.969 6652.42L633.705 6635.34Z" fill="#030303"/>
<path d="M632.724 6634.7L633.309 6635.42L615.523 6648.9L614.938 6648.19L632.724 6634.7Z" fill="#030303"/>
<path d="M543.462 6632.64L543.758 6633.5L519.759 6641.1L519.463 6640.24L543.462 6632.64Z" fill="#030303"/>
<path d="M360.468 6662.63C364.967 6662.63 372.547 6662.61 382.16 6662.54C382.193 6662.54 385.455 6662.47 387.278 6660.96C389.022 6659.52 389.648 6656.58 387.367 6653.97C387.294 6653.89 385.679 6652.15 383.57 6652.11C382.783 6652.1 382.032 6652.32 381.337 6652.78C381.538 6650.86 381.57 6646.88 378.742 6645.44C375.195 6643.63 372.853 6644.48 372.503 6644.63C372.122 6644.73 369.498 6645.49 368.695 6648.06C367.763 6646.92 365.674 6645.03 362.235 6645.25C360.978 6645.33 359.978 6645.8 359.271 6646.65C358.074 6648.09 358.029 6650.22 358.098 6651.29C356.82 6650.87 353.912 6650.14 351.803 6651.35C350.477 6652.1 349.714 6653.47 349.533 6655.42C349.32 6657.67 349.834 6659.45 351.056 6660.71C352.912 6662.62 355.707 6662.62 355.888 6662.61C355.989 6662.61 357.608 6662.62 360.468 6662.62V6662.63ZM383.502 6652.9C383.502 6652.9 383.534 6652.9 383.55 6652.9C385.29 6652.93 386.728 6654.47 386.74 6654.49C388.672 6656.7 388.182 6659.16 386.74 6660.36C385.165 6661.66 382.185 6661.74 382.152 6661.74C366.305 6661.86 355.989 6661.82 355.888 6661.82H355.88C355.852 6661.82 353.277 6661.84 351.658 6660.16C350.606 6659.08 350.168 6657.5 350.357 6655.48C350.513 6653.81 351.144 6652.65 352.225 6652.03C354.575 6650.69 358.371 6652.23 358.411 6652.25C358.548 6652.31 358.708 6652.29 358.829 6652.2C358.949 6652.11 359.01 6651.97 358.986 6651.82C358.981 6651.79 358.528 6648.81 359.921 6647.14C360.48 6646.48 361.279 6646.11 362.296 6646.04C366.602 6645.77 368.47 6649.1 368.546 6649.25C368.631 6649.4 368.811 6649.49 368.988 6649.45C369.169 6649.42 369.302 6649.28 369.322 6649.1C369.651 6646.11 372.612 6645.41 372.736 6645.39C372.764 6645.38 372.796 6645.37 372.825 6645.35C372.845 6645.35 374.986 6644.42 378.356 6646.14C381.526 6647.75 380.385 6653.63 380.373 6653.69C380.337 6653.86 380.425 6654.03 380.59 6654.12C380.754 6654.2 380.951 6654.16 381.08 6654.03C381.823 6653.28 382.639 6652.9 383.502 6652.9V6652.9Z" fill="#030303"/>
<path d="M364.838 6662.45C364.903 6662.45 364.963 6662.43 365.023 6662.41C365.228 6662.31 365.308 6662.07 365.208 6661.87L362.4 6656.52L363.617 6651.77C363.674 6651.55 363.537 6651.34 363.316 6651.29C363.095 6651.23 362.87 6651.36 362.818 6651.58L361.564 6656.47C361.54 6656.56 361.552 6656.66 361.597 6656.75L364.473 6662.23C364.545 6662.37 364.69 6662.45 364.842 6662.45L364.838 6662.45Z" fill="#030303"/>
<path d="M361.962 6656.89C362.127 6656.89 362.284 6656.8 362.348 6656.64C362.428 6656.43 362.324 6656.21 362.111 6656.13L359.451 6655.15C359.238 6655.08 359.001 6655.18 358.917 6655.38C358.837 6655.59 358.941 6655.81 359.154 6655.89L361.813 6656.87C361.862 6656.88 361.91 6656.89 361.962 6656.89Z" fill="#030303"/>
<path d="M376.645 6662.36C376.786 6662.36 376.922 6662.29 376.998 6662.17C377.055 6662.08 377.071 6661.98 377.047 6661.88C377.031 6661.31 377.493 6655.78 377.814 6652.15C377.834 6651.93 377.665 6651.75 377.436 6651.73C377.211 6651.71 377.011 6651.87 376.99 6652.09C376.99 6652.11 376.774 6654.57 376.573 6656.99C376.456 6658.42 376.364 6659.56 376.308 6660.38C376.222 6661.57 376.263 6662.21 376.432 6662.31C376.5 6662.35 376.573 6662.37 376.645 6662.37V6662.36Z" fill="#030303"/>
<path d="M376.858 6656.24C376.954 6656.24 377.051 6656.21 377.131 6656.15C377.304 6656.01 377.32 6655.75 377.171 6655.59L372.784 6650.77C372.636 6650.6 372.375 6650.59 372.202 6650.73C372.029 6650.87 372.013 6651.12 372.162 6651.29L376.548 6656.11C376.629 6656.2 376.745 6656.24 376.858 6656.24Z" fill="#030303"/>
<path d="M377.067 6659.32C377.151 6659.32 377.235 6659.3 377.308 6659.25L379.714 6657.59C379.899 6657.46 379.943 6657.21 379.806 6657.03C379.674 6656.85 379.417 6656.81 379.228 6656.94L376.822 6658.6C376.637 6658.73 376.593 6658.98 376.729 6659.16C376.81 6659.27 376.938 6659.33 377.067 6659.33V6659.32Z" fill="#030303"/>
<path d="M370.824 6662.28C370.88 6662.28 370.937 6662.27 370.989 6662.25C371.198 6662.16 371.294 6661.93 371.202 6661.73L367.783 6654.23C367.691 6654.03 367.45 6653.94 367.241 6654.03C367.032 6654.12 366.936 6654.35 367.028 6654.55L370.447 6662.04C370.515 6662.19 370.667 6662.28 370.824 6662.28Z" fill="#030303"/>
<path d="M368.631 6657.01C368.767 6657.01 368.9 6656.95 368.98 6656.83L370.543 6654.48C370.667 6654.29 370.611 6654.05 370.418 6653.93C370.225 6653.81 369.972 6653.87 369.848 6654.05L368.285 6656.4C368.161 6656.58 368.217 6656.83 368.41 6656.95C368.478 6656.99 368.554 6657.01 368.631 6657.01V6657.01Z" fill="#030303"/>
<path d="M370.189 6660.55C370.35 6660.55 370.503 6660.46 370.567 6660.31L371.539 6658.15C371.632 6657.95 371.535 6657.72 371.322 6657.63C371.113 6657.55 370.868 6657.64 370.78 6657.84L369.808 6659.99C369.715 6660.2 369.812 6660.43 370.025 6660.52C370.077 6660.54 370.133 6660.55 370.189 6660.55Z" fill="#030303"/>
<path d="M278.982 6662.54H307.283C309.998 6662.54 312.581 6661.35 314.2 6659.35C315.313 6657.97 315.735 6656.64 315.45 6655.39C314.723 6652.2 310.384 6650.86 309.115 6650.53C309.123 6650.01 309.054 6648.96 308.52 6647.76C307.837 6646.21 306.226 6644.1 302.438 6642.83C299.441 6641.82 296.276 6642.07 293.279 6643.55C291.805 6644.28 290.716 6645.13 290.126 6645.65C289.607 6644.51 287.828 6642.46 281.798 6642.86C279.556 6643 277.938 6643.78 276.977 6645.16C275.507 6647.28 276.037 6650.2 276.363 6651.44C274.009 6651.25 272.097 6651.89 272.008 6651.92C271.699 6652.02 269.072 6653.02 270.229 6657.45C270.747 6659.43 272.342 6660.95 274.836 6661.85C276.122 6662.31 277.516 6662.54 278.982 6662.54ZM298.787 6643.02C299.851 6643.02 300.984 6643.18 302.165 6643.58C308.805 6645.81 308.299 6650.59 308.275 6650.79C308.251 6650.99 308.388 6651.18 308.596 6651.23C308.649 6651.24 313.923 6652.39 314.642 6655.56C314.871 6656.57 314.502 6657.68 313.546 6658.86C312.083 6660.66 309.741 6661.74 307.279 6661.74H278.978C277.612 6661.74 276.315 6661.53 275.121 6661.1C273.567 6660.54 271.594 6659.42 271.028 6657.25C270.012 6653.36 272.169 6652.7 272.261 6652.68C272.269 6652.68 272.281 6652.67 272.285 6652.67C272.305 6652.66 274.447 6651.95 276.865 6652.29C277.006 6652.32 277.15 6652.26 277.243 6652.15C277.335 6652.05 277.363 6651.9 277.319 6651.77C277.307 6651.73 276.013 6647.97 277.664 6645.6C278.472 6644.43 279.882 6643.78 281.85 6643.64C289.057 6643.17 289.495 6646.29 289.511 6646.42C289.527 6646.58 289.639 6646.71 289.792 6646.76C289.945 6646.81 290.118 6646.77 290.226 6646.65C290.266 6646.61 293.789 6643.01 298.783 6643.01L298.787 6643.02Z" fill="#030303"/>
<path d="M300.052 6662.54C300.229 6662.54 300.393 6662.43 300.446 6662.26L303.595 6652.12C303.659 6651.91 303.535 6651.69 303.318 6651.63C303.101 6651.57 302.868 6651.69 302.804 6651.89L299.654 6662.03C299.59 6662.24 299.714 6662.46 299.931 6662.53C299.972 6662.54 300.012 6662.54 300.048 6662.54H300.052Z" fill="#030303"/>
<path d="M301.253 6658.67C301.297 6658.67 301.346 6658.66 301.39 6658.65C301.607 6658.57 301.719 6658.35 301.643 6658.14L297.855 6647.8C297.778 6647.59 297.541 6647.48 297.328 6647.56C297.112 6647.63 296.999 6647.86 297.075 6648.06L300.864 6658.4C300.924 6658.57 301.085 6658.67 301.253 6658.67Z" fill="#030303"/>
<path d="M289.76 6662.54C289.78 6662.54 289.804 6662.54 289.824 6662.54C290.049 6662.5 290.202 6662.3 290.166 6662.08L287.86 6648.27C287.824 6648.05 287.611 6647.91 287.386 6647.94C287.161 6647.98 287.008 6648.18 287.044 6648.4L289.35 6662.21C289.382 6662.4 289.559 6662.54 289.756 6662.54L289.76 6662.54Z" fill="#030303"/>
<path d="M288.997 6657.97C289.101 6657.97 289.202 6657.94 289.282 6657.86L292.689 6654.72C292.853 6654.57 292.857 6654.32 292.701 6654.16C292.544 6654.01 292.283 6654 292.118 6654.15L288.712 6657.29C288.547 6657.44 288.543 6657.69 288.7 6657.85C288.78 6657.93 288.888 6657.97 288.997 6657.97Z" fill="#030303"/>
<path d="M288.334 6654.01C288.475 6654.01 288.611 6653.95 288.688 6653.82C288.804 6653.63 288.74 6653.39 288.543 6653.28L281.923 6649.5C281.726 6649.39 281.473 6649.45 281.356 6649.64C281.24 6649.83 281.304 6650.07 281.501 6650.18L288.121 6653.96C288.185 6654 288.262 6654.01 288.33 6654.01H288.334Z" fill="#030303"/>
<path d="M375.733 6651.92C375.821 6651.89 377.734 6651.25 380.088 6651.44C379.762 6650.2 379.232 6647.28 380.702 6645.16C381.662 6643.78 383.281 6643 385.523 6642.85C391.553 6642.46 393.332 6644.51 393.85 6645.64C394.441 6645.13 395.53 6644.28 397 6643.55C399.997 6642.07 403.166 6641.82 406.163 6642.83C409.951 6644.1 411.562 6646.21 412.245 6647.75C412.779 6648.96 412.848 6650.01 412.839 6650.53C414.109 6650.86 418.447 6652.2 419.175 6655.39C419.46 6656.64 419.038 6657.97 417.925 6659.35C416.306 6661.34 413.723 6662.54 411.008 6662.54H382.707C381.245 6662.54 379.847 6662.3 378.561 6661.84C376.066 6660.95 374.472 6659.43 373.953 6657.44C373.749 6656.65 373.66 6655.97 373.66 6655.38C373.66 6652.69 375.476 6652 375.733 6651.92V6651.92ZM374.757 6657.25C375.323 6659.42 377.296 6660.54 378.85 6661.1C380.043 6661.53 381.341 6661.75 382.707 6661.75H411.008C413.47 6661.75 415.812 6660.67 417.274 6658.86C418.231 6657.68 418.596 6656.57 418.367 6655.57C417.648 6652.4 412.374 6651.24 412.321 6651.23C412.112 6651.19 411.976 6651 412 6650.8C412.008 6650.75 412.558 6645.82 405.89 6643.58C404.709 6643.18 403.576 6643.02 402.511 6643.02C397.518 6643.02 393.999 6646.62 393.955 6646.66C393.846 6646.77 393.674 6646.81 393.521 6646.77C393.368 6646.72 393.256 6646.58 393.24 6646.43C393.224 6646.3 392.786 6643.17 385.579 6643.65C383.611 6643.78 382.201 6644.44 381.393 6645.6C379.742 6647.98 381.036 6651.75 381.048 6651.78C381.096 6651.91 381.068 6652.06 380.971 6652.16C380.879 6652.27 380.734 6652.32 380.594 6652.3C378.175 6651.95 376.034 6652.67 376.014 6652.68C376.006 6652.68 375.994 6652.68 375.986 6652.68C375.894 6652.71 373.737 6653.37 374.757 6657.26V6657.25Z" fill="#030303"/>
<path d="M374.757 6657.25C375.323 6659.42 377.296 6660.54 378.85 6661.1C380.043 6661.53 381.341 6661.74 382.707 6661.74H392.999L392.316 6657.65C392.316 6657.65 392.312 6657.62 392.308 6657.61L391.681 6653.86L385.226 6650.18C385.029 6650.07 384.964 6649.83 385.081 6649.64C385.197 6649.45 385.451 6649.39 385.647 6649.5L391.508 6652.84L390.765 6648.39C390.729 6648.17 390.882 6647.97 391.111 6647.93C391.336 6647.9 391.549 6648.05 391.585 6648.26L393.003 6656.76L395.839 6654.15C396.004 6653.99 396.265 6654 396.421 6654.16C396.578 6654.31 396.574 6654.57 396.409 6654.72L393.159 6657.71L393.83 6661.74H403.463L404.536 6658.29L400.792 6648.06C400.716 6647.86 400.828 6647.63 401.045 6647.56C401.258 6647.48 401.495 6647.59 401.571 6647.8L404.938 6657L406.525 6651.89C406.589 6651.68 406.822 6651.56 407.039 6651.63C407.26 6651.69 407.384 6651.91 407.32 6652.12L404.327 6661.75H411.004C413.466 6661.75 415.808 6660.67 417.27 6658.87C418.226 6657.69 418.592 6656.58 418.363 6655.57C417.644 6652.4 412.369 6651.25 412.317 6651.24C412.108 6651.19 411.972 6651 411.996 6650.8C412.004 6650.75 412.554 6645.82 405.886 6643.58C404.705 6643.19 403.572 6643.02 402.507 6643.02C397.514 6643.02 393.995 6646.62 393.951 6646.66C393.842 6646.78 393.67 6646.82 393.517 6646.77C393.364 6646.72 393.252 6646.59 393.236 6646.43C393.22 6646.3 392.782 6643.18 385.575 6643.66C383.607 6643.79 382.197 6644.44 381.389 6645.61C379.738 6647.98 381.032 6651.75 381.044 6651.78C381.092 6651.92 381.064 6652.06 380.967 6652.17C380.875 6652.27 380.73 6652.32 380.59 6652.3C378.171 6651.95 376.03 6652.67 376.01 6652.68C376.002 6652.68 375.99 6652.68 375.982 6652.69C375.89 6652.71 373.732 6653.37 374.753 6657.26L374.757 6657.25Z" fill="#CE6326"/>
<path d="M403.656 6662.52C403.696 6662.53 403.737 6662.54 403.777 6662.54C403.954 6662.54 404.118 6662.43 404.171 6662.26L404.327 6661.75L407.32 6652.12C407.384 6651.91 407.26 6651.69 407.039 6651.62C406.822 6651.56 406.593 6651.68 406.525 6651.89L404.938 6656.99L404.536 6658.29L403.463 6661.74L403.375 6662.02C403.311 6662.23 403.435 6662.46 403.652 6662.52L403.656 6662.52Z" fill="#030303"/>
<path d="M400.8 6648.06L404.544 6658.29L404.588 6658.4C404.648 6658.57 404.809 6658.67 404.978 6658.67C405.026 6658.67 405.07 6658.66 405.114 6658.65C405.327 6658.57 405.444 6658.35 405.368 6658.14L404.946 6656.99L401.579 6647.79C401.503 6647.59 401.27 6647.48 401.053 6647.55C400.836 6647.63 400.724 6647.85 400.8 6648.06V6648.06Z" fill="#030303"/>
<path d="M390.765 6648.39L391.508 6652.85L391.677 6653.87L392.304 6657.61C392.304 6657.61 392.304 6657.64 392.312 6657.66L392.995 6661.75L393.071 6662.21C393.103 6662.4 393.28 6662.54 393.481 6662.54C393.501 6662.54 393.525 6662.54 393.545 6662.54C393.77 6662.5 393.927 6662.3 393.891 6662.08L393.834 6661.75L393.163 6657.72L393.007 6656.77L391.589 6648.27C391.553 6648.05 391.34 6647.91 391.115 6647.94C390.89 6647.98 390.733 6648.18 390.769 6648.4L390.765 6648.39Z" fill="#030303"/>
<path d="M392.308 6657.61C392.308 6657.61 392.308 6657.64 392.316 6657.65C392.332 6657.73 392.368 6657.79 392.424 6657.85C392.505 6657.93 392.613 6657.97 392.722 6657.97C392.826 6657.97 392.926 6657.94 393.007 6657.86L393.163 6657.72L396.413 6654.72C396.578 6654.57 396.582 6654.32 396.425 6654.16C396.269 6654 396.008 6654 395.843 6654.15L393.007 6656.76L392.436 6657.29C392.344 6657.37 392.3 6657.49 392.312 6657.61H392.308Z" fill="#030303"/>
<path d="M385.226 6650.18L391.681 6653.86L391.85 6653.96C391.914 6654 391.991 6654.01 392.059 6654.01C392.199 6654.01 392.34 6653.95 392.412 6653.82C392.529 6653.63 392.465 6653.39 392.268 6653.28L391.509 6652.85L385.648 6649.5C385.451 6649.39 385.198 6649.45 385.081 6649.64C384.965 6649.83 385.029 6650.08 385.226 6650.19V6650.18Z" fill="#030303"/>
<path d="M172.916 6647.09C173.041 6647.04 175.732 6646.14 179.047 6646.41C178.589 6644.66 177.841 6640.55 179.91 6637.57C181.26 6635.63 183.542 6634.54 186.695 6634.33C195.184 6633.77 197.686 6636.66 198.417 6638.26C199.249 6637.53 200.779 6636.33 202.852 6635.31C207.07 6633.23 211.529 6632.87 215.747 6634.29C221.082 6636.08 223.348 6639.05 224.308 6641.23C225.059 6642.93 225.156 6644.4 225.148 6645.14C226.935 6645.6 233.041 6647.49 234.062 6651.98C234.463 6653.74 233.869 6655.61 232.302 6657.54C230.024 6660.35 226.385 6662.03 222.565 6662.03H182.726C180.666 6662.03 178.701 6661.7 176.893 6661.05C173.382 6659.79 171.141 6657.65 170.41 6654.87C170.121 6653.76 170 6652.79 170 6651.97C170 6648.18 172.559 6647.21 172.916 6647.09V6647.09ZM171.539 6654.58C172.338 6657.64 175.114 6659.21 177.303 6660C178.982 6660.6 180.81 6660.91 182.73 6660.91H222.568C226.031 6660.91 229.329 6659.39 231.39 6656.85C232.736 6655.19 233.254 6653.63 232.929 6652.21C231.916 6647.75 224.493 6646.13 224.416 6646.11C224.123 6646.05 223.926 6645.78 223.966 6645.5C223.975 6645.43 224.75 6638.49 215.366 6635.34C213.703 6634.78 212.108 6634.55 210.609 6634.55C203.579 6634.55 198.626 6639.61 198.566 6639.67C198.413 6639.83 198.172 6639.89 197.955 6639.82C197.738 6639.76 197.582 6639.57 197.558 6639.35C197.538 6639.16 196.919 6634.77 186.776 6635.44C184.004 6635.62 182.023 6636.55 180.882 6638.19C178.561 6641.53 180.38 6646.83 180.4 6646.89C180.465 6647.07 180.425 6647.27 180.296 6647.43C180.167 6647.58 179.963 6647.65 179.762 6647.62C176.355 6647.12 173.342 6648.13 173.314 6648.14C173.302 6648.14 173.286 6648.15 173.278 6648.15C173.149 6648.19 170.113 6649.12 171.547 6654.59L171.539 6654.58Z" fill="#030303"/>
<path d="M212.22 6662C212.277 6662.02 212.333 6662.03 212.389 6662.03C212.638 6662.03 212.871 6661.87 212.943 6661.63L213.168 6660.91L217.382 6647.36C217.475 6647.06 217.298 6646.75 216.989 6646.66C216.683 6646.57 216.358 6646.74 216.266 6647.04L214.032 6654.22L213.466 6656.04L211.955 6660.91L211.831 6661.31C211.738 6661.6 211.915 6661.91 212.22 6662V6662Z" fill="#030303"/>
<path d="M208.195 6641.65L213.462 6656.04L213.522 6656.21C213.606 6656.44 213.831 6656.58 214.072 6656.58C214.137 6656.58 214.201 6656.57 214.265 6656.55C214.566 6656.45 214.727 6656.13 214.623 6655.84L214.028 6654.22L209.292 6641.28C209.187 6640.99 208.854 6640.84 208.553 6640.94C208.247 6641.04 208.091 6641.36 208.195 6641.65Z" fill="#030303"/>
<path d="M194.075 6642.12L195.123 6648.38L195.364 6649.82L196.244 6655.09C196.244 6655.11 196.248 6655.12 196.252 6655.14L197.216 6660.91L197.325 6661.55C197.373 6661.83 197.618 6662.02 197.899 6662.02C197.931 6662.02 197.959 6662.02 197.992 6662.01C198.309 6661.97 198.526 6661.68 198.474 6661.37L198.393 6660.9L197.445 6655.23L197.22 6653.89L195.224 6641.94C195.172 6641.63 194.874 6641.42 194.557 6641.47C194.24 6641.52 194.023 6641.81 194.075 6642.11V6642.12Z" fill="#030303"/>
<path d="M196.244 6655.09C196.244 6655.11 196.248 6655.13 196.252 6655.15C196.272 6655.25 196.324 6655.35 196.405 6655.43C196.517 6655.54 196.67 6655.6 196.823 6655.6C196.967 6655.6 197.112 6655.55 197.224 6655.44L197.445 6655.24L202.021 6651.02C202.254 6650.81 202.262 6650.46 202.037 6650.23C201.816 6650.01 201.446 6650 201.217 6650.22L197.224 6653.9L196.421 6654.64C196.288 6654.76 196.228 6654.93 196.244 6655.09Z" fill="#030303"/>
<path d="M186.278 6644.64L195.364 6649.82L195.597 6649.96C195.69 6650.01 195.794 6650.03 195.895 6650.03C196.096 6650.03 196.288 6649.94 196.393 6649.76C196.557 6649.49 196.469 6649.15 196.192 6648.99L195.123 6648.38L186.872 6643.68C186.599 6643.52 186.241 6643.61 186.077 6643.87C185.912 6644.14 186 6644.48 186.278 6644.64Z" fill="#030303"/>
<path d="M217.949 6653.28C219.355 6651.36 221.902 6650.57 223.027 6650.31C222.276 6648.89 220.392 6644.68 222.734 6641.72C223.983 6640.13 225.509 6639.24 227.269 6639.08C229.808 6638.84 232.146 6640.16 233.271 6640.93C233.331 6640.04 233.636 6638.57 234.837 6637.14C236.705 6634.93 239.999 6633.65 244.639 6633.34C249.166 6633.03 252.396 6633.86 254.24 6635.8C255.53 6637.16 255.807 6638.73 255.839 6639.69C257.301 6638.81 261.009 6637.47 268.344 6639.84C270.887 6640.66 272.502 6642.05 273.145 6643.97C274.246 6647.26 272.205 6651.17 271.076 6652.98C271.867 6652.79 272.952 6652.69 274.001 6653.1C275.206 6653.58 276.081 6654.61 276.604 6656.18C277.407 6658.58 276.527 6660.55 274.129 6661.72C273.093 6662.22 271.892 6662.49 270.658 6662.49H226.128C224.144 6662.49 222.211 6662.04 220.536 6661.21C218.544 6660.21 217.387 6658.93 217.102 6657.42C216.804 6655.85 217.094 6654.45 217.953 6653.28H217.949ZM217.913 6657.28C218.15 6658.54 219.162 6659.62 220.918 6660.5C222.476 6661.28 224.28 6661.69 226.128 6661.69H270.658C271.767 6661.69 272.836 6661.45 273.755 6661.01C275.808 6660.01 276.503 6658.46 275.816 6656.42C275.37 6655.08 274.655 6654.22 273.691 6653.83C273.269 6653.66 272.832 6653.6 272.418 6653.6C271.257 6653.6 270.273 6654.09 270.257 6654.09C270.088 6654.18 269.879 6654.14 269.754 6654C269.63 6653.86 269.622 6653.66 269.73 6653.51C269.77 6653.45 273.683 6648.16 272.358 6644.21C271.799 6642.54 270.357 6641.32 268.079 6640.58C258.852 6637.6 255.723 6640.76 255.694 6640.79C255.574 6640.92 255.373 6640.96 255.208 6640.89C255.044 6640.81 254.947 6640.64 254.975 6640.47C254.979 6640.44 255.341 6638.13 253.617 6636.32C251.954 6634.57 248.95 6633.83 244.695 6634.12C240.309 6634.42 237.211 6635.6 235.496 6637.62C233.837 6639.58 234.106 6641.67 234.106 6641.69C234.13 6641.86 234.046 6642.02 233.893 6642.1C233.741 6642.18 233.552 6642.16 233.423 6642.05C233.395 6642.02 230.471 6639.56 227.353 6639.86C225.835 6640 224.501 6640.79 223.396 6642.19C220.938 6645.3 223.983 6650.32 224.011 6650.38C224.079 6650.49 224.087 6650.63 224.031 6650.75C223.975 6650.87 223.858 6650.95 223.722 6650.97C223.686 6650.98 220.227 6651.55 218.62 6653.74C217.893 6654.73 217.652 6655.92 217.909 6657.28H217.913Z" fill="#030303"/>
<path d="M217.913 6657.28C218.15 6658.54 219.162 6659.62 220.918 6660.5C222.477 6661.28 224.28 6661.69 226.128 6661.69H235.677L234.315 6657.95L229.824 6656.84C229.603 6656.79 229.47 6656.57 229.527 6656.36C229.583 6656.15 229.808 6656.02 230.029 6656.08L233.986 6657.05L232.403 6652.7C232.375 6652.62 232.371 6652.53 232.399 6652.45L233.54 6648.93C233.608 6648.72 233.837 6648.61 234.058 6648.67C234.275 6648.74 234.395 6648.96 234.327 6649.17L233.226 6652.57L236.545 6661.7H245.125C245.129 6661.67 245.137 6661.65 245.149 6661.62L246.66 6657.99L243.305 6650.41L238.111 6648.24C237.902 6648.16 237.806 6647.92 237.898 6647.72C237.991 6647.52 238.236 6647.43 238.441 6647.52L242.84 6649.36L240.638 6644.38C240.55 6644.18 240.646 6643.95 240.855 6643.86C241.064 6643.78 241.309 6643.87 241.397 6644.07L243.996 6649.95L247.094 6656.95L250.681 6648.33L250.348 6642.75C250.335 6642.53 250.508 6642.34 250.737 6642.33C250.966 6642.32 251.159 6642.48 251.175 6642.7L251.513 6648.38C251.513 6648.43 251.509 6648.49 251.484 6648.55L246.005 6661.7H257.912L259.531 6657.48L254.859 6654.88C254.662 6654.77 254.594 6654.53 254.706 6654.34C254.819 6654.15 255.072 6654.08 255.273 6654.19L259.82 6656.72L261.684 6651.86L258.647 6644.37C258.563 6644.16 258.667 6643.93 258.88 6643.85C259.093 6643.77 259.334 6643.88 259.414 6644.08L262.114 6650.73L263.604 6646.84C263.68 6646.64 263.922 6646.53 264.134 6646.6C264.347 6646.68 264.46 6646.91 264.379 6647.11L262.516 6651.97L260.435 6657.4C260.435 6657.4 260.423 6657.43 260.415 6657.45L258.788 6661.7H270.642C271.751 6661.7 272.819 6661.46 273.739 6661.01C275.792 6660.01 276.487 6658.47 275.8 6656.42C275.354 6655.09 274.639 6654.22 273.675 6653.84C273.253 6653.67 272.815 6653.61 272.402 6653.61C271.241 6653.61 270.257 6654.09 270.24 6654.1C270.072 6654.18 269.863 6654.14 269.738 6654C269.614 6653.87 269.606 6653.66 269.714 6653.51C269.754 6653.46 273.667 6648.16 272.341 6644.21C271.783 6642.54 270.341 6641.32 268.063 6640.58C258.836 6637.61 255.706 6640.76 255.678 6640.8C255.558 6640.93 255.357 6640.97 255.192 6640.89C255.028 6640.82 254.931 6640.64 254.959 6640.47C254.963 6640.45 255.325 6638.13 253.601 6636.32C251.938 6634.58 248.934 6633.84 244.679 6634.13C240.293 6634.42 237.195 6635.6 235.48 6637.62C233.821 6639.58 234.09 6641.67 234.09 6641.7C234.114 6641.86 234.03 6642.02 233.877 6642.1C233.725 6642.18 233.536 6642.16 233.407 6642.05C233.379 6642.02 230.455 6639.56 227.337 6639.87C225.819 6640.01 224.485 6640.79 223.38 6642.19C220.922 6645.3 223.967 6650.33 223.995 6650.38C224.063 6650.49 224.071 6650.63 224.015 6650.75C223.959 6650.87 223.842 6650.96 223.706 6650.98C223.67 6650.98 220.211 6651.55 218.604 6653.74C217.877 6654.73 217.636 6655.93 217.893 6657.28L217.913 6657.28Z" fill="#CE6326"/>
<path d="M258.068 6662.46C258.117 6662.48 258.165 6662.49 258.213 6662.49C258.382 6662.49 258.539 6662.39 258.599 6662.23L258.804 6661.7L260.431 6657.45C260.431 6657.45 260.443 6657.42 260.451 6657.4L262.532 6651.97L264.396 6647.12C264.472 6646.91 264.363 6646.69 264.15 6646.61C263.938 6646.53 263.701 6646.64 263.62 6646.84L262.13 6650.74L261.7 6651.86L259.836 6656.72L259.547 6657.48L257.928 6661.7L257.827 6661.96C257.747 6662.16 257.86 6662.39 258.073 6662.46H258.068Z" fill="#030303"/>
<path d="M258.655 6644.37L261.692 6651.86L261.748 6652C261.812 6652.16 261.969 6652.25 262.134 6652.25C262.182 6652.25 262.234 6652.24 262.282 6652.23C262.403 6652.18 262.491 6652.08 262.527 6651.97C262.556 6651.89 262.552 6651.8 262.519 6651.71L262.126 6650.74L259.426 6644.08C259.342 6643.88 259.105 6643.78 258.892 6643.86C258.679 6643.94 258.575 6644.17 258.659 6644.37L258.655 6644.37Z" fill="#030303"/>
<path d="M254.867 6654.88L259.539 6657.48L259.84 6657.64C259.904 6657.68 259.977 6657.7 260.045 6657.7C260.186 6657.7 260.326 6657.62 260.402 6657.5C260.411 6657.48 260.423 6657.47 260.427 6657.45C260.431 6657.44 260.439 6657.42 260.447 6657.4C260.495 6657.23 260.419 6657.05 260.254 6656.96L259.828 6656.72L255.281 6654.2C255.084 6654.09 254.831 6654.15 254.714 6654.34C254.602 6654.53 254.666 6654.78 254.867 6654.88V6654.88Z" fill="#030303"/>
<path d="M245.386 6662.14C245.434 6662.16 245.487 6662.16 245.539 6662.16C245.704 6662.16 245.856 6662.07 245.92 6661.91L246.013 6661.69L251.492 6648.54C251.516 6648.49 251.524 6648.43 251.52 6648.37L251.183 6642.7C251.171 6642.48 250.974 6642.32 250.745 6642.33C250.516 6642.34 250.343 6642.53 250.355 6642.74L250.689 6648.33L247.102 6656.94L246.664 6657.99L245.153 6661.62C245.145 6661.64 245.133 6661.67 245.129 6661.69C245.093 6661.87 245.197 6662.06 245.382 6662.13L245.386 6662.14Z" fill="#030303"/>
<path d="M240.646 6644.38L242.848 6649.35L243.318 6650.41L246.672 6657.99L246.696 6658.05C246.764 6658.2 246.917 6658.29 247.078 6658.29C247.134 6658.29 247.186 6658.28 247.238 6658.26C247.447 6658.18 247.548 6657.94 247.455 6657.74L247.106 6656.95L244.008 6649.95L241.409 6644.07C241.321 6643.87 241.076 6643.77 240.867 6643.86C240.658 6643.95 240.558 6644.18 240.65 6644.38L240.646 6644.38Z" fill="#030303"/>
<path d="M238.119 6648.25L243.314 6650.41L243.466 6650.47C243.519 6650.5 243.575 6650.51 243.631 6650.51C243.792 6650.51 243.944 6650.42 244.009 6650.27C244.057 6650.16 244.053 6650.05 244.009 6649.95C243.968 6649.86 243.896 6649.79 243.8 6649.75L242.848 6649.35L238.449 6647.51C238.24 6647.42 237.995 6647.52 237.907 6647.72C237.814 6647.92 237.911 6648.15 238.119 6648.24V6648.25Z" fill="#030303"/>
<path d="M232.407 6652.7L233.99 6657.05L234.315 6657.95L235.677 6661.7L235.87 6662.22C235.93 6662.39 236.087 6662.49 236.26 6662.49C236.304 6662.49 236.352 6662.48 236.396 6662.47C236.609 6662.39 236.726 6662.17 236.649 6661.96L236.553 6661.7L233.235 6652.57L234.335 6649.17C234.404 6648.96 234.279 6648.74 234.066 6648.67C233.849 6648.61 233.616 6648.72 233.548 6648.93L232.407 6652.45C232.379 6652.53 232.383 6652.62 232.411 6652.7H232.407Z" fill="#030303"/>
<path d="M229.828 6656.84L234.319 6657.95L234.428 6657.98C234.464 6657.98 234.496 6657.99 234.532 6657.99C234.717 6657.99 234.885 6657.87 234.934 6657.69C234.99 6657.48 234.857 6657.26 234.636 6657.21L233.994 6657.05L230.037 6656.07C229.816 6656.02 229.591 6656.15 229.535 6656.36C229.478 6656.57 229.611 6656.79 229.832 6656.84H229.828Z" fill="#030303"/>
<path d="M306.784 6653.77C307.014 6651.33 307.975 6649.61 309.638 6648.66C312.293 6647.14 315.948 6648.06 317.553 6648.58C317.468 6647.24 317.523 6644.56 319.031 6642.75C319.923 6641.68 321.178 6641.09 322.759 6640.99C327.085 6640.71 329.709 6643.09 330.882 6644.52C331.892 6641.29 335.19 6640.32 335.671 6640.2C336.109 6640.02 339.057 6638.95 343.516 6641.23C347.071 6643.04 347.029 6648.04 346.775 6650.46C347.649 6649.88 348.595 6649.6 349.584 6649.62C352.235 6649.66 354.264 6651.85 354.357 6651.95C357.223 6655.24 356.437 6658.94 354.242 6660.75C351.948 6662.64 347.848 6662.73 347.806 6662.73C335.716 6662.82 326.187 6662.84 320.531 6662.84C316.933 6662.84 314.902 6662.83 314.775 6662.83C314.542 6662.84 311.029 6662.84 308.698 6660.44C307.159 6658.85 306.515 6656.61 306.781 6653.78L306.784 6653.77ZM309.454 6659.75C311.485 6661.85 314.726 6661.83 314.763 6661.83C314.766 6661.83 314.769 6661.83 314.772 6661.83C314.841 6661.83 318.714 6661.85 325.434 6661.83C325.806 6661.83 326.187 6661.83 326.574 6661.83C328.494 6661.83 330.622 6661.82 332.941 6661.81C333.31 6661.81 333.682 6661.81 334.06 6661.81C336.031 6661.8 338.126 6661.79 340.342 6661.78C340.683 6661.78 341.031 6661.78 341.382 6661.77C343.428 6661.76 345.569 6661.75 347.797 6661.73C347.833 6661.73 351.582 6661.63 353.562 6659.99C355.379 6658.49 355.996 6655.39 353.562 6652.6C353.544 6652.58 351.742 6650.65 349.553 6650.61C349.532 6650.61 349.511 6650.61 349.49 6650.61C348.405 6650.61 347.377 6651.1 346.443 6652.04C346.282 6652.2 346.034 6652.24 345.829 6652.14C345.623 6652.04 345.514 6651.82 345.557 6651.6C345.572 6651.53 347.011 6644.14 343.02 6642.11C338.779 6639.95 336.088 6641.11 336.064 6641.12C336.028 6641.14 335.991 6641.15 335.955 6641.16C335.798 6641.19 332.073 6642.07 331.659 6645.84C331.635 6646.06 331.463 6646.24 331.239 6646.28C331.012 6646.32 330.785 6646.21 330.68 6646.01C330.655 6645.97 328.258 6641.64 322.822 6641.98C321.544 6642.07 320.54 6642.53 319.835 6643.37C318.082 6645.47 318.65 6649.22 318.656 6649.26C318.687 6649.44 318.608 6649.62 318.46 6649.73C318.309 6649.84 318.109 6649.86 317.937 6649.79C317.889 6649.77 313.115 6647.82 310.158 6649.51C308.798 6650.29 308.009 6651.75 307.809 6653.86C307.57 6656.4 308.121 6658.38 309.445 6659.75L309.454 6659.75Z" fill="#030303"/>
<path d="M309.454 6659.75C311.485 6661.85 314.726 6661.83 314.763 6661.83C314.766 6661.83 314.769 6661.83 314.772 6661.83C314.841 6661.83 318.714 6661.85 325.434 6661.83L322.039 6655.53L318.88 6654.37C318.611 6654.27 318.478 6653.98 318.581 6653.73C318.684 6653.47 318.983 6653.34 319.249 6653.44L322.048 6654.46L323.497 6648.94C323.566 6648.68 323.847 6648.51 324.125 6648.58C324.404 6648.65 324.573 6648.92 324.5 6649.19L322.958 6655.07L326.523 6661.69C326.547 6661.74 326.565 6661.79 326.571 6661.83C328.491 6661.83 330.619 6661.82 332.938 6661.81L328.775 6652.68C328.66 6652.42 328.778 6652.13 329.041 6652.02C329.304 6651.91 329.609 6652.02 329.727 6652.28L330.722 6654.46L332.315 6652.06C332.469 6651.83 332.79 6651.76 333.032 6651.91C333.274 6652.06 333.346 6652.36 333.189 6652.6L331.227 6655.55C331.227 6655.55 331.224 6655.56 331.221 6655.56L332.651 6658.69L333.494 6656.82C333.609 6656.57 333.914 6656.45 334.178 6656.56C334.441 6656.67 334.561 6656.96 334.447 6657.22L333.228 6659.93C333.228 6659.93 333.222 6659.94 333.219 6659.94L334.026 6661.71C334.041 6661.74 334.054 6661.77 334.06 6661.81C336.031 6661.8 338.126 6661.8 340.342 6661.78C340.342 6661.45 340.384 6660.91 340.448 6660.01C340.52 6658.98 340.632 6657.55 340.783 6655.75C340.81 6655.42 340.841 6655.08 340.868 6654.74C340.826 6654.72 340.783 6654.68 340.747 6654.65L335.23 6648.58C335.039 6648.38 335.063 6648.06 335.278 6647.88C335.493 6647.69 335.822 6647.72 336.013 6647.92L340.98 6653.38C341.158 6651.28 341.309 6649.61 341.309 6649.58C341.333 6649.31 341.584 6649.1 341.872 6649.13C342.156 6649.15 342.367 6649.39 342.346 6649.67C342.141 6651.99 341.89 6654.94 341.693 6657.37L344.124 6655.69C344.357 6655.53 344.68 6655.58 344.849 6655.8C345.016 6656.03 344.964 6656.34 344.732 6656.5L341.705 6658.59C341.669 6658.62 341.63 6658.64 341.59 6658.65C341.472 6660.16 341.391 6661.33 341.382 6661.77C343.429 6661.76 345.569 6661.74 347.797 6661.73C347.833 6661.73 351.582 6661.63 353.562 6659.99C355.379 6658.49 355.996 6655.39 353.562 6652.6C353.544 6652.58 351.742 6650.65 349.554 6650.61C349.532 6650.61 349.511 6650.61 349.49 6650.61C348.405 6650.61 347.377 6651.09 346.443 6652.04C346.282 6652.2 346.035 6652.24 345.829 6652.14C345.623 6652.04 345.515 6651.82 345.557 6651.6C345.572 6651.53 347.011 6644.14 343.02 6642.11C338.779 6639.94 336.088 6641.11 336.064 6641.12C336.028 6641.14 335.991 6641.15 335.955 6641.16C335.798 6641.19 332.073 6642.07 331.659 6645.84C331.635 6646.06 331.463 6646.23 331.239 6646.27C331.012 6646.31 330.786 6646.21 330.68 6646.01C330.656 6645.97 328.258 6641.63 322.822 6641.98C321.544 6642.06 320.54 6642.53 319.835 6643.37C318.082 6645.47 318.65 6649.22 318.656 6649.26C318.687 6649.44 318.608 6649.62 318.46 6649.73C318.309 6649.84 318.109 6649.86 317.937 6649.79C317.889 6649.77 313.115 6647.82 310.158 6649.51C308.798 6650.29 308.009 6651.75 307.809 6653.86C307.57 6656.4 308.121 6658.37 309.445 6659.74L309.454 6659.75Z" fill="#CE6326"/>
<path d="M321.949 6655.36L322.039 6655.52L325.434 6661.83L325.604 6662.15C325.694 6662.32 325.876 6662.42 326.066 6662.42C326.145 6662.42 326.23 6662.4 326.302 6662.36C326.511 6662.26 326.617 6662.04 326.574 6661.83C326.568 6661.78 326.55 6661.74 326.526 6661.69L322.961 6655.06L324.503 6649.18C324.573 6648.92 324.407 6648.64 324.128 6648.58C323.85 6648.51 323.566 6648.67 323.5 6648.94L322.051 6654.46L321.909 6655C321.879 6655.12 321.894 6655.25 321.952 6655.35L321.949 6655.36Z" fill="#030303"/>
<path d="M318.883 6654.37L322.042 6655.52L322.227 6655.59C322.287 6655.61 322.351 6655.62 322.411 6655.62C322.62 6655.62 322.819 6655.5 322.898 6655.3C323.001 6655.04 322.865 6654.76 322.596 6654.66L322.051 6654.46L319.252 6653.43C318.983 6653.34 318.684 6653.46 318.584 6653.72C318.481 6653.98 318.614 6654.27 318.883 6654.37V6654.37Z" fill="#030303"/>
<path d="M340.448 6660.01C340.52 6658.97 340.632 6657.54 340.783 6655.75C340.81 6655.41 340.841 6655.07 340.868 6654.74C340.907 6654.28 340.946 6653.82 340.983 6653.38C341.161 6651.28 341.312 6649.61 341.312 6649.58C341.336 6649.31 341.587 6649.1 341.875 6649.12C342.159 6649.15 342.37 6649.39 342.349 6649.66C342.144 6651.99 341.893 6654.94 341.696 6657.37C341.66 6657.81 341.627 6658.24 341.593 6658.65C341.476 6660.16 341.394 6661.33 341.385 6661.77C341.385 6661.83 341.385 6661.87 341.385 6661.9C341.409 6662.02 341.391 6662.15 341.321 6662.26C341.225 6662.42 341.052 6662.51 340.874 6662.51C340.783 6662.51 340.693 6662.48 340.608 6662.43C340.417 6662.32 340.339 6662.28 340.345 6661.78C340.345 6661.44 340.387 6660.91 340.451 6660.01H340.448Z" fill="#030303"/>
<path d="M335.23 6648.58L340.747 6654.64C340.783 6654.68 340.822 6654.71 340.868 6654.74C340.949 6654.79 341.043 6654.81 341.14 6654.81C341.261 6654.81 341.382 6654.77 341.482 6654.69C341.696 6654.51 341.72 6654.19 341.53 6653.98L340.983 6653.38L336.016 6647.92C335.825 6647.71 335.499 6647.69 335.281 6647.87C335.063 6648.06 335.042 6648.37 335.233 6648.58L335.23 6648.58Z" fill="#030303"/>
<path d="M340.98 6658.47C341.083 6658.61 341.243 6658.68 341.403 6658.68C341.466 6658.68 341.53 6658.67 341.59 6658.65C341.63 6658.63 341.669 6658.61 341.705 6658.59L344.732 6656.5C344.964 6656.33 345.016 6656.02 344.849 6655.8C344.68 6655.58 344.357 6655.52 344.124 6655.69L341.693 6657.37L341.098 6657.78C340.865 6657.94 340.813 6658.25 340.98 6658.47Z" fill="#030303"/>
<path d="M328.778 6652.68L332.941 6661.81L333.074 6662.1C333.159 6662.29 333.349 6662.4 333.549 6662.4C333.618 6662.4 333.688 6662.39 333.757 6662.36C333.984 6662.26 334.105 6662.03 334.06 6661.81C334.054 6661.77 334.042 6661.74 334.026 6661.7L333.219 6659.94L332.651 6658.69L331.221 6655.56L330.719 6654.46L329.724 6652.28C329.61 6652.02 329.301 6651.91 329.038 6652.02C328.775 6652.13 328.657 6652.43 328.772 6652.68H328.778Z" fill="#030303"/>
<path d="M330.513 6655.7C330.598 6655.75 330.695 6655.78 330.792 6655.78C330.958 6655.78 331.124 6655.7 331.224 6655.56C331.224 6655.56 331.227 6655.55 331.23 6655.55L333.192 6652.59C333.349 6652.36 333.277 6652.05 333.035 6651.9C332.793 6651.76 332.472 6651.83 332.318 6652.06L330.725 6654.45L330.356 6655.01C330.202 6655.24 330.272 6655.55 330.516 6655.7H330.513Z" fill="#030303"/>
<path d="M332.551 6660.18C332.618 6660.21 332.687 6660.22 332.757 6660.22C332.95 6660.22 333.135 6660.11 333.222 6659.93C333.225 6659.93 333.231 6659.92 333.231 6659.92L334.45 6657.21C334.564 6656.95 334.444 6656.66 334.181 6656.55C333.918 6656.44 333.612 6656.56 333.497 6656.81L332.654 6658.69L332.279 6659.52C332.164 6659.77 332.288 6660.06 332.551 6660.17V6660.18Z" fill="#030303"/>
<path d="M2 0.5V5350.5V6563C2 6618.23 46.7715 6663 102 6663H1025" stroke="#030303" stroke-width="3"/>
</g>
</svg>
