<svg width="96" height="96" viewBox="0 0 96 96" fill="none" xmlns="http://www.w3.org/2000/svg">
<rect x="40" y="20" width="48" height="8" rx="3" fill="#4F4F4F"/>
<rect x="40" y="44" width="48" height="8" rx="3" fill="#4F4F4F"/>
<rect x="40" y="68" width="48" height="8" rx="3" fill="#4F4F4F"/>
<line x1="20" y1="72" x2="20" y2="28" stroke="#CE6326" stroke-width="8"/>
<path d="M19.2831 14.7373C19.6757 14.3335 20.3243 14.3335 20.7169 14.7373L32.2061 26.5529C32.8225 27.1868 32.3734 28.25 31.4892 28.25H8.51079C7.62662 28.25 7.17747 27.1868 7.79385 26.5529L19.2831 14.7373Z" fill="#CE6326"/>
<path d="M19.2831 81.2627C19.6757 81.6665 20.3243 81.6665 20.7169 81.2627L32.2061 69.4471C32.8225 68.8132 32.3734 67.75 31.4892 67.75H8.51079C7.62662 67.75 7.17747 68.8132 7.79385 69.4471L19.2831 81.2627Z" fill="#CE6326"/>
</svg>
