<svg width="90" height="90" viewBox="0 0 90 90" fill="none" xmlns="http://www.w3.org/2000/svg">
<path fill-rule="evenodd" clip-rule="evenodd" d="M36.0956 58.6631C39.6427 56.3411 42.3454 52.9361 43.8018 48.9546C45.2582 44.9731 45.3905 40.6278 44.179 36.5651C42.9674 32.5024 40.4768 28.9393 37.0775 26.4058C33.6783 23.8723 29.552 22.5038 25.3125 22.5038C21.073 22.5038 16.9467 23.8723 13.5475 26.4058C10.1482 28.9393 7.65758 32.5024 6.44603 36.5651C5.23449 40.6278 5.36676 44.9731 6.82317 48.9546C8.27958 52.9361 10.9823 56.3411 14.5294 58.6631C10.1849 60.7088 6.51186 63.9481 3.93918 68.0028C1.3665 72.0576 0.000271297 76.7605 0 81.5625L0 84.375H5.625V81.5625C5.79765 76.4562 7.94748 71.6168 11.6207 68.0656C15.294 64.5145 20.2033 62.5294 25.3125 62.5294C30.4217 62.5294 35.331 64.5145 39.0043 68.0656C42.6775 71.6168 44.8274 76.4562 45 81.5625V84.375H50.625V81.5625C50.6247 76.7605 49.2585 72.0576 46.6858 68.0028C44.1131 63.9481 40.4401 60.7088 36.0956 58.6631ZM25.3125 56.25C21.5829 56.25 18.006 54.7684 15.3688 52.1312C12.7316 49.494 11.25 45.9171 11.25 42.1875C11.25 38.4579 12.7316 34.881 15.3688 32.2438C18.006 29.6066 21.5829 28.125 25.3125 28.125C29.0421 28.125 32.619 29.6066 35.2562 32.2438C37.8934 34.881 39.375 38.4579 39.375 42.1875C39.375 45.9171 37.8934 49.494 35.2562 52.1312C32.619 54.7684 29.0421 56.25 25.3125 56.25Z" fill="#CE6326"/>
<path d="M25.5 17V8.5H81.5V42H71L59 54V42H51" stroke="#4F4F4F" stroke-width="5" stroke-linecap="round" stroke-linejoin="round"/>
</svg>
