<svg width="98" height="98" viewBox="0 0 98 98" fill="none" xmlns="http://www.w3.org/2000/svg">
<path d="M49.0002 65.3333C44.5712 65.3333 40.5804 64.1982 37.0279 61.9278C33.4754 59.6602 30.7913 56.7121 28.9756 53.0833C30.7913 49.4546 33.4754 46.5064 37.0279 44.2388C40.5804 41.9685 44.5712 40.8333 49.0002 40.8333C53.4293 40.8333 57.4201 41.9685 60.9726 44.2388C64.5251 46.5092 67.2092 49.4573 69.0249 53.0833C67.2092 56.7121 64.5251 59.6602 60.9726 61.9278C57.4201 64.1982 53.4293 65.3333 49.0002 65.3333ZM49.0002 61.7196C52.237 61.7196 55.2505 60.9628 58.0407 59.4492C60.831 57.9357 63.1885 55.8137 65.1131 53.0833C63.1885 50.3557 60.831 48.2337 58.0407 46.7174C55.2505 45.2011 52.237 44.4444 49.0002 44.4471C45.7635 44.4498 42.75 45.2066 39.9598 46.7174C37.1695 48.2282 34.8134 50.3502 32.8915 53.0833C34.8161 55.811 37.1736 57.933 39.9638 59.4492C42.7541 60.9655 45.7676 61.7237 49.0043 61.7237M49.0247 57.6403C50.2933 57.6403 51.3659 57.1952 52.2424 56.3051C53.1217 55.4149 53.5613 54.3356 53.5613 53.067C53.5613 51.7957 53.1162 50.7204 52.2261 49.8412C51.3359 48.9673 50.2566 48.5304 48.988 48.5304C47.7167 48.5304 46.6414 48.9741 45.7622 49.8616C44.8883 50.7517 44.4514 51.8311 44.4514 53.0997C44.4514 54.3709 44.8951 55.4462 45.7826 56.3255C46.6728 57.202 47.7562 57.6403 49.0247 57.6403Z" fill="#CE6326"/>
<rect x="18.9141" y="19.7521" width="60.1709" height="59.3333" rx="3" stroke="#4F4F4F" stroke-width="6"/>
<rect x="20.1025" y="20.9402" width="57.7949" height="7.53846" fill="#4F4F4F"/>
</svg>
