<svg width="42" height="37" viewBox="0 0 42 37" stroke="currentColor" xmlns="http://www.w3.org/2000/svg">
<path d="M23.2702 35.3247C20.0787 35.3247 16.9564 34.475 14.2401 32.8694L14.7547 32.0382C17.3168 33.5529 20.2612 34.3549 23.2718 34.3549C32.3601 34.3549 39.7536 27.123 39.7536 18.2332C39.7536 9.34345 32.357 2.11001 23.2702 2.11001C14.1834 2.11001 6.78844 9.34191 6.78844 18.2317H5.79541C5.79384 8.80621 13.6342 1.13867 23.2702 1.13867C32.9062 1.13867 40.745 8.80621 40.745 18.2317C40.745 27.6572 32.9062 35.3247 23.2702 35.3247Z" stroke-width="2"/>
<path d="M1.8005 16L7.49887 21.6975" stroke-width="3"/>
<path d="M11.1006 16.0466L5.40307 21.745" stroke-width="3"/>
</svg>
