<svg width="76" height="76" viewBox="0 0 76 76" fill="none" xmlns="http://www.w3.org/2000/svg">
<path fill-rule="evenodd" clip-rule="evenodd" d="M54.2403 29.3212C56.4487 29.982 58.038 30.2042 58.038 30.2042V24.5077H61.8356C64.3536 24.5077 66.7685 23.5075 68.549 21.727C70.3294 19.9465 71.3297 17.5316 71.3297 15.0136C71.3297 12.4956 70.3294 10.0808 68.549 8.30029C66.7685 6.5198 64.3536 5.51953 61.8356 5.51953H50.8908C48.254 5.51953 45.7251 6.56701 43.8606 8.43154C41.9961 10.2961 40.9486 12.8249 40.9486 15.4618C40.9486 24.0406 49.2047 27.8155 54.2403 29.3212ZM67.5321 15.0136C67.5321 16.5244 66.9319 17.9733 65.8636 19.0416C64.7953 20.1099 63.3464 20.7101 61.8356 20.7101H54.2403V25.3337C53.1986 24.9799 52.1818 24.5567 51.1965 24.0672C47.4312 22.1798 44.7462 19.4949 44.7462 15.4618C44.7462 13.8321 45.3936 12.2692 46.5459 11.1169C47.6983 9.96455 49.2612 9.31717 50.8908 9.31717H61.8356C63.3464 9.31717 64.7953 9.91733 65.8636 10.9856C66.9319 12.0539 67.5321 13.5028 67.5321 15.0136ZM19.7141 28.2921C17.2257 28.2059 14.8709 27.1453 13.1573 25.3389C11.4437 23.5325 10.5086 21.1251 10.5537 18.6356C10.5988 16.1461 11.6204 13.7741 13.3983 12.031C15.1762 10.2878 17.5679 9.31317 20.0578 9.31717H26.0751C28.509 9.31717 30.8432 10.284 32.5642 12.0051C34.2853 13.7261 35.2521 16.0603 35.2521 18.4942C35.2521 26.1692 28.3594 29.6782 23.8592 31.1536C21.6793 31.8676 20.0616 32.103 20.0616 32.103V28.3054L19.7141 28.2921ZM23.8592 24.6426L19.8527 24.4982C18.3471 24.4655 16.9158 23.8375 15.8722 22.7518C14.8286 21.6661 14.2577 20.2111 14.2846 18.7053C14.3115 17.1996 14.9339 15.7659 16.0156 14.7181C17.0973 13.6703 18.55 13.0938 20.0559 13.1148H26.0732C26.7798 13.1146 27.4795 13.2535 28.1324 13.5237C28.7853 13.794 29.3785 14.1902 29.8782 14.6897C30.378 15.1893 30.7744 15.7824 31.0448 16.4351C31.3153 17.0879 31.4545 17.7876 31.4545 18.4942C31.4545 22.1304 29.1436 24.5134 25.9023 26.2034C25.2188 26.5604 24.5257 26.8642 23.8592 27.1224V24.6426ZM44.7462 39.6983C44.7462 43.8947 41.3473 47.2936 37.1509 47.2936C32.9545 47.2936 29.5557 43.8947 29.5557 39.6983C29.5557 35.5019 32.9545 32.103 37.1509 32.103C41.3473 32.103 44.7462 35.5019 44.7462 39.6983ZM40.9486 39.6983C40.9486 40.7055 40.5485 41.6714 39.8363 42.3836C39.1241 43.0958 38.1581 43.4959 37.1509 43.4959C36.1437 43.4959 35.1778 43.0958 34.4656 42.3836C33.7534 41.6714 33.3533 40.7055 33.3533 39.6983C33.3533 38.6911 33.7534 37.7252 34.4656 37.013C35.1778 36.3008 36.1437 35.9007 37.1509 35.9007C38.1581 35.9007 39.1241 36.3008 39.8363 37.013C40.5485 37.7252 40.9486 38.6911 40.9486 39.6983ZM27.6568 43.4959C27.6568 47.6923 24.2579 51.0912 20.0616 51.0912C15.8652 51.0912 12.4663 47.6923 12.4663 43.4959C12.4663 39.2995 15.8652 35.9007 20.0616 35.9007C24.2579 35.9007 27.6568 39.2995 27.6568 43.4959ZM23.8592 43.4959C23.8592 44.5031 23.4591 45.4691 22.7469 46.1813C22.0347 46.8935 21.0688 47.2936 20.0616 47.2936C19.0544 47.2936 18.0884 46.8935 17.3762 46.1813C16.664 45.4691 16.2639 44.5031 16.2639 43.4959C16.2639 42.4887 16.664 41.5228 17.3762 40.8106C18.0884 40.0984 19.0544 39.6983 20.0616 39.6983C21.0688 39.6983 22.0347 40.0984 22.7469 40.8106C23.4591 41.5228 23.8592 42.4887 23.8592 43.4959ZM2.97217 63.5209C2.97217 57.7789 14.3575 54.8889 20.0616 54.8889C21.1724 54.8889 22.4996 54.999 23.9162 55.2174C26.4625 53.3508 31.126 51.0912 37.1509 51.0912C43.1759 51.0912 47.8394 53.3508 50.3876 55.2174C51.6618 55.0117 52.9497 54.9019 54.2403 54.8889C59.9444 54.8889 71.3297 57.7808 71.3297 63.519V73.8771H2.97217V63.5209ZM32.6925 62.5278C33.3533 63.143 33.3533 63.4639 33.3533 63.519V70.0794H6.76981V63.519C6.76981 63.462 6.76981 63.143 7.4306 62.5278C8.11987 61.8841 9.25726 61.1987 10.8029 60.572C13.9018 59.3188 17.688 58.6865 20.0616 58.6865C22.4351 58.6865 26.2213 59.3188 29.3202 60.572C30.8658 61.1987 32.0032 61.8841 32.6925 62.5278ZM45.0159 56.5143C42.5332 55.4395 39.8562 54.8862 37.1509 54.8889C34.0065 54.8889 31.333 55.6218 29.2879 56.5143C33.4938 57.927 37.1509 60.2663 37.1509 63.5209C37.1509 60.2663 40.8081 57.9289 45.0159 56.5143ZM67.5321 63.5209C67.5321 63.4639 67.5321 63.143 66.8713 62.5278C66.182 61.8841 65.0446 61.1987 63.499 60.572C60.4001 59.3188 56.6139 58.6865 54.2403 58.6865C51.8668 58.6865 48.0806 59.3188 44.9817 60.572C43.436 61.1987 42.2986 61.8841 41.6094 62.5278C40.9486 63.143 40.9486 63.4639 40.9486 63.519V70.0794H67.5321V63.5209ZM54.2403 51.0912C58.4367 51.0912 61.8356 47.6923 61.8356 43.4959C61.8356 39.2995 58.4367 35.9007 54.2403 35.9007C50.0439 35.9007 46.645 39.2995 46.645 43.4959C46.645 47.6923 50.0439 51.0912 54.2403 51.0912ZM54.2403 47.2936C55.2475 47.2936 56.2135 46.8935 56.9257 46.1813C57.6379 45.4691 58.038 44.5031 58.038 43.4959C58.038 42.4887 57.6379 41.5228 56.9257 40.8106C56.2135 40.0984 55.2475 39.6983 54.2403 39.6983C53.2331 39.6983 52.2672 40.0984 51.555 40.8106C50.8428 41.5228 50.4427 42.4887 50.4427 43.4959C50.4427 44.5031 50.8428 45.4691 51.555 46.1813C52.2672 46.8935 53.2331 47.2936 54.2403 47.2936Z" fill="#4F4F4F"/>
<path fill-rule="evenodd" clip-rule="evenodd" d="M54.2403 29.3212C56.4487 29.982 58.038 30.2042 58.038 30.2042V24.5077H61.8356C64.3536 24.5077 66.7685 23.5075 68.549 21.727C70.3294 19.9465 71.3297 17.5316 71.3297 15.0136C71.3297 12.4956 70.3294 10.0808 68.549 8.30029C66.7685 6.5198 64.3536 5.51953 61.8356 5.51953H50.8908C48.254 5.51953 45.7251 6.56701 43.8606 8.43154C41.9961 10.2961 40.9486 12.8249 40.9486 15.4618C40.9486 24.0406 49.2047 27.8155 54.2403 29.3212ZM67.5321 15.0136C67.5321 16.5244 66.9319 17.9733 65.8636 19.0416C64.7953 20.1099 63.3464 20.7101 61.8356 20.7101H54.2403V25.3337C53.1986 24.9799 52.1818 24.5567 51.1965 24.0672C47.4312 22.1798 44.7462 19.4949 44.7462 15.4618C44.7462 13.8321 45.3936 12.2692 46.5459 11.1169C47.6983 9.96455 49.2612 9.31717 50.8908 9.31717H61.8356C63.3464 9.31717 64.7953 9.91733 65.8636 10.9856C66.9319 12.0539 67.5321 13.5028 67.5321 15.0136ZM19.7141 28.2921C17.2257 28.2059 14.8709 27.1453 13.1573 25.3389C11.4437 23.5325 10.5086 21.1251 10.5537 18.6356C10.5988 16.1461 11.6204 13.7741 13.3983 12.031C15.1762 10.2878 17.5679 9.31317 20.0578 9.31717H26.0751C28.509 9.31717 30.8432 10.284 32.5642 12.0051C34.2853 13.7261 35.2521 16.0603 35.2521 18.4942C35.2521 26.1692 28.3594 29.6782 23.8592 31.1536C21.6793 31.8676 20.0616 32.103 20.0616 32.103V28.3054L19.7141 28.2921ZM23.8592 24.6426L19.8527 24.4982C18.3471 24.4655 16.9158 23.8375 15.8722 22.7518C14.8286 21.6661 14.2577 20.2111 14.2846 18.7053C14.3115 17.1996 14.9339 15.7659 16.0156 14.7181C17.0973 13.6703 18.55 13.0938 20.0559 13.1148H26.0732C26.7798 13.1146 27.4795 13.2535 28.1324 13.5237C28.7853 13.794 29.3785 14.1902 29.8782 14.6897C30.378 15.1893 30.7744 15.7824 31.0448 16.4351C31.3153 17.0879 31.4545 17.7876 31.4545 18.4942C31.4545 22.1304 29.1436 24.5134 25.9023 26.2034C25.2188 26.5604 24.5257 26.8642 23.8592 27.1224V24.6426Z" fill="#8CDBA4"/>
</svg>
