<svg width="17" height="16" viewBox="0 0 17 16" fill="none" xmlns="http://www.w3.org/2000/svg">
<path d="M2.38039 15.5339H14.6184C15.9705 15.5339 16.8133 14.5635 16.8133 13.339C16.8133 12.9733 16.7179 12.5994 16.5191 12.2577L10.3882 1.57804C9.97428 0.854344 9.25092 0.464844 8.50348 0.464844C7.76383 0.464844 7.03233 0.854344 6.6106 1.57804L0.479708 12.2655C0.287814 12.5908 0.186262 12.9614 0.185547 13.339C0.185547 14.5639 1.03648 15.5339 2.38039 15.5339ZM2.39633 14.2853C1.83956 14.2853 1.47348 13.832 1.47348 13.339C1.47348 13.1959 1.49756 13.0289 1.5773 12.862L7.70005 2.18231C7.87512 1.88034 8.19337 1.73717 8.50348 1.73717C8.81358 1.73717 9.11555 1.8722 9.29062 2.18231L15.4137 12.8698C15.4931 13.0293 15.5328 13.1959 15.5328 13.339C15.5328 13.832 15.1511 14.2856 14.6025 14.2856L2.39633 14.2853ZM8.50348 10.1742C8.88517 10.1742 9.1074 9.95161 9.11555 9.53802L9.22683 5.3475C9.23498 4.94172 8.91673 4.63975 8.49533 4.63975C8.06614 4.63975 7.76383 4.93392 7.77164 5.33936L7.87512 9.53802C7.88292 9.94381 8.10583 10.1742 8.50348 10.1742ZM8.50348 12.7585C8.96456 12.7585 9.36187 12.3928 9.36187 11.9317C9.36187 11.4625 8.97237 11.1045 8.50348 11.1045C8.03424 11.1045 7.6444 11.4703 7.6444 11.9317C7.6444 12.385 8.04205 12.7585 8.50348 12.7585Z" fill="#E0AD49"/>
</svg>
