<svg width="31" height="31" viewBox="0 0 31 31" fill="none" xmlns="http://www.w3.org/2000/svg">
<path d="M11.1069 22.2248V11.8575H7.65921V22.2259H11.1058L11.1069 22.2248ZM9.38304 10.4404C10.5843 10.4404 11.3338 9.64321 11.3338 8.64789C11.3117 7.63154 10.5843 6.85764 9.40739 6.85764C8.22607 6.85764 7.45661 7.63264 7.45661 8.64789C7.45661 9.64432 8.20504 10.4415 9.362 10.4415L9.38304 10.4404ZM23.5345 22.2248V16.2805C23.5345 13.0953 21.834 11.6128 19.5676 11.6128C17.7364 11.6128 16.9171 12.6203 16.461 13.3256V11.8553H13.0145C13.0599 12.8296 13.0145 22.2248 13.0145 22.2248H16.461V16.4344C16.461 16.1244 16.4831 15.8144 16.5739 15.5952C16.8219 14.9752 17.3899 14.3342 18.3409 14.3342C19.5887 14.3342 20.0902 15.2841 20.0902 16.678V22.2259H23.5356L23.5345 22.2248ZM15.5 0C24.0604 0 31 6.93846 31 15.5C31 24.0604 24.0604 31 15.5 31C6.93846 31 0 24.0604 0 15.5C0 6.93846 6.93846 0 15.5 0Z" fill="#030303"/>
</svg>
