<svg width="31" height="31" viewBox="0 0 31 31" fill="none" xmlns="http://www.w3.org/2000/svg">
<path fill-rule="evenodd" clip-rule="evenodd" d="M15.5128 0C6.93463 0 0 7.10414 0 15.8929C0 22.9183 4.44326 28.8651 10.6072 30.9698C11.3779 31.1281 11.6602 30.6279 11.6602 30.2071C11.6602 29.8387 11.6348 28.5757 11.6348 27.2599C7.31948 28.2073 6.42086 25.3653 6.42086 25.3653C5.72737 23.5234 4.69983 23.05 4.69983 23.05C3.28743 22.0764 4.80271 22.0764 4.80271 22.0764C6.36942 22.1817 7.19152 23.7078 7.19152 23.7078C8.57819 26.1284 10.8127 25.4444 11.7116 25.0234C11.8399 23.9971 12.2511 23.2867 12.6877 22.8921C9.24597 22.5237 5.6248 21.1555 5.6248 15.0508C5.6248 13.3141 6.24082 11.8933 7.21692 10.7883C7.06292 10.3937 6.52343 8.76198 7.37124 6.57811C7.37124 6.57811 8.68107 6.15703 11.6345 8.20948C12.8989 7.86159 14.2029 7.68461 15.5128 7.68312C16.8227 7.68312 18.1579 7.86751 19.3909 8.20948C22.3446 6.15703 23.6544 6.57811 23.6544 6.57811C24.5022 8.76198 23.9624 10.3937 23.8084 10.7883C24.8102 11.8933 25.4008 13.3141 25.4008 15.0508C25.4008 21.1555 21.7797 22.4972 18.3122 22.8921C18.8774 23.392 19.3652 24.3391 19.3652 25.839C19.3652 27.9703 19.3397 29.6808 19.3397 30.2068C19.3397 30.6279 19.6224 31.1281 20.3927 30.9702C26.5567 28.8648 30.9999 22.9183 30.9999 15.8929C31.0253 7.10414 24.0653 0 15.5128 0Z" fill="#030303"/>
</svg>
