<svg width="31" height="31" viewBox="0 0 31 31" fill="none" xmlns="http://www.w3.org/2000/svg">
<path d="M15.5 0C6.9395 0 0 6.9395 0 15.5C0 24.0605 6.9395 31 15.5 31C24.0605 31 31 24.0605 31 15.5C31 6.9395 24.0605 0 15.5 0ZM9.109 10.3335H21.8905C22.0525 10.3335 22.205 10.372 22.3425 10.4365L16.196 14.751C15.6615 15.286 15.3305 15.286 14.796 14.751L8.652 10.439C8.7915 10.373 8.945 10.3335 9.109 10.3335ZM22.963 19.881C22.963 20.4735 22.483 20.954 21.891 20.954H9.109C8.517 20.954 8.037 20.4735 8.037 19.881V11.728C8.037 11.674 8.045 11.6225 8.053 11.571L14.363 16.0495C14.991 16.678 16.0095 16.678 16.6375 16.0495L22.9475 11.571C22.955 11.6225 22.9635 11.674 22.9635 11.728V19.881H22.963Z" fill="#030303"/>
</svg>
