<svg width="61" height="41" viewBox="0 0 61 41" fill="none" xmlns="http://www.w3.org/2000/svg">
<path d="M57.9969 11.7714V35.8085C57.9969 35.9568 57.9814 36.1019 57.9534 36.2409C57.8507 36.7506 57.5692 37.1969 57.1758 37.5104C56.7978 37.8147 56.3157 37.9969 55.7916 37.9969H11.8165C11.2722 37.9969 10.773 37.8008 10.3888 37.4749C9.9145 37.0749 9.61279 36.4772 9.61279 35.8085V11.7714C9.61279 11.6124 9.6299 11.4564 9.66256 11.305C9.77298 10.7985 10.0607 10.3568 10.4588 10.0479C10.8321 9.75598 11.3049 9.58301 11.8165 9.58301H55.7916C56.4013 9.58301 56.9534 9.82857 57.353 10.2255C57.7496 10.6208 57.9969 11.1676 57.9969 11.7714Z" fill="#012169"/>
<path d="M33.2818 20.3394L33.2678 20.3656L32.5586 21.5563L31.9225 22.6266L31.7997 22.8351L31.1636 23.9054L30.6675 24.7394L30.5166 24.6513L30.3238 24.5386H30.3222L28.9956 23.7587L25.2351 21.5563L23.2025 20.3656L9.6084 12.398V11.2737L9.65817 11.3031C9.76859 10.7965 10.0563 10.3548 10.4544 10.0459C10.8277 9.75403 11.3005 9.58105 11.8121 9.58105H14.9225L30.5166 18.7193L31.7997 19.4699L33.2818 20.3394Z" fill="white"/>
<path d="M58.0003 35.1165V35.8115C58.0003 35.9597 57.9847 36.1049 57.9568 36.2439C57.8541 36.7536 57.5726 37.1999 57.1792 37.5134C56.8012 37.8177 56.3191 37.9999 55.795 37.9999H52.8012L37.2538 28.8895L35.8821 28.0848L34.4715 27.2601L32.7344 26.2408L32.795 26.1389L32.8572 26.0323L33.683 24.6455L34.8463 22.6856L35.3487 21.8408L35.8821 22.1543L36.2476 22.3675L36.442 22.4817L37.2538 22.9574L38.61 23.7528L42.683 26.1389L44.596 27.2601L58.0003 35.1165Z" fill="white"/>
<path d="M32.2429 27.7672L31.7997 28.0267L30.5166 28.7788L14.7795 38.0004H11.8121C11.2678 38.0004 10.7686 37.8043 10.3844 37.4784C9.91011 37.0784 9.6084 36.4807 9.6084 35.812V35.1232L23.0236 27.2606L24.9381 26.1394L28.9956 23.7595L29.6364 23.3857L30.3222 24.5394H30.3238L30.5166 24.8637L30.8759 25.4691L31.2756 26.1394L31.6379 26.7479L31.7997 27.0213L31.9412 27.2606L32.2429 27.7672Z" fill="white"/>
<path d="M34.0826 25.3155L32.857 26.0321L32.6782 26.1386L31.7995 26.6529L31.6378 26.7471L30.7637 27.2599L30.5165 27.405L12.4372 37.9996H11.812C11.2676 37.9996 10.7684 37.8035 10.3843 37.4776L27.8197 27.2599L29.7326 26.1386L30.5165 25.6784L30.8757 25.4684L31.7995 24.9263L32.3516 24.6035L33.1525 24.134L33.3205 24.0352L33.6829 24.6437L34.0826 25.3155Z" fill="#C8102E"/>
<path d="M58.0004 11.7695V12.3888L44.3907 20.3656L42.3581 21.5563L38.61 23.7525L37.6256 24.3285L37.2539 24.5463L36.2881 25.1131L35.8822 24.4289L35.019 22.9772L34.8464 22.6853L34.1746 21.5563L33.6831 20.7301L34.3067 20.3656L35.8822 19.4405L37.2539 18.6374L52.708 9.58105H55.7951C56.4047 9.58105 56.9568 9.82661 57.3565 10.2235C57.7531 10.6189 58.0004 11.1656 58.0004 11.7695Z" fill="white"/>
<path d="M57.3562 10.2235L40.0529 20.3656L38.0202 21.5563L37.2535 22.0058L36.4417 22.4814L36.3484 22.5355L36.2473 22.3672L35.8818 21.7509L35.7652 21.5563L35.5879 21.2567L35.8818 21.0838L37.1073 20.3656L37.2535 20.2791L55.5086 9.58105H55.7947C56.4044 9.58105 56.9565 9.82661 57.3562 10.2235Z" fill="#C8102E"/>
<path d="M57.9565 36.2438C57.8538 36.7534 57.5723 37.1998 57.1789 37.5133L39.6827 27.26L37.7698 26.1388L37.2535 25.8361L35.8818 25.0314L34.3359 24.1264L35.0187 22.9774L35.0964 22.8477L35.8818 23.3079L37.2535 24.1125L37.6252 24.3287L40.7107 26.1388L42.6236 27.26L57.9565 36.2438Z" fill="#C8102E"/>
<path d="M33.498 23.5511L33.1527 24.1349L32.7391 24.8314L32.3518 24.6044L31.7997 24.2801L31.1636 23.9063L30.5167 23.5295L27.1512 21.5573L25.1201 20.3666L9.6582 11.304C9.76862 10.7975 10.0563 10.3558 10.4545 10.0469L28.0625 20.3666L30.0952 21.5573L30.5167 21.8029L31.7997 22.555L31.9226 22.6276L33.498 23.5511Z" fill="#C8102E"/>
<path d="M9.60498 20.3665V27.2607L57.9984 27.2607V20.3665L9.60498 20.3665Z" fill="white"/>
<path d="M37.2553 9.57812H30.5166V37.9967H37.2553V9.57812Z" fill="white"/>
<path d="M35.8817 9.58105H31.7993V37.9996H35.8817V9.58105Z" fill="#C8102E"/>
<path d="M9.60693 21.5564V26.1387L58.0004 26.1387V21.5564L9.60693 21.5564Z" fill="#C8102E"/>
<path d="M46.5257 3.37305H3.37646V13.1074H52.5257V9.37305C52.5257 6.05934 49.8395 3.37305 46.5257 3.37305Z" fill="#FCFCFC"/>
<path d="M52.5257 13.1074H3.37646V22.8387H52.5257V13.1074Z" fill="#FCFCFC"/>
<path d="M3.375 22.8438H52.5243V30.3897C52.5243 31.5974 51.5367 32.5781 50.3205 32.5781H5.58029C4.36411 32.5781 3.37656 31.5974 3.37656 30.3897V22.8438H3.375Z" fill="#FCFCFC"/>
<g filter="url(#filter0_d_779_528)">
<path d="M4.20529 2H48.1897C49.4059 2 50.3934 2.98069 50.3934 4.18842V11.4842H2V4.18842C2 2.98069 2.98756 2 4.20373 2H4.20529Z" fill="#EF3340"/>
<path d="M50.3934 11.4854H2V20.9711H50.3934V11.4854Z" fill="white"/>
<path d="M2 20.9717H50.3934V28.2674C50.3934 29.4752 49.4059 30.4558 48.1897 30.4558H4.20373C2.98756 30.4558 2 29.4752 2 28.2674V20.9717Z" fill="#EF3340"/>
</g>
<defs>
<filter id="filter0_d_779_528" x="0" y="0" width="60.3936" height="40.4561" filterUnits="userSpaceOnUse" color-interpolation-filters="sRGB">
<feFlood flood-opacity="0" result="BackgroundImageFix"/>
<feColorMatrix in="SourceAlpha" type="matrix" values="0 0 0 0 0 0 0 0 0 0 0 0 0 0 0 0 0 0 127 0" result="hardAlpha"/>
<feOffset dx="4" dy="4"/>
<feGaussianBlur stdDeviation="3"/>
<feComposite in2="hardAlpha" operator="out"/>
<feColorMatrix type="matrix" values="0 0 0 0 0 0 0 0 0 0 0 0 0 0 0 0 0 0 0.25 0"/>
<feBlend mode="normal" in2="BackgroundImageFix" result="effect1_dropShadow_779_528"/>
<feBlend mode="normal" in="SourceGraphic" in2="effect1_dropShadow_779_528" result="shape"/>
</filter>
</defs>
</svg>
