<svg width="62" height="41" viewBox="0 0 62 41" fill="none" xmlns="http://www.w3.org/2000/svg">
<path d="M12.8684 9.50977H56.8528C58.069 9.50977 59.0565 10.4905 59.0565 11.6982V18.9939H10.6631V11.6982C10.6631 10.4905 11.6506 9.50977 12.8668 9.50977H12.8684Z" fill="#EF3340"/>
<path d="M59.0565 18.9951H10.6631V28.4808H59.0565V18.9951Z" fill="white"/>
<path d="M10.6631 28.4814H59.0565V35.7772C59.0565 36.9849 58.069 37.9656 56.8528 37.9656H12.8668C11.6506 37.9656 10.6631 36.9849 10.6631 35.7772V28.4814Z" fill="#EF3340"/>
<path d="M46.5262 3.37305H4.37695V13.1074H53.5262V10.373C53.5262 6.50705 50.3922 3.37305 46.5262 3.37305Z" fill="white"/>
<path d="M53.5262 13.1074H4.37695V22.8387H53.5262V13.1074Z" fill="white"/>
<path d="M4.375 22.8438H53.5243V30.3897C53.5243 31.5974 52.5367 32.5781 51.3205 32.5781H6.58029C5.36411 32.5781 4.37656 31.5974 4.37656 30.3897V22.8438H4.375Z" fill="white"/>
<g filter="url(#filter0_d_878_1624)">
<path d="M51.3724 4.24896V28.286C51.3724 28.4343 51.3568 28.5795 51.3288 28.7185C51.2262 29.2281 50.9447 29.6744 50.5512 29.988C50.1733 30.2922 49.6912 30.4744 49.1671 30.4744H5.19201C4.64769 30.4744 4.14847 30.2783 3.76433 29.9524C3.28999 29.5524 2.98828 28.9548 2.98828 28.286V4.24896C2.98828 4.08989 3.00539 3.9339 3.03805 3.78255C3.14847 3.27599 3.43618 2.83429 3.83432 2.52541C4.20757 2.23352 4.68035 2.06055 5.19201 2.06055H49.1671C49.7767 2.06055 50.3288 2.30611 50.7285 2.70302C51.1251 3.09839 51.3724 3.6451 51.3724 4.24896Z" fill="#012169"/>
<path d="M26.6568 12.8169L26.6428 12.8431L25.9336 14.0339L25.2975 15.1042L25.1747 15.3126L24.5386 16.3829L24.0425 17.2169L23.8916 17.1289L23.6988 17.0161H23.6972L22.3706 16.2362L18.6101 14.0339L16.5775 12.8431L2.9834 4.87558V3.75126L3.03317 3.7806C3.14359 3.27404 3.4313 2.83234 3.82943 2.52346C4.20268 2.23157 4.67547 2.05859 5.18713 2.05859H8.29755L23.8916 11.1968L25.1747 11.9474L26.6568 12.8169Z" fill="white"/>
<path d="M51.3753 27.594V28.289C51.3753 28.4373 51.3598 28.5824 51.3318 28.7214C51.2291 29.2311 50.9476 29.6774 50.5542 29.9909C50.1762 30.2952 49.6941 30.4774 49.17 30.4774H46.1762L30.6288 21.367L29.2571 20.5624L27.8465 19.7377L26.1094 18.7184L26.17 18.6164L26.2322 18.5099L27.058 17.123L28.2213 15.1631L28.7237 14.3184L29.2571 14.6319L29.6226 14.845L29.817 14.9593L30.6288 15.435L31.985 16.2303L36.058 18.6164L37.971 19.7377L51.3753 27.594Z" fill="white"/>
<path d="M25.6179 20.2438L25.1747 20.5032L23.8916 21.2554L8.15447 30.477H5.18713C4.64281 30.477 4.14359 30.2808 3.75945 29.955C3.28511 29.555 2.9834 28.9573 2.9834 28.2886V27.5998L16.3986 19.7372L18.3131 18.616L22.3706 16.236L23.0114 15.8623L23.6972 17.016H23.6988L23.8916 17.3403L24.2509 17.9457L24.6506 18.616L25.0129 19.2245L25.1747 19.4978L25.3162 19.7372L25.6179 20.2438Z" fill="white"/>
<path d="M27.458 17.793L26.2325 18.5096L26.0537 18.6162L25.175 19.1305L25.0133 19.2247L24.1392 19.7374L23.8919 19.8826L5.81264 30.4772H5.18745C4.64312 30.4772 4.1439 30.281 3.75977 29.9552L21.1952 19.7374L23.1081 18.6162L23.8919 18.1559L24.2512 17.9459L25.175 17.4038L25.7271 17.081L26.528 16.6115L26.696 16.5127L27.0584 17.1212L27.458 17.793Z" fill="#C8102E"/>
<path d="M51.3758 4.24701V4.86631L37.7662 12.8431L35.7336 14.0339L31.9855 16.23L31.001 16.8061L30.6294 17.0238L29.6636 17.5906L29.2577 16.9065L28.3945 15.4547L28.2219 15.1628L27.55 14.0339L27.0586 13.2076L27.6822 12.8431L29.2577 11.9181L30.6294 11.115L46.0835 2.05859H49.1706C49.7802 2.05859 50.3323 2.30415 50.732 2.70106C51.1286 3.09643 51.3758 3.64315 51.3758 4.24701Z" fill="white"/>
<path d="M50.7312 2.70106L33.4279 12.8431L31.3952 14.0339L30.6285 14.4833L29.8167 14.959L29.7234 15.013L29.6223 14.8447L29.2568 14.2285L29.1402 14.0339L28.9629 13.7343L29.2568 13.5613L30.4823 12.8431L30.6285 12.7567L48.8836 2.05859H49.1697C49.7794 2.05859 50.3315 2.30415 50.7312 2.70106Z" fill="#C8102E"/>
<path d="M51.3324 28.7213C51.2298 29.231 50.9483 29.6773 50.5548 29.9908L33.0587 19.7376L31.1458 18.6163L30.6295 18.3136L29.2578 17.509L27.7119 16.604L28.3947 15.4549L28.4724 15.3252L29.2578 15.7854L30.6295 16.5901L31.0012 16.8063L34.0867 18.6163L35.9996 19.7376L51.3324 28.7213Z" fill="#C8102E"/>
<path d="M26.873 16.0277L26.5277 16.6115L26.1141 17.308L25.7268 17.081L25.1747 16.7566L24.5386 16.3829L23.8917 16.0061L20.5262 14.0339L18.4951 12.8431L3.0332 3.78058C3.14362 3.27402 3.43134 2.83232 3.82947 2.52344L21.4375 12.8431L23.4702 14.0339L23.8917 14.2794L25.1747 15.0315L25.2976 15.1041L26.873 16.0277Z" fill="#C8102E"/>
<path d="M2.98047 12.8431L2.98047 19.7373L51.3739 19.7373V12.8431L2.98047 12.8431Z" fill="white"/>
<path d="M30.6303 2.05566H23.8916V30.4742H30.6303V2.05566Z" fill="white"/>
<path d="M29.2572 2.05859H25.1748V30.4771H29.2572V2.05859Z" fill="#C8102E"/>
<path d="M2.98242 14.034L2.98242 18.6162L51.3759 18.6162V14.034L2.98242 14.034Z" fill="#C8102E"/>
</g>
<defs>
<filter id="filter0_d_878_1624" x="0.980469" y="0.0556641" width="60.3955" height="40.4219" filterUnits="userSpaceOnUse" color-interpolation-filters="sRGB">
<feFlood flood-opacity="0" result="BackgroundImageFix"/>
<feColorMatrix in="SourceAlpha" type="matrix" values="0 0 0 0 0 0 0 0 0 0 0 0 0 0 0 0 0 0 127 0" result="hardAlpha"/>
<feOffset dx="4" dy="4"/>
<feGaussianBlur stdDeviation="3"/>
<feComposite in2="hardAlpha" operator="out"/>
<feColorMatrix type="matrix" values="0 0 0 0 0 0 0 0 0 0 0 0 0 0 0 0 0 0 0.25 0"/>
<feBlend mode="normal" in2="BackgroundImageFix" result="effect1_dropShadow_878_1624"/>
<feBlend mode="normal" in="SourceGraphic" in2="effect1_dropShadow_878_1624" result="shape"/>
</filter>
</defs>
</svg>
